<svg xmlns="http://www.w3.org/2000/svg" width="23.666" height="30.041" viewBox="0 0 23.666 30.041"><g transform="translate(-72.5 507.723)"><path d="M75.849-507.644a4.255,4.255,0,0,0-3.168,2.833l-.18.515v22.878l.174.515a4.537,4.537,0,0,0,1.178,1.867,4.537,4.537,0,0,0,1.867,1.178l.515.174h9.64c9.634,0,9.64,0,9.814-.135a.909.909,0,0,0,.444-.863.909.909,0,0,0-.444-.863c-.174-.135-.206-.135-9.685-.167l-9.511-.032-.431-.206a2.475,2.475,0,0,1-1.262-1.23,1.781,1.781,0,0,1-.238-1.108,1.781,1.781,0,0,1,.238-1.108,2.475,2.475,0,0,1,1.262-1.23l.431-.206L86-484.862l9.511-.032.18-.135a1.9,1.9,0,0,0,.328-.348l.142-.213-.013-12.19-.019-9.31L96-507.264a1.756,1.756,0,0,0-.309-.309c-.174-.135-.187-.135-9.814-.148C78.077-507.728,76.164-507.715,75.849-507.644Zm1.256,9.9v10.806l-.457.045a4.622,4.622,0,0,0-1.713.528l-.406.219v-10.265c0-11.257-.026-7.687.386-8.293a2.28,2.28,0,0,1,1.822-.972H77.1Zm17,.006v10.819H79.165V-505.68h14.94Z" transform="translate(0 0)" fill="#feab04"/><path d="M128.716-87.693a1.059,1.059,0,0,0-.586,1.166,1.1,1.1,0,0,0,.67.741c.167.052,3.123.064,9.492.052,9.228-.019,9.254-.019,9.428-.155a.909.909,0,0,0,.444-.863.909.909,0,0,0-.444-.863c-.174-.135-.193-.135-9.492-.148C130.577-87.777,128.877-87.764,128.716-87.693Z" transform="translate(-52.03 -395.533)" fill="#feab04"/></g></svg>