<svg xmlns="http://www.w3.org/2000/svg" width="20.128" height="28" viewBox="0 0 20.128 28"><g transform="translate(-72.5 511.723)"><path d="M75.348-511.656a3.619,3.619,0,0,0-2.695,2.41l-.153.438V-486.9l.148.438a3.859,3.859,0,0,0,1,1.588,3.859,3.859,0,0,0,1.588,1l.438.148h8.2c8.194,0,8.2,0,8.347-.115a.773.773,0,0,0,.378-.734.773.773,0,0,0-.378-.734c-.148-.115-.175-.115-8.237-.142l-8.09-.027-.367-.175a2.1,2.1,0,0,1-1.074-1.046,1.515,1.515,0,0,1-.2-.942,1.515,1.515,0,0,1,.2-.942,2.1,2.1,0,0,1,1.074-1.046l.367-.175,8.09-.027,8.09-.027.153-.115a1.612,1.612,0,0,0,.279-.3l.121-.181-.011-10.368L92.6-511.185l-.115-.148a1.492,1.492,0,0,0-.263-.263c-.148-.115-.159-.115-8.347-.126C77.243-511.727,75.616-511.716,75.348-511.656Zm1.068,10.866v9.191l-.389.038a3.932,3.932,0,0,0-1.457.449l-.345.186v-8.73c0-9.574-.022-8.988.329-9.5a1.939,1.939,0,0,1,1.55-.827h.312Zm14.459.005v9.2H78.169v-18.4H90.876Z" transform="translate(0 0)" fill="#ffac05"/><path d="M128.626-87.7a.9.9,0,0,0-.5.991.937.937,0,0,0,.57.63c.142.044,2.656.055,8.073.044,7.849-.016,7.871-.016,8.018-.131a.773.773,0,0,0,.378-.734.773.773,0,0,0-.378-.734c-.148-.115-.164-.115-8.073-.126C130.209-87.776,128.763-87.765,128.626-87.7Z" transform="translate(-52.566 -400.734)" fill="#ffac05"/></g></svg>