<svg xmlns="http://www.w3.org/2000/svg" width="105.857" height="43.611" viewBox="0 0 105.857 43.611"><path d="M88.394,43.611V22.665H76.771V43.611Zm0-22.676H76.771V0H88.394V20.935Zm14.985,1.752a14.289,14.289,0,0,1,2.479,7.829c-.017,7.25-5.62,13.112-12.516,13.095H90.06V22.665h13.289ZM90.06,20.935h11.8a12.3,12.3,0,0,0-3.894-2.575,10.115,10.115,0,0,0,4.747-8.579A9.65,9.65,0,0,0,93.342,0H90.06ZM56.015,43.611H44.423V22.665H56.015Zm0-22.676H44.423V0H56.015V20.935Zm1.666,22.676V22.665H70.97a14.289,14.289,0,0,1,2.479,7.829C73.432,37.715,67.872,43.566,61,43.59H57.681Zm0-22.676V0H61a9.665,9.665,0,0,1,9.344,9.813,10.125,10.125,0,0,1-4.757,8.579,12.3,12.3,0,0,1,3.894,2.575h-11.8Zm-37.748,0H7.558L14.523,0h5.41V20.935Zm14.051,0L26.969,0h-5.38V20.935Zm7.558,22.676H31.114l-2.9-8.716H21.589V22.665H34.546l6.965,20.945ZM0,43.611H10.378l2.911-8.716h6.644V22.665H7.026Z" fill="#ed1c24" fill-rule="evenodd"/></svg>