<svg xmlns="http://www.w3.org/2000/svg" width="48.241" height="48.238" viewBox="0 0 48.241 48.238"><g transform="translate(0)"><g transform="translate(0 0)"><path d="M29.578,307.1h-8.2a10.029,10.029,0,0,0-10.051,9.854c-.305,1.644-.719,4.519.305,5.542,2.766,2.668,9.028,3.692,13.842,3.692,4.922,0,11.075-1.024,13.842-3.692,1.024-1.024.62-3.9.305-5.542A10.072,10.072,0,0,0,29.578,307.1Zm8.417,13.851c-1.949,1.949-6.773,3.18-12.4,3.18s-10.563-1.231-12.4-3.081c-.207-.413-1.191-11.548,8.2-12.01,2.136-.108,8.309,0,8.309,0C38.9,309.049,38.2,320.646,37.995,320.951Z" transform="translate(-10.979 -277.95)" fill="#ffbc05"/><path d="M83,139.724A8.112,8.112,0,0,0,83,123.5a8.188,8.188,0,0,0-8.1,8.112A8.061,8.061,0,0,0,83,139.724Zm0-14.166a6.055,6.055,0,1,1-6.153,6.054A6.148,6.148,0,0,1,83,125.558Z" transform="translate(-68.607 -112.425)" fill="#ffbc05"/><path d="M253.1,11V25.885h3.18V33.17l7.285-7.285H277.5V11Zm22.456,12.936H262.836l-4.509,4.519V23.936h-3.18V13.058h20.408Z" transform="translate(-229.264 -11)" fill="#ffbc05"/><path d="M353.543,43.239a.552.552,0,0,1,.512-.305,1.111,1.111,0,0,1,.413.1,1.541,1.541,0,0,1,.207.62.87.87,0,0,1-.207.62l-.817.925a8.235,8.235,0,0,0-.512.719,2.07,2.07,0,0,0-.1.817v.925h1.851v-.817a.784.784,0,0,1,.1-.512l.413-.413.62-.62c0-.1.1-.207.207-.305s.207-.207.207-.305c.1,0,.1-.1.207-.305.1-.1.1-.413.1-.719a2.1,2.1,0,0,0-.719-1.742,2.948,2.948,0,0,0-1.949-.62,2.71,2.71,0,0,0-1.949.719,2.975,2.975,0,0,0-.925,1.949h2.048a3.481,3.481,0,0,1,.3-.729Z" transform="translate(-317.707 -38.317)" fill="#ffbc05"/><path d="M369.922,110a1.138,1.138,0,0,0-.817.305,1.154,1.154,0,0,0-.305.817,1.138,1.138,0,0,0,.305.817,1.007,1.007,0,0,0,.817.305,1.138,1.138,0,0,0,.817-.305,1.154,1.154,0,0,0,.305-.817,1.138,1.138,0,0,0-.305-.817A1.2,1.2,0,0,0,369.922,110Z" transform="translate(-333.574 -100.254)" fill="#ffbc05"/></g></g></svg>