<svg xmlns="http://www.w3.org/2000/svg" width="186.484" height="72.046" viewBox="0 0 186.484 72.046"><g transform="translate(0)"><g transform="translate(0 0)"><path d="M351.563,113.1c.121-13.562-2.719-21.123-5.166-24.871.845-1.143,1.359-1.874,1.389-1.906a2.44,2.44,0,0,1,1.541-.794,30.983,30.983,0,0,1,.876-3.906,18.746,18.746,0,0,1-3.293,2,2.575,2.575,0,0,1-.3,1.779c-.031.064-.423.6-1.087,1.524a15.475,15.475,0,0,0-4.167-3.621c-.453-.254-.906-.508-1.42-.762a2.612,2.612,0,0,0-.665-1.906,1.445,1.445,0,0,0-.756-1.113,1.544,1.544,0,0,0-1.359.413,3.068,3.068,0,0,0-1.842,1.048,32.054,32.054,0,0,0-5.166-.7,3.123,3.123,0,0,0-1.6-2.128,1.7,1.7,0,0,0-1.269-.921,1.753,1.753,0,0,0-1.269.921,3.041,3.041,0,0,0-1.6,2.128,36.068,36.068,0,0,0-5.166.7,2.987,2.987,0,0,0-1.843-1.048,1.642,1.642,0,0,0-1.359-.413,1.424,1.424,0,0,0-.786,1.113,2.473,2.473,0,0,0-.634,1.906c-.514.254-1,.508-1.42.762a13.463,13.463,0,0,0-4.079,3.589c-.6-.826-.937-1.335-.967-1.363a2.686,2.686,0,0,1-.332-1.779,22.976,22.976,0,0,1-3.293-2,31,31,0,0,1,.876,3.906,2.435,2.435,0,0,1,1.541.794c.031.032.483.667,1.239,1.683-2.477,3.716-5.347,11.339-5.227,25,.031,1.27-.483,13.086,3.173,21.059a19.319,19.319,0,0,0,3.5,4.923,13.032,13.032,0,0,0,5.861,3.4l.272.064a8.5,8.5,0,0,0,6.073-.222l-.151.349-.12.318c-.514,1.46-.185,2.985,1.721,3.212a4.261,4.261,0,0,1,3.2,1.62,6.97,6.97,0,0,1,.967,1.429,6.937,6.937,0,0,1,.967-1.429,5.557,5.557,0,0,1,1.511-1.207,4.935,4.935,0,0,1,1.722-.413c1.873-.222,2.235-1.747,1.721-3.212l-.121-.349-.151-.349c1.3.794,5.317,1.4,9.154-1.143a17.006,17.006,0,0,0,6.133-6.956c3.687-8,3.2-20.043,3.173-21.123m-17.009-10.926-.272.254-.634.159-.6-.349a12.128,12.128,0,0,1-1.179-2.414c-.393-.985-.332-.826-.906-2.35A15.242,15.242,0,0,0,329.9,95.22a5.433,5.433,0,0,0-1.51-1.363,3.957,3.957,0,0,0-1.359-.318,7.149,7.149,0,0,0-2.266.195,2.374,2.374,0,0,0-1.118.635l-.332.318a3.711,3.711,0,0,0-1.027.572,1.334,1.334,0,0,0-.611.963,1.373,1.373,0,0,0,.339,1.1h.03l.061-.476a1.727,1.727,0,0,0,1.118.222c.483-.064.786.667.786.667l.061-.222.272.572.061-.1.393.6a1.148,1.148,0,0,1-.453.859c-.121.127-.876.762-1.662,1.62-.423.445-.6.7-1.028,1.175l-.634.414h-.093l-.514-.254c-.093-.1-4.109-5.718-6.042-8.385,3.5-3.59,9.306-4.16,10.725-4.066.332.032.725.318.3.921a4.727,4.727,0,0,1,3.867,0c-.423-.6-.031-.859.3-.921a14.813,14.813,0,0,1,10.786,4.16c-1.935,2.668-4.444,6-5.8,8.069" transform="translate(-302.939 -77.238)" fill="#fff"/><path d="M595.675,264.053a33.439,33.439,0,0,1-5.439,3.875l-.876.508v-.667c0-.064.242-9.022-3.9-16.743-.272.381-1.118,1.524-2.024,2.731a1.77,1.77,0,0,1,1.541.6,16.911,16.911,0,0,1,3.081,5.21,15.033,15.033,0,0,1,.694,4.891s-.514,9.116-1.511,17.851c-.906,7.941-1.389,8.989-1.389,8.989a5.517,5.517,0,0,1-.937-2.191l-.093.1a6.754,6.754,0,0,1-.845-2.351,37.722,37.722,0,0,1-.393-6.512,2.867,2.867,0,0,0-.332-1.239,6.864,6.864,0,0,1-.393-1.113v-.03a7.471,7.471,0,0,0-2.176-3.875,12.628,12.628,0,0,1-1.542-2.668l-.061.064a2.182,2.182,0,0,0-.694,1.016,10.338,10.338,0,0,1,.061,3.176l-.3-.254c.093.953-.332,2.033-.06,2.92l-.544-.064.061.128.272.254.185.1c.031,0,.185.064.544.195a1.78,1.78,0,0,0-.242-1.779c-.242-.318.061-.794.573-.54a7.159,7.159,0,0,1,2.176,1.524c1.117,1.113,1.42,2.16,1.208,2.382l-.544.064-.031.127-.483.413-.031.064a.711.711,0,0,1-.634.222l-.634-.195-.211-.159-.211.159a45.914,45.914,0,0,1,3.746,5.527,20.549,20.549,0,0,1,1.269,2.954,1.951,1.951,0,0,1-1.058,0,3.936,3.936,0,0,1,.272,1.655,2.81,2.81,0,0,1-1.693-.413l.061.318c.544.413,1.148.889,1.42,1.08-2.629,1.3-6.436.7-6.526.7l-.483-.064-.093.254c.242.635.845,2.128,1,2.445a8.461,8.461,0,0,0,5.619.921,10.579,10.579,0,0,0,1.42-.413,14.9,14.9,0,0,0,4.5-3.051,17.98,17.98,0,0,0,3.384-4.575c2.93-5.972,3.414-14.834,3.414-18.423v-1.874c0-1.363-.061-3.3-.121-4.225" transform="translate(-547.837 -231.908)" fill="#ec343f"/><path d="M327.98,294.933c.121-.348.634-1.655.906-2.319l-.121-.349c-.362.064-.725.127-1.087.159-.242.032-3.867.6-6.5-.667.3-.222.906-.762,1.721-1.3l.031-.16a2.858,2.858,0,0,1-1.693.414,4.589,4.589,0,0,1,.272-1.655,1.963,1.963,0,0,1-1.056,0,16.948,16.948,0,0,1,1.269-2.954,35.591,35.591,0,0,1,2.87-4.289,2.3,2.3,0,0,1,.514-.953l.151-.159-.3-.286-.272.195-.634.222c-.332,0-.544-.064-.634-.222l-.031-.064-.483-.413-.031-.128-.483-.064c-.242-.222.093-1.27,1.208-2.382a7.329,7.329,0,0,1,2.176-1.524c.514-.254.817.222.574.54a1.7,1.7,0,0,0-.211,1.779l.483-.195.423-.318.061-.128-.453.064c.242-.636-.12-2.129.121-3.082l-.332.195a14.226,14.226,0,0,1-.093-2.954c0-.195-.242-.476-.574-.826a9.5,9.5,0,0,1-1.481,2.542,7.625,7.625,0,0,0-2.176,3.875v.032a5.5,5.5,0,0,1-.393,1.113,2.779,2.779,0,0,0-.332,1.239,37.357,37.357,0,0,1-.393,6.48,7.619,7.619,0,0,1-.845,2.35l-.093-.064a5.216,5.216,0,0,1-.967,2.191s-.483-1.048-1.389-8.989c-1-8.735-1.481-17.851-1.481-17.851a14.374,14.374,0,0,1,.694-4.891,17.56,17.56,0,0,1,3.055-5.21,1.848,1.848,0,0,1,1.693-.572l-.332-.476c-.575-.794-1.208-1.683-1.782-2.445-4.049,7.5-3.957,16.486-3.957,16.548v.953l-.694-.413a36.83,36.83,0,0,1-5.619-3.938c-.061.889-.151,3.97-.151,3.97v1.874c0,3.589.6,12.388,3.384,18.423a18.175,18.175,0,0,0,3.293,4.637,12.547,12.547,0,0,0,4.925,3.018l.423.159a8.371,8.371,0,0,0,6.708-.636" transform="translate(-308.481 -231.375)" fill="#ec343f"/><path d="M488.884,643.1c.061-1.048.211-2.636.423-4.034a3.2,3.2,0,0,1-.634.508l-.185-.16c-.634,1.621-1.511,3.906-1.542,3.938a1.774,1.774,0,0,1,1.934-.253" transform="translate(-467.693 -577.259)" fill="#ec343f"/><path d="M496.866,635.672a47.066,47.066,0,0,0-.634-5.781l-.093-.127-.151-.222a7.167,7.167,0,0,1-.362,1.048,3.63,3.63,0,0,1-.514.859,3.782,3.782,0,0,1-1.3-1.683,3.855,3.855,0,0,1-1.27,1.655,3.314,3.314,0,0,1-.544-.859l-.21-.573a47.223,47.223,0,0,0-.573,5.718c-1.574-1.08-2.538,0-2.205.762l.093.195a1,1,0,0,0,.786.445,4.808,4.808,0,0,1,1.934.476,6.43,6.43,0,0,1,2.205,1.906,6.094,6.094,0,0,1,2.206-1.906,5.255,5.255,0,0,1,1.934-.476,1.066,1.066,0,0,0,.786-.445l.093-.195c.329-.794-.608-1.875-2.179-.794" transform="translate(-469.483 -568.777)" fill="#ec343f"/><path d="M565.424,640.611l-.514-.381a30.58,30.58,0,0,1,.453,3.906,1.658,1.658,0,0,1,1.9.286c0-.032-.967-2.6-1.541-4.16l-.3.348" transform="translate(-537.495 -578.291)" fill="#ec343f"/><path d="M338.278,111.257a1.716,1.716,0,0,1-.817,1.207c-.272-.889-.423-1.589.756-4.16-.817,2.542-.483,3.366-.483,3.366l.544-.413m-1.3-1.779s-.3-.572.453-2.8a4.178,4.178,0,0,0-.756,3.558,1.951,1.951,0,0,0,.876-1.175l-.573.413m4.713-3.747c-.211,2.223-.393,2.7-.6,3.081l-.332-.6a1.633,1.633,0,0,0,.332,1.335c.453-.572.755-1.811.6-3.811m-.393-1.493c-.332,2.477-.694,3.05-.967,3.462l-.363-.762a1.983,1.983,0,0,0,.332,1.524,6.734,6.734,0,0,0,1-4.225m-1.783,2.382a3.986,3.986,0,0,1-.151-1.363,2.391,2.391,0,0,0,.093,2.191,6.746,6.746,0,0,0,1.235-4.16,7.666,7.666,0,0,1-1.179,3.336m-.845-1.4a8.109,8.109,0,0,1-.093-1.747,3.4,3.4,0,0,0-.061,2.668A6.217,6.217,0,0,0,340,102.273a6.6,6.6,0,0,1-1.33,2.954m2.87,4.224a1.049,1.049,0,0,0,.393.826,4.24,4.24,0,0,0,.423-2.823,6.15,6.15,0,0,1-.483,2.255l-.332-.254m.815.73a1.025,1.025,0,0,0,.362.73,3.7,3.7,0,0,0,.272-2.509,4.857,4.857,0,0,1-.393,2.033l-.242-.254m-28.888-1.3c-.211-.381-.393-.857-.6-3.081-.151,2,.151,3.239.6,3.812a1.681,1.681,0,0,0,.362-1.335l-.362.6m.786-1.08c-.272-.413-.634-.985-.967-3.495a6.464,6.464,0,0,0,1,4.257,1.983,1.983,0,0,0,.332-1.524l-.363.762m.817-1.079a7.252,7.252,0,0,1-1.179-3.336,6.744,6.744,0,0,0,1.239,4.16,2.339,2.339,0,0,0,.093-2.16,3.863,3.863,0,0,1-.151,1.335m.845-1.43a5.8,5.8,0,0,1-1.359-2.954,6.211,6.211,0,0,0,1.481,3.875,3.482,3.482,0,0,0-.093-2.636,5.288,5.288,0,0,1-.031,1.715m-3.2,4.478a5.433,5.433,0,0,1-.483-2.255,4.3,4.3,0,0,0,.423,2.859,1.049,1.049,0,0,0,.393-.826l-.331.222m-.756.762a4.654,4.654,0,0,1-.393-2.033,3.694,3.694,0,0,0,.272,2.509.859.859,0,0,0,.362-.73l-.242.254m4.864,1.207-.514-.414a1.527,1.527,0,0,0,.817,1.207c.272-.889.423-1.588-.756-4.16.786,2.543.453,3.368.453,3.368m.786-2.191-.575-.349a1.834,1.834,0,0,0,.876,1.143,4.178,4.178,0,0,0-.756-3.558c.726,2.193.455,2.764.455,2.764m5.926,10.707a6.229,6.229,0,0,0-.544-2.6l-.121.508a3.861,3.861,0,0,1-.574-1.46,8.018,8.018,0,0,1-.453,1.557l.483-.195c.212.986.938,1.176,1.209,2.192m7.915-2-.12-.508a6.222,6.222,0,0,0-.544,2.6c.272-1.048,1.028-1.239,1.208-2.191l.483.195a7.411,7.411,0,0,1-.453-1.557,3.044,3.044,0,0,1-.574,1.46m-5.861-1.143a6.772,6.772,0,0,0-.786-2.255,2.925,2.925,0,0,0,.786,2.255m3.021,1.265a5.048,5.048,0,0,0,.634-2.763,4.92,4.92,0,0,0-.634,2.763m-.966.668a2.478,2.478,0,0,0-.031-1.937,2.5,2.5,0,0,0,.031,1.937m-.725-2.065a2.83,2.83,0,0,0-.121-2.16,2.923,2.923,0,0,0,.121,2.16m5.2-6.988a9.655,9.655,0,0,0-.725,2.574c.185-.16,1-2.223.725-2.574m.03-2.318c0-.032.725-1.363.332-2.128-.483.1-.332,2.128-.332,2.128M330,111.01a4.155,4.155,0,0,0,1.148-2.668A2.463,2.463,0,0,1,330,109.771a1.886,1.886,0,0,1-.634-.921,2.478,2.478,0,0,0,.634,2.16m2.3-1.683c.3-.508.755-1.27.393-1.747a16.831,16.831,0,0,0-.393,1.747m-3.626,5.781a4.726,4.726,0,0,0,.6-2.477,4.035,4.035,0,0,0-.6,2.477m1.662-1.589a3.371,3.371,0,0,0,.756-3.018,7.421,7.421,0,0,0-.755,3.018m-1.51-3.144a3.5,3.5,0,0,1-1,1.715,3.494,3.494,0,0,1-.725-1.08,2.388,2.388,0,0,0,.906,2.16,3.534,3.534,0,0,0,.817-2.795m-3.022,3.05a3.366,3.366,0,0,1-1.027-1.143,5.365,5.365,0,0,0,1.42,2.288,4.133,4.133,0,0,0,.211-3.018,6.921,6.921,0,0,1-.6,1.874m-4.079-8.132c-.093-.6.6-1.143.363-2.1a1.972,1.972,0,0,0-.363,2.1m1.389,6.988a6.649,6.649,0,0,0,.993,1.324c-.483-.762-.876-2.223-1.359-2.6a3.054,3.054,0,0,0,.362,1.27m-.332-3.212a3.014,3.014,0,0,0,.876,2.35,3.89,3.89,0,0,0-.876-2.35m.817-2.255a6.6,6.6,0,0,1-.121,1.524,1.511,1.511,0,0,1-.694-.54,5.522,5.522,0,0,0,1.118,1.655,4.442,4.442,0,0,0-.3-2.636m-.514-3.081a23.779,23.779,0,0,1,1.179-2.6,2.67,2.67,0,0,0-1.179,2.6m-.967,5.24a6.818,6.818,0,0,0-.573-2.6,4.918,4.918,0,0,0,.573,2.6m2.84-3.938c-.756,1.016.423,2.255.423,2.287-.031-.032.093-1.937-.423-2.287m.573-2.764a1.459,1.459,0,0,0-.68,1,1.516,1.516,0,0,0,.287,1.191,7.573,7.573,0,0,0,.393-2.191m.666,8.1a3.912,3.912,0,0,0,.453-2.731,2.185,2.185,0,0,1-.755,1.557,2.079,2.079,0,0,1-.665-.859,2.626,2.626,0,0,0,.967,2.033m5.833-7.973a7.321,7.321,0,0,0,.694,2.35,2.3,2.3,0,0,0-.694-2.35m-1.574-2.668c-.093.572.786,1.46.786,1.46a1.425,1.425,0,0,0-.786-1.46m1.3,4.415a3.189,3.189,0,0,1-.786,1.747,5.024,5.024,0,0,1-.786-.857,3.958,3.958,0,0,0,.786,2.033,3.121,3.121,0,0,0,.786-2.92m-2.418-2.382c-.453.54-.031,1.557.242,2.477.242-.446.514-2-.242-2.477m.393-1.46a1.291,1.291,0,0,0-1.117-1.4c-.093.54.785.857,1.117,1.4m-1.088-1.937c.211.222.937.414,1.359.826a1.014,1.014,0,0,0-.475-.785.918.918,0,0,0-.884-.042m-1,2.954a1.228,1.228,0,0,0-.272,1.46c0-.031.845-.985.272-1.46m1.056,7.593a4.126,4.126,0,0,0,.967-2.636,6.2,6.2,0,0,1-1.028,1.363,7.254,7.254,0,0,1-.876-.826,3.565,3.565,0,0,0,.937,2.1m-1.3-4.891a2.514,2.514,0,0,0,0,2.509c-.031,0,.513-1.715,0-2.509m.242-8.765c.211.254.876.54,1.269.921-.031-.635-.545-.953-1.269-.921m.362.7a1.857,1.857,0,0,0-1.208-.7,1.353,1.353,0,0,0,1.208.7m1.42,1.27a1.466,1.466,0,0,0-1.028-.762l.362.635-.6.128a1.329,1.329,0,0,0,1.269,0m-6.164-1.779.093.254.211-.222-.3-.032m5.953-12.265-.574-.445-.573.445.573.445.574-.445M325.588,94.9l.061.382a.62.62,0,0,1-.483.572.593.593,0,0,1-.522-.09.657.657,0,0,1-.264-.482l.061-.349-.242.254-.362.195.514-.73a4.166,4.166,0,0,1,2.87.286c-.363-.064-.665-.032-1-.064-.424.032-.635.032-.635.032m-.185.032-.393.032.272.195.151-.064-.03-.159m4.713-8.8a42.265,42.265,0,0,0-10.968.921l-.5-.994c-.725-.794-1.028.064-1.028.159.906.064,1.058.54,1.058.54a2.074,2.074,0,0,1-.876.921,2.925,2.925,0,0,1-1.542.572c-1.693.1-1.239-1.779-.211-2.509-.12.159-.725,1.113-.362,1.62.423.54,1.993.1,2.387-.381a1.323,1.323,0,0,0-1.148-.222,2.721,2.721,0,0,1,.967-1.779,2.468,2.468,0,0,1,1.42,1.27,44.5,44.5,0,0,1,7.222-.921c-.061-.445-.211-2.16-.211-2.255l.332-.508a1.227,1.227,0,0,0,.786.667l-.514.445c.031.348.061.985.061,1.207a10.055,10.055,0,0,1,1.662-.6l.756-.064.665.286.272.54a2.872,2.872,0,0,1-.214,1.081m-.573-1.113c-.362-.6-1.662-.064-2.478.318.483,0,.876-.032,1.389-.032.211,0,.755.032,1.117.032l-.03-.318m-11.7,3.179-.483-.159-.362.6.694.222.242-.445.483.159.393-.6-.725-.222-.242.446m20.726-2.191c.573-.064,1.056.1,1.3-.195-.332-.1-.694-.195-.817-.381l.453.128.211-.195a.657.657,0,0,0-.557-.155.683.683,0,0,0-.471.35l.3.195-.421.253m-.3,1.08c-.242.54-.423,1.113-.694,1.62l.514-.159a5.179,5.179,0,0,0,1.45-2.382l-.6.195c-.424.159-.483.286-.666.73m-5.227.285.483.508.665-.381L333.683,87l-.634.381m4.654-.6a2.337,2.337,0,0,1-.574.889,21.949,21.949,0,0,0-4.229-1.08,3.047,3.047,0,0,1-1.269.985,5.424,5.424,0,0,1-1.693-.508l.544.032a3.537,3.537,0,0,0,1.812-.572c-1.028-.159-1.239-.445-.756-1.143.211-.318.573-.857,1.118-.73.423.128.514.73.483,1.207a20.669,20.669,0,0,1,3.837.985c.093-.349-.121-.508-.272-.762l.634-.572a1.378,1.378,0,0,1,.364,1.272m-5.589-1.557-.3.349.544.254h.151l-.393-.6m-12.629,2.509.665.318.453-.572-.694-.318-.423.572m28.943,46.47a16.4,16.4,0,0,1-6.133,6.956c-3.837,2.574-7.855,1.937-9.154,1.143l.151.349.121.349c.514,1.46.185,2.954-1.722,3.212a4.319,4.319,0,0,0-1.722.414,4.941,4.941,0,0,0-1.51,1.175,6.943,6.943,0,0,0-.967,1.429,6.94,6.94,0,0,0-.967-1.429,4.553,4.553,0,0,0-1.542-1.175,4.8,4.8,0,0,0-1.692-.414c-1.873-.222-2.235-1.747-1.721-3.212l.12-.318.152-.349a8.643,8.643,0,0,1-6.074.254l-.272-.064a13.334,13.334,0,0,1-5.861-3.4,19.117,19.117,0,0,1-3.5-4.924c-3.655-7.973-3.142-19.788-3.172-21.059-.12-13.628,2.75-21.282,5.227-25-.756-1.016-1.208-1.655-1.239-1.683a2.441,2.441,0,0,0-1.542-.794,30.978,30.978,0,0,0-.876-3.906,18.745,18.745,0,0,0,3.293,2,2.332,2.332,0,0,0,.332,1.779c.031.032.394.54.967,1.363a13.813,13.813,0,0,1,4.079-3.59c.423-.254.906-.508,1.42-.762a2.613,2.613,0,0,1,.665-1.906,1.447,1.447,0,0,1,.756-1.113,1.649,1.649,0,0,1,1.359.413,2.845,2.845,0,0,1,1.814,1.048,32.523,32.523,0,0,1,5.166-.7,3.123,3.123,0,0,1,1.6-2.128,1.718,1.718,0,0,1,1.269-.921,1.753,1.753,0,0,1,1.269.921,3.079,3.079,0,0,1,1.631,2.128,36.229,36.229,0,0,1,5.166.7,2.986,2.986,0,0,1,1.842-1.048,1.642,1.642,0,0,1,1.359-.413,1.443,1.443,0,0,1,.756,1.113,2.661,2.661,0,0,1,.665,1.906,15.248,15.248,0,0,1,1.42.762,15.474,15.474,0,0,1,4.166,3.622c.666-.921,1.058-1.46,1.088-1.524a2.5,2.5,0,0,0,.3-1.779,21.147,21.147,0,0,0,3.3-2.007,31.035,31.035,0,0,0-.876,3.906,2.441,2.441,0,0,0-1.542.794c-.031.032-.574.762-1.389,1.906,2.446,3.716,5.288,11.307,5.166,24.871.03,1.079.482,13.117-3.148,21.09m-1.175-42.85a12.369,12.369,0,0,1-3.112.318,7.064,7.064,0,0,0-.694,3.239,2.64,2.64,0,0,1-1.3-.762c-.423.636-.694.953-1.148,1.589a36.281,36.281,0,0,1,4.139,16.708,40.2,40.2,0,0,0,5.589-4.034c-.361-7.083-1.418-12.452-3.473-17.058m-6.435,21.318a6.263,6.263,0,0,0,.093,2.255,5.851,5.851,0,0,0,.876-1.874,5.9,5.9,0,0,0,.332,1.81,14.481,14.481,0,0,0,.756-3.749l.272.159a12.77,12.77,0,0,0-.093-4.289,14.786,14.786,0,0,0-3.173-6.639c-1.087-1.335-1.994-.73-2.9.318-1.482,1.684-1.782,2.445-3.566,2.8-.185.032-.061.128.3.128,2.145-.032,2.81-1.524,3.445-2.255.423-.476.967-.953,1.42-.667.185.1.756.826.151,2.574a1.834,1.834,0,0,0-.211-.857,10.485,10.485,0,0,1-1.087,2.89l-.151-.636c-.211,1.429-1.42,2.891-1.6,4.923a1.387,1.387,0,0,1-.242-.889c-.906,1.779-1.843,4.955-1.269,6.543a10.9,10.9,0,0,1,1.41-4.709c-.634,2.065-1.359,4.672-.725,6.194a12.522,12.522,0,0,1,1.3-4.38c-.876,3.43-1.208,5.178-.272,6.48a10.761,10.761,0,0,1,1.028-4.828c-.453,2.668-1.087,5.019.093,6.162a12.453,12.453,0,0,1,.786-4.891c-.393,2.572-.725,5.05.061,6.32a13.764,13.764,0,0,1,.332-2.7c.211-1.113.514-2.191.514-2.191s-.242,1.779-.393,4c-.03.348-.03.73-.03,1.113a6.7,6.7,0,0,0,.12,1.335,4.02,4.02,0,0,0,.363,1.113,36.109,36.109,0,0,1,.906-6.575s-.332,2.731-.514,6.893l-.031.445c-.272,6,.514,7.909.756,8.481a6.155,6.155,0,0,1-.061-.889,6.869,6.869,0,0,1,.061-1.335,9.557,9.557,0,0,1-.423-2.8c.031-.889.093-1.779.185-2.636.061-.794.151-1.557.211-2.287.093-.667.151-1.3.242-2,.151-.953.3-1.906.483-2.89.12-.762.061-.1.061.1-.061.859-.211,2.731-.362,4.7-.093,1.429-.423,4.32-.332,5.718a8.212,8.212,0,0,0,.362,1.906,8.651,8.651,0,0,0,.544,4.16,18.908,18.908,0,0,0,.423-1.874l-.242.195a7.994,7.994,0,0,1-.242-3.43,6.5,6.5,0,0,1-.3-1.655,49.347,49.347,0,0,1,.453-5.145c.061-.572.151-1.113.211-1.655.061-.318.093-.667.151-.985.061-.54.185-1.08.272-1.621l.061-.254a8.652,8.652,0,0,1-.061.921c-.185,2.288-.665,8.2-.694,8.671a5.933,5.933,0,0,0,.272,1.715,13.126,13.126,0,0,0,.061,2.764,8.353,8.353,0,0,0,.152-.985s.3-2.382.694-5.78c.061-.54.121-1.048.152-1.557.061-.508.093-.985.151-1.524.061-.6.12-1.207.151-1.81l.061-.794c.151-1.588.3-3.4.423-4.987,0,0,.211-2.6.242-3.366l-.121-.1s-.3,3.212-1.087,4.32a4.812,4.812,0,0,1-.483-1.81,5.268,5.268,0,0,1-.937,1.493,4.766,4.766,0,0,1-.211-1.683,2.513,2.513,0,0,1-.815.889,4.038,4.038,0,0,1-.332-1.779,2.075,2.075,0,0,1-.694.635c-.093-.254-.634-1.143.332-4.478-.393,3.081-.152,3.462-.093,3.684l.453-.318a16.834,16.834,0,0,1,.3-2.223c-.151,2.477.031,3.212.211,3.716a4.85,4.85,0,0,0,1.054-1.752m-7.191,1.048a34.508,34.508,0,0,1,1.179-6.734c-1.6,1.811-1.389,6.067-1.179,6.734m.3-6.925c.514-1.588.093-2.414-.211-2.572,0,.73.185,1.08.211,2.572m1.3,1.335a12.742,12.742,0,0,0,.634-3.558,6.709,6.709,0,0,0-.634,3.558m1.389-3.176a4.985,4.985,0,0,0,.061-1.779,6.975,6.975,0,0,0-.423,2.8c.093-.286.272-.636.362-1.016m-3.686,12.006.031-.1h.061l.185.1.211.127a3.973,3.973,0,0,1-.185-1.175,6.071,6.071,0,0,0-.185-1.46l-.031-.064-.393.667a2.381,2.381,0,0,0-.544,1.113v.1l-.061-.064-.332-.413a11.559,11.559,0,0,1-1.574,2.509,5.518,5.518,0,0,0-.634,2.414,11.543,11.543,0,0,0,0,2.572l.393-.445s0,.445-.031.953a2.417,2.417,0,0,1-.152.7,1.54,1.54,0,0,0,1.42-.635l.093.318-.061.859c-.031.032-.423.381-.362.73l.211.349v.032l.242.349v-.318l.363-.286.185.032s.093.953.185,1.363c.061.349.151.826.211,1.3l.031.349.393.381h.362l-.211.195.031.635.031.032a.778.778,0,0,0,.332-.857v-.032l.031-.032c.272-.159.211-.762-.185-1.621-.185-.413-.272-1.113-.151-1.175h.031l.332.286.423.572.242.572-.061.159-.121.032-.242-.032.514.381c.242-.286.031.195.453.254a.478.478,0,0,0,.371-.15.531.531,0,0,0,.143-.39l-.031-.318a1.717,1.717,0,0,0-.423-.794l-.093-.127c-.725-.859-.665-1.048-.634-1.113l.332-.195.634.064.756.318-.061.1-.3.064.272.195.786-.032.061-.1.393-.222-.362-.508a8.791,8.791,0,0,0-1.087-.445l-.544-.128-.876-.254-.665-.254-.185-.1-.393-.349a5.628,5.628,0,0,1-.3-.953,1.871,1.871,0,0,0,.694.318l-.031-.826c.151-1.557.185-2.414.185-2.414l.3.318c.031-.254-.061-.889-.093-1.557-.093-.508-.185-1.239-.335-1.875m1.058,7.338.694.195.331.1a3.132,3.132,0,0,0,.152-1.048c-.031-.413.845.413,1.42,1.048l.151-.064a8.653,8.653,0,0,0-2.055-1.843c-.544-.349-.817-.254-.634.064a1.778,1.778,0,0,1-.061,1.557M335,130.255c.634.859,1.693,2.477,2.084,2.92.845.953,1.208,1.048,1.873,1.08a12.315,12.315,0,0,0-1.42-2.92,25.432,25.432,0,0,0-2.3-3.366l-.061.476-.061.128-.242.286-.514.128-.423-.222-.3-.064-.185.762-.332.889.061.064c.211.413.121.6.031.73l-1.359,1.557-.573-.032-.185-.159-.453.508.061.064a4.236,4.236,0,0,0,1.179.762c.362.159,1.481.6,2.205.921-.185-.572-.393-1.207-.573-1.874.185.254.725,1.27,1.179,2.128h.031a15.292,15.292,0,0,1,1.993,1.08l-.093-.349a10.912,10.912,0,0,1-2.387-4.257c.845,1.363,1.058,1.747,1.42,2.223,1.087,1.524,2.236,2.191,2.659,2.191-.151-.859-.423-1.048-.423-1.048a8.306,8.306,0,0,1-1.117-1.27c.152.195.272.381-.031-.032l-.031-.032a14.658,14.658,0,0,1-1.725-3.273m-2.931,7.463a15.991,15.991,0,0,0,5.71-.318,23.182,23.182,0,0,0-4.925-2.7,10.534,10.534,0,0,1-1.782-.889l-.817-.7c-.876-.857-3.263-3.43-3.686-3.938l-1.574,1.524a58.815,58.815,0,0,0,5.2,4.859,30.186,30.186,0,0,0,5.166,1.683,19.24,19.24,0,0,1-5.166-1.175c-1.329-.572-5.589-4.955-5.589-4.955l-1.028.985a31.152,31.152,0,0,0,3.5,3.526,9.438,9.438,0,0,0,4.984,2.1m-4.5-.985a2.869,2.869,0,0,0,.817,1.811,2.68,2.68,0,0,0,.363-1.143,4.89,4.89,0,0,1-1.18-.668m-7.1-5.367a12.487,12.487,0,0,1-1.481,3.115,10.993,10.993,0,0,1-.937,1.143l-.061.254-.121.064.6-.349.3-.159c.423-.222.876-.445,1.3-.667.453-.859.967-1.843,1.148-2.1a9.764,9.764,0,0,1-.634,1.874l.332-.159c.694-.286,1.3-.54,1.6-.667a9.586,9.586,0,0,0,.906-.572l.185-.159-.514-.54-.151.159-.575.032L321,131.08c-.093-.127-.211-.318.03-.73v-.032a1.25,1.25,0,0,1-.362-.921l-.151-.762-.3.064-.423.222h-.036l-.453-.127-.242-.349-.031-.032a19.028,19.028,0,0,0-1.934,2.823,12.345,12.345,0,0,0-1.45,2.92c.665-.032,1.028-.159,1.873-1.08.393-.445,1.42-2.065,2.084-2.891a15.351,15.351,0,0,1-1.662,3.212,7.524,7.524,0,0,1-1.179,1.335s-.242.159-.393,1.016c.453,0,1.6-.667,2.658-2.191a21.986,21.986,0,0,0,1.452-2.19m-.574-4.541a2.032,2.032,0,0,0-.573,1.239.5.5,0,0,0,.132.4.45.45,0,0,0,.381.139c.423-.064.211-.54.453-.254l.514-.381-.423-.222.3-.572.725-.762c.121.1.031.762-.151,1.175-.393.889-.453,1.46-.185,1.62l.031.032v.032c-.031.318-.031.667.332.857l.03-.032.031-.635-.211-.195h.362l.394-.382.031-.348c.061-.508.151-.953.211-1.3.093-.413.185-1.363.185-1.363l.185-.032.332.286v.318l.242-.348v-.032h.03l.211-.349c.061-.349-.332-.7-.362-.73l-.061-.859.151-.349.453.413a1.516,1.516,0,0,0,1.058.286,2.437,2.437,0,0,1-.151-.7,5.726,5.726,0,0,1-.031-.953l.393.445a7.351,7.351,0,0,0,.093-2.445,9.135,9.135,0,0,0-.634-2.823,5.483,5.483,0,0,0-.331-.826l-.332.476a7.337,7.337,0,0,1-1.087-1.906l-.332.413-.061.064v-.1a2.541,2.541,0,0,0-.544-1.113l-.393-.667a5.067,5.067,0,0,0-.185,1.493,3.973,3.973,0,0,1-.185,1.175l.211-.128.185-.1h.031l.031.1c-.151.635-.242,1.363-.3,1.779a5.036,5.036,0,0,0,.061,1.46l.453-.286a8.217,8.217,0,0,0-.121,2.477l-.031.826.665-.254a5.945,5.945,0,0,1-.3.921,2.759,2.759,0,0,1-1.693.794,9.852,9.852,0,0,0-2.055.7l-.362.508.393.222.061.1.786.032.272-.195-.3-.064-.093-.032,1.389-.348.332.195c.026.066.087.256-.638,1.115m.363-4.162c.185-.318-.093-.413-.634-.064a8.632,8.632,0,0,0-2.055,1.843l.151.064c.573-.6,1.45-1.46,1.45-1.048a3.349,3.349,0,0,0,.151,1.08l.272-.064.756-.195a1.823,1.823,0,0,1-.093-1.621M319,110.625a10.757,10.757,0,0,1,1.42,4.7c.6-1.589-.362-4.8-1.269-6.543a1.455,1.455,0,0,1-.242.889c-.185-2.033-1.389-3.495-1.6-4.924l-.121.6a10.889,10.889,0,0,1-1.087-2.89,1.756,1.756,0,0,0-.242.859c-.6-1.747-.031-2.477.151-2.574.453-.254,1,.159,1.42.667.634.762,1.3,2.223,3.443,2.255.332,0,.483-.064.3-.1-1.782-.349-2.084-1.08-3.566-2.8-.937-1.048-1.843-1.655-2.93-.318a14.473,14.473,0,0,0-3.173,6.639,12.948,12.948,0,0,0-.093,4.32l.272-.159a14.306,14.306,0,0,0,.756,3.716,5.124,5.124,0,0,0,.332-1.811,5.262,5.262,0,0,0,.906,1.874,6.18,6.18,0,0,0,.093-2.255,3.682,3.682,0,0,0,1,1.683c.185-.476.363-1.239.211-3.684.185.922.242,1.655.3,2.191l.453.318c.093-.254.332-.6-.061-3.684,1,3.336.423,4.257.331,4.478a2.972,2.972,0,0,1-.694-.6,3.717,3.717,0,0,1-.3,1.779,2.289,2.289,0,0,1-.817-.889,4.323,4.323,0,0,1-.242,1.683,4.762,4.762,0,0,1-.906-1.493,4.192,4.192,0,0,1-.483,1.811c-.817-1.113-1.087-4.32-1.087-4.32l-.121.1c.031.794.121,2,.242,3.366.12,1.589.272,3.4.423,5.019.332,3.844.725,7.655,1.208,11.5a7.384,7.384,0,0,0,.151.953,12.89,12.89,0,0,0,.093-2.764,6.6,6.6,0,0,0,.242-1.715c0-.476-.514-6.353-.694-8.671l-.061-.921.061.222c.151.859.3,1.779.423,2.636.061.54.151,1.08.211,1.655a42.292,42.292,0,0,1,.453,5.145,4.432,4.432,0,0,1-.3,1.655,7.647,7.647,0,0,1-.242,3.462l-.211-.222c.185,1.048.393,1.874.393,1.874a8.832,8.832,0,0,0,.544-4.16,7.353,7.353,0,0,0,.393-1.906c.031-.349-.061-1.493-.151-2.891-.185-2.509-.362-5.019-.573-7.5l-.031-.445.093.349a63.294,63.294,0,0,1,1.09,9.805,9.556,9.556,0,0,1-.423,2.8,7.052,7.052,0,0,1,.061,1.335,3.4,3.4,0,0,1-.093.889c.242-.572,1-2.509.756-8.481v-.445c-.211-4.16-.514-6.893-.514-6.893a37,37,0,0,1,.906,6.607l.093-.16a8.089,8.089,0,0,0,.393-3.4c-.151-2.191-.393-4-.393-4l.061.195c.061.254.242.889.453,2.033a20.1,20.1,0,0,1,.3,2.351v.318c.786-1.239.453-3.749.061-6.321a12.4,12.4,0,0,1,.815,4.892c1.179-1.175.544-3.495.093-6.162a10.559,10.559,0,0,1,1,4.8c.967-1.335.6-3.05-.272-6.48a12.678,12.678,0,0,1,1.3,4.38c.666-1.557-.059-4.126-.694-6.222m10.7,7.559a3.839,3.839,0,0,0,.694-2.191l.332.476a11.875,11.875,0,0,0,1.028-3.43l.272.195a11.632,11.632,0,0,0,.694-3.4l.272.1a24.289,24.289,0,0,0,.242-3.05,11.736,11.736,0,0,0-.3-3.336,12.623,12.623,0,0,0-.967-2.287l-.272.222c-.151-.445-.544-1.524-.725-1.937a5.27,5.27,0,0,0-1.208-1.969l.6.064c-.331-.318-.453-.54-.815-.859.12-.1.331-.1.694-.032-.514-.476-.665-1.207-1.964-1.715l.725.032a2.1,2.1,0,0,0-1.208-.889c-1.3-.286-3.143-.318-3.988.73l-.483.195-.242.128c-.151.1-.151.254.093.667-.362-.064-.453-.413-.514-.381l-.393.413-.185.794c.061.032.362.195.423-.195l.786-.195c.3,0,.574.064.906.064l-.694.222-.031.254.393-.1.061.349c1.058-.254,1.148.953,2.266.73-.544-.445-1-1.175-1.42-1.4,1.118.195,1.722,1.239,2.93,1.3l-.151-.349c.423,0,.694.318.817.318a1.488,1.488,0,0,1-.967.381l.694.222a1.07,1.07,0,0,1-1.087.222,4.826,4.826,0,0,1-1.208,1.08l.031-.381c-.514.318-.876.889-1.239,1.016l.3-.73a17.381,17.381,0,0,0-3.142,3.495,7.35,7.35,0,0,0-.634,3.906c.061.953.423,3.652.514,4.192l.272-.127a23.1,23.1,0,0,0,1.813,5.654l.3-.413a2.7,2.7,0,0,0,.755,1.524,1.566,1.566,0,0,1,.185-.667c.093.381.031,1.557.694,2.223a3.685,3.685,0,0,1,.151-1.048,9.584,9.584,0,0,0,.332,1.239c.211.445.453.921.694,1.016a3.27,3.27,0,0,1,.151-1.27,4.489,4.489,0,0,1,.514,1.589c.665-.54.906-2.288.906-2.288a1.505,1.505,0,0,1,.332.667,4.96,4.96,0,0,0,.937-2.1,3.159,3.159,0,0,1,.029,1.046m.665,9.276a5.979,5.979,0,0,0,1.3-.064l-.061-.254-.031-.195a3.42,3.42,0,0,1-1.51.1,5.865,5.865,0,0,1-.6-.159c-.242-.064-.634.349-.937.667l-.725.859v.1l3.746,3.62.151-.032.573-.6-3.293-3.272-.031-.159.185-.222.151.032,1.058,1.048,1.389,1.3.876.826.151-.159c.151-.16.093-.254-.332-.7l-2.266-2.382.214-.349m-5.046.73-3.293,3.272.574.6h.151l3.746-3.621v-.064l-.755-.859-.906-.667a2.74,2.74,0,0,1-.634.159,3.429,3.429,0,0,1-1.511-.1l-.061-.032-.031.254-.061.222a6.667,6.667,0,0,0,1.359.064l.185.348-2.266,2.382c-.453.445-.483.54-.332.7l.151.159.876-.826,1.389-1.3,1.058-1.048.151-.032.185.222.032.162m.3-8.068-.121-.476-.393-.445-.093-.159.061.572.272.381.272.127m-.031,6.574.272.286a8.943,8.943,0,0,0,.151-1.621,4.528,4.528,0,0,0-.423,1.335m-1.3-.1.6-.254.12-.032a8.433,8.433,0,0,1,.362-1.143l-1.1,1.434m2.417,1.239a10.346,10.346,0,0,0-.061-1.175l-.3.794.363.381m.211-3.081a1.123,1.123,0,0,0-.514-.794,1.3,1.3,0,0,0,.514.794m.331-.953h0l.3-.349,1.239-.953.242-.6a1.765,1.765,0,0,1-.544.508l-1.148.889-.093.286-.061-.222c-.211-.476-.877-.7-1.269-1.175l-.272-.445.185.73a5.541,5.541,0,0,0,.876.762,1.7,1.7,0,0,1,.544.572m-.423-1.747c0-.762-.786-.857-.967-1.589-.121,1.048.6,1.048.967,1.589m.363,3.049.331-.195.483-.445.093-.54-.3.445-.362.381-.241.349m.693.446c.061.445.121,1.524.151,1.874l.362-.381a3.8,3.8,0,0,0-.513-1.493m-.634,2.795.393-.476.031-.032a4.573,4.573,0,0,0-.393-1.588,14.286,14.286,0,0,0-.031,2.1m0,.286v.572l.272-.286-.272-.286m.152.921c.453.508,1.058,1.175,1.481,1.589l.423-.445-1.574-1.524-.332.381m1.873,2c.332.349.725.73,1.028,1.079l.453-.508-1.028-.985-.453.414m.3-5.113a9.118,9.118,0,0,0-.967-1.175,11.665,11.665,0,0,1,.393,1.175l.061-.032.211-.064.211.064.093.032m-.393-6.23a2.575,2.575,0,0,1-.634.762l.093-.54-.6.826a2.116,2.116,0,0,0-.544.985,2.063,2.063,0,0,1,.694-.508,2.333,2.333,0,0,0,1-1.524m-7.315-6.67a2.358,2.358,0,0,0,.937,1.779,6.237,6.237,0,0,0-.937-1.779m11.783-10.959.634-.159.272-.254c1.359-2.064,3.867-5.367,5.741-8A14.814,14.814,0,0,0,329.519,90c-.332.032-.725.318-.3.921a4.739,4.739,0,0,0-3.867,0c.423-.6.061-.857-.3-.921-1.45-.1-7.222.476-10.725,4.066,1.934,2.7,5.953,8.29,6.042,8.385l.514.254h.093l.634-.413c.423-.476.634-.762,1.028-1.175.786-.859,1.541-1.493,1.662-1.621a1.152,1.152,0,0,0,.453-.859l-.393-.6-.093.1-.272-.572-.061.222s-.3-.73-.786-.667a1.662,1.662,0,0,1-1.118-.222l-.061.476h-.03a1.372,1.372,0,0,1-.339-1.1,1.333,1.333,0,0,1,.611-.963,7.712,7.712,0,0,1,1.028-.6l.332-.286a2.329,2.329,0,0,1,1.148-.636,7.157,7.157,0,0,1,2.266-.195,3.924,3.924,0,0,1,1.359.318,4.543,4.543,0,0,1,1.51,1.363,11.69,11.69,0,0,1,1.058,2.255c.6,1.493.514,1.363.906,2.351a10.656,10.656,0,0,0,1.179,2.414l.666.282m6.944-8.83L341,93.2a16.776,16.776,0,0,0-7.251-3.938,17.152,17.152,0,0,0-4.444-.445c-.786,0-1.3.318-1.3.859-.514-.1-.634-.762-.694-.889-.061.286-.3.826-.694.889,0-.508-.514-.859-1.3-.859a18.942,18.942,0,0,0-4.471.445,15.929,15.929,0,0,0-7.191,3.844l.393.54a14.406,14.406,0,0,1,5.926-3.462,18.774,18.774,0,0,1,5.2-.73c.937.032,1.058.6.967.922a1.419,1.419,0,0,0,1.179-.6,1.532,1.532,0,0,0,1.179.6c-.093-.318.031-.859.967-.922a18.633,18.633,0,0,1,5.2.73,15.342,15.342,0,0,1,5.95,3.557m1.028-1.969a3.673,3.673,0,0,0,1,2l.242.195a6.13,6.13,0,0,1,.786-2.92,6.209,6.209,0,0,0,2.417.032c-1.239-.857-.967-1.874-1.9-2.954l-.272-.381a1.634,1.634,0,0,0-.756-.349l-.423.195c-.121.128-1.42,1.589-2.236,2.6.725,0,.937.728,1.148,1.587m.877-4.828a13.532,13.532,0,0,0-3.9-2.636c-4.291-1.969-9.759-2-11.3-2-1.574,0-7.009,0-11.33,2a13.321,13.321,0,0,0-3.867,2.636s1.934,2.287,2.446,2.92a.987.987,0,0,1,.211,1.08c2.991-2.1,6.375-3.144,12.449-3.212h.272c5.953.064,9.426,1.113,12.387,3.212a1.029,1.029,0,0,1,.185-1.08c.482-.635,2.446-2.92,2.446-2.92m-30.637.667h0c-.121-.159-.423-.413-1.179.128-1.329,1.207-.906,2.319-2.266,3.3a6.246,6.246,0,0,0,1.208.128l.574-.032.634-.1a6.267,6.267,0,0,1,.756,2.92c1.6-.889.937-3.78,2.446-3.749-.815-.986-2.055-2.447-2.176-2.606m1.028,5.813c1.179,1.655,2.084,2.89,2.236,3.144.423.572,1.813,2.35,1.813,2.128a19.707,19.707,0,0,0-1.42-2.16c-.786-1.113-1.631-2.288-2.417-3.43l-.211.318m5.833,11.181a11.729,11.729,0,0,0,.634,3.558,7.176,7.176,0,0,0-.634-3.558m-.815-1.363a4.4,4.4,0,0,0,.061,1.779,7.793,7.793,0,0,0,.393,1.016,8.153,8.153,0,0,0-.453-2.8m3.021,10.513c.185-.667.423-4.891-1.179-6.734a34.969,34.969,0,0,1,1.179,6.734m-4.381,23.664a16.763,16.763,0,0,0,5.711.318,9.44,9.44,0,0,0,4.5-1.715,10.429,10.429,0,0,1-1.087-1.048,7.818,7.818,0,0,1-1.542,1.113,19.241,19.241,0,0,1-5.167,1.175,30.154,30.154,0,0,0,5.166-1.683,7.766,7.766,0,0,0,1.179-.953c-.483-.508-.967-.985-1.33-1.363l-.725.572a7.3,7.3,0,0,1-1.782.889,21.731,21.731,0,0,0-4.925,2.7m9.095,0a6.727,6.727,0,0,0,.453,1.143,3.505,3.505,0,0,0,.937-2.033l-.544.445a7.064,7.064,0,0,1-.845.446m13.959-40.943c.185-.254,1-1.363,2.084-2.92l-.211-.286c-.756,1.048-1.511,2.128-2.266,3.176a19.93,19.93,0,0,0-1.42,2.16c0,.254,1.419-1.524,1.813-2.128m6.344-7.624-.393.572a3.753,3.753,0,0,0,1.662,1.843c-.394-.826-.817-1.655-1.269-2.415m-.906-.571.185.318c2.236-3.115,4.259-5.938,4.259-5.938a15.7,15.7,0,0,1-2.115,1.239,3.065,3.065,0,0,1-.453,1.81c-.061.1-.786,1.113-1.873,2.574m-35.531-.89.332.476a14.776,14.776,0,0,1,6.556-4.891,1.41,1.41,0,0,1,.272-1.875,1.566,1.566,0,0,1,1.511,1.27,30.434,30.434,0,0,1,7.315-1.048,2.6,2.6,0,0,1,1.429-2.48l.332-.508.3.508a2.6,2.6,0,0,1,1.45,2.477,31.813,31.813,0,0,1,7.315,1.048,1.564,1.564,0,0,1,1.51-1.27,1.415,1.415,0,0,1,.272,1.875,14.855,14.855,0,0,1,6.616,4.955l.331-.476a15.367,15.367,0,0,0-6.042-4.672,1.9,1.9,0,0,0-.453-1.937l-.362-.7-.786.318a2.207,2.207,0,0,0-1.692,1.207,30.424,30.424,0,0,0-6.164-.859,2.75,2.75,0,0,0-1.542-2.382,1.23,1.23,0,0,0-.815-.73,1.316,1.316,0,0,0-.817.73,2.712,2.712,0,0,0-1.542,2.382,30.746,30.746,0,0,0-6.164.859,2.159,2.159,0,0,0-1.693-1.207l-.786-.318-.361.729a1.9,1.9,0,0,0-.453,1.937,15.253,15.253,0,0,0-5.892,4.575m-.12,1.113.185-.318c-1.028-1.4-1.693-2.319-1.753-2.414a3.061,3.061,0,0,1-.453-1.811,15.562,15.562,0,0,1-2.115-1.239s1.964,2.763,4.14,5.781M307.315,91.3a4.687,4.687,0,0,0,1.208-1.113l.483-.857-.423-.572c-.453.826-.876,1.684-1.269,2.542m-3.474,17.058A34.852,34.852,0,0,0,309.4,112.4a37.408,37.408,0,0,1,4.2-16.8c-.453-.667-.665-.953-1.118-1.557a3.028,3.028,0,0,1-1.389.826,6.71,6.71,0,0,0-.694-3.24,12.37,12.37,0,0,1-3.112-.318c-2.024,4.637-3.08,10-3.443,17.057m18.549,32.5.031-.064c.093-.348.634-1.655.906-2.319l-.093-.349c-.362.064-.725.127-1.117.159-.242.032-3.867.635-6.5-.667a18.23,18.23,0,0,1,1.722-1.3l.031-.16a2.858,2.858,0,0,1-1.693.414,4.587,4.587,0,0,1,.272-1.655,1.965,1.965,0,0,1-1.058,0,16.951,16.951,0,0,1,1.269-2.954,32.447,32.447,0,0,1,2.87-4.289,1.989,1.989,0,0,1,.514-.953l.151-.159-.3-.286-.242.195-.634.222a.612.612,0,0,1-.634-.222l-.031-.064L317.37,126l-.031-.128-.483-.064c-.242-.222.093-1.27,1.208-2.382a7.96,7.96,0,0,1,2.176-1.524c.544-.254.817.222.574.572a1.7,1.7,0,0,0-.211,1.779,1.423,1.423,0,0,0,.483-.195l.423-.318.061-.127-.483.064c.242-.636-.121-2.1.121-3.082l-.332.195a14.219,14.219,0,0,1-.093-2.954c0-.195-.242-.476-.574-.826a11.035,11.035,0,0,1-1.481,2.542,7.412,7.412,0,0,0-2.176,3.875v.032a5.413,5.413,0,0,1-.393,1.113,2.8,2.8,0,0,0-.332,1.239,37.171,37.171,0,0,1-.393,6.48,7.182,7.182,0,0,1-.845,2.35l-.093-.064a5.53,5.53,0,0,1-.937,2.191s-.483-1.048-1.389-8.989c-1-8.735-1.511-17.851-1.511-17.851a14.4,14.4,0,0,1,.694-4.891,17.583,17.583,0,0,1,3.055-5.21,1.848,1.848,0,0,1,1.692-.572l-.332-.476c-.574-.794-1.208-1.684-1.782-2.445-4.049,7.5-3.957,16.486-3.957,16.548v.953l-.725-.413a36.83,36.83,0,0,1-5.619-3.938c-.061.921-.151,4-.151,4v1.874c0,3.589.6,12.388,3.384,18.423a18.175,18.175,0,0,0,3.293,4.637,12.559,12.559,0,0,0,4.925,3.018l.423.159a9.052,9.052,0,0,0,6.827-.728m-.152,2.509a1.659,1.659,0,0,1,1.9-.286c.061-1.048.211-2.636.423-4.034a3.185,3.185,0,0,1-.634.508l-.185-.159c-.6,1.655-1.511,3.938-1.511,3.966m8.1.762a47.06,47.06,0,0,0-.634-5.781l-.093-.127-.151-.254a7.207,7.207,0,0,1-.362,1.048,3.625,3.625,0,0,1-.514.857,4.3,4.3,0,0,1-1.3-1.683,3.863,3.863,0,0,1-1.269,1.655,2.789,2.789,0,0,1-.544-.859l-.211-.571a47.209,47.209,0,0,0-.573,5.718c-1.574-1.08-2.538,0-2.206.762l.093.195a1.01,1.01,0,0,0,.786.445,4.788,4.788,0,0,1,1.934.476,6.431,6.431,0,0,1,2.206,1.906,6.43,6.43,0,0,1,2.205-1.906,5.226,5.226,0,0,1,1.934-.476,1.067,1.067,0,0,0,.786-.445l.093-.195c.329-.763-.608-1.844-2.179-.763m2.418-.762c0-.032-.967-2.6-1.542-4.16l-.3.349-.514-.381a30.563,30.563,0,0,1,.453,3.906,1.667,1.667,0,0,1,1.9.285m18.158-29.922c-.031-1.207-.093-3.176-.121-4.066a33.439,33.439,0,0,1-5.439,3.875l-.876.508V113.1c0-.064.242-9.022-3.9-16.743-.272.381-1.118,1.524-2.025,2.731a1.77,1.77,0,0,1,1.541.6,16.893,16.893,0,0,1,3.081,5.21,15.035,15.035,0,0,1,.694,4.891s-.514,9.116-1.51,17.851c-.906,7.941-1.389,8.989-1.389,8.989a5.532,5.532,0,0,1-.935-2.192l-.093.064a6.753,6.753,0,0,1-.845-2.351,37.719,37.719,0,0,1-.393-6.512,2.869,2.869,0,0,0-.332-1.239,4.821,4.821,0,0,1-.393-1.113v-.032a7.475,7.475,0,0,0-2.176-3.875,13.29,13.29,0,0,1-1.542-2.637l-.061.064a2.182,2.182,0,0,0-.694,1.016,10.3,10.3,0,0,1,.061,3.176l-.3-.254c.093.953-.331,2.033-.061,2.92l-.544-.064.061.127.272.254.185.1a4.646,4.646,0,0,1,.544.195,1.781,1.781,0,0,0-.242-1.779c-.242-.318.061-.794.573-.54a7.161,7.161,0,0,1,2.176,1.524c1.118,1.113,1.42,2.16,1.208,2.382l-.544.064-.031.128-.483.413-.031.064a.709.709,0,0,1-.634.222l-.634-.222-.211-.159-.211.159a48.669,48.669,0,0,1,3.746,5.527,17.049,17.049,0,0,1,1.269,2.954,1.964,1.964,0,0,1-1.058,0,3.934,3.934,0,0,1,.272,1.655,2.81,2.81,0,0,1-1.692-.413l.061.318c.544.413,1.148.889,1.42,1.08-2.629,1.3-6.436.7-6.526.7l-.483-.064-.093.254c.272.636.845,2.128,1,2.414a8.461,8.461,0,0,0,5.619.921,10.576,10.576,0,0,0,1.42-.413,14.875,14.875,0,0,0,4.5-3.05,18.511,18.511,0,0,0,3.384-4.575c2.931-5.972,3.414-14.834,3.414-18.423v-1.965Z" transform="translate(-302.948 -77.238)" fill="#a18f60"/></g><g transform="translate(60.491 15.142)"><path d="M797.58,808.055c-.027.106-.051.214-.081.321a1.668,1.668,0,0,1-1.906,1.3,4.54,4.54,0,0,1-2.142-.973l-.174-.132c-.066.115-.128.225-.193.334a1.46,1.46,0,0,1-1.269.779,5.277,5.277,0,0,1-.99-.069,1.659,1.659,0,0,1-.981-.553c-.294-.331-.555-.7-.833-1.046-.046-.059-.083-.126-.138-.211-.024.083-.043.143-.057.2a1.945,1.945,0,0,1-1.143,1.334,4.426,4.426,0,0,1-1.746.345c-.68.014-1.363.019-2.037-.026a1.844,1.844,0,0,1-1.74-1.38.45.45,0,0,0-.035-.06.36.36,0,0,0-.033.057,2.08,2.08,0,0,1-1.678,1.363,3.28,3.28,0,0,1-1.889-.189,2.111,2.111,0,0,1-.978-.876c-.028.015-.054.022-.076.037a8.511,8.511,0,0,1-3.5,1.286,10.9,10.9,0,0,1-2.926.076,5.576,5.576,0,0,1-1.912-.535,3.463,3.463,0,0,1-1.918-2.9,5.73,5.73,0,0,1,.232-2.36c.01-.034.024-.065.043-.117l.779.146c-.043.3-.093.6-.124.9a3.663,3.663,0,0,0,.1,1.371,2.616,2.616,0,0,0,1.8,1.832,7.278,7.278,0,0,0,2.835.31,10.227,10.227,0,0,0,3.3-.662c.3-.118.581-.279.873-.416a.2.2,0,0,0,.116-.239,3.633,3.633,0,0,1,.093-1.371.177.177,0,0,1,.179-.167c.229-.017.463-.045.71-.069a4.007,4.007,0,0,0-.039.4,6.21,6.21,0,0,0,.021.9,1.355,1.355,0,0,0,.979,1.186,2.436,2.436,0,0,0,1.3.075,1.534,1.534,0,0,0,1.182-1.091c.119-.379.185-.779.278-1.183l.821-.074v.162a7.4,7.4,0,0,0,.045.973,1.4,1.4,0,0,0,1.454,1.271q1.071,0,2.142-.037a2.973,2.973,0,0,0,1.322-.313.928.928,0,0,0,.515-1.018,1.805,1.805,0,0,0-.211-.572,10.888,10.888,0,0,0-1.389-1.958c-.418-.479-.855-.938-1.29-1.4a.3.3,0,0,1-.093-.278q.069-.446.108-.9a.438.438,0,0,1,.211-.361c.333-.207.659-.43,1.006-.607a37.92,37.92,0,0,1,5.072-2.152c.046-.017.093-.026.162-.046-.079.435-.15.85-.238,1.265-.011.052-.093.1-.157.123-1.481.532-2.943,1.126-4.373,1.8-.278.133-.556.282-.889.454.233.229.447.421.648.631a28.036,28.036,0,0,1,2.694,3.565c.242.362.488.723.748,1.071a1.71,1.71,0,0,0,1.4.729,1,1,0,0,0,.962-.5,6.83,6.83,0,0,0,.36-.8c.155-.38.287-.769.445-1.147a4.5,4.5,0,0,1,.306-.571,1.824,1.824,0,0,1,1.4-.914,1.788,1.788,0,0,1,1.534.646,4.116,4.116,0,0,1,.969,2.219c.007.052.022.1.033.151C797.58,807.606,797.58,807.831,797.58,808.055Zm-1.737.284c.61.006.849-.223.816-.708a2.6,2.6,0,0,0-.792-1.746.967.967,0,0,0-.867-.329,1,1,0,0,0-.752.56,5.358,5.358,0,0,0-.407.929c-.112.318-.149.237.125.457a3.465,3.465,0,0,0,1.876.834Z" transform="translate(-671.587 -794.429)"/><path d="M781.709,931.351c-.136-.029-.278-.052-.409-.089a1.865,1.865,0,0,1-1.344-1.736q-.032-.326-.032-.655c0-1.041-.006-2.081,0-3.123a3.691,3.691,0,0,1,.077-.738,1.782,1.782,0,0,1,1.8-1.525,2.505,2.505,0,0,1,.833.115,1.781,1.781,0,0,1,1.2,1.557,3.611,3.611,0,0,1,.045.565c0,1.123.013,2.247,0,3.371a3.436,3.436,0,0,1-.149.973,1.728,1.728,0,0,1-1.482,1.246c-.055.009-.108.023-.163.034C781.956,931.351,781.833,931.351,781.709,931.351Zm1.389-3.9h0v-.887c-.008-.407,0-.818-.043-1.221a1.173,1.173,0,0,0-.624-1.008,1.1,1.1,0,0,0-1.035-.009,1.2,1.2,0,0,0-.622.869,1.863,1.863,0,0,0-.046.35c-.008,1.218-.019,2.433-.011,3.653a2.229,2.229,0,0,0,.128.69,1.146,1.146,0,0,0,2.084.069,2.392,2.392,0,0,0,.162-.77c.019-.579,0-1.158,0-1.737Z" transform="translate(-682.546 -900.801)"/><path d="M174.361,931.951c-.131-.029-.263-.052-.393-.089a1.871,1.871,0,0,1-1.329-1.709c-.01-.142-.013-.284-.013-.425V924.19h.783v5.524a3.274,3.274,0,0,0,.041.564,1.092,1.092,0,0,0,2.153.022,3.152,3.152,0,0,0,.046-.6v-5.509h.787v5.581a2.2,2.2,0,0,1-.526,1.6,1.742,1.742,0,0,1-1.07.548c-.049.008-.1.022-.146.032C174.585,931.951,174.472,931.951,174.361,931.951Z" transform="translate(-160.647 -901.401)"/><path d="M593.64,931.951c-.13-.029-.263-.052-.393-.089a1.871,1.871,0,0,1-1.329-1.709c-.01-.142-.013-.284-.013-.425V924.19h.783v5.524a3.149,3.149,0,0,0,.041.565,1.092,1.092,0,0,0,2.153.022,3.162,3.162,0,0,0,.046-.6q0-2.643,0-5.287v-.222h.788v5.58a2.2,2.2,0,0,1-.526,1.6,1.743,1.743,0,0,1-1.07.548c-.049.008-.1.022-.146.032Z" transform="translate(-520.969 -901.401)"/><path d="M551.337,931.3c-.138-.028-.278-.049-.41-.085a1.882,1.882,0,0,1-1.375-1.731c-.021-.211-.032-.424-.033-.638,0-1.052-.008-2.105,0-3.158a3.662,3.662,0,0,1,.111-.858,1.99,1.99,0,0,1,3.424-.7,2.04,2.04,0,0,1,.4,1.622H552.7c-.019-.195-.028-.385-.057-.569a1.1,1.1,0,0,0-1.079-1.015,1.059,1.059,0,0,0-1.181.9,4.181,4.181,0,0,0-.093.86q-.017,1.482,0,2.963a3.515,3.515,0,0,0,.093.788,1.058,1.058,0,0,0,1.174.861,1.083,1.083,0,0,0,1.085-.984c.031-.195.038-.389.059-.6h.729a2.018,2.018,0,0,1-.312,1.518,1.83,1.83,0,0,1-1.272.791c-.049.008-.092.022-.144.034Z" transform="translate(-484.539 -900.752)"/><path d="M917.1,931.3c-.138-.028-.278-.049-.41-.085a1.881,1.881,0,0,1-1.375-1.731c-.021-.211-.032-.424-.033-.638,0-1.052-.008-2.105,0-3.158a3.672,3.672,0,0,1,.111-.858,1.99,1.99,0,0,1,3.424-.7,2.039,2.039,0,0,1,.4,1.622h-.751c-.019-.195-.028-.385-.057-.569a1.1,1.1,0,0,0-1.072-1.012,1.063,1.063,0,0,0-1.182.9,4.022,4.022,0,0,0-.093.843q-.015,1.5,0,3a3.452,3.452,0,0,0,.092.77,1.058,1.058,0,0,0,1.174.861,1.084,1.084,0,0,0,1.085-.984c.031-.195.038-.389.057-.59h.73a2.012,2.012,0,0,1-.315,1.513,1.825,1.825,0,0,1-1.27.785c-.049.008-.093.022-.144.034Z" transform="translate(-798.867 -900.752)"/><path d="M697.928,770.05c.239.08.485.14.716.242s.233.126.146.385c-.046.139-.093.278-.142.416a.23.23,0,0,1-.027.038,1.731,1.731,0,0,0-.979-.308,1.184,1.184,0,0,0-.443.077.5.5,0,0,0-.35.411.522.522,0,0,0,.209.506,1.421,1.421,0,0,0,.959.324c.347.012.694,0,1.065,0l-.288.779a9.256,9.256,0,0,0-2.894.257c.027-.229.046-.447.081-.659.005-.038.062-.083.1-.1.17-.059.343-.106.548-.17a1.051,1.051,0,0,1-.5-1.042,1.134,1.134,0,0,1,.535-.884,4.37,4.37,0,0,1,.685-.276Z" transform="translate(-610.341 -770.048)"/><path d="M167.893,801.915l1.059-.38c.135.559.263,1.1.4,1.63.268,1.085.536,2.172.811,3.254a3.694,3.694,0,0,0,.223.609,1.294,1.294,0,0,0,1.12.813,2.83,2.83,0,0,0,1.018-.051,1.519,1.519,0,0,0,1.1-1.071c.118-.379.185-.779.282-1.188l.833-.077a1.633,1.633,0,0,0-.013.229,7.071,7.071,0,0,0,.1,1.138,1.339,1.339,0,0,0,1.375,1.034c.656,0,1.315-.043,1.966-.068a1.117,1.117,0,0,0,.163-.032c-.046-.054-.081-.092-.114-.129a2.909,2.909,0,0,1-.068-3.976,2.79,2.79,0,0,1,1.2-.853,1.608,1.608,0,0,1,1.679.389,3.178,3.178,0,0,1,.242,4.317l-.2.235c.238.028.442.066.648.072.594.015,1.193.057,1.784.014a1.484,1.484,0,0,0,1.345-1.14,7.628,7.628,0,0,0,.209-1c.019-.116.054-.159.168-.163.23-.011.463-.038.708-.06,0,.071-.01.133-.01.195a7.091,7.091,0,0,0,.028.866,1.405,1.405,0,0,0,1.4,1.335,3.508,3.508,0,0,0,.9-.063,1.432,1.432,0,0,0,1.111-.978,8.987,8.987,0,0,0,.246-.991c.021-.091.028-.185.043-.287l.852-.075v.163a8.544,8.544,0,0,0,.044.973,1.4,1.4,0,0,0,1.456,1.266,2.658,2.658,0,0,0,.621-.045,1.439,1.439,0,0,0,1.231-1.513c.013-.519-.019-1.04-.043-1.557-.06-1.394-.127-2.787-.192-4.181-.03-.625-.06-1.252-.087-1.878-.006-.14,0-.282,0-.445l1.063-.091c.011.165.025.322.032.481q.162,3.721.322,7.442a4.078,4.078,0,0,1-.219,1.6,2.291,2.291,0,0,1-1.98,1.537,3.642,3.642,0,0,1-1.424-.062,1.819,1.819,0,0,1-1.319-1.224c-.017-.048-.038-.1-.066-.165-.025.049-.043.077-.055.105a2.04,2.04,0,0,1-1.767,1.339,4.685,4.685,0,0,1-1.142-.009,1.839,1.839,0,0,1-1.607-1.439,1.088,1.088,0,0,0-.066.119,2.041,2.041,0,0,1-1.77,1.335,7.54,7.54,0,0,1-3.705-.5.365.365,0,0,0-.25.006,7.256,7.256,0,0,1-3.86.465,1.8,1.8,0,0,1-1.518-1.31.806.806,0,0,0-.033-.08.06.06,0,0,1-.025-.008.9.9,0,0,0-.045.085,2.026,2.026,0,0,1-1.752,1.332,5.648,5.648,0,0,1-1.274-.025,1.818,1.818,0,0,1-1.409-1.009c-.076-.137-.147-.278-.22-.417a.043.043,0,0,0-.031.012,2.185,2.185,0,0,1-1.356,1.218,3.981,3.981,0,0,1-2.291.189,1.85,1.85,0,0,1-1.531-1.642c-.038-.213-.056-.43-.084-.658l.833-.17c.017.046.033.083.045.122a1.25,1.25,0,0,0,1.092.967,3.748,3.748,0,0,0,2.037-.245,1.439,1.439,0,0,0,.838-.779.589.589,0,0,0,.031-.337c-.37-1.478-.753-2.953-1.13-4.429A.279.279,0,0,0,167.893,801.915Zm10.444,3.7c.013.105.019.211.04.314a2.016,2.016,0,0,0,1.019,1.274.7.7,0,0,0,.872-.034,1.83,1.83,0,0,0,.819-1.393,1.864,1.864,0,0,0-.581-1.52,1.017,1.017,0,0,0-.926-.3,1.658,1.658,0,0,0-1.244,1.658Z" transform="translate(-153.372 -793.994)"/><path d="M464.8,807.738c-.093.428-.2.838-.278,1.254a3.565,3.565,0,0,0,.055,1.547,2.349,2.349,0,0,0,1.843,1.79,5.333,5.333,0,0,0,3.716-.414,2.947,2.947,0,0,0,1.011-.813,1.609,1.609,0,0,0,.1-.139c.247-.389.185-.681-.231-.84-.475-.177-.968-.292-1.454-.442-.253-.077-.509-.151-.754-.251a1.32,1.32,0,0,1-.792-.7,1.431,1.431,0,0,1-.059-1.084,3.027,3.027,0,0,1,.721-1.424,3.957,3.957,0,0,1,3.568-1.407,1.3,1.3,0,0,1,1.2,1,5.438,5.438,0,0,1,.081.612,1.535,1.535,0,0,0,1.4,1.4c.4.037.8.026,1.2.028a.208.208,0,0,0,.142-.091,2.889,2.889,0,0,0,.482-1.767c-.093-1.978-.157-3.958-.232-5.938-.022-.6-.043-1.191-.065-1.815l1.106-.1c.043,1.285.093,2.563.13,3.844s.07,2.557.106,3.83l.124-.149a6.7,6.7,0,0,1,2.508-2.044,3.047,3.047,0,0,1,2.634-.02,2.908,2.908,0,0,1,1.545,3.3,2.3,2.3,0,0,1-1.033,1.388,4.947,4.947,0,0,1-1.833.673,23.858,23.858,0,0,1-4.254.285c-.77,0-1.542.017-2.315-.009a3.493,3.493,0,0,1-1.006-.182,2.291,2.291,0,0,1-1.507-2.16.839.839,0,0,0-.182-.614.758.758,0,0,0-.55-.281,2.881,2.881,0,0,0-2.728,1.052,1.713,1.713,0,0,0-.278.541.466.466,0,0,0-.008.392.43.43,0,0,0,.29.247,8.155,8.155,0,0,0,.833.266c.463.135.943.231,1.4.4a1.243,1.243,0,0,1,.844.668,1.358,1.358,0,0,1,.043,1.109,3.339,3.339,0,0,1-1.233,1.811,5.537,5.537,0,0,1-2.771,1.156,6.063,6.063,0,0,1-2.315-.049,3.245,3.245,0,0,1-2.579-3.5,5.9,5.9,0,0,1,.524-2.327c.051-.114.1-.159.227-.13C464.39,807.682,464.6,807.7,464.8,807.738Zm12.614.109a.481.481,0,0,0,.076.02,29.7,29.7,0,0,0,4.44-.247,3.2,3.2,0,0,0,1.323-.493,1.05,1.05,0,0,0,.425-1.265,1.732,1.732,0,0,0-1.036-1.115,2.476,2.476,0,0,0-1.988.018,7.38,7.38,0,0,0-3.24,3.079Z" transform="translate(-410.56 -793.993)"/><path d="M619.561,838.541c-.334-.017-.658-.008-.973-.056a5.672,5.672,0,0,1-1.13-.262,2.257,2.257,0,0,1-1.5-2.012,2.826,2.826,0,0,1,.567-2.142,2.03,2.03,0,0,1,3.391.088,4.414,4.414,0,0,1,.708,2.044c.04.3.055.61.084.946h.185c.842-.035,1.683-.062,2.524-.115a2.5,2.5,0,0,0,.58-.174.2.2,0,0,0,.139-.231,6.2,6.2,0,0,0-.469-2.271c-.185-.473-.41-.931-.627-1.419l1.038-.435c.048.1.093.195.136.287a9.753,9.753,0,0,1,.893,3.949,7.889,7.889,0,0,1-.093.807.537.537,0,0,1-.255.389,2.929,2.929,0,0,1-1.506.514c-.548.049-1.1.057-1.649.074-.331.011-.662,0-1.008,0-.048.195-.093.389-.144.578a5.186,5.186,0,0,1-2.046,3.023,3.549,3.549,0,0,1-3.454.336,3.127,3.127,0,0,1-.618-.389.227.227,0,0,1-.059-.188c.052-.278.12-.552.185-.829a3.428,3.428,0,0,0,3.629-.171A3.983,3.983,0,0,0,619.561,838.541Zm.16-1.4c-.028-.265-.044-.51-.082-.752a3.036,3.036,0,0,0-.6-1.517,1.245,1.245,0,1,0-1.472,1.94,4.679,4.679,0,0,0,2.154.328Z" transform="translate(-540.191 -823.266)"/><path d="M92.793,829.347a7.688,7.688,0,0,0-.3,2.157,2.776,2.776,0,0,0,2.45,2.89,4.7,4.7,0,0,0,3.209-.591,2.505,2.505,0,0,0,1-1.1c.18-.389.13-.633-.231-.829a8.509,8.509,0,0,0-1.039-.456c-.431-.166-.875-.3-1.307-.467a2.4,2.4,0,0,1-.448-.241,1.381,1.381,0,0,1-.627-1.222,3.687,3.687,0,0,1,1.25-2.833,3.068,3.068,0,0,1,2.169-.918,1.6,1.6,0,0,1,1.568,1.3.219.219,0,0,1-.014.163c-.208.262-.423.516-.648.789-.044-.1-.076-.167-.113-.239a1.288,1.288,0,0,0-1.481-.779,2.336,2.336,0,0,0-1.769,1.93.6.6,0,0,0,.317.646,6.857,6.857,0,0,0,.779.331c.471.173.951.325,1.421.5a3.08,3.08,0,0,1,.5.245,1.483,1.483,0,0,1,.756,1.615,3.582,3.582,0,0,1-1.418,2.383,5.542,5.542,0,0,1-5.185.8,3.332,3.332,0,0,1-2.119-2.81,6.4,6.4,0,0,1,.425-3.245.156.156,0,0,1,.069-.1.143.143,0,0,1,.117-.016C92.342,829.286,92.559,829.314,92.793,829.347Z" transform="translate(-90.891 -817.503)"/><path d="M131.67,924.24c.768,0,1.523-.042,2.271.011a1.45,1.45,0,0,1,1.4,1.487,4.312,4.312,0,0,1-.011.952,1.419,1.419,0,0,1-.849,1.187c0,.018,0,.035.01.037a1.45,1.45,0,0,1,.9,1.223,3.593,3.593,0,0,1-.028,1.407,1.493,1.493,0,0,1-1.482,1.305c-.731.058-1.469.012-2.222.012Zm.779,6.886c.45,0,.883.026,1.312-.008a.891.891,0,0,0,.817-.729,2.514,2.514,0,0,0,.007-1.311.969.969,0,0,0-.926-.786c-.381-.02-.764-.011-1.146-.012a.223.223,0,0,0-.063.019c0,.945,0,1.882,0,2.827Zm0-3.585h.2c.315,0,.631.015.943-.009a.935.935,0,0,0,.957-.9,3.64,3.64,0,0,0-.031-.949.719.719,0,0,0-.6-.664c-.485-.065-.979-.065-1.477-.1Z" transform="translate(-125.45 -901.43)"/><path d="M359.809,927.821a1.478,1.478,0,0,1,.957,1.431,5.1,5.1,0,0,1-.044,1.162,1.445,1.445,0,0,1-1.371,1.333c-.77.057-1.547.012-2.331.012v-7.632h.29c.658.009,1.318-.02,1.966.037a1.468,1.468,0,0,1,1.416,1.477,3.1,3.1,0,0,1-.052,1.16A1.5,1.5,0,0,1,359.809,927.821Zm-2.006,3.223c.442,0,.864.023,1.282-.006a.9.9,0,0,0,.842-.721,2.529,2.529,0,0,0,.014-1.311.923.923,0,0,0-.8-.779c-.437-.043-.883-.009-1.334-.009Zm0-3.593c.4,0,.784.023,1.165-.006a.924.924,0,0,0,.943-.9,3.707,3.707,0,0,0-.031-.949.728.728,0,0,0-.613-.67c-.48-.062-.968-.06-1.461-.086,0,.9,0,1.745,0,2.611Z" transform="translate(-319.112 -901.346)"/><path d="M233.41,931.756V924.1h.308c.635.008,1.274-.031,1.9.035a1.778,1.778,0,0,1,1.6,1.7,4.744,4.744,0,0,1,.036.565c0,1.046.013,2.094-.006,3.14a3.414,3.414,0,0,1-.147.955,1.638,1.638,0,0,1-1.5,1.237C234.882,931.8,234.153,931.756,233.41,931.756Zm.787-6.9v6.175c.423,0,.833.015,1.242,0a.93.93,0,0,0,.881-.656,2.555,2.555,0,0,0,.155-.809q.025-1.586,0-3.172a2.975,2.975,0,0,0-.136-.815.928.928,0,0,0-.822-.712c-.433-.039-.872-.011-1.318-.011Z" transform="translate(-212.884 -901.324)"/><path d="M274.952,924.19h.769v3.381h2.222v-3.377h.778v7.644h-.767v-3.513h-2.228v3.5h-.775Z" transform="translate(-248.583 -901.401)"/><path d="M88.719,929.9c-.157.662-.311,1.3-.463,1.947H87.44c.662-2.557,1.322-5.1,1.982-7.649h.721c.659,2.545,1.319,5.087,1.981,7.647H91.3l-.271-1.134c-.055-.229-.106-.459-.168-.681-.013-.048-.07-.115-.108-.115C90.08,929.9,89.4,929.9,88.719,929.9Zm1.944-.718c-.293-1.234-.581-2.446-.869-3.659h-.04l-.867,3.656Z" transform="translate(-87.44 -901.401)"/><path d="M317.467,931.833h-.825c-.136-.575-.278-1.145-.4-1.719-.038-.174-.093-.237-.278-.233-.585.015-1.17.009-1.754,0a.156.156,0,0,0-.129.033.173.173,0,0,0-.062.124c-.136.6-.278,1.19-.423,1.79h-.816c.662-2.556,1.322-5.1,1.982-7.65h.721C316.144,926.723,316.8,929.261,317.467,931.833Zm-2.327-6.318H315.1q-.432,1.822-.867,3.656h1.773c-.291-1.226-.579-2.44-.866-3.656Z" transform="translate(-281.093 -901.393)"/><path d="M704.06,798.172l1.092-.091c.136,3.706.271,7.4.407,11.1h-1.091C704.331,805.518,704.2,801.854,704.06,798.172Z" transform="translate(-617.353 -793.934)"/><path d="M401.48,809.235h-1.093c-.135-3.654-.271-7.313-.407-11l1.09-.1Q401.274,803.69,401.48,809.235Z" transform="translate(-356.032 -793.986)"/><path d="M473.075,928.642c-.035.082-.059.131-.079.183q-.551,1.408-1.1,2.818a.174.174,0,0,1-.193.142c-.235-.009-.471,0-.741,0,.028-.074.048-.13.071-.185q.753-1.808,1.51-3.614a.413.413,0,0,0,0-.351q-.683-1.636-1.357-3.279c-.028-.069-.055-.139-.093-.239.284,0,.556-.006.816.006.038,0,.087.077.108.129q.492,1.265.978,2.525c.021.055.045.106.078.185.035-.083.062-.142.086-.2.309-.818.621-1.632.926-2.453a.239.239,0,0,1,.278-.195c.212.015.426,0,.669,0-.027.072-.046.128-.07.183q-.7,1.679-1.4,3.356a.328.328,0,0,0,0,.281c.512,1.214,1.018,2.434,1.527,3.645.024.058.045.117.078.2-.288,0-.556.006-.822-.008-.041,0-.093-.086-.116-.143-.357-.918-.71-1.836-1.066-2.756C473.146,928.808,473.116,928.74,473.075,928.642Z" transform="translate(-417.04 -901.333)"/><path d="M957.52,924.17h3.227v.727h-2.461v2.661H960.4v.75h-2.111V931.1h2.462v.721H957.52C957.52,929.275,957.52,926.73,957.52,924.17Z" transform="translate(-835.172 -901.384)"/><path d="M726.43,931.116h2.462v.717H725.66V924.19h3.231v.723h-2.454v2.667h2.112v.742h-2.117Z" transform="translate(-635.916 -901.401)"/><path d="M512.77,931.868V924.23H516v.718h-2.461v2.667h2.114v.742h-2.118v2.788H516v.724Z" transform="translate(-452.961 -901.435)"/><path d="M439.629,928.329v2.8h2.461v.724h-3.23V924.2h3.23v.726h-2.464v2.661h2.117v.742Z" transform="translate(-389.444 -901.41)"/><path d="M686.066,931.8c-.592-2.557-1.18-5.1-1.776-7.667.271,0,.528,0,.781.006.028,0,.069.08.079.129q.323,1.539.64,3.081.305,1.479.61,2.959c.008.039.025.076.049.146l1.3-6.314h.833c-.114.5-.223.986-.336,1.473q-.688,2.987-1.371,5.974c-.038.17-.1.233-.266.217S686.258,931.8,686.066,931.8Z" transform="translate(-600.363 -901.352)"/><path d="M823.189,924.944v2.7H825.3v.745h-2.114v3.486h-.773V924.23h3.224v.715Z" transform="translate(-719.062 -901.435)"/><path d="M858.63,924.17h3.229v.726h-2.445v2.693h2.109v.744h-2.114v3.483h-.778C858.63,929.274,858.63,926.73,858.63,924.17Z" transform="translate(-750.188 -901.384)"/><path d="M631.976,924.94v6.922h-.77v-6.911h-1.481v-.732h3.739v.72Z" transform="translate(-553.467 -901.427)"/><path d="M668.295,931.867h-.741V924.22h.741Z" transform="translate(-585.978 -901.427)"/><path d="M895.3,924.17h.746v7.649H895.3Z" transform="translate(-781.702 -901.384)"/><path d="M399.2,924.13h.656a.565.565,0,0,1,.093.006v7.655H399.2Z" transform="translate(-355.361 -901.349)"/><path d="M804.16,888.964a.758.758,0,1,1,.75.835.723.723,0,0,1-.55-.244A.8.8,0,0,1,804.16,888.964Z" transform="translate(-703.377 -870.674)"/><path d="M269.073,805.913a.809.809,0,0,1-.36.726.726.726,0,0,1-.778.008.892.892,0,0,1-.014-1.443.726.726,0,0,1,.778-.009.807.807,0,0,1,.374.718Z" transform="translate(-242.231 -799.907)"/><path d="M676.836,888.962a.79.79,0,0,1-.2.6.711.711,0,0,1-.564.234.792.792,0,0,1-.755-.493.868.868,0,0,1,.152-.921.767.767,0,0,1,.869-.2.836.836,0,0,1,.5.774Z" transform="translate(-592.657 -870.672)"/><path d="M188.32,800.169a.808.808,0,0,1,.365-.724.726.726,0,0,1,.779,0,.894.894,0,0,1,.005,1.444.726.726,0,0,1-.779,0,.807.807,0,0,1-.37-.721Z" transform="translate(-174.134 -795.008)"/><path d="M582.64,809.753a.807.807,0,0,1,.37-.721.726.726,0,0,1,.779,0,.895.895,0,0,1-.007,1.445.726.726,0,0,1-.779,0,.808.808,0,0,1-.364-.724Z" transform="translate(-513.007 -803.18)"/><path d="M309.52,821.045a.809.809,0,0,1,.36-.726.726.726,0,0,1,.778-.008.892.892,0,0,1,.014,1.443.726.726,0,0,1-.778.009A.806.806,0,0,1,309.52,821.045Z" transform="translate(-278.292 -812.792)"/><path d="M530.385,904.1a.778.778,0,0,1-.212.6.7.7,0,0,1-.57.215.719.719,0,0,1-.542-.266.979.979,0,0,1,.052-1.185.743.743,0,0,1,1.1.047.8.8,0,0,1,.176.591Z" transform="translate(-466.812 -883.554)"/><path d="M862.525,821.322a.77.77,0,0,1-.2.578.692.692,0,0,1-.543.226.7.7,0,0,1-.548-.231.781.781,0,0,1-.2-.584.742.742,0,1,1,1.481.011Z" transform="translate(-752.259 -813.041)"/><path d="M336.681,821.322a.77.77,0,0,1-.2.577.692.692,0,0,1-.543.227.7.7,0,0,1-.547-.232.782.782,0,0,1-.2-.584.742.742,0,1,1,1.481.012Z" transform="translate(-300.36 -813.041)"/><path d="M484.281,913.946a.742.742,0,1,1-1.481.017.793.793,0,0,1,.2-.583.715.715,0,0,1,.543-.241.706.706,0,0,1,.539.232.783.783,0,0,1,.2.574Z" transform="translate(-427.206 -891.985)"/><path d="M111.76,904.11a.742.742,0,1,1,.735.785.76.76,0,0,1-.735-.785Z" transform="translate(-108.34 -883.6)"/><path d="M224.606,888.956a.742.742,0,1,1-.741-.816.706.706,0,0,1,.543.235.784.784,0,0,1,.2.581Z" transform="translate(-204.042 -870.68)"/><path d="M875.2,821.31a.762.762,0,0,1,.182-.572.685.685,0,0,1,.527-.238.706.706,0,0,1,.544.237.784.784,0,0,1,.2.584.77.77,0,0,1-.2.582.693.693,0,0,1-.55.222.675.675,0,0,1-.526-.24.75.75,0,0,1-.172-.575Z" transform="translate(-764.427 -813.04)"/><path d="M350.811,821.314a.773.773,0,0,1-.2.584.7.7,0,0,1-.549.226.675.675,0,0,1-.527-.236.75.75,0,0,1-.175-.574.761.761,0,0,1,.178-.573.685.685,0,0,1,.525-.242.7.7,0,0,1,.547.231A.783.783,0,0,1,350.811,821.314Z" transform="translate(-312.53 -813.04)"/><path d="M237.28,888.94a.757.757,0,0,1,.179-.572.681.681,0,0,1,.526-.238.815.815,0,0,1,.011,1.625.678.678,0,0,1-.537-.233.754.754,0,0,1-.179-.582Z" transform="translate(-216.209 -870.672)"/><path d="M125.68,904.116a.741.741,0,0,1,.763-.715.765.765,0,0,1-.058,1.527.681.681,0,0,1-.527-.238.756.756,0,0,1-.178-.573Z" transform="translate(-120.302 -883.602)"/><path d="M496.96,913.947a.767.767,0,0,1,.186-.57.691.691,0,0,1,.527-.237.815.815,0,0,1-.016,1.625.682.682,0,0,1-.523-.244.759.759,0,0,1-.174-.574Z" transform="translate(-439.374 -891.985)"/></g></g></svg>