<svg xmlns="http://www.w3.org/2000/svg" width="46.063" height="45" viewBox="0 0 46.063 45"><path d="M24.091,0H27.2V4.186c5.238,0,10.476.01,15.713-.016a4.817,4.817,0,0,1,2.627.5,4.8,4.8,0,0,1,.513,2.648q-.039,13.626-.01,27.241a23.891,23.891,0,0,1-.178,4.579c-.209,1.088-1.517,1.114-2.391,1.151-5.421.015-10.847-.01-16.273,0V45h-3.25C15.975,43.55,7.984,42.211,0,40.814V4.191C8.032,2.794,16.064,1.418,24.091,0Z" fill="#207245"/><path d="M64.975,13.75H82.242V46.715H64.975v-3.14h4.186V39.913H64.975V37.82h4.186V34.157H64.975V32.064h4.186V28.4H64.975V26.308h4.186V22.645H64.975V20.552h4.186V16.89H64.975Z" transform="translate(-37.776 -7.994)" fill="#fff"/><path d="M79.975,21.25H87.3v3.663H79.975Z" transform="translate(-46.497 -12.355)" fill="#207245"/><path d="M24.969,32.664q1.774-.126,3.558-.214-2.092,4.3-4.222,8.576c1.439,2.93,2.909,5.84,4.353,8.77q-1.889-.108-3.777-.241a61.772,61.772,0,0,1-2.611-6.572c-.711,2.124-1.727,4.128-2.543,6.211-1.146-.016-2.292-.063-3.438-.11,1.345-2.632,2.642-5.285,4.029-7.9-1.177-2.695-2.47-5.337-3.684-8.016q1.727-.1,3.453-.2c.779,2.046,1.632,4.065,2.276,6.164.69-2.224,1.721-4.317,2.606-6.467Z" transform="translate(-9.47 -18.866)" fill="#fff"/><path d="M79.975,35H87.3v3.663H79.975Zm0,5.756H87.3v3.663H79.975Zm0,5.756H87.3v3.663H79.975Zm0,5.756H87.3V55.93H79.975Z" transform="translate(-46.497 -20.349)" fill="#207245"/></svg>