<svg xmlns="http://www.w3.org/2000/svg" width="125.045" height="26.808" viewBox="0 0 125.045 26.808"><g transform="translate(0 0)"><path d="M0,26.769H5.113L12.87,5.4l7.757,21.369h5.11L16.064.12H9.674Z" transform="translate(0 -0.086)" fill="#2f4353" fill-rule="evenodd"/><path d="M93.848,26.769h4.689l.005-22.5,7.661,0V.126l-7.659,0v0H93.858v0L85.12.12l1.432,4.139,7.3,0Z" transform="translate(-62.429 -0.086)" fill="#2f4353" fill-rule="evenodd"/><path d="M175.95,26.769h4.686l0-12.732,2.373,2.777.011-.014,7.459,10.07h6.142L186.234,12.86,196.623.12h-6.142L180.642,12.2l0-12.079h-4.686Z" transform="translate(-129.046 -0.086)" fill="#2f4353" fill-rule="evenodd"/><rect width="4.686" height="26.649" transform="translate(71.088 0.034)" fill="#2f4353"/><path d="M323.485,26.769h4.686L328.182.12h-4.689L323.488,20.6,313.366.12h-6.438l-.008,26.649h4.686l.008-20.711,10.239,20.711Z" transform="translate(-225.103 -0.086)" fill="#2f4353" fill-rule="evenodd"/><path d="M419.831,1.384c-5.849-3.018-13.979-1.017-15.144,5.171-1.719,9.868,11.463,7.954,11.5,12.466.1,2.651-3.122,5.855-11.345,1.575-.211,1.682-.421,3.139-.634,4.818,3.06,1.569,16.261,3.887,17.293-6.314.088-9.148-12.422-7.133-11.729-11.126C409.8,3.7,417.3,4.22,419.53,5.767,419.615,4.508,419.727,2.645,419.831,1.384Z" transform="translate(-296.458 0.001)" fill="#2f4353" fill-rule="evenodd"/></g></svg>