<svg xmlns="http://www.w3.org/2000/svg" width="23.1" height="21.616" viewBox="0 0 23.1 21.616"><g transform="translate(-935.256 -503.803)"><g transform="translate(935.256 503.803)"><g transform="translate(0 0)"><path d="M5.45,2.782,2.729,9.021c-.494,1.2-1.023,2.342-1.565,3.557L.013,15.284a1.082,1.082,0,0,0,.256,1.051,3.977,3.977,0,0,0,2.266.373c.905,0,1.831.02,2.734,0C5.93,15.284,9.089,7.8,9.477,7.126a28.739,28.739,0,0,0-1.34-3.1C7.9,3.521,7.69,2.986,7.46,2.5a1.115,1.115,0,0,0-2.01.284Z" transform="translate(0.031 -1.473)" fill="#fff" fill-rule="evenodd"/><path d="M15.057,61.654v-.1H6.375c-.931.028-1.885,0-2.813,0A3.821,3.821,0,0,1,1.23,61.14c.1.432,1.706,3.378,2.1,4.122.678,1.256,1.023,2.741,3.89,1.2l6.764-4.194A8.593,8.593,0,0,1,15.057,61.654Z" transform="translate(-0.908 -45.504)" fill="#fff" fill-rule="evenodd"/></g></g><path d="M29.763.763c.238.511.471,1.1.7,1.642a31.5,31.5,0,0,1,1.381,3.34c.767,1.741,1.429,3.45,2.179,5.155.363.831.724,1.711,1.056,2.539.184.455.361.821.557,1.279l.557,1.32v.1c.309.486,1.882,4.57,2.3,5.442h6.137l-4.9-11.722C38.65,7.122,37.256,4.141,36.19,1.44,35.99.929,35.773.2,35.249.047c-.141-.041-6.061-.095-6.309,0C29.28.077,29.449.085,29.763.763Z" transform="translate(913.725 503.809)" fill="#fff" fill-rule="evenodd"/></g></svg>