<svg xmlns="http://www.w3.org/2000/svg" xmlns:xlink="http://www.w3.org/1999/xlink" width="141.503" height="98.345" viewBox="0 0 141.503 98.345"><defs><linearGradient id="a" x1="0.129" y1="0.568" x2="0.997" y2="0.202" gradientUnits="objectBoundingBox"><stop offset="0" stop-color="#2b7a77"/><stop offset="0.51" stop-color="#4ebaa9"/><stop offset="1" stop-color="#5cc2b1"/></linearGradient><linearGradient id="b" x1="0.736" y1="0.104" x2="0.186" y2="1.001" gradientUnits="objectBoundingBox"><stop offset="0" stop-color="#236736"/><stop offset="0.493" stop-color="#6ba443"/><stop offset="1" stop-color="#86c146"/></linearGradient><linearGradient id="c" x1="0.281" y1="0.003" x2="0.816" y2="0.997" gradientUnits="objectBoundingBox"><stop offset="0" stop-color="#29a5e3"/><stop offset="0.515" stop-color="#356eb9"/><stop offset="1" stop-color="#394da5"/></linearGradient></defs><g transform="translate(-200 -1726.801)"><g transform="translate(200 1806.836)"><g transform="translate(0 0.178)"><path d="M-40.588-16.435l-3.033,7.082h6.093ZM-31.31-2.326H-34.6l-1.8-4.271h-8.37l-1.821,4.271h-3.185l7.788-17.825h2.88L-31.31-2.326Z" transform="translate(49.767 20.151)" fill="#0e0d0f"/></g><g transform="translate(38.402 0.304)"><path d="M-38.7-78.274h-3.137V-93.091h-5.614v-2.883h14.615l-1.2,2.883H-38.7Z" transform="translate(47.447 95.974)" fill="#0e0d0f"/></g><g transform="translate(94.086 0.304)"><path d="M-55.762-12.749h-9.479v4.5h6.071v2.784h-6.071v4.7h9.484V2.068H-68.372v-17.7h12.609Z" transform="translate(68.372 15.632)" fill="#0e0d0f"/></g><path d="M14892.053-659.608h-2.965v-17.7h2.965Z" transform="translate(-14763.138 677.613)" fill="#0e0d0f"/><g transform="translate(109.383 0.008)"><path d="M-30.625-12.6c-1.808,0-3.345.547-3.353,1.747-.009,1.405.873,1.893,4.2,2.975,3.679,1.21,5.633,2.439,5.612,5.432-.019,3.373-2.626,5.3-6.433,5.3A10.368,10.368,0,0,1-37.55.353L-36.4-2.423a9.361,9.361,0,0,0,5.886,2.4c1.916.009,3.279-.923,3.279-2.3,0-1.155-.667-1.922-3.9-2.946-3.7-1.214-5.941-2.48-5.922-5.5.022-3,2.836-4.707,6.374-4.689a11.036,11.036,0,0,1,5.835,1.487l-1.112,2.524A9.575,9.575,0,0,0-30.625-12.6" transform="translate(37.55 15.454)" fill="#0e0d0f"/></g><g transform="translate(128.919 0.304)"><path d="M-16.906-37.893l7.923-8.569h-3.8l-7.95,8.569,8.736,9.134h3.848Z" transform="translate(20.729 46.462)" fill="#0e0d0f"/></g><g transform="translate(53.451)"><path d="M-40.478-68.338a6.064,6.064,0,0,1-6.018-6.3,6.065,6.065,0,0,1,6.018-6.3,6.067,6.067,0,0,1,6.02,6.3,6.065,6.065,0,0,1-6.02,6.3m0-15.453a9.155,9.155,0,0,0-9.153,9.156,9.152,9.152,0,0,0,9.153,9.153,9.154,9.154,0,0,0,9.155-9.153,9.157,9.157,0,0,0-9.155-9.156" transform="translate(49.631 83.791)" fill="#0e0d0f"/></g><g transform="translate(75.034 0.305)"><path d="M-29.7-65.747l-3.575,0V-77.729h3.589a5.759,5.759,0,0,1,6,5.941A5.853,5.853,0,0,1-29.7-65.747m0-14.867h-6.715v17.7l6.715,0a8.918,8.918,0,0,0,9.152-8.873A8.879,8.879,0,0,0-29.7-80.614" transform="translate(36.412 80.614)" fill="#0e0d0f"/></g><g transform="translate(19.813 0.305)"><path d="M-67.091-43.589c0,5.277-3.1,8.122-7.586,8.122s-7.585-2.845-7.585-8.122v-9.857h3.135v10.229c0,3.1,1.817,4.913,4.45,4.913s4.453-1.817,4.453-4.913V-53.445h3.134Z" transform="translate(82.262 53.445)" fill="#0e0d0f"/></g></g><g transform="translate(238.088 1726.801)"><path d="M107.082,153.349a3.581,3.581,0,0,1-3.519-2.185L95.62,136.439a3.667,3.667,0,0,1-.556-2.167l12.484.55,2.857,2.857h25.04l-20.791,12.88c-1.013.6-4.868,2.789-7.572,2.789Z" transform="translate(-95.064 -92.094)" fill="url(#a)"/><path d="M110.417,65.624h-10.8c-3.261,0-4.554-1.706-4.554-3.407a6.973,6.973,0,0,1,.826-2.861l15.736-37.566.169-.33.218-.338.453-.441.665-.355.963-.212,1.657.043,10.935,4.064-3.7,11.66Z" transform="translate(-95.064 -20.038)" fill="url(#b)"/><path d="M170.467,81.161l-24.838-58.8a3.083,3.083,0,0,0-2.889-2.293,2.83,2.83,0,0,0-2.769,1.594,2.735,2.735,0,0,1,2.824-1.752h17.143a2.711,2.711,0,0,1,2.683,1.782l25.118,59.47Z" transform="translate(-123.408 -19.909)" fill-rule="evenodd" fill="url(#c)"/></g></g></svg>