<svg xmlns="http://www.w3.org/2000/svg" xmlns:xlink="http://www.w3.org/1999/xlink" width="165.768" height="27.531" viewBox="0 0 165.768 27.531"><defs><clipPath id="a"><path d="M5415.875-444.152h165.768v-27.484H5415.875Z" transform="translate(-5415.875 471.636)" fill="#555"/></clipPath></defs><g transform="translate(0)"><g transform="translate(0)"><g transform="translate(0 0.018)"><g transform="translate(0 0)"><g clip-path="url(#a)"><g transform="translate(162.889 17.559)"><path d="M-13.395-7.25a1.193,1.193,0,0,1-1.224,1.239A1.2,1.2,0,0,1-15.842-7.25a1.2,1.2,0,0,1,1.224-1.241A1.194,1.194,0,0,1-13.395-7.25m.215,0a1.439,1.439,0,0,0-1.439-1.441A1.441,1.441,0,0,0-16.056-7.25a1.44,1.44,0,0,0,1.438,1.439A1.438,1.438,0,0,0-13.179-7.25" transform="translate(16.056 8.691)" fill="#555"/></g><g transform="translate(163.881 18.242)"><path d="M-3.579-2.119c0,.213-.176.235-.346.235h-.151v-.472h.223c.2,0,.275.1.275.237m.358,1.07-.348-.489a.81.81,0,0,0-.173-.2c.251-.032.4-.169.4-.384A.417.417,0,0,0-3.8-2.54H-4.29v1.491h.214v-.668c.117,0,.162.037.234.145l.361.522Z" transform="translate(4.29 2.54)" fill="#555"/></g></g></g><g transform="translate(34.38 4.419)"><path d="M-41.517-16.811l-2.726,6.365h5.477Zm8.34,12.681H-36.13l-1.614-3.839h-7.523L-46.9-4.13h-2.863l7-16.022h2.588Z" transform="translate(49.767 20.151)" fill="#555"/></g><g transform="translate(68.897 4.532)"><path d="M-39.582-80.065H-42.4V-93.382h-5.046v-2.591h13.136l-1.083,2.591h-4.188Z" transform="translate(47.447 95.974)" fill="#555"/></g><g transform="translate(118.946 4.532)"><path d="M-57.038-13.041h-8.52v4.046H-60.1v2.5h-5.457v4.228h8.524V.277H-68.372V-15.632h11.334Z" transform="translate(68.372 15.632)" fill="#555"/></g><path d="M14891.753-661.4h-2.664v-15.909h2.664Z" transform="translate(-14741.502 681.841)" fill="#555"/><g transform="translate(0 0)"><g clip-path="url(#a)"><g transform="translate(132.696 4.266)"><path d="M-31.326-12.892c-1.625,0-3.007.491-3.014,1.57-.008,1.263.784,1.7,3.777,2.674,3.307,1.087,5.063,2.193,5.044,4.882C-25.535-.733-27.878,1-31.3,1a9.319,9.319,0,0,1-6.25-2.242l1.031-2.5a8.414,8.414,0,0,0,5.291,2.16c1.722.008,2.947-.829,2.947-2.07,0-1.038-.6-1.728-3.5-2.648-3.329-1.091-5.34-2.229-5.323-4.94s2.549-4.23,5.729-4.215a9.92,9.92,0,0,1,5.244,1.336l-1,2.269a8.607,8.607,0,0,0-4.192-1.044" transform="translate(37.55 15.454)" fill="#555"/></g><g transform="translate(150.255 4.532)"><path d="M-17.293-38.76l7.122-7.7h-3.412l-7.145,7.7,7.852,8.21h3.459Z" transform="translate(20.729 46.462)" fill="#555"/></g><g transform="translate(82.423 4.259)"><path d="M-41.4-69.9a5.451,5.451,0,0,1-5.409-5.66A5.452,5.452,0,0,1-41.4-81.222a5.453,5.453,0,0,1,5.411,5.661A5.452,5.452,0,0,1-41.4-69.9m0-13.89a8.228,8.228,0,0,0-8.227,8.23A8.226,8.226,0,0,0-41.4-67.334a8.228,8.228,0,0,0,8.228-8.227,8.231,8.231,0,0,0-8.228-8.23" transform="translate(49.631 83.791)" fill="#555"/></g><g transform="translate(101.822 4.533)"><path d="M-30.376-67.251l-3.214,0V-78.021h3.226a5.176,5.176,0,0,1,5.4,5.34,5.26,5.26,0,0,1-5.409,5.43m0-13.363h-6.036V-64.7h6.036a8.016,8.016,0,0,0,8.226-7.975,7.98,7.98,0,0,0-8.226-7.933" transform="translate(36.412 80.614)" fill="#555"/></g><g transform="translate(52.188 4.533)"><path d="M-68.626-44.586c0,4.743-2.783,7.3-6.819,7.3s-6.817-2.557-6.817-7.3v-8.859h2.818v9.194c0,2.783,1.634,4.416,4,4.416s4-1.634,4-4.416v-9.194h2.817Z" transform="translate(82.262 53.445)" fill="#555"/></g></g></g></g><path d="M100.466,142.846a1.61,1.61,0,0,1-1.581-.982l-3.57-6.618a1.648,1.648,0,0,1-.25-.974l5.611.247,1.284,1.284h11.255l-9.345,5.789A8.466,8.466,0,0,1,100.466,142.846Z" transform="translate(-94.898 -115.315)" fill="#555"/><path d="M101.965,40.568H97.111c-1.466,0-2.047-.767-2.047-1.532a3.134,3.134,0,0,1,.371-1.286l7.073-16.884.076-.148.1-.152.2-.2.3-.16.433-.1.745.019,4.915,1.827L107.615,27.2Z" transform="translate(-94.898 -20.079)" fill="#555"/><path d="M153.677,47.439,142.513,21.011a1.386,1.386,0,0,0-1.3-1.031,1.272,1.272,0,0,0-1.245.716,1.229,1.229,0,0,1,1.269-.787h7.7a1.218,1.218,0,0,1,1.206.8l11.289,26.729Z" transform="translate(-132.36 -19.909)" fill="#555" fill-rule="evenodd"/></g></g></svg>