<svg xmlns="http://www.w3.org/2000/svg" width="26.831" height="35.946" viewBox="0 0 26.831 35.946"><g transform="translate(1.022 1)"><line x2="4.218" y2="6.931" transform="translate(5.436 0.567)" fill="none" stroke="#ffb405" stroke-linecap="round" stroke-linejoin="round" stroke-miterlimit="10" stroke-width="2"/><path d="M11.6,5l1.365-1.386a1.925,1.925,0,0,1,2.729,0h0a1.925,1.925,0,0,0,2.729,0h0a1.925,1.925,0,0,1,2.729,0L22.517,5" transform="translate(-4.676 -3.05)" fill="none" stroke="#ffb405" stroke-linecap="round" stroke-linejoin="round" stroke-miterlimit="10" stroke-width="2"/><line y2="1.26" transform="translate(12.383 16.32)" fill="none" stroke="#ffb405" stroke-linecap="round" stroke-linejoin="round" stroke-miterlimit="10" stroke-width="2"/><line y2="1.26" transform="translate(12.383 25.142)" fill="none" stroke="#ffb405" stroke-linecap="round" stroke-linejoin="round" stroke-miterlimit="10" stroke-width="2"/><path d="M21.751,9.756,21.379,9H15.424l-.248.882A11.157,11.157,0,0,1,10.958,15.3h0c-7.568,5.167-6.2,15.753,2.481,19.155h0a13.5,13.5,0,0,0,9.925,0h0c8.684-3.4,10.049-14.114,2.605-19.281h0A10.62,10.62,0,0,1,21.751,9.756Z" transform="translate(-6.02 -1.501)" fill="none" stroke="#ffb405" stroke-linecap="round" stroke-linejoin="round" stroke-miterlimit="10" stroke-width="2"/><path d="M22.418,10.431H18.2L22.418,3.5" transform="translate(-3.088 -2.933)" fill="none" stroke="#ffb405" stroke-linecap="round" stroke-linejoin="round" stroke-miterlimit="10" stroke-width="2"/><path d="M17.722,17H15.861A1.923,1.923,0,0,0,14,18.89h0a1.923,1.923,0,0,0,1.861,1.89H17.1a1.923,1.923,0,0,1,1.861,1.89h0a1.923,1.923,0,0,1-1.861,1.89H15.241" transform="translate(-4.1 0.58)" fill="none" stroke="#ffb405" stroke-linecap="round" stroke-linejoin="round" stroke-miterlimit="10" stroke-width="2"/></g></svg>