<svg xmlns="http://www.w3.org/2000/svg" width="22.907" height="31.866" viewBox="0 0 22.907 31.866"><path d="M75.741-511.647a4.119,4.119,0,0,0-3.067,2.743l-.175.5v24.933l.168.5a4.392,4.392,0,0,0,1.141,1.808,4.392,4.392,0,0,0,1.808,1.141l.5.168h9.331c9.325,0,9.331,0,9.5-.131a.88.88,0,0,0,.43-.835.88.88,0,0,0-.43-.835c-.168-.131-.2-.131-9.375-.162l-9.207-.031-.418-.2a2.4,2.4,0,0,1-1.222-1.191,1.724,1.724,0,0,1-.231-1.072,1.724,1.724,0,0,1,.231-1.072,2.4,2.4,0,0,1,1.222-1.191l.418-.2,9.207-.031,9.207-.031.175-.131a1.836,1.836,0,0,0,.318-.337l.137-.206-.012-11.8-.019-11.8-.131-.168a1.7,1.7,0,0,0-.3-.3c-.168-.131-.181-.131-9.5-.143C77.9-511.728,76.047-511.715,75.741-511.647Zm1.216,12.367v10.46l-.443.044a4.475,4.475,0,0,0-1.658.511l-.393.212v-9.936c0-10.9-.025-10.229.374-10.815a2.207,2.207,0,0,1,1.764-.941h.355Zm16.456.006V-488.8H78.951v-20.944H93.413Z" transform="translate(-72.5 511.723)" fill="#ffb405"/></svg>