<svg xmlns="http://www.w3.org/2000/svg" width="160.556" height="19.813" viewBox="0 0 160.556 19.813"><g transform="translate(0)"><path d="M296.343,158.86l-1.523,5.612a12.509,12.509,0,0,1-1.352.076c-3,0-2.662-.914-1.4-5.786,1.316-5.082,2.08-6.011,3.959-6.011,1.8,0,1.827,1.218,1.355,2.741h4.568c.743-2.863.247-5.4-5.095-5.4-5.947,0-7.561,1.255-9.48,8.667-1.784,6.9-1.2,8.731,5.232,8.731a28.438,28.438,0,0,0,6.182-.56l2.15-8.07Z" transform="translate(-225.562 -147.766)" fill="#231f20"/><path d="M342.16,164.946c-.594,0-.8-.183-.691-.664l1.035-4.059h6.112l.691-2.662H343.2l.694-2.707a1.617,1.617,0,0,1,1.669-1.306h4.894l.691-2.668H344.03c-2.951,0-3.837.527-4.985,4.967l-2.11,8.115c-.649,2.722.161,3.907,2.384,3.907h6.136a2.375,2.375,0,0,0,2.363-1.626l.5-1.3Z" transform="translate(-260.484 -148.315)" fill="#231f20"/><path d="M571.721,164.946c-.609,0-.8-.183-.691-.664l1.038-4.059h6.112l.688-2.662h-6.112l.694-2.707a1.617,1.617,0,0,1,1.669-1.306h4.894l.688-2.668h-7.111c-2.951,0-3.837.527-4.982,4.967l-2.1,8.115c-.649,2.722.161,3.907,2.384,3.907h6.142a2.372,2.372,0,0,0,2.36-1.626l.505-1.3Z" transform="translate(-420.146 -148.315)" fill="#231f20"/><path d="M238.815,164.967h-1.255l2.954-11.416c.381,0,.524-.018,1.465-.018,2.649,0,2.646.877,1.383,5.771-1.279,4.952-2.022,5.664-4.546,5.664Zm3.922-14.087H236.62l-4.263,16.481a.378.378,0,0,0,.365.509h5.448c6.846,0,8-1.306,9.876-8.566,1.629-6.307.624-8.423-5.311-8.423Z" transform="translate(-187.887 -148.315)" fill="#231f20"/><path d="M523.734,150.78c-3.523,0-5.177.076-6.124.03l-4.263,16.481a.378.378,0,0,0,.365.509h4.081l3.7-14.312c.378,0,.95-.033,1.523-.033,1.985,0,2.247.706,1.724,2.741l-2.859,11.1a.378.378,0,0,0,.369.509h4.087l3.009-11.62C530.384,152.153,528.615,150.78,523.734,150.78Z" transform="translate(-383.309 -148.246)" fill="#231f20"/><path d="M429.643,150.88l-.7,2.777h4.54c.046,0,.046.058,0,.088a3.837,3.837,0,0,0-1.376,2.132l-2.978,11.483a.381.381,0,0,0,.369.509h4.388l3.688-14.212h2.247a2.358,2.358,0,0,0,2.458-1.632l.429-1.13Z" transform="translate(-324.623 -148.315)" fill="#231f20"/><path d="M211.516,167.869l4.263-16.478a.378.378,0,0,0-.365-.512H211.09l-4.263,16.481a.378.378,0,0,0,.368.509Z" transform="translate(-170.131 -148.315)" fill="#231f20"/><path d="M470.331,164.7c-1.961,0-2.253-.716-.883-6.014,1.139-4.4,2.226-5.941,3.974-5.941,1.961,0,2.177,1.054.914,5.941S471.847,164.7,470.331,164.7Zm3.776-14.617c-5.143,0-7.375.914-9.4,8.731-1.748,6.769-.347,8.731,4.872,8.731,5.32,0,7.424-1.1,9.4-8.731C480.407,153.287,480.118,150.08,474.107,150.08Z" transform="translate(-349.003 -147.759)" fill="#231f20"/><path d="M95.152,153.711l2.662-9.334a2.643,2.643,0,0,1,2.39-1.827h8.137a.137.137,0,0,1,.076.25,90.958,90.958,0,0,0-13.033,11.039.134.134,0,0,1-.231-.119Z" transform="translate(-92.477 -142.522)" fill="#d12f13"/><path d="M95.481,159.25l2.634-9.212a.137.137,0,0,0-.222-.143,98.318,98.318,0,0,0-11.477,11.876c-.073.094-.037.234.091.234h11.4c4.805,0,7.436-1.489,8.39-5.046a4.012,4.012,0,0,0-3.164-5.384.054.054,0,0,1,0-.107c2.049-.35,4.117-1.175,4.857-4.169.8-3.237-1.678-5.012-4.525-4.83l-4.358,15.253a2.193,2.193,0,0,1-1.955,1.523Z" transform="translate(-86.378 -142.458)" fill="#231f20"/><path d="M167.866,161.057a3.38,3.38,0,0,0-.557-1.175c-.03-.04-.04-.091.018-.11a5.206,5.206,0,0,0,3.773-3.928c.713-2.762-1.029-4.964-5.43-4.964H159.13l-4.263,16.481a.378.378,0,0,0,.368.509h4.087l3.7-14.312c.4,0,.773-.018,1.714-.018,1.577,0,2.159.974,1.827,2.284a3.4,3.4,0,0,1-3.377,2.7h-.609l1.7,8.222a1.321,1.321,0,0,0,1.523,1.133h3.654l-1.587-6.812Z" transform="translate(-133.994 -148.315)" fill="#231f20"/><path d="M378.949,161.251c-1.733,4.138.524,6.014,5.122,6.014,4.193,0,6.523-1,7.522-4.854a3.961,3.961,0,0,0-.691-3.624c-1.568-1.705-4.568-2.025-5.646-3.012a1.765,1.765,0,0,1-.378-1.812,2.117,2.117,0,0,1,2.244-1.717c1.9,0,1.946,1.166,1.48,2.552h4.068c.956-2.893-.3-5.159-5.092-5.159-4.029,0-6.206,1.583-6.989,4.613a4.537,4.537,0,0,0,.362,3.045c1.105,1.9,4.041,2.132,5.664,3.261a1.553,1.553,0,0,1,.539,1.879,2.333,2.333,0,0,1-2.491,2.089c-1.361,0-2.177-.792-1.4-3.271Z" transform="translate(-289.45 -147.453)" fill="#231f20"/></g></svg>