<svg xmlns="http://www.w3.org/2000/svg" width="166.553" height="47.93" viewBox="0 0 166.553 47.93"><g transform="translate(0.01 0.17)"><g transform="translate(-0.01 -0.17)"><path d="M169.8,25.453V5.208h7.38a9.052,9.052,0,0,1,3.468.657,5.137,5.137,0,0,1,2.907,4.6,4.693,4.693,0,0,1-2.348,4.25,4.4,4.4,0,0,1,3.692,4.6c0,2.8-1.678,4.808-4.473,5.705a11.985,11.985,0,0,1-3.8.447Zm9.058-16.78a4.759,4.759,0,0,0-1.9-.328h-3.8V13.6h3.58a4.186,4.186,0,0,0,2.237-.447,2.408,2.408,0,0,0,1.232-2.128A2.726,2.726,0,0,0,178.86,8.673Zm1.008,8.388a5.183,5.183,0,0,0-2.237-.328h-4.477v5.584h4.138a6.214,6.214,0,0,0,2.575-.447,2.481,2.481,0,0,0,1.452-2.46A2.331,2.331,0,0,0,179.868,17.062Zm25.178,8.392V5.208h3.468V25.453Zm25.169,0V5.208h3.468V25.453ZM244.756,5.09a15.144,15.144,0,0,1,5.7,1.115l-.109,3.358a11.9,11.9,0,0,0-5.584-1.455c-1.9,0-3.58.562-3.58,2.125,0,4.138,10.4,2.46,10.4,9.285,0,3.8-3.133,6.152-7.83,6.152a13.138,13.138,0,0,1-6.851-1.783l1.455-2.8a10.635,10.635,0,0,0,5.482,1.563c2.125,0,4.027-.782,4.027-2.572,0-4.362-10.29-2.46-10.29-9.285,0-3.688,2.907-5.7,7.157-5.7Zm23.155,20.363V16.73h-9.748v8.723H254.7V5.208h3.465v8.277H267.9V5.208h3.465V25.453Zm-90.506,3.468a13.236,13.236,0,0,1,5.584,1.228l-1.005,2.91a9.853,9.853,0,0,0-4.25-1.008c-3.8,0-6.155,3.245-6.155,7.16,0,4.027,2.24,7.272,6.155,7.272a9.889,9.889,0,0,0,4.25-1.008l1.005,2.907a13.19,13.19,0,0,1-5.584,1.232c-6.04,0-9.505-4.25-9.505-10.29,0-5.705,3.465-10.4,9.505-10.4Zm75.618,0a12.5,12.5,0,0,1,5.584,1.228L257.6,33.06a9.853,9.853,0,0,0-4.25-1.008c-3.8,0-6.152,3.245-6.152,7.16,0,4.027,2.237,7.272,6.152,7.272a9.877,9.877,0,0,0,4.25-1.008l1.005,2.907a12.481,12.481,0,0,1-5.584,1.232c-6.043,0-9.508-4.25-9.508-10.29,0-5.705,3.465-10.4,9.508-10.4Zm-50.337,10.3c0,6.04-3.8,10.4-9.508,10.4s-9.525-4.25-9.525-10.29,3.807-10.4,9.525-10.4C198.994,28.928,202.685,33.178,202.685,39.219Zm-3.58,0c0-4.362-2.572-7.16-5.928-7.16s-5.928,2.8-5.928,7.272c0,4.362,2.575,7.157,5.928,7.157S199.105,43.685,199.105,39.219Zm5.912,2.46V29.145h3.468V41.784c0,3.468,1.79,4.7,4.7,4.7s4.7-1.228,4.7-4.7V29.145h3.465V41.672c0,5.482-3.133,7.942-8.165,7.942s-8.136-2.46-8.136-7.942Zm22.833-7.058h-.108a20.493,20.493,0,0,1,.108,2.687V49.275h-3.465V29.145h3.8L237.471,42.9h.115a19.311,19.311,0,0,1-.115-2.687V29.145h3.468V49.279h-3.018ZM261.3,49.275V29.145h3.465V49.279Zm6.6,0V29.145h3.465v17H279.3v3.133ZM227.519,5.32H211.186V8.45h6.49v17h3.465v-17h6.375ZM198.882,25.453c-2.907-6.152-3.692-7.83-4.927-7.83H190.71v7.83h-3.462V5.32h6.825c5.255,0,7.16,2.687,7.16,5.705a5.057,5.057,0,0,1-3.692,5.255c.893.562,1.9,2.463,5.255,9.173ZM194.3,8.345h-3.58v6.148h3.468c2.46,0,3.577-1.232,3.577-3.133C197.762,9.682,196.757,8.345,194.3,8.345Z" transform="translate(-112.751 -3.362)" fill="#174d83" fill-rule="evenodd"/><path d="M23.146,11.408A11.577,11.577,0,1,1,11.569-.17,11.575,11.575,0,0,1,23.146,11.408Zm24.61,0a11.5,11.5,0,0,1-11.5,11.519h-.033A11.522,11.522,0,1,1,47.756,11.381ZM23.146,36.126A11.578,11.578,0,1,1,11.515,24.6a11.578,11.578,0,0,1,11.63,11.522Zm24.61,0a11.5,11.5,0,0,1-11.5,11.522h-.033a11.5,11.5,0,0,1-11.522-11.5V36.12A11.5,11.5,0,0,1,36.2,24.6h.033a11.5,11.5,0,0,1,11.522,11.5Z" transform="translate(0.01 0.17)" fill="#1a9fda" fill-rule="evenodd"/></g></g></svg>