<svg xmlns="http://www.w3.org/2000/svg" width="112.411" height="32.225" viewBox="0 0 112.411 32.225"><g transform="translate(0 0)"><g transform="translate(38.418 1.25)"><path d="M124.87,61.6a3.772,3.772,0,0,0-1.563-.228h-2.981v3.793h2.813a3.984,3.984,0,0,0,1.752-.291,1.771,1.771,0,0,0,1-1.709A1.659,1.659,0,0,0,124.87,61.6m-.728-5.69a2.954,2.954,0,0,0-1.294-.228h-2.522v3.585H122.7a3.031,3.031,0,0,0,1.541-.314,1.772,1.772,0,0,0-.1-3.043M117.97,67.289V53.553h5.043a5.435,5.435,0,0,1,2.377.437,3.432,3.432,0,0,1,2.022,3.105,3.105,3.105,0,0,1-1.648,2.877v.042a3.015,3.015,0,0,1,2.543,3.126A3.937,3.937,0,0,1,125.264,67a8.8,8.8,0,0,1-2.627.291Z" transform="translate(-117.97 -53.548)" fill="#555"/></g><rect width="2.355" height="13.735" transform="translate(62.306 1.255)" fill="#555"/><rect width="2.353" height="13.735" transform="translate(79.249 1.255)" fill="#555"/><g transform="translate(83.752 1.13)"><path d="M244.4,53.226a9.4,9.4,0,0,1,3.813.771l-.04,2.252a8.438,8.438,0,0,0-3.835-.96c-1.29,0-2.4.4-2.4,1.482,0,2.813,7.068,1.688,7.068,6.334,0,2.565-2.169,4.188-5.318,4.188a8.665,8.665,0,0,1-4.647-1.226l.978-1.918a7.231,7.231,0,0,0,3.753,1.083c1.418,0,2.731-.544,2.731-1.793,0-2.941-7-1.648-7-6.337,0-2.5,2-3.876,4.9-3.876" transform="translate(-239.049 -53.225)" fill="#555"/></g><path d="M280.04,53.556h2.355V67.292H280.04V61.373h-6.67v5.919h-2.355V53.556h2.355v5.628h6.67Z" transform="translate(-175.361 -52.301)" fill="#555"/><g transform="translate(36.52 17.11)"><path d="M121.1,96.259a8.9,8.9,0,0,1,3.815.813l-.71,2a6.3,6.3,0,0,0-2.856-.686c-2.607,0-4.231,2.207-4.231,4.9,0,2.712,1.519,4.919,4.231,4.919a6.236,6.236,0,0,0,2.856-.689l.71,2a8.883,8.883,0,0,1-3.815.811c-4.107,0-6.461-2.875-6.461-7,0-3.855,2.353-7.066,6.461-7.066" transform="translate(-114.637 -96.258)" fill="#555"/><path d="M257.369,96.259a8.873,8.873,0,0,1,3.813.813l-.708,2a6.313,6.313,0,0,0-2.856-.686c-2.605,0-4.231,2.207-4.231,4.9,0,2.712,1.522,4.919,4.231,4.919a6.247,6.247,0,0,0,2.856-.689l.708,2a8.861,8.861,0,0,1-3.813.811c-4.108,0-6.463-2.875-6.463-7,0-3.855,2.355-7.066,6.463-7.066" transform="translate(-199.376 -96.258)" fill="#555"/><path d="M153.541,103.283c0-3-1.707-4.917-4.024-4.917s-4.024,1.917-4.024,4.939c0,3,1.711,4.919,4.024,4.919s4.024-1.915,4.024-4.94m2.482-.043c0,4.129-2.627,7.088-6.5,7.088-3.917,0-6.5-2.856-6.5-6.98s2.625-7.088,6.5-7.088c3.92,0,6.5,2.856,6.5,6.98" transform="translate(-132.286 -96.259)" fill="#555"/><path d="M181.621,105.156V96.592h2.355v8.649c0,2.291,1.233,3.147,3.189,3.147,2,0,3.19-.857,3.19-3.147V96.592h2.355v8.564c0,3.733-2.128,5.378-5.582,5.378-3.4,0-5.5-1.645-5.5-5.378" transform="translate(-156.291 -96.465)" fill="#555"/><path d="M218.814,100.328h-.042c.042.454.065,1.186.065,1.834v8.168h-2.355V96.6h2.542l6.374,9.357h.044c-.044-.459-.065-1.189-.065-1.836V96.6h2.354v13.732H225.65l-6.835-10Z" transform="translate(-177.969 -96.47)" fill="#555"/></g><rect width="2.351" height="13.735" transform="translate(100.176 17.236)" fill="#555"/><path d="M297.238,108.2h5.376v2.128h-7.731V96.592h2.355Z" transform="translate(-190.203 -79.356)" fill="#555"/><path d="M192.629,53.563v2.146h4.395V67.3h2.355V55.709h4.4V53.563Z" transform="translate(-126.264 -52.305)" fill="#555"/><path d="M154.358,55.689h-2.439v4.17h2.337c1.688,0,2.481-.876,2.481-2.127,0-1.125-.729-2.042-2.376-2.042m3.1,11.608c-2-4.146-2.521-5.315-3.354-5.315h-2.187V67.3h-2.353V53.565h4.645c3.541,0,4.9,1.876,4.9,3.959a3.5,3.5,0,0,1-2.543,3.52v.023c.624.355,1.29,1.647,3.583,6.231Z" transform="translate(-99.32 -52.306)" fill="#555"/><path d="M31.06,58.088a7.854,7.854,0,1,1-7.854-7.854,7.854,7.854,0,0,1,7.854,7.854" transform="translate(-15.353 -50.234)" fill="#555"/><path d="M75.514,58.088a7.854,7.854,0,1,1-7.854-7.854,7.854,7.854,0,0,1,7.854,7.854" transform="translate(-42.997 -50.234)" fill="#555"/><path d="M31.06,102.544a7.854,7.854,0,1,1-7.854-7.854,7.854,7.854,0,0,1,7.854,7.854" transform="translate(-15.353 -78.172)" fill="#555"/><path d="M75.514,102.544a7.854,7.854,0,1,1-7.854-7.854,7.854,7.854,0,0,1,7.854,7.854" transform="translate(-42.997 -78.172)" fill="#555"/></g></svg>