<svg xmlns="http://www.w3.org/2000/svg" width="67.569" height="19.21" viewBox="0 0 67.569 19.21"><g transform="translate(-987.716 -503.803)"><g transform="translate(987.716 503.803)"><g transform="translate(0)"><path d="M9.295,4.628a4.648,4.648,0,0,1-9.3,0,4.648,4.648,0,0,1,9.3,0Zm9.875,0a4.628,4.628,0,0,1-4.6,4.628h-.026A4.628,4.628,0,1,1,19.17,4.628ZM9.295,14.542A4.648,4.648,0,1,1,4.627,9.928h0A4.648,4.648,0,0,1,9.295,14.542Zm9.875,0a4.628,4.628,0,0,1-4.6,4.628h-.026a4.628,4.628,0,0,1-4.628-4.6v-.026a4.628,4.628,0,0,1,4.6-4.628h.026a4.628,4.628,0,0,1,4.628,4.6v.026Z" transform="translate(0)" fill="#fff" fill-rule="evenodd"/></g></g><path d="M168.665,13.274V5.14h2.966a3.655,3.655,0,0,1,1.4.264A2.076,2.076,0,0,1,174.2,7.249a1.878,1.878,0,0,1-.936,1.7,1.768,1.768,0,0,1,1.477,1.846,2.351,2.351,0,0,1-1.793,2.294,4.83,4.83,0,0,1-1.529.185ZM172.3,6.537a1.872,1.872,0,0,0-.765-.132H170.01v2.11h1.437a1.568,1.568,0,0,0,.9-.185.992.992,0,0,0,.5-.857A1.1,1.1,0,0,0,172.3,6.537Zm.4,3.362a2.049,2.049,0,0,0-.9-.132H170.01v2.241h1.661a2.458,2.458,0,0,0,1.028-.185.993.993,0,0,0,.58-.989.922.922,0,0,0-.58-.936Zm10.112,3.375V5.14h1.4v8.122h-1.4Zm10.1,0V5.14h1.4v8.122h-1.4ZM198.752,5.1a6.182,6.182,0,0,1,2.294.448l-.04,1.345a4.843,4.843,0,0,0-2.241-.58c-.765,0-1.437.224-1.437.857,0,1.661,4.179.989,4.179,3.731,0,1.529-1.253,2.465-3.138,2.465a5.342,5.342,0,0,1-2.756-.712l.58-1.121a4.314,4.314,0,0,0,2.2.633c.857,0,1.622-.316,1.622-1.028,0-1.754-4.127-.989-4.127-3.731-.013-1.5,1.147-2.307,2.861-2.307Zm9.3,8.174V9.767h-3.916v3.507h-1.384V5.14h1.384V8.462h3.9V5.14h1.384v8.122h-1.371Zm-36.336,1.4a5.441,5.441,0,0,1,2.241.488l-.409,1.173a4.034,4.034,0,0,0-1.7-.409,2.6,2.6,0,0,0-2.465,2.874c0,1.622.9,2.914,2.465,2.914a3.8,3.8,0,0,0,1.7-.409l.409,1.173a5.251,5.251,0,0,1-2.241.5c-2.426,0-3.81-1.7-3.81-4.127C167.9,16.544,169.284,14.659,171.71,14.672Zm30.364,0a5.052,5.052,0,0,1,2.241.488l-.409,1.173a4.034,4.034,0,0,0-1.7-.409A2.6,2.6,0,0,0,199.74,18.8c0,1.622.9,2.914,2.466,2.914a3.8,3.8,0,0,0,1.7-.409l.409,1.173a5.251,5.251,0,0,1-2.241.5c-2.426,0-3.823-1.7-3.823-4.127,0-2.294,1.4-4.179,3.823-4.179ZM181.862,18.8c0,2.426-1.529,4.179-3.81,4.179a3.8,3.8,0,0,1-3.823-4.127c0-2.426,1.529-4.179,3.823-4.179C180.386,14.672,181.862,16.373,181.862,18.8Zm-1.437,0c0-1.754-1.028-2.874-2.386-2.874s-2.386,1.121-2.386,2.914c0,1.754,1.028,2.874,2.386,2.874S180.425,20.592,180.425,18.8Zm2.373.989V14.751h1.4v5.076a1.885,1.885,0,0,0,3.771,0V14.751h1.384v5.023c0,2.2-1.253,3.191-3.283,3.191s-3.257-.976-3.27-3.177Zm9.163-2.835h-.04a7.345,7.345,0,0,1,.04,1.081v4.8h-1.384V14.751h1.529l3.731,5.524h.053a9.735,9.735,0,0,1-.053-1.081V14.751h1.4v8.082h-1.213Zm13.435,5.88V14.751h1.384v8.082Zm2.65,0V14.751h1.384v6.83h3.191v1.253ZM191.83,5.192h-6.553V6.445h2.611v6.83h1.384V6.445h2.558Zm-11.5,8.082c-1.173-2.465-1.477-3.138-1.978-3.138H177.05v3.138h-1.384V5.192h2.742c2.11,0,2.874,1.081,2.874,2.294a2.029,2.029,0,0,1-1.477,2.11c.356.224.765.989,2.109,3.678ZM178.5,6.405h-1.437V8.871h1.4c.989,0,1.437-.5,1.437-1.253C179.885,6.946,179.489,6.405,178.5,6.405Z" transform="translate(842.664 499.376)" fill="#fff" fill-rule="evenodd"/></g></svg>