<svg xmlns="http://www.w3.org/2000/svg" width="102.651" height="29.427" viewBox="0 0 102.651 29.427"><g transform="translate(-83 -675)"><g transform="translate(83 675)"><g transform="translate(0 0)"><g transform="translate(35.082 1.142)"><path d="M124.27,60.9a3.445,3.445,0,0,0-1.427-.208h-2.722v3.464h2.569a3.639,3.639,0,0,0,1.6-.266,1.617,1.617,0,0,0,.914-1.561,1.515,1.515,0,0,0-.934-1.43m-.664-5.2a2.7,2.7,0,0,0-1.181-.209h-2.3v3.274h2.17a2.768,2.768,0,0,0,1.407-.287,1.618,1.618,0,0,0-.093-2.779M117.97,66.1V53.553h4.605a4.963,4.963,0,0,1,2.17.4,3.134,3.134,0,0,1,1.846,2.836,2.835,2.835,0,0,1-1.5,2.627v.038a2.753,2.753,0,0,1,2.322,2.854,3.6,3.6,0,0,1-2.779,3.522,8.033,8.033,0,0,1-2.4.266Z" transform="translate(-117.97 -53.548)" fill="#555"/></g><rect width="2.15" height="12.543" transform="translate(56.896 1.146)" fill="#555"/><rect width="2.149" height="12.543" transform="translate(72.368 1.146)" fill="#555"/><g transform="translate(76.48 1.032)"><path d="M243.939,53.226a8.587,8.587,0,0,1,3.482.7l-.036,2.056a7.705,7.705,0,0,0-3.5-.877c-1.178,0-2.188.364-2.188,1.353,0,2.569,6.454,1.541,6.454,5.784,0,2.342-1.98,3.824-4.856,3.824a7.913,7.913,0,0,1-4.243-1.12l.893-1.751a6.6,6.6,0,0,0,3.427.989c1.3,0,2.494-.5,2.494-1.637,0-2.686-6.395-1.5-6.395-5.787,0-2.285,1.825-3.54,4.471-3.54" transform="translate(-239.049 -53.225)" fill="#555"/></g><path d="M279.257,53.556h2.15V66.1h-2.15v-5.4h-6.091V66.1h-2.15V53.556h2.15V58.7h6.091Z" transform="translate(-183.666 -52.41)" fill="#555"/><g transform="translate(33.349 15.624)"><path d="M120.537,96.259a8.123,8.123,0,0,1,3.484.742l-.648,1.828a5.754,5.754,0,0,0-2.608-.626c-2.38,0-3.863,2.015-3.863,4.471,0,2.476,1.388,4.492,3.863,4.492a5.7,5.7,0,0,0,2.608-.629l.648,1.83a8.112,8.112,0,0,1-3.484.74c-3.751,0-5.9-2.626-5.9-6.394,0-3.52,2.149-6.453,5.9-6.453" transform="translate(-114.637 -96.258)" fill="#555"/><path d="M256.808,96.259A8.1,8.1,0,0,1,260.29,97l-.646,1.828a5.765,5.765,0,0,0-2.608-.627c-2.379,0-3.863,2.015-3.863,4.471,0,2.476,1.39,4.492,3.863,4.492a5.7,5.7,0,0,0,2.608-.629l.646,1.83a8.092,8.092,0,0,1-3.482.74c-3.751,0-5.9-2.626-5.9-6.394,0-3.52,2.15-6.453,5.9-6.453" transform="translate(-203.851 -96.258)" fill="#555"/><path d="M152.628,102.673c0-2.739-1.559-4.49-3.675-4.49s-3.675,1.751-3.675,4.51c0,2.743,1.562,4.492,3.675,4.492s3.675-1.748,3.675-4.511m2.266-.04c0,3.771-2.4,6.472-5.938,6.472-3.577,0-5.938-2.608-5.938-6.374s2.4-6.472,5.938-6.472c3.58,0,5.938,2.608,5.938,6.374" transform="translate(-133.218 -96.259)" fill="#555"/><path d="M181.621,104.413V96.592h2.15v7.9c0,2.092,1.126,2.874,2.912,2.874,1.828,0,2.913-.782,2.913-2.874v-7.9h2.15v7.821c0,3.409-1.943,4.911-5.1,4.911-3.1,0-5.027-1.5-5.027-4.911" transform="translate(-158.491 -96.476)" fill="#555"/><path d="M218.612,100h-.038c.038.415.059,1.083.059,1.675v7.459h-2.15V96.6H218.8l5.821,8.544h.04c-.04-.419-.059-1.086-.059-1.677V96.6h2.149v12.54h-1.9l-6.242-9.133Z" transform="translate(-181.313 -96.481)" fill="#555"/></g><rect width="2.147" height="12.543" transform="translate(91.478 15.74)" fill="#555"/><path d="M297.033,107.191h4.909v1.943h-7.06V96.592h2.15Z" transform="translate(-199.292 -80.852)" fill="#555"/><path d="M192.629,53.563v1.96h4.013V66.1h2.15V55.523h4.016v-1.96Z" transform="translate(-132.026 -52.414)" fill="#555"/><path d="M153.943,55.5h-2.227v3.808h2.134c1.541,0,2.265-.8,2.265-1.942,0-1.028-.666-1.865-2.169-1.865m2.834,10.6c-1.826-3.786-2.3-4.853-3.063-4.853h-2v4.853h-2.149V53.565h4.242c3.234,0,4.473,1.713,4.473,3.615a3.2,3.2,0,0,1-2.322,3.214v.021c.57.324,1.178,1.5,3.272,5.69Z" transform="translate(-103.683 -52.416)" fill="#555"/><path d="M29.7,57.406a7.172,7.172,0,1,1-7.172-7.172A7.172,7.172,0,0,1,29.7,57.406" transform="translate(-15.353 -50.234)" fill="#555"/><path d="M74.15,57.406a7.172,7.172,0,1,1-7.172-7.172,7.172,7.172,0,0,1,7.172,7.172" transform="translate(-44.457 -50.234)" fill="#555"/><path d="M29.7,101.862a7.172,7.172,0,1,1-7.172-7.172,7.172,7.172,0,0,1,7.172,7.172" transform="translate(-15.353 -79.606)" fill="#555"/><path d="M74.15,101.862a7.172,7.172,0,1,1-7.172-7.172,7.172,7.172,0,0,1,7.172,7.172" transform="translate(-44.457 -79.606)" fill="#555"/></g></g></g></svg>