<svg xmlns="http://www.w3.org/2000/svg" width="80.732" height="54.091" viewBox="0 0 80.732 54.091"><path d="M11.638,48.691a.687.687,0,0,0-.039.087,6.162,6.162,0,0,1-5.428,3.312,6.348,6.348,0,0,1,0-12.691,6.152,6.152,0,0,1,5.438,3.371.6.6,0,0,1,.068.116c.01.01-1.97,1.439-1.99,1.41a.187.187,0,0,0-.038-.087,3.668,3.668,0,0,0-3.477-2.337,3.884,3.884,0,0,0,0,7.765A3.788,3.788,0,0,0,9.59,47.4a1.3,1.3,0,0,0,.058-.126l1.989,1.42ZM14.2,39.516h2.376V43.95h6.239V39.516h2.395V51.85H22.812V46.431H16.573V51.85H14.2ZM58.741,51.85V39.516h8.625v2.492h-6.22v2.463h5.747v2.463H61.145V49.4h7.1V51.85Zm12.874,0V39.516h2.414V49.4h6.7V51.85H71.615Zm-25.836,0H43.365V39.516h3.351L52,46.933V39.516h2.4V51.85H52.482l-6.7-9.3Zm-11.5-9.842-2.105,4.926h4.307l-2.2-4.926ZM31.089,49.4l-1.1,2.454H27.129L32.6,39.516h3.342L41.442,51.85H38.583L37.473,49.4H31.089ZM41.607,32.362a17.991,17.991,0,0,1-8.991,2.388,18.407,18.407,0,0,1-15.873-9.144c0-.025-.025-.025-.025-.051s-.026-.025-.026-.051l2.591-1.346,2.591-1.321a.34.34,0,0,1,.077.1,12.536,12.536,0,0,0,10.666,5.968,13.239,13.239,0,0,0,4.09-.661,18.033,18.033,0,0,1-4.445-11.886A18.229,18.229,0,0,1,36.655,4.476a12.371,12.371,0,0,0-4.039-.66A12.592,12.592,0,0,0,21.8,10.038a.093.093,0,0,0-.026.076L16.566,7.423a.6.6,0,0,1,.075-.128A18.407,18.407,0,0,1,32.616-2,17.74,17.74,0,0,1,41.607.413,17.737,17.737,0,0,1,50.6-2,18.406,18.406,0,0,1,66.571,7.3a.6.6,0,0,1,.076.128l-5.206,2.691a.094.094,0,0,0-.025-.076A12.591,12.591,0,0,0,50.6,3.816a12.368,12.368,0,0,0-4.038.66,18.231,18.231,0,0,1,4.394,11.886,18.034,18.034,0,0,1-4.445,11.886,13.245,13.245,0,0,0,4.089.661A12.536,12.536,0,0,0,61.264,22.94a.354.354,0,0,1,.076-.1l2.59,1.321L66.521,25.5c0,.025-.025.025-.025.051s-.025.026-.025.051A18.407,18.407,0,0,1,50.6,34.75a17.988,17.988,0,0,1-8.99-2.388Zm0-7.289a12.706,12.706,0,0,1-3.5-8.712,12.219,12.219,0,0,1,3.5-8.609,12.219,12.219,0,0,1,3.5,8.609,12.712,12.712,0,0,1-3.5,8.712Z" transform="translate(0 2)" fill="#161413" fill-rule="evenodd"/></svg>