<svg xmlns="http://www.w3.org/2000/svg" width="29.584" height="23.369" viewBox="0 0 29.584 23.369"><path d="M54.318-345.775a4.153,4.153,0,0,0-2.879,2.936,19.616,19.616,0,0,0-.083,3.552c.021,3.071.028,3.139.187,3.606a7.691,7.691,0,0,0,.394.92,5.94,5.94,0,0,0,1.135,1.482c.09,0,.09.189-.014.825l-.076.528H50.408l-.609-.6c-.907-.893-.879-.771-.879-3.728v-2.422l-.173-.257-.18-.25.152-.419a3.373,3.373,0,0,0-2.194-4.37,3.657,3.657,0,0,0-2.865.338,3.336,3.336,0,0,0-1.426,4.025c.159.426.159.44.035.548a.852.852,0,0,0-.2.359c-.042.142-.069,1.414-.069,3.126,0,3.139.042,3.586.388,4.539.484,1.306.74,1.637,3.08,3.944l2.062,2.03.021.927c.021,1,.062,1.123.5,1.434.187.142.215.142,8.761.142s8.574,0,8.761-.142c.436-.318.478-.433.5-1.434l.021-.927,2.035-2c2.159-2.124,2.512-2.55,2.934-3.552.526-1.231.519-1.184.526-4.844v-3.288l-.18-.223-.173-.223.166-.446a2.627,2.627,0,0,0,.18-1.089,3.126,3.126,0,0,0-1.045-2.456,3.487,3.487,0,0,0-5.481.934,3.446,3.446,0,0,0-.145,2.659l.152.433-.159.169-.166.169-.035,2.578c-.028,2.293-.048,2.618-.159,2.855a4.66,4.66,0,0,1-.727.859l-.6.6H60.636l-.076-.528c-.1-.622-.1-.825-.021-.825a6.027,6.027,0,0,0,1.142-1.482,7.69,7.69,0,0,0,.394-.92l.166-.474.021-4.533c.014-4.438.014-4.539-.125-4.756a1.26,1.26,0,0,0-.36-.352c-.221-.129-.353-.135-3.585-.129C54.934-345.924,54.823-345.918,54.318-345.775Zm5.882,2.889v1.015H53.418v-.2a1.9,1.9,0,0,1,.657-1.279c.609-.535.6-.535,3.55-.541L60.2-343.9Zm-14.117.913a1.337,1.337,0,0,1,.3,2.212,1.2,1.2,0,0,1-.927.325,1.325,1.325,0,0,1-.81-2.395A1.451,1.451,0,0,1,46.083-341.973Zm22.678.014a1.451,1.451,0,0,1,.782,1.211,1.492,1.492,0,0,1-.775,1.184,1.448,1.448,0,0,1-1.419-.115,1.249,1.249,0,0,1-.561-1.15A1.345,1.345,0,0,1,68.761-341.96Zm-8.56,3.694c0,1.7-.042,1.955-.394,2.652a4.137,4.137,0,0,1-1.37,1.339,3.58,3.58,0,0,1-3.253,0,4.137,4.137,0,0,1-1.37-1.339c-.353-.7-.394-.954-.394-2.652v-1.576H60.2Zm-13.342,2.9c.028,2,.028,2.063.2,2.5a5.934,5.934,0,0,0,.374.778,14.345,14.345,0,0,0,2.055,2.1,6.562,6.562,0,0,0,1.806.095h1.619l.18.453a4.053,4.053,0,0,0,5.37,2.111,4.008,4.008,0,0,0,2.062-2.111l.18-.453h1.619a6.562,6.562,0,0,0,1.806-.095,14.345,14.345,0,0,0,2.055-2.1,5.933,5.933,0,0,0,.374-.778c.173-.433.173-.494.2-2.5l.028-2.043,1.356.014,1.363.02.021,2.334c.021,2.638-.021,2.916-.519,3.917-.235.48-.415.677-2.519,2.747-1.239,1.224-2.311,2.327-2.374,2.449a1.9,1.9,0,0,0-.111.8v.575H49.612v-.575a1.9,1.9,0,0,0-.111-.8c-.062-.122-1.135-1.224-2.381-2.449-2.125-2.09-2.284-2.266-2.519-2.747-.491-1.008-.526-1.279-.526-3.883,0-1.272.021-2.334.048-2.354a10.455,10.455,0,0,1,1.377-.047H46.83Zm8.809,3.4a6.679,6.679,0,0,0,2.291-.007,3.424,3.424,0,0,1,.547-.081,6.28,6.28,0,0,1,.138.677,1.7,1.7,0,0,1,.007,1.015,2.043,2.043,0,0,1-.927,1.123,1.413,1.413,0,0,1-.913.183,1.413,1.413,0,0,1-.913-.183,2.043,2.043,0,0,1-.927-1.123,1.66,1.66,0,0,1,0-.988c.062-.352.111-.649.111-.676C55.079-332.083,55.121-332.076,55.668-331.961Z" transform="translate(-42 345.926)" fill="#ffbc05"/></svg>