<svg xmlns="http://www.w3.org/2000/svg" width="49.396" height="38.444" viewBox="0 0 49.396 38.444"><g transform="translate(1.15 0.566)"><g transform="translate(0)"><path d="M23.548,22.755,0,12.46,23.548,0,47.1,12.46ZM4.293,12.3l19.255,8.4L42.8,12.3,23.548,2.109Z" fill="#ffbc05" stroke="#ffbc05" stroke-width="1"/><path d="M4.833,28.538A.933.933,0,0,1,3.9,27.6V14.743a.933.933,0,1,1,1.867,0V27.6A.933.933,0,0,1,4.833,28.538Z" transform="translate(-0.26 -0.921)" fill="#ffbc05" stroke="#ffbc05" stroke-width="1"/><path d="M24.156,38.757,9.12,32.224V21.36l15.036,6.533L39.192,21.36V32.224Zm-13.169-7.8,13.169,5.759,13.169-5.759V24.207L24.156,29.975,10.987,24.207Z" transform="translate(-0.608 -1.424)" fill="#ffbc05" stroke="#ffbc05" stroke-width="1"/></g></g></svg>