<svg xmlns="http://www.w3.org/2000/svg" width="111.843" height="23.739" viewBox="0 0 111.843 23.739"><path d="M393.306,11.58l-1.449-3.14-2.948-6.393h0l-.2-.426h0a2.23,2.23,0,0,0-3.831.024l-.178.386h0L381.74,8.44l-1.451,3.149-.159.343-3.45,7.477h.014a4.773,4.773,0,0,0,4.262-2.6l.142-.31.883-1.915h9.632l.807,1.752h0l.277.6h0a4.761,4.761,0,0,0,4.184,2.477h.035Zm-10.1.353.073-.161,3.159-6.857.362-.786.376.786L388.32,7.4l2,4.383.073.161Z" transform="translate(-287.493 -0.416)" fill="#fff"/><path d="M460.241,67.013a1.47,1.47,0,0,1-.5-.289,1.383,1.383,0,0,1-.339-.447,1.214,1.214,0,0,1,0-1.075,1.318,1.318,0,0,1,.343-.438,1.674,1.674,0,0,1,.495-.286,1.79,1.79,0,0,1,.59-.1,1.7,1.7,0,0,1,.6.1,1.608,1.608,0,0,1,.492.282,1.471,1.471,0,0,1,.336.438,1.274,1.274,0,0,1-.09,1.243,1.494,1.494,0,0,1-.568.49,1.707,1.707,0,0,1-.767.18A1.657,1.657,0,0,1,460.241,67.013Zm-.474-.689a1.108,1.108,0,0,0,.452.414,1.4,1.4,0,0,0,1.25,0,1.146,1.146,0,0,0,.452-.417,1.1,1.1,0,0,0,.161-.58,1.127,1.127,0,0,0-.092-.445,1.184,1.184,0,0,0-.263-.367,1.141,1.141,0,0,0-.4-.237,1.335,1.335,0,0,0-.485-.088,1.435,1.435,0,0,0-.474.083,1.31,1.31,0,0,0-.4.237,1.057,1.057,0,0,0-.282.367,1.021,1.021,0,0,0-.069.215,1.062,1.062,0,0,0-.026.237,1.1,1.1,0,0,0,.163.58Zm.755.206h-.268V64.955h.68a.829.829,0,0,1,.459.1.393.393,0,0,1,.154.341.384.384,0,0,1-.123.308.639.639,0,0,1-.327.13l.5.691h-.3l-.474-.684h-.305Zm.322-.883a.836.836,0,0,0,.315-.05.2.2,0,0,0,.114-.211c0-.154-.13-.237-.388-.237h-.362v.492Z" transform="translate(-350.536 -49.136)" fill="#fff"/><path d="M364.979,3.3V19.283a2.787,2.787,0,0,1-2.8-2.794V.51a2.787,2.787,0,0,1,2.8,2.787Z" transform="translate(-276.426 -0.389)" fill="#fff"/><path d="M295.109.6a2.765,2.765,0,0,1-2.763,2.763h-5.808V19.331a2.784,2.784,0,0,1-2.787-2.773V3.363h-5.808A2.765,2.765,0,0,1,275.18.6Z" transform="translate(-210.026 -0.458)" fill="#fff"/><path d="M248.179,29.361a7.1,7.1,0,0,1-7.366,6.8,7.891,7.891,0,0,1-2.4-.369,2.877,2.877,0,0,1-1.139-3.9,4.847,4.847,0,0,0,3.552,1.487,4.339,4.339,0,0,0,4.591-4.025,4.631,4.631,0,0,0-9.182,0v8.834a2.792,2.792,0,0,1-2.8,2.787v-11.6a6.064,6.064,0,0,1,.038-.691,7.169,7.169,0,0,1,7.326-6.1A7.094,7.094,0,0,1,248.179,29.361Z" transform="translate(-178.168 -17.226)" fill="#fff"/><path d="M167.8,27.794v8.256a2.792,2.792,0,0,1-2.8-2.784V27.794a2.593,2.593,0,1,0-5.183,0v1.118h.012v7.139a2.792,2.792,0,0,1-2.8-2.784V27.593a2.593,2.593,0,0,0-5.176.2v1.118h0v4.354a2.792,2.792,0,0,1-2.8,2.784V27.794a5.377,5.377,0,0,1,9.355-3.62,5.391,5.391,0,0,1,9.388,3.62Z" transform="translate(-113.759 -17.097)" fill="#fff"/><path d="M89.737,22.56c-4.191,0-7.577,3.04-7.577,6.788s3.393,6.791,7.577,6.791,7.577-3.04,7.577-6.791S93.925,22.56,89.737,22.56Zm.069,10.828c-2.649,0-4.8-1.811-4.8-4.044s2.148-4.044,4.8-4.044,4.8,1.809,4.8,4.044S92.455,33.388,89.805,33.388Z" transform="translate(-62.707 -17.218)" fill="#fff"/><path d="M19.351,14.479a10.721,10.721,0,0,1-8.9,4.5C4.683,18.975,0,14.727,0,9.487S4.683,0,10.456,0A10.542,10.542,0,0,1,20,5.6a2.792,2.792,0,0,1-3.573-.315l-.121-.125a8.1,8.1,0,0,0-5.867-2.41c-4.245,0-7.688,3.05-7.688,6.812s3.443,6.814,7.688,6.814a8.183,8.183,0,0,0,5.484-2.036h0a2.789,2.789,0,0,1,3.428.137Z" fill="#fff"/></svg>