<?xml version="1.0" encoding="UTF-8"?>
<svg xmlns="http://www.w3.org/2000/svg" xmlns:xlink="http://www.w3.org/1999/xlink" width="143px" height="31px" viewBox="0 0 146 31" version="1.1">
<g id="surface1">
<path style=" stroke:none;fill-rule:nonzero;fill:rgb(33.333333%,33.333333%,33.333333%);fill-opacity:1;" d="M 138.011719 14.578125 L 136.121094 10.480469 L 132.28125 2.128906 L 132.023438 1.574219 C 131.496094 0.695312 130.542969 0.164062 129.519531 0.167969 C 128.496094 0.175781 127.550781 0.71875 127.03125 1.605469 L 126.800781 2.109375 L 122.9375 10.480469 L 121.046875 14.589844 L 120.839844 15.039062 L 116.34375 24.804688 L 116.363281 24.804688 C 118.707031 24.808594 120.851562 23.492188 121.917969 21.402344 L 122.101562 20.996094 L 123.253906 18.496094 L 135.804688 18.496094 L 136.855469 20.785156 L 137.21875 21.570312 C 138.304688 23.566406 140.398438 24.808594 142.667969 24.804688 L 142.714844 24.804688 Z M 124.84375 15.039062 L 124.941406 14.828125 L 129.054688 5.875 L 129.527344 4.847656 L 130.019531 5.875 L 131.511719 9.117188 L 134.121094 14.839844 L 134.214844 15.050781 Z M 124.84375 15.039062 "/>
<path style=" stroke:none;fill-rule:nonzero;fill:rgb(33.333333%,33.333333%,33.333333%);fill-opacity:1;" d="M 143.082031 23.34375 C 142.84375 23.261719 142.621094 23.132812 142.433594 22.96875 C 142.25 22.804688 142.097656 22.605469 141.992188 22.382812 C 141.882812 22.164062 141.828125 21.925781 141.828125 21.683594 C 141.828125 21.4375 141.882812 21.199219 141.992188 20.980469 C 142.097656 20.757812 142.253906 20.5625 142.441406 20.40625 C 142.632812 20.246094 142.851562 20.121094 143.085938 20.03125 C 143.332031 19.949219 143.589844 19.90625 143.851562 19.90625 C 144.117188 19.902344 144.382812 19.949219 144.628906 20.039062 C 144.863281 20.121094 145.082031 20.246094 145.273438 20.40625 C 145.453125 20.566406 145.601562 20.761719 145.710938 20.980469 C 145.957031 21.503906 145.910156 22.117188 145.59375 22.601562 C 145.40625 22.875 145.148438 23.09375 144.851562 23.242188 C 144.542969 23.398438 144.199219 23.476562 143.851562 23.476562 C 143.589844 23.480469 143.328125 23.433594 143.082031 23.34375 Z M 142.464844 22.445312 C 142.605469 22.675781 142.8125 22.863281 143.054688 22.984375 C 143.304688 23.113281 143.585938 23.179688 143.867188 23.175781 C 144.152344 23.179688 144.429688 23.117188 144.683594 22.984375 C 144.925781 22.863281 145.128906 22.671875 145.273438 22.441406 C 145.410156 22.214844 145.484375 21.949219 145.480469 21.683594 C 145.480469 21.484375 145.441406 21.285156 145.363281 21.101562 C 145.28125 20.921875 145.164062 20.757812 145.019531 20.625 C 144.871094 20.484375 144.691406 20.378906 144.5 20.3125 C 144.300781 20.238281 144.085938 20.199219 143.867188 20.199219 C 143.660156 20.199219 143.449219 20.238281 143.25 20.308594 C 143.058594 20.378906 142.882812 20.484375 142.726562 20.617188 C 142.570312 20.746094 142.445312 20.910156 142.359375 21.097656 C 142.320312 21.1875 142.289062 21.28125 142.269531 21.378906 C 142.246094 21.480469 142.234375 21.582031 142.238281 21.6875 C 142.234375 21.953125 142.308594 22.21875 142.449219 22.445312 Z M 143.449219 22.714844 L 143.101562 22.714844 L 143.101562 20.65625 L 143.984375 20.65625 C 144.195312 20.644531 144.402344 20.691406 144.585938 20.792969 C 144.722656 20.898438 144.796875 21.066406 144.785156 21.238281 C 144.792969 21.390625 144.734375 21.539062 144.625 21.640625 C 144.5 21.734375 144.355469 21.796875 144.199219 21.8125 L 144.847656 22.714844 L 144.453125 22.714844 L 143.835938 21.820312 L 143.4375 21.820312 Z M 143.867188 21.558594 C 144.007812 21.566406 144.148438 21.542969 144.277344 21.496094 C 144.382812 21.445312 144.441406 21.335938 144.425781 21.21875 C 144.425781 21.019531 144.257812 20.910156 143.921875 20.910156 L 143.449219 20.910156 L 143.449219 21.554688 Z M 143.867188 21.558594 "/>
<path style=" stroke:none;fill-rule:nonzero;fill:rgb(33.333333%,33.333333%,33.333333%);fill-opacity:1;" d="M 115.519531 3.796875 L 115.519531 24.675781 C 114.550781 24.679688 113.621094 24.296875 112.9375 23.609375 C 112.253906 22.925781 111.871094 21.996094 111.871094 21.023438 L 111.871094 0.15625 C 112.835938 0.152344 113.765625 0.535156 114.449219 1.21875 C 115.132812 1.902344 115.519531 2.828125 115.519531 3.796875 Z M 115.519531 3.796875 "/>
<path style=" stroke:none;fill-rule:nonzero;fill:rgb(33.333333%,33.333333%,33.333333%);fill-opacity:1;" d="M 111 0.183594 C 110.996094 2.175781 109.386719 3.792969 107.398438 3.792969 L 99.832031 3.792969 L 99.832031 24.644531 C 97.832031 24.648438 96.207031 23.027344 96.199219 21.023438 L 96.199219 3.792969 L 88.632812 3.792969 C 86.644531 3.792969 85.03125 2.175781 85.03125 0.183594 Z M 111 0.183594 "/>
<path style=" stroke:none;fill-rule:nonzero;fill:rgb(33.333333%,33.333333%,33.333333%);fill-opacity:1;" d="M 91.359375 15.847656 C 91.359375 20.746094 87.0625 24.71875 81.761719 24.71875 C 80.699219 24.722656 79.648438 24.558594 78.636719 24.238281 C 76.824219 23.238281 76.160156 20.957031 77.152344 19.140625 C 78.363281 20.398438 80.039062 21.101562 81.78125 21.082031 C 85.082031 21.082031 87.765625 18.726562 87.765625 15.824219 C 87.765625 12.925781 85.082031 10.566406 81.78125 10.566406 C 78.480469 10.566406 75.800781 12.925781 75.800781 15.824219 L 75.800781 27.359375 C 75.796875 29.375 74.164062 31.003906 72.152344 31 L 72.152344 15.847656 C 72.152344 15.546875 72.167969 15.246094 72.203125 14.945312 C 72.691406 10.46875 76.78125 6.980469 81.75 6.980469 C 87.0625 6.976562 91.359375 10.945312 91.359375 15.847656 Z M 91.359375 15.847656 "/>
<path style=" stroke:none;fill-rule:nonzero;fill:rgb(33.333333%,33.333333%,33.333333%);fill-opacity:1;" d="M 70.542969 13.96875 L 70.542969 24.75 C 68.53125 24.757812 66.898438 23.128906 66.894531 21.113281 L 66.894531 13.96875 C 66.929688 12.734375 66.292969 11.578125 65.234375 10.953125 C 64.175781 10.324219 62.859375 10.324219 61.796875 10.953125 C 60.738281 11.578125 60.101562 12.734375 60.140625 13.96875 L 60.140625 15.429688 L 60.15625 15.429688 L 60.15625 24.75 C 58.144531 24.757812 56.511719 23.128906 56.507812 21.113281 L 56.507812 13.488281 C 56.507812 13.558594 56.507812 13.632812 56.507812 13.707031 C 56.355469 11.902344 54.8125 10.542969 53.011719 10.613281 C 51.207031 10.683594 49.777344 12.160156 49.765625 13.96875 L 49.765625 21.113281 C 49.757812 23.128906 48.125 24.757812 46.117188 24.75 L 46.117188 13.96875 C 46.117188 11.066406 47.894531 8.464844 50.59375 7.417969 C 53.292969 6.371094 56.359375 7.09375 58.308594 9.242188 C 60.257812 7.082031 63.332031 6.351562 66.042969 7.398438 C 68.753906 8.445312 70.539062 11.058594 70.539062 13.96875 Z M 70.542969 13.96875 "/>
<path style=" stroke:none;fill-rule:nonzero;fill:rgb(33.333333%,33.333333%,33.333333%);fill-opacity:1;" d="M 35.351562 6.976562 C 29.890625 6.976562 25.480469 10.945312 25.480469 15.839844 C 25.480469 20.734375 29.902344 24.707031 35.351562 24.707031 C 40.804688 24.707031 45.226562 20.738281 45.226562 15.839844 C 45.226562 10.941406 40.8125 6.976562 35.351562 6.976562 Z M 35.441406 21.113281 C 31.988281 21.113281 29.191406 18.75 29.191406 15.832031 C 29.191406 12.917969 31.988281 10.554688 35.441406 10.554688 C 38.894531 10.554688 41.691406 12.914062 41.691406 15.832031 C 41.691406 18.753906 38.894531 21.113281 35.441406 21.113281 Z M 35.441406 21.113281 "/>
<path style=" stroke:none;fill-rule:nonzero;fill:rgb(33.333333%,33.333333%,33.333333%);fill-opacity:1;" d="M 25.347656 18.90625 C 22.949219 22.433594 18.652344 24.78125 13.757812 24.78125 C 6.234375 24.777344 0.132812 19.230469 0.132812 12.390625 C 0.132812 5.546875 6.234375 0 13.757812 0 C 19.308594 0 24.0625 3.003906 26.191406 7.316406 C 24.746094 8.328125 22.785156 8.15625 21.539062 6.90625 L 21.378906 6.742188 C 19.363281 4.691406 16.605469 3.554688 13.734375 3.59375 C 8.203125 3.59375 3.71875 7.574219 3.71875 12.488281 C 3.71875 17.402344 8.203125 21.386719 13.734375 21.386719 C 16.363281 21.414062 18.90625 20.464844 20.878906 18.726562 C 22.234375 17.753906 24.074219 17.828125 25.347656 18.90625 Z M 25.347656 18.90625 "/>
</g>
</svg>
