<svg xmlns="http://www.w3.org/2000/svg" width="30.201" height="37.93" viewBox="0 0 30.201 37.93"><g transform="translate(1.25 1.25)"><g transform="translate(0)"><path d="M18.967.5H14.3V14.873l4.667-3.239,4.667,3.239V.5Z" transform="translate(-1.42 -0.5)" fill="none" stroke="#ffbc05" stroke-miterlimit="10" stroke-width="2.5"/><path d="M5.829.5A5.264,5.264,0,0,0,.5,5.7V31.767h0a4.377,4.377,0,0,1,4.424-4.219H28.2V.5Z" transform="translate(-0.5 -0.5)" fill="none" stroke="#ffbc05" stroke-miterlimit="10" stroke-width="2.5"/><path d="M4.821,29.46H28.2v8.4H4.607A4.107,4.107,0,0,1,.5,33.79h0a4.321,4.321,0,0,1,4.321-4.321Z" transform="translate(-0.5 -2.43)" fill="none" stroke="#ffbc05" stroke-miterlimit="10" stroke-width="2.5"/></g></g></svg>