<svg xmlns="http://www.w3.org/2000/svg" width="202.667" height="43.016" viewBox="0 0 202.667 43.016"><path d="M406.807,20.541l-2.626-5.689L398.84,3.268h0l-.356-.772h0a4.042,4.042,0,0,0-6.942.043l-.322.7h0l-5.372,11.614-2.63,5.706-.287.622L376.68,34.729h.026a8.65,8.65,0,0,0,7.723-4.719l.257-.562,1.6-3.471H403.74l1.463,3.175h0l.5,1.09h0a8.628,8.628,0,0,0,7.581,4.488h.064ZM388.5,21.18l.133-.292,5.723-12.425.656-1.424.682,1.424,2.077,4.5,3.625,7.942.133.292Z" transform="translate(-215.068 -0.311)" fill="#eb1e25"/><path d="M461.022,69.151a2.665,2.665,0,0,1-.9-.523,2.507,2.507,0,0,1-.614-.811,2.2,2.2,0,0,1,0-1.948,2.386,2.386,0,0,1,.622-.794,3.035,3.035,0,0,1,.9-.519,3.244,3.244,0,0,1,1.068-.176,3.076,3.076,0,0,1,1.081.184,2.912,2.912,0,0,1,.892.511,2.665,2.665,0,0,1,.609.794,2.308,2.308,0,0,1-.163,2.252,2.708,2.708,0,0,1-1.03.888,3.093,3.093,0,0,1-1.39.326A3,3,0,0,1,461.022,69.151Zm-.858-1.249a2.008,2.008,0,0,0,.819.751,2.544,2.544,0,0,0,2.265,0,2.077,2.077,0,0,0,.82-.755,2,2,0,0,0,.292-1.051,2.043,2.043,0,0,0-.167-.807,2.145,2.145,0,0,0-.476-.665,2.068,2.068,0,0,0-.721-.429,2.419,2.419,0,0,0-.88-.159,2.6,2.6,0,0,0-.858.15,2.373,2.373,0,0,0-.729.429,1.913,1.913,0,0,0-.511.665,1.849,1.849,0,0,0-.124.39,1.921,1.921,0,0,0-.047.429,1.985,1.985,0,0,0,.3,1.051Zm1.369.373h-.485V65.422h1.231a1.5,1.5,0,0,1,.832.189.712.712,0,0,1,.279.618.7.7,0,0,1-.223.558,1.159,1.159,0,0,1-.592.236l.9,1.253h-.549l-.858-1.24h-.553Zm.583-1.6a1.515,1.515,0,0,0,.571-.09.365.365,0,0,0,.206-.382c0-.279-.236-.429-.7-.429h-.656v.892Z" transform="translate(-262.229 -36.758)" fill="#eb1e25"/><path d="M367.251,5.56V34.529a5.05,5.05,0,0,1-5.071-5.063V.51a5.05,5.05,0,0,1,5.071,5.05Z" transform="translate(-206.789 -0.291)" fill="#eb1e25"/><path d="M311.293.6a5.011,5.011,0,0,1-5.007,5.007H295.761V34.542a5.046,5.046,0,0,1-5.05-5.024V5.607H280.187A5.011,5.011,0,0,1,275.18.6Z" transform="translate(-157.116 -0.343)" fill="#eb1e25"/><path d="M260.148,34.875c0,6.8-5.972,12.314-13.347,12.314a14.3,14.3,0,0,1-4.342-.669,5.213,5.213,0,0,1-2.064-7.075,8.782,8.782,0,0,0,6.436,2.694c4.591,0,8.319-3.269,8.319-7.294s-3.728-7.294-8.319-7.294-8.319,3.269-8.319,7.294V50.852a5.058,5.058,0,0,1-5.071,5.05V34.879a10.973,10.973,0,0,1,.069-1.253c.682-6.213,6.367-11.056,13.275-11.056C254.176,22.566,260.148,28.075,260.148,34.875Z" transform="translate(-133.284 -12.887)" fill="#eb1e25"/><path d="M183.017,32.174V47.135a5.058,5.058,0,0,1-5.076-5.046V32.174a4.7,4.7,0,1,0-9.392,0V34.2h.021V47.135a5.058,5.058,0,0,1-5.071-5.046V31.809a4.7,4.7,0,0,0-9.379.365V34.2h0v7.89a5.058,5.058,0,0,1-5.071,5.046V32.174A9.744,9.744,0,0,1,166,25.614a9.769,9.769,0,0,1,17.012,6.56Z" transform="translate(-85.101 -12.79)" fill="#eb1e25"/><path d="M95.889,22.56c-7.594,0-13.729,5.509-13.729,12.3s6.148,12.3,13.729,12.3,13.729-5.509,13.729-12.3S103.479,22.56,95.889,22.56Zm.124,19.62c-4.8,0-8.692-3.282-8.692-7.328s3.891-7.328,8.692-7.328,8.692,3.278,8.692,7.328S100.815,42.18,96.014,42.18Z" transform="translate(-46.91 -12.881)" fill="#eb1e25"/><path d="M35.066,26.236a19.427,19.427,0,0,1-16.119,8.152C8.486,34.383,0,26.686,0,17.192S8.486,0,18.947,0c7.723,0,14.33,4.166,17.295,10.151a5.058,5.058,0,0,1-6.474-.571l-.219-.227A14.669,14.669,0,0,0,18.916,4.985c-7.693,0-13.931,5.526-13.931,12.344s6.238,12.348,13.931,12.348a14.828,14.828,0,0,0,9.937-3.69h0a5.054,5.054,0,0,1,6.213.249Z" fill="#eb1e25"/></svg>