<svg xmlns="http://www.w3.org/2000/svg" width="39" height="39" viewBox="0 0 39 39"><g transform="translate(0 0)"><path d="M38.665,6.8,32.2.335a1.143,1.143,0,0,0-1.616,0L28.97,1.951a3.433,3.433,0,0,0-.669,3.9L13.877,20.276h0A2.762,2.762,0,0,1,9.421,19.5l-.5-1.063a1.143,1.143,0,0,0-1.786-.374,33.712,33.712,0,0,0-3.372,3.457A17.143,17.143,0,0,0,.005,31.961a11.745,11.745,0,0,0,1.019,5.4,1.143,1.143,0,0,0,.617.617A11.367,11.367,0,0,0,6.658,39a17.2,17.2,0,0,0,10.826-3.762,33.578,33.578,0,0,0,3.457-3.373,1.143,1.143,0,0,0-.374-1.786l-1.063-.5a2.762,2.762,0,0,1-.779-4.457L33.147,10.7a3.433,3.433,0,0,0,3.9-.67l1.616-1.616a1.143,1.143,0,0,0,0-1.616ZM18.187,31.469a27.732,27.732,0,0,1-2.154,2h0a14.568,14.568,0,0,1-12.4,2.835c-.084-.026-.37-.138-.683-.265C1.569,32.647,2.3,26.9,5.528,22.968a27.871,27.871,0,0,1,2-2.154,5.051,5.051,0,0,0,7.061,1.792l1.8,1.8a5.051,5.051,0,0,0,1.793,7.061Zm-.27-8.77L16.3,21.084,29.778,7.607l1.616,1.616Zm15.9-14.285L30.586,5.183a1.144,1.144,0,0,1,0-1.616l.808-.808,4.847,4.847-.808.808a1.144,1.144,0,0,1-1.616,0Z" transform="translate(0)" fill="#ffb405"/></g></svg>