<svg xmlns="http://www.w3.org/2000/svg" width="20.795" height="16.339" viewBox="0 0 20.795 16.339"><g transform="translate(0 0)"><path d="M2,59.494q.395.258,2.379,1.535t3.04,1.965q.116.076.493.329t.627.409q.25.156.6.35a3.632,3.632,0,0,0,.667.29,1.967,1.967,0,0,0,.58.1h.023a1.969,1.969,0,0,0,.58-.1,3.635,3.635,0,0,0,.667-.29q.354-.194.6-.35t.627-.409q.377-.253.493-.329l5.431-3.5a5.327,5.327,0,0,0,1.416-1.325,2.707,2.707,0,0,0,.569-1.626,1.6,1.6,0,0,0-.551-1.217,1.865,1.865,0,0,0-1.305-.506H1.857a1.715,1.715,0,0,0-1.375.56A2.072,2.072,0,0,0,0,56.78a2.417,2.417,0,0,0,.638,1.47A5.583,5.583,0,0,0,2,59.494Z" transform="translate(0 -54.82)" fill="#19337a"/><path d="M19.634,185.447q-3.806,2.576-5.779,4-.661.487-1.073.76a6.625,6.625,0,0,1-1.1.557,3.339,3.339,0,0,1-1.276.284h-.023a3.341,3.341,0,0,1-1.276-.284,6.629,6.629,0,0,1-1.1-.557q-.412-.273-1.073-.76-1.567-1.149-5.767-4A6.147,6.147,0,0,1,0,184.437v9.214a1.787,1.787,0,0,0,.545,1.311,1.788,1.788,0,0,0,1.311.546H18.938a1.862,1.862,0,0,0,1.857-1.857v-9.214A6.4,6.4,0,0,1,19.634,185.447Z" transform="translate(0 -179.169)" fill="#19337a"/></g></svg>