<svg xmlns="http://www.w3.org/2000/svg" width="10.645" height="10.645" viewBox="0 0 10.645 10.645"><path d="M10.409,9.456a2,2,0,0,1-.923.8,2.868,2.868,0,0,1-1.405.386,5.57,5.57,0,0,1-1.983-.52,7.122,7.122,0,0,1-1.323-.627A12.751,12.751,0,0,1,1.15,5.865,7.144,7.144,0,0,1,.52,4.542,5.873,5.873,0,0,1,0,2.562,2.876,2.876,0,0,1,.386,1.154a2.05,2.05,0,0,1,.8-.92A3.331,3.331,0,0,1,2.238,0,.4.4,0,0,1,2.4.02c.159.055.326.425.4.575.244.43.49.868.726,1.293.121.2.348.438.348.674C3.87,3.022,2.5,3.7,2.5,4.1a1.644,1.644,0,0,0,.293.649,7.544,7.544,0,0,0,3.1,3.093,1.608,1.608,0,0,0,.652.3c.408,0,1.079-1.37,1.542-1.37.233,0,.474.227.671.348.425.249.863.485,1.293.726.151.077.523.241.575.4a.405.405,0,0,1,.022.159A3.386,3.386,0,0,1,10.409,9.456Z" transform="translate(0 0.003)" fill="#fff"/></svg>