<svg xmlns="http://www.w3.org/2000/svg" width="32.015" height="32.041" viewBox="0 0 32.015 32.041"><g transform="translate(-0.5 511.858)"><path d="M15.057-511.792a13.368,13.368,0,0,0-10.738,7.469A13.758,13.758,0,0,0,3-499.276c-.038.344-.05.363-.363.576a5.354,5.354,0,0,0-1.8,2.223A4.323,4.323,0,0,0,.5-494.586,4.323,4.323,0,0,0,.844-492.7a5.285,5.285,0,0,0,2.742,2.742,6.02,6.02,0,0,0,2.724.363l1.672.025V-499.6H5.54l.038-.269a10.9,10.9,0,0,1,5.879-8.3,10.8,10.8,0,0,1,4.6-1.177,11.16,11.16,0,0,1,6.668,1.866,12.586,12.586,0,0,1,2.9,2.893,11.388,11.388,0,0,1,1.791,4.721l.038.269H25.012v10.018h2.5v.707a3.687,3.687,0,0,1-1.127,2.924,3.382,3.382,0,0,1-1.728,1,9.775,9.775,0,0,1-2.554.119H20.034l-.213-.451a3.917,3.917,0,0,0-1.634-1.634,3.794,3.794,0,0,0-3.462.038,4.608,4.608,0,0,0-1.534,1.534,3.761,3.761,0,0,0-.326,2.673,3.408,3.408,0,0,0,1,1.728A3.593,3.593,0,0,0,17.28-479.9a3.831,3.831,0,0,0,2.542-1.947l.213-.451,2.348-.025a11.657,11.657,0,0,0,2.849-.163A6.5,6.5,0,0,0,28.894-485a7.7,7.7,0,0,0,.945-2.072,7.894,7.894,0,0,0,.163-1.86l.031-1.327.326-.213a5.082,5.082,0,0,0,2.148-4.389,5.007,5.007,0,0,0-2.154-3.838c-.313-.213-.326-.232-.363-.576a18.422,18.422,0,0,0-.407-2.555A13.4,13.4,0,0,0,15.057-511.792ZM5.478-494.58v2.517l-.326-.044a2.828,2.828,0,0,1-1.39-.67,2.66,2.66,0,0,1-.526-.733A1.722,1.722,0,0,1,3-494.58a1.747,1.747,0,0,1,.2-1.021,3.248,3.248,0,0,1,.451-.695,2.684,2.684,0,0,1,1.653-.789l.169-.006Zm23.084-2.26a2.379,2.379,0,0,1,1.2,1.177,1.732,1.732,0,0,1,.232,1.077,1.732,1.732,0,0,1-.232,1.077,2.66,2.66,0,0,1-.526.733,2.834,2.834,0,0,1-1.384.67l-.332.044v-5.046l.332.044A3.1,3.1,0,0,1,28.562-496.84ZM17.186-484.606a1.121,1.121,0,0,1,.532,1.039,1.126,1.126,0,0,1-.551,1.052,1.347,1.347,0,0,1-1.315.019,1.3,1.3,0,0,1-.551-1.434,1.4,1.4,0,0,1,.77-.82A1.518,1.518,0,0,1,17.186-484.606Z" fill="#feab04"/><path d="M156-350.991v5.009h3.224l1.515,1.515,1.521,1.521,1.521-1.521,1.515-1.515h3.224V-356H156Zm10.018,0v2.5h-1.784l-.983.983-.989.989-.989-.989-.983-.983H158.5V-353.5h7.513Z" transform="translate(-145.764 -146.099)" fill="#feab04"/></g></svg>