<svg xmlns="http://www.w3.org/2000/svg" width="44.779" height="49.841" viewBox="0 0 44.779 49.841"><g transform="translate(32.124 38.549)"><path d="M356.973,396a.973.973,0,1,0,.973.973A.974.974,0,0,0,356.973,396Z" transform="translate(-356 -396)" fill="#ffbc05"/></g><g transform="translate(0)"><path d="M61.494,35.4l-4.627-1.542-1.661-3.322a10.662,10.662,0,0,0,2.886-5.64l.207-1.242h1.772a2.924,2.924,0,0,0,2.92-2.92V14.6a14.6,14.6,0,1,0-29.2,0v6.133a2.925,2.925,0,0,0,1.947,2.753v1.141a2.924,2.924,0,0,0,2.92,2.92h.855a10.561,10.561,0,0,0,1.633,2.528c.138.158.282.312.429.462l-1.66,3.32L35.285,35.4C29.9,37.2,26,42.859,26,48.868a.973.973,0,0,0,.973.973H69.806a.973.973,0,0,0,.973-.973C70.779,42.859,66.874,37.2,61.494,35.4Zm-.45-14.666a.975.975,0,0,1-.973.973H58.585c.247-1.917.412-3.956.479-5.965,0-.057,0-.112.005-.167h1.975Zm-24.336.973a.975.975,0,0,1-.973-.973V15.575h1.976q0,.152.01.306v.01h0c.068,1.954.231,3.941.473,5.815H36.708ZM38.655,25.6a.975.975,0,0,1-.973-.973v-.973h.8l.207,1.242c.04.236.088.471.144.7Zm-.972-11.974H35.772a12.655,12.655,0,0,1,25.236,0H59.1a9.86,9.86,0,0,0-9.835-9.735H47.518A9.86,9.86,0,0,0,37.683,13.628Zm9.835-7.788h1.742a7.916,7.916,0,0,1,7.89,7.925c0,.306,0,.573-.008.816,0,0,0,.006,0,.01l-1.218-.174a15.642,15.642,0,0,1-8.794-4.4.974.974,0,0,0-.688-.285,8.807,8.807,0,0,0-6.771,3.2A7.913,7.913,0,0,1,47.518,5.841ZM40.849,25.6a55.642,55.642,0,0,1-1.168-9.448l1.31-1.747a6.852,6.852,0,0,1,5.067-2.715,17.608,17.608,0,0,0,9.592,4.652l1.433.2c-.1,2.033-.292,4.073-.572,5.95v0c-.089.6-.159.991-.339,2.076a8.269,8.269,0,0,1-5.869,6.65,7.659,7.659,0,0,1-8.6-3.678H43.69A2.925,2.925,0,0,0,46.443,29.5H48.39a2.92,2.92,0,1,0,0-5.841H46.443A2.922,2.922,0,0,0,43.688,25.6ZM46.361,33.2a9.764,9.764,0,0,0,3.621.082L48.261,35.1Zm.562,3.316-3.088,3.265a37.09,37.09,0,0,1-2.179-5.054L42.815,32.4ZM53.8,32.075l1.324,2.649a37.079,37.079,0,0,1-2.18,5.055l-3.3-3.3Zm-8.329-5.5a.974.974,0,0,1,.973-.973H48.39a.973.973,0,1,1,0,1.947H46.443A.975.975,0,0,1,45.469,26.575ZM27.986,47.894A12.3,12.3,0,0,1,35.9,37.248L40,35.883a39.023,39.023,0,0,0,2.771,6.01l.005.01h0a39.033,39.033,0,0,0,2.665,4.069l1.2,1.922Zm20.4-.868-1.32-2.12q-.022-.036-.047-.069a37.115,37.115,0,0,1-2.193-3.277L48.3,37.89l3.658,3.658a37.076,37.076,0,0,1-2.2,3.29C49.71,44.9,49.777,44.8,48.39,47.026Zm1.753.868,1.2-1.922a39.019,39.019,0,0,0,2.683-4.1l.014-.026,0,0a38.99,38.99,0,0,0,2.742-5.959l4.1,1.366a12.3,12.3,0,0,1,7.915,10.646Z" transform="translate(-26)" fill="#ffbc05"/></g><g transform="translate(35.545 40.407)"><path d="M395.462,418.636a9.733,9.733,0,0,0-2.756-3.345.973.973,0,0,0-1.187,1.543,7.774,7.774,0,0,1,2.2,2.672.974.974,0,0,0,1.742-.87Z" transform="translate(-391.139 -415.088)" fill="#ffbc05"/></g></svg>