<svg xmlns="http://www.w3.org/2000/svg" width="45" height="45" viewBox="0 0 45 45"><path d="M0,35.622v3.753C0,42.478,7.559,45,16.875,45S33.75,42.478,33.75,39.375V35.622c-3.63,2.558-10.266,3.753-16.875,3.753S3.63,38.18,0,35.622ZM28.125,11.25C37.441,11.25,45,8.728,45,5.625S37.441,0,28.125,0,11.25,2.522,11.25,5.625,18.809,11.25,28.125,11.25ZM0,26.4v4.535c0,3.1,7.559,5.625,16.875,5.625S33.75,34.04,33.75,30.937V26.4c-3.63,2.988-10.274,4.535-16.875,4.535S3.63,29.391,0,26.4Zm36.562.967C41.6,26.394,45,24.583,45,22.5V18.747a21.583,21.583,0,0,1-8.438,3.032ZM16.875,14.062C7.559,14.062,0,17.209,0,21.094s7.559,7.031,16.875,7.031S33.75,24.979,33.75,21.094,26.191,14.062,16.875,14.062Zm19.274,4.948C41.423,18.062,45,16.2,45,14.062V10.31c-3.12,2.206-8.481,3.393-14.124,3.674C33.469,15.24,35.376,16.928,36.149,19.011Z" fill="#546172"/></svg>