<svg xmlns="http://www.w3.org/2000/svg" xmlns:xlink="http://www.w3.org/1999/xlink" width="139.822" height="62.902" viewBox="0 0 139.822 62.902"><defs><linearGradient id="a" x1="-102.856" y1="6.392" x2="-104.924" y2="4.867" gradientUnits="objectBoundingBox"><stop offset="0" stop-color="#e46257"/><stop offset="1" stop-color="#eb0045"/></linearGradient><linearGradient id="b" x1="-74.035" y1="4.264" x2="-71.737" y2="6.629" gradientUnits="objectBoundingBox"><stop offset="0" stop-color="#f1f7e8"/><stop offset="0.24" stop-color="#8dc75a"/><stop offset="0.34" stop-color="#86c35a"/><stop offset="0.48" stop-color="#73b75b"/><stop offset="0.65" stop-color="#53a55c"/><stop offset="0.85" stop-color="#288b5e"/><stop offset="1" stop-color="#007360"/></linearGradient><linearGradient id="c" x1="-90.558" y1="3.305" x2="-90.558" y2="8.575" gradientUnits="objectBoundingBox"><stop offset="0" stop-color="#fefefe"/><stop offset="1" stop-color="#8bc549"/></linearGradient><linearGradient id="d" x1="-78.673" y1="9.629" x2="-78.949" y2="6.89" gradientUnits="objectBoundingBox"><stop offset="0" stop-color="#2769d1"/><stop offset="1" stop-color="#005cb9"/></linearGradient><linearGradient id="e" x1="-76.671" y1="5.96" x2="-76.671" y2="9.261" gradientUnits="objectBoundingBox"><stop offset="0" stop-color="#fefefe"/><stop offset="1" stop-color="#bddd95"/></linearGradient></defs><g transform="translate(0 0)"><path d="M51.951,42.129V34.81H50.145v6.436c0,2.687-1.575,4.023-4.761,4.023H23.7V35.4h-7a6.682,6.682,0,0,0-4.246,1.083,5.655,5.655,0,0,0-2.256,4.969c0,4.4,2.181,5.71,6.5,5.71h5.077v.526c-.335,1.336-1.66,1.73-4.776,1.73H5.857v1.893H17.505a10.059,10.059,0,0,0,4.761-.826c.93-.542,1.435-1.656,1.435-3.323H46.094C49.685,47.167,51.951,45,51.951,42.129ZM21.862,45.284H16.69c-3.126,0-4.676-.326-4.676-3.812,0-2.871,1.575-4.065,4.676-4.138h5.172ZM0,51.315H1.806V34.81H0Zm51.345-2.7c-.805,0-1.19.3-1.19.9s.385,1,1.19,1,1.23-.326,1.23-1-.42-.9-1.23-.9ZM63.669,34.81H56.287v1.9h7.647c3.231,0,4.841.962,4.841,4.732v3.833H54.881v1.9h15.7V40.1C70.581,35.672,66.55,34.81,63.669,34.81ZM48.134,48.618c-.81,0-1.2.3-1.2.9s.385,1,1.2,1,1.225-.326,1.225-1S48.94,48.618,48.134,48.618Z" transform="translate(0 -16.493)" fill="#007360"/><path d="M13.659,74v4.086h-7.2C2.921,78.086,0,79.689,0,84.2s1.886,6.1,5.632,6.273H8.488a8.487,8.487,0,0,0,5.152-1.294v1.3h1.816V74Zm0,10.2c0,2.824-1.555,4.412-4.876,4.412-.545,0-3.071,0-3.5-.053-2.291-.21-3.421-1.1-3.421-4.359s1.645-4.207,4.916-4.207h6.9Z" transform="translate(0 -35.076)" fill="#007360"/><path d="M42.367,81.77A8.615,8.615,0,0,0,37.29,83.1a3.534,3.534,0,0,0-1.5,2.892v4.075c0,1.656.47,2.776,1.445,3.313a10.413,10.413,0,0,0,4.8.815h4.826v-1.9H42.522c-3.416,0-4.946-.578-4.946-2.24h6.237c2.226,0,3.711-.337,4.526-1.052a3.924,3.924,0,0,0,1-3.087C49.354,83.468,46.853,81.77,42.367,81.77Zm4.3,5.931a9.387,9.387,0,0,1-3.631.452H37.576V86.019c0-1.378,1.946-2.345,4.791-2.345,3.161,0,5.112.862,5.112,2.324a1.663,1.663,0,0,1-.815,1.7Z" transform="translate(-17.89 -38.76)" fill="#007360"/><path d="M126.094,82.59a10.415,10.415,0,0,0-4.8-.82h-4.821v1.9h4.316c3.421,0,4.946.578,4.946,2.24h-6.262c-2.226,0-3.706.337-4.526,1.052a3.93,3.93,0,0,0-1,3.081c0,2.471,2.5,4.159,7,4.159a8.974,8.974,0,0,0,4.791-1.136v1.136h1.806V85.9C127.539,84.247,127.069,83.121,126.094,82.59Zm-5.152,9.7c-3.161,0-5.112-.862-5.112-2.324a1.676,1.676,0,0,1,.815-1.709,9.16,9.16,0,0,1,3.631-.447h5.457v2.135C125.734,91.324,123.793,92.292,120.942,92.292Z" transform="translate(-56.958 -38.76)" fill="#007360"/><path d="M86.641,89.284c.135,1.914-1.535,3.008-4.246,3.008-2.291,0-4-1.767-3.961-3.008V81.77H76.618v7.514c.035,1.914-1.545,3.008-4.251,3.008-2.441,0-4-1.262-3.931-3.066V81.77H66.62v8.2a3.82,3.82,0,0,0,1.4,2.892,6.581,6.581,0,0,0,4.346,1.325c2.466,0,4.226-.71,5.177-1.867a3.869,3.869,0,0,0,.5.526,6.581,6.581,0,0,0,4.346,1.325c3.846,0,6.047-1.714,6.047-4.207v-8.2h-1.8Z" transform="translate(-33.3 -38.76)" fill="#007360"/><path d="M160.829,29.9c0-.652.025-1.3.07-1.946.943-13.717,11.8-24.345,24.877-24.361A23.728,23.728,0,0,1,196.33,6.063a25.039,25.039,0,0,1,3.151.726,24.714,24.714,0,0,0-13.7-4.149c-10.672.03-20.236,6.929-24.1,17.385a28.245,28.245,0,0,0,6.6,29.938,30.19,30.19,0,0,1-1.5-3.008A27.062,27.062,0,0,1,160.829,29.9Z" transform="translate(-79.93 -1.238)" fill="url(#a)"/><path d="M196.3,8.48c-11.248-.032-21.4,7.068-25.728,17.985a30.32,30.32,0,0,0,5.985,31.867,26.807,26.807,0,0,0,30.3,6.355c10.392-4.524,17.166-15.188,17.158-27.013C224.027,21.568,211.622,8.5,196.3,8.48Zm-2.816,47.6c-11.866.032-21.507-10.061-21.526-22.536s9.59-22.6,21.456-22.61,21.489,10.1,21.486,22.579C214.914,45.957,205.327,56.059,193.487,56.077Z" transform="translate(-84.194 -4.008)" fill="url(#b)"/><path d="M218.5,32.985A27.649,27.649,0,0,0,206.33,9.876a25.04,25.04,0,0,0-3.151-.726,26.447,26.447,0,0,1,14.5,24.581,26.273,26.273,0,0,1-15.757,23.712,24.129,24.129,0,0,1-26.943-5.859c-.465-.494-.91-1.01-1.34-1.541a30.2,30.2,0,0,0,1.5,3.008,24.885,24.885,0,0,0,27.927,4.89A27.262,27.262,0,0,0,218.5,32.985Z" transform="translate(-86.794 -4.325)" fill="url(#c)"/><path d="M177.127,8.864a24.672,24.672,0,0,1,36.186,0,27.15,27.15,0,0,1,4.206,5.847,29.209,29.209,0,0,1,2.741,4.028C216.024,5.859,203.551-1.911,190.771.37S168.656,14.313,168.7,27.94q0,1.481.15,2.955a30.422,30.422,0,0,1,.86-4.953,27.525,27.525,0,0,1,7.417-17.079Z" transform="translate(-84.325 0.026)" fill="url(#d)"/><path d="M195.368,69.182a26.233,26.233,0,0,0,21.622-11.794,29.165,29.165,0,0,0,3.421-25.355A29.212,29.212,0,0,0,217.67,28,28.029,28.029,0,0,1,214.9,58.7a24.806,24.806,0,0,1-28.367,7.833c-10.083-3.9-16.775-14.011-16.757-25.307,0-.673.03-1.336.08-2a30.425,30.425,0,0,0-.86,4.958c1.417,14.195,12.792,24.979,26.368,25Z" transform="translate(-84.475 -13.264)" fill="url(#e)"/></g></svg>