<svg xmlns="http://www.w3.org/2000/svg" width="20.623" height="20.623" viewBox="0 0 20.623 20.623"><path d="M84.648,16.6q.033.033.069.062l.033.024.041.03.041.025.038.022.043.02.04.019.042.015.044.015.043.011.046.011.05.008.041.006c.031,0,.062,0,.092,0s.062,0,.092,0l.042-.006.049-.007.047-.011.042-.011.045-.016.041-.015.041-.019.042-.02.038-.023.04-.025.04-.03.033-.025q.034-.028.066-.059l0,0,4.375-4.374A.937.937,0,0,0,89.023,10.9l-2.774,2.774V.937a.937.937,0,1,0-1.875,0V13.673L81.6,10.9a.937.937,0,0,0-1.326,1.326Z" transform="translate(-75)" fill="#fff"/><path d="M19.686,300H.937a.937.937,0,1,0,0,1.875H19.686a.937.937,0,1,0,0-1.875Z" transform="translate(0 -281.252)" fill="#fff"/></svg>