<svg xmlns="http://www.w3.org/2000/svg" xmlns:xlink="http://www.w3.org/1999/xlink" width="109.59" height="71.686" viewBox="0 0 109.59 71.686"><defs><linearGradient id="a" x1="-0.089" y1="1.062" x2="1.188" y2="0.286" gradientUnits="objectBoundingBox"><stop offset="0" stop-color="#bae0c7"/><stop offset="0.5" stop-color="#62b980"/><stop offset="1" stop-color="#bae0c7"/></linearGradient><linearGradient id="b" x1="-0.355" y1="0.941" x2="1.428" y2="0.234" gradientUnits="objectBoundingBox"><stop offset="0" stop-color="#d5d5d6"/><stop offset="0.053" stop-color="#bfbfc1"/><stop offset="0.226" stop-color="#7a7a7f"/><stop offset="0.371" stop-color="#48484f"/><stop offset="0.481" stop-color="#292931"/><stop offset="0.542" stop-color="#1d1d26"/><stop offset="0.591" stop-color="#25252e"/><stop offset="0.669" stop-color="#3b3b43"/><stop offset="0.765" stop-color="#606066"/><stop offset="0.875" stop-color="#939397"/><stop offset="0.996" stop-color="#d3d3d4"/><stop offset="1" stop-color="#d5d5d6"/></linearGradient><linearGradient id="c" x1="0.011" y1="0.873" x2="1.104" y2="-0.373" gradientUnits="objectBoundingBox"><stop offset="0" stop-color="#b52451"/><stop offset="1" stop-color="#fad9e2"/></linearGradient></defs><g transform="translate(0 57.584)"><path d="M923.05,703.04a6.088,6.088,0,0,0-2.008-2.91,6.439,6.439,0,0,0-4.067-1.415c-2.252-.037-4.506-.009-6.757-.009H910v13.781h.267c2.16,0,4.32.012,6.48-.008a8.946,8.946,0,0,0,1.7-.182,5.95,5.95,0,0,0,2.893-1.5,6.5,6.5,0,0,0,1.29-1.659,7.143,7.143,0,0,0,.408-.881,5.577,5.577,0,0,0,.271-1.031,10.159,10.159,0,0,0,.125-1.561,7.725,7.725,0,0,0-.386-2.628Zm-3.393,4.872a3.061,3.061,0,0,1-2.25,1.392c-.862.083-1.732.048-2.6.058-.548.007-1.1,0-1.667,0v-7.625h.238c1.09,0,2.181-.014,3.271.005A3.553,3.553,0,0,1,920.3,704.7a4.015,4.015,0,0,1-.639,3.21Z" transform="translate(-813.848 -698.534)" fill="#0f0f18"/><path d="M65.82,700.214a6.532,6.532,0,0,0-4.275-1.515c-2.2-.028-4.407-.007-6.609-.007-.092,0-.184-.008-.276-.012v13.806c.086,0,.171-.012.255-.012,2.152,0,4.307.007,6.459-.007a8.958,8.958,0,0,0,1.454-.133,6.09,6.09,0,0,0,3.952-2.421,6.9,6.9,0,0,0,1.374-4.035,8.7,8.7,0,0,0-.17-1.9,6.392,6.392,0,0,0-2.163-3.765ZM64.3,707.9a3.118,3.118,0,0,1-2.249,1.4,16.316,16.316,0,0,1-1.766.053c-.827.007-1.651,0-2.5,0v-7.625h.232c1.1,0,2.195-.015,3.292.006a3.726,3.726,0,0,1,2.1.584,3.585,3.585,0,0,1,1.53,2.316A4.078,4.078,0,0,1,64.3,707.9Z" transform="translate(-54.66 -698.518)" fill="#0f0f18"/><path d="M533.984,698.2a7.348,7.348,0,0,0-4.187-.816,10.873,10.873,0,0,0-1.4.185,6.556,6.556,0,0,0-5.206,6.466,8.032,8.032,0,0,0,.167,2.06,6.408,6.408,0,0,0,2.3,3.857,6.77,6.77,0,0,0,3.366,1.395c.159.023.318.066.476.1h1.625a.394.394,0,0,1,.109-.054c.374-.063.754-.1,1.122-.187a6.42,6.42,0,0,0,3.636-2.26,6.851,6.851,0,0,0,1.44-3.845,8.381,8.381,0,0,0-.109-2.183,6.358,6.358,0,0,0-3.34-4.718Zm-.159,8.163a3.55,3.55,0,0,1-2.468,1.719c-.337.071-.684.083-1.027.128a4.357,4.357,0,0,1-2.37-.654,3.4,3.4,0,0,1-1.6-2.546,3.934,3.934,0,0,1,.468-2.608,3.5,3.5,0,0,1,2.277-1.646,4.574,4.574,0,0,1,3.447.411,3.383,3.383,0,0,1,1.711,2.485,3.907,3.907,0,0,1-.441,2.711Z" transform="translate(-470.51 -697.343)" fill="#0f0f18"/><path d="M354.877,698.74c-.059-.008-.086-.014-.114-.014-.984,0-1.967,0-2.951-.006-.149,0-.175.089-.209.2q-1.074,3.339-2.144,6.678c-.159.494-.318.987-.5,1.521-.066-.185-.118-.321-.165-.46q-1.34-3.866-2.677-7.736a.24.24,0,0,0-.27-.2q-1.763.011-3.528,0a.28.28,0,0,0-.311.239q-1.316,3.829-2.646,7.651c-.051.145-.106.29-.18.487-.048-.128-.075-.193-.1-.261q-1.28-3.958-2.554-7.919c-.048-.147-.1-.2-.249-.2-.919.008-1.839,0-2.758.005-.06,0-.121.009-.191.015a.757.757,0,0,0,.014.128l1.952,6.511q1.032,3.436,2.048,6.875a.305.305,0,0,0,.115.2.277.277,0,0,0,.22.053q1.337-.018,2.673,0a.249.249,0,0,0,.282-.213c.191-.584.4-1.169.6-1.753q1.241-3.6,2.484-7.2c.116-.334.238-.668.373-1.051a1.492,1.492,0,0,1,.074.157q.659,1.907,1.317,3.816,1.052,3.046,2.1,6.093c.047.139.127.148.238.147.913,0,1.826-.008,2.738,0a.234.234,0,0,0,.183-.045.258.258,0,0,0,.1-.169q.8-2.709,1.616-5.414l2.341-7.824C354.831,698.958,354.85,698.853,354.877,698.74Z" transform="translate(-302.005 -698.552)" fill="#0f0f18"/><path d="M673.582,707.474a4.024,4.024,0,0,0,1.543-1.881,5.346,5.346,0,0,0,.338-3.089,4.406,4.406,0,0,0-1.543-2.711,4.69,4.69,0,0,0-3.039-1.057c-2.68-.028-5.36-.009-8.04-.009h-.222V712.49h3.088v-4.075h.279c1.454,0,2.908.006,4.361-.006a.359.359,0,0,1,.38.262c.541,1.225,1.09,2.446,1.631,3.673a.238.238,0,0,0,.257.167c1.019-.006,2.038,0,3.058,0,.053,0,.107-.008.186-.015l-2.393-4.937C673.524,707.516,673.551,707.493,673.582,707.474Zm-1.567-2.729a1.5,1.5,0,0,1-1.216.629c-1.652.023-3.305.008-4.958.007a.444.444,0,0,1-.079-.017v-3.6H666c1.5,0,3.006-.008,4.509.006a2.1,2.1,0,0,1,1.284.361,1.447,1.447,0,0,1,.556.895A2.028,2.028,0,0,1,672.014,704.745Z" transform="translate(-594.277 -698.554)" fill="#0f0f18"/><path d="M198.194,700.565a4.8,4.8,0,0,0-3.874-1.836c-2.495-.026-4.99-.007-7.485-.007h-.256V712.49h3.127v-3.45H190c1.4,0,2.809-.012,4.214.005a4.968,4.968,0,0,0,2.128-.417,4.752,4.752,0,0,0,2.531-2.606,5.63,5.63,0,0,0,.382-2.765A5.046,5.046,0,0,0,198.194,700.565Zm-2.728,4.866a1.53,1.53,0,0,1-1.06.482c-1.529.023-3.058.033-4.588.048a.874.874,0,0,1-.1-.013v-4.24h4.49a1.9,1.9,0,0,1,1.841,1.535,2.257,2.257,0,0,1-.581,2.189Z" transform="translate(-171.75 -698.548)" fill="#0f0f18"/><path d="M796.645,698.9H793.52V712.61h11.8v-3.119h-8.674Z" transform="translate(-710.463 -698.712)" fill="#0f0f18"/></g><g transform="translate(12.959 0)"><path d="M448.121,411.944h-.051Z" transform="translate(-416.805 -388.082)" fill="none"/><path d="M196.967,269.837a30.238,30.238,0,0,0,6.38,1.341c.867.076,1.736.139,2.6.175.476.02.953-.018,1.429-.04.516-.023,1.032-.038,1.548-.092q1.219-.131,2.431-.312a25.591,25.591,0,0,0,3.633-.877,19.479,19.479,0,0,0,4.3-1.97,21.184,21.184,0,0,0,3.536-2.632,19.278,19.278,0,0,0,4.823-7.013,21.723,21.723,0,0,0,1.49-6.161c.079-.835.146-1.679.167-2.521a30.082,30.082,0,0,0-.3-4.661c-.029-.225-.079-.449-.114-.674-.056.9-.124,1.79-.247,2.671a14.136,14.136,0,0,1-1.032,3.563,18.3,18.3,0,0,1-2.62,4.341,21.778,21.778,0,0,1-3.771,3.657,25.807,25.807,0,0,1-8.239,4.184c-1.138.346-2.3.62-3.461.861-.869.179-1.756.272-2.638.37-.765.083-1.536.151-2.3.177-.89.029-1.782.012-2.673.005q-.27,0-.54-.018h0l-.189-.012h-.051a38.442,38.442,0,0,1-5.618-.741c-2.184-.54-5.369-1.23-5.57-1.274-.249-.053-.495-.1-.741-.153-.7-.139-1.394-.275-2.095-.4q-.781-.136-1.568-.23-.683-.084-1.369-.14c-.635-.051-1.27-.105-1.91-.122a7.909,7.909,0,0,0-1.144.083c-.538.065-1.081.116-1.609.234a12.053,12.053,0,0,0-6.828,4.361,18.068,18.068,0,0,0-2.4,3.973c-.148.327-.28.663-.419.995.446-.474.863-.964,1.289-1.446a19.038,19.038,0,0,1,4.488-3.931,8.575,8.575,0,0,1,3.86-1.233,13.343,13.343,0,0,1,2.36.09,11.164,11.164,0,0,1,2.784.7q3.007,1.189,6,2.433C192.73,268.273,194.81,269.165,196.967,269.837Z" transform="translate(-169.863 -240.341)" fill="url(#a)"/><path d="M413.457,359.121a23.77,23.77,0,0,1-3.665,2.536,25.252,25.252,0,0,1-5.285,2.232,22.49,22.49,0,0,1-4.215.856c-.715.068-1.438.149-2.157.171-.7.023-1.394-.008-2.09-.04a15.186,15.186,0,0,1-1.735-.142c-.889-.144-1.777-.313-2.653-.532a19.648,19.648,0,0,1-7.966-4.062q-.293-.25-.582-.5a.234.234,0,0,0,.037.137,21.534,21.534,0,0,0,4.819,5.87,20.147,20.147,0,0,0,12.114,4.816,27.524,27.524,0,0,0,2.96-.083,17.061,17.061,0,0,0,1.906-.264,18.043,18.043,0,0,0,4.264-1.373,20.011,20.011,0,0,0,6.188-4.419,27.131,27.131,0,0,0,2.049-2.459,22.9,22.9,0,0,0,4.238-10.934q.109-1.156.165-2.316a10.924,10.924,0,0,0-.038-1.169c-.037-.609-.053-1.222-.137-1.825-.109-.784-.265-1.56-.424-2.337-.084-.417-.214-.818-.324-1.227l-.073.009c0,.867.033,1.737-.01,2.6a21.65,21.65,0,0,1-.247,2.185,18.564,18.564,0,0,1-1.536,5,20.438,20.438,0,0,1-3.1,4.791A22.286,22.286,0,0,1,413.457,359.121Z" transform="translate(-359.146 -326.458)" fill="url(#b)"/><path d="M448.719,411.982h0l-.189-.012Z" transform="translate(-417.213 -388.107)" fill="#17e1ff"/><path d="M385.546,211.615a19.808,19.808,0,0,0-4.246-1.252c-.662-.114-1.336-.159-2-.239a1,1,0,0,1-.179-.056h-2.4a.567.567,0,0,1-.133.056c-.556.063-1.116.083-1.663.19-.96.189-1.921.391-2.858.66a18.659,18.659,0,0,0-4.337,1.931,20.479,20.479,0,0,0-3.906,3,21.925,21.925,0,0,0-5.4,8.528,20.994,20.994,0,0,0-1.112,4.947c-.075.821-.116,1.644-.171,2.467,0,.057-.014.176-.02.28,1.155.255,3.112.694,4.605,1.063a22.5,22.5,0,0,0,2.358.429,20.843,20.843,0,0,1,5.185-14.813,18.968,18.968,0,0,1,17.569-6.611C386.379,211.985,385.966,211.789,385.546,211.615Z" transform="translate(-336.08 -210.068)" fill="url(#c)"/></g></svg>