<svg xmlns="http://www.w3.org/2000/svg" xmlns:xlink="http://www.w3.org/1999/xlink" viewBox="0 0 415.92 338.02"><defs><style>.cls-1{fill:#e5c455;}.cls-1,.cls-2,.cls-3,.cls-4,.cls-5,.cls-6{fill-rule:evenodd;}.cls-2{fill:#d3b24b;}.cls-3{fill:#b40000;}.cls-4{fill:url(#GradientFill_1);}.cls-5{fill:red;}</style><linearGradient id="GradientFill_1" x1="51.84" y1="257.64" x2="365.43" y2="257.64" gradientUnits="userSpaceOnUse"><stop offset="0" stop-color="#f37121"/><stop offset="0.51" stop-color="#ed1c24"/><stop offset="1" stop-color="#f37121"/></linearGradient></defs><g id="Layer_2" data-name="Layer 2"><g id="Layer_1-2" data-name="Layer 1"><path class="cls-1" d="M296.55,299.56l-2,15.07-15.52-5.5-2.95,15-14.77-6.78-5.67,14.11L242,322.24,235.42,336l-12.63-10.24-9,12.25-10.94-12.3-9.8,11.7-9.68-13.06L171.6,334l-7.54-14.63-12.4,8.9-6.13-15.06-13.79,6.4-3.67-16.05-14.22,5.54L111.66,293l-15,2.77.44-16.46L82,281.11,83.88,265l-15.17-1,4.52-15.83-15.13-2,5.84-15.17L49.5,226.15l8.31-14.21-14.15-5.7L53.09,193l-12.8-8.21,11.59-11.7-12.29-9L52,153.56,41.66,142.43,55.79,134l-9.65-11.82,14.64-7.06-7.26-13.36,15.79-4.67L62.89,83.22,78.83,80l-3.7-14.74,16.45-.6-2.77-15,16.23.86.08-15.2,16.09,3.51,1.05-15.22,15.5,4.87,3.86-14.7,14.7,7.4,4.81-14.49,13.8,8.58L182.33,2l12.4,10.83L203,0l11.25,11.74,10.46-11L234,14.29,245.2,3.91l8,14.16L266,10l5.65,15.46,13.42-7.27,4.19,15.7,14.49-4.62,1.63,16.38,14.8-3.7.16,16.25,15.17-.87L333.06,73.6l15.26.09-3.89,15.78,14.91,2.93-6.46,15.14,14.76,3.88-7.7,14.32,13.73,6.55-10,13.05L377,152.78l-11,11.95,11.67,9.75-13,10.16,11.06,10.51L362.08,204,371,216.34,355.87,223l8.1,12.93-15.41,5.17,5.52,14.17-16.24,2.65,4.62,14.54-16.21,1.18,1.83,15.09-16.4-1.47.87,15.24-16-2.89ZM208.63,24.28A144.75,144.75,0,1,0,353.38,169,144.75,144.75,0,0,0,208.63,24.28Z"/><path class="cls-2" d="M208.63,28.87a140.15,140.15,0,1,1-99.1,41.05,139.76,139.76,0,0,1,99.1-41Zm94.16,46a133.16,133.16,0,1,0,39,94.15A132.74,132.74,0,0,0,302.79,74.87Z"/><path class="cls-3" d="M99,263.27,60.46,221.74C28.33,238,11.14,257.91,0,278.9c14.86-3.67,29.72-7.69,44.58-11.36v50.7A198.6,198.6,0,0,1,99,263.27Z"/><path class="cls-3" d="M316.92,263.27l38.54-41.53c32.13,16.21,49.32,36.17,60.46,57.16-14.86-3.67-29.72-7.69-44.58-11.36v50.7A198.6,198.6,0,0,0,316.92,263.27Z"/><path class="cls-4" d="M52.32,237.6c-2.45-5.66,5.11-15.06,7.86-15,.16,0,1.12.71.41,1.23-4.92,3.54-9.23,13.52-.87,13.88,9.72-.15,28.92-1.17,55.7-6,34-6.51,63.51-9.77,93-9.8s59,3.29,93,9.8c26.79,4.81,46,5.83,55.7,6,8.37-.36,4.06-10.34-.86-13.88-.71-.52.25-1.23.4-1.23,2.76,0,10.32,9.39,7.87,15-.79,4.05-28,49.78-34.75,52.66-5.3,3.74-9.35,3.11-12.15,3.11s-12.47-1.56-29.6-5.29a406.57,406.57,0,0,0-79.58-7.64,406.57,406.57,0,0,0-79.58,7.64c-17.14,3.73-26.79,5.29-29.6,5.29s-6.85.63-12.15-3.11C80.33,287.38,53.11,241.65,52.32,237.6Z"/><path class="cls-5" d="M131.73,91.05h12v5.54h-4.8v5.28h4.49v5.25h-4.49v6.1h5.29v5.53h-12.5V91.05Zm31.35,12.08h-7.21V98.32a8.44,8.44,0,0,0-.23-2.62,1,1,0,0,0-1-.52,1,1,0,0,0-1.12.64,9.55,9.55,0,0,0-.24,2.73V111.4a9,9,0,0,0,.24,2.64,1.21,1.21,0,0,0,2.11,0,10.36,10.36,0,0,0,.24-2.9v-3.48h7.21v1.08a21.49,21.49,0,0,1-.6,6.1,6.24,6.24,0,0,1-2.69,3.16,9.21,9.21,0,0,1-5.12,1.35,10.67,10.67,0,0,1-5.22-1.14,5.63,5.63,0,0,1-2.72-3.18,21,21,0,0,1-.66-6.09v-8.09a37.59,37.59,0,0,1,.2-4.49,6.28,6.28,0,0,1,1.23-2.88,6.87,6.87,0,0,1,2.82-2.18,11.52,11.52,0,0,1,9.4.43,6,6,0,0,1,2.72,3.07,18.58,18.58,0,0,1,.64,5.71v2.63ZM173.89,105v4.76h-9V105Zm18.89-1.89h-7.21V98.32a8.78,8.78,0,0,0-.23-2.62,1,1,0,0,0-1-.52,1,1,0,0,0-1.11.64,9.55,9.55,0,0,0-.24,2.73V111.4a9,9,0,0,0,.24,2.64,1.2,1.2,0,0,0,2.1,0,9.84,9.84,0,0,0,.25-2.9v-3.48h7.21v1.08a21,21,0,0,1-.61,6.1,6.26,6.26,0,0,1-2.68,3.16,9.21,9.21,0,0,1-5.12,1.35,10.67,10.67,0,0,1-5.22-1.14,5.55,5.55,0,0,1-2.72-3.18,20.92,20.92,0,0,1-.67-6.09v-8.09a35.15,35.15,0,0,1,.21-4.49,6.26,6.26,0,0,1,1.22-2.88A6.87,6.87,0,0,1,180,91.29a11.52,11.52,0,0,1,9.4.43,5.91,5.91,0,0,1,2.72,3.07,18.51,18.51,0,0,1,.65,5.71v2.63Zm18,.9v5.56a24.13,24.13,0,0,1-.3,4.49,6.44,6.44,0,0,1-1.32,2.67,6,6,0,0,1-2.59,1.83,10.39,10.39,0,0,1-3.63.59,13.16,13.16,0,0,1-3.88-.5,5.33,5.33,0,0,1-2.47-1.53,6,6,0,0,1-1.26-2.47,18.6,18.6,0,0,1-.37-4.33v-5.82a14.45,14.45,0,0,1,.68-5,5.74,5.74,0,0,1,2.46-2.85,8.68,8.68,0,0,1,4.55-1.08,10.4,10.4,0,0,1,4,.69,6.48,6.48,0,0,1,2.57,1.81,6.22,6.22,0,0,1,1.24,2.29,14.42,14.42,0,0,1,.33,3.6Zm-6.89-1.71a7.7,7.7,0,0,0-.19-2.2.79.79,0,0,0-.81-.45.83.83,0,0,0-.83.45,7.2,7.2,0,0,0-.2,2.2v10.24a6.86,6.86,0,0,0,.2,2.09.95.95,0,0,0,1.63,0,5.85,5.85,0,0,0,.2-1.92V102.32Zm25-6.26v22.69h-7l.12-1.89a4.66,4.66,0,0,1-4.18,2.31,5.36,5.36,0,0,1-2.58-.55,3.56,3.56,0,0,1-1.52-1.45,5.42,5.42,0,0,1-.6-1.89c-.08-.66-.12-2-.12-3.91V96.06h6.9V111.5a16.14,16.14,0,0,0,.16,3.15c.11.33.4.49.88.49s.82-.17.91-.51a19,19,0,0,0,.15-3.3V96.06Zm9.5,0-.1,2.11a5.25,5.25,0,0,1,1.84-1.9,4.86,4.86,0,0,1,2.5-.63,4.74,4.74,0,0,1,2.91.84,3.67,3.67,0,0,1,1.45,2.11,19.05,19.05,0,0,1,.33,4.25v15.91h-6.9V103a15,15,0,0,0-.15-2.85c-.1-.34-.39-.51-.86-.51a.86.86,0,0,0-.94.59,15.4,15.4,0,0,0-.18,3.15v15.34h-6.9V96.06ZM265,104.64h-6.51V102a5,5,0,0,0-.23-1.85.83.83,0,0,0-.84-.49.82.82,0,0,0-.82.42,5.38,5.38,0,0,0-.21,1.92v10.7a4.05,4.05,0,0,0,.31,1.82,1,1,0,0,0,.93.61,1,1,0,0,0,1-.63,7.4,7.4,0,0,0,.25-2.39v-2.69H265a33.05,33.05,0,0,1-.2,4.08,6.35,6.35,0,0,1-1.15,2.78,6,6,0,0,1-2.52,2.15,10.91,10.91,0,0,1-8.51-.28,5.52,5.52,0,0,1-2.42-2.8,14.61,14.61,0,0,1-.71-5.13v-6.44a12.43,12.43,0,0,1,.58-4.37,5.66,5.66,0,0,1,2.49-2.62,8.76,8.76,0,0,1,4.63-1.16,8.89,8.89,0,0,1,4.62,1.15,5.6,5.6,0,0,1,2.55,2.89,15,15,0,0,1,.64,5Zm9.13-13.59v3.61H267V91.05Zm0,5v22.69H267V96.06Zm9.59-5v27.7h-7.11V91.05Z"/><path class="cls-6" d="M141.55,137.63h4.87l6.3,22.42h-4.95l-1.1-4.64h-6.21l-1.08,4.64h-4.45l6.62-22.42Zm4.21,14-2.23-9.19-2.14,9.19Zm21.24-2-4.2.16a6.16,6.16,0,0,0-.49-2.28,1.36,1.36,0,0,0-1.31-.78c-1.54,0-2.3,1.63-2.3,4.89a10,10,0,0,0,.55,4,1.8,1.8,0,0,0,1.67,1.13c1.14,0,1.77-1,1.88-3.1l4.2.28q-.57,6.56-6.39,6.55a5.73,5.73,0,0,1-4.81-2.16q-1.67-2.16-1.67-6.43c0-2.81.59-5,1.75-6.44a5.9,5.9,0,0,1,4.91-2.22c3.8,0,5.88,2.14,6.21,6.43Zm15.29,0-4.2.16a6.16,6.16,0,0,0-.49-2.28,1.35,1.35,0,0,0-1.31-.78c-1.54,0-2.3,1.63-2.3,4.89a9.92,9.92,0,0,0,.56,4,1.79,1.79,0,0,0,1.66,1.13c1.15,0,1.77-1,1.88-3.1l4.2.28q-.57,6.56-6.38,6.55a5.7,5.7,0,0,1-4.81-2.16q-1.68-2.16-1.68-6.43c0-2.81.59-5,1.75-6.44a5.91,5.91,0,0,1,4.91-2.22q5.71,0,6.21,6.43Zm3.12-6.09h4v4c.73-2.83,2-4.24,3.86-4.24a3.88,3.88,0,0,1,.77.09v4.52a5.28,5.28,0,0,0-.75-.07q-3.31,0-3.31,5.13v7.14h-4.57V143.48Zm23.33,9H200.2v.92a5.19,5.19,0,0,0,.59,3,1.9,1.9,0,0,0,1.56.75c1.38,0,2.15-.94,2.32-2.82l4.07.26q-1.1,5.79-6.46,5.79a5.94,5.94,0,0,1-5.05-2.28,9.89,9.89,0,0,1-1.72-6.11c0-2.87.61-5.07,1.83-6.58a6,6,0,0,1,4.9-2.28,6,6,0,0,1,4.63,2c1.24,1.34,1.87,3.8,1.87,7.37Zm-4.3-2.72c0-.2,0-.34,0-.45,0-2.1-.7-3.15-2.11-3.15s-2.09,1.2-2.1,3.6ZM220,137.63h4.47v22.42h-4.24v-2.73q-1,3-3.69,3a4.21,4.21,0,0,1-3.92-2.33,12.77,12.77,0,0,1-1.28-6.13q0-4.32,1.48-6.45a4.55,4.55,0,0,1,3.94-2.14A3.39,3.39,0,0,1,220,145v-7.38Zm0,12.77a7,7,0,0,0-.51-3.27,1.64,1.64,0,0,0-1.48-.83,1.54,1.54,0,0,0-1.56,1.15,16.88,16.88,0,0,0-.42,4.76,10.63,10.63,0,0,0,.46,3.77,1.54,1.54,0,0,0,1.49,1.08,1.78,1.78,0,0,0,1.45-.73,5.3,5.3,0,0,0,.57-3V150.4Zm13-8.3h-4.63v-4.57h4.63v4.57Zm-4.6,1.38H233v16.57h-4.57V143.48Zm9.23-5.1,4.43-.15v5.25h3v3.63h-3v6.08a20,20,0,0,0,.07,2.2,1.27,1.27,0,0,0,.49.83,2.22,2.22,0,0,0,1.39.34c.34,0,.77,0,1.29,0V160a12.65,12.65,0,0,1-2.78.35,5.31,5.31,0,0,1-3.18-.81,3.47,3.47,0,0,1-1.4-2,17,17,0,0,1-.31-3.86v-6.6h-1.82v-3.63h1.82v-5.1Zm22.66,14.14h-8.53v.92a5.19,5.19,0,0,0,.59,3,1.89,1.89,0,0,0,1.55.75c1.38,0,2.15-.94,2.32-2.82l4.07.26q-1.08,5.79-6.46,5.79a5.92,5.92,0,0,1-5-2.28,9.89,9.89,0,0,1-1.73-6.11c0-2.87.61-5.07,1.83-6.58a6,6,0,0,1,4.91-2.28,6.06,6.06,0,0,1,4.63,2q1.86,2,1.86,7.37ZM256,149.8c0-.2,0-.34,0-.45,0-2.1-.71-3.15-2.12-3.15s-2.09,1.2-2.1,3.6Zm15.6-12.17h4.46v22.42h-4.23v-2.73c-.68,2-1.92,3-3.7,3a4.2,4.2,0,0,1-3.91-2.33,12.65,12.65,0,0,1-1.29-6.13q0-4.32,1.48-6.45a4.56,4.56,0,0,1,3.95-2.14,3.41,3.41,0,0,1,3.24,1.77v-7.38Zm0,12.77a7,7,0,0,0-.51-3.27,1.65,1.65,0,0,0-1.48-.83,1.56,1.56,0,0,0-1.57,1.15,17.42,17.42,0,0,0-.41,4.76,10.93,10.93,0,0,0,.45,3.77,1.54,1.54,0,0,0,1.49,1.08,1.76,1.76,0,0,0,1.45-.73,5.28,5.28,0,0,0,.58-3Z"/><path class="cls-6" d="M106.86,178h13.72v4.17h-4.5v18.26h-4.82V182.16h-4.4V178Zm14.73,5.85h4v4c.72-2.82,2-4.23,3.85-4.23a4.69,4.69,0,0,1,.78.08v4.52a6.92,6.92,0,0,0-.76-.06q-3.32,0-3.31,5.12v7.15h-4.56V183.84Zm15.31,5.28-4.3-.42a5.43,5.43,0,0,1,2.09-3.85,7.3,7.3,0,0,1,4.49-1.34,6.66,6.66,0,0,1,3.68.89,3.89,3.89,0,0,1,1.75,2.08,13.52,13.52,0,0,1,.36,3.66v6.6a15.88,15.88,0,0,0,.23,3.68H141a9.52,9.52,0,0,1-.22-2.55,4.76,4.76,0,0,1-4.46,2.88,4.27,4.27,0,0,1-3.09-1.15,4.49,4.49,0,0,1-1.19-3.37,5.3,5.3,0,0,1,1.8-4.29c1.21-1,3.39-1.61,6.57-1.81v-.62a5.51,5.51,0,0,0-.33-2.3,1.28,1.28,0,0,0-1.27-.64c-1.15,0-1.79.85-1.91,2.55Zm3.51,3.4a5.8,5.8,0,0,0-2.83.89,2.67,2.67,0,0,0-.84,2.23c0,1.39.5,2.09,1.51,2.09a1.86,1.86,0,0,0,1.49-.94,6.28,6.28,0,0,0,.67-3.45v-.82Zm13.11-10.05h-4.63v-4.58h4.63v4.58Zm-4.59,1.37h4.56v16.58h-4.56V183.84Zm8.56,0h4.33v2.26a4.09,4.09,0,0,1,4.08-2.59,4.47,4.47,0,0,1,2.64.73,3.18,3.18,0,0,1,1.32,1.86,14.63,14.63,0,0,1,.3,3.45v10.87h-4.57V189.54a3.23,3.23,0,0,0-.42-2.08,1.56,1.56,0,0,0-1.12-.39,1.62,1.62,0,0,0-1.61.76,7.1,7.1,0,0,0-.39,2.86v9.73h-4.56V183.84Zm21-1.37h-4.63v-4.58h4.63v4.58Zm-4.6,1.37h4.56v16.58h-4.56V183.84Zm8.56,0h4.34v2.26a4.07,4.07,0,0,1,4.07-2.59,4.45,4.45,0,0,1,2.64.73,3.24,3.24,0,0,1,1.33,1.86,15.31,15.31,0,0,1,.29,3.45v10.87h-4.56V189.54a3.23,3.23,0,0,0-.42-2.08,1.6,1.6,0,0,0-1.13-.39,1.63,1.63,0,0,0-1.61.76,7.15,7.15,0,0,0-.38,2.86v9.73h-4.57V183.84Zm30.28-2.73v3a4.26,4.26,0,0,0-1-.13,1.63,1.63,0,0,0-1.72,1.48,4.66,4.66,0,0,1,1.22,3.32,4.47,4.47,0,0,1-1.65,3.6,6.51,6.51,0,0,1-4.26,1.35,8.53,8.53,0,0,1-2.12-.28c-.71.39-1.07.84-1.07,1.36a.79.79,0,0,0,.6.81A17.7,17.7,0,0,0,206,196a19.74,19.74,0,0,1,3.68.49,3.93,3.93,0,0,1,2,1.42,4.53,4.53,0,0,1,.81,2.81q0,5.55-8,5.56-6.69,0-6.69-4,0-2.19,2.67-3.09a3.15,3.15,0,0,1-2.14-2.87c0-1.42.95-2.63,2.83-3.64a4.25,4.25,0,0,1-2.43-4.13,4.52,4.52,0,0,1,1.67-3.78,7.11,7.11,0,0,1,4.47-1.29,8.47,8.47,0,0,1,3.48.72,4.43,4.43,0,0,1,.88-2.53,2.81,2.81,0,0,1,2.17-.75,4.68,4.68,0,0,1,1.25.16Zm-6.18,7.55c0-1.78-.48-2.66-1.44-2.66a1.3,1.3,0,0,0-1.24.64,4.63,4.63,0,0,0-.36,2.13c0,1.67.52,2.5,1.57,2.5a1.2,1.2,0,0,0,1.13-.58,4.46,4.46,0,0,0,.34-2Zm-3.49,11a2.15,2.15,0,0,0-1.44,2c0,1.13,1.25,1.69,3.76,1.69,2.14,0,3.22-.59,3.22-1.75a1.57,1.57,0,0,0-.35-1,1.52,1.52,0,0,0-.89-.51,16.87,16.87,0,0,0-2.27-.19c-.68,0-1.36-.11-2-.2Zm29-7.43,4.46.28a9.55,9.55,0,0,1-2.28,5.93,6.8,6.8,0,0,1-5.36,2.29,7.06,7.06,0,0,1-6.2-3.07q-2.13-3.06-2.13-8.45c0-3.62.7-6.46,2.11-8.5a7.15,7.15,0,0,1,6.29-3.07c4.59,0,7.1,2.89,7.5,8.68l-4.43.33c-.11-3.34-1.14-5-3.07-5a2.7,2.7,0,0,0-2.41,1.61q-.9,1.6-.9,6.24c0,2.76.28,4.65.83,5.69a2.63,2.63,0,0,0,2.47,1.55c1.77,0,2.8-1.5,3.12-4.5Zm20.1.64h-8.53v.91a5.23,5.23,0,0,0,.59,3,1.91,1.91,0,0,0,1.55.75c1.38,0,2.15-.94,2.32-2.83l4.07.27q-1.08,5.79-6.46,5.78a5.93,5.93,0,0,1-5-2.28,9.84,9.84,0,0,1-1.73-6.1c0-2.88.62-5.07,1.83-6.59a6,6,0,0,1,4.91-2.27,6,6,0,0,1,4.63,2q1.86,2,1.86,7.38Zm-4.3-2.73c0-.19,0-.34,0-.45,0-2.1-.71-3.14-2.12-3.14s-2.09,1.2-2.1,3.59Zm7.63-6.32h4.33v2.26a4.09,4.09,0,0,1,4.08-2.59,4.44,4.44,0,0,1,2.63.73,3.15,3.15,0,0,1,1.33,1.86,14.74,14.74,0,0,1,.29,3.45v10.87h-4.56V189.54a3.23,3.23,0,0,0-.42-2.08,1.56,1.56,0,0,0-1.12-.39,1.62,1.62,0,0,0-1.61.76,7.1,7.1,0,0,0-.39,2.86v9.73h-4.56V183.84Zm17.08-5.1,4.43-.14v5.24h3v3.63h-3v6.09a18.85,18.85,0,0,0,.08,2.19,1.34,1.34,0,0,0,.48.84,2.27,2.27,0,0,0,1.39.33l1.3,0v3.52a12.68,12.68,0,0,1-2.79.34,5.28,5.28,0,0,1-3.17-.8,3.51,3.51,0,0,1-1.41-2,17.57,17.57,0,0,1-.31-3.85v-6.61H270.7v-3.63h1.82v-5.1Zm22.67,14.15h-8.54v.91a5.23,5.23,0,0,0,.59,3,1.93,1.93,0,0,0,1.56.75c1.38,0,2.15-.94,2.32-2.83l4.07.27q-1.1,5.79-6.46,5.78a5.94,5.94,0,0,1-5.05-2.28,9.84,9.84,0,0,1-1.72-6.1c0-2.88.61-5.07,1.83-6.59a6,6,0,0,1,4.9-2.27,6,6,0,0,1,4.63,2c1.24,1.34,1.87,3.8,1.87,7.38Zm-4.3-2.73c0-.19,0-.34,0-.45,0-2.1-.7-3.14-2.11-3.14s-2.09,1.2-2.1,3.59Zm7.62-6.32h4v4c.73-2.82,2-4.23,3.86-4.23a4.68,4.68,0,0,1,.77.08v4.52a6.78,6.78,0,0,0-.75-.06q-3.31,0-3.31,5.12v7.15h-4.57Z"/></g></g></svg>