<?xml version="1.0" encoding="UTF-8"?>
<svg xmlns="http://www.w3.org/2000/svg" xmlns:xlink="http://www.w3.org/1999/xlink" width="67px" height="55px" viewBox="0 0 64 52" version="1.1">
<g id="surface1">
<path style=" stroke:none;fill-rule:evenodd;fill:rgb(34.509804%,34.901961%,35.686275%);fill-opacity:1;" d="M 45.628906 46.082031 L 45.328125 48.402344 L 42.9375 47.5625 L 42.488281 49.859375 L 40.207031 48.859375 L 39.339844 50.988281 L 37.238281 49.570312 L 36.238281 51.691406 L 34.300781 50.121094 L 32.898438 51.988281 L 31.210938 50.101562 L 29.710938 51.898438 L 28.222656 49.902344 L 26.410156 51.378906 L 25.242188 49.128906 L 23.339844 50.5 L 22.390625 48.179688 L 20.273438 49.179688 L 19.710938 46.710938 L 17.523438 47.5625 L 17.183594 45.082031 L 14.882812 45.511719 L 15.003906 42.992188 L 12.671875 43.273438 L 12.964844 40.78125 L 10.625 40.621094 L 11.324219 38.191406 L 8.996094 37.882812 L 9.894531 35.542969 L 7.625 34.792969 L 8.90625 32.605469 L 6.726562 31.734375 L 8.175781 29.734375 L 6.175781 28.464844 L 8.003906 26.625 L 6.09375 25.234375 L 8.003906 23.625 L 6.414062 21.914062 L 8.59375 20.617188 L 7.105469 18.796875 L 9.355469 17.707031 L 8.246094 15.65625 L 10.664062 14.9375 L 9.664062 12.808594 L 12.113281 12.308594 L 11.5625 10 L 14.09375 10 L 13.671875 7.6875 L 16.164062 7.828125 L 16.164062 5.488281 L 18.652344 6 L 18.8125 3.660156 L 21.203125 4.410156 L 21.792969 2.140625 L 24.050781 3.28125 L 24.792969 1 L 26.921875 2.320312 L 28.0625 0.320312 L 30 2 L 31.269531 0 L 33 1.808594 L 34.570312 0.109375 L 36 2.199219 L 37.730469 0.601562 L 39 2.78125 L 41 1.539062 L 41.867188 3.917969 L 43.867188 2.800781 L 44.519531 5.21875 L 46.746094 4.5 L 46.996094 7 L 49.265625 6.429688 L 49.296875 9 L 51.625 8.859375 L 51.246094 11.359375 L 53.597656 11.359375 L 52.996094 13.765625 L 55.285156 14.21875 L 54.285156 16.546875 L 56.554688 17.148438 L 55.375 19.347656 L 57.484375 20.347656 L 55.945312 22.34375 L 57.945312 23.496094 L 56.246094 25.335938 L 58.046875 26.835938 L 56.046875 28.394531 L 57.804688 29.996094 L 55.714844 31.355469 L 57.074219 33.253906 L 54.753906 34.253906 L 56.003906 36.253906 L 53.636719 37.042969 L 54.476562 39.222656 L 51.976562 39.632812 L 52.695312 41.871094 L 50.195312 42.050781 L 50.476562 44.371094 L 47.996094 44.179688 L 48.125 46.53125 L 45.667969 46.082031 Z M 32.101562 3.738281 C 19.804688 3.746094 9.839844 13.71875 9.84375 26.015625 C 9.851562 38.3125 19.824219 48.277344 32.121094 48.269531 C 44.417969 48.265625 54.382812 38.292969 54.375 25.996094 C 54.371094 13.699219 44.398438 3.734375 32.101562 3.738281 Z M 32.101562 3.738281 "/>
<path style=" stroke:none;fill-rule:evenodd;fill:rgb(34.509804%,34.901961%,35.686275%);fill-opacity:1;" d="M 32.101562 4.4375 C 42.382812 4.4375 51.234375 11.703125 53.242188 21.789062 C 55.25 31.871094 49.851562 41.972656 40.351562 45.910156 C 30.851562 49.84375 19.894531 46.523438 14.179688 37.976562 C 8.464844 29.425781 9.585938 18.03125 16.851562 10.757812 C 20.890625 6.707031 26.378906 4.433594 32.101562 4.4375 Z M 46.585938 11.519531 C 39.675781 4.601562 28.839844 3.53125 20.707031 8.960938 C 12.574219 14.394531 9.410156 24.8125 13.152344 33.847656 C 16.894531 42.882812 26.496094 48.015625 36.089844 46.109375 C 45.679688 44.203125 52.585938 35.785156 52.585938 26.003906 C 52.59375 20.570312 50.433594 15.355469 46.585938 11.519531 Z M 46.585938 11.519531 "/>
<path style=" stroke:none;fill-rule:evenodd;fill:rgb(34.509804%,34.901961%,35.686275%);fill-opacity:1;" d="M 15.234375 40.503906 L 9.304688 34.113281 C 5.328125 35.957031 2.066406 39.042969 0.0078125 42.910156 C 2.296875 42.34375 4.574219 41.722656 6.863281 41.160156 L 6.863281 48.992188 C 9.074219 45.640625 11.917969 42.757812 15.234375 40.503906 Z M 15.234375 40.503906 "/>
<path style=" stroke:none;fill-rule:evenodd;fill:rgb(34.509804%,34.901961%,35.686275%);fill-opacity:1;" d="M 48.765625 40.503906 L 54.695312 34.113281 C 58.671875 35.957031 61.933594 39.042969 63.992188 42.910156 C 61.703125 42.34375 59.425781 41.722656 57.136719 41.160156 L 57.136719 48.992188 C 54.925781 45.640625 52.082031 42.757812 48.765625 40.503906 Z M 48.765625 40.503906 "/>
<path style=" stroke:none;fill-rule:evenodd;fill:rgb(34.509804%,34.901961%,35.686275%);fill-opacity:1;" d="M 8.054688 36.554688 C 7.675781 35.683594 8.84375 34.234375 9.265625 34.234375 C 9.265625 34.234375 9.433594 34.34375 9.324219 34.421875 C 8.574219 34.972656 7.90625 36.503906 9.195312 36.5625 C 12.070312 36.484375 14.9375 36.179688 17.761719 35.644531 C 22.472656 34.6875 27.265625 34.179688 32.070312 34.132812 C 36.871094 34.183594 41.660156 34.6875 46.367188 35.644531 C 49.199219 36.179688 52.066406 36.484375 54.945312 36.5625 C 56.226562 36.503906 55.566406 34.972656 54.804688 34.421875 C 54.695312 34.34375 54.804688 34.234375 54.867188 34.234375 C 55.296875 34.234375 56.457031 35.683594 56.074219 36.554688 C 55.957031 37.171875 51.765625 44.210938 50.738281 44.652344 C 50.195312 45.039062 49.527344 45.210938 48.867188 45.132812 C 47.332031 44.960938 45.808594 44.691406 44.308594 44.320312 C 36.222656 42.75 27.910156 42.75 19.824219 44.320312 C 18.324219 44.691406 16.804688 44.960938 15.273438 45.132812 C 14.613281 45.210938 13.945312 45.039062 13.402344 44.652344 C 12.363281 44.210938 8.175781 37.171875 8.054688 36.554688 Z M 8.054688 36.554688 "/>
<path style=" stroke:none;fill-rule:evenodd;fill:rgb(34.509804%,34.901961%,35.686275%);fill-opacity:1;" d="M 20.273438 13.996094 L 22.121094 13.996094 L 22.121094 14.847656 L 21.382812 14.847656 L 21.382812 15.667969 L 22.070312 15.667969 L 22.070312 16.46875 L 21.382812 16.46875 L 21.382812 17.40625 L 22.191406 17.40625 L 22.191406 18.257812 L 20.273438 18.257812 Z M 25.089844 15.855469 L 24 15.855469 L 24 15.117188 C 24.019531 14.984375 24.019531 14.851562 24 14.71875 C 24 14.65625 23.921875 14.636719 23.839844 14.636719 C 23.773438 14.628906 23.703125 14.664062 23.671875 14.726562 C 23.65625 14.867188 23.65625 15.007812 23.671875 15.148438 L 23.671875 17.148438 C 23.65625 17.28125 23.65625 17.421875 23.671875 17.554688 C 23.703125 17.617188 23.773438 17.65625 23.839844 17.648438 C 23.910156 17.652344 23.972656 17.617188 24 17.554688 C 24.019531 17.40625 24.019531 17.257812 24 17.105469 L 24 16.566406 L 25.109375 16.566406 L 25.109375 16.738281 C 25.125 17.050781 25.09375 17.367188 25.019531 17.675781 C 24.941406 17.878906 24.796875 18.050781 24.613281 18.167969 C 24.371094 18.304688 24.097656 18.371094 23.820312 18.367188 C 23.542969 18.378906 23.269531 18.320312 23.023438 18.195312 C 22.824219 18.09375 22.671875 17.917969 22.601562 17.707031 C 22.523438 17.398438 22.488281 17.082031 22.5 16.765625 L 22.5 15.515625 C 22.488281 15.289062 22.488281 15.058594 22.5 14.828125 C 22.523438 14.664062 22.585938 14.507812 22.691406 14.378906 C 22.800781 14.230469 22.949219 14.117188 23.121094 14.046875 C 23.324219 13.960938 23.542969 13.917969 23.761719 13.917969 C 24.042969 13.910156 24.320312 13.976562 24.570312 14.105469 C 24.761719 14.21875 24.90625 14.386719 24.992188 14.585938 C 25.0625 14.871094 25.09375 15.164062 25.082031 15.457031 L 25.082031 15.867188 Z M 26.761719 16.148438 L 26.761719 16.875 L 25.371094 16.875 L 25.371094 16.148438 Z M 29.660156 15.855469 L 28.550781 15.855469 L 28.550781 15.117188 C 28.570312 14.984375 28.570312 14.851562 28.550781 14.71875 C 28.550781 14.65625 28.46875 14.636719 28.390625 14.636719 C 28.320312 14.628906 28.253906 14.664062 28.222656 14.726562 C 28.203125 14.867188 28.203125 15.007812 28.222656 15.148438 L 28.222656 17.148438 C 28.203125 17.28125 28.203125 17.421875 28.222656 17.554688 C 28.253906 17.617188 28.320312 17.65625 28.390625 17.648438 C 28.457031 17.652344 28.523438 17.617188 28.550781 17.554688 C 28.566406 17.40625 28.566406 17.257812 28.550781 17.105469 L 28.550781 16.566406 L 29.660156 16.566406 L 29.660156 16.738281 C 29.675781 17.050781 29.644531 17.367188 29.570312 17.675781 C 29.492188 17.878906 29.347656 18.050781 29.160156 18.167969 C 28.921875 18.304688 28.648438 18.371094 28.371094 18.367188 C 28.09375 18.378906 27.820312 18.320312 27.570312 18.195312 C 27.375 18.09375 27.222656 17.917969 27.152344 17.707031 C 27.070312 17.398438 27.039062 17.082031 27.050781 16.765625 L 27.050781 15.515625 C 27.035156 15.289062 27.035156 15.058594 27.050781 14.828125 C 27.070312 14.664062 27.136719 14.507812 27.242188 14.378906 C 27.351562 14.230469 27.5 14.117188 27.671875 14.046875 C 27.871094 13.960938 28.089844 13.914062 28.3125 13.917969 C 28.59375 13.910156 28.871094 13.976562 29.121094 14.105469 C 29.3125 14.210938 29.457031 14.382812 29.53125 14.585938 C 29.613281 14.871094 29.644531 15.164062 29.628906 15.457031 L 29.628906 15.867188 Z M 32.429688 15.996094 L 32.429688 16.847656 C 32.457031 17.074219 32.457031 17.308594 32.429688 17.535156 C 32.402344 17.6875 32.332031 17.832031 32.230469 17.945312 C 32.128906 18.082031 31.988281 18.179688 31.828125 18.238281 C 31.648438 18.300781 31.460938 18.328125 31.269531 18.328125 C 31.070312 18.328125 30.871094 18.300781 30.679688 18.246094 C 30.535156 18.207031 30.402344 18.128906 30.300781 18.015625 C 30.207031 17.90625 30.140625 17.777344 30.101562 17.636719 C 30.046875 17.425781 30.015625 17.210938 30 16.996094 L 30 16.097656 C 29.988281 15.839844 30.023438 15.582031 30.101562 15.335938 C 30.175781 15.152344 30.308594 14.996094 30.480469 14.898438 C 30.695312 14.78125 30.9375 14.726562 31.179688 14.738281 C 31.386719 14.730469 31.59375 14.765625 31.789062 14.835938 C 31.945312 14.894531 32.082031 14.992188 32.191406 15.117188 C 32.277344 15.21875 32.34375 15.339844 32.378906 15.46875 C 32.402344 15.652344 32.402344 15.839844 32.378906 16.027344 Z M 31.371094 15.726562 C 31.386719 15.617188 31.386719 15.507812 31.371094 15.398438 C 31.351562 15.347656 31.300781 15.320312 31.25 15.328125 C 31.179688 15.328125 31.140625 15.328125 31.121094 15.398438 C 31.101562 15.507812 31.101562 15.617188 31.121094 15.726562 L 31.121094 17.308594 C 31.105469 17.414062 31.105469 17.519531 31.121094 17.625 C 31.136719 17.675781 31.1875 17.710938 31.238281 17.707031 C 31.308594 17.707031 31.351562 17.707031 31.371094 17.636719 C 31.386719 17.539062 31.386719 17.4375 31.371094 17.335938 Z M 35.210938 14.726562 L 35.210938 18.214844 L 34.128906 18.214844 L 34.128906 17.925781 C 34.066406 18.039062 33.972656 18.132812 33.859375 18.195312 C 33.746094 18.257812 33.617188 18.289062 33.488281 18.285156 C 33.351562 18.289062 33.214844 18.261719 33.089844 18.195312 C 32.992188 18.148438 32.914062 18.070312 32.859375 17.976562 C 32.8125 17.886719 32.777344 17.789062 32.761719 17.6875 C 32.761719 17.585938 32.761719 17.386719 32.761719 17.085938 L 32.761719 14.777344 L 33.820312 14.777344 L 33.820312 17.15625 C 33.808594 17.316406 33.808594 17.476562 33.820312 17.636719 C 33.847656 17.6875 33.902344 17.71875 33.960938 17.71875 C 34.019531 17.71875 34.070312 17.6875 34.097656 17.636719 C 34.109375 17.46875 34.109375 17.296875 34.097656 17.125 L 34.097656 14.777344 Z M 36.679688 14.726562 L 36.679688 15.058594 C 36.75 14.9375 36.84375 14.835938 36.960938 14.757812 C 37.078125 14.695312 37.214844 14.664062 37.347656 14.667969 C 37.507812 14.660156 37.667969 14.707031 37.800781 14.796875 C 37.910156 14.875 37.988281 14.988281 38.019531 15.117188 C 38.039062 15.332031 38.039062 15.550781 38.019531 15.765625 L 38.019531 18.214844 L 37 18.214844 L 37 15.847656 C 37.015625 15.703125 37.015625 15.558594 37 15.417969 C 37 15.355469 36.9375 15.335938 36.867188 15.335938 C 36.808594 15.328125 36.746094 15.367188 36.730469 15.425781 C 36.710938 15.585938 36.710938 15.746094 36.730469 15.90625 L 36.730469 18.265625 L 35.597656 18.265625 L 35.597656 14.777344 Z M 40.769531 16.046875 L 39.769531 16.046875 L 39.769531 15.648438 C 39.789062 15.550781 39.789062 15.453125 39.769531 15.355469 C 39.769531 15.308594 39.707031 15.285156 39.636719 15.285156 C 39.589844 15.28125 39.542969 15.304688 39.519531 15.347656 C 39.496094 15.445312 39.496094 15.546875 39.519531 15.648438 L 39.519531 17.285156 C 39.511719 17.382812 39.53125 17.476562 39.570312 17.566406 C 39.589844 17.625 39.644531 17.664062 39.707031 17.667969 C 39.777344 17.675781 39.839844 17.632812 39.859375 17.566406 C 39.882812 17.445312 39.882812 17.320312 39.859375 17.195312 L 39.859375 16.785156 L 40.859375 16.785156 C 40.871094 16.996094 40.871094 17.207031 40.859375 17.417969 C 40.832031 17.570312 40.769531 17.710938 40.679688 17.835938 C 40.582031 17.980469 40.445312 18.097656 40.289062 18.175781 C 40.101562 18.253906 39.902344 18.292969 39.699219 18.285156 C 39.453125 18.300781 39.207031 18.246094 38.988281 18.125 C 38.816406 18.03125 38.679688 17.878906 38.609375 17.695312 C 38.527344 17.441406 38.488281 17.175781 38.5 16.90625 L 38.5 15.996094 C 38.488281 15.769531 38.519531 15.542969 38.589844 15.328125 C 38.671875 15.152344 38.808594 15.007812 38.980469 14.917969 C 39.195312 14.800781 39.441406 14.742188 39.6875 14.746094 C 39.9375 14.742188 40.179688 14.800781 40.398438 14.917969 C 40.578125 15.015625 40.71875 15.175781 40.789062 15.367188 C 40.867188 15.613281 40.898438 15.871094 40.886719 16.125 Z M 42.167969 13.996094 L 42.167969 14.558594 L 41.078125 14.558594 L 41.078125 13.996094 Z M 42.167969 14.765625 L 42.167969 18.257812 L 41.078125 18.257812 L 41.078125 14.777344 Z M 43.648438 13.996094 L 43.648438 18.257812 L 42.558594 18.257812 L 42.558594 13.996094 Z M 43.648438 13.996094 "/>
<path style=" stroke:none;fill-rule:evenodd;fill:rgb(34.509804%,34.901961%,35.686275%);fill-opacity:1;" d="M 21.78125 21.175781 L 22.53125 21.175781 L 23.53125 24.625 L 22.773438 24.625 L 22.601562 23.90625 L 21.601562 23.90625 L 21.441406 24.625 L 20.753906 24.625 L 21.753906 21.175781 Z M 22.433594 23.316406 L 22.09375 21.90625 L 21.761719 23.316406 Z M 25.703125 22.996094 L 25.050781 22.996094 C 25.050781 22.875 25.027344 22.757812 24.980469 22.644531 C 24.945312 22.566406 24.859375 22.515625 24.769531 22.527344 C 24.542969 22.527344 24.421875 22.777344 24.421875 23.277344 C 24.40625 23.484375 24.4375 23.691406 24.511719 23.886719 C 24.546875 23.992188 24.648438 24.066406 24.761719 24.066406 C 24.941406 24.066406 25.03125 23.90625 25.050781 23.585938 L 25.703125 23.585938 C 25.640625 24.253906 25.3125 24.585938 24.703125 24.585938 C 24.417969 24.597656 24.140625 24.476562 23.960938 24.253906 C 23.769531 23.957031 23.683594 23.605469 23.710938 23.253906 C 23.683594 22.902344 23.78125 22.546875 23.980469 22.253906 C 24.160156 22.027344 24.441406 21.902344 24.730469 21.914062 C 25.324219 21.914062 25.65625 22.25 25.730469 22.914062 Z M 28.050781 22.996094 L 27.402344 22.996094 C 27.398438 22.875 27.375 22.757812 27.332031 22.644531 C 27.292969 22.570312 27.214844 22.523438 27.132812 22.527344 C 26.890625 22.527344 26.769531 22.777344 26.769531 23.277344 C 26.757812 23.484375 26.785156 23.691406 26.859375 23.886719 C 26.898438 23.992188 27 24.0625 27.109375 24.066406 C 27.289062 24.066406 27.390625 23.90625 27.402344 23.585938 L 28.050781 23.585938 C 27.992188 24.253906 27.660156 24.585938 27.050781 24.585938 C 26.765625 24.601562 26.488281 24.480469 26.3125 24.253906 C 26.117188 23.960938 26.023438 23.609375 26.050781 23.253906 C 26.023438 22.902344 26.121094 22.546875 26.320312 22.253906 C 26.5 22.027344 26.78125 21.902344 27.070312 21.914062 C 27.664062 21.914062 27.996094 22.25 28.070312 22.914062 Z M 28.53125 22.054688 L 29.152344 22.054688 L 29.152344 22.664062 C 29.261719 22.234375 29.449219 22.015625 29.742188 22.015625 L 29.859375 22.015625 L 29.859375 22.714844 L 29.742188 22.714844 C 29.402344 22.714844 29.230469 22.976562 29.230469 23.503906 L 29.230469 24.605469 L 28.53125 24.605469 Z M 32.121094 23.445312 L 30.808594 23.445312 L 30.808594 23.585938 C 30.792969 23.746094 30.824219 23.902344 30.898438 24.046875 C 30.957031 24.117188 31.046875 24.15625 31.140625 24.15625 C 31.351562 24.15625 31.46875 24.015625 31.488281 23.726562 L 32.121094 23.726562 C 32.105469 23.976562 31.992188 24.210938 31.804688 24.378906 C 31.617188 24.546875 31.371094 24.632812 31.121094 24.617188 C 30.820312 24.632812 30.527344 24.503906 30.339844 24.265625 C 30.148438 23.992188 30.054688 23.660156 30.070312 23.324219 C 30.050781 22.96875 30.152344 22.617188 30.359375 22.324219 C 30.535156 22.089844 30.816406 21.960938 31.109375 21.976562 C 31.378906 21.96875 31.636719 22.078125 31.820312 22.277344 C 32.046875 22.609375 32.148438 23.011719 32.109375 23.414062 Z M 31.460938 23.027344 L 31.460938 22.996094 C 31.460938 22.675781 31.351562 22.515625 31.128906 22.515625 C 30.921875 22.515625 30.808594 22.695312 30.808594 23.066406 Z M 33.859375 21.15625 L 34.539062 21.15625 L 34.539062 24.605469 L 33.890625 24.605469 L 33.890625 24.183594 C 33.832031 24.453125 33.59375 24.640625 33.320312 24.636719 C 33.070312 24.640625 32.835938 24.507812 32.71875 24.285156 C 32.578125 23.988281 32.507812 23.664062 32.519531 23.335938 C 32.496094 22.988281 32.574219 22.640625 32.75 22.335938 C 32.882812 22.128906 33.113281 22.003906 33.359375 22.003906 C 33.566406 21.992188 33.757812 22.097656 33.859375 22.277344 Z M 33.859375 23.15625 C 33.875 22.984375 33.847656 22.8125 33.78125 22.65625 C 33.734375 22.570312 33.644531 22.523438 33.550781 22.527344 C 33.4375 22.523438 33.335938 22.597656 33.308594 22.707031 C 33.257812 22.945312 33.238281 23.191406 33.25 23.433594 C 33.238281 23.632812 33.261719 23.828125 33.320312 24.015625 C 33.347656 24.117188 33.441406 24.1875 33.550781 24.183594 C 33.636719 24.183594 33.71875 24.144531 33.769531 24.074219 C 33.84375 23.933594 33.875 23.773438 33.859375 23.617188 Z M 35.859375 21.886719 L 35.148438 21.886719 L 35.148438 21.175781 L 35.859375 21.175781 Z M 35.148438 22.097656 L 35.859375 22.097656 L 35.859375 24.644531 L 35.148438 24.644531 L 35.148438 22.074219 Z M 36.570312 21.304688 L 37.25 21.304688 L 37.25 22.117188 L 37.71875 22.117188 L 37.71875 22.675781 L 37.25 22.675781 L 37.25 23.605469 C 37.238281 23.71875 37.238281 23.832031 37.25 23.945312 C 37.253906 23.996094 37.277344 24.042969 37.320312 24.074219 C 37.382812 24.113281 37.457031 24.128906 37.527344 24.125 L 37.730469 24.125 L 37.730469 24.664062 C 37.589844 24.695312 37.449219 24.710938 37.308594 24.714844 C 37.136719 24.726562 36.964844 24.6875 36.820312 24.59375 C 36.710938 24.519531 36.632812 24.410156 36.597656 24.285156 C 36.578125 24.085938 36.578125 23.886719 36.597656 23.683594 L 36.597656 22.6875 L 36.320312 22.6875 L 36.320312 22.125 L 36.597656 22.125 L 36.597656 21.335938 Z M 40.058594 23.484375 L 38.75 23.484375 L 38.75 23.625 C 38.734375 23.785156 38.765625 23.945312 38.839844 24.085938 C 38.898438 24.15625 38.984375 24.199219 39.078125 24.195312 C 39.289062 24.195312 39.410156 24.054688 39.429688 23.765625 L 40.058594 23.765625 C 40.019531 24.167969 39.742188 24.511719 39.355469 24.628906 C 38.964844 24.746094 38.546875 24.621094 38.289062 24.304688 C 38.097656 24.03125 38 23.699219 38.019531 23.367188 C 38 23.007812 38.101562 22.65625 38.308594 22.367188 C 38.484375 22.132812 38.765625 22.003906 39.058594 22.015625 C 39.328125 22.007812 39.585938 22.117188 39.769531 22.316406 C 39.996094 22.648438 40.097656 23.054688 40.058594 23.457031 Z M 39.398438 23.066406 L 39.398438 22.996094 C 39.398438 22.675781 39.289062 22.515625 39.078125 22.515625 C 38.867188 22.515625 38.75 22.695312 38.75 23.066406 Z M 41.796875 21.195312 L 42.488281 21.195312 L 42.488281 24.644531 L 41.828125 24.644531 L 41.828125 24.226562 C 41.769531 24.492188 41.53125 24.679688 41.257812 24.675781 C 41.007812 24.679688 40.777344 24.542969 40.660156 24.324219 C 40.519531 24.027344 40.453125 23.703125 40.46875 23.375 C 40.441406 23.027344 40.519531 22.679688 40.6875 22.375 C 40.808594 22.148438 41.042969 22.003906 41.296875 21.996094 C 41.503906 21.980469 41.699219 22.085938 41.796875 22.265625 L 41.796875 21.175781 Z M 41.796875 23.195312 C 41.8125 23.023438 41.785156 22.851562 41.71875 22.695312 C 41.671875 22.613281 41.582031 22.5625 41.488281 22.566406 C 41.375 22.5625 41.277344 22.636719 41.25 22.746094 C 41.195312 22.984375 41.175781 23.230469 41.1875 23.476562 C 41.175781 23.671875 41.199219 23.867188 41.257812 24.054688 C 41.285156 24.160156 41.382812 24.230469 41.488281 24.226562 C 41.574219 24.222656 41.65625 24.183594 41.707031 24.117188 C 41.78125 23.972656 41.8125 23.8125 41.796875 23.65625 Z M 41.796875 23.195312 "/>
<path style=" stroke:none;fill-rule:evenodd;fill:rgb(34.509804%,34.901961%,35.686275%);fill-opacity:1;" d="M 16.441406 27.382812 L 18.550781 27.382812 L 18.550781 27.996094 L 17.863281 27.996094 L 17.863281 30.804688 L 17.121094 30.804688 L 17.121094 27.996094 L 16.441406 27.996094 L 16.441406 27.355469 Z M 18.710938 28.285156 L 19.332031 28.285156 L 19.332031 28.894531 C 19.441406 28.464844 19.632812 28.246094 19.921875 28.246094 L 20.042969 28.246094 L 20.042969 28.996094 L 19.921875 28.996094 C 19.582031 28.996094 19.414062 29.253906 19.414062 29.785156 L 19.414062 30.882812 L 18.710938 30.882812 Z M 21.070312 29.09375 L 20.402344 28.996094 C 20.425781 28.757812 20.542969 28.539062 20.730469 28.394531 C 20.933594 28.257812 21.175781 28.1875 21.421875 28.195312 C 21.617188 28.183594 21.8125 28.234375 21.980469 28.335938 C 22.109375 28.398438 22.203125 28.511719 22.25 28.644531 C 22.300781 28.832031 22.320312 29.023438 22.3125 29.214844 L 22.3125 30.214844 C 22.292969 30.402344 22.292969 30.59375 22.3125 30.785156 L 21.703125 30.785156 C 21.679688 30.65625 21.679688 30.523438 21.703125 30.394531 C 21.585938 30.664062 21.316406 30.839844 21.023438 30.835938 C 20.84375 30.84375 20.671875 30.777344 20.542969 30.652344 C 20.414062 30.511719 20.347656 30.324219 20.363281 30.132812 C 20.347656 29.886719 20.449219 29.644531 20.640625 29.484375 C 20.9375 29.292969 21.289062 29.195312 21.640625 29.203125 L 21.640625 29.105469 C 21.652344 28.984375 21.632812 28.863281 21.582031 28.753906 C 21.582031 28.683594 21.492188 28.65625 21.390625 28.65625 C 21.292969 28.65625 21.113281 28.785156 21.101562 29.042969 Z M 21.613281 29.613281 C 21.457031 29.625 21.304688 29.671875 21.171875 29.753906 C 21.078125 29.839844 21.027344 29.964844 21.042969 30.09375 C 21.042969 30.3125 21.121094 30.425781 21.273438 30.425781 C 21.371094 30.417969 21.457031 30.359375 21.503906 30.273438 C 21.589844 30.113281 21.628906 29.929688 21.613281 29.746094 Z M 23.613281 28.074219 L 22.902344 28.074219 L 22.902344 27.363281 L 23.613281 27.363281 Z M 22.910156 28.285156 L 23.613281 28.285156 L 23.613281 30.835938 L 22.910156 30.835938 Z M 24.222656 28.285156 L 24.890625 28.285156 L 24.890625 28.632812 C 24.980469 28.460938 25.140625 28.332031 25.328125 28.277344 C 25.519531 28.222656 25.722656 28.246094 25.890625 28.34375 C 25.996094 28.410156 26.070312 28.515625 26.101562 28.632812 C 26.121094 28.808594 26.121094 28.988281 26.101562 29.164062 L 26.101562 30.835938 L 25.402344 30.835938 L 25.402344 29.164062 C 25.402344 28.984375 25.402344 28.882812 25.339844 28.84375 C 25.289062 28.800781 25.226562 28.78125 25.160156 28.785156 C 25.042969 28.785156 24.960938 28.785156 24.921875 28.894531 C 24.871094 29.035156 24.851562 29.183594 24.863281 29.335938 L 24.863281 30.835938 L 24.152344 30.835938 L 24.152344 28.285156 Z M 27.449219 28.074219 L 26.742188 28.074219 L 26.742188 27.363281 L 27.449219 27.363281 Z M 26.75 28.285156 L 27.449219 28.285156 L 27.449219 30.835938 L 26.75 30.835938 Z M 28.0625 28.285156 L 28.730469 28.285156 L 28.730469 28.632812 C 28.820312 28.460938 28.980469 28.332031 29.167969 28.277344 C 29.355469 28.222656 29.558594 28.246094 29.730469 28.34375 C 29.835938 28.410156 29.910156 28.515625 29.941406 28.632812 C 29.960938 28.808594 29.960938 28.988281 29.941406 29.164062 L 29.941406 30.835938 L 29.242188 30.835938 L 29.242188 29.164062 C 29.242188 28.984375 29.242188 28.882812 29.179688 28.84375 C 29.128906 28.800781 29.066406 28.78125 29 28.785156 C 28.878906 28.785156 28.800781 28.785156 28.761719 28.894531 C 28.710938 29.035156 28.691406 29.183594 28.699219 29.335938 L 28.699219 30.835938 L 27.992188 30.835938 L 27.992188 28.285156 Z M 32.71875 27.863281 L 32.71875 28.324219 L 32.570312 28.324219 C 32.433594 28.320312 32.320312 28.421875 32.308594 28.554688 C 32.429688 28.695312 32.496094 28.878906 32.488281 29.0625 C 32.5 29.28125 32.40625 29.488281 32.238281 29.625 C 32.050781 29.769531 31.816406 29.84375 31.582031 29.835938 C 31.472656 29.832031 31.363281 29.816406 31.261719 29.785156 C 31.148438 29.84375 31.089844 29.914062 31.089844 29.996094 C 31.09375 30.054688 31.132812 30.105469 31.191406 30.125 C 31.355469 30.152344 31.523438 30.167969 31.691406 30.175781 C 31.878906 30.179688 32.066406 30.203125 32.25 30.246094 C 32.375 30.28125 32.488281 30.359375 32.570312 30.464844 C 32.652344 30.589844 32.695312 30.742188 32.691406 30.894531 C 32.691406 31.464844 32.28125 31.753906 31.46875 31.753906 C 30.660156 31.753906 30.46875 31.554688 30.46875 31.144531 C 30.46875 30.925781 30.601562 30.765625 30.878906 30.675781 C 30.6875 30.605469 30.558594 30.425781 30.550781 30.222656 C 30.550781 30.003906 30.691406 29.824219 30.980469 29.664062 C 30.738281 29.550781 30.59375 29.300781 30.609375 29.035156 C 30.59375 28.808594 30.691406 28.59375 30.871094 28.453125 C 31.066406 28.308594 31.308594 28.234375 31.550781 28.253906 C 31.734375 28.25 31.921875 28.289062 32.089844 28.363281 C 32.09375 28.222656 32.140625 28.085938 32.230469 27.976562 C 32.316406 27.886719 32.4375 27.84375 32.558594 27.855469 C 32.621094 27.84375 32.6875 27.84375 32.75 27.855469 Z M 31.78125 28.996094 C 31.78125 28.722656 31.710938 28.585938 31.558594 28.585938 C 31.484375 28.578125 31.410156 28.617188 31.371094 28.683594 C 31.324219 28.789062 31.300781 28.902344 31.308594 29.015625 C 31.308594 29.265625 31.390625 29.394531 31.550781 29.394531 C 31.621094 29.402344 31.691406 29.367188 31.730469 29.304688 C 31.769531 29.207031 31.785156 29.101562 31.78125 28.996094 Z M 31.238281 30.695312 C 31.105469 30.734375 31.011719 30.855469 31 30.992188 C 31 31.164062 31.199219 31.242188 31.582031 31.242188 C 31.960938 31.242188 32.078125 31.164062 32.078125 30.984375 C 32.082031 30.921875 32.058594 30.859375 32.019531 30.8125 C 31.988281 30.777344 31.941406 30.75 31.890625 30.742188 C 31.773438 30.730469 31.65625 30.730469 31.539062 30.742188 L 31.21875 30.742188 Z M 35.699219 29.542969 L 36.390625 29.59375 C 36.375 29.929688 36.253906 30.246094 36.039062 30.503906 C 35.796875 30.746094 35.464844 30.875 35.121094 30.851562 C 34.78125 30.828125 34.464844 30.65625 34.257812 30.382812 C 34.019531 29.996094 33.90625 29.542969 33.929688 29.085938 C 33.90625 28.625 34.015625 28.171875 34.25 27.773438 C 34.472656 27.449219 34.855469 27.269531 35.25 27.304688 C 35.960938 27.304688 36.339844 27.746094 36.410156 28.632812 L 35.730469 28.632812 C 35.730469 28.125 35.550781 27.863281 35.25 27.863281 C 35.089844 27.871094 34.945312 27.96875 34.878906 28.113281 C 34.757812 28.433594 34.710938 28.773438 34.738281 29.113281 C 34.722656 29.414062 34.765625 29.714844 34.871094 29.996094 C 34.933594 30.144531 35.085938 30.238281 35.25 30.234375 C 35.519531 30.234375 35.679688 29.996094 35.730469 29.535156 Z M 38.789062 29.644531 L 37.480469 29.644531 L 37.480469 29.785156 C 37.464844 29.941406 37.496094 30.101562 37.570312 30.246094 C 37.625 30.320312 37.714844 30.359375 37.808594 30.355469 C 38.019531 30.355469 38.140625 30.214844 38.167969 29.925781 L 38.789062 29.925781 C 38.75 30.328125 38.472656 30.667969 38.085938 30.789062 C 37.695312 30.90625 37.277344 30.777344 37.019531 30.464844 C 36.660156 29.863281 36.660156 29.113281 37.019531 28.515625 C 37.199219 28.28125 37.476562 28.152344 37.769531 28.164062 C 38.042969 28.15625 38.308594 28.269531 38.488281 28.472656 C 38.714844 28.804688 38.8125 29.207031 38.769531 29.605469 Z M 38.128906 29.222656 L 38.128906 29.15625 C 38.128906 28.835938 38.027344 28.675781 37.808594 28.675781 C 37.589844 28.675781 37.488281 28.855469 37.488281 29.222656 Z M 39.308594 28.222656 L 40 28.222656 L 40 28.574219 C 40.097656 28.316406 40.355469 28.15625 40.628906 28.175781 C 40.773438 28.167969 40.917969 28.207031 41.039062 28.285156 C 41.136719 28.355469 41.207031 28.457031 41.238281 28.574219 C 41.257812 28.75 41.257812 28.929688 41.238281 29.105469 L 41.238281 30.773438 L 40.539062 30.773438 L 40.539062 29.164062 C 40.539062 28.984375 40.539062 28.882812 40.476562 28.84375 C 40.433594 28.804688 40.371094 28.78125 40.308594 28.785156 C 40.179688 28.785156 40.097656 28.785156 40.058594 28.894531 C 40.007812 29.035156 39.988281 29.183594 40 29.335938 L 40 30.835938 L 39.296875 30.835938 L 39.296875 28.285156 Z M 41.929688 27.433594 L 42.617188 27.433594 L 42.617188 28.246094 L 43.078125 28.246094 L 43.078125 28.804688 L 42.617188 28.804688 L 42.617188 29.734375 C 42.609375 29.847656 42.609375 29.960938 42.617188 30.074219 C 42.625 30.125 42.648438 30.171875 42.6875 30.203125 C 42.753906 30.242188 42.832031 30.257812 42.90625 30.253906 L 43.109375 30.253906 L 43.109375 30.792969 C 42.964844 30.824219 42.824219 30.839844 42.679688 30.84375 C 42.507812 30.855469 42.335938 30.816406 42.1875 30.722656 C 42.082031 30.648438 42.003906 30.539062 41.96875 30.414062 C 41.945312 30.214844 41.945312 30.011719 41.96875 29.8125 L 41.96875 28.816406 L 41.6875 28.816406 L 41.6875 28.253906 L 41.96875 28.253906 L 41.96875 27.496094 Z M 45.417969 29.613281 L 44.109375 29.613281 L 44.109375 29.753906 C 44.089844 29.914062 44.121094 30.074219 44.199219 30.214844 C 44.253906 30.289062 44.34375 30.328125 44.4375 30.324219 C 44.648438 30.324219 44.765625 30.183594 44.796875 29.894531 L 45.417969 29.894531 C 45.378906 30.296875 45.101562 30.640625 44.714844 30.757812 C 44.324219 30.875 43.90625 30.75 43.648438 30.433594 C 43.457031 30.160156 43.367188 29.828125 43.386719 29.496094 C 43.363281 29.140625 43.464844 28.785156 43.667969 28.496094 C 43.847656 28.261719 44.125 28.132812 44.417969 28.144531 C 44.691406 28.136719 44.953125 28.25 45.136719 28.453125 C 45.363281 28.785156 45.460938 29.1875 45.417969 29.585938 Z M 44.757812 29.195312 L 44.757812 29.125 C 44.757812 28.804688 44.648438 28.644531 44.4375 28.644531 C 44.226562 28.644531 44.117188 28.824219 44.109375 29.195312 Z M 45.925781 28.195312 L 46.546875 28.195312 L 46.546875 28.804688 C 46.65625 28.375 46.855469 28.15625 47.136719 28.15625 L 47.257812 28.15625 L 47.257812 28.996094 L 47.148438 28.996094 C 46.808594 28.996094 46.636719 29.253906 46.636719 29.785156 L 46.636719 30.882812 L 45.925781 30.882812 Z M 45.925781 28.195312 "/>
</g>
</svg>
