<svg xmlns="http://www.w3.org/2000/svg" width="101.115" height="19.204" viewBox="0 0 101.115 19.204"><path d="M131.727,90.862h7.983v3.685h-3.193V98.06H139.5v3.492h-2.987v4.058h3.519v3.679H131.72V90.862ZM152.582,98.9h-4.8V95.7a5.614,5.614,0,0,0-.153-1.743.834.834,0,0,0-1.4.08,6.353,6.353,0,0,0-.16,1.816V104.4a5.987,5.987,0,0,0,.16,1.756.8.8,0,0,0,1.4,0,6.891,6.891,0,0,0,.16-1.929v-2.315h4.8v.718a14.3,14.3,0,0,1-.4,4.058,4.151,4.151,0,0,1-1.789,2.1,6.127,6.127,0,0,1-3.406.9,7.1,7.1,0,0,1-3.473-.758,3.745,3.745,0,0,1-1.809-2.115,13.969,13.969,0,0,1-.439-4.051V97.382a25,25,0,0,1,.133-2.987,4.178,4.178,0,0,1,.818-1.916,4.57,4.57,0,0,1,1.876-1.45,7.663,7.663,0,0,1,6.253.286,3.991,3.991,0,0,1,1.809,2.042,12.359,12.359,0,0,1,.426,3.8V98.9Zm7.191,1.244v3.166h-5.987v-3.166Zm12.566-1.257h-4.8V95.7a5.84,5.84,0,0,0-.153-1.743.834.834,0,0,0-1.4.08,6.353,6.353,0,0,0-.16,1.816V104.4a5.988,5.988,0,0,0,.16,1.756.8.8,0,0,0,1.4,0,6.545,6.545,0,0,0,.166-1.929v-2.315h4.8v.718a13.97,13.97,0,0,1-.406,4.058,4.165,4.165,0,0,1-1.783,2.1,6.127,6.127,0,0,1-3.406.9,7.1,7.1,0,0,1-3.473-.758,3.692,3.692,0,0,1-1.809-2.115,13.916,13.916,0,0,1-.446-4.051V97.382a23.385,23.385,0,0,1,.14-2.987,4.165,4.165,0,0,1,.812-1.916,4.57,4.57,0,0,1,1.863-1.457,7.664,7.664,0,0,1,6.253.286A3.932,3.932,0,0,1,171.9,93.35a12.313,12.313,0,0,1,.432,3.8V98.9Zm11.974.6v3.7a16.055,16.055,0,0,1-.2,2.987,4.285,4.285,0,0,1-.878,1.776,3.992,3.992,0,0,1-1.723,1.217,6.912,6.912,0,0,1-2.415.392,8.754,8.754,0,0,1-2.581-.333,3.546,3.546,0,0,1-1.643-1.018,3.991,3.991,0,0,1-.838-1.643,12.372,12.372,0,0,1-.246-2.88V99.81a9.612,9.612,0,0,1,.452-3.326,3.818,3.818,0,0,1,1.636-1.9,5.774,5.774,0,0,1,3.027-.718,6.919,6.919,0,0,1,2.661.459,4.311,4.311,0,0,1,1.71,1.2,4.137,4.137,0,0,1,.825,1.523,9.592,9.592,0,0,1,.22,2.395Zm-4.583-1.138a5.121,5.121,0,0,0-.126-1.464.526.526,0,0,0-.539-.3.552.552,0,0,0-.552.3,4.791,4.791,0,0,0-.133,1.464v6.812a4.565,4.565,0,0,0,.133,1.39.632.632,0,0,0,1.084,0,3.892,3.892,0,0,0,.133-1.277V98.359Zm16.631-4.164v15.094H191.7l.08-1.257A3.1,3.1,0,0,1,189,109.555a3.566,3.566,0,0,1-1.716-.366,2.368,2.368,0,0,1-1.011-.965,3.605,3.605,0,0,1-.4-1.257c-.053-.439-.08-1.33-.08-2.6V94.2h4.59v10.271a10.738,10.738,0,0,0,.106,2.1c.073.22.266.326.585.326s.545-.113.605-.339a12.64,12.64,0,0,0,.1-2.2V94.2Zm6.32,0-.067,1.4a3.493,3.493,0,0,1,1.224-1.264A3.233,3.233,0,0,1,205.5,93.9a3.153,3.153,0,0,1,1.936.559,2.442,2.442,0,0,1,.965,1.4,12.673,12.673,0,0,1,.22,2.827v10.584h-4.59V98.812a9.976,9.976,0,0,0-.1-1.9c-.067-.226-.259-.339-.572-.339a.572.572,0,0,0-.625.392,10.244,10.244,0,0,0-.12,2.1v10.2h-4.59V94.2Zm17.7,5.721h-4.331V98.147a3.327,3.327,0,0,0-.153-1.231.552.552,0,0,0-.559-.326.545.545,0,0,0-.545.279,3.579,3.579,0,0,0-.14,1.277v7.118a2.694,2.694,0,0,0,.206,1.211.706.706,0,0,0,1.284-.013,4.922,4.922,0,0,0,.166-1.59v-1.789h4.071a21.993,21.993,0,0,1-.133,2.714,4.224,4.224,0,0,1-.765,1.849,3.991,3.991,0,0,1-1.676,1.43,7.258,7.258,0,0,1-5.661-.186,3.672,3.672,0,0,1-1.61-1.863,9.719,9.719,0,0,1-.472-3.413V99.331a8.269,8.269,0,0,1,.386-2.907,3.765,3.765,0,0,1,1.656-1.743,5.828,5.828,0,0,1,3.08-.772,5.914,5.914,0,0,1,3.073.765,3.725,3.725,0,0,1,1.7,1.923,9.977,9.977,0,0,1,.426,3.326Zm6.074-9.04v2.4h-4.743v-2.4Zm0,3.326v15.094h-4.743V94.2Zm6.38-3.326v18.427h-4.73V90.862Z" transform="translate(-131.72 -90.489)" fill="#fff" fill-rule="evenodd"/></svg>