<?xml version="1.0" standalone="no"?>
<!DOCTYPE svg PUBLIC "-//W3C//DTD SVG 20010904//EN"
 "http://www.w3.org/TR/2001/REC-SVG-20010904/DTD/svg10.dtd">
<svg version="1.0" xmlns="http://www.w3.org/2000/svg"
 width="110" height="15" viewBox="0 0 2817.000000 617.000000"
 preserveAspectRatio="xMidYMid meet">

<g transform="translate(0.000000,617.000000) scale(0.100000,-0.100000)"
fill="#a51c30" stroke="none">
<path d="M23320 5989 c-247 -17 -382 -105 -456 -295 -25 -66 -26 -77 -27 -264
0 -188 1 -197 27 -260 32 -80 87 -153 148 -200 123 -92 399 -121 595 -60 140
43 236 144 285 301 20 64 23 95 23 224 -1 164 -15 233 -72 337 -51 93 -173
174 -298 198 -33 6 -76 15 -95 18 -19 4 -78 4 -130 1z"/>
<path d="M7205 5750 c-433 -28 -762 -55 -772 -63 -10 -7 -13 -154 -13 -674 0
-740 5 -696 -68 -655 -43 23 -318 92 -477 119 -88 14 -164 18 -385 18 -265 0
-280 -1 -404 -28 -243 -54 -419 -125 -576 -236 -91 -64 -266 -242 -325 -331
-61 -92 -175 -313 -186 -360 -4 -19 -22 -73 -38 -120 -31 -87 -36 -108 -89
-380 -78 -403 -61 -1224 34 -1635 31 -133 66 -260 80 -287 8 -15 14 -34 14
-43 0 -30 128 -284 190 -377 112 -168 258 -292 447 -379 48 -23 95 -45 104
-49 9 -5 34 -11 55 -15 22 -3 66 -12 99 -20 33 -8 125 -19 205 -25 121 -10
167 -9 276 4 72 8 142 19 155 24 13 5 45 12 71 16 26 4 50 11 53 15 2 5 21 12
42 16 47 8 93 27 223 92 177 88 354 215 491 355 37 38 71 68 77 68 11 0 63
-93 174 -310 38 -74 77 -145 87 -158 l17 -23 298 -1 c240 0 300 3 307 14 5 7
9 1228 9 2714 0 2087 -3 2703 -12 2712 -7 7 -23 11 -37 10 -15 -1 -71 -4 -126
-8z m-1335 -1995 c112 -5 198 -22 323 -61 43 -13 84 -24 90 -24 7 0 40 -12 75
-26 l62 -27 0 -1104 0 -1105 -41 -46 c-59 -69 -205 -197 -279 -247 -80 -53
-190 -108 -250 -124 -25 -7 -67 -19 -95 -28 -33 -10 -91 -15 -175 -15 -111 0
-135 3 -216 29 -175 57 -301 170 -398 356 -52 101 -125 316 -132 391 -3 28
-15 101 -26 161 -19 98 -21 147 -21 445 1 266 4 355 17 430 9 52 21 127 26
165 13 94 82 307 130 401 64 123 134 208 228 276 46 32 96 64 110 69 15 5 36
14 47 19 67 32 183 59 277 65 56 3 104 8 107 11 3 2 12 2 20 -1 9 -3 64 -7
121 -10z"/>
<path d="M19535 5750 c-361 -22 -762 -55 -772 -63 -17 -13 -19 -5362 -2 -5372
16 -10 433 -9 451 1 17 10 75 76 161 183 l58 72 37 -22 c61 -37 175 -99 212
-115 19 -9 53 -24 75 -34 83 -37 122 -52 205 -80 156 -51 188 -60 267 -70 43
-6 89 -15 103 -20 14 -5 63 -11 110 -14 47 -3 123 -8 170 -12 95 -7 336 10
420 31 30 7 75 16 100 19 127 18 334 105 475 199 77 52 252 223 316 308 98
132 226 389 246 492 3 18 11 43 18 57 16 32 61 223 75 315 34 223 63 567 62
730 -1 142 -37 597 -52 660 -6 22 -15 72 -20 112 -11 79 -54 252 -70 283 -5
10 -10 28 -10 40 0 12 -7 36 -15 53 -8 18 -32 74 -54 125 -74 173 -188 349
-300 465 -31 33 -99 90 -152 127 -182 131 -326 193 -574 246 -115 24 -157 28
-360 32 -213 4 -242 2 -385 -22 -85 -14 -186 -33 -225 -42 -72 -17 -326 -99
-359 -116 -12 -6 -22 -6 -28 0 -6 6 -9 268 -8 706 0 478 -3 702 -10 716 -6 12
-20 19 -33 18 -12 -1 -71 -4 -132 -8z m1145 -2023 c113 -38 161 -62 247 -126
163 -120 272 -291 341 -536 65 -229 73 -301 76 -665 3 -400 -9 -515 -80 -768
-43 -151 -128 -311 -226 -424 -73 -83 -262 -208 -316 -208 -11 0 -36 -7 -57
-16 -92 -38 -310 -51 -475 -29 -63 9 -216 45 -275 66 -84 29 -194 83 -200 98
-9 22 -6 2494 2 2501 17 15 194 70 328 102 124 30 186 35 380 32 160 -2 188
-5 255 -27z"/>
<path d="M329 5509 c-11 -7 -12 -5190 -1 -5201 6 -6 2660 -13 3070 -8 10 0 12
78 10 372 l-3 373 -1044 2 c-575 1 -1051 5 -1058 7 -19 8 -19 1526 0 1526 6 0
406 0 888 0 686 0 879 3 887 13 6 8 9 140 8 365 -1 302 -3 354 -16 362 -9 6
-362 9 -885 10 -478 0 -876 0 -883 0 -10 0 -12 146 -10 715 l3 716 964 0 c630
0 970 3 982 10 18 9 19 27 19 374 0 285 -3 365 -12 365 -282 4 -2913 3 -2919
-1z"/>
<path d="M9765 4490 c-373 -11 -618 -70 -857 -207 -157 -89 -313 -234 -408
-379 -58 -89 -146 -267 -166 -334 -21 -72 -44 -142 -59 -176 -8 -18 -11 -35
-7 -39 13 -13 73 -34 195 -70 67 -19 178 -53 247 -74 69 -21 143 -43 165 -49
22 -6 59 -16 82 -23 53 -16 58 -11 78 67 76 295 263 478 550 535 28 6 109 10
180 10 109 0 143 -4 211 -25 142 -42 230 -97 295 -184 110 -145 154 -344 144
-642 -4 -90 -11 -170 -16 -176 -5 -7 -35 -15 -67 -19 -31 -3 -73 -10 -92 -15
-19 -5 -91 -16 -160 -24 -69 -9 -147 -20 -175 -26 -57 -11 -224 -36 -370 -54
-123 -16 -201 -30 -327 -62 -53 -13 -105 -24 -116 -24 -32 0 -377 -118 -451
-154 -363 -176 -559 -466 -612 -902 -29 -248 34 -579 149 -773 147 -249 399
-415 687 -453 39 -5 100 -14 137 -20 152 -25 511 17 703 84 116 40 341 157
449 232 60 43 156 120 213 173 59 54 107 92 112 87 4 -5 61 -106 125 -224 65
-118 126 -224 136 -234 18 -18 35 -19 314 -18 163 0 300 3 306 7 13 8 13 2853
0 2970 -29 264 -73 422 -161 584 -76 139 -223 298 -354 383 -69 46 -226 122
-304 149 -71 25 -326 77 -431 88 -47 5 -92 11 -100 13 -8 2 -118 1 -245 -2z
m647 -2500 c3 -63 6 -223 7 -355 l0 -239 -77 -74 c-42 -40 -106 -97 -142 -127
-69 -57 -272 -182 -330 -204 -182 -69 -249 -83 -425 -92 -53 -3 -201 24 -238
43 -161 81 -249 225 -249 410 -1 216 127 413 333 512 108 52 395 129 522 140
43 4 90 12 105 17 26 11 57 16 321 58 68 11 126 23 129 26 3 3 13 4 22 3 12
-3 16 -26 22 -118z"/>
<path d="M14325 4479 c-126 -19 -313 -60 -358 -79 -12 -5 -62 -25 -112 -44
-240 -92 -451 -245 -630 -456 -95 -112 -103 -120 -119 -120 -8 0 -18 10 -22
23 -4 12 -32 65 -64 117 -31 52 -98 165 -149 251 -51 86 -105 171 -119 189
l-27 32 -209 0 c-114 0 -212 -4 -217 -9 -12 -12 -12 -4064 0 -4076 10 -10 924
-12 940 -2 8 4 11 442 11 1429 l0 1422 88 86 c170 167 417 298 667 356 190 44
294 62 393 68 l102 7 0 403 c0 388 -1 404 -19 414 -11 5 -21 10 -23 9 -2 -1
-61 -10 -133 -20z"/>
<path d="M16225 4488 c-286 -8 -412 -28 -620 -100 -49 -17 -94 -34 -100 -38
-5 -4 -21 -11 -35 -15 -78 -23 -287 -172 -374 -265 -106 -115 -201 -271 -278
-455 -46 -108 -85 -252 -72 -265 15 -14 475 -160 572 -180 24 -5 65 -17 91
-27 62 -21 77 -14 86 39 8 47 46 144 87 224 55 106 169 219 276 273 23 12 86
33 139 47 81 22 119 26 224 26 213 0 354 -51 475 -172 137 -136 172 -253 181
-607 6 -254 4 -263 -48 -263 -16 0 -75 -9 -132 -19 -56 -11 -140 -24 -187 -30
-47 -6 -155 -22 -240 -36 -85 -14 -195 -30 -245 -36 -96 -11 -178 -26 -345
-65 -58 -13 -113 -24 -123 -24 -20 0 -285 -83 -332 -105 -240 -109 -315 -155
-422 -262 -124 -124 -193 -239 -249 -412 -50 -155 -57 -216 -51 -466 4 -202 7
-227 31 -310 51 -169 67 -206 144 -330 47 -76 193 -214 277 -264 139 -82 226
-110 435 -141 161 -24 255 -25 415 -5 167 21 401 77 440 105 6 4 27 13 47 19
127 41 399 221 546 362 52 49 98 89 102 89 5 0 45 -69 89 -153 44 -83 92 -172
106 -197 14 -25 32 -59 40 -76 27 -59 20 -58 346 -56 164 0 304 4 309 7 12 7
12 2766 1 2945 -14 211 -72 429 -160 595 -55 106 -156 242 -213 288 -22 18
-54 44 -71 58 -53 43 -119 85 -187 118 -36 18 -76 38 -90 45 -77 39 -344 103
-509 121 -73 9 -136 16 -140 18 -3 1 -109 -1 -236 -5z m643 -2380 c9 -9 12
-105 12 -368 l0 -357 -107 -96 c-134 -120 -254 -203 -397 -272 -151 -73 -211
-91 -346 -105 -137 -15 -116 -14 -223 -1 -189 22 -319 137 -368 323 -24 94
-24 156 1 247 63 226 204 363 455 438 137 42 316 83 360 83 20 0 75 9 123 20
110 24 290 57 362 66 30 4 66 13 80 20 31 17 33 17 48 2z"/>
<path d="M26225 4490 c-220 -7 -348 -22 -492 -60 -296 -77 -545 -229 -697
-424 -132 -168 -212 -333 -291 -595 -13 -44 -14 -56 -3 -63 13 -8 225 -77 378
-122 47 -14 103 -32 125 -40 22 -8 54 -15 70 -16 17 0 50 -9 74 -20 74 -34 94
-25 106 45 8 46 44 142 80 212 100 197 295 319 547 342 328 30 578 -91 680
-329 50 -119 59 -173 68 -435 9 -249 5 -275 -43 -275 -12 0 -67 -9 -122 -19
-55 -10 -136 -22 -180 -26 -44 -3 -96 -10 -115 -15 -42 -11 -274 -47 -420 -66
-58 -7 -157 -24 -220 -38 -63 -13 -142 -30 -175 -37 -149 -30 -442 -135 -565
-202 -130 -72 -290 -213 -352 -312 -158 -252 -204 -468 -179 -830 16 -227 62
-375 173 -550 73 -115 254 -269 383 -326 145 -63 416 -106 612 -96 293 15 567
92 799 224 114 64 291 198 387 290 64 63 80 73 92 63 8 -7 15 -17 15 -22 0 -5
20 -44 43 -86 24 -42 77 -139 118 -214 43 -81 82 -140 94 -145 19 -9 603 -8
612 0 6 6 4 3008 -2 3018 -3 4 -15 59 -26 121 -11 62 -29 145 -40 183 -28 96
-119 279 -173 352 -104 138 -324 316 -438 355 -18 6 -37 14 -43 18 -23 16
-168 61 -270 84 -119 26 -157 33 -280 46 -44 5 -87 10 -95 12 -8 2 -114 1
-235 -2z m641 -2391 c4 -6 7 -168 7 -361 l0 -349 -24 -26 c-159 -173 -426
-346 -644 -418 -64 -21 -243 -49 -305 -47 -170 3 -308 63 -389 168 -58 76 -85
156 -89 267 -6 166 46 296 171 420 95 95 195 142 432 201 99 24 212 47 252 51
40 3 87 11 105 16 41 12 155 33 317 59 68 10 126 22 129 25 9 9 30 6 38 -6z"/>
<path d="M22885 4382 c-11 -29 -5 -4071 6 -4077 13 -9 925 -8 939 0 12 8 14
4054 1 4073 -12 19 -938 23 -946 4z"/>
</g>
</svg>
