<svg xmlns="http://www.w3.org/2000/svg" viewBox="0 0 135 45" width="135" height="45"><defs><style>.cls-1{fill:#febc17;}.cls-2{fill:#283878;}</style></defs><g id="Layer_2" data-name="Layer 2"><g id="Layer_1-2" data-name="Layer 1"><g id="Layer_4" data-name="Layer 4"><rect class="cls-1" x="129.2" y="13.93" width="5.8" height="31.07"/><polygon class="cls-1" points="116.11 29.01 125.74 16.17 125.74 14.04 120.12 14.04 112.58 24.4 105.05 14.04 99.43 14.04 99.43 16.17 109.05 29.01 98.63 42.87 98.63 45 104.19 45 112.58 33.55 120.97 45 126.53 45 126.53 42.87 116.11 29.01"/><path class="cls-1" d="M84.26,13.14c-9.1,0-15.7,6.74-15.7,16S75,45,84.26,45,100,38.49,100,29.18,93.35,13.14,84.26,13.14Zm0,5.63c5.77,0,9.95,4.38,9.95,10.41s-4,10.08-9.95,10.08-10-4-10-10.08S78.49,18.77,84.26,18.77Z"/><path class="cls-2" d="M76,36.87a4,4,0,1,0,4,4A3.89,3.89,0,0,0,76,36.87Z"/><path class="cls-2" d="M59.9,0V16.5a15.8,15.8,0,0,0-10-3.36c-9.09,0-15.69,6.74-15.69,16S40.7,45,49.94,45c8.67,0,14.91-5.75,15.63-14.17l.07-2.32V0ZM50,39.26c-6,0-10-4-10-10.08s4.18-10.41,10-10.41,9.95,4.38,9.95,10.41S55.9,39.26,50,39.26Z"/><path class="cls-2" d="M27.5,17.83c-2.76-3-6.95-4.72-11.8-4.72C6.75,13.11,0,20,0,29S6.6,44.91,15.7,44.91c5.36,0,10.44-2.28,13.24-6l.9-1.18-4.35-3.48-.94,1.24c-1.62,2.15-5.26,3.64-8.85,3.64-4.1,0-8.43-2.28-9.6-7.32H30.86L31,30.49C31.5,25.29,30.3,20.92,27.5,17.83ZM6.11,26.4a9.53,9.53,0,0,1,9.59-7.72c5.61,0,9.07,2.79,9.69,7.72Z"/></g></g></g></svg>