<svg xmlns="http://www.w3.org/2000/svg" width="50.667" height="48.239" viewBox="0 0 50.667 48.239"><g transform="translate(0)"><path d="M349.413,42.876c.023,0,.047,0,.071,0a.872.872,0,0,0,.12-.009,1.947,1.947,0,0,1,1.907,1.944.871.871,0,0,0,1.742,0,3.693,3.693,0,0,0-2.9-3.6v-.837a.871.871,0,1,0-1.742,0v.877a3.688,3.688,0,0,0,.953,7.25,1.946,1.946,0,1,1-1.946,1.946.871.871,0,0,0-1.742,0,3.694,3.694,0,0,0,2.735,3.562v.954a.871.871,0,1,0,1.742,0v-.914a3.688,3.688,0,0,0-.789-7.29,1.945,1.945,0,0,1-.152-3.884Zm0,0" transform="translate(-310.732 -35.245)" fill="#ffbc05"/><path d="M39.013.39A11.778,11.778,0,0,0,28.039,8.1H7.665a.858.858,0,0,0-.821.858l-.194,28.8H.842A.807.807,0,0,0,0,38.535v3.654a6.448,6.448,0,0,0,6.157,6.422v.018H31.5V48.6c.205.008.29.024.42.024h.018a6.448,6.448,0,0,0,6.438-6.448V23.7c.205.011.422.017.635.017a11.666,11.666,0,0,0,0-23.332ZM6.469,46.987H6.463A4.828,4.828,0,0,1,1.642,42.18V39.394H25.447v2.775a6.44,6.44,0,0,0,1.9,4.563c.086.086.193.153.283.255ZM36.734,42.18a4.806,4.806,0,0,1-4.8,4.807h-.016a4.842,4.842,0,0,1-4.833-4.817V38.535a.758.758,0,0,0-.784-.782H8.292L8.48,9.74h19.1a12.334,12.334,0,0,0-.225,2.28,11.576,11.576,0,0,0,.991,4.7H20.6a.821.821,0,0,0,0,1.642H29.24A11.584,11.584,0,0,0,36.734,23.5Zm2.279-20.1A10.013,10.013,0,1,1,49.026,12.068,10.012,10.012,0,0,1,39.013,22.081Zm0,0" transform="translate(0 -0.39)" fill="#ffbc05"/><path d="M126.549,212.746a2.7,2.7,0,1,0,2.788,2.7A2.748,2.748,0,0,0,126.549,212.746Zm0,3.657a.961.961,0,1,1,1.046-.957A1.005,1.005,0,0,1,126.549,216.4Zm0,0" transform="translate(-111.152 -191.113)" fill="#ffbc05"/><path d="M192.719,230.375a.871.871,0,0,0,.871.871H205.2a.871.871,0,1,0,0-1.742H193.59A.871.871,0,0,0,192.719,230.375Zm0,0" transform="translate(-173.344 -206.045)" fill="#ffbc05"/><path d="M126.549,143.2a2.7,2.7,0,1,0,2.788,2.7A2.748,2.748,0,0,0,126.549,143.2Zm0,3.657a.961.961,0,1,1,1.046-.957,1.005,1.005,0,0,1-1.046.957Zm0,0" transform="translate(-111.152 -128.655)" fill="#ffbc05"/><path d="M126.549,282.281a2.7,2.7,0,1,0,2.788,2.7A2.748,2.748,0,0,0,126.549,282.281Zm0,3.657a.961.961,0,1,1,1.046-.957A1.005,1.005,0,0,1,126.549,285.938Zm0,0" transform="translate(-111.152 -253.565)" fill="#ffbc05"/><path d="M205.2,299.5H193.59a.871.871,0,1,0,0,1.742H205.2a.871.871,0,1,0,0-1.742Zm0,0" transform="translate(-173.344 -268.878)" fill="#ffbc05"/></g></svg>