<svg xmlns="http://www.w3.org/2000/svg" width="31.271" height="35.544" viewBox="0 0 31.271 35.544"><g transform="translate(0.25 512.13)"><path d="M42.625-511.772a13.519,13.519,0,0,0-10.49,7.836A12.874,12.874,0,0,0,31-498.445a13.068,13.068,0,0,0,2.2,7.419,23.937,23.937,0,0,1,3.877,12.185c.048,1.142.075,1.34.2,1.539.308.492-.075.465,6.031.465,5.1,0,5.5-.007,5.689-.123.315-.185.444-.465.527-1.142a3.2,3.2,0,0,1,2.12-2.722c.356-.13.561-.144,2.845-.164,2.742-.027,2.776-.027,3.063-.492.15-.246.15-.287.185-3.357l.034-3.111.219-.465a3.106,3.106,0,0,1,2.523-1.764c.944-.116,1.258-.39,1.258-1.1v-.376l-2.12-3.159-2.12-3.159.007-1.45a7.93,7.93,0,0,0-.356-3.009,12.832,12.832,0,0,0-1.915-3.768,18.617,18.617,0,0,0-2.585-2.722,13.185,13.185,0,0,0-6.441-2.824A21.313,21.313,0,0,0,42.625-511.772Zm3.207,2.12a12.356,12.356,0,0,1,2.53.643,10.706,10.706,0,0,1,3.843,2.557,10.753,10.753,0,0,1,2.79,4.458,9.208,9.208,0,0,1,.486,3.405v1.347l.26.41c.321.52,2.694,4.062,3,4.479l.226.315-.595.3a3.873,3.873,0,0,0-1.21.916,4.8,4.8,0,0,0-1.292,1.969l-.212.561-.021,2.612-.021,2.619h-1.9c-2.147,0-2.537.062-3.467.52a5.333,5.333,0,0,0-2.722,3.46l-.041.191H39.226l-.048-.732a27.37,27.37,0,0,0-1.655-7.611,31.141,31.141,0,0,0-2.291-4.582,12.92,12.92,0,0,1-1.559-3.118,11.343,11.343,0,0,1-.075-6.824,11.069,11.069,0,0,1,2.7-4.547A11.048,11.048,0,0,1,45.832-509.652Z" transform="translate(-31)" fill="#ffbc05" stroke="#fff" stroke-width="0.5"/><path d="M123.892-435.594a5.957,5.957,0,0,0-3.246,1.5c-.139.233-.146.372-.146,4.982s.007,4.748.146,4.982a1.054,1.054,0,0,0,.97.525,1.886,1.886,0,0,0,.977-.328,4.721,4.721,0,0,1,4.15-.248l.357.153v1.561c0,.861-.007,1.561-.022,1.561a3.368,3.368,0,0,1-.328-.146,4.5,4.5,0,0,0-2.225-.365c-1.218,0-1.393.051-1.678.511-.146.233-.16.343-.153,1.276a4.594,4.594,0,0,0,.511,2.458,4.526,4.526,0,0,0,2.772,2.2,19.534,19.534,0,0,0,4.427,0,4.473,4.473,0,0,0,3.144-3.136,6.631,6.631,0,0,0,.117-1.524c0-.948-.015-1.109-.146-1.313-.277-.445-.474-.5-1.86-.46a3.915,3.915,0,0,0-2.276.474c-.073.029-.095-.306-.095-1.532v-1.568l.357-.153a4.7,4.7,0,0,1,4.143.248,1.787,1.787,0,0,0,.985.328,1.016,1.016,0,0,0,.941-.481c.131-.2.139-.43.139-5.026,0-5.4.036-5.011-.547-5.412a8.671,8.671,0,0,0-2.079-.912,5.464,5.464,0,0,0-1.714-.168,5.9,5.9,0,0,0-2.757.5l-.569.248-.481-.219a6.011,6.011,0,0,0-2.611-.532C124.534-435.616,123.994-435.608,123.892-435.594Zm2.028,2.327a6.459,6.459,0,0,1,.824.263l.357.153v3.166c0,1.743-.007,3.166-.015,3.166s-.336-.066-.715-.146a7.849,7.849,0,0,0-1.459-.146,7.849,7.849,0,0,0-1.459.146c-.379.08-.7.146-.708.146s-.022-1.422-.022-3.166v-3.166l.365-.153A4.843,4.843,0,0,1,125.919-433.267Zm6.565,0a6.458,6.458,0,0,1,.824.263l.357.153v3.166c0,1.743-.007,3.166-.015,3.166s-.336-.066-.715-.146a7.849,7.849,0,0,0-1.459-.146,7.849,7.849,0,0,0-1.459.146c-.379.08-.7.146-.708.146s-.022-1.422-.022-3.166v-3.166l.365-.153A4.843,4.843,0,0,1,132.484-433.267Zm-6.805,14.238a2.208,2.208,0,0,1,1.335,1.648l.036.292-.292-.036a2.157,2.157,0,0,1-1.751-1.743c-.036-.263-.029-.284.139-.284A2.39,2.39,0,0,1,125.679-419.029Zm5.7.16a2.141,2.141,0,0,1-1.736,1.736c-.263.036-.284.029-.284-.139a2.145,2.145,0,0,1,1.853-1.875C131.419-419.153,131.419-419.146,131.383-418.869Z" transform="translate(-114.739 -70.667)" fill="#ffbc05" stroke="#fff" stroke-width="0.5"/></g></svg>