<svg xmlns="http://www.w3.org/2000/svg" width="33.766" height="35.593" viewBox="0 0 33.766 35.593"><g transform="translate(-13.387 512.25)"><path d="M148.227-510.844v1.149l-.267.072a2.635,2.635,0,0,1-.332.079,7.142,7.142,0,0,0-1.373.593,1.774,1.774,0,0,1-.434.2,6.331,6.331,0,0,1-.86-.773l-.78-.78-.759.759-.759.759.809.809.817.817-.13.2a7.35,7.35,0,0,0-.744,1.706l-.116.484H141v2.168h2.3l.123.513a7.348,7.348,0,0,0,.484,1.207l.347.694-.795.8-.795.795.773.78.78.773.809-.809.817-.817.2.13a7.594,7.594,0,0,0,1.705.737l.484.13v2.291h2.168v-2.284l.556-.166a7.748,7.748,0,0,0,1.669-.737c.152-.094.21-.051.976.715l.809.809.759-.759.759-.759-.78-.78a7.335,7.335,0,0,1-.773-.846,4.079,4.079,0,0,1,.282-.614,6.61,6.61,0,0,0,.585-1.5l.079-.3h2.305v-2.168h-2.305l-.079-.311a7.36,7.36,0,0,0-.679-1.662l-.238-.4.817-.817.824-.824-.773-.773-.78-.78-.831.824c-.788.788-.838.824-.976.723a6.209,6.209,0,0,0-1.893-.824l-.311-.079V-512h-2.168Zm2.06,3.36a3.9,3.9,0,0,1,1.771,1.048,3.9,3.9,0,0,1-1.763,6.54,4.711,4.711,0,0,1-2.305-.094,4.122,4.122,0,0,1-2.443-2.537,4.85,4.85,0,0,1-.065-2.067,4.076,4.076,0,0,1,2.826-2.883A4.81,4.81,0,0,1,150.286-507.483Z" transform="translate(-119.144)" fill="#ffbc05" stroke="#fff" stroke-width="0.5"/><path d="M40.582-287.809c-1.08.3-1.647.723-3.343,2.522l-1.094,1.163H29.822c-3.767,0-6.562.029-6.918.072a5.448,5.448,0,0,0-3.268,1.662,55.01,55.01,0,0,0-3.274,4.863c-1.552,2.421-2.8,4.423-2.769,4.459s1.921,1.373,4.19,2.992l4.122,2.934.629-.809c.342-.441,1.114-1.445,1.716-2.219l1.1-1.416,4.58-.022,4.573-.014,6.152-6.5,6.152-6.5-.752-.8c-1.49-1.59-2.174-2.1-3.22-2.378A4.584,4.584,0,0,0,40.582-287.809Zm2.181,2.255a4.078,4.078,0,0,1,.772.571l.376.383L38.8-279.2l-5.113,5.405H24.449l-.205.231c-.116.13-.7.874-1.292,1.648s-1.169,1.51-1.271,1.633l-.178.231-2.522-1.8a27.972,27.972,0,0,1-2.516-1.893c.014-.166,4.211-6.641,4.56-7.039a3.456,3.456,0,0,1,1.415-.976l.444-.166,5.605-.022,5.605-.022-.923.983-.923.976H27.977v2.168h5.161l3.452-3.657c1.9-2.009,3.541-3.722,3.65-3.8a3.346,3.346,0,0,1,.581-.325A2.554,2.554,0,0,1,42.763-285.554Z" transform="translate(0 -209.859)" fill="#ffbc05" stroke="#fff" stroke-width="0.5"/></g></svg>