<svg xmlns="http://www.w3.org/2000/svg" width="10.963" height="21.703" viewBox="0 0 10.963 21.703">
<g transform="translate(-76.703)">
<path d="M77.053,11.559h2.379v9.794a.35.35,0,0,0,.35.35h4.034a.35.35,0,0,0,.35-.35V11.6H86.9a.35.35,0,0,0,.348-.31l.415-3.606a.35.35,0,0,0-.348-.39h-3.15V5.039c0-.681.367-1.027,1.09-1.027h2.06a.35.35,0,0,0,.35-.35V.353a.35.35,0,0,0-.35-.35H84.477c-.02,0-.064,0-.13,0a5.439,5.439,0,0,0-3.557,1.341,3.73,3.73,0,0,0-1.24,3.315V7.3h-2.5a.35.35,0,0,0-.35.35v3.56A.35.35,0,0,0,77.053,11.559Z" fill="#fff"/>
</g>
</svg>