<svg xmlns="http://www.w3.org/2000/svg" width="58.583" height="16.657" viewBox="0 0 58.583 16.657"><path d="M232.162,14.992a1.662,1.662,0,0,1-1.66,1.666H217.36a1.662,1.662,0,0,1-1.66-1.666V1.666A1.662,1.662,0,0,1,217.36,0H230.5a1.662,1.662,0,0,1,1.66,1.666Z" transform="translate(-173.578)" fill="#069"/><path d="M0,17.2H2.214v7.956H6.12v1.865H0Z" transform="translate(0 -13.841)"/><path d="M37.415,16.285a1.1,1.1,0,0,1-1.2,1.107,1.117,1.117,0,1,1,1.2-1.107Zm-2.287,9.106V18.265h2.214v7.126Z" transform="translate(-28.221 -12.212)"/><path d="M53.257,32.61c0-.889-.027-1.631-.057-2.273h1.923l.1.992h.043a2.558,2.558,0,0,1,2.2-1.152c1.457,0,2.55.976,2.55,3.076v4.21H57.8V33.514c0-.918-.32-1.545-1.121-1.545a1.219,1.219,0,0,0-1.137.83,1.594,1.594,0,0,0-.072.555v4.1H53.257Z" transform="translate(-42.811 -24.283)"/><path d="M97.116,20.715h.029a9.687,9.687,0,0,1,.508-.853l1.441-2.148h2.668L99.216,20.6l2.914,4.239H99.411l-1.734-2.929-.553.7v2.23H94.9V14.49h2.216Z" transform="translate(-76.368 -11.66)"/><path d="M132.013,34.611c.059.918.976,1.355,2.011,1.355a5.888,5.888,0,0,0,1.966-.307l.291,1.5a6.723,6.723,0,0,1-2.58.453c-2.418,0-3.8-1.4-3.8-3.628a3.569,3.569,0,0,1,3.6-3.8c2.3,0,3.177,1.793,3.177,3.556a5.219,5.219,0,0,1-.074.875ZM134.62,33.1a1.286,1.286,0,0,0-1.252-1.443A1.458,1.458,0,0,0,132,33.1Z" transform="translate(-104.533 -24.286)"/><path d="M174.3,14.51v8.219c0,.8.029,1.646.059,2.127h-1.968l-.086-1.035h-.043a2.5,2.5,0,0,1-2.228,1.2c-1.691,0-3.046-1.441-3.046-3.658-.014-2.4,1.486-3.8,3.191-3.8a2.189,2.189,0,0,1,1.881.8h.029V14.51Zm-2.214,6.237a1.98,1.98,0,0,0-.029-.408,1.334,1.334,0,0,0-1.3-1.078c-1.021,0-1.531.9-1.531,2.025,0,1.209.6,1.966,1.515,1.966a1.31,1.31,0,0,0,1.3-1.062,2.878,2.878,0,0,0,.045-.51Z" transform="translate(-134.38 -11.677)"/><path d="M233.455,16.285a1.1,1.1,0,0,1-1.2,1.107,1.117,1.117,0,1,1,1.2-1.107Zm-2.287,9.106V18.265h2.214v7.126Z" transform="translate(-185.979 -12.212)" fill="#fff"/><path d="M249.3,32.61c0-.889-.029-1.631-.059-2.273h1.923l.1.992h.043a2.562,2.562,0,0,1,2.2-1.152c1.457,0,2.55.976,2.55,3.076v4.21h-2.214V33.514c0-.918-.32-1.545-1.123-1.545a1.219,1.219,0,0,0-1.137.83,1.593,1.593,0,0,0-.072.555v4.1H249.3Z" transform="translate(-200.569 -24.283)" fill="#fff"/></svg>