<svg xmlns="http://www.w3.org/2000/svg" width="184.341" height="91.924" viewBox="0 0 184.341 91.924"><g transform="translate(0 0)"><path d="M825.541,315.394a11.394,11.394,0,0,0,2.793.133.093.093,0,0,1,.1.057.1.1,0,0,1-.048.13,10.629,10.629,0,0,1-1.047.407,5.7,5.7,0,0,0-3.056,1.991c-4.455,7.465-6.268,7.978-7.937,8.451l-.16.045a.093.093,0,0,1-.091-.026.1.1,0,0,1,0-.14,4.26,4.26,0,0,0,.771-1.055,1.7,1.7,0,0,0,.19-.927,1.451,1.451,0,0,0-.42-.849,3.162,3.162,0,0,0-.82-.6,15.756,15.756,0,0,1-5.94-4.186,19.984,19.984,0,0,1-3.734-6.5l0-.01a17.3,17.3,0,0,1-.305-9.6,19.974,19.974,0,0,1,5.326-8.82.091.091,0,0,1,.038-.023.094.094,0,0,1,.117.065l1.339,4.608a3.912,3.912,0,0,1,.225,1.781,3.222,3.222,0,0,1-.729,1.647l0,0a14.818,14.818,0,0,0-2.889,4.447,11.071,11.071,0,0,0,2.384,12.255,14.9,14.9,0,0,0,4.558,3.122,4.7,4.7,0,0,0,4.4-.9c1.219-1.042,2.3-2.871,3.582-5.6a.1.1,0,0,1,.094-.057c.487.052.9.1,1.269.148Zm4.252.115a6.118,6.118,0,0,1-.243.813.093.093,0,0,1-.18-.03,8.13,8.13,0,0,0-.1-.924,4.756,4.756,0,0,0-1.157-2.549,3.221,3.221,0,0,0-2.614-.928,5.626,5.626,0,0,0-.687.085.091.091,0,0,1-.055-.007.1.1,0,0,1-.045-.131,1.352,1.352,0,0,0,.137-.566.72.72,0,0,0-.15-.429,1.885,1.885,0,0,1-1.634.356c-.483-.177-.865-.678-1.129-1.564a.1.1,0,0,1,.023-.1.091.091,0,0,1,.133,0c.024.026.051.052.08.078a1.359,1.359,0,0,0,1.106.362,1.506,1.506,0,0,0,.861-.392l-.132-.123a6.762,6.762,0,0,0-6.655-1.363,15.634,15.634,0,0,0-7.132,4.855c-.181.2-.361.414-.535.627a.09.09,0,0,1-.105.033.1.1,0,0,1-.057-.126,10.138,10.138,0,0,1,2.518-3.66,13.133,13.133,0,0,1,4.61-2.985,7.984,7.984,0,0,1,5.573-.091,9.034,9.034,0,0,1,3.573,2.544,5.921,5.921,0,0,1,.808.269,5.5,5.5,0,0,1,2.665,2.3,5,5,0,0,1,.528,3.648Z" transform="translate(-716.224 -259.705)" fill="#666" fill-rule="evenodd"/><path d="M693.209,73.72a12.706,12.706,0,0,0-3.507,6.529c-.118.956,2,5.3,2.479,6.285a40.573,40.573,0,0,0,11.263,14.211c.229-.283.606-.892,1.014-1.37-4.3-6.113-7.973-14.321-9.574-26.858-.14-.206-1.18.717-1.674,1.2Z" transform="translate(-613.413 -64.059)" fill="#c02222" fill-rule="evenodd"/><path d="M670.442,177.97c-5.368-4.628-10.682-9.966-14.226-19.87-1.663,1.936-2.288,4.711-2.506,7.976a36.04,36.04,0,0,0,16.19,13.176Z" transform="translate(-581.407 -139.717)" fill="#c02222" fill-rule="evenodd"/><path d="M658.823,258.1c-5.989-1.7-11.6-5.88-16.338-12.3a16.708,16.708,0,0,0-.31,6.876,27,27,0,0,0,16.4,6.723q.125-.651.248-1.3Z" transform="translate(-570.944 -217.219)" fill="#063" fill-rule="evenodd"/><path d="M657.529,330.589c-5.823-.227-11.283-2.631-16.529-6.3a17.212,17.212,0,0,0,1.515,5.766,25.1,25.1,0,0,0,14.8,1.745q.108-.607.217-1.214Z" transform="translate(-570.102 -286.582)" fill="#063" fill-rule="evenodd"/><path d="M669.56,389.952c.024.4.048.809.072,1.214-4.307,2.066-8.613,1.984-12.92,1.214a13.625,13.625,0,0,1-2.022-4.78A23.166,23.166,0,0,0,669.56,389.952Z" transform="translate(-582.278 -342.531)" fill="#063" fill-rule="evenodd"/><path d="M689.393,431.67c.072.33.143.66.215.991a21.415,21.415,0,0,1-10.416,3.65,9.9,9.9,0,0,1-2.572-3.47A22.206,22.206,0,0,0,689.393,431.67Z" transform="translate(-601.783 -381.476)" fill="#333" fill-rule="evenodd"/><path d="M721.015,451.041c.1.241.2.48.3.721a15.987,15.987,0,0,1-7.415,4.912,11,11,0,0,1-2.4-1.893,16.9,16.9,0,0,0,9.515-3.741Z" transform="translate(-632.805 -398.594)" fill="#333" fill-rule="evenodd"/><path d="M753.185,471.216a21.073,21.073,0,0,1-4.158,4.912A5.331,5.331,0,0,1,746.37,475a12.931,12.931,0,0,0,6.258-4.191l.557.406Z" transform="translate(-663.818 -416.065)" fill="#333" fill-rule="evenodd"/><path d="M4.045,734.5v-1.145h2.8v2.706a3.515,3.515,0,0,1-1.185.737,4.114,4.114,0,0,1-1.572.317,3.39,3.39,0,0,1-1.763-.446,2.8,2.8,0,0,1-1.129-1.28,4.318,4.318,0,0,1-.378-1.81,4.107,4.107,0,0,1,.421-1.886,2.935,2.935,0,0,1,1.235-1.266,3.19,3.19,0,0,1,1.543-.339,2.97,2.97,0,0,1,1.877.53,2.427,2.427,0,0,1,.868,1.469l-1.3.256a1.442,1.442,0,0,0-.512-.791,1.482,1.482,0,0,0-.937-.288,1.711,1.711,0,0,0-1.354.57,2.489,2.489,0,0,0-.5,1.691,2.758,2.758,0,0,0,.509,1.814,1.667,1.667,0,0,0,1.336.6,2.153,2.153,0,0,0,.818-.169,2.751,2.751,0,0,0,.706-.411v-.86H4.044Z" transform="translate(-0.729 -645.196)" fill="#4d4d4d"/><path d="M69.18,737.922V731.14h4.775v1.146H70.487v1.506h3.224v1.146H70.487v1.837h3.594v1.145Z" transform="translate(-61.528 -646.124)" fill="#4d4d4d"/><path d="M126.49,737.922V731.14h1.264l2.654,4.545V731.14h1.207v6.781h-1.3l-2.615-4.457v4.457Z" transform="translate(-112.499 -646.124)" fill="#4d4d4d"/><path d="M188.28,737.922V731.14h4.775v1.146h-3.469v1.506h3.225v1.146h-3.225v1.837h3.595v1.145Z" transform="translate(-167.455 -646.124)" fill="#4d4d4d"/><path d="M245.59,737.922V731.14h2.743a4.51,4.51,0,0,1,1.5.182,1.5,1.5,0,0,1,.751.649,2.03,2.03,0,0,1,.282,1.069,1.874,1.874,0,0,1-.425,1.262,2.006,2.006,0,0,1-1.272.627,2.988,2.988,0,0,1,.694.569,7.659,7.659,0,0,1,.739,1.1l.786,1.322h-1.556l-.934-1.48a9.309,9.309,0,0,0-.689-.994,1,1,0,0,0-.392-.281,2.072,2.072,0,0,0-.659-.076H246.9v2.831h-1.306Zm1.306-3.912h.964a4.7,4.7,0,0,0,1.169-.084.706.706,0,0,0,.365-.287.917.917,0,0,0,.133-.51.848.848,0,0,0-.174-.553.777.777,0,0,0-.49-.265c-.106-.015-.424-.023-.95-.023H246.9v1.723Z" transform="translate(-218.426 -646.124)" fill="#4d4d4d"/><path d="M307.9,737.922h-1.407l-.557-1.544h-2.587l-.536,1.544H301.43l2.5-6.781h1.38l2.584,6.781Zm-2.387-2.69-.9-2.511-.871,2.511Z" transform="translate(-268.09 -646.124)" fill="#4d4d4d"/><path d="M369.5,738.363V731.64h1.306v5.578h3.234v1.145Z" transform="translate(-328.631 -646.565)" fill="#4d4d4d"/><path d="M453.379,734.485l1.262.407a3.037,3.037,0,0,1-.967,1.664,2.649,2.649,0,0,1-1.713.543,2.714,2.714,0,0,1-2.114-.923,3.652,3.652,0,0,1-.827-2.526,3.837,3.837,0,0,1,.832-2.632,2.783,2.783,0,0,1,2.188-.938,2.607,2.607,0,0,1,1.923.737,2.713,2.713,0,0,1,.66,1.251l-1.289.322a1.452,1.452,0,0,0-.478-.831,1.33,1.33,0,0,0-.883-.3,1.44,1.44,0,0,0-1.166.541,2.743,2.743,0,0,0-.447,1.752,2.947,2.947,0,0,0,.44,1.829,1.4,1.4,0,0,0,1.146.546,1.266,1.266,0,0,0,.895-.348,2.054,2.054,0,0,0,.538-1.092Z" transform="translate(-399.356 -645.187)" fill="#4d4d4d"/><path d="M512.51,737.922V731.14h1.307v6.781Z" transform="translate(-455.824 -646.124)" fill="#4d4d4d"/><path d="M534.888,737.922l-2.308-6.781h1.411l1.638,5.02,1.572-5.02h1.388l-2.3,6.781Z" transform="translate(-473.674 -646.124)" fill="#4d4d4d"/><path d="M595.42,737.922V731.14h1.306v6.781Z" transform="translate(-529.564 -646.124)" fill="#4d4d4d"/><path d="M621.76,738.363V731.64h1.306v5.578H626.3v1.145Z" transform="translate(-552.99 -646.565)" fill="#4d4d4d"/><path d="M711.839,737.922h-1.407l-.557-1.544h-2.587l-.536,1.544H705.37l2.5-6.781h1.38l2.584,6.781Zm-2.387-2.69-.9-2.511-.87,2.511Z" transform="translate(-627.353 -646.124)" fill="#4d4d4d"/><path d="M765.157,737.922l-2.307-6.781h1.411l1.638,5.02,1.572-5.02h1.387l-2.294,6.781Z" transform="translate(-678.475 -646.124)" fill="#4d4d4d"/><path d="M827.4,737.922V731.14h1.306v6.781Z" transform="translate(-735.886 -646.124)" fill="#4d4d4d"/><path d="M855.64,737.922h-1.407l-.557-1.544h-2.587l-.536,1.544H849.17l2.5-6.781h1.38l2.584,6.781Zm-2.387-2.69-.9-2.511-.87,2.511Z" transform="translate(-755.248 -646.124)" fill="#4d4d4d"/><path d="M910.35,737.922v-5.635h-1.91V731.14h5.117v1.146h-1.9v5.635Z" transform="translate(-807.962 -646.124)" fill="#4d4d4d"/><path d="M966.63,737.922V731.14h1.306v6.781Z" transform="translate(-859.716 -646.124)" fill="#4d4d4d"/><path d="M991.91,733.654a4.52,4.52,0,0,1,.3-1.742,3.163,3.163,0,0,1,.6-.931,2.542,2.542,0,0,1,.834-.612,3.392,3.392,0,0,1,1.391-.269,2.957,2.957,0,0,1,2.284.931,4.337,4.337,0,0,1,.006,5.166,3.266,3.266,0,0,1-4.561,0,3.618,3.618,0,0,1-.849-2.548Zm1.342-.045a2.638,2.638,0,0,0,.508,1.749,1.687,1.687,0,0,0,2.568,0,2.686,2.686,0,0,0,.5-1.772,2.63,2.63,0,0,0-.488-1.741,1.608,1.608,0,0,0-1.294-.574,1.625,1.625,0,0,0-1.3.581,2.662,2.662,0,0,0-.493,1.754Z" transform="translate(-882.2 -645.204)" fill="#4d4d4d"/><path d="M1062.4,737.922V731.14h1.263l2.656,4.545V731.14h1.207v6.781h-1.305l-2.614-4.457v4.457Z" transform="translate(-944.894 -646.124)" fill="#4d4d4d"/><path d="M1151.339,737.922h-1.407l-.557-1.544h-2.587l-.536,1.544h-1.381l2.5-6.781h1.38l2.584,6.781Zm-2.387-2.69-.9-2.511-.87,2.511Z" transform="translate(-1018.242 -646.124)" fill="#4d4d4d"/><path d="M1215.141,731.14h1.306v3.674a8.224,8.224,0,0,0,.048,1.134,1.115,1.115,0,0,0,.394.67,1.318,1.318,0,0,0,.853.252,1.242,1.242,0,0,0,.827-.238.946.946,0,0,0,.335-.586,8.117,8.117,0,0,0,.058-1.152V731.14h1.306v3.566a9.6,9.6,0,0,1-.1,1.727,1.853,1.853,0,0,1-1.145,1.4,3.141,3.141,0,0,1-1.238.207,3.388,3.388,0,0,1-1.4-.224,2.022,2.022,0,0,1-.752-.584,1.908,1.908,0,0,1-.364-.753,8.66,8.66,0,0,1-.127-1.722V731.14Z" transform="translate(-1080.74 -646.124)" fill="#4d4d4d"/><path d="M1277.24,737.922v-5.635h-1.91V731.14h5.118v1.146h-1.9v5.635Z" transform="translate(-1134.273 -646.124)" fill="#4d4d4d"/><path d="M1334.75,737.922V731.14h1.306v2.671h2.541V731.14h1.306v6.781H1338.6v-2.964h-2.541v2.964Z" transform="translate(-1187.121 -646.124)" fill="#4d4d4d"/><path d="M1396.64,733.654a4.517,4.517,0,0,1,.3-1.742,3.155,3.155,0,0,1,.6-.931,2.543,2.543,0,0,1,.834-.612,3.393,3.393,0,0,1,1.391-.269,2.958,2.958,0,0,1,2.284.931,4.336,4.336,0,0,1,.005,5.166,3.266,3.266,0,0,1-4.561,0,3.618,3.618,0,0,1-.849-2.548Zm1.342-.045a2.638,2.638,0,0,0,.508,1.749,1.687,1.687,0,0,0,2.568,0,2.687,2.687,0,0,0,.5-1.772,2.628,2.628,0,0,0-.488-1.741,1.607,1.607,0,0,0-1.294-.574,1.626,1.626,0,0,0-1.3.581,2.661,2.661,0,0,0-.493,1.754Z" transform="translate(-1242.166 -645.204)" fill="#4d4d4d"/><path d="M1467.95,737.922V731.14h2.743a4.512,4.512,0,0,1,1.5.182,1.5,1.5,0,0,1,.751.649,2.029,2.029,0,0,1,.282,1.069,1.875,1.875,0,0,1-.425,1.262,2.007,2.007,0,0,1-1.272.627,2.982,2.982,0,0,1,.693.569,7.656,7.656,0,0,1,.739,1.1l.786,1.322h-1.556l-.933-1.48a9.309,9.309,0,0,0-.689-.994,1,1,0,0,0-.391-.281,2.072,2.072,0,0,0-.659-.076h-.264v2.831h-1.306Zm1.307-3.912h.964a4.706,4.706,0,0,0,1.169-.084.706.706,0,0,0,.365-.287.917.917,0,0,0,.133-.51.848.848,0,0,0-.174-.553.776.776,0,0,0-.49-.265c-.106-.015-.424-.023-.95-.023h-1.016v1.723Z" transform="translate(-1305.588 -646.124)" fill="#4d4d4d"/><path d="M1531.87,737.922V731.14h1.306v6.781Z" transform="translate(-1362.439 -646.124)" fill="#4d4d4d"/><path d="M1558.17,737.922v-5.635h-1.91V731.14h5.118v1.146h-1.9v5.635Z" transform="translate(-1384.131 -646.124)" fill="#4d4d4d"/><path d="M1611.976,737.922v-2.854l-2.366-3.928h1.527l1.526,2.685,1.485-2.685h1.5l-2.366,3.937v2.844Z" transform="translate(-1431.58 -646.124)" fill="#4d4d4d"/><path d="M1.14,606.383a5.018,5.018,0,0,0,.374,2.594,2.144,2.144,0,0,0,1.307,1.085H5.084l0-3.959.463-.085a3.309,3.309,0,0,1,2.108.177,3.2,3.2,0,0,1,1.469,1.7l.055.25v1.915l10.532-.152v-3.391h1.126v4.555l-12.785.185v-2.98a2.006,2.006,0,0,0-.868-1,1.9,1.9,0,0,0-.98-.147l0,4.125H2.75l-.147-.023a3.241,3.241,0,0,1-2.074-1.681,6.179,6.179,0,0,1-.51-3.237l1.122.079Zm166.32,5.661a.681.681,0,1,1-.647.68A.663.663,0,0,1,167.46,612.044Zm-1.779,0a.681.681,0,1,1-.647.68A.664.664,0,0,1,165.682,612.044Zm-18.7-8.138a.681.681,0,1,1-.647.68A.664.664,0,0,1,146.979,603.906Zm-1.777,0a.681.681,0,1,1-.647.68A.664.664,0,0,1,145.2,603.906Zm-125.035.113a.681.681,0,1,1-.647.68A.664.664,0,0,1,20.166,604.018Zm-15.789,8.1a.681.681,0,1,1-.647.68A.664.664,0,0,1,4.378,612.12Zm-1.779,0a.681.681,0,0,1,0,1.36.681.681,0,0,1,0-1.36ZM97.873,603.9a.681.681,0,1,1-.646.68A.664.664,0,0,1,97.873,603.9Zm-1.777,0a.681.681,0,1,1-.647.68A.664.664,0,0,1,96.1,603.9ZM75.672,612.12a.681.681,0,1,1-.647.68A.664.664,0,0,1,75.672,612.12Zm-1.779,0a.681.681,0,1,1-.647.68A.664.664,0,0,1,73.894,612.12ZM51.853,606.4a.681.681,0,1,1-.647.68A.664.664,0,0,1,51.853,606.4Zm-29.743,3.431h2.8a3.178,3.178,0,0,0-.483-1.649,3.735,3.735,0,0,0-2.224-1.36l.286-1.142a4.781,4.781,0,0,1,2.854,1.819,4.382,4.382,0,0,1,.692,2.334h5.644a.979.979,0,0,0,.432-.162,1.332,1.332,0,0,0,.344-.362,5.3,5.3,0,0,1-.085-.758v-.028a2.383,2.383,0,0,1,1.393-2.312,2.287,2.287,0,0,1,.917-.191,2.114,2.114,0,0,1,.9.2,1.914,1.914,0,0,1,1.1,1.908h0v1.906h4.76v-6.562h1.126v7.745H34.172l-.149-.023a2.018,2.018,0,0,1-1.072-.713,2.2,2.2,0,0,1-.229.18,2.054,2.054,0,0,1-.979.351l-.053,0H22.112V609.83Zm138.117-5.437a1.64,1.64,0,0,1,.313-.933h0a1.476,1.476,0,0,1,1.3-.5l-.023.786a.649.649,0,0,0-.842.647h1.158v1.184h-2.573v-1.184h.664ZM175,610.029c0-.02,0-.052,0-.1a1.128,1.128,0,0,0-.307-.779v0a1.015,1.015,0,0,0-1.481,0,1.127,1.127,0,0,0-.306.779.946.946,0,0,0,0,.1H175Zm-3.216,0c0-.034,0-.066,0-.1a2.333,2.333,0,0,1,.637-1.615,2.1,2.1,0,0,1,3.072,0h0a2.337,2.337,0,0,1,.637,1.615c0,.028,0,.062,0,.1h.639c0-.136-.016-.268-.032-.4a3.257,3.257,0,0,0-.934-1.992,3.534,3.534,0,0,0-2.388-.89,6.8,6.8,0,0,0-1.181.065l-.145-1.17a7.915,7.915,0,0,1,1.366-.074,4.6,4.6,0,0,1,3.1,1.2,4.44,4.44,0,0,1,1.291,2.713c.022.181.037.366.042.552h2.061l.041-6.482,1.122,0-.049,7.661H145.948l-.149-.023a2.038,2.038,0,0,1-1.289-1.051,3.8,3.8,0,0,1-.365-1.591v-.069a3.2,3.2,0,0,1,.082-.531,2.421,2.421,0,0,1,1.407-1.7,3.758,3.758,0,0,1,1.793-.287,3.311,3.311,0,0,1,.6.1l.425.114v3.855h11.878l.043-3.928,1.122.014-.043,3.914h5.186l.044-3.928,1.122.014-.043,3.914h4.025Zm10.476-6.828h2.074l-.059,7.735-1.122-.009.049-6.542h-.943V603.2Zm-36.238,6.828h1.3V607.14a2.664,2.664,0,0,0-1.25.2,1.305,1.305,0,0,0-.765.9,1.864,1.864,0,0,0-.045.3,2.562,2.562,0,0,0,.227,1.036A.929.929,0,0,0,146.026,610.029Zm-27.893-.156h7.38a4.487,4.487,0,0,0,.743-.218l-2.171-1.866.219-.43a3.013,3.013,0,0,1,1.443-1.286,3.1,3.1,0,0,1,1.408-.281,2.066,2.066,0,0,1,1.387.6,2.573,2.573,0,0,1,.679,1.426l-.018.283a3.934,3.934,0,0,1-.882,1.547c.054.024.108.048.161.07a2.607,2.607,0,0,0,1.036.215l6.542-.052v-6.423h1.126v7.593l-7.651.06a3.655,3.655,0,0,1-1.459-.294,5.847,5.847,0,0,1-.759-.379,5.372,5.372,0,0,1-1.67.607l-.1.012h-8.333v-.129l-.216,0,.049-6.542h-.943V603.2h2.074l-.051,6.672Zm9.174-.843a2.741,2.741,0,0,0,.782-1.147,1.3,1.3,0,0,0-.321-.636,1,1,0,0,0-.67-.276,2,2,0,0,0-.911.188,2.245,2.245,0,0,0-.6.389l1.722,1.48Zm10.9-5.829h2.075l-.059,7.735-1.122-.009.049-6.542h-.943V603.2Zm-23.074,8.038c-.448,0-.844,0-1.195-.012a1.314,1.314,0,0,1-1.056-.02c-.087,0-.177.006-.269.006l-.149-.023c-.064-.019-.125-.04-.185-.062-.577-.077-.709-.19-.569-.323a2.032,2.032,0,0,1-.408-.45,2.928,2.928,0,0,1-.831.521,5.078,5.078,0,0,1-1.985.337H96.718l-.149-.023a2.038,2.038,0,0,1-1.289-1.051,3.782,3.782,0,0,1-.365-1.591v-.028a2.383,2.383,0,0,1,1.393-2.312,2.287,2.287,0,0,1,.917-.191,2.114,2.114,0,0,1,.9.2,1.914,1.914,0,0,1,1.1,1.908h0v1.906h9.263a4.051,4.051,0,0,0,1.567-.25,1.761,1.761,0,0,0,.757-.587l.074.06a5.271,5.271,0,0,1-.075-.7v-.028a2.383,2.383,0,0,1,1.393-2.312,2.287,2.287,0,0,1,.917-.191,2.114,2.114,0,0,1,.9.2,1.914,1.914,0,0,1,1.1,1.908h0v1.932h.013v.048c1.526.133,1.015.427,0,.762v.375Zm-1.323-1.2c.063-.018.125-.031.184-.043v-1.874l0-.028a.788.788,0,0,0-.432-.8,1.052,1.052,0,0,0-.445-.1,1.219,1.219,0,0,0-.486.1,1.24,1.24,0,0,0-.7,1.2,2.65,2.65,0,0,0,.228,1.073.929.929,0,0,0,.531.458c.417,0,.789,0,1.119.012ZM96.8,610.029h1.3v-1.906l0-.028a.788.788,0,0,0-.432-.8,1.056,1.056,0,0,0-.445-.1,1.219,1.219,0,0,0-.486.1,1.24,1.24,0,0,0-.7,1.2,2.631,2.631,0,0,0,.229,1.073.926.926,0,0,0,.531.458Zm-13.605-.144v-1.636a1.323,1.323,0,0,0-.365-.8,1.042,1.042,0,0,0-.742-.233,2.751,2.751,0,0,0-1.115.313,3.712,3.712,0,0,0-1.764,1.765l-.008,0v.6H83.19ZM79.2,607.37a5.267,5.267,0,0,1,1.292-.914,3.83,3.83,0,0,1,1.568-.424,2.091,2.091,0,0,1,1.5.515,2.51,2.51,0,0,1,.753,1.58l.007.084v1.674h2.161v-6.433H87.6v6.433h2.269v-6.433H91v7.616H60.977l0,.385a2.364,2.364,0,0,1-.862,2,2.677,2.677,0,0,1-1.845.387l.088-1.179a1.7,1.7,0,0,0,1.119-.179,1.268,1.268,0,0,0,.377-1.053l-.053-5.142,1.122-.009.038,3.6H74.893V606.34h1.126v3.544h2.053v-6.433H79.2v3.919ZM55.517,603.2H57.59l-.059,7.735-1.122-.009.05-6.542h-.943Zm-.948,3.09-.054,5.155-.009.1a2.754,2.754,0,0,1-1.346,2,2.574,2.574,0,0,1-2.521-.013,2.638,2.638,0,0,1-1.281-1.941l-.009-.1v-2.72h1.126v2.673a1.428,1.428,0,0,0,1.423,1.241,1.5,1.5,0,0,0,.733-.188,1.587,1.587,0,0,0,.762-1.126l.053-5.1,1.122.009ZM43.985,603.2h2.074L46,610.935l-1.122-.009.05-6.542h-.943Zm-9.735,6.828h1.3v-1.906l0-.028a.788.788,0,0,0-.432-.8,1.057,1.057,0,0,0-.445-.1,1.219,1.219,0,0,0-.486.1,1.242,1.242,0,0,0-.7,1.2,2.632,2.632,0,0,0,.229,1.073.929.929,0,0,0,.531.458Z" transform="translate(0.003 -532.846)" fill="#666" fill-rule="evenodd"/><path d="M761.126.8c-2.776,1.43-5.106,3.861-5.809,5.864-.188.537.559,5.384.686,6.18,1.524,9.52,4.564,14.968,8.239,20.7.341-.229.95-.766,1.55-1.148-2.834-8.312-4.61-17.877-2.44-32.317-.088-.278-1.53.366-2.226.726Z" transform="translate(-671.749 -0.008)" fill="#c02222" fill-rule="evenodd"/></g></svg>