<svg xmlns="http://www.w3.org/2000/svg" xmlns:xlink="http://www.w3.org/1999/xlink" width="76.609" height="85.68" viewBox="0 0 76.609 85.68"><defs><clipPath id="a"><path d="M180.75,107.027c0,18.17,14.009,32.894,31.287,32.894S243.32,125.2,243.32,107.027s-14-32.887-31.283-32.887S180.75,88.87,180.75,107.027" transform="translate(-180.75 -74.14)"/></clipPath></defs><g transform="translate(0 70.477)"><path d="M102.9,859.159h.162l.309-.279.275-.217.439.3.208-.012.368-.314.044-.158-.642-.521-.221.025-.448.424-.495-.315h-.1l-.447.377.01.228Z" transform="translate(-102.157 -856.677)" fill="#231f20"/><path d="M145.272,849.777a.989.989,0,0,0,.367-.183c.233-.253-.17-.555-.17-.555-.759-.4-1.569.365-1.569.365,1.577-.219,1.372.373,1.372.373" transform="translate(-140.089 -848.469)" fill="#231f20"/><path d="M575.234,848.208a.973.973,0,0,0,.371-.182c.231-.253-.172-.556-.172-.556-.761-.4-1.563.361-1.563.361,1.576-.214,1.364.377,1.364.377" transform="translate(-532.616 -847.042)" fill="#231f20"/><path d="M160.007,863.227a8.5,8.5,0,0,0,2.5-1.488s-.045-.287-.251-.217a14.5,14.5,0,0,1-4.832,1.75,9.567,9.567,0,0,0,2.587-.046" transform="translate(-152.432 -859.903)" fill="#231f20"/><path d="M100.318,879.1a6.536,6.536,0,0,0,1.078-.014,1.05,1.05,0,0,0,.518-.254s.347.917.6,1.066l.064.047h13.172a1.06,1.06,0,0,0,.3-.509s.172-2.2-.587-2.949c0,0-.542-.689-.933-.435a2.721,2.721,0,0,0-.839,1.714.529.529,0,0,0,.46.426,3.814,3.814,0,0,0,.956-.037l.219-.18a.859.859,0,0,1,.057,1.025H102.789a.76.76,0,0,1-.311-.6,8.644,8.644,0,0,1-.065-1.608s-.369-.545-.439-.459a3.865,3.865,0,0,0-.211.846s-1.446.969-1.585,1.414c0,0-.159.4.139.51m14.17-1.741c-.287-.086.125-.512.125-.512l.164.244c.043.144,0,.352-.289.267m-12.766.461,0-.017.008.014.087-.06s.151.424,0,.583a.183.183,0,0,1-.1.049,1.471,1.471,0,0,1-.124.1c-.266.02-.26-.282-.26-.282l.049-.048a1.353,1.353,0,0,1,.347-.34" transform="translate(-100.136 -873.063)" fill="#231f20"/><path d="M114.7,895.92a1.338,1.338,0,0,0-.348.34l.348-.339Z" transform="translate(-113.112 -891.161)" fill="#231f20"/><path d="M118.19,895.853a.184.184,0,0,0,.1-.05c.151-.159,0-.582,0-.582l-.088.06a1.6,1.6,0,0,1,.132.337c.015.071-.07.164-.149.235" transform="translate(-116.618 -890.526)" fill="#231f20"/><path d="M295.7,860.417a1.614,1.614,0,0,1,.068,1.04,1.358,1.358,0,0,0,.23-1.259s-.093-.373-.254-.388c0,0-.411.194-.169.472,0,0,.113-.01.125.135" transform="translate(-278.481 -858.357)" fill="#231f20"/><path d="M261.252,901.266a6.357,6.357,0,0,1,.438.656s-.347,2.09-4.156,1.8l-.035.1a2.58,2.58,0,0,0,2.43.543,5.855,5.855,0,0,0,2.186-2.478,1.705,1.705,0,0,0-.334-1.244s-.853-.024-.529.627" transform="translate(-243.796 -895.448)" fill="#231f20"/><path d="M330.727,851.779s-.262-.156-.369.074c0,0-.471.774.091,1.184l.3,3.372s-.018.474-.168.51c0,0-.586.18-.807-.277,0,0-.1-.366-.012-.485a.525.525,0,0,0-.516.339s-.206.557-.564.266c0,0-.158-.315-.009-.449s.092-.132.092-.132-.251-.294-.451-.059c0,0-.219.179-.251.286a.382.382,0,0,1-.219.281s-.3,0-.244-.243c0,0,0-.266.117-.363,0,0-.163-.29-.427-.011a3.242,3.242,0,0,1-.461.556,1.425,1.425,0,0,1-.458.242h-9.048s-.449-.194-.4-.545l-.278-3.93s-.046-.423-.2-.41l-.623.663s.219.1.227.255l.2,3.892s.3,1.076.669,1.019h10.4a2.024,2.024,0,0,0,.39-.34.368.368,0,0,0,.286.34s.648.057.853-.113l.516-.289a1.03,1.03,0,0,0,.657.353s.643.049.678-.015a1.114,1.114,0,0,0,.737-.833l-.3-3.69s.308-.119.345-.229l-.013-.279s-.96-.458-.728-.94" transform="translate(-297.029 -851.015)" fill="#231f20"/><path d="M348.367,853.163a.54.54,0,0,0,.042-.123.718.718,0,0,0-.023-.256s-.518.34-.622-.071a1.968,1.968,0,0,1,.136-1.174,1.5,1.5,0,0,0-.5,1.593s.467.853.962.03" transform="translate(-325.835 -850.844)" fill="#231f20"/><path d="M379.162,859.769s.2-.277-.172-.206a18.743,18.743,0,0,1-3.61,1.8l-.15.134a8.592,8.592,0,0,0,1.886-.377,8.222,8.222,0,0,0,2.046-1.352" transform="translate(-351.274 -858.123)" fill="#231f20"/><path d="M611.7,854.715s.226-.285-.2-.21a22.692,22.692,0,0,1-4.167,1.867l-.171.139a11,11,0,0,0,2.177-.388,9.824,9.824,0,0,0,2.358-1.408" transform="translate(-563.007 -853.527)" fill="#231f20"/><path d="M392.868,883.532a2.825,2.825,0,0,1-.38.6c-.518.638-.8-.5-.8-.5-.369.9.159,1.04.159,1.04.5.277.888-.353.888-.353.124.328.7.086.7.086.317-.232.363-1.065.363-1.065l-.363.483c-.472.35-.568-.291-.568-.291" transform="translate(-366.177 -879.733)" fill="#231f20"/><path d="M439.687,858.222l-.839-.522-.609.616.793.509Z" transform="translate(-408.797 -856.44)" fill="#231f20"/><path d="M434.157,869.473l.549.374.614-.568-.84-.619-.575.5-.69-.35-.656.653.987.556Z" transform="translate(-403.612 -866.397)" fill="#231f20"/><path d="M527.268,854.672l.551.376.609-.57-.835-.619-.578.5-.691-.351-.654.652.987.556Z" transform="translate(-488.613 -852.952)" fill="#231f20"/><path d="M235.08,861.428l.556.377.61-.572-.844-.613-.573.5-.692-.35-.657.652.991.557Z" transform="translate(-221.868 -859.093)" fill="#231f20"/><path d="M501.663,853.74a2.732,2.732,0,0,0-.38,1.789,12.111,12.111,0,0,1,.521,3.677s.549-.7.253-2.866c0,0-.425-2.515-.394-2.6" transform="translate(-466.322 -852.843)" fill="#231f20"/><path d="M687.845,847.127a6.954,6.954,0,0,1,.572,1.3c.236.884.286-.093.373-.356,0,0,.315-1.467.714-1.118,0,0,.33-.739-.267-.542,0,0-.28.082-.651,1.448,0,0-.515-1.52-.728-1.534,0,0-.49-.042-.6.253,0,0,.275.065.585.545" transform="translate(-636.131 -846.109)" fill="#231f20"/><path d="M738.84,853.523c.288.194-.4.991-.4.991a2.64,2.64,0,0,0,.746-.308c.978-1.41-.268-1.394-.268-1.394-.8-.239-1.538,1.31-1.538,1.31a1.658,1.658,0,0,1,1.459-.6" transform="translate(-681.887 -851.977)" fill="#231f20"/><path d="M833.03,846.693s1-.127,1.261-.754c0,0,.383-.809-.266-.809,0,0-.4-.056-.6.655,0,0-.024.334.239.306,0,0-.014.2-.636.6" transform="translate(-769.207 -845.02)" fill="#231f20"/><path d="M713.466,931.551a.174.174,0,0,0-.064-.037c-.086-.032-.013,0,.064.037" transform="translate(-659.962 -923.485)" fill="#231f20"/><path d="M716.739,872.133l.771.024s-.131.032,0,.032.084.153.084.153a3.388,3.388,0,0,1-3.038,1.354l-.108-.049c.029.037-.031.075,0,.2.038.167,1.682.4,1.682.4,1.117-.266,2.161-2.1,2.161-2.1h10.587s-.038,0,.055-.136a2,2,0,0,1,.542-.349.638.638,0,0,1,.329.483l5.11-.037.21-.4c.186-.417.927-.685.927-.685h1.1s-.164.1.027.015.37-.584.37-.584l-.174-.085a11.285,11.285,0,0,1-1.539-.208,6.93,6.93,0,0,1-1.206-.515c-.835-.183-1.382.792-1.382.792a1.941,1.941,0,0,1,.917-.069,3.406,3.406,0,0,1,1.021.56L735.1,871a2.016,2.016,0,0,0-.53.294h-3.94c-.581-.056-.823-.741-.823-.741a4.5,4.5,0,0,0-.888-1.017h-8.128l-.024-.139c-.03-.141.339-.462.339-.462.241-.122,1.261-.525,1.261-.525s.029,0,.242-.238c0-.011.014-.02.02-.025.167-.226-.157-.382-.157-.382a5.305,5.305,0,0,0-1.367.486c-.553.185-.992,1.5-.992,1.5a.666.666,0,0,0,.293.767h8.342c.2.028.345.448.358.488s-.424.324-.424.324H718.514l-.051-.061c-.281-.375-.89-1.1-.89-1.1-.117-.113-.435-.016-.435-.016-.719.392-.719,1.758-.719,1.758.029.21.32.223.32.223m.708-1.183v-.03c.342.071.3.349.211.449s-.3.207-.437.053.226-.472.226-.472" transform="translate(-660.942 -865.582)" fill="#231f20"/><path d="M555.93,908.05h-.04s.494.311.04,0" transform="translate(-516.202 -902.181)" fill="#231f20"/><path d="M542.053,883.468c-.2.069-.642.851-.642.851a2.662,2.662,0,0,1-.784.766H528.7c.455.311-.04,0-.04,0h.04l-.082-.055c-.6-.4-.559-1.9-.559-1.9l-.334-.363v.041c0,.041-.208.726-.208.726a10.855,10.855,0,0,0-1.449,1.381c-.065.138.411.488.411.488.2.193.984.028.984.028a1.3,1.3,0,0,0,.421-.334c-.023.251.452.807.452.807h12.548l.038-.038.678-.783a.856.856,0,0,1,.331.276c.131.2.623.295.623.295s.414-.976.414-.976a2.516,2.516,0,0,0-.356-1.169c-.179-.282-.556-.045-.556-.045m-14.451,1.24a.612.612,0,0,1-.289.254.485.485,0,0,1-.24-.3c-.012-.113.4-.458.4-.458a1.851,1.851,0,0,1,.129.5m14.963-.166c-.027.208-.013.25-.09.292s-.358-.084-.358-.084l-.041-.208s.077-.391.211-.3.307.094.279.3" transform="translate(-488.969 -879.215)" fill="#231f20"/><path d="M873.167,845.354s.239.113.639-.3c0,0,.785-.868-.115-1.11a.757.757,0,0,0-.732.524s1.275-.2.207.886" transform="translate(-805.66 -843.943)" fill="#231f20"/><path d="M901.226,848.063s.542.132.637-.285c0,0-.807-.027-.683-.742l.108-.766s-.872,1.208-.063,1.793" transform="translate(-831.151 -846.057)" fill="#231f20"/><path d="M939.95,852.085a1.371,1.371,0,0,0,1.372-1.279s-.184-.864-.775-.753a.6.6,0,0,0-.307.925.544.544,0,0,0,.44.169s.1.353-.73.938" transform="translate(-866.816 -849.485)" fill="#231f20"/><path d="M118.31,895.73l0,.017,0,0-.007-.014" transform="translate(-116.727 -890.989)" fill="#231f20"/><g transform="translate(0.033 10.519)"><path d="M101.228,959.294a1.753,1.753,0,0,1,1.149-.454,1.443,1.443,0,0,1,.628.135,1.687,1.687,0,0,1,.35.22l.283-.315h.215l.044,1.763-.246.019a4.078,4.078,0,0,0-.359-.98.928.928,0,0,0-.815-.525.791.791,0,0,0-.764.623,4.557,4.557,0,0,0-.218,1.5,3.705,3.705,0,0,0,.214,1.449.7.7,0,0,0,.665.485.63.63,0,0,0,.631-.468,2.242,2.242,0,0,0,.088-.709.727.727,0,0,0-.03-.262c-.017-.049-.064-.074-.143-.074l-.336-.005v-.331h1.753v.331a1.105,1.105,0,0,0-.365.047c-.052.022-.075.091-.075.2v1.578h-.243l-.245-.625a2.868,2.868,0,0,1-.451.436,1.238,1.238,0,0,1-.683.19,1.545,1.545,0,0,1-1.331-.7,2.623,2.623,0,0,1-.427-1.522,2.679,2.679,0,0,1,.708-2.009" transform="translate(-100.52 -958.84)" fill="#231f20"/><path d="M148.036,959.49a1.615,1.615,0,0,1,1.278-.65,1.634,1.634,0,0,1,1.41.782,2.87,2.87,0,0,1-.018,3.131,1.626,1.626,0,0,1-1.4.771,1.582,1.582,0,0,1-1.333-.731,2.714,2.714,0,0,1-.492-1.63,2.58,2.58,0,0,1,.556-1.673m.608,3.111a.74.74,0,0,0,.725.612.675.675,0,0,0,.641-.512,4.4,4.4,0,0,0,.2-1.515,4.875,4.875,0,0,0-.185-1.443c-.129-.385-.352-.58-.673-.58-.381,0-.643.276-.782.82a5.471,5.471,0,0,0-.113,1.248,4.624,4.624,0,0,0,.189,1.37" transform="translate(-143.391 -958.84)" fill="#231f20"/><path d="M192.915,959.9v.334c-.031,0-.087,0-.168.012s-.134.016-.148.017a.17.17,0,0,0-.068.037.13.13,0,0,0-.029.1.186.186,0,0,0,.005.053c.005.02.013.04.02.068l.8,2.621.636-1.957a3.81,3.81,0,0,0,.115-.421,1.029,1.029,0,0,0,.015-.12.347.347,0,0,0-.186-.336.764.764,0,0,0-.3-.073V959.9h1.432v.34a.711.711,0,0,0-.319.153,1.445,1.445,0,0,0-.35.631l-1.125,3.449h-.4l-1.226-3.826a.675.675,0,0,0-.158-.325.723.723,0,0,0-.335-.086V959.9h1.785Z" transform="translate(-183.239 -959.803)" fill="#231f20"/><path d="M236.17,964.056a1.294,1.294,0,0,0,.428-.036c.056-.029.085-.117.085-.268v-3.28c0-.109-.027-.176-.079-.2a1.774,1.774,0,0,0-.435-.04V959.9h3.29l.038,1.622-.247.006a1.8,1.8,0,0,0-.452-1.042,1.1,1.1,0,0,0-.754-.258.634.634,0,0,0-.39.083.481.481,0,0,0-.1.359v1.24a.367.367,0,0,1,.058.005h.024a.574.574,0,0,0,.554-.335,1.941,1.941,0,0,0,.145-.555h.243v2.166l-.243.005a1.113,1.113,0,0,0-.25-.759.759.759,0,0,0-.53-.2v1.436c0,.166.031.272.091.315a.882.882,0,0,0,.433.065,1,1,0,0,0,.881-.418,2.992,2.992,0,0,0,.348-.912l.244.023-.053,1.638h-3.328v-.33Z" transform="translate(-224.357 -959.803)" fill="#231f20"/><path d="M281.327,959.916a1.07,1.07,0,0,1,.922.453,1.2,1.2,0,0,1,.179.665,1,1,0,0,1-.454.91,1.443,1.443,0,0,1-.606.193,1.248,1.248,0,0,1,.379.206,1.09,1.09,0,0,1,.347.64l.105.544a1.706,1.706,0,0,0,.073.292c.034.084.074.129.122.129.064,0,.116-.048.152-.135a1.563,1.563,0,0,0,.08-.454l.244.005a1.173,1.173,0,0,1-.244.856.791.791,0,0,1-.571.238.7.7,0,0,1-.563-.236,1.019,1.019,0,0,1-.217-.638l-.032-.516a1.568,1.568,0,0,0-.138-.633.457.457,0,0,0-.447-.209h-.312v1.5a.455.455,0,0,0,.044.26c.031.035.12.053.264.055l.231.01v.331H278.96v-.331a1.378,1.378,0,0,0,.421-.036c.053-.029.079-.106.085-.237l.008-.156v-2.892a1.667,1.667,0,0,0-.031-.406c-.019-.055-.075-.085-.172-.086l-.313-.009V959.9h2Zm-.979,1.978a1.961,1.961,0,0,0,.846-.114c.2-.118.3-.384.3-.8a.8.8,0,0,0-.208-.593.819.819,0,0,0-.538-.158.6.6,0,0,0-.324.055.375.375,0,0,0-.078.266v1.348Z" transform="translate(-263.421 -959.803)" fill="#231f20"/><path d="M324.71,964.046c.236-.01.39-.071.45-.19a1.956,1.956,0,0,0,.09-.742v-2.563a.352.352,0,0,0-.082-.125.8.8,0,0,0-.165-.148.41.41,0,0,0-.1-.042c-.03-.007-.09-.018-.176-.033v-.313h1.24l1.916,2.859v-1.892a.685.685,0,0,0-.178-.549.661.661,0,0,0-.37-.1v-.313h1.4v.309a.51.51,0,0,0-.427.222,1.52,1.52,0,0,0-.1.673v3.343h-.3l-2.341-3.485v2.378a.8.8,0,0,0,.185.612.616.616,0,0,0,.374.109v.331H324.71Z" transform="translate(-305.187 -959.794)" fill="#231f20"/><path d="M372.934,959.9l.767,2.726.74-2.726H376v.334l-.3.009c-.091,0-.148.032-.171.093a1.488,1.488,0,0,0-.028.376v2.947a.939.939,0,0,0,.031.3c.022.059.084.084.184.087l.286.007v.331h-1.847v-.331l.288-.007a.185.185,0,0,0,.179-.124.508.508,0,0,0,.023-.167v-3.448l-1.085,4.078h-.244l-1.132-4.016v2.865a1.155,1.155,0,0,0,.131.651.474.474,0,0,0,.417.169v.331H371.34v-.331a.591.591,0,0,0,.345-.109.762.762,0,0,0,.176-.564l.008-.173v-2.644a.607.607,0,0,0-.037-.258c-.024-.04-.092-.064-.2-.067l-.274-.009V959.9Z" transform="translate(-347.756 -959.803)" fill="#231f20"/><path d="M427.271,964.056a1.258,1.258,0,0,0,.427-.036c.06-.029.089-.117.089-.268v-3.28c0-.109-.029-.176-.081-.2a1.774,1.774,0,0,0-.435-.04V959.9h3.291l.035,1.622-.244.006a1.827,1.827,0,0,0-.453-1.042,1.111,1.111,0,0,0-.755-.258.635.635,0,0,0-.388.083.477.477,0,0,0-.1.359v1.24a.288.288,0,0,1,.057.005h.039a.565.565,0,0,0,.538-.335,1.79,1.79,0,0,0,.143-.555h.247v2.166l-.247.005a1.087,1.087,0,0,0-.252-.759.745.745,0,0,0-.527-.2v1.436c0,.166.027.272.091.315a.877.877,0,0,0,.43.065,1,1,0,0,0,.884-.418,3.029,3.029,0,0,0,.346-.912l.249.023-.059,1.638H427.27v-.33h0Z" transform="translate(-398.816 -959.803)" fill="#231f20"/><path d="M469.87,964.046c.238-.01.385-.071.445-.19a1.859,1.859,0,0,0,.094-.742v-2.563a.368.368,0,0,0-.082-.125.744.744,0,0,0-.168-.148.4.4,0,0,0-.1-.042c-.03-.007-.09-.018-.179-.033v-.313h1.24l1.917,2.859v-1.892a.685.685,0,0,0-.178-.549.668.668,0,0,0-.367-.1v-.313h1.392v.309a.494.494,0,0,0-.422.222,1.5,1.5,0,0,0-.1.673v3.343h-.3l-2.34-3.485v2.378a.788.788,0,0,0,.183.612.635.635,0,0,0,.374.109v.331H469.87v-.334Z" transform="translate(-437.706 -959.794)" fill="#231f20"/><path d="M516.889,959.9h3.253l.077,1.687h-.246a2.8,2.8,0,0,0-.187-.776c-.165-.4-.381-.6-.657-.6-.079,0-.131.023-.149.064a.7.7,0,0,0-.029.246v3.261c0,.135.026.211.082.236a1.708,1.708,0,0,0,.477.036v.331h-1.991v-.324l.35-.017a.191.191,0,0,0,.157-.073.393.393,0,0,0,.052-.221V960.4a.276.276,0,0,0-.032-.145c-.023-.033-.079-.047-.17-.047-.257,0-.457.178-.611.542a3.573,3.573,0,0,0-.211.837h-.244Z" transform="translate(-480.558 -959.803)" fill="#231f20"/><path d="M575.725,959.49a1.608,1.608,0,0,1,1.275-.65,1.633,1.633,0,0,1,1.412.782,2.866,2.866,0,0,1-.018,3.131,1.625,1.625,0,0,1-1.4.771,1.574,1.574,0,0,1-1.332-.731,2.7,2.7,0,0,1-.494-1.63,2.553,2.553,0,0,1,.555-1.673m.607,3.111a.737.737,0,0,0,.725.612.673.673,0,0,0,.641-.512,4.469,4.469,0,0,0,.2-1.515,4.88,4.88,0,0,0-.185-1.443c-.128-.385-.349-.58-.672-.58-.384,0-.644.276-.782.82a5.312,5.312,0,0,0-.114,1.248,4.71,4.71,0,0,0,.19,1.37" transform="translate(-533.836 -958.84)" fill="#231f20"/><path d="M621.03,964.046l.3-.01c.1-.006.158-.029.184-.074a.573.573,0,0,0,.04-.26v-3.189a.353.353,0,0,0-.049-.216.225.225,0,0,0-.185-.064l-.281-.009v-.334h3.243l.031,1.632h-.239a1.6,1.6,0,0,0-.572-1.132,1.273,1.273,0,0,0-.7-.16.494.494,0,0,0-.287.064.309.309,0,0,0-.085.258v1.353a.636.636,0,0,0,.543-.167,1.976,1.976,0,0,0,.243-.691h.247v2.147h-.247a1.845,1.845,0,0,0-.124-.556.57.57,0,0,0-.541-.4h-.121v1.453a.588.588,0,0,0,.043.257.194.194,0,0,0,.173.089l.38.012v.331h-1.993v-.331Z" transform="translate(-575.702 -959.794)" fill="#231f20"/><path d="M679.92,961.713a3.444,3.444,0,0,0,.518,1.064.985.985,0,0,0,.824.432.7.7,0,0,0,.488-.192.678.678,0,0,0,.2-.517.651.651,0,0,0-.2-.513.981.981,0,0,0-.387-.164l-.354-.086a2.113,2.113,0,0,1-.791-.338,1.341,1.341,0,0,1-.542-1.153,1.407,1.407,0,0,1,.361-1.013,1.213,1.213,0,0,1,.928-.382,1.175,1.175,0,0,1,.543.124,1.608,1.608,0,0,1,.326.22l.264-.3h.213l.067,1.631-.247,0a2.288,2.288,0,0,0-.541-1.034.982.982,0,0,0-.685-.321.693.693,0,0,0-.475.176.586.586,0,0,0-.2.469.566.566,0,0,0,.212.477.989.989,0,0,0,.34.149l.428.118a2.22,2.22,0,0,1,.878.393,1.384,1.384,0,0,1,.442,1.118,1.545,1.545,0,0,1-.359,1.044,1.164,1.164,0,0,1-.919.416,1.536,1.536,0,0,1-.553-.1,1.347,1.347,0,0,1-.473-.321l-.311.381h-.211l-.033-1.767Z" transform="translate(-629.245 -958.849)" fill="#231f20"/><path d="M717.9,960.224v-.334h1.878v.334l-.3.009-.081.014a.122.122,0,0,0-.1.1,1.164,1.164,0,0,0-.018.223v3.008c0,.233.022.367.064.4a.919.919,0,0,0,.438.065v.331H717.9v-.331l.2-.006c.141-.005.226-.028.261-.071a.741.741,0,0,0,.047-.319v-1.378H717.1v1.444a.438.438,0,0,0,.05.266.352.352,0,0,0,.211.058l.238.006v.331H715.72v-.324l.282-.011c.1-.006.156-.031.177-.074a.643.643,0,0,0,.037-.259l.006-.219v-2.964c0-.144-.023-.228-.062-.254a1.437,1.437,0,0,0-.44-.049v-.334H717.6v.334l-.3.009c-.091,0-.149.021-.17.067a.571.571,0,0,0-.029.227v1.346H718.4v-1.3a.557.557,0,0,0-.041-.268c-.02-.033-.077-.055-.163-.067Z" transform="translate(-662.146 -959.794)" fill="#231f20"/><path d="M764.346,959.04h.369l1.273,3.841a.649.649,0,0,0,.163.3.57.57,0,0,0,.3.071v.348h-1.717v-.348a.965.965,0,0,0,.262-.016.152.152,0,0,0,.116-.163.147.147,0,0,0-.005-.041c0-.016-.008-.032-.011-.045l-.237-.749h-1.251l-.075.223a1.252,1.252,0,0,0-.039.15.915.915,0,0,0-.028.223.366.366,0,0,0,.166.346.785.785,0,0,0,.315.071v.348h-1.4v-.348a.586.586,0,0,0,.368-.21,2.6,2.6,0,0,0,.309-.673Zm-.1,1.287-.505,1.527h.988Z" transform="translate(-704.889 -959.022)" fill="#231f20"/><path d="M809.835,959.916a1.083,1.083,0,0,1,.929.453,1.248,1.248,0,0,1,.17.665,1,1,0,0,1-.452.91,1.435,1.435,0,0,1-.6.193,1.26,1.26,0,0,1,.377.206,1.12,1.12,0,0,1,.347.64l.1.544a1.871,1.871,0,0,0,.074.292c.031.084.072.129.122.129s.115-.048.153-.135a1.8,1.8,0,0,0,.081-.454l.241.005a1.186,1.186,0,0,1-.241.856.806.806,0,0,1-.571.238.7.7,0,0,1-.565-.236,1.019,1.019,0,0,1-.219-.638l-.029-.516a1.577,1.577,0,0,0-.141-.633.448.448,0,0,0-.445-.209h-.313v1.5a.45.45,0,0,0,.045.26c.029.035.12.053.265.055l.232.01v.331H807.47v-.331a1.38,1.38,0,0,0,.423-.036c.051-.029.081-.106.087-.237l0-.156v-2.892a1.726,1.726,0,0,0-.028-.406c-.021-.055-.076-.085-.172-.086l-.313-.009V959.9h2Zm-.978,1.978a1.984,1.984,0,0,0,.848-.114c.2-.118.3-.384.3-.8a.79.79,0,0,0-.21-.593.817.817,0,0,0-.535-.158.583.583,0,0,0-.323.055c-.05.038-.073.126-.082.266Z" transform="translate(-745.907 -959.803)" fill="#231f20"/><path d="M852.763,962.614a.489.489,0,0,1,.445-.274.411.411,0,0,1,.355.18.752.752,0,0,1,.133.446.871.871,0,0,1-.1.417.317.317,0,0,1-.288.177.328.328,0,0,1-.114-.022.4.4,0,0,0-.085-.017c-.043,0-.074.01-.086.039a.207.207,0,0,0-.022.1.438.438,0,0,0,.162.307.537.537,0,0,0,.386.152.674.674,0,0,0,.695-.488,3.743,3.743,0,0,0,.1-1.02v-2.065c0-.152-.021-.24-.062-.262a.236.236,0,0,0-.118-.041l-.35-.012V959.9h1.913v.334l-.278.009-.064,0c-.081.011-.132.037-.146.083a1.39,1.39,0,0,0-.028.353V962.8a2.693,2.693,0,0,1-.049.585,1.425,1.425,0,0,1-.361.7,1.483,1.483,0,0,1-.4.276,1.4,1.4,0,0,1-.623.125,1.085,1.085,0,0,1-.859-.343,1.324,1.324,0,0,1-.3-.913,1.226,1.226,0,0,1,.153-.615" transform="translate(-787.115 -959.803)" fill="#231f20"/><path d="M889.7,959.04h.368l1.275,3.841a.655.655,0,0,0,.165.3.553.553,0,0,0,.293.071v.348h-1.717v-.348a.972.972,0,0,0,.262-.016.153.153,0,0,0,.115-.163.283.283,0,0,0,0-.041c0-.016-.008-.032-.011-.045l-.238-.749h-1.25l-.075.223c-.016.052-.033.1-.043.15a1.179,1.179,0,0,0-.027.223.369.369,0,0,0,.171.346.765.765,0,0,0,.313.071v.348h-1.4v-.348a.6.6,0,0,0,.37-.21,2.44,2.44,0,0,0,.3-.673Zm-.1,1.287-.508,1.527h.993Z" transform="translate(-819.333 -959.022)" fill="#231f20"/><path d="M935.149,960.224v-.334h1.874v.334l-.3.009-.084.014a.119.119,0,0,0-.1.1,1.015,1.015,0,0,0-.022.223v3.008c0,.233.022.367.063.4a.922.922,0,0,0,.436.065v.331h-1.874v-.331l.195-.006c.141-.005.23-.028.26-.071a.7.7,0,0,0,.048-.319v-1.378h-1.307v1.444c0,.143.019.234.057.266a.321.321,0,0,0,.206.058l.239.006v.331H932.97v-.324l.282-.011c.1-.006.153-.031.178-.074a.651.651,0,0,0,.038-.259l.006-.219v-2.964c0-.144-.023-.228-.065-.254a1.4,1.4,0,0,0-.438-.049v-.334h1.877v.334l-.3.009c-.1,0-.149.021-.174.067a.591.591,0,0,0-.032.227v1.346h1.307v-1.3a.564.564,0,0,0-.039-.268.232.232,0,0,0-.162-.067Z" transform="translate(-860.478 -959.794)" fill="#231f20"/></g></g><g transform="translate(7.02 0)"><g clip-path="url(#a)"><path d="M180.74,107.037c0,18.13,14.06,32.885,31.332,32.885S243.4,125.167,243.4,107.037s-14.053-32.9-31.328-32.9S180.74,88.9,180.74,107.037m.96,0c0-17.582,13.631-31.883,30.373-31.883s30.366,14.3,30.366,31.883c0,17.566-13.621,31.873-30.366,31.873S181.7,124.6,181.7,107.037" transform="translate(-180.741 -74.14)" fill="#231f20"/></g><g clip-path="url(#a)"><path d="M550.369,363.757s-.475-1.735-1.8-.888l.022.434s1.17-.576,1.17.363Z" transform="translate(-516.539 -336.224)" fill="#f6b565"/></g><g clip-path="url(#a)"><path d="M547.868,362.267l-.038.016.031.553.077-.037s.624-.3.922-.1a.474.474,0,0,1,.172.412v.056l.744.113-.034-.088a1.73,1.73,0,0,0-.83-1.1,1.114,1.114,0,0,0-1.044.181m1.007-.067a1.609,1.609,0,0,1,.741.926c-.13-.019-.417-.06-.475-.071a.6.6,0,0,0-.212-.461c-.289-.19-.772-.017-.96.066,0-.1-.011-.256-.017-.307a1.029,1.029,0,0,1,.922-.153" transform="translate(-515.864 -335.666)" fill="#231f20"/></g><g clip-path="url(#a)"><path d="M562.9,405.429c-.145,0-.255-.144-.255-.444s.11-.445.255-.445.265.151.265.445-.116.444-.265.444" transform="translate(-529.384 -374.291)" fill="#f27b58"/></g><g clip-path="url(#a)"><path d="M561.9,404.422c0,.372.174.5.32.5s.318-.129.318-.5-.169-.5-.318-.5-.32.134-.32.5m.117,0c0-.229.085-.383.2-.383s.206.154.206.383-.08.384-.206.384-.2-.152-.2-.384" transform="translate(-528.708 -373.728)" fill="#231f20"/></g><g clip-path="url(#a)"><path d="M568.783,399.956c-.144,0-.253-.152-.253-.45s.11-.437.253-.437.266.146.266.437-.117.45-.266.45" transform="translate(-534.761 -369.322)" fill="#f27b58"/></g><g clip-path="url(#a)"><path d="M567.8,398.862c0,.372.169.509.317.509s.321-.136.321-.509-.172-.5-.321-.5-.317.133-.317.5m.118,0c0-.224.076-.38.2-.38s.208.156.208.38-.08.388-.208.388-.2-.15-.2-.388" transform="translate(-534.095 -368.677)" fill="#231f20"/></g><g clip-path="url(#a)"><path d="M556.307,399.566c-.158,0-.267-.136-.267-.431s.11-.445.267-.445.254.147.254.445-.107.431-.254.431" transform="translate(-523.359 -368.977)" fill="#f27b58"/></g><g clip-path="url(#a)"><path d="M555.39,398.544c0,.372.167.5.325.5s.314-.131.314-.5-.167-.5-.314-.5-.325.126-.325.5m.115,0c0-.234.088-.384.209-.384s.2.149.2.384-.073.383-.2.383-.209-.153-.209-.383" transform="translate(-522.765 -368.386)" fill="#231f20"/></g><g clip-path="url(#a)"><path d="M559.579,401.3c-.146,0-.259-.148-.259-.446s.112-.443.259-.443.266.148.266.443-.113.446-.266.446" transform="translate(-526.353 -370.539)" fill="#f27b58"/></g><g clip-path="url(#a)"><path d="M558.71,400.3c0,.38.165.5.312.5s.329-.124.329-.5-.176-.5-.329-.5-.312.127-.312.5m.114,0c0-.234.078-.382.2-.382s.211.147.211.382-.081.387-.211.387-.2-.15-.2-.387" transform="translate(-525.796 -369.985)" fill="#231f20"/></g><g clip-path="url(#a)"><path d="M564.528,401.3c-.144,0-.268-.148-.268-.446s.124-.443.268-.443.262.148.262.443-.116.446-.262.446" transform="translate(-530.863 -370.539)" fill="#f27b58"/></g><g clip-path="url(#a)"><path d="M563.66,400.3c0,.38.17.5.321.5s.319-.124.319-.5-.172-.5-.319-.5-.321.127-.321.5m.121,0c0-.234.07-.382.2-.382s.2.147.2.382-.078.387-.2.387-.2-.15-.2-.387" transform="translate(-530.315 -369.985)" fill="#231f20"/></g><g clip-path="url(#a)"><path d="M568.072,394.594c-.154,0-.272-.152-.272-.44s.117-.444.272-.444.26.146.26.444-.117.44-.26.44" transform="translate(-534.095 -364.453)" fill="#f27b58"/></g><g clip-path="url(#a)"><path d="M567.22,393.536c0,.368.168.5.323.5s.316-.133.316-.5-.174-.506-.316-.506-.323.125-.323.506m.119,0c0-.236.07-.386.2-.386.113,0,.2.15.2.386s-.083.377-.2.377c-.133,0-.2-.148-.2-.377" transform="translate(-533.565 -363.835)" fill="#231f20"/></g><g clip-path="url(#a)"><path d="M563.177,395.148c-.149,0-.267-.149-.267-.44s.118-.448.267-.448.261.152.261.448-.115.44-.261.44" transform="translate(-529.63 -364.952)" fill="#f27b58"/></g><g clip-path="url(#a)"><path d="M562.26,394.117c0,.378.175.505.325.505s.316-.128.316-.505-.17-.507-.316-.507-.325.136-.325.507m.118,0c0-.231.076-.389.206-.389s.2.158.2.389-.079.38-.2.38-.206-.153-.206-.38" transform="translate(-529.037 -364.362)" fill="#231f20"/></g><g clip-path="url(#a)"><path d="M557.571,395.3c-.151,0-.271-.143-.271-.451,0-.287.12-.439.271-.439s.253.151.253.439c0,.308-.112.451-.253.451" transform="translate(-524.509 -365.089)" fill="#f27b58"/></g><g clip-path="url(#a)"><path d="M556.62,394.239c0,.376.17.507.33.507.141,0,.316-.132.316-.507s-.176-.5-.316-.5c-.159,0-.33.136-.33.5m.125,0c0-.233.075-.374.206-.374s.2.141.2.374-.076.385-.2.385-.206-.147-.206-.385" transform="translate(-523.888 -364.48)" fill="#231f20"/></g><g clip-path="url(#a)"><path d="M553.08,392.313c-.145,0-.26-.145-.26-.444s.115-.439.26-.439.26.142.26.439-.117.444-.26.444" transform="translate(-520.419 -362.381)" fill="#f27b58"/></g><g clip-path="url(#a)"><path d="M552.12,391.243c0,.374.175.507.321.507s.316-.134.316-.507-.172-.5-.316-.5-.321.13-.321.5m.115,0c0-.231.08-.382.206-.382s.209.151.209.382-.088.383-.209.383-.206-.147-.206-.383" transform="translate(-519.78 -361.755)" fill="#231f20"/></g><g clip-path="url(#a)"><path d="M556.887,388.464c-.145,0-.257-.15-.257-.441s.112-.453.257-.453.266.153.266.453-.125.441-.266.441" transform="translate(-523.897 -358.875)" fill="#f27b58"/></g><g clip-path="url(#a)"><path d="M555.8,387.514c0,.366.184.5.329.5s.318-.138.318-.5-.174-.5-.318-.5-.329.131-.329.5m.123,0c0-.237.088-.385.206-.385s.2.148.2.385-.074.378-.2.378-.206-.146-.206-.378" transform="translate(-523.139 -358.366)" fill="#231f20"/></g><g clip-path="url(#a)"><path d="M562.154,388c-.143,0-.254-.151-.254-.449s.111-.446.254-.446.26.156.26.446-.116.449-.26.449" transform="translate(-528.708 -358.457)" fill="#f27b58"/></g><g clip-path="url(#a)"><path d="M561.18,386.974c0,.38.169.5.317.5s.328-.124.328-.5-.172-.5-.328-.5-.317.134-.317.5m.115,0c0-.233.077-.383.2-.383s.208.149.208.383-.081.385-.208.385-.2-.15-.2-.385" transform="translate(-528.051 -357.875)" fill="#231f20"/></g><g clip-path="url(#a)"><path d="M567.088,386.547c-.143,0-.258-.145-.258-.45,0-.289.115-.438.258-.438s.264.148.264.438-.109.45-.264.45" transform="translate(-533.209 -357.14)" fill="#f27b58"/></g><g clip-path="url(#a)"><path d="M566.16,385.471c0,.378.172.506.316.506s.327-.129.327-.506-.172-.5-.327-.5-.316.135-.316.5m.117,0c0-.229.081-.378.2-.378s.211.149.211.378-.079.39-.211.39-.2-.154-.2-.39" transform="translate(-532.597 -356.513)" fill="#231f20"/></g><g clip-path="url(#a)"><path d="M571.849,382.758c-.152,0-.269-.151-.269-.445s.116-.443.269-.443.261.15.261.443-.118.445-.261.445" transform="translate(-537.545 -353.697)" fill="#f27b58"/></g><g clip-path="url(#a)"><path d="M570.95,381.7c0,.372.171.506.324.506s.316-.135.316-.506-.17-.5-.316-.5-.324.135-.324.5m.111,0c0-.233.084-.386.213-.386s.2.153.2.386-.079.384-.2.384-.213-.152-.213-.384" transform="translate(-536.97 -353.088)" fill="#231f20"/></g><g clip-path="url(#a)"><path d="M560.076,381.559c-.146,0-.266-.149-.266-.445s.119-.434.266-.434.258.142.258.434-.114.445-.258.445" transform="translate(-526.8 -352.616)" fill="#f27b58"/></g><g clip-path="url(#a)"><path d="M559.16,380.478c0,.373.17.512.323.512s.314-.138.314-.512-.169-.5-.314-.5-.323.135-.323.5m.119,0c0-.227.075-.378.2-.378s.2.151.2.378-.077.388-.2.388-.2-.149-.2-.388" transform="translate(-526.207 -351.98)" fill="#231f20"/></g><g clip-path="url(#a)"><path d="M553.8,382c-.152,0-.27-.145-.27-.442s.118-.442.27-.442.257.148.257.442-.119.442-.257.442" transform="translate(-521.067 -353.015)" fill="#f27b58"/></g><g clip-path="url(#a)"><path d="M552.94,380.973c0,.369.169.5.321.5s.316-.136.316-.5-.176-.5-.316-.5-.321.128-.321.5m.108,0c0-.23.083-.377.213-.377s.2.147.2.377-.075.39-.2.39-.213-.157-.213-.39" transform="translate(-520.529 -352.425)" fill="#231f20"/></g><g clip-path="url(#a)"><path d="M556.608,375.266c-.147,0-.258-.143-.258-.447s.111-.439.258-.439.259.147.259.439-.115.447-.259.447" transform="translate(-523.642 -346.892)" fill="#f27b58"/></g><g clip-path="url(#a)"><path d="M555.59,374.174c0,.38.174.505.325.505s.323-.126.323-.505-.169-.5-.323-.5-.325.133-.325.5m.123,0c0-.223.08-.38.2-.38s.207.157.207.38c0,.239-.078.383-.207.383s-.2-.144-.2-.383" transform="translate(-522.948 -346.247)" fill="#231f20"/></g><g clip-path="url(#a)"><path d="M561.649,373.446c-.147,0-.259-.142-.259-.437s.111-.45.259-.45.265.153.265.45-.116.437-.265.437" transform="translate(-528.243 -345.239)" fill="#f27b58"/></g><g clip-path="url(#a)"><path d="M560.6,372.447c0,.374.178.5.327.5s.311-.127.311-.5-.162-.507-.311-.507-.327.136-.327.507m.125,0c0-.237.077-.385.2-.385s.206.147.206.385-.086.381-.206.381-.2-.152-.2-.381" transform="translate(-527.521 -344.676)" fill="#231f20"/></g><g clip-path="url(#a)"><path d="M565.372,379.257c-.146,0-.262-.148-.262-.449s.117-.438.262-.438.26.148.26.438-.119.449-.26.449" transform="translate(-531.639 -350.517)" fill="#f27b58"/></g><g clip-path="url(#a)"><path d="M564.49,378.208c0,.378.17.512.316.512s.318-.134.318-.512-.178-.5-.318-.5-.316.132-.316.5m.109,0c0-.225.086-.38.207-.38s.2.155.2.38-.072.392-.2.392-.207-.153-.207-.392" transform="translate(-531.073 -349.917)" fill="#231f20"/></g><g clip-path="url(#a)"><path d="M569.49,374.646c-.151,0-.26-.146-.26-.443s.109-.443.26-.443.265.149.265.443-.119.443-.265.443" transform="translate(-535.4 -346.329)" fill="#f27b58"/></g><g clip-path="url(#a)"><path d="M568.62,373.576c0,.37.162.5.314.5s.324-.131.324-.5-.174-.506-.324-.506-.314.134-.314.506m.1,0c0-.238.09-.386.212-.386s.2.148.2.386-.079.379-.2.379-.212-.148-.212-.379" transform="translate(-534.843 -345.702)" fill="#231f20"/></g><g clip-path="url(#a)"><path d="M565.426,369.763c-.149,0-.276-.145-.276-.445s.127-.438.276-.438c.129,0,.256.149.256.438s-.127.445-.256.445" transform="translate(-531.675 -341.896)" fill="#f27b58"/></g><g clip-path="url(#a)"><path d="M564.62,368.691c0,.375.161.5.322.5.141,0,.312-.13.312-.5s-.171-.5-.312-.5c-.161,0-.322.128-.322.5m.106,0c0-.236.087-.374.216-.374.113,0,.188.138.188.374s-.075.385-.188.385c-.13,0-.216-.147-.216-.385" transform="translate(-531.191 -341.269)" fill="#231f20"/></g><g clip-path="url(#a)"><path d="M559.061,370.974c-.149,0-.271-.152-.271-.45s.122-.443.271-.443.254.149.254.443-.112.45-.254.45" transform="translate(-525.869 -342.986)" fill="#f27b58"/></g><g clip-path="url(#a)"><path d="M558.22,369.887c0,.373.171.506.32.506s.312-.134.312-.506-.169-.507-.312-.507-.32.141-.32.507m.107,0c0-.222.086-.381.213-.381s.2.158.2.381-.085.386-.2.386-.213-.149-.213-.386" transform="translate(-525.349 -342.35)" fill="#231f20"/></g><g clip-path="url(#a)"><path d="M571.328,391.5c-.154,0-.268-.147-.268-.44s.113-.448.268-.448.26.151.26.448-.119.44-.26.44" transform="translate(-537.071 -361.637)" fill="#f27b58"/></g><g clip-path="url(#a)"><path d="M570.39,390.494c0,.373.172.5.327.5s.319-.129.319-.5-.171-.5-.319-.5-.327.132-.327.5m.121,0c0-.232.079-.38.206-.38s.2.148.2.38-.078.384-.2.384-.206-.149-.206-.384" transform="translate(-536.459 -361.073)" fill="#231f20"/></g><g clip-path="url(#a)"><path d="M488.75,362.316s.475-1.74,1.8-.888l-.024.428s-1.175-.576-1.175.372Z" transform="translate(-461.928 -334.913)" fill="#f6b565"/></g><g clip-path="url(#a)"><path d="M488.723,360.614a1.817,1.817,0,0,0-.831,1.1l-.022.094.739-.114v-.05a.485.485,0,0,1,.165-.417c.311-.2.921.1.921.1l.081.032.031-.55-.036-.009a1.127,1.127,0,0,0-1.048-.185m.041.115a1,1,0,0,1,.919.153c0,.051-.008.2-.014.3-.188-.077-.659-.249-.954-.048a.521.521,0,0,0-.207.455c-.058,0-.351.057-.476.062a1.59,1.59,0,0,1,.733-.923" transform="translate(-461.125 -334.33)" fill="#231f20"/></g><g clip-path="url(#a)"><path d="M489.648,403.917c.145,0,.267-.149.267-.45s-.122-.447-.267-.447-.258.157-.258.447.114.45.258.45" transform="translate(-462.513 -372.91)" fill="#f27b58"/></g><g clip-path="url(#a)"><path d="M488.75,402.949c0,.376.17.509.314.509s.321-.133.321-.509-.176-.5-.321-.5-.314.127-.314.5m.116,0c0-.231.077-.377.2-.377s.207.146.207.377-.081.385-.207.385-.2-.146-.2-.385" transform="translate(-461.928 -372.393)" fill="#231f20"/></g><g clip-path="url(#a)"><path d="M483.78,398.447c.153,0,.259-.145.259-.44s-.106-.447-.259-.447-.26.149-.26.447.12.44.26.44" transform="translate(-457.154 -367.95)" fill="#f27b58"/></g><g clip-path="url(#a)"><path d="M482.86,397.471c0,.371.175.5.32.5s.314-.128.314-.5-.164-.5-.314-.5-.32.127-.32.5m.11,0c0-.233.079-.384.21-.384s.2.151.2.384-.075.386-.2.386-.21-.149-.21-.386" transform="translate(-456.551 -367.414)" fill="#231f20"/></g><g clip-path="url(#a)"><path d="M496.107,398.105c.146,0,.27-.15.27-.443s-.124-.442-.27-.442-.267.148-.267.442.125.443.267.443" transform="translate(-468.401 -367.641)" fill="#f27b58"/></g><g clip-path="url(#a)"><path d="M495.26,397.026c0,.367.175.507.317.507s.316-.14.316-.507-.17-.506-.316-.506-.317.138-.317.506m.117,0c0-.233.071-.383.2-.383s.2.15.2.383-.077.378-.2.378-.2-.137-.2-.378" transform="translate(-467.872 -367.005)" fill="#231f20"/></g><g clip-path="url(#a)"><path d="M492.959,399.809c.14,0,.267-.147.267-.438s-.127-.45-.267-.45-.259.151-.259.45.111.438.259.438" transform="translate(-465.535 -369.186)" fill="#f27b58"/></g><g clip-path="url(#a)"><path d="M492.01,398.762c0,.372.163.5.319.5s.321-.126.321-.5-.171-.512-.321-.512-.319.143-.319.512m.114,0c0-.233.077-.382.205-.382s.2.148.2.382-.084.382-.2.382-.205-.151-.205-.382" transform="translate(-464.905 -368.577)" fill="#231f20"/></g><g clip-path="url(#a)"><path d="M487.932,399.809c.143,0,.258-.147.258-.438s-.115-.45-.258-.45-.262.151-.262.45.111.438.262.438" transform="translate(-460.942 -369.186)" fill="#f27b58"/></g><g clip-path="url(#a)"><path d="M486.9,398.762c0,.372.178.5.329.5s.314-.126.314-.5-.171-.512-.314-.512-.329.143-.329.512m.119,0c0-.233.082-.382.209-.382s.2.148.2.382-.075.382-.2.382-.209-.151-.209-.382" transform="translate(-460.24 -368.577)" fill="#231f20"/></g><g clip-path="url(#a)"><path d="M484.38,393.051c.143,0,.264-.146.264-.441s-.122-.45-.264-.45-.26.155-.26.45.111.441.26.441" transform="translate(-457.702 -363.045)" fill="#f27b58"/></g><g clip-path="url(#a)"><path d="M483.44,392.065c0,.367.17.5.32.5s.32-.136.32-.5-.167-.5-.32-.5-.32.131-.32.5m.112,0c0-.233.085-.385.208-.385s.205.152.205.385-.081.385-.205.385-.208-.153-.208-.385" transform="translate(-457.081 -362.5)" fill="#231f20"/></g><g clip-path="url(#a)"><path d="M489.226,393.758c.142,0,.271-.152.271-.447s-.129-.441-.271-.441-.266.141-.266.441.12.447.266.447" transform="translate(-462.12 -363.69)" fill="#f27b58"/></g><g clip-path="url(#a)"><path d="M488.34,392.675c0,.368.174.5.321.5s.318-.132.318-.5-.165-.505-.318-.505-.321.131-.321.505m.116,0c0-.234.078-.384.2-.384s.21.149.21.384-.078.385-.21.385-.2-.148-.2-.385" transform="translate(-461.554 -363.054)" fill="#231f20"/></g><g clip-path="url(#a)"><path d="M494.848,393.856c.148,0,.264-.153.264-.443s-.116-.443-.264-.443-.268.146-.268.443.121.443.268.443" transform="translate(-467.251 -363.78)" fill="#f27b58"/></g><g clip-path="url(#a)"><path d="M494.01,392.777c0,.374.165.5.318.5s.325-.129.325-.5-.176-.507-.325-.507-.318.135-.318.507m.11,0c0-.234.088-.385.208-.385s.212.15.212.385-.094.386-.212.386-.208-.158-.208-.386" transform="translate(-466.73 -363.145)" fill="#231f20"/></g><g clip-path="url(#a)"><path d="M499.44,390.822c.144,0,.259-.149.259-.444s-.116-.448-.259-.448-.26.151-.26.448.115.444.26.444" transform="translate(-471.45 -361.019)" fill="#f27b58"/></g><g clip-path="url(#a)"><path d="M498.52,389.777c0,.37.167.5.318.5s.32-.131.32-.5-.177-.507-.32-.507-.318.134-.318.507m.111,0c0-.234.093-.386.207-.386s.207.152.207.386-.081.383-.207.383-.207-.151-.207-.383" transform="translate(-470.848 -360.419)" fill="#231f20"/></g><g clip-path="url(#a)"><path d="M495.68,387.047c.147,0,.268-.145.268-.443s-.121-.444-.268-.444-.26.149-.26.444.115.443.26.443" transform="translate(-468.018 -357.594)" fill="#f27b58"/></g><g clip-path="url(#a)"><path d="M494.74,386.032c0,.375.168.5.319.5s.321-.129.321-.5-.171-.5-.321-.5-.319.135-.319.5m.113,0c0-.229.084-.385.206-.385s.206.156.206.385-.077.385-.206.385-.206-.148-.206-.385" transform="translate(-467.397 -357.022)" fill="#231f20"/></g><g clip-path="url(#a)"><path d="M490.412,386.6c.144,0,.264-.145.264-.449,0-.285-.121-.432-.264-.432s-.262.147-.262.432c0,.3.114.449.262.449" transform="translate(-463.206 -357.194)" fill="#f27b58"/></g><g clip-path="url(#a)"><path d="M489.48,385.507c0,.381.164.514.321.514s.322-.134.322-.514-.178-.5-.322-.5-.321.131-.321.5m.114,0c0-.22.084-.378.206-.378s.2.157.2.378c0,.246-.079.4-.2.4s-.206-.15-.206-.4" transform="translate(-462.595 -356.549)" fill="#231f20"/></g><g clip-path="url(#a)"><path d="M485.327,385.053c.151,0,.263-.152.263-.441s-.112-.451-.263-.451-.266.152-.266.451.125.441.266.441" transform="translate(-458.56 -355.777)" fill="#f27b58"/></g><g clip-path="url(#a)"><path d="M484.47,384.075c0,.373.174.5.318.5s.315-.125.315-.5-.159-.505-.315-.505-.318.127-.318.505m.113,0c0-.241.085-.385.2-.385s.212.144.212.385-.087.378-.212.378-.2-.147-.2-.378" transform="translate(-458.021 -355.241)" fill="#231f20"/></g><g clip-path="url(#a)"><path d="M480.7,381.326c.145,0,.264-.147.264-.443s-.12-.443-.264-.443-.255.146-.255.443.1.443.255.443" transform="translate(-454.342 -352.398)" fill="#f27b58"/></g><g clip-path="url(#a)"><path d="M479.66,380.288c0,.377.172.507.323.507s.321-.131.321-.507-.172-.5-.321-.5-.323.13-.323.5m.113,0c0-.227.081-.382.209-.382s.2.155.2.382-.072.384-.2.384-.209-.146-.209-.384" transform="translate(-453.63 -351.807)" fill="#231f20"/></g><g clip-path="url(#a)"><path d="M492.358,380.065c.142,0,.257-.144.257-.439s-.115-.447-.257-.447-.268.147-.268.447.125.439.268.439" transform="translate(-464.978 -351.253)" fill="#f27b58"/></g><g clip-path="url(#a)"><path d="M491.56,379.036c0,.368.172.5.314.5s.32-.128.32-.5-.172-.506-.32-.506-.314.125-.314.506m.105,0c0-.236.088-.385.208-.385s.2.149.2.385-.071.376-.2.376-.208-.142-.208-.376" transform="translate(-464.494 -350.662)" fill="#231f20"/></g><g clip-path="url(#a)"><path d="M498.674,380.592c.145,0,.257-.149.257-.438s-.112-.444-.257-.444-.264.146-.264.444.116.438.264.438" transform="translate(-470.747 -351.734)" fill="#f27b58"/></g><g clip-path="url(#a)"><path d="M497.72,379.482c0,.364.176.5.324.5s.32-.134.32-.5-.172-.512-.32-.512-.324.136-.324.512m.113,0c0-.236.088-.385.21-.385s.2.148.2.385-.076.375-.2.375-.21-.143-.21-.375" transform="translate(-470.117 -351.062)" fill="#231f20"/></g><g clip-path="url(#a)"><path d="M495.937,373.776c.14,0,.249-.14.249-.439s-.109-.448-.249-.448-.267.147-.267.448.117.439.267.439" transform="translate(-468.246 -345.539)" fill="#f27b58"/></g><g clip-path="url(#a)"><path d="M494.99,372.763c0,.375.174.51.327.51s.308-.135.308-.51-.165-.5-.308-.5-.327.128-.327.5m.119,0c0-.236.078-.381.207-.381s.2.145.2.381-.079.383-.2.383-.207-.155-.207-.383" transform="translate(-467.625 -344.966)" fill="#231f20"/></g><g clip-path="url(#a)"><path d="M490.948,371.977c.141,0,.258-.156.258-.449s-.117-.449-.258-.449-.258.152-.258.449.116.449.258.449" transform="translate(-463.699 -343.895)" fill="#f27b58"/></g><g clip-path="url(#a)"><path d="M490,371.011c0,.369.176.511.318.511s.316-.141.316-.511-.176-.5-.316-.5-.318.129-.318.5m.109,0c0-.231.086-.381.209-.381s.2.15.2.381-.074.384-.2.384-.209-.151-.209-.384" transform="translate(-463.07 -343.377)" fill="#231f20"/></g><g clip-path="url(#a)"><path d="M487.157,377.817c.15,0,.267-.152.267-.442s-.117-.445-.267-.445-.257.146-.257.445.119.442.257.442" transform="translate(-460.24 -349.209)" fill="#f27b58"/></g><g clip-path="url(#a)"><path d="M486.21,376.775c0,.371.169.5.317.5s.32-.13.32-.5-.166-.505-.32-.505-.317.132-.317.505m.113,0c0-.239.083-.386.2-.386s.213.147.213.386-.081.379-.213.379-.2-.149-.2-.379" transform="translate(-459.61 -348.609)" fill="#231f20"/></g><g clip-path="url(#a)"><path d="M482.989,373.2c.151,0,.266-.148.266-.445s-.115-.439-.266-.439-.259.141-.259.439.118.445.259.445" transform="translate(-456.433 -345.021)" fill="#f27b58"/></g><g clip-path="url(#a)"><path d="M482.13,372.133c0,.375.169.505.311.505s.328-.131.328-.505-.178-.5-.328-.5-.311.129-.311.5m.108,0c0-.232.088-.385.2-.385s.211.153.211.385-.081.383-.211.383-.2-.149-.2-.383" transform="translate(-455.885 -344.394)" fill="#231f20"/></g><g clip-path="url(#a)"><path d="M487.008,368.308c.144,0,.267-.148.267-.445s-.124-.443-.267-.443-.258.147-.258.443.119.445.258.445" transform="translate(-460.103 -340.57)" fill="#f27b58"/></g><g clip-path="url(#a)"><path d="M486.08,367.218c0,.377.178.5.316.5s.322-.126.322-.5-.179-.508-.322-.508-.316.135-.316.508m.118,0c0-.236.079-.385.2-.385s.207.148.207.385-.074.384-.207.384-.2-.151-.2-.384" transform="translate(-459.491 -339.925)" fill="#231f20"/></g><g clip-path="url(#a)"><path d="M493.434,369.549c.14,0,.259-.149.259-.449s-.119-.44-.259-.44-.264.142-.264.44.117.449.264.449" transform="translate(-465.964 -341.696)" fill="#f27b58"/></g><g clip-path="url(#a)"><path d="M492.44,368.492c0,.37.174.505.327.505s.312-.136.312-.505-.172-.5-.312-.5-.327.126-.327.5m.119,0c0-.228.081-.377.208-.377s.2.149.2.377-.074.386-.2.386-.208-.155-.208-.386" transform="translate(-465.297 -341.087)" fill="#231f20"/></g><g clip-path="url(#a)"><path d="M481.165,390.121c.148,0,.266-.147.266-.439s-.118-.442-.266-.442-.255.141-.255.442.113.439.255.439" transform="translate(-454.771 -360.392)" fill="#f27b58"/></g><g clip-path="url(#a)"><path d="M480.16,389.028c0,.366.171.5.321.5s.325-.137.325-.5-.172-.508-.325-.508-.321.134-.321.508m.115,0c0-.23.088-.382.206-.382s.211.152.211.382-.086.38-.211.38-.206-.146-.206-.38" transform="translate(-454.086 -359.738)" fill="#231f20"/></g><g clip-path="url(#a)"><path d="M405.369,146.9s-2.24-1.642-5.76-.022a14.16,14.16,0,0,0-6.517,5.633,4.229,4.229,0,0,1,.253-.8,6.345,6.345,0,0,1,2.5-2.626,1.931,1.931,0,0,0-1.044,0,10.214,10.214,0,0,1,2.1-1.045,1.458,1.458,0,0,0-1.139-.18,6.994,6.994,0,0,1,2.676-1.194,5.446,5.446,0,0,0-1.688-.028,6.835,6.835,0,0,1,3.036-1.251,7.235,7.235,0,0,0-1.9-.068,7.924,7.924,0,0,1,2.912-1.1,1.312,1.312,0,0,0-.985-.34s.61-.609,3-.976a.92.92,0,0,0-.467-.4c-.288-.092.091-.061.091-.061a24.628,24.628,0,0,1,2.472-.64s-3.606-.512-7.77,3.585c-3.067,3-4.111,5.142-4.5,7.086.017-1.251.126-4.253.6-5.14a1.941,1.941,0,0,0-.671.549,11.691,11.691,0,0,1,.961-3.945,8.661,8.661,0,0,0-1.011.988,24.024,24.024,0,0,1,1.309-3.348s-.65.58-.893.872a9.11,9.11,0,0,1,1.267-3.781,10.6,10.6,0,0,0-1.388,1.288,7.7,7.7,0,0,1,.778-1.7,2.086,2.086,0,0,0-.778.5,16.815,16.815,0,0,1,1.5-3.374,7.442,7.442,0,0,0-.9.638,4.4,4.4,0,0,1,.33-.5,4.458,4.458,0,0,0-.611.39,15.053,15.053,0,0,1,.7-1.745c.36-.663.739-1.371.739-1.371s-3.315,3.145-3.138,9.387c.095,3.363.369,5.927.57,7.866a20.192,20.192,0,0,0-2.562-6.811c-3.321-5.713-6.467-6.265-6.467-6.265a4.7,4.7,0,0,1,1.366,1.129.262.262,0,0,0-.26.248,8.165,8.165,0,0,1,2.413,1.707,2.092,2.092,0,0,0-1.19.062,7.74,7.74,0,0,1,2.642,2.051,3.549,3.549,0,0,0-1.476-.276,4.8,4.8,0,0,1,2.241,1.957,3.027,3.027,0,0,0-1.342.066,3.217,3.217,0,0,1,2.159,1.247,9.564,9.564,0,0,0-1.392-.487,9.2,9.2,0,0,1,2.1,2.357,12.685,12.685,0,0,0-1.428-.947c.282.248,1.325,1.553,1.7,2.025a3.039,3.039,0,0,0-1-.53,7.223,7.223,0,0,1,2.085,4.166,15.891,15.891,0,0,0-4.2-6.363c-4.161-4.1-7.777-3.585-7.777-3.585a24.53,24.53,0,0,1,2.473.64s.387-.031.084.061a.96.96,0,0,0-.462.4c2.39.367,3,.976,3,.976a1.319,1.319,0,0,0-.982.34,7.861,7.861,0,0,1,2.909,1.1,7.146,7.146,0,0,0-1.891.068,6.769,6.769,0,0,1,3.031,1.251,5.541,5.541,0,0,0-1.7.028,6.917,6.917,0,0,1,2.689,1.194,1.488,1.488,0,0,0-1.147.18,10.193,10.193,0,0,1,2.1,1.045,1.928,1.928,0,0,0-1.045,0,6.209,6.209,0,0,1,2.414,2.626,6.646,6.646,0,0,1,.376,1.315,3.065,3.065,0,0,0-.232-.515,15.182,15.182,0,0,0-6.4-5.722c-3.529-1.623-5.774.025-5.774.025a12.271,12.271,0,0,1,2.857-.085,2.347,2.347,0,0,0-1.022.641,11.008,11.008,0,0,1,3.266,0,2.476,2.476,0,0,0-1.436,1.16,6.473,6.473,0,0,1,3.3-.155,6.39,6.39,0,0,0-1.6.832,10.664,10.664,0,0,1,3.11.148,4.593,4.593,0,0,0-1.66.732,4.807,4.807,0,0,1,2.82.213c-1.25-.03-1.51.367-1.51.367,3.525.187,4.193,3.821,4.193,3.821.062.317.1.645.132.962a5.231,5.231,0,0,0-4.79-4.6,3.966,3.966,0,0,0-3.641,2.352,7.515,7.515,0,0,1,1.75-1.313.6.6,0,0,0,0,.827,2.74,2.74,0,0,1,2.012-.918c-.7.307-.817,1.35-.817,1.35a2.634,2.634,0,0,1,1.945-.7,1.387,1.387,0,0,0-.582,1.1,3.645,3.645,0,0,1,2.331-.581,2.933,2.933,0,0,0-.847.641,3.688,3.688,0,0,1,1.61.3.609.609,0,0,0-.563.579c1.1.223,1.662,2.421,1.662,2.421h1.195l.006-.03c.046.072.085-.046.087-.3.2-.62.724-1.93,1.57-2.095a.607.607,0,0,0-.556-.579,3.649,3.649,0,0,1,1.6-.3,2.935,2.935,0,0,0-.84-.641,3.637,3.637,0,0,1,2.328.581,1.382,1.382,0,0,0-.587-1.1,2.659,2.659,0,0,1,1.952.7s-.11-1.044-.809-1.35a2.725,2.725,0,0,1,2,.918.6.6,0,0,0,0-.827,7.535,7.535,0,0,1,1.749,1.313,4,4,0,0,0-3.639-2.352,4.689,4.689,0,0,0-4.475,3.206,4.228,4.228,0,0,1,4.135-3.34s-.3-.353-1.553-.327a4.8,4.8,0,0,1,2.824-.21,4.5,4.5,0,0,0-1.661-.736,10.505,10.505,0,0,1,3.115-.153,6.476,6.476,0,0,0-1.6-.826,6.48,6.48,0,0,1,3.289.15,2.435,2.435,0,0,0-1.426-1.159,10.911,10.911,0,0,1,3.266,0,2.418,2.418,0,0,0-1.019-.646,12.389,12.389,0,0,1,2.847.092" transform="translate(-361.772 -127.421)" fill="#00ad63"/></g><g clip-path="url(#a)"><path d="M536.566,187.609c-.5.863-.674,3.675-.7,5.021a7.243,7.243,0,0,1,2.154-4.686,2.968,2.968,0,0,0-.993.536c.368-.468,1.418-1.785,1.689-2.035a13.9,13.9,0,0,0-1.422.949,9.226,9.226,0,0,1,2.1-2.353,10.884,10.884,0,0,0-1.388.491,3.257,3.257,0,0,1,2.153-1.252,3.017,3.017,0,0,0-1.346-.061,4.786,4.786,0,0,1,2.241-1.959,3.585,3.585,0,0,0-1.478.274,7.788,7.788,0,0,1,2.649-2.05,2.049,2.049,0,0,0-1.2-.054,8.314,8.314,0,0,1,2.429-1.718s0-.211-.269-.243a4.879,4.879,0,0,1,1.366-1.138s-3.145.562-6.458,6.274a20.985,20.985,0,0,0-1.906,4.187,1.164,1.164,0,0,1,.38-.182" transform="translate(-504.945 -167.883)" fill="#00ad63"/></g><g clip-path="url(#a)"><path d="M515.8,376.49a4.031,4.031,0,0,1,.476,1.026.882.882,0,0,1,.9-.716,6.833,6.833,0,0,0-.344,2.129,1.039,1.039,0,1,1-2.063,0,6.881,6.881,0,0,0-.343-2.129.891.891,0,0,1,.906.716,4.382,4.382,0,0,1,.467-1.026" transform="translate(-485.372 -348.809)" fill="#b97664"/></g><g clip-path="url(#a)"><path d="M514.5,375.636a4.005,4.005,0,0,0-.438.9.918.918,0,0,0-.9-.614l-.119.012.079.09a5.936,5.936,0,0,1,.3,1.79l.03.309a1.554,1.554,0,0,0,1.066,1.215h.037a1.551,1.551,0,0,0,1.064-1.215l.031-.309a5.969,5.969,0,0,1,.3-1.79l.087-.09-.116-.012a.929.929,0,0,0-.911.614,3.08,3.08,0,0,0-.432-.9l-.045-.046Zm-.375,1.084a6.022,6.022,0,0,1,.414-.947,4.747,4.747,0,0,1,.416.942l.056.175.06-.17a.859.859,0,0,1,.744-.675,7.824,7.824,0,0,0-.274,1.762l-.029.3a.976.976,0,1,1-1.936,0l-.031-.3a8.41,8.41,0,0,0-.272-1.762.864.864,0,0,1,.744.675l.055.17Z" transform="translate(-484.112 -347.992)" fill="#231f20"/></g><g clip-path="url(#a)"><path d="M515.593,400.29a4.142,4.142,0,0,1,.481,1.045.929.929,0,0,1,.918-.743,6.66,6.66,0,0,0-.355,2.141,1.047,1.047,0,1,1-2.078,0,6.676,6.676,0,0,0-.358-2.141.924.924,0,0,1,.914.743,4.3,4.3,0,0,1,.478-1.045" transform="translate(-485.162 -370.43)" fill="#b97664"/></g><g clip-path="url(#a)"><path d="M514.231,399.393a3.378,3.378,0,0,0-.442.929.978.978,0,0,0-.916-.649l-.122.012.084.1a5.226,5.226,0,0,1,.3,1.74l.04.36a1.6,1.6,0,0,0,1.075,1.234h.037a1.616,1.616,0,0,0,1.089-1.234l.03-.36a5.281,5.281,0,0,1,.3-1.74l.083-.1-.119-.012a.979.979,0,0,0-.916.649,3.277,3.277,0,0,0-.444-.929l-.046-.043Zm-.381,1.109a5.979,5.979,0,0,1,.419-.965,4.517,4.517,0,0,1,.427.965l.05.164.06-.164a.887.887,0,0,1,.773-.7,6.4,6.4,0,0,0-.29,1.712l-.03.354a1.429,1.429,0,0,1-.991,1.127,1.444,1.444,0,0,1-.979-1.127l-.036-.354a6.358,6.358,0,0,0-.287-1.712.882.882,0,0,1,.772.7l.052.164Z" transform="translate(-483.838 -369.576)" fill="#231f20"/></g><g clip-path="url(#a)"><path d="M515.374,424.04a4.293,4.293,0,0,1,.495,1.063.956.956,0,0,1,.933-.764,6.3,6.3,0,0,0-.364,2.148,1.068,1.068,0,1,1-2.12,0,6.307,6.307,0,0,0-.357-2.148.959.959,0,0,1,.932.764,4.522,4.522,0,0,1,.482-1.063" transform="translate(-484.943 -392.006)" fill="#b97664"/></g><g clip-path="url(#a)"><path d="M514.1,423.073a3.509,3.509,0,0,0-.449.943,1.013,1.013,0,0,0-.926-.667l-.118.018.076.089a4.944,4.944,0,0,1,.306,1.7l.037.407a1.645,1.645,0,0,0,1.1,1.252l.017,0,.021,0a1.626,1.626,0,0,0,1.1-1.252l.036-.407a4.91,4.91,0,0,1,.31-1.7l.083-.089-.119-.018a1.02,1.02,0,0,0-.932.667,3.384,3.384,0,0,0-.45-.943l-.045-.053Zm-.386,1.124a4.953,4.953,0,0,1,.424-.986,4.7,4.7,0,0,1,.434.986l.062.166.044-.166a.956.956,0,0,1,.785-.728,6.286,6.286,0,0,0-.281,1.684l-.041.4a1.007,1.007,0,1,1-1.994,0l-.041-.4a6.146,6.146,0,0,0-.288-1.684.949.949,0,0,1,.789.728l.052.166Z" transform="translate(-483.711 -391.079)" fill="#231f20"/></g><g clip-path="url(#a)"><path d="M515.154,447.76a4.263,4.263,0,0,1,.5,1.086.972.972,0,0,1,.948-.779,5.96,5.96,0,0,0-.365,2.145,1.594,1.594,0,0,1-1.078,1.225,1.577,1.577,0,0,1-1.068-1.225,6.18,6.18,0,0,0-.367-2.145.968.968,0,0,1,.946.779,4.6,4.6,0,0,1,.489-1.086" transform="translate(-484.724 -413.554)" fill="#b97664"/></g><g clip-path="url(#a)"><path d="M513.874,446.809a3.763,3.763,0,0,0-.456.96,1.035,1.035,0,0,0-.94-.677l-.118.006.075.09a4.368,4.368,0,0,1,.307,1.68l.051.439a1.657,1.657,0,0,0,1.1,1.274l.017.008.021-.008a1.645,1.645,0,0,0,1.111-1.274l.042-.439a4.417,4.417,0,0,1,.314-1.68l.07-.09-.108-.006a1.04,1.04,0,0,0-.949.677,3.829,3.829,0,0,0-.449-.96l-.053-.049Zm-.4,1.147a5.213,5.213,0,0,1,.435-1.007,4.374,4.374,0,0,1,.444,1.007l.051.164.06-.164a.938.938,0,0,1,.788-.742,5.452,5.452,0,0,0-.281,1.644l-.049.439a1.509,1.509,0,0,1-1.015,1.161A1.525,1.525,0,0,1,512.9,449.3l-.048-.439a5.688,5.688,0,0,0-.281-1.644.942.942,0,0,1,.793.742l.057.164Z" transform="translate(-483.482 -412.646)" fill="#231f20"/></g><g clip-path="url(#a)"><path d="M514.944,471.43a4.586,4.586,0,0,1,.511,1.109,1,1,0,0,1,.952-.806,5.938,5.938,0,0,0-.376,2.164,1.093,1.093,0,1,1-2.169,0,6.073,6.073,0,0,0-.372-2.164,1.013,1.013,0,0,1,.961.806,4.556,4.556,0,0,1,.494-1.109" transform="translate(-484.514 -435.057)" fill="#b97664"/></g><g clip-path="url(#a)"><path d="M513.687,470.544a3.337,3.337,0,0,0-.461.99,1.074,1.074,0,0,0-.954-.708l-.122.007.079.094a4.5,4.5,0,0,1,.308,1.651l.041.474a1.679,1.679,0,0,0,1.119,1.291l.023.012.022-.012a1.65,1.65,0,0,0,1.127-1.291l.042-.474a4.2,4.2,0,0,1,.313-1.651l.077-.094-.113-.007a1.075,1.075,0,0,0-.956.708,3.827,3.827,0,0,0-.457-.99l-.054-.044Zm-.408,1.165a6.067,6.067,0,0,1,.442-1.021,4.591,4.591,0,0,1,.449,1.018l.054.18.058-.178a.99.99,0,0,1,.808-.755,4.765,4.765,0,0,0-.282,1.614l-.052.475a1.038,1.038,0,1,1-2.058,0l-.047-.475a5.353,5.353,0,0,0-.284-1.614,1.009,1.009,0,0,1,.809.755l.055.178Z" transform="translate(-483.291 -434.212)" fill="#231f20"/></g><g clip-path="url(#a)"><path d="M514.727,495.21a4.525,4.525,0,0,1,.5,1.122,1.045,1.045,0,0,1,.977-.825,5.509,5.509,0,0,0-.38,2.166,1.113,1.113,0,1,1-2.207,0,5.828,5.828,0,0,0-.377-2.166,1.05,1.05,0,0,1,.98.825,4.5,4.5,0,0,1,.507-1.122" transform="translate(-484.286 -456.66)" fill="#b97664"/></g><g clip-path="url(#a)"><path d="M513.468,494.306a3.333,3.333,0,0,0-.469.993,1.113,1.113,0,0,0-.966-.724l-.118,0,.072.085a4.147,4.147,0,0,1,.318,1.63l.051.515a1.707,1.707,0,0,0,1.129,1.31l.034,0,.011,0a1.7,1.7,0,0,0,1.143-1.31l.042-.506a4.337,4.337,0,0,1,.326-1.637l.072-.085-.116,0a1.1,1.1,0,0,0-.97.724,3.669,3.669,0,0,0-.464-.993l-.043-.057Zm-.407,1.174a5.423,5.423,0,0,1,.453-1.045,6.242,6.242,0,0,1,.449,1.045l.051.171.058-.171a.991.991,0,0,1,.817-.776,5.147,5.147,0,0,0-.288,1.588l-.041.5a1.575,1.575,0,0,1-1.046,1.2,1.549,1.549,0,0,1-1.052-1.2l-.05-.505a4.815,4.815,0,0,0-.282-1.588,1.019,1.019,0,0,1,.819.776l.06.171Z" transform="translate(-483.072 -455.788)" fill="#231f20"/></g><g clip-path="url(#a)"><path d="M514.553,518.92a4.7,4.7,0,0,1,.508,1.148,1.078,1.078,0,0,1,.986-.848,5.609,5.609,0,0,0-.381,2.166,1.129,1.129,0,1,1-2.235,0,5.73,5.73,0,0,0-.38-2.166,1.075,1.075,0,0,1,.989.848,4.423,4.423,0,0,1,.514-1.148" transform="translate(-484.112 -478.199)" fill="#b97664"/></g><g clip-path="url(#a)"><path d="M513.221,518.029a3.664,3.664,0,0,0-.476,1.029,1.149,1.149,0,0,0-.981-.746h-.125l.07.094a3.777,3.777,0,0,1,.324,1.6l.051.543a1.716,1.716,0,0,0,1.154,1.327l.028.006.011-.006a1.7,1.7,0,0,0,1.162-1.327l.044-.543a3.96,3.96,0,0,1,.32-1.6l.075-.094h-.117a1.128,1.128,0,0,0-.972.746,4.607,4.607,0,0,0-.478-1.029l-.043-.039Zm-.422,1.209a5.431,5.431,0,0,1,.466-1.061,6.5,6.5,0,0,1,.458,1.061l.049.168.059-.168a1.022,1.022,0,0,1,.834-.793,4.375,4.375,0,0,0-.294,1.563l-.053.53a1.07,1.07,0,1,1-2.12,0l-.051-.53a4.817,4.817,0,0,0-.29-1.563,1.022,1.022,0,0,1,.832.793l.063.168Z" transform="translate(-482.825 -477.355)" fill="#231f20"/></g><g clip-path="url(#a)"><path d="M514.27,542.73a4.815,4.815,0,0,1,.521,1.154,1.121,1.121,0,0,1,1-.867,5.349,5.349,0,0,0-.39,2.178,1.147,1.147,0,1,1-2.274,0,5.287,5.287,0,0,0-.388-2.178,1.128,1.128,0,0,1,1.009.867,4.33,4.33,0,0,1,.521-1.154" transform="translate(-483.829 -499.83)" fill="#b97664"/></g><g clip-path="url(#a)"><path d="M512.975,541.762a3.668,3.668,0,0,0-.488,1.043,1.175,1.175,0,0,0-.988-.767h-.129l.075.1a3.589,3.589,0,0,1,.327,1.591l.053.55a1.783,1.783,0,0,0,1.167,1.353l.028.005.01-.005a1.763,1.763,0,0,0,1.169-1.353l.057-.55a3.557,3.557,0,0,1,.326-1.591l.07-.1h-.111a1.186,1.186,0,0,0-1,.767,3.947,3.947,0,0,0-.483-1.043l-.042-.042Zm-.427,1.227a4.87,4.87,0,0,1,.472-1.081,5.03,5.03,0,0,1,.461,1.081l.054.169.057-.169a1.089,1.089,0,0,1,.844-.825,4.418,4.418,0,0,0-.3,1.554l-.047.554a1.651,1.651,0,0,1-1.075,1.245,1.623,1.623,0,0,1-1.082-1.245l-.048-.554a5.039,5.039,0,0,0-.294-1.554,1.1,1.1,0,0,1,.846.825l.057.169Z" transform="translate(-482.579 -498.912)" fill="#231f20"/></g><g clip-path="url(#a)"><path d="M514.115,566.35a4.9,4.9,0,0,1,.526,1.187,1.141,1.141,0,0,1,1.01-.889,5.324,5.324,0,0,0-.394,2.179,1.159,1.159,0,1,1-2.3,0,5.442,5.442,0,0,0-.391-2.179,1.142,1.142,0,0,1,1.013.889,4.735,4.735,0,0,1,.532-1.187" transform="translate(-483.674 -521.287)" fill="#b97664"/></g><g clip-path="url(#a)"><path d="M512.848,565.43a3.931,3.931,0,0,0-.5,1.058,1.19,1.19,0,0,0-1-.787h-.121l.072.1a3.57,3.57,0,0,1,.321,1.575l.056.576a1.774,1.774,0,0,0,1.178,1.371l.034.007.011-.007a1.776,1.776,0,0,0,1.185-1.371l.055-.576a3.39,3.39,0,0,1,.34-1.575l.063-.1h-.117a1.2,1.2,0,0,0-1.007.787,4.056,4.056,0,0,0-.487-1.058l-.043-.05Zm-.433,1.236a4.977,4.977,0,0,1,.476-1.094,5.383,5.383,0,0,1,.466,1.088l.056.188.053-.176a1.115,1.115,0,0,1,.865-.837,4.07,4.07,0,0,0-.3,1.53l-.051.578a1.1,1.1,0,1,1-2.182,0l-.057-.578a4.152,4.152,0,0,0-.294-1.53,1.118,1.118,0,0,1,.865.837l.06.176Z" transform="translate(-482.451 -520.406)" fill="#231f20"/></g><g clip-path="url(#a)"><path d="M513.9,590.11a4.959,4.959,0,0,1,.529,1.2,1.182,1.182,0,0,1,1.029-.908,5.16,5.16,0,0,0-.4,2.187,1.175,1.175,0,1,1-2.326,0,5.235,5.235,0,0,0-.4-2.187,1.18,1.18,0,0,1,1.024.908,4.922,4.922,0,0,1,.541-1.2" transform="translate(-483.464 -542.872)" fill="#b97664"/></g><g clip-path="url(#a)"><path d="M512.592,589.184a4.109,4.109,0,0,0-.5,1.088,1.231,1.231,0,0,0-1.016-.811l-.122,0,.071.093a3.424,3.424,0,0,1,.34,1.56l.043.6a1.811,1.811,0,0,0,1.2,1.394l.034.011.011-.011a1.808,1.808,0,0,0,1.2-1.394l.055-.6a3.467,3.467,0,0,1,.332-1.56l.072-.093-.119,0a1.245,1.245,0,0,0-1.019.811,4.111,4.111,0,0,0-.494-1.088l-.043-.044Zm-.442,1.265a5.8,5.8,0,0,1,.488-1.121,6.333,6.333,0,0,1,.48,1.121l.049.172.061-.166a1.137,1.137,0,0,1,.867-.865,3.848,3.848,0,0,0-.293,1.512l-.058.6a1.121,1.121,0,1,1-2.22,0l-.048-.6a4.1,4.1,0,0,0-.3-1.512,1.134,1.134,0,0,1,.869.865l.059.166Z" transform="translate(-482.195 -541.991)" fill="#231f20"/></g><g clip-path="url(#a)"><path d="M513.649,613.81a5.062,5.062,0,0,1,.536,1.229,1.221,1.221,0,0,1,1.041-.941,5.367,5.367,0,0,0-.406,2.2,1.745,1.745,0,0,1-1.171,1.351,1.766,1.766,0,0,1-1.189-1.351,5.134,5.134,0,0,0-.4-2.2,1.226,1.226,0,0,1,1.045.941,5.063,5.063,0,0,1,.544-1.229" transform="translate(-483.209 -564.402)" fill="#b97664"/></g><g clip-path="url(#a)"><path d="M512.4,612.945a4.11,4.11,0,0,0-.51,1.094,1.257,1.257,0,0,0-1.034-.819l-.115-.018.074.109a3.41,3.41,0,0,1,.333,1.548l.051.618a1.839,1.839,0,0,0,1.227,1.409h.03a1.829,1.829,0,0,0,1.22-1.409l.061-.618a3.247,3.247,0,0,1,.337-1.548l.069-.109-.121.018a1.264,1.264,0,0,0-1.031.819,4.227,4.227,0,0,0-.5-1.094l-.043-.045Zm-.448,1.283a5.724,5.724,0,0,1,.492-1.14,6.067,6.067,0,0,1,.485,1.14l.052.172.06-.172a1.2,1.2,0,0,1,.88-.88,3.826,3.826,0,0,0-.307,1.5l-.056.617a1.132,1.132,0,1,1-2.238,0l-.066-.617a3.959,3.959,0,0,0-.3-1.5,1.214,1.214,0,0,1,.887.88l.053.172Z" transform="translate(-482.004 -563.575)" fill="#231f20"/></g><g clip-path="url(#a)"><path d="M513.375,641.457a1.783,1.783,0,0,0,1.194-1.378,4.991,4.991,0,0,1,.406-2.206,1.26,1.26,0,0,0-1.055.955,5.013,5.013,0,0,0-.546-1.239,4.816,4.816,0,0,0-.555,1.239,1.258,1.258,0,0,0-1.06-.955,4.908,4.908,0,0,1,.408,2.206,1.82,1.82,0,0,0,1.207,1.378" transform="translate(-482.935 -586.005)" fill="#b97664"/></g><g clip-path="url(#a)"><path d="M512.153,636.635a4.046,4.046,0,0,0-.51,1.124,1.344,1.344,0,0,0-1.048-.856h-.125l.071.1a3.263,3.263,0,0,1,.341,1.539l.061.638a1.659,1.659,0,0,0,1.2,1.332l.025.01.016-.01a1.682,1.682,0,0,0,1.261-1.332l.051-.638a3.161,3.161,0,0,1,.347-1.539l.071-.1H513.8a1.342,1.342,0,0,0-1.049.856,4.24,4.24,0,0,0-.508-1.124l-.043-.045Zm-.455,1.308a5.292,5.292,0,0,1,.5-1.164,5.65,5.65,0,0,1,.491,1.164l.055.168.051-.168a1.233,1.233,0,0,1,.9-.9,3.681,3.681,0,0,0-.3,1.479l-.063.64a1.15,1.15,0,1,1-2.274,0l-.064-.64a3.708,3.708,0,0,0-.289-1.479,1.227,1.227,0,0,1,.89.9l.05.168Z" transform="translate(-481.757 -585.096)" fill="#231f20"/></g><g clip-path="url(#a)"><path d="M514.244,661.5a3.39,3.39,0,0,1,.372-1.574,1.942,1.942,0,0,0-1.03,1.034,1.853,1.853,0,0,0-.5-1.242,5.163,5.163,0,0,0-.559,1.242,1.119,1.119,0,0,0-1.063-.884c.218.216.3.33.408,1.473" transform="translate(-482.661 -606.109)" fill="#b97664"/></g><g clip-path="url(#a)"><path d="M512.91,660.648a3.237,3.237,0,0,1,.374-1.544l.041-.13-.118.05a1.888,1.888,0,0,0-.965.861,2.109,2.109,0,0,0-.5-1.063l-.046-.042-.038.047a3.994,3.994,0,0,0-.523,1.115,1.176,1.176,0,0,0-1.061-.779l-.132,0,.094.1c.191.194.284.306.392,1.439m.117-.008c-.1-1.055-.189-1.125-.347-1.4a1.065,1.065,0,0,1,.886.829l.057.166.056-.166a5.44,5.44,0,0,1,.51-1.172,1.855,1.855,0,0,1,.43,1.065l0,.081.112.025a1.972,1.972,0,0,1,.892-.934,3.76,3.76,0,0,0-.343,1.456" transform="translate(-481.273 -605.255)" fill="#231f20"/></g><g clip-path="url(#a)"><path d="M639.944,627.6a10.688,10.688,0,0,1-3.71.546c-.9-.051-1.747-.159-2.415-.253a5.913,5.913,0,0,0-1.762-.1c-.361.11-.986.436-1.067.872a.525.525,0,0,0,.209.526c.3.26.979.2,1.695.145.623-.055,1.33-.118,1.511.094a4.135,4.135,0,0,1,.118,3.041l-.051.154.142.026c1.265.3,4.751.239,5.865-1.674l.125-.211h-.238a5.618,5.618,0,0,1-2.422-.48c.554-.357,2.044-1.414,2.16-2.547l.036-.216Zm-.138.33c-.327,1.147-2.178,2.238-2.195,2.244l-.2.119.193.127a5.208,5.208,0,0,0,2.5.613c-1.121,1.512-4.082,1.614-5.3,1.381a4.923,4.923,0,0,0,.188-1.4,3.092,3.092,0,0,0-.4-1.769c-.262-.31-.972-.246-1.728-.186-.6.047-1.292.105-1.51-.087a.278.278,0,0,1-.123-.255c.057-.256.514-.553.887-.664a6.181,6.181,0,0,1,1.658.111c.685.092,1.532.2,2.442.25a10.752,10.752,0,0,0,3.582-.49" transform="translate(-591.773 -576.866)" fill="#231f20"/></g><g clip-path="url(#a)"><path d="M538.873,654.539c-3.763,2.28-12.485,1.949-12.572,1.949l-.005.274c.356.02,8.644.325,12.547-1.894a1.822,1.822,0,0,1,.028.319c0,.273-.033.6-.065.944-.038.383-.07.769-.07,1.131a4.3,4.3,0,0,0,.024.548,5.847,5.847,0,0,0,.256.957,3.22,3.22,0,0,1,.186.8.526.526,0,0,1-.2.44c-.552.483-6.321,2.243-12.849,2.188v.272c6.577.053,12.445-1.751,13.018-2.252.448-.4.276-.951.092-1.539a4.538,4.538,0,0,1-.237-.906,7.093,7.093,0,0,1,.042-1.613,5.182,5.182,0,0,0,0-1.538l-.042-.171Z" transform="translate(-496.072 -601.321)" fill="#231f20"/></g><g clip-path="url(#a)"><path d="M630.1,641.634l.392,2.471.257-.043-.389-2.472Z" transform="translate(-590.969 -589.639)" fill="#231f20"/></g><g clip-path="url(#a)"><path d="M312.509,627.775c.125,1.134,1.612,2.19,2.16,2.547a5.52,5.52,0,0,1-2.417.48h-.231l.123.211c1.107,1.914,4.594,1.975,5.861,1.674l.145-.033-.052-.148a4.062,4.062,0,0,1,.121-3.04c.17-.213.882-.15,1.509-.1.719.06,1.4.12,1.7-.138a.55.55,0,0,0,.214-.526c-.1-.437-.7-.763-1.083-.872a5.847,5.847,0,0,0-1.756.1c-.678.093-1.517.2-2.411.253a10.625,10.625,0,0,1-3.7-.546l-.194-.073Zm2.5,2.676.189-.127-.191-.119c-.025-.014-1.866-1.1-2.2-2.244a10.81,10.81,0,0,0,3.581.491c.907-.049,1.752-.158,2.436-.25a6.231,6.231,0,0,1,1.657-.111c.378.111.834.406.88.664.018.057.022.142-.11.254-.222.19-.9.134-1.516.087-.745-.06-1.461-.125-1.718.186a3.027,3.027,0,0,0-.408,1.769,5.011,5.011,0,0,0,.2,1.4c-1.221.233-4.18.123-5.3-1.382a5.2,5.2,0,0,0,2.5-.613" transform="translate(-300.589 -576.893)" fill="#231f20"/></g><g clip-path="url(#a)"><path d="M374.859,654.6a4.74,4.74,0,0,0,0,1.539,7.3,7.3,0,0,1,.042,1.612,5.381,5.381,0,0,1-.237.906c-.19.589-.369,1.138.089,1.539.647.559,6.415,2.305,12.921,2.252v-.272c-6.464.043-12.2-1.7-12.754-2.188a.542.542,0,0,1-.2-.44,2.921,2.921,0,0,1,.188-.8,5.953,5.953,0,0,0,.246-.957,4.461,4.461,0,0,0,.031-.548,11.324,11.324,0,0,0-.07-1.131c-.031-.343-.057-.668-.057-.952,0-.115,0-.213.012-.31,3.919,2.218,12.387,1.914,12.752,1.9l-.005-.275c-.092,0-9,.33-12.779-1.949l-.139-.09Z" transform="translate(-357.597 -601.303)" fill="#231f20"/></g><g clip-path="url(#a)"><path d="M415.87,644.071l.26.044.388-2.472-.258-.043Z" transform="translate(-395.395 -589.648)" fill="#231f20"/></g><g clip-path="url(#a)"><path d="M632.118,678.074a13.692,13.692,0,0,1-.13-2.163c.1-.295.821,1.009.741,2.163a2.173,2.173,0,0,1-2.409,2,3.372,3.372,0,0,0,2.3-1.945c.008-1.242-.25-.8-.341-.8s-.165.748-.165.748" transform="translate(-591.17 -620.779)" fill="#231f20"/></g><g clip-path="url(#a)"><path d="M581.74,677.149s.157-1.059.308-1.059a4.152,4.152,0,0,1,.433,2.087,1.543,1.543,0,0,1-.674,1.012c-.136.032-.136-.026-.211-.026s-.194.151-.194.151a.811.811,0,0,0-.217-.07c-.077,0-.267.274-.44.274s-.408-.3-.52-.3c-.442-.032-.2.774-2.38.829-.924-.107-.943-1.718-.943-1.742s-.07-.981-.211-.906-.241.373-.241.373.044-1.01.257-.928c.487-.181.314,1.734.677,2.3a.875.875,0,0,0,.988.35,5.491,5.491,0,0,0,1.991-.888c.054-.146,0,.285.17.31a.619.619,0,0,0,.553-.31c.1-.2.126.152.259.08a.473.473,0,0,0,.291-.352c.036-.155.059.3.218.228a1.62,1.62,0,0,0,.34-1.41c-.144-.61-.05-.33-.166-.3s-.285.3-.285.3" transform="translate(-541.991 -620.98)" fill="#231f20"/></g><g clip-path="url(#a)"><path d="M624.961,682.623s-.071-1.032.333-1.058.39,1,.39,1-.176-.424-.361-.375-.362.429-.362.429" transform="translate(-586.273 -625.953)" fill="#231f20"/></g><g clip-path="url(#a)"><path d="M553.161,700.235s-.527-.175-.625,1.439a1.772,1.772,0,0,1-1.516,1.262s1.516.559,1.614-1.262c.164-1.06.477-.782.477-.782Z" transform="translate(-518.776 -642.91)" fill="#231f20"/></g><g clip-path="url(#a)"><path d="M532.254,694.063s-.316.386-.46.284-.194-1.237.216-1.389.6.681.578.954-.481,1.718-1.083,1.718-.645-.629-.8-.629-.354,1.368-.79,1.289-.476-.706-.452-.988a2.28,2.28,0,0,1,.142-.657,13.662,13.662,0,0,1,1.271-1.334c.1-.029.172.157.024.281a11.416,11.416,0,0,0-1.246,1.365c-.121.247.048.728.235.728s.505-.327.535-.481.186-.708.408-.708.333.381.406.46.794.449,1.109-.892h-.095Z" transform="translate(-499.093 -636.287)" fill="#231f20"/></g><g clip-path="url(#a)"><path d="M549.549,685.98l-.016.378-.723.4.022-.425Z" transform="translate(-516.758 -629.965)" fill="#231f20"/></g><g clip-path="url(#a)"><path d="M532.7,690.4l-.03.375-.718.4.025-.425Z" transform="translate(-501.366 -633.98)" fill="#231f20"/></g><g clip-path="url(#a)"><path d="M543.165,587.455a.213.213,0,0,0-.054.276l.158.246a.178.178,0,0,0,.264.058.21.21,0,0,0,.057-.277l-.151-.244a.194.194,0,0,0-.273-.059" transform="translate(-511.528 -540.43)" fill="#231f20"/></g><g clip-path="url(#a)"><path d="M543.641,592.3a.21.21,0,0,0-.073.167l.033.126s3.533,5.049,3.728,5.33c-.1.089-.178.157-.286.264-.232-.325-3.418-4.863-3.418-4.863a.189.189,0,0,0-.27-.052.22.22,0,0,0-.044.288l3.663,5.232.867-.81-3.931-5.635a.191.191,0,0,0-.27-.046" transform="translate(-511.707 -544.828)" fill="#231f20"/></g><g clip-path="url(#a)"><path d="M298.053,266.479c.014.158-.021.2-.04.207-.108.1-.42.045-.6-.01l-.572-.2,18.909,26.839a.187.187,0,0,0,.27.039.208.208,0,0,0,.077-.165l-.038-.122s-17.723-25.154-18.271-25.928a.713.713,0,0,0,.459-.141l.084-.084,17.384,24.875a.185.185,0,0,0,.267.038.214.214,0,0,0,.04-.285L298,265.75Z" transform="translate(-286.731 -248.208)" fill="#231f20"/></g><g clip-path="url(#a)"><path d="M274.134,233.136l.807,2.954,1.9.257-.158-1.963L274,232.64Zm.509.392c.523.34,1.548,1.005,1.675,1.081.013.158.075.945.095,1.267-.3-.037-1-.133-1.176-.152-.048-.183-.419-1.554-.594-2.2" transform="translate(-265.88 -218.129)" fill="#231f20"/></g><g clip-path="url(#a)"><path d="M297.936,264.982a2.54,2.54,0,0,1-.7.539c-.26.065,0,.611.386.611s.508.27.7-.078c.2-.329.256-.867.073-.936-.2-.07-.129-.268-.455-.136" transform="translate(-286.995 -247.47)" fill="#231f20"/></g><g clip-path="url(#a)"><path d="M281.545,299.885s-1.675-1.147-4.043,3.031c-2.7-1.613-5.895-5.852-6.1-6.055-.183-.2-4.035-6.259-4.035-6.259s.773-4.175,3.271-6.132c.258,0,1.027,1.225,1.027,1.225s-.392,2.483,2.692,6.855,5.324,5.591,5.963,5.662,1.223,1.673,1.223,1.673" transform="translate(-259.827 -265.214)" fill="#ee3d32"/></g><g clip-path="url(#a)"><path d="M296.838,263.852l-.017.012-.013.013a2.191,2.191,0,0,1-.662.513.259.259,0,0,0-.178.29.643.643,0,0,0,.59.516.887.887,0,0,1,.3.055c.155.061.321.115.482-.172a1.259,1.259,0,0,0,.164-.916.232.232,0,0,0-.145-.172.2.2,0,0,1-.1-.073c-.078-.1-.167-.167-.417-.064m.283.2a.352.352,0,0,0,.171.133l.038.047a1.162,1.162,0,0,1-.153.752c-.08.143-.112.133-.261.079a1.2,1.2,0,0,0-.355-.07.421.421,0,0,1-.395-.34v-.018l.025-.043a2.226,2.226,0,0,0,.733-.554c.132-.044.154-.028.2.015" transform="translate(-285.935 -246.438)" fill="#231f20"/></g><g clip-path="url(#a)"><path d="M259.294,351.1s3.017,4.836,3.214,5.078-1.474,1.013-.771,3.029a10.542,10.542,0,0,0,2.694,3.1,1.847,1.847,0,0,1-.188,1.958c-.707.8-2.568,2.822-2.637,4.165s-.189.943-.189.943a17.4,17.4,0,0,0-2.176-3.3c-.709-.53.322-1.475.511-1.744s2.437-3.033,2.381-3.569c-.076-.544-3.662-4.847-3.6-5.117a16.39,16.39,0,0,1,.762-4.54" transform="translate(-251.758 -325.744)" fill="#00ad63"/></g><g clip-path="url(#a)"><path d="M315.6,452.2s-1.4.4-1.337,3.091c1.156,1.347,3.46,3.5,3.46,3.5s-3.653,2.086-4.483,4.644l-.263.873s2.308,3.836,3.463,3.769c.65-.406-.124-2.489,2.12-4.24s4.558-2.828,4.3-4.847-2.452.082-2.829.34a1.873,1.873,0,0,1-1.856.266c-.578-.337.835-3.97.961-4.309s-1.713-1.211-3.536-3.091" transform="translate(-301.465 -417.588)" fill="#231f20"/></g><g clip-path="url(#a)"><path d="M378.871,483.08l2.181,2.08s-2.181,2.29-3.143,1.955.962-4.035.962-4.035" transform="translate(-360.494 -445.641)" fill="#231f20"/></g><g clip-path="url(#a)"><path d="M291.2,548.119l1.893,3.277.192-.107-1.892-3.279Z" transform="translate(-281.582 -504.626)" fill="#231f20"/></g><g clip-path="url(#a)"><path d="M762.247,232.91l-2.268,1.475-.149,1.963,1.9-.257.937-3.451Zm-.225.618c-.174.642-.542,2.013-.584,2.2-.179.019-.884.115-1.2.152.038-.322.094-1.109.1-1.267.129-.075,1.156-.742,1.676-1.081" transform="translate(-709.402 -218.129)" fill="#231f20"/></g><g clip-path="url(#a)"><path d="M754.074,264.982a2.489,2.489,0,0,0,.7.539c.253.065,0,.611-.378.611s-.516.27-.709-.078c-.2-.329-.259-.867-.063-.936s.127-.268.452-.136" transform="translate(-703.626 -247.47)" fill="#231f20"/></g><g clip-path="url(#a)"><path d="M752.718,263.914l-.1.074a.246.246,0,0,0-.152.171,1.335,1.335,0,0,0,.171.916c.159.287.324.234.48.172a.913.913,0,0,1,.307-.054.631.631,0,0,0,.578-.518.239.239,0,0,0-.17-.288,2.02,2.02,0,0,1-.659-.513l-.016-.013-.024-.012c-.249-.1-.334-.031-.417.064m.081,1.064a1.146,1.146,0,0,1-.145-.752l.028-.043a.385.385,0,0,0,.177-.131c.038-.049.073-.063.194-.018a2.345,2.345,0,0,0,.738.554l.021.043v.016a.416.416,0,0,1-.386.341,1.255,1.255,0,0,0-.368.07c-.143.054-.175.063-.259-.08" transform="translate(-702.658 -246.437)" fill="#231f20"/></g><g clip-path="url(#a)"><path d="M636.41,299.885s1.661-1.147,4.035,3.031c2.694-1.613,5.9-5.852,6.091-6.055s4.036-6.259,4.036-6.259-.772-4.175-3.271-6.132c-.257,0-1.024,1.225-1.024,1.225s.383,2.483-2.689,6.855-5.33,5.591-5.967,5.662-1.21,1.673-1.21,1.673" transform="translate(-596.73 -265.214)" fill="#ee3d32"/></g><g clip-path="url(#a)"><path d="M743.187,351.45s-2.956,4.677-3.2,5.046c-.167.248,1.473,1.013.761,3.029a10.471,10.471,0,0,1-2.685,3.1,1.823,1.823,0,0,0,.194,1.954c.7.808,2.563,2.826,2.625,4.169s.186.943.186.943a17.991,17.991,0,0,1,2.188-3.3c.706-.53-.323-1.475-.518-1.744s-2.435-3.033-2.368-3.569,3.647-4.847,3.592-5.118a16.786,16.786,0,0,0-.773-4.508" transform="translate(-689.345 -326.062)" fill="#00ad63"/></g><g clip-path="url(#a)"><path d="M647.013,451.91s1.388.428,1.321,3.116c-1.157,1.348-3.461,3.506-3.461,3.506s3.653,2.086,4.494,4.643l.249.872s-2.3,3.836-3.456,3.769c-.646-.406.125-2.489-2.118-4.239s-4.553-2.829-4.3-4.842,2.447.078,2.825.333a1.878,1.878,0,0,0,1.859.267c.575-.338-.829-3.97-.956-4.31s1.689-1.1,3.548-3.116" transform="translate(-599.75 -417.324)" fill="#231f20"/></g><g clip-path="url(#a)"><path d="M651.754,483.08l-2.174,2.08s2.174,2.29,3.143,1.955-.969-4.035-.969-4.035" transform="translate(-608.753 -445.641)" fill="#231f20"/></g><g clip-path="url(#a)"><path d="M751.75,553.193l.054.24,1.916-3.165-.117-.147Z" transform="translate(-702.026 -506.543)" fill="#231f20"/></g><g clip-path="url(#a)"><path d="M603.839,691.75s-.049.479-.193.579-.22-.226-.22-.226-.068.352-.192.383-.284-.306-.284-.306.218.128.307.048a.527.527,0,0,0,.146-.25s.166.147.267.05a1.093,1.093,0,0,0,.168-.278" transform="translate(-566.184 -635.206)" fill="#231f20"/></g><g clip-path="url(#a)"><path d="M603.306,684.85l-.016.308-.907.552-.033-.331Z" transform="translate(-565.636 -628.938)" fill="#231f20"/></g><g clip-path="url(#a)"><path d="M391.51,684.349l.049-.506.109.02v.023a.53.53,0,0,0,.118.376.471.471,0,0,0,.312.191.4.4,0,0,0,.333-.079.416.416,0,0,0,.186-.286.691.691,0,0,0-.264-.54l-.179-.188a2.185,2.185,0,0,1-.357-.421.479.479,0,0,1-.047-.319.5.5,0,0,1,.269-.385.834.834,0,0,1,.556-.065,1.707,1.707,0,0,1,.513.189l-.025.436-.106-.021v-.028a.5.5,0,0,0-.452-.492.361.361,0,0,0-.3.057.338.338,0,0,0-.17.255.571.571,0,0,0,.221.482l.273.276a1.959,1.959,0,0,1,.324.4.475.475,0,0,1,.041.321.531.531,0,0,1-.288.417.869.869,0,0,1-.58.076,2.012,2.012,0,0,1-.531-.192" transform="translate(-373.156 -626.485)" fill="#231f20"/></g><g clip-path="url(#a)"><path d="M410.574,685.382l-.129.867a.432.432,0,0,0,.014.249c.022.042.09.062.189.084l.011.005-.005.089-.784-.132.014-.09h.024a.241.241,0,0,0,.2-.021.415.415,0,0,0,.085-.232l.206-1.376a.721.721,0,0,0,.017-.264.3.3,0,0,0-.129-.144l-.078-.05v-.021l.55-.117-.165,1.06a2.785,2.785,0,0,1,.352-.2.521.521,0,0,1,.3-.032.4.4,0,0,1,.293.189.757.757,0,0,1,.051.526l-.1.652a.364.364,0,0,0,.016.241c.023.051.089.078.184.085l.021.008-.01.1-.785-.136.016-.088.023.006c.1.007.159.006.2-.027a.382.382,0,0,0,.084-.233l.1-.655a.625.625,0,0,0-.018-.323.251.251,0,0,0-.212-.134.69.69,0,0,0-.247.006,2.459,2.459,0,0,0-.276.114" transform="translate(-389.918 -628.375)" fill="#231f20"/></g><g clip-path="url(#a)"><path d="M434.939,697.458a.333.333,0,0,1-.3.117.222.222,0,0,1-.149-.1.363.363,0,0,1-.046-.194.318.318,0,0,1,.138-.234,1.436,1.436,0,0,1,.45-.126l.089-.015-.048.289a.346.346,0,0,1-.131.263m.178.276a.216.216,0,0,0,.176.108.525.525,0,0,0,.278-.039l.014-.08-.09-.006a.194.194,0,0,1-.171-.12.946.946,0,0,1,.01-.354l.094-.7a.457.457,0,0,0-.063-.343.452.452,0,0,0-.325-.157.781.781,0,0,0-.5.08.461.461,0,0,0-.236.307v.045l.312-.057.009-.073a.239.239,0,0,1,.093-.166.287.287,0,0,1,.194-.025.422.422,0,0,1,.2.094l.056.117c0,.035,0,.109-.009.211l-.031.226-.206.027a1.866,1.866,0,0,0-.568.161.4.4,0,0,0-.2.284.394.394,0,0,0,.066.295.337.337,0,0,0,.24.148.559.559,0,0,0,.3-.04.976.976,0,0,0,.3-.211.415.415,0,0,0,.057.263" transform="translate(-412.084 -639.102)" fill="#231f20"/></g><g clip-path="url(#a)"><path d="M453.909,698.736l-.057.859a.339.339,0,0,0,.035.238c.031.044.1.064.226.069l.023.007-.007.089-.839-.057.006-.1.023.007a.335.335,0,0,0,.2-.042.355.355,0,0,0,.063-.242l.052-.645a1.2,1.2,0,0,0-.01-.283.3.3,0,0,0-.154-.128l-.084-.043,0-.017.55-.159-.025.327a1.38,1.38,0,0,1,.286-.229.436.436,0,0,1,.233-.062.331.331,0,0,1,.276.208l-.227.227c-.064-.134-.125-.206-.217-.213a.553.553,0,0,0-.325.175l-.036.014" transform="translate(-429.556 -641.148)" fill="#231f20"/></g><g clip-path="url(#a)"><path d="M468.81,695.379l0-.111a.665.665,0,0,0,.341-.246.97.97,0,0,0,.1-.494l.028-.87a.939.939,0,0,0-.012-.268.335.335,0,0,0-.158-.121l-.086-.046v-.011l.55-.189-.056,1.521a1.277,1.277,0,0,1-.066.416.491.491,0,0,1-.2.23,1.24,1.24,0,0,1-.442.189m.644-2.572a.175.175,0,0,1-.13-.058.167.167,0,0,1-.05-.139.17.17,0,0,1,.055-.136.166.166,0,0,1,.139-.051.186.186,0,0,1,.131.055.233.233,0,0,1,.045.139.189.189,0,0,1-.191.191" transform="translate(-443.725 -635.816)" fill="#231f20"/></g><g clip-path="url(#a)"><path d="M483.024,700.846a.4.4,0,0,1-.3.147.229.229,0,0,1-.165-.084.3.3,0,0,1-.07-.184.345.345,0,0,1,.117-.254,1.455,1.455,0,0,1,.431-.178l.083-.022-.01.294a.41.41,0,0,1-.088.282m.192.248a.263.263,0,0,0,.179.092.558.558,0,0,0,.278-.076l.013-.087-.1,0a.186.186,0,0,1-.181-.1.922.922,0,0,1-.03-.353l.017-.7a.448.448,0,0,0-.091-.331.46.46,0,0,0-.341-.114.735.735,0,0,0-.488.139.418.418,0,0,0-.2.331l-.01.041.312-.093v-.078a.224.224,0,0,1,.071-.169.308.308,0,0,1,.191-.051.363.363,0,0,1,.212.077l.069.1a.872.872,0,0,1,.006.214v.236l-.193.049a1.454,1.454,0,0,0-.547.225.4.4,0,0,0-.178.308.4.4,0,0,0,.1.281.324.324,0,0,0,.252.122.643.643,0,0,0,.3-.074,1.357,1.357,0,0,0,.267-.246.51.51,0,0,0,.09.257" transform="translate(-455.957 -642.179)" fill="#231f20"/></g><g clip-path="url(#a)"><path d="M501.516,693.049l-.028.875c0,.13,0,.205.039.244s.095.057.192.063h.018l-.005.092-.783-.029v-.085h.025c.1,0,.162-.016.193-.055a.392.392,0,0,0,.053-.241l.043-1.391a.768.768,0,0,0-.023-.272.35.35,0,0,0-.152-.113L501,692.1v-.027l.532-.191-.019,1.077a1.417,1.417,0,0,1,.321-.245.565.565,0,0,1,.287-.081.4.4,0,0,1,.311.146.77.77,0,0,1,.118.515l-.019.667a.33.33,0,0,0,.044.236c.031.042.087.061.187.063h.023v.093l-.784-.027v-.088h.018c.1,0,.168-.013.2-.053a.484.484,0,0,0,.055-.236l.017-.665a.609.609,0,0,0-.059-.325.288.288,0,0,0-.226-.1.461.461,0,0,0-.235.041.786.786,0,0,0-.255.145" transform="translate(-473.066 -635.325)" fill="#231f20"/></g><g clip-path="url(#a)"><path d="M474.308,597.058l-3.637,5.2.867.8,2.849-4.045a.205.205,0,0,0-.042-.288.2.2,0,0,0-.271.041s-2.375,3.371-2.6,3.7c-.111-.112-.181-.179-.281-.268.19-.282,3.428-4.9,3.428-4.9l.037-.125a.205.205,0,0,0-.078-.167.189.189,0,0,0-.27.044" transform="translate(-445.423 -549.109)" fill="#231f20"/></g><g clip-path="url(#a)"><path d="M511.978,610.121l-.194.28a.214.214,0,0,0,.037.288.188.188,0,0,0,.272-.049l.2-.276a.206.206,0,0,0-.041-.289.191.191,0,0,0-.27.047" transform="translate(-482.921 -560.975)" fill="#231f20"/></g><g clip-path="url(#a)"><path d="M560.991,266.345,542.842,292.31a.2.2,0,0,0,.035.279.192.192,0,0,0,.276-.047s17.451-24.975,17.9-25.627l.08.088a.735.735,0,0,0,.464.141c-.545.774-18.577,26.292-18.577,26.292l-.041.115a.23.23,0,0,0,.083.169.186.186,0,0,0,.268-.049l19.221-27.2-.579.207c-.17.054-.483.1-.595.008-.016-.008-.064-.047-.05-.206l.064-.729Z" transform="translate(-511.272 -248.208)" fill="#231f20"/></g><g clip-path="url(#a)"><path d="M294.4,407.53s-3.109,2.331,1.819,6.057l.226.454s.4-2.211,1.281-2.422Z" transform="translate(-283.618 -377.007)" fill="#fff"/></g><g clip-path="url(#a)"><path d="M295.725,485.95l3.46,3.5s-3.869,2.139-4.663,5.306L292.67,491.6s.053-1.326.382-1.66Z" transform="translate(-282.924 -448.248)" fill="#fff"/></g><g clip-path="url(#a)"><path d="M726.836,407.53l-3.346,4.064a2.445,2.445,0,0,1,1.257,2.307l.2-.333a11.354,11.354,0,0,0,2.492-2.647,2.593,2.593,0,0,0-.6-3.391" transform="translate(-676.227 -377.007)" fill="#fff"/></g><g clip-path="url(#a)"><path d="M699.52,490.375l3.343-3.422s-.151-.158.226.4,3,2.867,2.958,5.215l-1.9,3.088s-.125-2.7-4.625-5.278" transform="translate(-654.344 -449.14)" fill="#fff"/></g></g></svg>