<svg xmlns="http://www.w3.org/2000/svg" width="42.366" height="45" viewBox="0 0 42.366 45"><g transform="translate(-14.983 0)"><path d="M43.135,137.793a7.592,7.592,0,0,1-2.168,4.449,7.9,7.9,0,0,1-6.176,2.083,5.059,5.059,0,0,0-2.815.493,3.076,3.076,0,0,1-4.2-.141,3.1,3.1,0,0,1-.48-3.728l.491-.779a6,6,0,0,0,.34-2.508,7.9,7.9,0,0,1,2.083-6.176,7.55,7.55,0,0,1,4.46-2.173,7.192,7.192,0,0,1,1.5-3.117H18.5a3.524,3.524,0,0,0-3.52,3.519V147.17H51.7V129.839l-4.462,5.469A7.191,7.191,0,0,1,43.135,137.793Z" transform="translate(-0.001 -115.106)" fill="#f29f11"/><path d="M14.983,395.952a3.524,3.524,0,0,0,3.52,3.518h10v3.018H26.289a1.318,1.318,0,1,0,0,2.637H40.4a1.318,1.318,0,1,0,0-2.637H38.18V399.47h10a3.524,3.524,0,0,0,3.52-3.518v-1.125H14.983v1.125Z" transform="translate(0 -360.125)" fill="#f29f11"/><path d="M180.771,200.978h0a.439.439,0,0,0,.624.619c.027-.025,1.358-1.256,4.638-1.124a5.4,5.4,0,0,0,4.205-1.313,4.969,4.969,0,1,0-7.027-7.027,5.4,5.4,0,0,0-1.313,4.205c.133,3.3-1.112,4.625-1.122,4.635h0Z" transform="translate(-151.1 -173.922)" fill="#f29f11"/><path d="M275.462,128.311a4.544,4.544,0,0,0,2.211-1.473l1.685-2.064-6-6-2.056,1.679a4.537,4.537,0,0,0-1.477,2.21,7.6,7.6,0,0,1,5.638,5.65Z" transform="translate(-232.443 -108.334)" fill="#f29f11"/><path d="M346.966.791a2.686,2.686,0,0,0-3.61-.181l-9.981,8.152L339,14.386,347.148,4.4a2.687,2.687,0,0,0-.182-3.609Z" transform="translate(-290.409 0)" fill="#f29f11"/></g></svg>