<svg xmlns="http://www.w3.org/2000/svg" width="34.998" height="31.667" viewBox="0 0 34.998 31.667"><g transform="translate(1 1)"><path d="M33.461,7.587h0a8.269,8.269,0,0,0-12.063,0L19.747,9.393a.569.569,0,0,1-.635,0L17.462,7.587a8.124,8.124,0,0,0-11.936,0h0a9.3,9.3,0,0,0,0,12.641l2.032,2.064L19.239,34.545a.569.569,0,0,0,.635,0L31.556,22.291l2.032-2.064A9.177,9.177,0,0,0,33.461,7.587Z" transform="translate(-3.05 -4.975)" fill="none" stroke="#ffb405" stroke-linecap="round" stroke-linejoin="round" stroke-miterlimit="10" stroke-width="2"/><path d="M9,15.87h3.809l2.54-2.58,2.539,5.159L20.428,12l2.54,3.87h3.809" transform="translate(-1.445 -2.939)" fill="none" stroke="#ffb405" stroke-linecap="round" stroke-linejoin="round" stroke-miterlimit="10" stroke-width="2"/></g></svg>