<svg xmlns="http://www.w3.org/2000/svg" width="32.048" height="32.041" viewBox="0 0 32.048 32.041"><g transform="translate(-0.047 511.838)"><path d="M7.681-511.748a3.824,3.824,0,0,0-2.942,3.656,4.157,4.157,0,0,0,1.84,3.312,4.477,4.477,0,0,0,1.34.52c.094.006-.776.031-1.928.05-2.2.044-2.316.063-3.067.376a4.934,4.934,0,0,0-2.5,2.5c-.351.833-.338.645-.363,5.227-.013,3.049,0,4.363.05,4.632a2.826,2.826,0,0,0,1.4,1.916l.4.207.038.457a4.066,4.066,0,0,0,.563,1.684l.225.338-.175.1a4.859,4.859,0,0,0-1.984,2.053,4.813,4.813,0,0,0-.513,2.736c-.031,1.346-.025,1.427.1,1.671a.85.85,0,0,0,.382.388c.244.125.338.125,14.523.125s14.279,0,14.523-.125a.85.85,0,0,0,.382-.388c.125-.244.131-.326.1-1.671a4.813,4.813,0,0,0-.513-2.736,4.859,4.859,0,0,0-1.984-2.053l-.175-.1.225-.338a3.838,3.838,0,0,0,.5-2.729,3.813,3.813,0,0,0-3.668-3,3.813,3.813,0,0,0-3.668,3,3.838,3.838,0,0,0,.5,2.729l.225.338-.175.1a5.08,5.08,0,0,0-1.121.858l-.457.438-.451-.438a5.277,5.277,0,0,0-1.127-.858l-.175-.1.225-.338a3.838,3.838,0,0,0,.5-2.729,3.813,3.813,0,0,0-2.886-2.911,4.844,4.844,0,0,0-.82-.094,4.383,4.383,0,0,0-1.584.376l-.257.125v-2.473l.338.507a4.947,4.947,0,0,0,.62.751,2.808,2.808,0,0,0,2.26.664,3.194,3.194,0,0,0,1.934-1.133l.707-.689,5.352-.019c5.283-.019,5.352-.019,5.709-.156a2.982,2.982,0,0,0,1.922-2.141c.038-.207.063-2.2.063-5.29A44.051,44.051,0,0,0,32-507.735a3.128,3.128,0,0,0-2.341-2.172c-.457-.088-13.7-.088-14.16,0a2.988,2.988,0,0,0-2.172,1.941,9.618,9.618,0,0,0-.119,2.091l-.031,1.8-.163-.044c-.094-.025-1.058-.069-2.141-.088s-1.9-.05-1.8-.056a4.477,4.477,0,0,0,1.34-.52,4.157,4.157,0,0,0,1.84-3.312,3.816,3.816,0,0,0-2.973-3.662A3.711,3.711,0,0,0,7.681-511.748Zm1.578,1.953a2.093,2.093,0,0,1,.945.945,2.06,2.06,0,0,1-.031,1.578,1.777,1.777,0,0,1-2.93.62,1.92,1.92,0,0,1,.657-3.211A2,2,0,0,1,9.258-509.795Zm20.32,1.822a1.127,1.127,0,0,1,.57.589c.05.119.069,1.747.069,5.033,0,5.44.025,5.133-.457,5.452l-.257.169-4.282.019-4.288.013.576-.595a3.092,3.092,0,0,0,1.02-1.809,2.819,2.819,0,0,0-3.18-3.18c-.757.125-1.133.357-2.066,1.277a9.464,9.464,0,0,1-.864.8c-.013-.013-.319-.476-.689-1.027l-.664-1v-2.516c0-2.61.013-2.736.269-3.017.3-.326.019-.313,7.262-.319C29.109-508.092,29.353-508.086,29.578-507.973Zm-16.9,5.753a11.334,11.334,0,0,1,1.6,2.178c1.333,1.984,1.4,2.066,1.671,2.179.551.225.62.182,2-1.183a16.125,16.125,0,0,1,1.421-1.308.921.921,0,0,1,1.2.4.822.822,0,0,1-.05.945,51.873,51.873,0,0,1-4.15,4.094.83.83,0,0,1-.776-.013c-.188-.094-.426-.4-1.4-1.865-.645-.964-1.239-1.815-1.321-1.891a.841.841,0,0,0-1.045-.138.717.717,0,0,0-.394.394c-.113.244-.119.532-.119,6.141v5.891l-.469.463-.463.463-.457-.438A5.1,5.1,0,0,0,8.8-486.77l-.175-.1.225-.338a3.838,3.838,0,0,0,.5-2.729,3.813,3.813,0,0,0-2.886-2.911,4.424,4.424,0,0,0-.607-.094H5.678v-3.38c0-3.268-.006-3.393-.125-3.631a.988.988,0,0,0-.814-.5.988.988,0,0,0-.814.5c-.119.238-.125.363-.125,3.875v3.631l-.263.182a4.933,4.933,0,0,0-.97.983c-.106.182-.351.044-.513-.294-.131-.275-.131-.326-.131-4.194,0-2.4.025-4.044.063-4.251a2.873,2.873,0,0,1,2.2-2.241c.15-.031,2.078-.056,4.282-.063C12.232-502.333,12.482-502.326,12.683-502.22ZM6.441-490.889a2.094,2.094,0,0,1,.945.945,2.107,2.107,0,0,1,0,1.515,2.121,2.121,0,0,1-.952.952,2.107,2.107,0,0,1-1.515,0,1.9,1.9,0,0,1-1.058-2.141A1.88,1.88,0,0,1,6.441-490.889Zm9.39,0a2.094,2.094,0,0,1,.945.945,2.107,2.107,0,0,1,0,1.515,2.121,2.121,0,0,1-.952.952,2.107,2.107,0,0,1-1.515,0,1.9,1.9,0,0,1-1.058-2.141A1.88,1.88,0,0,1,15.831-490.889Zm9.39,0a2.094,2.094,0,0,1,.945.945,2.107,2.107,0,0,1,0,1.515,2.121,2.121,0,0,1-.952.952,2.107,2.107,0,0,1-1.515,0,1.9,1.9,0,0,1-1.058-2.141A1.88,1.88,0,0,1,25.221-490.889Zm-18.1,5.521a2.847,2.847,0,0,1,2.247,2.247,6.713,6.713,0,0,1,.063.889v.557H1.922v-.557a3.426,3.426,0,0,1,.313-1.621,2.892,2.892,0,0,1,1.947-1.509A19.237,19.237,0,0,1,7.124-485.368Zm9.39,0a2.847,2.847,0,0,1,2.247,2.247,6.713,6.713,0,0,1,.063.889v.557H11.312v-.557a3.426,3.426,0,0,1,.313-1.621,2.892,2.892,0,0,1,1.947-1.509A19.237,19.237,0,0,1,16.514-485.368Zm9.39,0a2.847,2.847,0,0,1,2.247,2.247,6.712,6.712,0,0,1,.063.889v.557H20.7v-.557a3.426,3.426,0,0,1,.313-1.621,2.892,2.892,0,0,1,1.947-1.509A19.237,19.237,0,0,1,25.9-485.368Z" transform="translate(0 0)" fill="#feab04"/></g></svg>