<svg xmlns="http://www.w3.org/2000/svg" width="33.374" height="33.366" viewBox="0 0 33.374 33.366"><path d="M8-511.744a3.983,3.983,0,0,0-3.064,3.807,4.329,4.329,0,0,0,1.917,3.449,4.662,4.662,0,0,0,1.4.541c.1.007-.808.033-2.008.052-2.295.046-2.412.065-3.194.391A5.138,5.138,0,0,0,.435-500.9c-.365.867-.352.671-.378,5.443-.013,3.175,0,4.544.052,4.824a2.943,2.943,0,0,0,1.46,1.995l.417.215.039.476a4.235,4.235,0,0,0,.587,1.754l.235.352-.183.1A5.06,5.06,0,0,0,.6-483.6a5.012,5.012,0,0,0-.535,2.849c-.033,1.4-.026,1.486.1,1.741a.885.885,0,0,0,.4.4c.254.13.352.13,15.124.13s14.87,0,15.124-.13a.885.885,0,0,0,.4-.4c.13-.254.137-.339.1-1.741a5.012,5.012,0,0,0-.535-2.849,5.06,5.06,0,0,0-2.066-2.138l-.183-.1.235-.352a4,4,0,0,0,.522-2.842,3.966,3.966,0,0,0-3.82-3.129,3.966,3.966,0,0,0-3.82,3.129,4,4,0,0,0,.522,2.842l.235.352-.183.1a5.287,5.287,0,0,0-1.167.893l-.476.456-.469-.456a5.493,5.493,0,0,0-1.173-.893l-.183-.1.235-.352a4,4,0,0,0,.522-2.842,3.966,3.966,0,0,0-3.005-3.031,5.047,5.047,0,0,0-.854-.1A4.563,4.563,0,0,0,14-491.77l-.267.13v-2.575l.352.528a5.152,5.152,0,0,0,.645.782,2.924,2.924,0,0,0,2.353.691,3.326,3.326,0,0,0,2.014-1.18l.737-.717,5.574-.02c5.5-.02,5.574-.02,5.945-.163a3.105,3.105,0,0,0,2-2.229c.039-.215.065-2.295.065-5.509a45.874,45.874,0,0,0-.1-5.535,3.257,3.257,0,0,0-2.438-2.262c-.476-.091-14.263-.091-14.746,0a3.111,3.111,0,0,0-2.262,2.021,10.016,10.016,0,0,0-.124,2.177l-.033,1.877-.169-.046c-.1-.026-1.1-.072-2.229-.091s-1.975-.052-1.877-.059a4.662,4.662,0,0,0,1.4-.541,4.329,4.329,0,0,0,1.917-3.449,3.974,3.974,0,0,0-3.1-3.814A3.864,3.864,0,0,0,8-511.744Zm1.643,2.034a2.18,2.18,0,0,1,.984.984,2.145,2.145,0,0,1-.033,1.643,1.851,1.851,0,0,1-3.051.645,2,2,0,0,1,.684-3.344A2.08,2.08,0,0,1,9.639-509.71Zm21.16,1.9a1.173,1.173,0,0,1,.593.613c.052.124.072,1.819.072,5.241,0,5.665.026,5.345-.476,5.678l-.267.176-4.459.02-4.465.013.6-.619a3.22,3.22,0,0,0,1.063-1.884,2.936,2.936,0,0,0-3.312-3.312c-.789.13-1.18.372-2.151,1.33a9.859,9.859,0,0,1-.9.828c-.013-.013-.332-.5-.717-1.069l-.691-1.043v-2.621c0-2.718.013-2.849.28-3.142.313-.339.02-.326,7.562-.332C30.311-507.937,30.565-507.93,30.8-507.813Zm-17.595,5.991a11.8,11.8,0,0,1,1.662,2.269c1.389,2.066,1.454,2.151,1.741,2.269.574.235.645.189,2.08-1.232a16.794,16.794,0,0,1,1.48-1.362.959.959,0,0,1,1.252.417.856.856,0,0,1-.052.984,54,54,0,0,1-4.322,4.263.864.864,0,0,1-.808-.013c-.2-.1-.443-.417-1.46-1.943-.671-1-1.291-1.89-1.375-1.969a.875.875,0,0,0-1.089-.143.747.747,0,0,0-.411.411c-.117.254-.124.554-.124,6.4v6.134l-.489.482-.482.482-.476-.456a5.3,5.3,0,0,0-1.173-.9l-.183-.1.235-.352a4,4,0,0,0,.522-2.842,3.966,3.966,0,0,0-3.005-3.031,4.614,4.614,0,0,0-.632-.1H5.911v-3.52c0-3.4-.007-3.533-.13-3.781a1.029,1.029,0,0,0-.847-.522,1.029,1.029,0,0,0-.847.522c-.124.248-.13.378-.13,4.035v3.781l-.274.189a5.136,5.136,0,0,0-1.01,1.023c-.111.189-.365.046-.535-.306C2-491.027,2-491.079,2-495.108c0-2.5.026-4.211.065-4.426a2.992,2.992,0,0,1,2.288-2.334c.156-.033,2.164-.059,4.459-.065C12.736-501.94,13-501.933,13.205-501.822Zm-6.5,11.8a2.18,2.18,0,0,1,.984.984,2.194,2.194,0,0,1,0,1.578,2.209,2.209,0,0,1-.991.991,2.194,2.194,0,0,1-1.578,0,1.982,1.982,0,0,1-1.1-2.229A1.957,1.957,0,0,1,6.706-490.023Zm9.778,0a2.18,2.18,0,0,1,.984.984,2.194,2.194,0,0,1,0,1.578,2.209,2.209,0,0,1-.991.991,2.194,2.194,0,0,1-1.578,0,1.982,1.982,0,0,1-1.1-2.229A1.957,1.957,0,0,1,16.484-490.023Zm9.778,0a2.18,2.18,0,0,1,.984.984,2.194,2.194,0,0,1,0,1.578,2.209,2.209,0,0,1-.991.991,2.194,2.194,0,0,1-1.578,0,1.982,1.982,0,0,1-1.1-2.229A1.957,1.957,0,0,1,26.263-490.023Zm-18.846,5.75a2.965,2.965,0,0,1,2.34,2.34,6.991,6.991,0,0,1,.065.926v.58H2v-.58a3.568,3.568,0,0,1,.326-1.688,3.012,3.012,0,0,1,2.027-1.571A20.023,20.023,0,0,1,7.417-484.273Zm9.778,0a2.965,2.965,0,0,1,2.34,2.34,6.99,6.99,0,0,1,.065.926v.58H11.778v-.58A3.568,3.568,0,0,1,12.1-482.7a3.012,3.012,0,0,1,2.027-1.571A20.023,20.023,0,0,1,17.195-484.273Zm9.778,0a2.965,2.965,0,0,1,2.34,2.34,6.99,6.99,0,0,1,.065.926v.58H21.556v-.58a3.568,3.568,0,0,1,.326-1.688,3.012,3.012,0,0,1,2.027-1.571A20.023,20.023,0,0,1,26.973-484.273Z" transform="translate(-0.047 511.838)" fill="#ffac05"/></svg>