<svg xmlns="http://www.w3.org/2000/svg" width="142.239" height="41.361" viewBox="0 0 142.239 41.361"><g transform="translate(0 0)"><g transform="translate(0)"><path d="M45.183,152.133V159.7c0,2.149-1.066,3.3-3,3.3s-3.022-1.18-3.022-3.388v-7.467H36.476V159.7c0,3.719,2.066,5.85,5.667,5.85,3.636,0,5.721-2.172,5.721-5.959v-7.457Zm9.864,0-5.823,13.211h2.737l1.124-2.559.08-.192h6.049l1.186,2.75h2.811l-5.769-13.132-.052-.078Zm15.941,0-3,9.09-2.921-9.083H62.214l4.606,13.212h2.22l3.007-8.679,3,8.679H77.29l4.594-13.212H79.1l-2.927,9.083-3-9.09Zm26.237,0v13.2h2.646v-13.2Zm-75.886,0v13.217h2.682v-5.368h6.055v5.368h2.683V152.134H30.076v5.332H24.021v-5.332Zm62.707.009v13.2h9.981v-2.407H86.692v-3.273H91.57v-2.407H86.692v-2.706h7.08v-2.407Zm-27.863,3.335L58.1,159.9h-.007l.13.305H54.162l.129-.305h0Z" transform="translate(42.368 -137.832)" fill="#232527"/><path d="M44.509,121.909c-.733.065-2.715.516-2.715.516h0a7.741,7.741,0,0,0-5.869,7.247v.9a11.016,11.016,0,0,0,.367,2.417c1.492,6.616,8.829,17.488,10.406,19.772.112.111.2.071.2.071a.205.205,0,0,0,.157-.21h0C49.486,128.344,44.509,121.909,44.509,121.909Zm8.025,0s-5,6.438-2.569,30.727h0a.208.208,0,0,0,.128.186.2.2,0,0,0,.246-.093v0c1.617-2.342,8.912-13.155,10.4-19.746,0,0,.805-3.19.028-5.352a7.828,7.828,0,0,0-5.577-5.2s-1.289-.327-2.658-.52ZM29.475,129.2s-4.256,4.04-4.468,8.322h0v.649c0,.049.006.1.009.148a8.071,8.071,0,0,0,2.781,5.5c4.186,4.08,14.322,9.23,16.677,10.4a.2.2,0,0,0,.226-.038.178.178,0,0,0,.054-.079v-.108a.139.139,0,0,0-.008-.019h0A125.432,125.432,0,0,0,29.475,129.2Zm38.083,0a125.375,125.375,0,0,0-15.244,24.71h0a.236.236,0,0,0,.047.268.25.25,0,0,0,.088.039h.089a.17.17,0,0,0,.05-.022v0c2.419-1.2,12.476-6.318,16.643-10.378a8.123,8.123,0,0,0,2.777-5.52c.3-4.725-4.451-9.1-4.451-9.1Zm7.918,13.989s-14.342,7.7-21.758,12.7h0l0,0a.224.224,0,0,0-.088.246s.07.127.173.127h0c2.656,0,12.707.016,12.959-.031a10.105,10.105,0,0,0,2.906-.669,9.894,9.894,0,0,0,5.432-5.2,10.08,10.08,0,0,0,.861-4.082v-.1a9.688,9.688,0,0,0-.487-3Zm-53.923.036a9.988,9.988,0,0,0,5.78,12.34,10.314,10.314,0,0,0,3.227.709c.252.046,10.035,0,12.657-.008a.221.221,0,0,0,.172-.112.143.143,0,0,0,.018-.036v-.1a.282.282,0,0,0-.08-.115h0c-7.412-5-21.775-12.675-21.775-12.675ZM42.917,157.5l-16.872.592c1.83,3.262,4.911,5.8,8.121,5.018,2.215-.554,7.234-4.054,8.89-5.237l-.006,0c.129-.116.083-.209.083-.209a.229.229,0,0,0-.217-.151Zm11.175.012,0,.006a.248.248,0,0,0-.19.13.237.237,0,0,0,.064.227l0,0c1.615,1.158,6.512,4.582,8.871,5.247a3.664,3.664,0,0,0,.956.143h.36c1.581-.055,4.334-.867,6.836-5.166Z" transform="translate(-21.071 -121.909)" fill="#cf0a2c"/></g></g></svg>