<svg xmlns="http://www.w3.org/2000/svg" width="44.024" height="43.976" viewBox="0 0 44.024 43.976"><g transform="translate(0.05 511.639)"><path d="M94.32-511.619a15.208,15.208,0,0,0-8.812,4.333,15.063,15.063,0,0,0-4.144,7.694,20.571,20.571,0,0,0-.12,5.158,15.06,15.06,0,0,0,5.072,9.233,10.323,10.323,0,0,1,2.278,2.51c.9,1.461,1.126,2.708,1.126,6.19,0,2.252.043,2.476.559,3.189a3.251,3.251,0,0,0,.731.688c.413.275.43.3.43.679a4.745,4.745,0,0,0,2.209,3.6,4.292,4.292,0,0,0,2.519.679,4.292,4.292,0,0,0,2.519-.679,4.745,4.745,0,0,0,2.209-3.6c0-.378.017-.4.43-.679a3.077,3.077,0,0,0,1.152-1.479,16.442,16.442,0,0,0,.163-3.095c.043-2.94.095-3.318.619-4.565a9.053,9.053,0,0,1,2.76-3.439,15.078,15.078,0,0,0,4.952-8.511,12.211,12.211,0,0,0,.2-2.957,11.152,11.152,0,0,0-.206-2.923,15.131,15.131,0,0,0-11.786-11.829,12.241,12.241,0,0,0-2.751-.215C95.412-511.644,94.466-511.636,94.32-511.619Zm3.009,2.648a12.361,12.361,0,0,1,7.677,3.671,12.392,12.392,0,0,1,3.25,5.863,15.161,15.161,0,0,1,.181,4.745,12.581,12.581,0,0,1-1.866,4.8,12.6,12.6,0,0,1-2.562,2.854c-.533.473-1.161,1.075-1.384,1.333a10.681,10.681,0,0,0-2.545,5.442l-.052.4h-7.72l-.052-.413a10.6,10.6,0,0,0-3.7-6.551,12.592,12.592,0,0,1-4.5-7.024,8.365,8.365,0,0,1-.224-2.82,7.954,7.954,0,0,1,.267-2.88,12.469,12.469,0,0,1,3.387-5.915,12.4,12.4,0,0,1,5.88-3.25,13.492,13.492,0,0,1,2.966-.327C96.461-509.022,96.908-509,97.329-508.971Zm2.691,32.848a3.254,3.254,0,0,1-.138,1.264,56.369,56.369,0,0,1-7.428,0,3.254,3.254,0,0,1-.138-1.264l-.034-1.161h7.772ZM98.232-472a2.724,2.724,0,0,1-.55,1.057,2.2,2.2,0,0,1-2.4.438,1.88,1.88,0,0,1-.971-.954c-.361-.714-.473-.671,1.857-.671C97.965-472.125,98.232-472.108,98.232-472Z" transform="translate(-74.206)" fill="#ffb405"/><path d="M167.864-451.748a5.232,5.232,0,0,0-3.6,3.679,6.774,6.774,0,0,0-.009,2.631,5.493,5.493,0,0,0,.868,1.8l.292.413-.335.172a8.732,8.732,0,0,0-2.192,1.9,9.46,9.46,0,0,0-1.522,2.914,7.445,7.445,0,0,0-.224,2.055c-.052,1.59.009,1.831.533,2.158.275.172.456.172,7.608.172s7.333,0,7.608-.172c.524-.327.585-.567.533-2.158a6.74,6.74,0,0,0-.791-3.473,8.653,8.653,0,0,0-3.121-3.4l-.344-.2.284-.4a5.585,5.585,0,0,0,.851-1.788,6.456,6.456,0,0,0,0-2.631,5.239,5.239,0,0,0-3.705-3.705A6.652,6.652,0,0,0,167.864-451.748Zm2.313,2.639a3.006,3.006,0,0,1,1.384,1.281,2.232,2.232,0,0,1,.172,1.075,2.047,2.047,0,0,1-.688,1.762,2.047,2.047,0,0,1-1.762.688,2.047,2.047,0,0,1-1.762-.688,2.223,2.223,0,0,1-.714-1.608,2.4,2.4,0,0,1,1.659-2.536A3.309,3.309,0,0,1,170.176-449.109Zm.567,7.78a5.706,5.706,0,0,1,3.783,3.585,8.473,8.473,0,0,1,.232.92l.052.387H163.78v-.181a6.232,6.232,0,0,1,.576-1.883,6.351,6.351,0,0,1,2.261-2.347A5.407,5.407,0,0,1,170.744-441.329Z" transform="translate(-147.32 -54.6)" fill="#ffb405"/><path d="M.522-486.837a1.8,1.8,0,0,0-.4.4,1.621,1.621,0,0,0,0,1.436,12.272,12.272,0,0,0,1.694,1.272c1.5,1,1.547,1.023,2.012,1.023a1.208,1.208,0,0,0,1.126-.567,1.621,1.621,0,0,0,0-1.436,12.27,12.27,0,0,0-1.694-1.272c-1.5-1-1.547-1.023-2.012-1.023A1.3,1.3,0,0,0,.522-486.837Z" transform="translate(0 -22.521)" fill="#ffb405"/><path d="M453.811-485.977a12.269,12.269,0,0,0-1.694,1.272,1.621,1.621,0,0,0,0,1.436,1.208,1.208,0,0,0,1.126.567c.464,0,.507-.026,2.012-1.023A12.274,12.274,0,0,0,456.949-485a1.621,1.621,0,0,0,0-1.436,1.208,1.208,0,0,0-1.126-.567C455.359-487,455.316-486.974,453.811-485.977Z" transform="translate(-413.142 -22.521)" fill="#ffb405"/><path d="M.567-351.837A1.208,1.208,0,0,0,0-350.71a1.208,1.208,0,0,0,.567,1.126c.224.146.43.163,2.012.163,1.943,0,2.055-.026,2.416-.567a1.639,1.639,0,0,0,0-1.444c-.361-.542-.473-.567-2.416-.567C1-352,.791-351.983.567-351.837Z" transform="translate(-0.046 -145.915)" fill="#ffb405"/><path d="M452.567-351.837A1.208,1.208,0,0,0,452-350.71a1.208,1.208,0,0,0,.567,1.126c.224.146.43.163,2.012.163,1.943,0,2.055-.026,2.416-.567a1.639,1.639,0,0,0,0-1.444c-.361-.542-.473-.567-2.416-.567C453-352,452.791-351.983,452.567-351.837Z" transform="translate(-413.188 -145.915)" fill="#ffb405"/><path d="M1.811-235.977A12.27,12.27,0,0,0,.118-234.7a1.621,1.621,0,0,0,0,1.436,1.208,1.208,0,0,0,1.126.567c.464,0,.507-.026,2.012-1.023A12.273,12.273,0,0,0,4.949-235a1.621,1.621,0,0,0,0-1.436A1.208,1.208,0,0,0,3.823-237C3.359-237,3.316-236.974,1.811-235.977Z" transform="translate(0 -251.029)" fill="#ffb405"/><path d="M452.522-236.837a1.8,1.8,0,0,0-.4.4,1.621,1.621,0,0,0,0,1.436,12.272,12.272,0,0,0,1.694,1.272c1.5,1,1.547,1.023,2.012,1.023a1.208,1.208,0,0,0,1.126-.567,1.621,1.621,0,0,0,0-1.436,12.272,12.272,0,0,0-1.694-1.272c-1.5-1-1.547-1.023-2.012-1.023A1.3,1.3,0,0,0,452.522-236.837Z" transform="translate(-413.142 -251.029)" fill="#ffb405"/></g></svg>