<svg xmlns="http://www.w3.org/2000/svg" width="137.72" height="49.906" viewBox="0 0 137.72 49.906"><g transform="translate(0 -2.539)"><path d="M137.72,52.616V2.71H0V52.616Z" transform="translate(0 -0.171)" fill="#006fba"/><path d="M69.055,51.493c37.481,0,67.841-10.6,67.841-23.665S106.535,4.18,69.055,4.18,1.18,14.769,1.18,27.828,31.565,51.493,69.055,51.493Z" transform="translate(-0.19 -0.345)" fill="#ffe91d"/><path d="M35.158,39.615c.327,0,.453-.132.277-.335a6.4,6.4,0,0,1-.361-2.389V23.445a6.4,6.4,0,0,1,.361-2.389c.176-.2.05-.335-.277-.335H23.6c-.327,0-.453.132-.285.335a6.339,6.339,0,0,1,.369,2.389V36.891a6.339,6.339,0,0,1-.369,2.389c-.168.2,0,.335.285.335Z" transform="translate(-3.749 -2.301)" fill="#006bb6"/><path d="M55.994,27.465l4.193-6c.176-.176.092-.423.092-.538s0-.2.084-.2H71.753c.151,0,.092.115,0,.2l-4.7,6.9a.658.658,0,0,0,.042.882L73.556,39.43c.067.088.126.2,0,.2H59.642c-.084,0-.084-.088-.084-.2s.21-1.085,0-1.261l-3.606-5.8v4.541a6.339,6.339,0,0,0,.369,2.389c.168.2.042.335-.285.335H44.864c-.327,0-.453-.132-.285-.335a6.343,6.343,0,0,0,.335-2.407V23.445a6.339,6.339,0,0,0-.369-2.389c-.168-.2-.042-.335.285-.335H56.078c.327,0,.453.132.285.335a6.339,6.339,0,0,0-.369,2.389v4.021Z" transform="translate(-7.174 -2.301)" fill="#006bb6"/><path d="M94.653,32.6a.327.327,0,0,1,.088-.243.294.294,0,0,1,.231-.092h4.437a10.375,10.375,0,0,1,2.256.088c.134.15.31.062.31-.229V27.6c0-.282-.176-.379-.31-.229a10.376,10.376,0,0,1-2.256.088H94.966a.3.3,0,0,1-.227-.086.334.334,0,0,1-.1-.231v-.882a.327.327,0,0,1,.085-.249.294.294,0,0,1,.234-.1h6.382a5.444,5.444,0,0,1,2.248.379c.193.176.319.044.319-.291V20.72H83.783c-.31,0-.445.168-.268.362a6.511,6.511,0,0,1,.394,2.372v13.3a6.46,6.46,0,0,1-.361,2.363c-.176.2-.05.335.268.335h20.128V33.884c0-.335-.126-.467-.319-.291a5.443,5.443,0,0,1-2.248.379H94.966a.293.293,0,0,1-.236-.089.326.326,0,0,1-.091-.246V32.6Z" transform="translate(-13.46 -2.301)" fill="#006bb6"/><path d="M140.261,39.5s-6.709-16.673-6.768-16.956a1.747,1.747,0,0,1,0-1.182c.168-.423,0-.529-.26-.529H117.575c-.285,0-.428.106-.26.529a1.747,1.747,0,0,1,0,1.182c-.092.282-6,16.956-6,16.956h9.611c.226,0,.268-.115.2-.273a1.266,1.266,0,0,1,0-.82l.512-1.763a.742.742,0,0,1,.306-.47.676.676,0,0,1,.533-.1h4.193a.668.668,0,0,1,.535.1.734.734,0,0,1,.3.473l.512,1.763a1.34,1.34,0,0,1,.042.82c-.075.159,0,.273.2.273Zm-17.025-7.151c-.151,0-.168-.185-.126-.291l1.04-2.592a.152.152,0,0,1,.151-.15c.084,0,.117.071.159.15l1.04,2.592c.042.106,0,.273-.126.291Z" transform="translate(-17.956 -2.313)" fill="#006bb6"/></g></svg>