<svg xmlns="http://www.w3.org/2000/svg" width="33.494" height="33.521" viewBox="0 0 33.494 33.521"><g transform="translate(-0.5 511.858)"><path d="M15.729-511.789A13.986,13.986,0,0,0,4.5-503.974a14.394,14.394,0,0,0-1.376,5.279c-.039.36-.052.38-.38.6a5.6,5.6,0,0,0-1.88,2.325,4.523,4.523,0,0,0-.36,1.978,4.523,4.523,0,0,0,.36,1.978,5.529,5.529,0,0,0,2.869,2.869,6.3,6.3,0,0,0,2.849.38l1.749.026v-10.493H5.773l.039-.282A11.4,11.4,0,0,1,11.963-508a11.3,11.3,0,0,1,4.814-1.231,11.675,11.675,0,0,1,6.976,1.952,13.167,13.167,0,0,1,3.033,3.026,11.914,11.914,0,0,1,1.873,4.939l.039.282H26.144v10.48h2.62v.74a3.858,3.858,0,0,1-1.179,3.059,3.539,3.539,0,0,1-1.808,1.048,10.228,10.228,0,0,1-2.672.124H20.937l-.223-.472a4.1,4.1,0,0,0-1.71-1.71,3.969,3.969,0,0,0-3.622.039,4.82,4.82,0,0,0-1.6,1.6,3.935,3.935,0,0,0-.341,2.8,3.565,3.565,0,0,0,1.048,1.808,3.759,3.759,0,0,0,3.57,1.081,4.008,4.008,0,0,0,2.659-2.037l.223-.472,2.456-.026a12.194,12.194,0,0,0,2.98-.17,6.8,6.8,0,0,0,3.832-2.627,8.053,8.053,0,0,0,.989-2.168,8.258,8.258,0,0,0,.17-1.945l.033-1.389.341-.223a5.317,5.317,0,0,0,2.247-4.592,5.238,5.238,0,0,0-2.253-4.015c-.328-.223-.341-.242-.38-.6a19.272,19.272,0,0,0-.426-2.673A14.016,14.016,0,0,0,15.729-511.789ZM5.707-493.782v2.633l-.341-.046a2.958,2.958,0,0,1-1.454-.7,2.782,2.782,0,0,1-.55-.766,1.8,1.8,0,0,1-.242-1.12,1.827,1.827,0,0,1,.21-1.068,3.4,3.4,0,0,1,.472-.727,2.808,2.808,0,0,1,1.729-.825l.177-.007Zm24.151-2.365a2.488,2.488,0,0,1,1.251,1.231,1.812,1.812,0,0,1,.242,1.127,1.812,1.812,0,0,1-.242,1.127,2.782,2.782,0,0,1-.55.766,2.965,2.965,0,0,1-1.448.7l-.347.046v-5.28l.347.046A3.24,3.24,0,0,1,29.858-496.147Zm-11.9,12.8a1.172,1.172,0,0,1,.557,1.087,1.178,1.178,0,0,1-.576,1.1,1.409,1.409,0,0,1-1.376.02,1.355,1.355,0,0,1-.576-1.5,1.468,1.468,0,0,1,.806-.858A1.588,1.588,0,0,1,17.956-483.347Z" fill="#ffb405"/><path d="M156-350.76v5.24h3.373l1.585,1.585,1.592,1.592,1.592-1.592,1.585-1.585H169.1V-356H156Zm10.48,0v2.62h-1.867l-1.028,1.028-1.035,1.035-1.035-1.035-1.028-1.028H158.62v-5.24h7.86Z" transform="translate(-145.314 -145.649)" fill="#ffb405"/></g></svg>