<svg xmlns="http://www.w3.org/2000/svg" width="37.687" height="37.653" viewBox="0 0 37.687 37.653"><path d="M17.657-511.581a7.843,7.843,0,0,0-6.074,5.205,7.746,7.746,0,0,0,1.789,7.87c.28.294.508.545.5.552s-.236.088-.5.184a10.872,10.872,0,0,0-3.217,1.87l-.383.346L8.94-495.7a35.046,35.046,0,0,0-5.05-.449c-.92,0-1.252.133-1.487.589-.133.265-.147.427-.147,2.15v1.863l-.479.25a3.349,3.349,0,0,0-1.649,2.2,20.57,20.57,0,0,0,0,3.563,3.349,3.349,0,0,0,1.649,2.2l.479.25v1.863c0,2.68,0,2.687,2.061,2.768a25.165,25.165,0,0,1,13.178,3.792,8.353,8.353,0,0,0,1.119.611c.39.118.67.015,1.679-.611a25.165,25.165,0,0,1,13.178-3.792c1.414-.059,1.671-.14,1.914-.618.133-.265.147-.427.147-2.15v-1.863l.479-.25a3.349,3.349,0,0,0,1.649-2.2,20.571,20.571,0,0,0,0-3.563,3.349,3.349,0,0,0-1.649-2.2l-.479-.25v-1.863c0-1.723-.015-1.885-.147-2.15-.236-.456-.567-.589-1.487-.589a35.046,35.046,0,0,0-5.05.449l-.832.147-.383-.346a10.872,10.872,0,0,0-3.217-1.87c-.265-.1-.486-.177-.5-.184s.221-.258.5-.552a7.73,7.73,0,0,0,1.789-7.87,7.734,7.734,0,0,0-7.09-5.279A7.5,7.5,0,0,0,17.657-511.581Zm2.82,2.356a5.587,5.587,0,0,1,3.5,7.48,5.766,5.766,0,0,1-3.828,3.247,7.934,7.934,0,0,1-2.5,0,5.766,5.766,0,0,1-3.828-3.247,5.039,5.039,0,0,1-.42-1.841,5.644,5.644,0,0,1,4.572-5.816A6.46,6.46,0,0,1,20.476-509.225Zm1.8,13.178a9.864,9.864,0,0,1,1.318.331,5.253,5.253,0,0,1,1.627.81,2.391,2.391,0,0,1-.641.258,29.273,29.273,0,0,0-5.006,2.3l-.685.4-.677-.4a29.8,29.8,0,0,0-5.006-2.3,2.376,2.376,0,0,1-.648-.258,5.253,5.253,0,0,1,1.627-.81c1.141-.383,1.531-.42,4.631-.427A27.823,27.823,0,0,1,22.28-496.047Zm-15.387,2.3a23.849,23.849,0,0,1,10.219,3.32l.677.4v12.943l-1.274-.648a26.781,26.781,0,0,0-7.671-2.5,31.422,31.422,0,0,0-3.4-.375,5.866,5.866,0,0,1-.7-.044l-.28-.052v-2.371l.479-.25a3.349,3.349,0,0,0,1.649-2.2,20.57,20.57,0,0,0,0-3.563,3.349,3.349,0,0,0-1.649-2.2l-.479-.25v-2.385l.685.037C5.516-493.875,6.3-493.809,6.893-493.75Zm26.43,1v1.2l-.479.25a3.349,3.349,0,0,0-1.649,2.2,20.57,20.57,0,0,0,0,3.563,3.349,3.349,0,0,0,1.649,2.2l.479.25v2.371l-.272.052a6.113,6.113,0,0,1-.707.044,31.422,31.422,0,0,0-3.4.375,26.781,26.781,0,0,0-7.671,2.5L20-477.09v-12.943l.685-.4a23.033,23.033,0,0,1,8.113-3.026,36.3,36.3,0,0,1,3.718-.434c.265-.015.552-.029.648-.037C33.323-493.942,33.323-493.942,33.323-492.749ZM3.875-489.377c.515.265.589.515.589,2.061,0,1.185-.015,1.362-.147,1.62a1.162,1.162,0,0,1-.957.589A1.162,1.162,0,0,1,2.4-485.7c-.133-.258-.147-.434-.147-1.62s.015-1.362.147-1.62A1.066,1.066,0,0,1,3.875-489.377Zm31.068,0c.515.265.589.515.589,2.061,0,1.185-.015,1.362-.147,1.62a1.162,1.162,0,0,1-.957.589,1.162,1.162,0,0,1-.957-.589c-.133-.258-.147-.434-.147-1.62s.015-1.362.147-1.62A1.066,1.066,0,0,1,34.943-489.377Z" transform="translate(-0.05 511.659)" fill="#feab04"/></svg>