<svg xmlns="http://www.w3.org/2000/svg" width="27.405" height="27.375" viewBox="0 0 27.405 27.375"><path d="M17.062-511.69a4.309,4.309,0,0,0-.723.278,3.94,3.94,0,0,0-1.312,1.312,3.982,3.982,0,0,0-.385,1.328v.177l-1.831.027a12.206,12.206,0,0,0-3.651.385,12.406,12.406,0,0,0-6.291,4.058,12.062,12.062,0,0,0,2.623,17.663,12.213,12.213,0,0,0,5,1.954,15.758,15.758,0,0,0,3.48,0,12.292,12.292,0,0,0,5.809-2.543,12.326,12.326,0,0,0,4.149-6.361,12.206,12.206,0,0,0,.385-3.651l.027-1.831h.177a3.982,3.982,0,0,0,1.328-.385,3.94,3.94,0,0,0,1.312-1.312,3.67,3.67,0,0,0,.385-1.515,3.671,3.671,0,0,0-.385-1.515,3.941,3.941,0,0,0-1.312-1.312,3.967,3.967,0,0,0-1.339-.385h-.177v-3.266H21.067v-.177a3.966,3.966,0,0,0-.385-1.339,3.94,3.94,0,0,0-1.312-1.312A3.3,3.3,0,0,0,17.062-511.69Zm1.51,1.681a1.561,1.561,0,0,1,.873,1.312,2.047,2.047,0,0,1-.22.991c-.134.375-.246.7-.246.707s.846.021,1.874.021h1.874v1.874c0,1.028.011,1.874.021,1.874s.332-.112.707-.246a2.046,2.046,0,0,1,.99-.219,1.57,1.57,0,0,1,1.317.883,1.752,1.752,0,0,1,.037,1.355,1.63,1.63,0,0,1-1.344.942,2.071,2.071,0,0,1-1-.22c-.375-.134-.7-.246-.707-.246s-.021.83-.021,1.847v1.847H18.989l.236.68a2.092,2.092,0,0,1,.22,1.023,1.538,1.538,0,0,1-1.59,1.483,1.538,1.538,0,0,1-1.59-1.483,2.092,2.092,0,0,1,.22-1.023l.236-.68H13.036v-1.606h.177a3.966,3.966,0,0,0,1.339-.385,3.94,3.94,0,0,0,1.312-1.312,3.67,3.67,0,0,0,.385-1.515,3.671,3.671,0,0,0-.385-1.515,3.941,3.941,0,0,0-1.312-1.312,3.967,3.967,0,0,0-1.339-.385h-.177v-1.66h1.847c1.017,0,1.847-.011,1.847-.021s-.107-.327-.241-.7c-.262-.734-.284-.937-.161-1.355A1.592,1.592,0,0,1,18.572-510.008Zm-7.142,4.926v1.842l.685-.236a2.1,2.1,0,0,1,1.007-.219,1.556,1.556,0,0,1,1.344.883,1.635,1.635,0,0,1,0,1.413,1.556,1.556,0,0,1-1.344.883,2.105,2.105,0,0,1-1.007-.22l-.685-.236v3.684H9.823v-.177a3.966,3.966,0,0,0-.385-1.339,3.94,3.94,0,0,0-1.312-1.312,3.671,3.671,0,0,0-1.515-.385,3.671,3.671,0,0,0-1.515.385A3.94,3.94,0,0,0,3.784-498.8a3.966,3.966,0,0,0-.385,1.339v.177H1.776l.037-.385a9.875,9.875,0,0,1,.466-2.1,10.538,10.538,0,0,1,7.014-6.773,10.107,10.107,0,0,1,1.911-.369l.225-.005Zm-4.1,6.371a1.558,1.558,0,0,1,.873,1.339,2.1,2.1,0,0,1-.22,1.007l-.236.685H11.43v1.606h-.177a3.966,3.966,0,0,0-1.339.385A3.94,3.94,0,0,0,8.6-492.378a3.67,3.67,0,0,0-.385,1.515,3.67,3.67,0,0,0,.385,1.515,3.94,3.94,0,0,0,1.312,1.312,3.967,3.967,0,0,0,1.339.385h.177v1.622l-.369-.037a10.611,10.611,0,0,1-3.4-.991,10.534,10.534,0,0,1-4.283-3.817A10.71,10.71,0,0,1,1.814-495.3l-.037-.385h3.7l-.236-.685a1.922,1.922,0,0,1-.155-1.387A1.592,1.592,0,0,1,7.328-498.711Zm7.314,3.207a3.967,3.967,0,0,0,.385,1.339,3.94,3.94,0,0,0,1.312,1.312,3.67,3.67,0,0,0,1.515.385,3.649,3.649,0,0,0,1.515-.385,4.04,4.04,0,0,0,1.312-1.312,3.967,3.967,0,0,0,.385-1.339v-.177h1.622l-.037.385a9.875,9.875,0,0,1-.466,2.1,10.576,10.576,0,0,1-4.342,5.563,10.71,10.71,0,0,1-4.422,1.563l-.385.037v-3.7l-.68.236a2.133,2.133,0,0,1-1.012.22A1.556,1.556,0,0,1,10-490.156a1.291,1.291,0,0,1-.15-.707,1.291,1.291,0,0,1,.15-.707,1.556,1.556,0,0,1,1.344-.883,2.133,2.133,0,0,1,1.012.219l.68.236v-3.684h1.606Z" transform="translate(-0.14 511.785)" fill="#ffbc05"/></svg>