<svg xmlns="http://www.w3.org/2000/svg" width="29.075" height="31.041" viewBox="0 0 29.075 31.041"><g transform="translate(-16.5 511.906)"><path d="M30-511.821a5.79,5.79,0,0,0-4.537,4.185,4.167,4.167,0,0,0-.164,1.547,4.265,4.265,0,0,0,.133,1.486,6.432,6.432,0,0,0,.989,1.965,2.175,2.175,0,0,1,.285.394c-.012.012-.291.158-.619.334a9.6,9.6,0,0,0-2.505,1.838l-.564.552-.952-.012a7.193,7.193,0,0,0-3.318.522c-.3.279-.34.461-.34,1.644v1.086l-.279.079a2.378,2.378,0,0,0-1.189.855c-.425.613-.443.7-.443,2.359a5.146,5.146,0,0,0,.115,1.789,2.435,2.435,0,0,0,1.431,1.431l.364.133v1.322c0,1.4.024,1.553.291,1.832s.522.309,1.237.152a7.56,7.56,0,0,1,1.9-.133,6.69,6.69,0,0,1,2.651.334,6.339,6.339,0,0,1,3.815,3.391,3.84,3.84,0,0,0,.7.952c1.5,1.535,3.664,1.1,4.749-.958a6.358,6.358,0,0,1,3.815-3.384,6.69,6.69,0,0,1,2.651-.334,7.56,7.56,0,0,1,1.9.133c.855.188.977.152,1.48-.431.006-.006.024-.667.042-1.462l.036-1.45.255-.073a2.324,2.324,0,0,0,1.438-1.3l.188-.4.018-1.316a12.549,12.549,0,0,0-.042-1.632,2.392,2.392,0,0,0-1.565-1.8l-.321-.1v-1.092c0-.977-.012-1.116-.121-1.347a1.154,1.154,0,0,0-.267-.352,8.742,8.742,0,0,0-3.269-.455l-.958.012-.358-.37a10.962,10.962,0,0,0-2.82-2.086c-.267-.133-.491-.255-.5-.261a1.9,1.9,0,0,1,.285-.4,6.432,6.432,0,0,0,.989-1.965,4.284,4.284,0,0,0,.133-1.486,4.138,4.138,0,0,0-.17-1.547,5.964,5.964,0,0,0-2.711-3.53A5.94,5.94,0,0,0,30-511.821ZM31.846-510a4.817,4.817,0,0,1,.94.34,4.2,4.2,0,0,1,2.038,2.408l.042.194h-.3c-.485,0-1.874-.115-2.626-.218a10.822,10.822,0,0,1-2.366-.594,1.745,1.745,0,0,0-.455-.158,7.09,7.09,0,0,0-.94.273,4.95,4.95,0,0,1-.837.243,3.355,3.355,0,0,1,.643-1.128,3.774,3.774,0,0,1,1.316-1.031A3.857,3.857,0,0,1,31.846-510Zm-2.45,4.027a17.948,17.948,0,0,0,4.258.685l1.207.073-.036.188a5.081,5.081,0,0,1-.285.7,4.021,4.021,0,0,1-1.692,1.717,4.206,4.206,0,0,1-3.639-.006,4.636,4.636,0,0,1-1.6-1.5,4.366,4.366,0,0,1-.449-1.292c.012-.061.3-.188.867-.382a9.875,9.875,0,0,1,.946-.291A1.563,1.563,0,0,1,29.4-505.974Zm-.558,5.192a5.416,5.416,0,0,0,2.19.406,5.24,5.24,0,0,0,2.117-.376l.473-.182.449.158a8.928,8.928,0,0,1,1.723.855,7.309,7.309,0,0,1,1.08.837,2.271,2.271,0,0,1-.5.243A8.369,8.369,0,0,0,32.24-495a2.162,2.162,0,0,1-.782.977c-.619.315-1.152,0-1.644-.977a8.331,8.331,0,0,0-4.143-3.852,2.642,2.642,0,0,1-.5-.23,9.718,9.718,0,0,1,1.923-1.316,10.536,10.536,0,0,1,1.328-.54A3.812,3.812,0,0,1,28.837-500.782Zm-5.774,3.124a6.446,6.446,0,0,1,4.743,2.857l.37.564V-486l-.315-.291a8.391,8.391,0,0,0-2.8-1.571,8.807,8.807,0,0,0-3.33-.425h-1.5v-1.638l.279-.152a3.381,3.381,0,0,0,1.292-4.44,3.681,3.681,0,0,0-1.219-1.3l-.352-.218v-1.553l.291-.036c.158-.018.328-.049.376-.055A15.462,15.462,0,0,1,23.063-497.658Zm18.6.036.164.036v1.547l-.352.218a3.681,3.681,0,0,0-1.219,1.3,3.381,3.381,0,0,0,1.292,4.44l.279.152v1.638H40.264a8.625,8.625,0,0,0-2.2.139,8.414,8.414,0,0,0-3.864,1.862l-.321.285v-8.237l.37-.564a6.414,6.414,0,0,1,4.513-2.826A15.906,15.906,0,0,1,41.659-497.622ZM19.3-494.413a1.432,1.432,0,0,1,1.037,1.31,1.447,1.447,0,0,1-1.4,1.632c-.588-.006-.643-.127-.643-1.528,0-.922.018-1.134.1-1.249C18.568-494.51,18.823-494.553,19.3-494.413Zm24.328.121c.133.152.14.206.14,1.28,0,1.413-.049,1.535-.643,1.541a1.5,1.5,0,0,1-1.086-.522,1.586,1.586,0,0,1,.194-2.141C42.7-494.522,43.364-494.6,43.625-494.292Zm-13.3,2.123a3,3,0,0,0,.7.091,3,3,0,0,0,.7-.091c.164-.049.3-.091.315-.091s.012,1.989.012,4.416v4.416l-.182.249a1.29,1.29,0,0,1-.892.5,1.371,1.371,0,0,1-.837-.546L30-483.429v-4.416c0-2.426.006-4.416.018-4.416S30.159-492.218,30.323-492.169Z" fill="#ffbc05"/></g></svg>