<svg xmlns="http://www.w3.org/2000/svg" width="22.661" height="21.661" viewBox="0 0 22.661 21.661"><g transform="translate(-0.5 -11.78)"><path d="M5.644,33.441V18.826H.787V33.441H5.644ZM3.216,16.831a2.533,2.533,0,1,0,.032-5.051,2.532,2.532,0,1,0-.064,5.051h.032Zm5.116,16.61s.064-13.244,0-14.615h4.858v2.12h-.032a4.839,4.839,0,0,1,4.41-2.463c3.2,0,5.593,2.089,5.593,6.578v8.38H18.3V25.622c0-1.965-.7-3.305-2.461-3.305a2.659,2.659,0,0,0-2.492,1.777,3.316,3.316,0,0,0-.16,1.185v8.162Z" fill="#fff" fill-rule="evenodd"/></g></svg>