<svg xmlns="http://www.w3.org/2000/svg" width="144.242" height="38.765" viewBox="0 0 144.242 38.765"><path d="M102.085,24.817H98.458L109.1,3.664h4.18l10.644,21.153h-3.664l-2.8-5.553H104.885Zm14.057-8.178-4.969-9.87-4.969,9.87ZM85.485,3.124,87.96.23h5.507l-8,2.893ZM78.393,24.862H97.109v-2.4H81.623v-7.3H93.116V12.677H81.623V6.044H97.012V3.7H78.393V24.851ZM52.97,3.675H66.754A6.449,6.449,0,0,1,73.443,9.81h0a6.318,6.318,0,0,1-5.309,6l6.472,9.005h-3.8l-6.378-8.873h-8.55v8.873H52.966V3.664ZM66.923,6.191l.191.026.191.038.183.045.183.057.176.068.172.072.165.083.161.091.157.1.15.1.146.113.138.117.131.125.123.128.116.132.112.14.1.14.093.144.086.147.082.151.071.155.064.151.056.155.049.159.045.159.034.162.026.159.019.166v.672l-.019.166-.026.159-.034.162-.045.159-.049.155-.056.155-.064.155-.071.155-.082.147-.086.147-.093.147-.1.14-.112.14-.116.132-.123.128-.131.125-.138.117-.146.113-.15.1-.157.1-.161.091-.165.083-.172.072-.176.068-.183.053-.183.049-.191.038-.191.026H56.032V6.168H66.908ZM35.061,2.436a10.811,10.811,0,1,0,10.7,10.812,10.756,10.756,0,0,0-10.7-10.812Zm0-2.436C27.21,0,20.813,5.93,20.813,13.247S27.2,26.49,35.061,26.49,49.31,20.56,49.31,13.247,42.931,0,35.061,0ZM0,24.862V3.709H2.673V22.543H18.5v2.319Zm125.474,0h18.768v-2.41h-15.83V3.7h-2.939V24.851ZM58.092,38.608H56.5l4.681-8.227h1.836l4.677,8.227H66.078l-1.23-2.164H59.322Zm6.176-3.184-2.183-3.838L59.9,35.423Zm6.449-5.043h5.795a2.63,2.63,0,0,1,2.808,2.387h0A2.536,2.536,0,0,1,77.077,35.1L79.8,38.608H78.2l-2.681-3.452H72.235v3.452H70.7V30.381Zm5.859.966h.314l.075.026.071.03.071.03.067.034.067.042.064.038.06.045.056.045.056.049.052.049.049.053.049.053.041.057.041.053.037.06.034.057.03.06.026.06.022.06.022.06.019.06v.642l-.019.06-.022.06-.022.06-.026.06-.03.06-.034.057-.037.06-.041.053-.041.057-.049.053-.049.053-.052.049-.056.049-.056.045-.06.045-.064.038-.067.038-.067.038-.071.03-.071.03-.075.023-.075.023h-4.5V31.351Zm-29.3-.978h5.814A2.63,2.63,0,0,1,55.9,32.76h0a2.313,2.313,0,0,1-1.264,1.991,3.337,3.337,0,0,1-1.615.4h-4.21V38.6H47.276V30.381Zm5.859.978h.314l.075.026.071.03.071.03.067.034.067.042.064.038.06.045.056.045.056.049.052.049.049.053.049.053.041.057.041.053.037.06.034.057.03.06.026.06.022.06.022.06v.763l-.022.06-.022.06-.026.06-.03.06-.034.057-.037.06-.041.053-.041.057-.049.053-.049.053-.052.049-.056.049-.056.045-.06.045-.064.038-.067.038-.067.038-.071.03-.071.03-.075.023-.075.023h-4.5V31.351ZM88.57,35.963l1.406-.091a1.9,1.9,0,0,0,.467,1.016,2.562,2.562,0,0,0,1.122.638,6.319,6.319,0,0,0,3.234.06,2.165,2.165,0,0,0,.972-.51.986.986,0,0,0,.322-.7.884.884,0,0,0-.31-.676,2.423,2.423,0,0,0-1.013-.483c-.3-.087-.968-.223-2.008-.4a12.907,12.907,0,0,1-2.172-.514,2.953,2.953,0,0,1-1.208-.755,1.52,1.52,0,0,1-.374-1.024,1.732,1.732,0,0,1,.475-1.167,3.036,3.036,0,0,1,1.417-.823,7.209,7.209,0,0,1,2.067-.28,7.517,7.517,0,0,1,2.21.295,3.219,3.219,0,0,1,1.473.865,2.084,2.084,0,0,1,.557,1.292l-1.428.079a1.579,1.579,0,0,0-.785-1.179,3.84,3.84,0,0,0-1.963-.4,4.076,4.076,0,0,0-1.97.378,1.038,1.038,0,0,0-.621.873.847.847,0,0,0,.437.729,7.63,7.63,0,0,0,2.243.585,19.693,19.693,0,0,1,2.494.525,3.491,3.491,0,0,1,1.458.839,1.671,1.671,0,0,1,.467,1.171,1.845,1.845,0,0,1-.516,1.239,3.377,3.377,0,0,1-1.477.9,6.825,6.825,0,0,1-2.172.321,8.579,8.579,0,0,1-2.565-.325,3.571,3.571,0,0,1-1.623-.978,2.278,2.278,0,0,1-.617-1.481Zm-5.032,2.644V32.794h1.5v5.813Zm0-6.686V30.381h1.5v1.541ZM13.052,11.113h2.464l3.7-7.26H16.076Z" fill="#231f20" fill-rule="evenodd"/></svg>