<svg xmlns="http://www.w3.org/2000/svg" width="152.071" height="33.456" viewBox="0 0 152.071 33.456"><g transform="translate(0 0)"><path d="M151.573,40.057c2,.718,6.614-2.542,7.52-3.195l.135-.1.512-2.071-.847.341c-.783.318-1.836.494-2.054.259-.094-.1-.124-.512.371-1.436l8.238-14.333.259-.382c.241-.324.482-.653.259-1.006s-.688-.306-1.147-.235l-3.719.5-.118.188c-.065.1-6.62,10.562-10.591,13.663a6.326,6.326,0,0,1-2.118,1.306,6.831,6.831,0,0,1,1.289-2.695l4.79-7.649.588-1.006a8.355,8.355,0,0,0,1.047-3.43,1.612,1.612,0,0,0-.406-1.177c-.865-.83-2.507.118-3.048.435l-4.86,2.889.076,2.071.588-.088.788-.106a5.613,5.613,0,0,1-.788,1.571l-.253.43-.118.2c-2.942,5.125-6.3,11.468-6.3,13.892a1.765,1.765,0,0,0,.076.535,1.1,1.1,0,0,0,.553.588c2.248.894,6.837-3.136,9.35-5.584a12.7,12.7,0,0,0-.959,3.972,2.4,2.4,0,0,0,.153.918,1.347,1.347,0,0,0,.73.735" transform="translate(-63.901 -8.721)" fill="#00a94f"/><path d="M242.489,40.015c1.995.718,6.608-2.536,7.508-3.2l.135-.1.518-2.065L249.8,35c-.788.312-1.836.488-2.054.259-.094-.106-.124-.518.377-1.442l8.249-14.345.271-.382c.229-.318.483-.653.259-1.006s-.694-.306-1.177-.235l-3.719.5-.124.188c-.065.106-6.614,10.591-10.591,13.663a6.238,6.238,0,0,1-2.13,1.306,7.06,7.06,0,0,1,1.324-2.683l4.79-7.649.588-1a8.42,8.42,0,0,0,1.053-3.383,1.63,1.63,0,0,0-.412-1.177c-.859-.83-2.5.124-3.036.435l-4.866,2.895.059,2.1.588-.082.777-.112a5.424,5.424,0,0,1-.759,1.559l-.247.418-.118.206c-2.942,5.119-6.3,11.468-6.3,13.892a1.6,1.6,0,0,0,.076.535,1.089,1.089,0,0,0,.553.588c2.248.9,6.843-3.13,9.35-5.578a12.48,12.48,0,0,0-.977,3.966,2.354,2.354,0,0,0,.147.912,1.347,1.347,0,0,0,.735.706" transform="translate(-104.92 -8.725)" fill="#00a94f"/><path d="M203.392,10.056s7.526-3.777,3.9-6.814c-2.448-2.037-8.049,4.8-9.126,7.8-2.236,6.236-7.649,11.54-7.649,11.54s5.766,7.409,9.667,7a5.79,5.79,0,0,0,4.837-4.249h3.9s-4.548,7.145-12.192,8.088c-5.072.623-10.815-6.174-10.815-6.174a44.229,44.229,0,0,1-5.766,3.368,7.225,7.225,0,0,1-4.778.208,1.545,1.545,0,0,1-.966-1.016,2.718,2.718,0,0,1,.035-1.19c1.271-4.754,10.3-5.175,10.3-5.175S188.852,13,194.148,7.277c5.766-6.219,13.592-9.143,16.581-5.955s.724,6.96-1.842,8.734c-3.666,2.543-5.507,0-5.507,0" transform="translate(-80.939 -0.007)" fill="#00a94f"/><path d="M112.572,10.03s7.537-3.772,3.9-6.8c-2.442-2.049-8.049,4.793-9.126,7.791-2.23,6.236-7.649,11.54-7.649,11.54s5.772,7.409,9.673,7a5.8,5.8,0,0,0,4.837-4.243h3.9s-4.548,7.139-12.192,8.082c-5.066.629-10.821-6.174-10.821-6.174a43.591,43.591,0,0,1-5.772,3.368,6.952,6.952,0,0,1-4.766.2,1.511,1.511,0,0,1-.966-1.01,2.718,2.718,0,0,1,.041-1.19c1.283-4.748,10.309-5.169,10.309-5.169s4.119-10.445,9.414-16.165c5.76-6.219,13.592-9.143,16.581-5.955s.712,6.96-1.848,8.728c-3.666,2.548-5.513,0-5.513,0" transform="translate(-38.04 0.001)" fill="#00a94f"/><path d="M1,3.469A36.067,36.067,0,0,0,8.961,1.7C15.351-.336,30.261-2.66,34.9,9.322,37.9,17.05,31.82,24.9,31.65,27.624a14.952,14.952,0,0,0,.212,4.557L27.219,33.41A13.568,13.568,0,0,1,26.8,27c.865-4.344,5.06-10.192,4.625-14.143S29.4,2.52,20.717.477c-4.372-1.016-9.126,3.53-12.609,4.6S2.177,7,2.177,7Z" transform="translate(-0.412 -0.02)" fill="#ee3124"/><path d="M8.928,1.644A36.744,36.744,0,0,1,.967,3.406H.92L2.1,7.037l5.99-1.92a21.56,21.56,0,0,0,3.889-1.942C14.7,1.6,17.789-.192,20.667.493c6.472,1.515,9.95,5.557,10.679,12.348.247,2.3-1.106,5.3-2.412,8.206a30.445,30.445,0,0,0-2.218,5.933,13.689,13.689,0,0,0,.43,6.427v.034l4.707-1.246v-.034a13,13,0,0,1-.229-4.524,14.376,14.376,0,0,1,1.347-3.929c1.595-3.6,4.013-9.037,1.912-14.442C29.563-4.525,11.029.964,8.928,1.644m.029.079c2.089-.668,20.547-6.14,25.889,7.594a12.3,12.3,0,0,1,.806,4.44c0,3.8-1.583,7.353-2.73,9.94a22.787,22.787,0,0,0-1.483,4.255,14.681,14.681,0,0,0,.353,4.176l-4.578,1.212a14.132,14.132,0,0,1-.588-4.109,11.436,11.436,0,0,1,.212-2.245,29.5,29.5,0,0,1,2.212-5.91C30.228,18.4,31.5,15.642,31.5,13.4a4.564,4.564,0,0,0-.035-.561C30.7,6,27.186,1.935,20.69.409,17.748-.276,14.671,1.531,11.929,3.1A21.134,21.134,0,0,1,8.057,5.051L2.144,6.925c0-.079-1.089-3.34-1.13-3.435A36.864,36.864,0,0,0,8.958,1.722" transform="translate(-0.379 0.002)" fill="#ee3124"/><path d="M4,8.835s6.649-2.849,11.715-5.558C21.6.143,38-3.377,42.646,8.578c2.995,7.7-1.365,14.961-2.165,18.045-.683,2.636.071,3.918.071,3.918l-4.642,1.22s-.73-1.259-.065-4.584c.865-4.338,3.76-7.327,3.76-14.39C39.6,8.83,36.515,2.041,27.73.44c-5.207-.968-9.373,2.507-12.162,4.707A93.934,93.934,0,0,1,4.712,12.1Z" transform="translate(-1.646 -0.101)" fill="#ee3124"/><path d="M26.817.209A10.465,10.465,0,0,0,22.163.9,27.059,27.059,0,0,0,15.69,3.187C10.659,5.868,4.016,8.718,3.975,8.746H3.94L4.681,12.1l.053-.028A95.632,95.632,0,0,0,15.6,5.141l.224-.174a23.168,23.168,0,0,1,6.4-3.98,29.394,29.394,0,0,1,4.6-.694A8.478,8.478,0,0,1,27.7.416c8.685,1.579,11.833,8.223,11.833,12.315a23.363,23.363,0,0,1-2.254,9.953,22.807,22.807,0,0,0-1.5,4.428,13.011,13.011,0,0,0-.288,2.553,4.321,4.321,0,0,0,.359,2.066h0l4.707-1.248v-.045s-.688-1.271-.047-3.857a23.73,23.73,0,0,1,.847-2.39c1.471-3.8,3.7-9.516,1.306-15.674a12.157,12.157,0,0,0-7.714-7.395A20.756,20.756,0,0,0,26.817.209m-.641.056a28.633,28.633,0,0,0-3.342.487A10.282,10.282,0,0,1,26.176.265M15.743,3.26a26.1,26.1,0,0,1,5.813-2.122,25.4,25.4,0,0,0-5.813,3.773l-.229.185A94.894,94.894,0,0,1,4.728,11.981c-.035-.112-.688-3.1-.706-3.168.371-.162,6.8-2.933,11.721-5.553M34.919,1.177a12.065,12.065,0,0,1,7.649,7.339,15.278,15.278,0,0,1,1.047,5.637,27.475,27.475,0,0,1-2.354,9.981,21.2,21.2,0,0,0-.847,2.407,8.221,8.221,0,0,0-.288,2.088,3.916,3.916,0,0,0,.33,1.819l-4.548,1.2a4.714,4.714,0,0,1-.33-2.015,13.3,13.3,0,0,1,.277-2.513A23.5,23.5,0,0,1,37.349,22.7a23.622,23.622,0,0,0,2.265-9.981c0-4.109-3.171-10.8-11.909-12.394a3.406,3.406,0,0,1-.4-.05,20.347,20.347,0,0,1,7.614.9" transform="translate(-1.622 -0.053)" fill="#ee3124"/><path d="M22.059,33.23H14.41a4.74,4.74,0,0,0,.076.647h8.138a3.283,3.283,0,0,1-.588-.647" transform="translate(-5.931 -14.594)" fill="#00a94f"/><path d="M36.674,33.877h5.972c0-.212.059-.43.076-.647H37.238a3.484,3.484,0,0,1-.588.647" transform="translate(-15.085 -14.594)" fill="#00a94f"/><path d="M16.592,40.133H32.838c.141-.212.271-.424.394-.653H16.21c.118.229.247.441.382.653" transform="translate(-6.672 -17.339)" fill="#00a94f"/><path d="M18.091,42.217H32.454c.182-.206.365-.424.53-.647H17.55a8.086,8.086,0,0,0,.541.647" transform="translate(-7.224 -18.257)" fill="#00a94f"/><path d="M25.173,35.741A3.654,3.654,0,0,1,23.6,35.37H14.67c.047.218.106.43.165.647h18.5c.059-.218.124-.43.165-.647H26.762a3.648,3.648,0,0,1-1.589.371" transform="translate(-6.038 -15.534)" fill="#00a94f"/><path d="M15.539,38.047H33.126a6.8,6.8,0,0,0,.265-.647H15.28c.082.218.165.435.259.647" transform="translate(-6.289 -16.425)" fill="#00a94f"/><path d="M20.207,44.3H31.88a9.5,9.5,0,0,0,.777-.653H19.43a9.3,9.3,0,0,0,.777.653" transform="translate(-7.997 -19.171)" fill="#00a94f"/><path d="M29.512,47.966a10.3,10.3,0,0,0,1.659-.141h-3.3a10.079,10.079,0,0,0,1.642.141" transform="translate(-11.471 -21.301)" fill="#00a94f"/><path d="M23.487,46.393h7.426a9.647,9.647,0,0,0,1.277-.653H22.21a10.434,10.434,0,0,0,1.277.653" transform="translate(-9.142 -20.089)" fill="#00a94f"/><path d="M20,19.281H32.551a10.091,10.091,0,0,0-.853-.641H20.853a8.416,8.416,0,0,0-.847.641" transform="translate(-8.232 -8.186)" fill="#00a94f"/><path d="M18,21.367H32.939a8.714,8.714,0,0,0-.588-.647H18.588a7.585,7.585,0,0,0-.588.647" transform="translate(-7.409 -9.099)" fill="#00a94f"/><path d="M38.18,31.8h5.19V31.18H38.392a3.79,3.79,0,0,1-.212.647" transform="translate(-15.715 -13.693)" fill="#00a94f"/><path d="M21.507,31.14H14.34v.647h7.373a2.942,2.942,0,0,1-.206-.647" transform="translate(-5.902 -13.676)" fill="#00a94f"/><path d="M16.766,23.453h8.961a2.66,2.66,0,0,1,.312-.035,3.023,3.023,0,0,1,.324.035h6.914a7.527,7.527,0,0,0-.406-.653H17.19c-.059.171-.377.535-.43.653" transform="translate(-6.898 -10.013)" fill="#00a94f"/><path d="M23.13,17.2H32a9.367,9.367,0,0,0-1.589-.647H24.725a9.632,9.632,0,0,0-1.595.647" transform="translate(-9.52 -7.268)" fill="#00a94f"/><path d="M21.449,29.56a4.644,4.644,0,0,1,.053-.5h-7c-.041.218-.071.43-.106.647h7.061V29.56" transform="translate(-5.927 -12.762)" fill="#00a94f"/><path d="M38.637,29.56v.147h4.878a3.52,3.52,0,0,0-.1-.647H38.59a3.53,3.53,0,0,1,.047.5" transform="translate(-15.884 -12.762)" fill="#00a94f"/><path d="M22.09,27H14.982a5.737,5.737,0,0,0-.182.641h7.008A3.272,3.272,0,0,1,22.09,27" transform="translate(-6.092 -11.857)" fill="#00a94f"/><path d="M38.162,27.621h4.813c-.053-.218-.112-.435-.182-.641H37.88a3.66,3.66,0,0,1,.282.641" transform="translate(-15.592 -11.849)" fill="#00a94f"/><path d="M36.694,25.547h5.113c-.088-.218-.194-.435-.3-.647H36a3.4,3.4,0,0,1,.694.647" transform="translate(-14.818 -10.935)" fill="#00a94f"/><path d="M23.607,24.89h-7.49c-.112.212-.259.43-.347.647H22.9a3.713,3.713,0,0,1,.712-.647" transform="translate(-6.491 -10.931)" fill="#00a94f"/><path d="M18.528,15.748s4.707-2.536,2.454-4.578c-1.542-1.365-5.066,3.224-5.743,5.237a24.083,24.083,0,0,1-4.825,7.743s3.636,4.984,6.084,4.707a3.752,3.752,0,0,0,3.024-2.848h2.471s-2.86,4.8-7.649,5.425c-3.195.418-6.8-4.119-6.8-4.119a31.6,31.6,0,0,1-3.636,2.142C2.583,30,.4,29.958.276,29.01-.159,25.3,6.79,24.739,6.79,24.739s2.595-7.008,5.931-10.85c3.63-4.184,8.567-6.143,10.432-4s.441,4.672-1.177,5.884c-2.307,1.706-3.466,0-3.466,0" transform="translate(-0.106 -4.387)" fill="#ee3124"/><path d="M20.847,8.75c-2.436,0-5.79,1.983-8.349,4.925-3.113,3.583-5.607,10-5.931,10.809-.653.065-4.4.506-5.919,2.354A2.618,2.618,0,0,0,0,28.561q0,.177,0,.353a.888.888,0,0,0,.477.653,4.465,4.465,0,0,0,3.354-.094A31.326,31.326,0,0,0,7.361,27.4c.588.7,3.848,4.478,6.849,4.083,4.86-.635,7.784-5.454,7.814-5.519l.129-.229H19.311v.118a3.663,3.663,0,0,1-2.942,2.736c-2.154.235-5.354-3.878-5.884-4.548a24.2,24.2,0,0,0,4.766-7.708c.518-1.53,2.942-4.9,4.607-5.331a.894.894,0,0,1,.888.165,1.406,1.406,0,0,1,.588,1.265c-.188,1.542-2.942,3.042-2.983,3.06l-.147.076.094.141a2.077,2.077,0,0,0,1.306.841,3.166,3.166,0,0,0,2.354-.765,5.184,5.184,0,0,0,2.095-3.366A3.448,3.448,0,0,0,23.148,9.7a2.942,2.942,0,0,0-2.354-.93M.63,29.314A.688.688,0,0,1,.3,28.9a2.218,2.218,0,0,1,.588-1.871C2.448,25.16,6.655,24.8,6.708,24.8H6.8l.035-.088c.029-.071,2.624-7.031,5.884-10.809,2.512-2.877,5.766-4.807,8.12-4.813a2.642,2.642,0,0,1,2.112.794,3.13,3.13,0,0,1,.836,2.483,4.866,4.866,0,0,1-2.012,3.154,2.86,2.86,0,0,1-2.124.706,1.842,1.842,0,0,1-1.012-.541c.63-.365,2.8-1.718,2.983-3.2a1.078,1.078,0,0,0,0-.194,1.765,1.765,0,0,0-.677-1.33,1.177,1.177,0,0,0-1.177-.241c-1.842.477-4.3,3.972-4.819,5.537a23.941,23.941,0,0,1-4.79,7.69l-.088.088.071.106c.153.206,3.713,5.048,6.231,4.76a3.914,3.914,0,0,0,3.142-2.848h2.054c-.635.959-3.33,4.589-7.408,5.125C11.091,31.58,7.531,27.143,7.5,27.1l-.088-.112-.124.076a30.5,30.5,0,0,1-3.6,2.13,3.769,3.769,0,0,1-3.095.124" transform="translate(0 -3.6)" fill="#fff"/><path d="M28.084,27.221a2.842,2.842,0,0,1,4.066-1.806.188.188,0,1,1-.171.329,2.5,2.5,0,0,0-1.177-.277,2.448,2.448,0,0,0-2.354,1.848.194.194,0,0,1-.371-.094M28,28.162a2.943,2.943,0,0,1,0-.394.19.19,0,1,1,.377.053,2.221,2.221,0,0,0,0,.341.188.188,0,1,1-.377,0" transform="translate(-11.52 -11.076)" fill="#ee3124"/><path d="M34.7,30.549a2.854,2.854,0,0,1-2.665,1.824,2.689,2.689,0,0,1-.759-.1.188.188,0,1,1,.106-.359A2.354,2.354,0,0,0,32.03,32a2.465,2.465,0,0,0,2.307-1.577.191.191,0,1,1,.359.129m.177-.966a2.711,2.711,0,0,1-.059.535.189.189,0,1,1-.371-.071,3.035,3.035,0,0,0,.047-.465.194.194,0,0,1,.382,0" transform="translate(-12.807 -12.978)" fill="#ee3124"/></g></svg>