<svg xmlns="http://www.w3.org/2000/svg" width="153.859" height="31.831" viewBox="0 0 153.859 31.831"><path d="M270.869-165.624a12.5,12.5,0,0,0-9.629,6.7,13.431,13.431,0,0,0,.16,11.936,13.083,13.083,0,0,0,8.064,6.038,16.848,16.848,0,0,0,6.72.02,15.2,15.2,0,0,0,5.677-2.989L283-145v-9.508H272.172v4.213h6.219v3.711l-.883.542a8.4,8.4,0,0,1-6.4,1.083,8.4,8.4,0,0,1-3.751-14.423,6.7,6.7,0,0,1,5.316-2.026,7.5,7.5,0,0,1,5.015,1.6,4.625,4.625,0,0,0,1.063.662,14.849,14.849,0,0,0,1.545-1.525l1.4-1.5-.842-.742a12.762,12.762,0,0,0-4.574-2.327A20.227,20.227,0,0,0,270.869-165.624Z" transform="translate(-207.981 165.68)"/><path d="M1.04-151.824l.06,12.2H5.714l.1-6.66.1-6.66.822,1.344c.461.742,1.745,2.848,2.889,4.694l2.046,3.37h3.19l.9-1.464c.5-.782,1.745-2.828,2.768-4.513,1.043-1.705,1.986-3.19,2.106-3.31.16-.16.221,1.585.221,6.539v6.76h4.614V-164h-3.33l-4.393,7.222c-2.407,3.972-4.433,7.222-4.493,7.222-.06-.02-1.324-2.026-2.808-4.473-1.464-2.447-3.45-5.7-4.373-7.222L4.37-164H1Z" transform="translate(-1 164.337)"/><path d="M146.646-163.559c-2.006,5.4-8.646,23.651-8.646,23.811,0,.14.742.221,2.367.221h2.387l1.2-3.25,1.184-3.27,4.834-.06,4.834-.04.843,2.347c.481,1.3,1.023,2.768,1.2,3.27l.361.9,2.247.06a11.486,11.486,0,0,0,2.427-.1,8.078,8.078,0,0,0-.622-2.267c-.421-1.163-2.046-5.577-3.611-9.829s-3.21-8.746-3.671-9.99L153.145-164h-3.169C146.886-164,146.806-164,146.646-163.559Zm5.055,8.886c.863,2.227,1.545,4.092,1.545,4.172a36.812,36.812,0,0,1-6.479-.02,62.532,62.532,0,0,1,3.27-8.325C150.116-158.764,150.858-156.879,151.7-154.672Z" transform="translate(-110.518 164.337)"/><path d="M395.04-151.9l.06,12.2,2.367.06,2.347.06v-9.448h.863c.963,0,.341-.7,5.837,6.76l1.966,2.668h2.688a17.349,17.349,0,0,0,2.688-.1c0-.1-1.023-1.484-5.456-7.482-1.364-1.805-1.5-2.247-.782-2.247a8.273,8.273,0,0,0,3.631-2.126,9.332,9.332,0,0,0,1.364-2.046,5.611,5.611,0,0,0,.542-3.049,5.361,5.361,0,0,0-.582-3.109A8.1,8.1,0,0,0,408.7-163.5c-1.123-.461-1.424-.481-7.442-.542L395-164.1Zm11.595-7.522a3.088,3.088,0,0,1,.441,5.336c-.7.522-.782.542-4.092.6l-3.37.08v-6.459h3.069C405.471-159.867,405.832-159.827,406.635-159.426Z" transform="translate(-315.964 164.417)"/><path d="M511.646-163.559c-3.129,8.485-8.646,23.651-8.646,23.811,0,.14.782.221,2.387.221h2.367l1.2-3.27,1.2-3.25,4.814-.06,4.814-.04,1.2,3.25,1.2,3.27,2.427.06a11.556,11.556,0,0,0,2.447-.08c0-.06-1.424-4.012-3.189-8.766-1.745-4.774-3.751-10.23-4.433-12.136L518.185-164H515C511.886-164,511.806-164,511.646-163.559Zm4.975,8.766c.782,2.126,1.424,4.012,1.424,4.152,0,.221-.6.281-3.109.281a21.324,21.324,0,0,1-3.109-.12,85.128,85.128,0,0,1,3.23-8.365C515.136-158.764,515.838-156.939,516.621-154.793Z" transform="translate(-402.3 164.337)"/><path d="M638-151.764v12.236h5.276c5.436,0,6.921-.14,8.485-.8A8.3,8.3,0,0,0,655.372-144a5.577,5.577,0,0,0,.582-3.149,5.291,5.291,0,0,0-.6-3.069,8.032,8.032,0,0,0-1.665-2.166l-1.063-.983.662-1.344a4.632,4.632,0,0,0,.622-2.748,6.247,6.247,0,0,0-2.648-5.216c-1.6-1.184-2.467-1.324-8.184-1.324H638Zm10.451-7.3a2.556,2.556,0,0,1-.481,3.992c-.542.341-1.023.4-2.949.4h-2.307l-.06-2.568-.06-2.588,2.628.08,2.608.06Zm1.1,9.127a3.067,3.067,0,0,1,1.665,3.691,3.3,3.3,0,0,1-2.327,2.287,20.817,20.817,0,0,1-3.51.221h-2.768v-6.62h3.049C648.331-150.359,648.812-150.3,649.554-149.938Z" transform="translate(-510.219 164.337)"/><path d="M743.96-161.954l.06,2.066,2.367.06,2.347.06V-164H743.9Z" transform="translate(-594.876 164.337)"/><path d="M744.23-126.739c-.06.12-.08,3.952-.06,8.465l.06,8.225,2.367.06,2.347.06V-127h-2.307C744.972-127,744.29-126.94,744.23-126.739Z" transform="translate(-595.086 134.759)"/><path d="M1-22.295v1.705H25.473V-24H1Z" transform="translate(-1 52.421)"/></svg>