<svg xmlns="http://www.w3.org/2000/svg" width="45.478" height="48.239" viewBox="0 0 45.478 48.239"><g transform="translate(0)"><g transform="translate(0 0)"><path d="M197.078,249.8h-5.236c-6.6,0-7.277,9.7-6.666,10.324,1.647,1.538,5.226,2.613,9.338,2.613s7.494-1.026,9.032-2.465C204.168,259.749,203.665,249.8,197.078,249.8Zm5.029,9.032c-1.233,1.134-4.211,1.844-7.593,1.844s-6.36-.72-7.593-1.844c-.1-.306.473-7.08,5.029-7.08h5.236C201.693,251.743,202.216,258.517,202.107,258.832Z" transform="translate(-169.261 -226.282)" fill="#ffbc05"/><path d="M229.842,142.183a5.454,5.454,0,0,0,5.542-5.542,5.542,5.542,0,1,0-5.542,5.542Zm0-9.032a3.483,3.483,0,0,1,3.589,3.491,3.6,3.6,0,1,1-3.589-3.491Z" transform="translate(-204.687 -119.287)" fill="#ffbc05"/><path d="M66.46,11.3H33.92A4.385,4.385,0,0,0,29.5,15.718V24.75H25.4V26.8h4.1v7.593H25.4v2.051h4.1v7.593H25.4v2.051h4.1v9.032a4.385,4.385,0,0,0,4.418,4.418H66.361a4.534,4.534,0,0,0,4.516-4.418v-39.4A4.385,4.385,0,0,0,66.46,11.3Zm2.367,43.841A2.382,2.382,0,0,1,66.47,57.5H33.929a2.382,2.382,0,0,1-2.357-2.357V46.108h3.9V44.057H31.563V36.465h3.9V34.413h-3.9V26.821h3.9V24.77h-3.9V15.718a2.382,2.382,0,0,1,2.357-2.357H66.46a2.382,2.382,0,0,1,2.357,2.357V55.141Z" transform="translate(-25.4 -11.3)" fill="#ffbc05"/></g></g></svg>