<svg xmlns="http://www.w3.org/2000/svg" width="165.883" height="44.925" viewBox="0 0 165.883 44.925"><g transform="translate(28.057 0)"><path d="M-20.393-13.062A35.838,35.838,0,0,0-29.1-22.2c-1.112-1.069-1.96-2.28-2.5-2.863-1.2-1.311-2.753-2.929-5.308-2.929a4.925,4.925,0,0,0-4.625,3c-.154.4-.275.88-.385,1.056-.242.4-1.332,2.258-1.784,3h2.038l-.991,1.872a13.337,13.337,0,0,1,3.083-.441c.98,0,1.684.232,1.993.848.573,1.146.573,4.614,1.542,7.225a16.069,16.069,0,0,0,5.583,6.694.19.19,0,0,0,.11.033.187.187,0,0,0,.2-.176.212.212,0,0,0-.077-.165,19.146,19.146,0,0,1-4.657-6.87c-.893-2.445-.749-5.881-1.531-7.412a2.741,2.741,0,0,0-2.632-1.276,9.189,9.189,0,0,0-1.927.241l.892-1.508H-41.59c.32-.561.649-1.079.815-1.387.142-.265.2-.594.375-1.045a3.621,3.621,0,0,1,3.49-2.357c2.07,0,3.281,1.332,4.481,2.665a31.883,31.883,0,0,0,2.5,2.863,37.522,37.522,0,0,1,4.184,3.569,38.04,38.04,0,0,1,4.107,5.065,93.582,93.582,0,0,1,10.758,20l-.033.022C-16.495,3.718-21.329.14-25.226-4.275a44.591,44.591,0,0,1-7.257-11.408c-.144-.308-.264-.594-.4-.892-.055-.121-.11-.155-.2-.155a.18.18,0,0,0-.187.187,6.1,6.1,0,0,0,.176.914c1.112,4.8,4.2,9.106,7.488,12.685A70.354,70.354,0,0,0-15.559,5.9l2.379,6.8a1.712,1.712,0,0,1,.121.507.36.36,0,0,1-.11.286.446.446,0,0,1-.352.1h-.715a.767.767,0,0,1-.541-.132.837.837,0,0,1-.242-.375c-.209-.639-1.465-4.218-1.706-4.945-.045-.131-.122-.176-.21-.176a.186.186,0,0,0-.187.187,4.538,4.538,0,0,0,.089.5c.319,1.629.693,3.457.847,4.152a4.8,4.8,0,0,1,.144.837.573.573,0,0,1-.209.473l-.738.749c-.176.176-.276.22-.418.22-.176,0-.32-.121-.386-.43-.837-3.909-2.1-8.753-2.434-10.1-.077-.3-.132-.462-.308-.462-.154,0-.209.11-.209.242a2.626,2.626,0,0,0,.033.308c.2,1.387,1,6.442,1.872,11.055.155.793.452,1.232,1.135,1.232a1.253,1.253,0,0,0,.88-.385c.452-.452.583-.573,1.124-1.1a1.555,1.555,0,0,1,1.31-.528h1.629a1.014,1.014,0,0,0,.782-.276.941.941,0,0,0,.286-.727,2.733,2.733,0,0,0-.209-.958c-.418-1.123-1.762-4.922-2.159-5.99l.034-.022c1.376,1.046,3.38,2.379,4.262,2.379.275,0,.441-.121.441-.551,0-2.025-3.37-10.361-11.067-21.835" transform="translate(43.704 27.993)" fill="#333"/></g><path d="M-11.868-1.869a1.465,1.465,0,0,1,1.344-.859A1.467,1.467,0,0,1-9.039-1.241,1.454,1.454,0,0,1-9.633-.052,3.049,3.049,0,0,1-9.5.729a1.98,1.98,0,0,1-1.563,1.917,2.836,2.836,0,0,1-.772,1.442c-.661.638-1.332.638-1.332.9,0,.144.1.231.375.231a2.412,2.412,0,0,0,2.566-1.817A2.824,2.824,0,0,0-8.356.9,1.4,1.4,0,0,0-8.477.246a2.213,2.213,0,0,0,.694-1.619,2.645,2.645,0,0,0-.827-1.883,2.652,2.652,0,0,0-1.872-.749A2.648,2.648,0,0,0-12.7-2.827,3.175,3.175,0,0,0-15.458.411h-.165A1.5,1.5,0,0,0-16.989-.724,3.391,3.391,0,0,0-20.215-3.3a4.469,4.469,0,0,0-.649.044,2.588,2.588,0,0,0-1.849-.749,2.712,2.712,0,0,0-2.721,2.72A2.5,2.5,0,0,0-24.19.884s-.011.121-.011.176A3.45,3.45,0,0,0-20.92,4.166a1.017,1.017,0,0,0,.815.8v.155h-.166c-2.7,0-3.842,1.3-3.842,2.169A2.275,2.275,0,0,0-25.435,9.34a2.715,2.715,0,0,0,2.787,2.808,2.47,2.47,0,0,0,1.442-.5,3.025,3.025,0,0,0,.99.154,2.555,2.555,0,0,0,2.2-1.134,1.917,1.917,0,0,0,.253.011,2.62,2.62,0,0,0,2.246-1.476,1.115,1.115,0,0,0,.154-.5c0-.12-.055-.22-.176-.22-.154,0-.176.144-.451.4a3.764,3.764,0,0,1-2.533.77,2.088,2.088,0,0,1-1.728,1.058,2.167,2.167,0,0,1-1.277-.4,1.458,1.458,0,0,1-1.1.5,1.422,1.422,0,0,1-1.486-1.487,1.487,1.487,0,0,1,.947-1.376c.1-1.09,1.266-1.828,2.72-1.828a5.057,5.057,0,0,1,.573.034,2.092,2.092,0,0,1,1.5-.827,1.281,1.281,0,0,0,.363-.076.248.248,0,0,0,.132-.232A.244.244,0,0,0-18,4.8a1.564,1.564,0,0,0-.363-.1A2.543,2.543,0,0,1-20.3,3.1,2.855,2.855,0,0,1-23.188.267v-.1a1.468,1.468,0,0,1-.924-1.377,1.47,1.47,0,0,1,1.475-1.486,1.5,1.5,0,0,1,1.2.606,2.779,2.779,0,0,1,.748-.089A2.779,2.779,0,0,1-17.88.124a2.28,2.28,0,0,1,2.059,2.049c.055.286.1.528.286.528s.242-.221.308-.518A2.306,2.306,0,0,1-14.478.818a2.618,2.618,0,0,1,2.61-2.687" transform="translate(25.435 4.005)" fill="#333"/><g transform="translate(10.978 4.207)"><path d="M-5.067-5.74c-.518.738-.892,1.1-2.07,2.489A21.558,21.558,0,0,0-10.86,3.377c.221-.022.541-.044.893-.044.176,0,.318,0,.551.01l.165-.352A24.951,24.951,0,0,1-6.036-2.536l.5-.583c1.475-1.728,2.389-2.753,2.962-5.109a4.046,4.046,0,0,1,.925-2.125,2.543,2.543,0,0,1,1.794-.693,3.677,3.677,0,0,1,1.553.385A2.607,2.607,0,0,0,3-10.387c.2,0,.341-.011.473-.022l-.77,1.035,1.046.738A3.786,3.786,0,0,0,1.517-6.4a.814.814,0,0,0-.065.276.161.161,0,0,0,.176.176c.142,0,.252-.11.44-.331.639-.77,1.146-1.3,3.5-2.037L3.907-9.572,5.162-11.41H3.984a4.025,4.025,0,0,1-1.894-.308A4.429,4.429,0,0,0-.024-12.3a3.673,3.673,0,0,0-2.543,1A5.516,5.516,0,0,0-3.944-8.415,8.062,8.062,0,0,1-5.067-5.74" transform="translate(10.86 12.302)" fill="#333"/></g><g transform="translate(17.155 11.023)"><path d="M-1.879-6.338A30.049,30.049,0,0,0-4.026-3.2c.21.1.9.474,1.146.606.759-1.145,1.817-2.554,2.51-3.622A4.2,4.2,0,0,0,.555-8.9c.011-.22.011-.43.033-.638a2.92,2.92,0,0,1,.87-1.982A2.6,2.6,0,0,1,3.3-12.239c.661,0,1.045.186,1.618.186a2.607,2.607,0,0,0,.969-.2l.21-.077-.507,1.212,1.189.483A6.6,6.6,0,0,0,4.353-5.71a9.415,9.415,0,0,0,.32,2.389.183.183,0,0,0,.187.155.188.188,0,0,0,.2-.187l.011-.253a13.2,13.2,0,0,1,.385-2.951,7.6,7.6,0,0,1,3.16-4.207L6.721-11.59l.815-1.993-.892.187a6.841,6.841,0,0,1-1.41.209,4.659,4.659,0,0,1-1.079-.144,4.6,4.6,0,0,0-1.145-.142,3.6,3.6,0,0,0-2.445.947A4.537,4.537,0,0,0-.745-9.145,4.125,4.125,0,0,1-1.879-6.338" transform="translate(4.026 13.582)" fill="#333"/></g><g transform="translate(47.128 18.796)"><path d="M-.376-.126A.29.29,0,0,0-.607-.269a.183.183,0,0,0-.2.187c0,.155.11.342.386.805a23.126,23.126,0,0,0,3.149,4.2A31.324,31.324,0,0,0,7.453,8.97l.539.375a.342.342,0,0,0,.2.089.2.2,0,0,0,.187-.2.21.21,0,0,0-.089-.166C6.683,7.6,4.953,5.82,3.335,4.1,2.068,2.749.769,1.318-.376-.126" transform="translate(0.805 0.269)" fill="#333"/></g><g transform="translate(9.635 8.787)"><path d="M-2.177-4.518a10.521,10.521,0,0,1,.859-1.156A18.823,18.823,0,0,0-4.159-9.682l-.507.5A27.672,27.672,0,0,1-2.177-4.518" transform="translate(4.666 9.682)" fill="#333"/></g><g transform="translate(3.932 3.634)"><path d="M-.106-.328c-.1-.089-.121-.144-.121-.21A.165.165,0,0,1-.051-.7a.382.382,0,0,1,.144.034A8.951,8.951,0,0,1,2.218.52,9.879,9.879,0,0,1,3.736,1.985l-.462.528C2.7,2.039.852.488-.106-.328" transform="translate(0.227 0.702)" fill="#333"/></g><g transform="translate(11.265 3.634)"><path d="M-.52-3.554l-.594-.363A8.631,8.631,0,0,1,.305-6.3,11.991,11.991,0,0,1,1.5-7.474c.1-.077.154-.144.252-.144a.184.184,0,0,1,.188.176.325.325,0,0,1-.066.165C1.2-6.23-.113-4.16-.52-3.554" transform="translate(1.114 7.618)" fill="#333"/></g><g transform="translate(3.931 10.78)"><path d="M-.405-1.773a.886.886,0,0,1-.286.089.175.175,0,0,1-.177-.177c0-.076.034-.12.111-.187A8.409,8.409,0,0,1,3.427-3.8l.2.662Z" transform="translate(0.868 3.799)" fill="#333"/></g><g transform="translate(32.637 3.182)"><path d="M0-.945a.983.983,0,0,1,.914-1.08,1.566,1.566,0,0,1,.661.144c.265.121.441.3.441.484s-.2.4-.5.639A1.873,1.873,0,0,1,.5-.273C.111-.273,0-.637,0-.945" transform="translate(0 2.025)" fill="#333"/></g><g transform="translate(21.461 6.486)"><path d="M0-.867a.909.909,0,0,1,.837-.991,1.106,1.106,0,0,1,.738.3.472.472,0,0,1,.176.352c0,.265-.253.517-.551.693a1.456,1.456,0,0,1-.682.221C.176-.294,0-.505,0-.867" transform="translate(0 1.859)" fill="#333"/></g><g transform="translate(24.049 13.334)"><path d="M0-.819a1.2,1.2,0,0,1,.055-.375.711.711,0,0,1,.738-.562,1.089,1.089,0,0,1,.627.188.465.465,0,0,1,.232.4C1.652-.7.859-.147.462-.147.176-.147,0-.423,0-.819" transform="translate(0 1.756)" fill="#333"/></g><g transform="translate(17.563 22.529)"><path d="M-1.879-4.932c-1.486,0-2.148-.7-2.148-1.6,0-1.564,2.742-3.094,5.208-4.042l.639.827c-1.52.6-4.58,1.905-4.58,3.028,0,.4.231.683,1.155.683A12.051,12.051,0,0,0,3.329-7.6a1.021,1.021,0,0,1,.4-.11.538.538,0,0,1,.495.286l.265.363A14.181,14.181,0,0,1-1.879-4.932" transform="translate(4.026 10.57)" fill="#333"/></g><g transform="translate(9.481 23.85)"><path d="M-12.532-4.142a9.239,9.239,0,0,1-4.294,1.355,4.492,4.492,0,0,1-3.909-2.3c-.462-.7-.825-1.585-1.266-2.366a2.272,2.272,0,0,0-2.1-1.421,7.2,7.2,0,0,0-2.753.782l.044.21c.077.341.21.583.528.583a1.247,1.247,0,0,0,.364-.087,4.494,4.494,0,0,1,1.453-.31c.825,0,1.221.486,1.783,1.674l.21.441a11.823,11.823,0,0,1-2.918.3h-.473l.077.473a.542.542,0,0,0,.275.441,2.38,2.38,0,0,0,.98.11,11.292,11.292,0,0,0,2.7-.287,5.886,5.886,0,0,0,5.011,2.787,9.728,9.728,0,0,0,4.57-1.376Z" transform="translate(26.858 8.877)" fill="#333"/></g><g transform="translate(25.04 23.421)"><path d="M-.231-4.952-.494-5.965A18.422,18.422,0,0,1,7.148-8.486c.066,1.266-.022,2.863.914,2.863.858,0,2.73-2.214,4.888-4.988.2.187.517.386.8.606L13.2-9.29c-2.1,2.709-3.9,5.022-5.374,5.022-1.376,0-1.894-1.619-1.915-2.831A14.564,14.564,0,0,0-.231-4.952" transform="translate(0.494 10.612)" fill="#333"/></g><g transform="translate(48.526 1.321)"><path d="M-5.173-4.952c-.859,0-1.1-.474-1.1-1.145a12.537,12.537,0,0,1,1.421-4.515H-6.187a64.067,64.067,0,0,1-4.9,7.433l.848.913a34.661,34.661,0,0,0,2.61-3.853h.176c0,.077-.01.165-.01.242A1.977,1.977,0,0,0-5.251-3.708,15.038,15.038,0,0,0-1.33-4.677C-.141-5.084.949-5.5,1.488-5.656V-6.977c-.617.186-1.872.671-3.172,1.123a13.658,13.658,0,0,1-3.49.9" transform="translate(11.087 10.612)" fill="#333"/></g><g transform="translate(51.598 7.631)"><path d="M-5.057-2.929c1.321-.561,3.689-1.508,5.054-2V-6.276A96.012,96.012,0,0,0-10.839-1.485c.089.109.662.913.727,1.013A10.216,10.216,0,0,1-6.357-1.42a18.968,18.968,0,0,0,5.022-.507V-2.94a22.836,22.836,0,0,1-3.336.484c-.5,0-.639-.066-.639-.231,0-.1.066-.165.253-.242" transform="translate(10.839 6.276)" fill="#333"/></g><path d="M-.463,0-.992,1.014H4.635L4.217,0Z" transform="translate(29.633 17.165)" fill="#333"/><g transform="translate(0.001 16.946)"><path d="M-7.783-5.481a4,4,0,0,0,1.542-.385,3.707,3.707,0,0,1,1.475-.353A13.43,13.43,0,0,1-.086-4.887.815.815,0,0,0,.2-4.832.584.584,0,0,0,.75-5.173l.2-.363a15.1,15.1,0,0,0-5.77-2.026,3.9,3.9,0,0,0-1.541.341,3.866,3.866,0,0,1-1.377.408c-1.111,0-3.963-1.1-3.963-2.169,0-1.255,4.536-1.739,5.032-1.739l.451-1.025c-3.292,0-7.212,1.156-7.212,2.687,0,.441.253.661.253,1.068,0,.551-.253.925-.253,1.542A2.922,2.922,0,0,0-12.9-5.073c.308.473.672.781.672,1.178a10.163,10.163,0,0,0-.2,1.344c0,1.486.848,2.39,2.5,4.162l.331.352c-1.365.529-3.909,1.631-4.5,1.883C-16.163,4.7-16.68,5.75-16.68,7.4c0,.638,0,1.365.044,2.014h.4c.827,0,.925-.495.925-.968,0-.32-.011-.683-.011-1.08a2.172,2.172,0,0,1,1.52-2.389c.6-.265,3.512-1.453,5.682-2.379a4.751,4.751,0,0,1,1.893-.507,5.43,5.43,0,0,1,2.643.948A11.108,11.108,0,0,1-1.022,5.111L-.086,4.4A12.241,12.241,0,0,0-3.114,1.941,6.145,6.145,0,0,0-6.054.894a3.493,3.493,0,0,0-.914.132,3.443,3.443,0,0,1-.925.165A1.486,1.486,0,0,1-9.138.52c-.187-.209-1.376-1.563-1.629-1.959a1.9,1.9,0,0,1-.341-1,1.242,1.242,0,0,1,.144-.606A7.593,7.593,0,0,0-7.134-1.583l-.209-1.046c-2.214-.583-4.57-2.532-4.57-3.787a1.589,1.589,0,0,1,.166-.683A7.586,7.586,0,0,0-7.783-5.481" transform="translate(16.68 11.747)" fill="#333"/></g><g transform="translate(24.743 21.846)"><path d="M0-1.369a6.522,6.522,0,0,1,3.974-1.09,19.774,19.774,0,0,1,2.367.209,15.553,15.553,0,0,0,2.07.155A10.054,10.054,0,0,0,12.1-2.933a6.949,6.949,0,0,0,.76.76,9.741,9.741,0,0,1-4.415,1.3,19.041,19.041,0,0,1-2.533-.209,16.013,16.013,0,0,0-2.07-.165A9.046,9.046,0,0,0,.606-.576Z" transform="translate(0 2.933)" fill="#333"/></g><g transform="translate(8.171 27.341)"><path d="M-32.385,0a16.9,16.9,0,0,1-6.739,7.477,8.247,8.247,0,0,1-4.7,1.145h-5.143a14.64,14.64,0,0,0-3.9.473,9.143,9.143,0,0,1-2.566.506,5.066,5.066,0,0,1-3.446-1.4l1.211-.958-.606-.805c-.352.255-4.657,3.436-5.561,4.152l-.055-.033a5.868,5.868,0,0,0,.022-.617c0-2.422-1.124-3.007-2.829-3.689l-1.156.682c2.345.783,2.928,1.41,2.928,3.16a2.331,2.331,0,0,1-1.211,2.357,5.031,5.031,0,0,1-2.455.627.773.773,0,0,0-.617.187.819.819,0,0,0-.2.606v.386h.276a6.41,6.41,0,0,0,4.338-1.41l4.878-3.81A6.431,6.431,0,0,0-55.4,10.934a10.864,10.864,0,0,0,3-.562,12.141,12.141,0,0,1,3.435-.4H-43.8a9.446,9.446,0,0,0,5.329-1.342A17.294,17.294,0,0,0-31.328.671C-31.714.43-32.077.209-32.385,0" transform="translate(69.405)" fill="#333"/></g><g transform="translate(21.396 25.282)"><path d="M-13.562-5.423c1.332-2.136,2.521-4.031,5.439-5.571-.308-.187-.748-.473-.98-.628a10.914,10.914,0,0,0-3.214,2.489c-2.2,2.29-2.005,3.611-4.328,4.5a16.773,16.773,0,0,1-2.214.672c-.539-1.663-1.893-3.315-3.325-3.315a9.6,9.6,0,0,0-3.457,1.1,29.2,29.2,0,0,0-3.424,1.762l.606.815c.462-.255,1.794-.915,3.127-1.487a8.982,8.982,0,0,1,2.907-.9c1.134,0,1.872,1.289,2.28,2.323a25.718,25.718,0,0,1-4.669.441.784.784,0,0,0-.584.155.986.986,0,0,0-.253.517l-.087.375h.792c4.119,0,8.006-.649,10.5-2.169a3.649,3.649,0,0,0,1.058.165,6.784,6.784,0,0,0,3.832-1.5.861.861,0,0,0,.407-.738,3.306,3.306,0,0,0-.022-.342l-.044-.428C-10.534-6.14-11.636-5.357-13-5.357a1.922,1.922,0,0,1-.562-.066" transform="translate(29.066 11.623)" fill="#333"/></g><g transform="translate(76.15 10.668)"><path d="M-13.5-.775A1.554,1.554,0,0,0-13.846.317V14.687h-.08S-21.791.665-22.171.017A2.71,2.71,0,0,0-23.137-1a2.945,2.945,0,0,0-1.6-.363h-2.6a1.519,1.519,0,0,0-1.25.523A1.551,1.551,0,0,0-28.929.253V20.621a1.554,1.554,0,0,0,.349,1.092,1.521,1.521,0,0,0,1.25.521h1.471a1.523,1.523,0,0,0,1.25-.521,1.559,1.559,0,0,0,.348-1.092V5.9h.08s8.165,14.465,8.5,15a2.642,2.642,0,0,0,2.342,1.329h2.517a1.523,1.523,0,0,0,1.25-.521,1.559,1.559,0,0,0,.348-1.092V2.247h33.06a1.171,1.171,0,0,0,.776-.252,1.035,1.035,0,0,0,.3-.823V-.221a1.032,1.032,0,0,0-.3-.823,1.172,1.172,0,0,0-.776-.253H-12.248a1.523,1.523,0,0,0-1.25.523M.935,4.669c-5.492,0-8.578,4.29-8.578,8.816,0,4.827,3.308,9.068,8.61,9.068A8.9,8.9,0,0,0,7.691,19.8,4.671,4.671,0,0,0,8.863,17.33a.807.807,0,0,0-.174-.554.758.758,0,0,0-.649-.253H5.492a1.224,1.224,0,0,0-1.108.57,3.786,3.786,0,0,1-3.4,1.662,3.951,3.951,0,0,1-4.019-3.783H7.977a1.447,1.447,0,0,0,1.075-.348,1.631,1.631,0,0,0,.4-1.3,9.274,9.274,0,0,0-2.01-5.871,8.09,8.09,0,0,0-6.5-2.786m16.98,0c-4.336,0-7.184,2.058-7.184,5.349a4.069,4.069,0,0,0,1.124,2.864,7.135,7.135,0,0,0,3.64,1.9l3.623.917c1,.253,1.883.554,1.883,1.424,0,1.346-1.424,1.8-2.943,1.8a4.921,4.921,0,0,1-2.153-.459,2.682,2.682,0,0,1-1.091-.966c-.238-.364-.316-.634-.681-.839a1.7,1.7,0,0,0-.855-.142H11.316a.893.893,0,0,0-.775.3,1.078,1.078,0,0,0-.191.681A3.716,3.716,0,0,0,11.1,19.64a8.625,8.625,0,0,0,6.931,2.912c3.166,0,7.55-1.314,7.55-5.556a4.451,4.451,0,0,0-.9-2.785,6.073,6.073,0,0,0-3.608-2.089L17.473,11.2c-1.488-.379-2.185-.648-2.185-1.567,0-.886.792-1.6,2.626-1.6a3.618,3.618,0,0,1,2.692.9c.521.554.427.839.839,1.06a2.163,2.163,0,0,0,.981.127h1.788a.792.792,0,0,0,.648-.222,1.043,1.043,0,0,0,.206-.728,3.875,3.875,0,0,0-1.487-2.69,8.691,8.691,0,0,0-5.667-1.82m9.86.6h-.886a1.168,1.168,0,0,0-.775.252,1.032,1.032,0,0,0-.3.823V7.439a1.03,1.03,0,0,0,.3.823,1.169,1.169,0,0,0,.775.253h.886v7.9a5.537,5.537,0,0,0,1.582,4.305,5.655,5.655,0,0,0,4.337,1.518h1.345a1.171,1.171,0,0,0,.776-.252,1.05,1.05,0,0,0,.332-.823V19.783a1.048,1.048,0,0,0-.332-.823,1.172,1.172,0,0,0-.776-.253h-.19a2.528,2.528,0,0,1-1.836-.6A2.639,2.639,0,0,1,32.3,16.1V8.515h2.881a1.169,1.169,0,0,0,.775-.253,1.034,1.034,0,0,0,.3-.823V6.346a1.035,1.035,0,0,0-.3-.823,1.168,1.168,0,0,0-.775-.252H32.317V.111A1.454,1.454,0,0,0,32-.838a1.291,1.291,0,0,0-1.06-.46H29.152a1.292,1.292,0,0,0-1.061.46,1.454,1.454,0,0,0-.316.949v5.16Zm9.686,15.556a1.453,1.453,0,0,0,.316.95,1.289,1.289,0,0,0,1.06.459H40.72a1.291,1.291,0,0,0,1.061-.459,1.459,1.459,0,0,0,.316-.95V.112a1.459,1.459,0,0,0-.316-.95A1.292,1.292,0,0,0,40.72-1.3H38.837a1.29,1.29,0,0,0-1.06.46,1.453,1.453,0,0,0-.316.95ZM-3.006,11.6A3.746,3.746,0,0,1,.95,8.2a3.777,3.777,0,0,1,3.957,3.4H-3.006ZM59.236,2.247a1.168,1.168,0,0,0,.775-.252,1.032,1.032,0,0,0,.3-.823V-.3a1.428,1.428,0,0,0-.3-1.06,1.044,1.044,0,0,0-.775-.3,8.855,8.855,0,0,0-.933.079L45.673-.332a.9.9,0,0,0-.664.285A.915.915,0,0,0,44.8.6v.822a.782.782,0,0,0,.175.587.8.8,0,0,0,.633.237H59.236ZM52.258,4.669c-5.492,0-8.578,4.29-8.578,8.816,0,4.827,3.308,9.068,8.61,9.068A8.9,8.9,0,0,0,59.014,19.8a4.671,4.671,0,0,0,1.172-2.468.8.8,0,0,0-.175-.554.754.754,0,0,0-.648-.253H56.815a1.224,1.224,0,0,0-1.108.57,3.786,3.786,0,0,1-3.4,1.662,3.951,3.951,0,0,1-4.019-3.783H59.332a1.446,1.446,0,0,0,1.075-.348,1.631,1.631,0,0,0,.4-1.3,9.274,9.274,0,0,0-2.01-5.871,8.158,8.158,0,0,0-6.536-2.786M48.317,11.6a4,4,0,0,1,7.913,0Z" transform="translate(28.929 1.661)" fill="#333"/></g></svg>