<svg xmlns="http://www.w3.org/2000/svg" width="30" height="30.002" viewBox="0 0 30 30.002"><g transform="translate(-0.001)"><path d="M10.3-511.9a11.554,11.554,0,0,0-5.725,2.286,14.04,14.04,0,0,0-2.151,2.145,11.4,11.4,0,0,0,0,13.865,13.459,13.459,0,0,0,2.25,2.221A11.524,11.524,0,0,0,9.9-489.221c.416.059.486.082.51.193a23.827,23.827,0,0,1,.188,4.061l.029,3.006h8.779v-1.383c0-1.289.006-1.377.105-1.348.223.07,1.371.328,1.975.445a23.649,23.649,0,0,0,3.71.393l1.242.035v-4.794l1.817-1.055,1.817-1.055-.34-.293a11.381,11.381,0,0,1-2.784-3.34,4.441,4.441,0,0,1-.51-1.9,9.455,9.455,0,0,0-3.422-6.88l-.475-.375-.17-.516A11.48,11.48,0,0,0,10.3-511.9Zm2.239,1.758a9.7,9.7,0,0,1,7.923,6.013,9.6,9.6,0,0,1-2.139,10.419,9.774,9.774,0,0,1-5.362,2.737A13.63,13.63,0,0,1,9.875-491a9.74,9.74,0,0,1-7.911-7.911,13.084,13.084,0,0,1,0-3.247A9.7,9.7,0,0,1,12.541-510.142Zm10.836,9.957a10.8,10.8,0,0,1,.856,1.729,9.52,9.52,0,0,1,.451,2.327,6.107,6.107,0,0,0,.65,2.45,10.144,10.144,0,0,0,1.383,2.116l.428.516-.545.316c-.293.176-.85.5-1.225.721l-.692.4v3.991l-.275-.018a28.715,28.715,0,0,1-6.651-1.395c-.1-.029-.105.076-.105,1.641v1.676H12.377v-1.723c0-.949-.029-2.069-.064-2.479s-.07-.856-.076-.985l-.006-.234.463-.041a11.486,11.486,0,0,0,9.066-6.347,11.736,11.736,0,0,0,1.166-4.835v-.422l.135.17C23.136-500.526,23.277-500.332,23.377-500.186Z" transform="translate(-0.074 511.963)" fill="#ffbc05"/><path d="M90-421.575a6.728,6.728,0,0,0,1.958,4.947,6.83,6.83,0,0,0,3.592,1.882l.172.032v6.74H97.63V-414.7l.585-.14a6.748,6.748,0,0,0,4.947-4.9,6.872,6.872,0,0,0,.172-1.545l.038-1h-.725a6.694,6.694,0,0,0-5.532,2.626,5.823,5.823,0,0,1-.439.54,1.193,1.193,0,0,1-.286-.35,7.791,7.791,0,0,0-1.742-1.7A6.556,6.556,0,0,0,91-422.262l-1-.038ZM92.8-420a5.024,5.024,0,0,1,2.117,1.755,5.191,5.191,0,0,1,.642,1.386c.051.21.032.21-.6-.038a5.138,5.138,0,0,1-2.372-2,7.026,7.026,0,0,1-.553-1.329C92.035-420.272,92.372-420.17,92.8-420Zm8.482-.076a5.11,5.11,0,0,1-2.473,3.026,4.716,4.716,0,0,1-1.024.343,5.05,5.05,0,0,1,.528-1.335,5.987,5.987,0,0,1,1.322-1.443,6.053,6.053,0,0,1,1.246-.636C101.324-420.278,101.33-420.278,101.279-420.075Z" transform="translate(-85.043 427.204)" fill="#ffbc05"/></g></svg>