<svg xmlns="http://www.w3.org/2000/svg" width="27.353" height="35.9" viewBox="0 0 27.353 35.9"><g transform="translate(-61.6 511.206)"><path d="M79.5-508.114c-1.356,1.728-2.634,3.386-2.838,3.681s-.4.527-.429.506-.618-.745-1.3-1.616a16.4,16.4,0,0,0-1.3-1.56c-.1.035-8.079,10.236-8.81,11.261a17.049,17.049,0,0,0-3.07,6.266,8.582,8.582,0,0,0-.155,2.234,9.457,9.457,0,0,0,.562,3.751,12.146,12.146,0,0,0,16.018,7.412,12.212,12.212,0,0,0,7.292-8.6,11.5,11.5,0,0,0-1.089-8.023c-.141-.281-.176-.407-.112-.407a8.026,8.026,0,0,0,1.658-.836,7.128,7.128,0,0,0,2.93-4.489,8.41,8.41,0,0,0,.021-2.375,8.642,8.642,0,0,0-1.44-3.274c-.337-.506-5.079-6.639-5.43-7.025C81.987-511.234,80.856-509.843,79.5-508.114Zm4.1,2.346a22.286,22.286,0,0,1,2.761,3.934,3.9,3.9,0,0,1,.471,2.269,4.373,4.373,0,0,1-1.447,3.2,4.516,4.516,0,0,1-3.414,1.419,4.432,4.432,0,0,1-2.213-.527,3.768,3.768,0,0,1-1.2-.892,4.384,4.384,0,0,1-1.447-3.2c-.084-1.7.379-2.585,3.344-6.344.829-1.054,1.51-1.911,1.517-1.911S82.711-506.892,83.6-505.768Zm-9.091,3.084.745.955-.105.379a8.152,8.152,0,0,0-.063,2.81,6.924,6.924,0,0,0,3.955,5.065,8.49,8.49,0,0,0,2.48.653l.471.042.351.646a9.464,9.464,0,0,1,1.279,5.5,9.866,9.866,0,0,1-2.965,6.337,9.93,9.93,0,0,1-5.044,2.691,11.616,11.616,0,0,1-3.913.007,10.1,10.1,0,0,1-7.854-7.812,11.571,11.571,0,0,1-.07-3.379,12.618,12.618,0,0,1,2.065-4.791c.871-1.321,1.012-1.5,4.489-5.95,3.337-4.264,3.323-4.243,3.386-4.166C73.74-503.66,74.091-503.211,74.505-502.684Z" fill="#ffb405"/></g></svg>