<svg xmlns="http://www.w3.org/2000/svg" width="84.211" height="104.487" viewBox="0 0 84.211 104.487"><g transform="translate(0 79.31)"><path d="M383.152,759.035c-.018.058-.034.118-.055.175-.2.562-.187.723.266,1.072.577.444.529.873.1,1.572a.617.617,0,0,0-.12.386c.057.957.111,1.914.155,2.872a1.538,1.538,0,0,1-1.125,1.571,11.407,11.407,0,0,1-2.564.282c-1.128.013-2.25.166-3.378.188a3.1,3.1,0,0,1-1-.139,1.729,1.729,0,0,1-.992-.735c-.107-.17-.18-.169-.313-.026a1.324,1.324,0,0,1-1.384.512.7.7,0,0,1-.583-.5c-.058-.225-.172-.227-.341-.1a3.108,3.108,0,0,1-.9.459,1.521,1.521,0,0,1-2.056-1.15c-.062-.217-.134-.257-.334-.212a14.474,14.474,0,0,0-1.566.454c-.075.025-.179.05-.181.13,0,.1.1.123.185.155a7.03,7.03,0,0,1,1.211.533.341.341,0,0,1,.157.463,2.38,2.38,0,0,1-1.078,1.367,6.02,6.02,0,0,1-2.69.791,2.224,2.224,0,0,1-2.173-3.128,8.963,8.963,0,0,1,1.205-2.265c.029-.042.065-.086.132-.066.055.13-.039.222-.085.322a16.433,16.433,0,0,0-.727,1.525,2.17,2.17,0,0,0-.034,1.408,1.364,1.364,0,0,0,.953.942,3.952,3.952,0,0,0,2.093-.023,3.9,3.9,0,0,0,1.291-.494,1.449,1.449,0,0,0-.61-.283c-.28-.088-.568-.149-.85-.228-.263-.072-.324-.188-.216-.452a2.687,2.687,0,0,1,.755-1.019,4.594,4.594,0,0,1,1.914-.9c.242-.06.261-.129.086-.323a1.481,1.481,0,0,0-.608-.345c-.109-.042-.143-.089-.1-.214a2.96,2.96,0,0,1,.286-.606.9.9,0,0,1,1.04-.453,2.942,2.942,0,0,1,1.1.506.738.738,0,0,1,.214,1.054,2.984,2.984,0,0,1-.467.647.272.272,0,0,0,.008.435,1.452,1.452,0,0,0,1.541.316,3.167,3.167,0,0,0,1.011-.586l.347-.263a3.717,3.717,0,0,0,0,.381.694.694,0,0,0,.706.676.661.661,0,0,0,.711-.685,1.773,1.773,0,0,1,.478-1.156,2.856,2.856,0,0,1,.123.623,1.572,1.572,0,0,0,1.1,1.39c.342.087.45.014.451-.354.007-1.594.025-3.187-.111-4.776a.729.729,0,0,0-.083-.278,1.429,1.429,0,0,1,.03-1.624c.1-.134.178-.287.267-.433.1.06.06.145.049.217a.95.95,0,0,0,.391.964c.07.052.143.1.213.152.608.44.572.612.236,1.313-.022.046-.07.115-.1.112-.286-.017-.25.2-.256.38-.036,1.1-.032,2.192-.017,3.287,0,.059-.026.141.047.166s.106-.048.149-.089a11.063,11.063,0,0,1,1.629-1.283,1.7,1.7,0,0,1,2.025.165,1.548,1.548,0,0,1,.284.272.973.973,0,0,1,.1,1.385c-.093.148-.19.3-.306.475a2.7,2.7,0,0,0,.818-.021,7.153,7.153,0,0,0,1.039-.21.284.284,0,0,0,.236-.35c-.088-1.3-.143-2.6-.283-3.9a.944.944,0,0,0-.163-.475.739.739,0,0,1-.06-.873A3.291,3.291,0,0,1,383.152,759.035ZM377.771,766a6.361,6.361,0,0,0,2.522-.463c.189-.073.225-.157.087-.326a2.045,2.045,0,0,0-.649-.569,1.1,1.1,0,0,0-.869-.152,4.192,4.192,0,0,0-1.776,1.348c-.092.11-.052.158.068.16C377.36,766,377.565,766,377.771,766Z" transform="translate(-340.313 -758.165)" fill="#1b1a1a"/><path d="M732.036,895.213a3.2,3.2,0,0,1-1.565,1.214,3.623,3.623,0,0,1-4.555-2.188,5.9,5.9,0,0,1,.122-4.886,3.564,3.564,0,0,1,3.042-2.118,4.018,4.018,0,0,1,3.1.8,3.229,3.229,0,0,1,1.152,2.136c-.545,0-1.079,0-1.612,0-.086,0-.117-.041-.144-.118a2.107,2.107,0,0,0-3.718-.443,3.441,3.441,0,0,0-.6,1.79,4.455,4.455,0,0,0,.366,2.459,2.23,2.23,0,0,0,4.193-.674c.039-.193-.063-.165-.166-.165-.526,0-1.052-.007-1.578,0-.17,0-.222-.046-.216-.227.014-.353.009-.706,0-1.06,0-.131.038-.168.16-.168q1.591.007,3.181,0c.125,0,.161.043.161.171q-.005,2.215,0,4.432c0,.145-.047.2-.179.18a.2.2,0,0,0-.026,0c-.3-.006-.677.1-.881-.049s-.132-.586-.195-.892C732.07,895.365,732.058,895.312,732.036,895.213Z" transform="translate(-661.857 -871.422)" fill="#1b1a1a"/><path d="M654.9,891.712V892c0,1.94,0,3.878,0,5.818,0,.227-.056.292-.271.281-.378-.019-.759-.017-1.137,0-.18.007-.212-.061-.212-.232q.007-4.228,0-8.454c0-.2.06-.24.233-.235.466.012.931.019,1.4,0,.2-.01.271.094.351.241q1.576,2.911,3.157,5.82c.036.065.046.155.166.192v-.3c0-1.894,0-3.788-.006-5.682,0-.236.064-.283.272-.274.378.018.759.012,1.137,0,.15,0,.205.025.205.2q-.009,4.255,0,8.509c0,.176-.054.21-.206.206-.439-.01-.879-.015-1.319,0a.33.33,0,0,1-.339-.216q-1.632-3.018-3.275-6.029c-.029-.053-.064-.1-.1-.156A.6.6,0,0,0,654.9,891.712Z" transform="translate(-597.967 -873.157)" fill="#1b1a1a"/><path d="M277.841,891.932a5.5,5.5,0,0,1-.675,2.809,4.167,4.167,0,0,1-5.989.961,4.236,4.236,0,0,1-1.312-2.371,6.194,6.194,0,0,1,.335-3.928,3.482,3.482,0,0,1,2.928-2.189,4.392,4.392,0,0,1,2.309.3,3.857,3.857,0,0,1,2.315,3.21A7.779,7.779,0,0,1,277.841,891.932Zm-1.73.039a4.817,4.817,0,0,0-.255-1.729,2.165,2.165,0,0,0-2.027-1.535,2.094,2.094,0,0,0-2.074,1.369,4.667,4.667,0,0,0,.04,3.688,2.01,2.01,0,0,0,1.948,1.271,2.082,2.082,0,0,0,1.993-1.249A4.149,4.149,0,0,0,276.111,891.966Z" transform="translate(-258.365 -871.396)" fill="#1b1a1a"/><path d="M353.782,908.021c1.1-1.582,2.585-1.617,3.588-.156.091-.014.111-.106.155-.168a1.917,1.917,0,0,1,2.342-.747,1.968,1.968,0,0,1,1.375,1.975c.014,1.486,0,2.972.007,4.458,0,.163-.037.221-.2.216-.4-.013-.794-.014-1.189,0-.182.006-.232-.051-.23-.241.008-1.26,0-2.518,0-3.778a2.664,2.664,0,0,0-.033-.459c-.1-.57-.408-.861-.9-.869a1.037,1.037,0,0,0-1.089.841,2.73,2.73,0,0,0-.062.62c0,1.214,0,2.428,0,3.642,0,.181-.031.255-.221.246-.4-.016-.794-.016-1.189,0-.182.007-.209-.066-.209-.234.006-1.278,0-2.556,0-3.832,0-.09,0-.182-.007-.271-.061-.669-.357-.991-.928-1.011a.988.988,0,0,0-1.118.944,3.135,3.135,0,0,0-.034.487c0,1.206-.01,2.41.006,3.615,0,.262-.077.315-.3.3-.37-.018-.741-.012-1.112,0-.15,0-.21-.029-.21-.206q.009-3.1,0-6.2c0-.135.026-.194.17-.192.4.008.811.01,1.216,0,.148,0,.17.064.166.194C353.777,907.446,353.782,907.694,353.782,908.021Z" transform="translate(-331.438 -888.658)" fill="#1b1a1a"/><path d="M791.064,756.671a.79.79,0,0,1-.122.635.338.338,0,0,0,.03.4,3.694,3.694,0,0,0,.672.709c.08.068.169.128.159.259a1.739,1.739,0,0,1-.408.938.5.5,0,0,0-.134.342c.015.662.116,1.315.185,1.972a9.07,9.07,0,0,1,.03,2,1.166,1.166,0,0,1-.984,1.142,3.615,3.615,0,0,1-1.412.044,1.683,1.683,0,0,1-.984-.5.333.333,0,0,0-.425-.084,6.827,6.827,0,0,1-2.321.471,1.721,1.721,0,0,1-.411-.033c-.216-.055-.328.019-.416.231-.248.587-.255.582-.808.291a8.567,8.567,0,0,1-1.541-.93c-.081-.067-.132-.057-.19.022s-.108.141-.163.211a.871.871,0,0,1-1.515-.141,4.042,4.042,0,0,1-.471-1.9c-.049-1.782-.2-3.558-.295-5.337a2,2,0,0,1,.4-1.066c.023-.041.062-.069.108-.042s.04.1.042.146c.026.561.055,1.12.076,1.681a33.472,33.472,0,0,0,.4,4.943,1.189,1.189,0,0,0,.428.861.567.567,0,0,0,.939-.258c.3-.864,1.016-1.119,1.716-1.421.11-.048.177.014.222.117.065.147.135.292.2.439a1.629,1.629,0,0,0,1.36,1.021,4.66,4.66,0,0,0,1.968-.16c.227-.07.258-.184.1-.367a.926.926,0,0,0-.714-.327c-.236,0-.268-.13-.245-.33a.987.987,0,0,1,.94-.866,2.571,2.571,0,0,1,1.664.481.669.669,0,0,1,.194.781,3.115,3.115,0,0,1-.249.564c-.1.176-.04.257.111.326a2.161,2.161,0,0,0,1.566,0c.144-.042.1-.175.1-.273-.007-1.142-.09-2.277-.2-3.413a4.413,4.413,0,0,0-.446-1.849.157.157,0,0,1-.028-.1A2.809,2.809,0,0,1,791.064,756.671Zm-7.533,7.365c-.045-.168-.075-.3-.114-.421-.025-.083,0-.218-.155-.192-.119.021-.258.046-.308.16s.084.157.151.213A1.064,1.064,0,0,0,783.531,764.035Z" transform="translate(-709.747 -756.303)" fill="#1b1a1a"/><path d="M599.8,758.12a13.623,13.623,0,0,1,.151,1.449c.1,1.336.1,2.677.261,4.008.055.448.14.893.211,1.339.062.382.355.544.636.691a2.844,2.844,0,0,0,1.947.148,4.234,4.234,0,0,0,1.029-.35c.275-.136.295-.227.135-.5a1.136,1.136,0,0,0-.792-.51c-.166-.037-.176-.1-.151-.251a.93.93,0,0,1,.968-.868,2.374,2.374,0,0,1,1.131.223,1.748,1.748,0,0,1,.327.216.7.7,0,0,1,.253.963,2.778,2.778,0,0,1-.232.514c-.1.165-.038.241.093.318a1.123,1.123,0,0,0,.929.046.946.946,0,0,0,.752-1.019c.021-.382-.055-.758-.06-1.138-.015-1.313-.161-2.617-.226-3.926a1.531,1.531,0,0,1,.311-.93c.035-.053.065-.148.152-.114s.076.116.08.187c.019.362.039.723.055,1.085.078,1.726.177,3.452.326,5.172.073.848.625,1.04,1.277.948.15-.022.188-.152.18-.286-.1-1.752-.086-3.512-.325-5.254a.505.505,0,0,0-.11-.293.586.586,0,0,1-.107-.586,4.743,4.743,0,0,1,.618-1.151c.026-.04.085-.054.145-.092a.366.366,0,0,1-.032.339.508.508,0,0,0,.106.617c.147.152.3.3.455.442a.914.914,0,0,1-.03,1.333c-.025.022-.063.053-.086.046-.289-.092-.236.121-.228.284.062,1.292.164,2.585.173,3.877a2.245,2.245,0,0,1-.65,1.6,1.18,1.18,0,0,1-1.7-.322c-.241-.434-.241-.434-.661-.187a2.686,2.686,0,0,1-1.674.443.9.9,0,0,1-.656-.334c-.156-.206-.3-.183-.5-.081a5.541,5.541,0,0,1-2.894.656c-1.164-.084-1.631-.574-1.693-1.8-.094-1.861-.212-3.723-.413-5.576A1.6,1.6,0,0,1,599.8,758.12Z" transform="translate(-550.149 -757.901)" fill="#1b1a1a"/><path d="M226.039,764.738a1.8,1.8,0,0,1-.206.8c-.067.164-.011.212.128.221a.949.949,0,0,0,.9-.412,1.416,1.416,0,0,1,.488-.537,2.683,2.683,0,0,0,.029.47.47.47,0,0,0,.364.376.439.439,0,0,0,.486-.168,1.774,1.774,0,0,0,.255-.5,1.169,1.169,0,0,1,.289-.475c.038-.033.071-.083.132-.052a.119.119,0,0,1,.056.137,1.509,1.509,0,0,0,.031.512.634.634,0,0,0,.474.484c.235.075.357-.063.5-.233a5.49,5.49,0,0,1,1.839-1.593c.312-.148.367-.123.4.235a1.739,1.739,0,0,0,.506,1.1,1.491,1.491,0,0,0,1.339.3c.119-.011.12-.136.114-.237q-.153-2.125-.309-4.251a.907.907,0,0,0-.218-.455.958.958,0,0,1-.14-.917,3.044,3.044,0,0,1,.507-1.086c.037-.043.066-.11.151-.1a.625.625,0,0,1-.041.435.735.735,0,0,0,.239.823c.138.124.281.24.414.369a.908.908,0,0,1,0,1.295.489.489,0,0,0-.165.417c-.01.644.062,1.283.115,1.923.031.379.07.757.08,1.137a2.748,2.748,0,0,1-.411,1.4.7.7,0,0,1-.509.339c-.025,0-.052.006-.077.009-.522.05-1.008.141-1.174.793-.07.276-.248.289-.493.158a12.176,12.176,0,0,1-1.92-1.215c-.109-.087-.185-.112-.271.013a.449.449,0,0,1-.076.074c-.565.534-1.03.474-1.456-.2-.153.143-.3.3-.458.428a.7.7,0,0,1-1.119-.146c-.038-.048-.054-.122-.132-.052a2.3,2.3,0,0,1-1.689.436c-.482-.009-.967,0-1.445-.053-.789-.086-1.113-.43-1.205-1.256-.127-1.142-.162-2.291-.235-3.437-.069-1.066-.111-2.134-.189-3.2a1.667,1.667,0,0,1,.47-1.209.441.441,0,0,1,.1.348q.227,3.412.451,6.825a.617.617,0,0,0,.557.661,3.027,3.027,0,0,0,1.508-.018,1.288,1.288,0,0,0,.814-.578C225.874,764.8,225.929,764.727,226.039,764.738Zm5.857,1.13c-.08-.26-.15-.489-.222-.717-.036-.11-.065-.251-.212-.219a.532.532,0,0,0-.436.3c-.021.049.013.085.045.116A1.939,1.939,0,0,0,231.9,765.868Z" transform="translate(-216.076 -757.479)" fill="#1b1a1a"/><path d="M445.267,912.977c-.119.034-.17.136-.243.207a2.4,2.4,0,0,1-2.394.641,1.8,1.8,0,0,1-1.293-2.2,1.962,1.962,0,0,1,1.878-1.731c.477-.07.954-.146,1.431-.222.38-.061.571-.239.586-.533a.691.691,0,0,0-.511-.75,1.9,1.9,0,0,0-.795-.057.857.857,0,0,0-.827.756c-.029.124-.065.159-.182.157-.414-.007-.828-.012-1.241,0-.167,0-.155-.072-.138-.2a2.1,2.1,0,0,1,1.836-2,4.14,4.14,0,0,1,2.34.182,1.652,1.652,0,0,1,1.093,1.69c0,1.241,0,2.482.012,3.723a.95.95,0,0,0,.306.851.161.161,0,0,1,.048.171c-.014.094-.087.07-.143.07-.483,0-.965,0-1.448,0-.135,0-.183-.058-.205-.181C445.345,913.366,445.3,913.174,445.267,912.977Zm-.038-2.487a2.3,2.3,0,0,1-.938.335,2.82,2.82,0,0,0-.963.282.854.854,0,0,0-.4.849.747.747,0,0,0,.437.68,1.43,1.43,0,0,0,1.859-1.137C445.251,911.179,445.229,910.855,445.229,910.49Z" transform="translate(-410.298 -888.8)" fill="#1b1a1a"/><path d="M503.129,908.147c.123-.043.14-.131.178-.2a2.2,2.2,0,0,1,3.672.069,2.477,2.477,0,0,1,.278,1.145c0,1.459,0,2.919.006,4.377,0,.169-.028.24-.209.233-.4-.016-.794-.016-1.189,0-.191.008-.222-.066-.221-.247.007-1.224,0-2.447,0-3.671,0-.054,0-.109,0-.163-.007-.779-.273-1.159-.877-1.253a1.277,1.277,0,0,0-1.483.921,2.449,2.449,0,0,0-.092.725c0,1.133,0,2.265.006,3.4,0,.216-.034.3-.261.29-.378-.022-.759-.013-1.138,0-.163,0-.222-.034-.221-.221q.01-3.085,0-6.171c0-.151.034-.206.186-.2.4.01.793.008,1.189,0,.133,0,.182.037.177.183C503.121,907.617,503.129,907.875,503.129,908.147Z" transform="translate(-463.662 -888.832)" fill="#1b1a1a"/><path d="M591.464,893.628c0-1.385,0-2.772,0-4.157,0-.215.032-.3.261-.289.413.022.828.018,1.241,0,.2-.008.24.051.239.252-.008,2.264,0,4.528-.01,6.793,0,.25.062.31.295.307,1.241-.013,2.481,0,3.722-.011.186,0,.256.035.244.247-.02.37-.013.743,0,1.114,0,.16-.031.218-.2.218q-2.792-.009-5.583,0c-.187,0-.206-.076-.205-.237Q591.469,895.747,591.464,893.628Z" transform="translate(-543.236 -873.162)" fill="#1b1a1a"/><path d="M707.429,781.51a3.491,3.491,0,0,1,.181,1.043,9.516,9.516,0,0,0,.744,2.922c.316.664.665.778,1.294.426a4.3,4.3,0,0,0,1-.768c.042-.043.069-.149.156-.1.057.035.041.113.04.176a.861.861,0,0,0,1.105.8.29.29,0,0,0,.2-.36.568.568,0,0,0-.04-.157c-.279-.488-.051-.874.225-1.253a.218.218,0,0,1,.167-.113c.091,0,.093.1.112.161a3.1,3.1,0,0,1-.06,2.094,1.168,1.168,0,0,1-2.023.277c-.169-.233-.294-.2-.48-.073a8.193,8.193,0,0,1-.822.509.81.81,0,0,1-1.226-.427,6.9,6.9,0,0,1-.337-.964c-.068-.238-.141-.474-.234-.784-.343.706-.906.705-1.48.675a5.536,5.536,0,0,1-.94-.169c-.212-.048-.23-.187-.178-.365a2.565,2.565,0,0,1,1.449-1.761c.223-.1.432-.224.65-.33a.25.25,0,0,0,.164-.275C707.024,782.264,707.279,781.943,707.429,781.51Zm-1.508,2.91a1.224,1.224,0,0,0,.592.1c.836-.012.834.01.635-.858,0-.012-.021-.021-.042-.041C706.823,784.047,706.284,784.048,705.921,784.42Z" transform="translate(-643.581 -778.471)" fill="#1b1a1a"/><path d="M175.078,759.16c.022.258.034.465.06.67a1.2,1.2,0,0,0,.5.85.9.9,0,0,1,.064,1.383c-.007.006-.013.017-.02.017-.392.044-.228.35-.213.551.088,1.255.177,2.51.3,3.76a2.1,2.1,0,0,1-.949,2.081,3.206,3.206,0,0,1-2.622.617,1.7,1.7,0,0,1-1.263-2,4.406,4.406,0,0,1,.866-2,.6.6,0,0,1,.475-.285c-.1.177-.181.327-.266.474a3.8,3.8,0,0,0-.552,1.188,1.227,1.227,0,0,0,.969,1.524,3.669,3.669,0,0,0,2.264-.356.753.753,0,0,0,.453-.823c-.177-1.846-.336-3.694-.5-5.542a.328.328,0,0,0-.015-.107,1.785,1.785,0,0,1,.346-1.835C175,759.288,175.025,759.244,175.078,759.16Z" transform="translate(-170.912 -758.816)" fill="#1b1a1a"/><path d="M549.9,806a4.6,4.6,0,0,0,4.173-1.611,4.14,4.14,0,0,0,.47-.71.389.389,0,0,0,0-.361,1.5,1.5,0,0,0-.691-.74.324.324,0,0,1-.17-.4c.047-.229.091-.461.117-.695.018-.163.1-.169.216-.137a1.687,1.687,0,0,1,1.046,1.487,3.677,3.677,0,0,1-1.3,2.857c-.229.19-.444.4-.671.594a1.608,1.608,0,0,1-1.568.368A6.206,6.206,0,0,1,549.9,806Z" transform="translate(-506.441 -795.907)" fill="#1b1a1a"/><path d="M896.17,771.8c0-.159-.013-.319,0-.477a22.309,22.309,0,0,0-.2-3.433c-.072-1.165-.19-2.324-.29-3.487a.446.446,0,0,1,.051-.283c.142-.247.272-.5.4-.756.025-.047.045-.111.106-.1.084.011.064.093.069.152q.131,1.758.26,3.517c.07.956.141,1.911.2,2.867A3.412,3.412,0,0,1,896.17,771.8Z" transform="translate(-812.57 -762.417)" fill="#1b1a1a"/><path d="M343.3,774.2a.345.345,0,0,1-.023-.269,26.4,26.4,0,0,0-.132-4.061c-.054-1.11-.1-2.222-.136-3.333a1.6,1.6,0,0,1,.511-1.115c.023.279.047.5.058.714.11,2.058.228,4.116.32,6.175A2.96,2.96,0,0,1,343.3,774.2Z" transform="translate(-323.271 -764.321)" fill="#1b1a1a"/><path d="M559.663,772.445a8.153,8.153,0,0,0,.113-3.054c-.062-1.391-.152-2.78-.227-4.17a1.072,1.072,0,0,1,.447-.873c.146-.127.135.081.141.164.027.469.041.94.069,1.409q.141,2.425.287,4.849A2.16,2.16,0,0,1,559.663,772.445Z" transform="translate(-514.983 -763.344)" fill="#1b1a1a"/><path d="M273.83,775.031c.4-.174.8-.344,1.2-.523a6.254,6.254,0,0,0,2.1-1.391c.147-.158.13-.233-.037-.341a.718.718,0,0,1-.249-1.04,1.577,1.577,0,0,1,.53-.618c.241-.154.439-.086.579.176a1.294,1.294,0,0,1,.085.8c-.025.208.041.239.209.187.107-.033.247-.157.32,0a.348.348,0,0,1-.141.4.632.632,0,0,1-.419.188.617.617,0,0,0-.514.269,5.042,5.042,0,0,1-3.509,1.9c-.05.007-.1.018-.153.026A.219.219,0,0,0,273.83,775.031Z" transform="translate(-262.028 -769.259)" fill="#1b1a1a"/><path d="M425.655,836.551a4.236,4.236,0,0,1-.967-.5c-.062-.048-.018-.116.014-.169.1-.159.189-.323.3-.475.244-.342.248-.34.627-.16.219.1.436.212.655.313a.219.219,0,0,0,.307-.1c.122-.186.264-.357.389-.54.064-.094.116-.135.228-.067.253.152.513.293.775.426.109.054.143.118.094.232a3.755,3.755,0,0,1-.522.737c-.056.075-.147.036-.216,0-.183-.1-.365-.2-.546-.3-.321-.183-.388-.17-.628.125-.1.117-.187.236-.287.348A.407.407,0,0,1,425.655,836.551Z" transform="translate(-395.56 -825.357)" fill="#1b1a1a"/><path d="M829.31,768.622a11.674,11.674,0,0,0,2.361-.751,4.421,4.421,0,0,0,.962-.628c.181-.158.171-.265-.017-.4a.688.688,0,0,1-.2-1.045c.1-.177.211-.405.417-.406.228,0,.353.228.47.422.093.156.034.422.32.447.047,0,.009.211-.063.287a10.565,10.565,0,0,0-.63.922,3.08,3.08,0,0,1-2.144,1.109A6.529,6.529,0,0,1,829.31,768.622Z" transform="translate(-753.811 -764.294)" fill="#1b1a1a"/><path d="M714.389,765.209a1.614,1.614,0,0,1-.431.839.181.181,0,0,1-.214.018c-.205-.092-.423-.158-.623-.26-.178-.09-.267-.03-.342.137a3.371,3.371,0,0,1-.2.379.255.255,0,0,1-.335.122c-.267-.1-.534-.2-.806-.279-.149-.045-.165-.113-.109-.254a5.257,5.257,0,0,1,.366-.652c.067-.116.156-.094.248-.068.224.064.451.122.669.2s.322,0,.425-.18c.288-.5.291-.5.807-.287.145.059.287.122.431.18C714.332,765.133,714.4,765.143,714.389,765.209Z" transform="translate(-649.333 -763.773)" fill="#1b1a1a"/><path d="M380.544,772.524a.942.942,0,0,1,.916-.915,2.254,2.254,0,0,1,.969.1c.461.175.55.457.3.894a1.906,1.906,0,0,1-.922.794,3.219,3.219,0,0,1-1.863.284c-.057-.01-.159.019-.163-.087a.176.176,0,0,1,.139-.175c.15-.036.3-.064.455-.086a5.829,5.829,0,0,0,1.193-.212,1.813,1.813,0,0,0,.719-.461c.138-.146.1-.245-.062-.288a1.629,1.629,0,0,0-1.3-.022C380.806,772.413,380.684,772.459,380.544,772.524Z" transform="translate(-355.829 -769.754)" fill="#1b1a1a"/><path d="M388.233,850.278c-.049.084-.1.17-.149.253-.4.645-.407.657-1.044.3-.222-.124-.332-.086-.484.11-.4.515-.408.507-.951.167-.422-.264-.441-.309-.119-.706.4-.486.258-.492.79-.175.391.233.474.211.743-.177a3.132,3.132,0,0,1,.195-.252c.062-.071.156-.122.233-.075.258.159.507.336.758.508C388.218,850.242,388.224,850.261,388.233,850.278Z" transform="translate(-360.685 -838.448)" fill="#1b1a1a"/><path d="M743.738,834.27c-.061.1-.126.232-.2.347-.3.438-.3.438-.751.182l-.045-.028c-.4-.225-.4-.225-.657.165-.206.317-.205.316-.538.158-.1-.048-.2-.093-.306-.14-.354-.163-.359-.177-.165-.542.021-.04.044-.077.068-.115.244-.365.245-.365.639-.206l.024.008c.53.216.532.218.907-.227.076-.089.139-.154.258-.091.228.124.458.245.686.37A.12.12,0,0,1,743.738,834.27Z" transform="translate(-675.578 -824.42)" fill="#1b1a1a"/><path d="M240.94,777.722a.737.737,0,0,1,.452-.542c1.475-.693,2.97-1.336,4.479-1.943.06-.024.142-.12.205-.02.049.078-.015.154-.061.221a.83.83,0,0,1-.366.292q-2.313,1-4.628,1.992C241.007,777.723,240.988,777.719,240.94,777.722Z" transform="translate(-232.91 -772.896)" fill="#1b1a1a"/><path d="M443.7,772.424c-.032-.022-.041-.025-.046-.033-.083-.1-.056-.325-.236-.311s-.2.2-.263.334a5.791,5.791,0,0,0-.255.851c-.048.172-.1.345-.163.512-.03.081-.05.2-.141.207-.114,0-.122-.136-.156-.221a5.608,5.608,0,0,0-.4-.936c-.219-.347-.3-.367-.652-.18-.062.033-.128.128-.2.054s0-.166.033-.246a.843.843,0,0,1,.554-.448.341.341,0,0,1,.462.215,2.034,2.034,0,0,0,.37.739,3.877,3.877,0,0,0,.334-.886.757.757,0,0,1,.413-.521c.138-.049.288-.1.413.026a.469.469,0,0,1,.127.493A.809.809,0,0,1,443.7,772.424Z" transform="translate(-410.164 -769.67)" fill="#1b1a1a"/><path d="M744.7,765.28a.2.2,0,0,1,.134.161,1.664,1.664,0,0,1-.073,1.113.5.5,0,0,1-.616.317.231.231,0,0,0-.267.086.8.8,0,0,1-.18.153.469.469,0,0,1-.78-.269,3.876,3.876,0,0,1-.1-1.316c0-.083.04-.177.122-.189.107-.016.109.1.123.172.028.141.032.287.047.43a1.988,1.988,0,0,0,.039.322c.055.2.116.426.386.37.254-.052.209-.273.2-.458a.958.958,0,0,1,.063-.5c.033-.068.062-.166.155-.153.072.011.1.09.118.163.03.123.053.247.092.366.049.15.12.31.3.258s.109-.212.087-.342A.855.855,0,0,1,744.7,765.28Z" transform="translate(-677.231 -764.198)" fill="#1b1a1a"/><path d="M803.661,768.616a.365.365,0,0,1,.237-.292c.844-.433,1.728-.762,2.595-1.134.406-.175.806-.362,1.212-.536.062-.027.13-.123.2-.025a.234.234,0,0,1,0,.258.92.92,0,0,1-.464.366c-.863.359-1.727.717-2.588,1.084-.327.14-.643.3-.966.452C803.721,768.864,803.638,768.8,803.661,768.616Z" transform="translate(-731.1 -765.346)" fill="#1b1a1a"/><path d="M177.24,780.616a3.09,3.09,0,0,1,.813-.353,1.417,1.417,0,0,0,.729-.532c.1-.154.094-.227-.092-.282-.388-.115-.769-.252-1.1.136-.033.04-.093.08-.135.036a.246.246,0,0,1-.022-.255.866.866,0,0,1,1.111-.652c.15.039.3.093.443.146.416.151.508.416.274.82a1.711,1.711,0,0,1-.845.762A2.3,2.3,0,0,1,177.24,780.616Z" transform="translate(-176.514 -775.98)" fill="#1b1a1a"/><path d="M623.727,763.574a.6.6,0,0,1-.328.438,6.543,6.543,0,0,1-1.091.488c-.874.356-1.753.7-2.616,1.085-.057.025-.122.1-.184.028s-.028-.156,0-.232c.045-.111.149-.143.24-.193,1.01-.551,2.093-.923,3.138-1.385q.334-.146.664-.3C623.642,763.462,623.723,763.428,623.727,763.574Z" transform="translate(-568.039 -762.604)" fill="#1b1a1a"/><path d="M501.508,776.264a.508.508,0,0,1,.26-.571,22.161,22.161,0,0,1,2.018-1.08c.261-.137.516-.287.773-.432.068-.039.134-.106.205-.024s.034.151.008.23a.5.5,0,0,1-.232.244,22.137,22.137,0,0,1-2.014,1.089C502.194,775.9,501.857,776.079,501.508,776.264Z" transform="translate(-463.587 -771.97)" fill="#1b1a1a"/><path d="M364.451,768.91a.546.546,0,0,1-.063.427c-.106.276-.229.545-.336.821a1.336,1.336,0,0,0-.069.8c.048.207.15.286.358.214.25-.087.312-.025.263.242a.755.755,0,0,1-.271.477.445.445,0,0,1-.745-.3,1.91,1.91,0,0,1,.057-.751,5.761,5.761,0,0,1,.579-1.617A.764.764,0,0,1,364.451,768.91Z" transform="translate(-341.477 -767.39)" fill="#1b1a1a"/><path d="M756.233,786.986a2.66,2.66,0,0,1-.312.594c-.148.256-.315.323-.561.163a1,1,0,0,0-.166-.074c-.482-.194-.482-.194-.232-.666.273-.515.273-.515.795-.287.119.052.237.1.358.154C756.17,786.9,756.232,786.908,756.233,786.986Z" transform="translate(-687.842 -782.922)" fill="#1b1a1a"/><path d="M640.913,782.914a3.4,3.4,0,0,1-.411.752c-.036.053-.115,0-.17-.018a3.4,3.4,0,0,1-.717-.356c-.093-.053-.084-.118-.053-.2a2.444,2.444,0,0,1,.328-.608c.037-.049.073-.107.146-.081a3,3,0,0,1,.819.38A.14.14,0,0,1,640.913,782.914Z" transform="translate(-585.804 -779.249)" fill="#1b1a1a"/><path d="M471.969,838.255a1.6,1.6,0,0,1-.272.388c-.417.443-.3.453-.831.1-.42-.278-.412-.292-.1-.69.353-.455.353-.455.818-.129.1.07.2.14.3.211C471.918,838.163,471.972,838.184,471.969,838.255Z" transform="translate(-436.182 -827.88)" fill="#1b1a1a"/><path d="M578.435,784.736a1.114,1.114,0,0,1-.362.656c-.195.164-.365-.087-.548-.136-.122-.033-.326-.1-.292-.25a2.087,2.087,0,0,1,.444-.779c.032-.042.078-.023.118,0,.193.1.383.2.578.293C578.455,784.557,578.449,784.625,578.435,784.736Z" transform="translate(-530.636 -780.839)" fill="#1b1a1a"/><path d="M685.175,831.52a.312.312,0,0,1-.239.336q-1.311.488-2.625.968c-.046.017-.1.051-.142,0s-.007-.121.017-.177c.034-.083.112-.107.183-.137A22.041,22.041,0,0,1,685.175,831.52Z" transform="translate(-623.525 -822.452)" fill="#1b1a1a"/><path d="M243.6,764.877a3.3,3.3,0,0,0-.224-2.391.79.79,0,0,1-.083-.28c0-.136.05-.3.174-.332s.127.143.163.236a3.9,3.9,0,0,1,.2,2.41C243.784,764.692,243.783,764.692,243.6,764.877Z" transform="translate(-234.99 -761.2)" fill="#1b1a1a"/></g><g transform="translate(6.545 0)"><path d="M263.553,98.43c19.533,0,35.762,16.637,35.553,37.8-.2,20.363-15.785,36.8-35.3,36.949-20.047.149-35.783-16.8-35.817-37.179C227.953,115.138,243.817,98.43,263.553,98.43Zm33.038,37.34c-.041-19.124-14.616-34.329-32.4-34.674-18.691-.363-33.627,15.365-33.689,34.487-.062,19.389,14.674,34.939,33.029,34.969C281.771,170.585,296.593,154.987,296.591,135.77Z" transform="translate(-227.989 -98.43)" fill="#019642"/><path d="M316.023,155.178c0,19.217-14.82,34.814-33.056,34.784-18.354-.03-33.092-15.581-33.029-34.969.061-19.122,15-34.85,33.688-34.487C301.407,120.85,315.982,136.056,316.023,155.178Zm-32.648,30.748a1.277,1.277,0,0,0,.243-.1,18.47,18.47,0,0,0,6.539-7.248,9.2,9.2,0,0,0,.449-7.452,12.788,12.788,0,0,0-2.82-4.156,25.809,25.809,0,0,1-2.721-3.279,11.545,11.545,0,0,1-2.074-5.541c-.04-.567.107-1.12.093-1.754a19.543,19.543,0,0,0-6.451,6.523,9.793,9.793,0,0,0-1.232,7.741,11.114,11.114,0,0,0,2.6,4.357,30.033,30.033,0,0,1,3.539,4.374,9.605,9.605,0,0,1,1.636,6.318.456.456,0,0,0,.008.274c.1.141.154.03.2-.071C283.386,185.916,283.375,185.926,283.375,185.926Zm13.179-2.5a2.1,2.1,0,0,0,.255-.092,30.4,30.4,0,0,0,12.725-13.219,32.754,32.754,0,0,0,2.047-24.822c-.114-.381-.271-.512-.662-.511-3.563.011-7.126-.011-10.688,0-.429,0-.571-.092-.563-.57.029-1.77.013-3.541.011-5.31a3.117,3.117,0,0,0-.078-.829,2.854,2.854,0,0,0-3-2.21,2.918,2.918,0,0,0-2.558,2.987c-.009,1.807-.01,3.615.006,5.423,0,.364-.054.515-.451.511q-3.643-.031-7.286,0c-.381,0-.471-.115-.468-.5.017-1.789.024-3.578,0-5.366a2.847,2.847,0,1,0-5.67.068c-.006,1.77-.015,3.541.007,5.31,0,.407-.119.488-.478.486-2.41-.016-4.822-.022-7.232,0-.429,0-.479-.151-.476-.536q.026-2.684,0-5.366a2.835,2.835,0,1,0-5.654.028c0,1.752-.017,3.5.009,5.255.007.47-.078.627-.571.623-3.581-.027-7.162-.007-10.742-.025-.388,0-.541.122-.66.506a32.793,32.793,0,0,0-.845,16.585,31.348,31.348,0,0,0,12.525,19.554,24.387,24.387,0,0,0,3.315,2.047c.013-.194.026-.321.028-.447q.014-2.906.025-5.813.022-9.893.037-19.787a5.317,5.317,0,0,1,1.446-3.722,10.551,10.551,0,0,1,3.956-2.643,22.159,22.159,0,0,1,13.273-.933,13.511,13.511,0,0,1,6.356,3.036,5.369,5.369,0,0,1,1.975,4.092q.036,9.613.083,19.226C296.562,178.763,296.554,181.068,296.554,183.423Zm-40.831-41.7a1.581,1.581,0,0,0,.216.048c2.412,0,4.822,0,7.233.011.295,0,.349-.122.351-.394.009-1.024-.036-2.047.045-3.072a5.807,5.807,0,0,1,5.386-5.4,5.745,5.745,0,0,1,5.724,4.866,23.793,23.793,0,0,1,.094,3.513c.006.339.056.51.431.489.6-.031,1.205-.023,1.807,0,.307.011.4-.106.391-.42-.015-.913-.027-1.826.006-2.739a5.783,5.783,0,0,1,5.265-5.7,5.7,5.7,0,0,1,5.842,4.77,20.6,20.6,0,0,1,.1,3.568c0,.367.061.541.46.517a15.206,15.206,0,0,1,1.755,0c.367.021.427-.131.432-.479a25.939,25.939,0,0,1,.072-3.4,5.556,5.556,0,0,1,11-.362,17.9,17.9,0,0,1,.154,3.675c0,.412.071.576.514.571,2.251-.025,4.5-.022,6.754,0,.464,0,.432-.133.265-.491a30.113,30.113,0,0,0-5.685-8.367c-7.4-7.587-16.266-10.6-26.453-8.892A28.872,28.872,0,0,0,259.727,135.1,31.447,31.447,0,0,0,255.724,141.726Z" transform="translate(-247.421 -117.838)" fill="#fdfdfb"/><path d="M318.99,295.3c0-2.353.007-4.658,0-6.965q-.036-9.613-.083-19.226a5.367,5.367,0,0,0-1.975-4.092,13.512,13.512,0,0,0-6.356-3.036,22.168,22.168,0,0,0-13.273.933,10.536,10.536,0,0,0-3.956,2.643,5.315,5.315,0,0,0-1.446,3.722q-.007,9.893-.037,19.787-.007,2.906-.025,5.813c0,.127-.015.253-.027.447a24.194,24.194,0,0,1-3.315-2.047,31.344,31.344,0,0,1-12.525-19.554,32.794,32.794,0,0,1,.845-16.585c.118-.385.273-.509.661-.506,3.581.018,7.162,0,10.742.025.493,0,.578-.153.571-.623-.025-1.752-.013-3.5-.009-5.255a2.835,2.835,0,1,1,5.654-.028q.022,2.684,0,5.366c0,.386.047.541.476.536,2.41-.027,4.822-.021,7.232,0,.359,0,.483-.078.478-.486-.023-1.77-.013-3.541-.007-5.31a2.847,2.847,0,1,1,5.67-.068c.024,1.789.017,3.578,0,5.366,0,.385.087.5.468.5q3.643-.029,7.286,0c.4,0,.454-.147.451-.511-.016-1.807-.015-3.615-.006-5.423a2.918,2.918,0,0,1,2.558-2.987,2.854,2.854,0,0,1,3,2.21,3.217,3.217,0,0,1,.078.829c0,1.77.018,3.541-.012,5.31-.008.48.135.573.563.57,3.563-.012,7.126.011,10.688,0,.391,0,.548.13.662.511a32.759,32.759,0,0,1-2.047,24.822A30.41,30.41,0,0,1,319.247,295.2,1.438,1.438,0,0,1,318.99,295.3Z" transform="translate(-269.857 -229.712)" fill="#019642"/><path d="M300.39,164.17a31.368,31.368,0,0,1,4-6.626,28.875,28.875,0,0,1,18.163-11.062c10.187-1.7,19.049,1.306,26.453,8.892a30.114,30.114,0,0,1,5.685,8.367c.167.358.2.5-.265.491q-3.376-.031-6.754,0c-.444,0-.514-.159-.514-.571a17.822,17.822,0,0,0-.154-3.675,5.556,5.556,0,0,0-11,.362,25.929,25.929,0,0,0-.072,3.4c-.006.346-.065.5-.432.479a15.209,15.209,0,0,0-1.754,0c-.4.024-.455-.151-.46-.517a20.378,20.378,0,0,0-.1-3.568,5.7,5.7,0,0,0-5.842-4.77,5.783,5.783,0,0,0-5.264,5.7c-.033.911-.02,1.826-.006,2.739,0,.313-.084.429-.391.42-.6-.021-1.206-.029-1.807,0-.376.019-.427-.152-.431-.489a24.115,24.115,0,0,0-.094-3.513,5.745,5.745,0,0,0-5.724-4.866,5.8,5.8,0,0,0-5.386,5.4c-.08,1.024-.034,2.048-.045,3.072,0,.272-.055.4-.351.394-2.411-.012-4.822-.008-7.233-.011A1.721,1.721,0,0,1,300.39,164.17Z" transform="translate(-292.088 -140.282)" fill="#e4332d"/><path d="M477.445,447.816c-.042.1-.1.212-.2.071a.445.445,0,0,1-.008-.274,9.606,9.606,0,0,0-1.636-6.318,30.108,30.108,0,0,0-3.539-4.374,11.115,11.115,0,0,1-2.6-4.357,9.8,9.8,0,0,1,1.232-7.741,19.521,19.521,0,0,1,6.451-6.523c.014.634-.133,1.187-.093,1.754a11.544,11.544,0,0,0,2.074,5.541,25.806,25.806,0,0,0,2.721,3.279,12.776,12.776,0,0,1,2.82,4.156,9.2,9.2,0,0,1-.45,7.452,18.47,18.47,0,0,1-6.538,7.248,1.2,1.2,0,0,1-.242.1c0-.041.006-.082.008-.123a6.977,6.977,0,0,0,1.367-1.459l.013-.013.08-.087a.062.062,0,0,0,.046-.069,13.018,13.018,0,0,0,1.709-2.5.614.614,0,0,0,.188-.353,8.118,8.118,0,0,0,.82-1.559c.013-.036.024-.074.037-.11a6.422,6.422,0,0,0,.62-1.455.47.47,0,0,0,.12-.34c.021-.033.04-.066.061-.1l.062-.227a7.664,7.664,0,0,0,.627-2.13.042.042,0,0,0,.01-.068l.055-.148c.017-.177.033-.353.05-.53a.215.215,0,0,0,.018-.229,4.6,4.6,0,0,0-.1-1.929,5.891,5.891,0,0,0-.877-2.4.048.048,0,0,0-.03-.064l-.086-.122.006,0a2.8,2.8,0,0,0-.651-.882l0,0a4.787,4.787,0,0,0-.359-.474,24.244,24.244,0,0,1-3.028-3.7.072.072,0,0,0-.041-.08l-.076-.113c-.022-.04-.042-.081-.064-.121q-.322-.617-.642-1.232L477.3,425l-.069-.108c-.009-.036-.017-.072-.026-.109q-.256-.727-.514-1.454c-.02-.08-.039-.16-.057-.24-.013-.037-.024-.076-.037-.113-.01-.07-.022-.14-.032-.211l-.071-.245c-.021-.145-.042-.289-.063-.434l-.04-.143c-.008-.06-.015-.121-.023-.181a3.264,3.264,0,0,0-.127-1.157,8.131,8.131,0,0,0-1.589,1.259l-.1.081a7.63,7.63,0,0,0-1.494,1.677c-.063.089-.126.178-.19.268l-.08.1-.068.1a5.434,5.434,0,0,0-.8,1.474l0,.007c-.02.03-.038.061-.057.092l-.086.224a4.985,4.985,0,0,0-.456,1.354,7.57,7.57,0,0,0,1.42,6.945,25.968,25.968,0,0,0,2.121,2.181,9.839,9.839,0,0,1,2.964,5.227,23.564,23.564,0,0,1,.248,2.826c0,.042-.01.083-.015.125-.012.087-.024.174-.036.26l-.017.21c-.011.178-.024.357-.036.535-.021.082-.041.163-.063.245s-.017.154-.025.232a11.754,11.754,0,0,0-.43,1.683l-.075.006Z" transform="translate(-441.481 -379.738)" fill="#057db6"/><path d="M495.44,466.978a.618.618,0,0,1-.188.353,1.771,1.771,0,0,1-.417-.024c-.274-.08-.351.053-.349.3.006.573-.3.675-.759.535a10.877,10.877,0,0,0-.185,1.684.061.061,0,0,1-.046.069l-.08.087L493.4,470c-.344.088-.622-.146-.932-.217.008-.077.017-.154.025-.231s.041-.163.063-.245c.012-.178.024-.357.036-.535a.123.123,0,0,0,.017-.21c.012-.087.024-.174.036-.259,0-.042.01-.083.016-.125a23.575,23.575,0,0,0-.248-2.826,9.845,9.845,0,0,0-2.964-5.227,26.152,26.152,0,0,1-2.121-2.181,7.566,7.566,0,0,1-1.42-6.945.583.583,0,0,0,.646-.483c.011-.262.188-.667-.189-.87l.086-.224.057-.092,0-.007c.966-.17,1.128-.468.805-1.474l.068-.1.08-.1c.063-.089.126-.179.19-.268.438.236.633.118.76-.462.033-.153-.061-.338.258-.341.58,0,.691-.263.476-.875l.1-.081c.19,0,.48.074.555-.027.382-.512.771-.184,1.162-.075.008.06.015.121.023.181s.026.1.04.142c.021.145.042.289.063.434a.267.267,0,0,0,.071.243c.01.07.022.14.032.211.013.037.024.076.037.113.02.08.039.16.057.24-.413.294-.234.767-.218,1.124s.435.332.732.33c.009.036.017.072.026.108l.069.109.077.211c-.3.94-.183,1.172.642,1.232.022.04.042.081.064.121l.076.113a.071.071,0,0,1,.041.08c-.016.183-.044.367-.047.55-.006.436-.016.758.532,1.005.367.165.632.751,1.08,1,.025.015.021.106.015.16-.044.417.169.574.529.563.286-.008.493.008.374.426-.034.122-.056.427.286.385a2.272,2.272,0,0,1,.618.089l0,0c-.091.545.076.881.651.882l-.006,0,.086.122a.049.049,0,0,1,.03.064,5.137,5.137,0,0,0,.187,1.737c.083.434.267.663.689.664a4.619,4.619,0,0,1,.1,1.929c-.006.076-.013.153-.018.23-.017.177-.033.353-.05.53l-.055.148a.042.042,0,0,1-.01.068.83.83,0,0,1-.759-.037c.347.287.477.541.046.8-.011.007,0,.075.013.1.148.286-.026.547-.075.81-.038.209-.071.36.148.452l-.062.227c-.021.033-.04.066-.061.1a.47.47,0,0,1-.121.34c-.282-.012-.737,0-.729.235.014.4-.268.858.109,1.22-.013.036-.024.074-.037.11a.787.787,0,0,0-.908.639A1.681,1.681,0,0,0,495.44,466.978Z" transform="translate(-456.075 -403.494)" fill="#fefefd"/><path d="M551.233,492.617a2.265,2.265,0,0,0-.618-.089c-.342.043-.32-.263-.285-.385.119-.417-.088-.433-.374-.426-.361.01-.572-.146-.529-.563.006-.054.01-.146-.015-.16-.448-.248-.713-.834-1.08-1-.548-.247-.538-.569-.532-1.005,0-.183.03-.367.047-.55a24.236,24.236,0,0,0,3.029,3.7A4.933,4.933,0,0,1,551.233,492.617Z" transform="translate(-511.126 -441.422)" fill="#fdfdfb"/><path d="M554.582,630.115a10.751,10.751,0,0,1,.185-1.684c.459.141.765.039.759-.535,0-.251.073-.383.349-.3a1.769,1.769,0,0,0,.417.024A13.113,13.113,0,0,1,554.582,630.115Z" transform="translate(-517.114 -563.779)" fill="#fdfdfb"/><path d="M585.1,534.331c-.423,0-.608-.23-.689-.664a5.137,5.137,0,0,1-.187-1.737A5.905,5.905,0,0,1,585.1,534.331Z" transform="translate(-543.352 -479.669)" fill="#fdfdfb"/><path d="M519,438.577c-.391-.11-.78-.438-1.162.075-.074.1-.365.023-.555.027a8.088,8.088,0,0,1,1.589-1.259A3.262,3.262,0,0,1,519,438.577Z" transform="translate(-484.107 -396.553)" fill="#fdfdfb"/><path d="M542.045,648.29c.311.071.587.306.932.217a7.009,7.009,0,0,1-1.367,1.459l.006.007A11.483,11.483,0,0,1,542.045,648.29Z" transform="translate(-505.647 -582.002)" fill="#fdfdfb"/><path d="M504.874,448.53c.216.612.1.87-.476.875-.32,0-.225.187-.258.341-.127.58-.322.7-.76.462A7.666,7.666,0,0,1,504.874,448.53Z" transform="translate(-471.801 -406.324)" fill="#fdfdfb"/><path d="M584.915,577.8c-.219-.092-.186-.245-.148-.452.047-.263.222-.523.074-.81-.016-.03-.024-.1-.013-.105.431-.259.3-.514-.046-.8a.83.83,0,0,0,.759.037A7.661,7.661,0,0,1,584.915,577.8Z" transform="translate(-543.831 -518.101)" fill="#fdfdfb"/><path d="M494.225,466.34c.322,1.007.161,1.3-.8,1.474A5.434,5.434,0,0,1,494.225,466.34Z" transform="translate(-462.983 -421.987)" fill="#fdfdfb"/><path d="M570.324,613.6a1.674,1.674,0,0,1-.088-.92.787.787,0,0,1,.908-.639A8.122,8.122,0,0,1,570.324,613.6Z" transform="translate(-530.958 -550.116)" fill="#fdfdfb"/><path d="M533.488,461.464c-.3,0-.716.034-.732-.33s-.195-.829.218-1.124Q533.231,460.737,533.488,461.464Z" transform="translate(-497.763 -416.42)" fill="#fdfdfb"/><path d="M577.216,600.564c-.377-.362-.1-.823-.109-1.22-.008-.231.447-.247.729-.235A6.424,6.424,0,0,1,577.216,600.564Z" transform="translate(-536.995 -538.747)" fill="#fdfdfb"/><path d="M488.626,481.25c.378.2.2.609.189.87a.584.584,0,0,1-.646.483A5.026,5.026,0,0,1,488.626,481.25Z" transform="translate(-458.335 -435.099)" fill="#fdfdfb"/><path d="M540.507,476.852c-.826-.06-.946-.292-.642-1.232Q540.187,476.237,540.507,476.852Z" transform="translate(-503.967 -430.148)" fill="#fdfdfb"/><path d="M578.245,524c-.576,0-.741-.338-.651-.883A2.78,2.78,0,0,1,578.245,524Z" transform="translate(-537.485 -471.921)" fill="#fdfdfb"/><path d="M546.487,638.16a.122.122,0,0,1-.017.21Z" transform="translate(-509.95 -573.093)" fill="#fdfdfb"/><path d="M545.673,644.34c-.021.082-.041.163-.063.245C545.632,644.5,545.652,644.421,545.673,644.34Z" transform="translate(-509.188 -578.528)" fill="#fdfdfb"/><path d="M592.74,568.08c.006-.077.013-.153.018-.23A.222.222,0,0,1,592.74,568.08Z" transform="translate(-550.914 -511.259)" fill="#fdfdfb"/><path d="M533.39,453.554a.267.267,0,0,1-.071-.243C533.343,453.391,533.366,453.472,533.39,453.554Z" transform="translate(-498.304 -410.527)" fill="#fdfdfb"/><path d="M532.48,448.662c-.014-.047-.026-.1-.04-.142C532.454,448.567,532.468,448.615,532.48,448.662Z" transform="translate(-497.529 -406.315)" fill="#fdfdfb"/><path d="M553.63,649.347l.08-.087Z" transform="translate(-516.289 -582.854)" fill="#fdfdfb"/><path d="M541.071,662.3c-.024-.034-.048-.066-.071-.1l.075-.006-.006-.007c0,.041-.006.082-.008.123Z" transform="translate(-505.107 -594.226)" fill="#fdfdfb"/><path d="M539.839,473.079l-.069-.109Z" transform="translate(-504.018 -427.817)" fill="#fdfdfb"/><path d="M585.2,595.589c.021-.033.04-.066.061-.1C585.241,595.524,585.221,595.556,585.2,595.589Z" transform="translate(-544.238 -535.567)" fill="#fdfdfb"/><path d="M583.5,530.522l-.086-.122Z" transform="translate(-542.654 -478.324)" fill="#fdfdfb"/><path d="M546.946,634.97c-.006.042-.01.083-.016.125C546.936,635.053,546.94,635.012,546.946,634.97Z" transform="translate(-510.357 -570.287)" fill="#fdfdfb"/><path d="M534.277,457.183c-.013-.037-.024-.076-.037-.113C534.253,457.109,534.264,457.146,534.277,457.183Z" transform="translate(-499.122 -413.834)" fill="#fdfdfb"/><path d="M501.11,464.67l-.08.1Z" transform="translate(-469.72 -420.518)" fill="#fdfdfb"/><path d="M547.266,486.963l-.076-.113C547.216,486.887,547.242,486.925,547.266,486.963Z" transform="translate(-510.587 -440.024)" fill="#fdfdfb"/><path d="M492.947,478.63c-.019.03-.038.062-.057.092C492.91,478.692,492.929,478.66,492.947,478.63Z" transform="translate(-462.514 -432.795)" fill="#fdfdfb"/><path d="M591.82,574.3l.055-.148Z" transform="translate(-550.099 -516.8)" fill="#fdfdfb"/></g></svg>