<svg xmlns="http://www.w3.org/2000/svg" width="35.411" height="35.388" viewBox="0 0 35.411 35.388"><path d="M20.053-511.876a13.594,13.594,0,0,0-11.037,8.1l-.252.592-.279-.2c-.157-.116-.395-.286-.531-.381a.851.851,0,0,1-.259-.218c0-.02.048-.211.1-.415a4.829,4.829,0,0,0,0-1.926,3.972,3.972,0,0,0-1.579-2.246,3.453,3.453,0,0,0-1.946-.646,3.527,3.527,0,0,0-1.953.374,4.231,4.231,0,0,0-1.756,1.735,3.879,3.879,0,0,0,.762,4.512,3.9,3.9,0,0,0,3.518,1.027A4.522,4.522,0,0,0,6.3-502.22c.088-.136.245-.054,1.055.544.762.572.823.633.789.8a14,14,0,0,0,.687,7.363c.17.435.8,1.742.98,2.028.088.143-.129.374-4.5,4.757-3.43,3.443-4.641,4.7-4.777,4.961a3.107,3.107,0,0,0,.558,3.709A3.074,3.074,0,0,0,4.8-477.5c.259-.136,1.511-1.341,4.947-4.77,2.531-2.525,4.634-4.58,4.661-4.566s.32.17.64.347A14.31,14.31,0,0,0,19.6-485a18.154,18.154,0,0,0,3.845-.027A13.489,13.489,0,0,0,32-489.937a13.715,13.715,0,0,0,2.831-6.4,17.127,17.127,0,0,0-.034-4.335,13.351,13.351,0,0,0-3.783-7.308,12.665,12.665,0,0,0-3.668-2.613A13.591,13.591,0,0,0,20.053-511.876Zm3.532,2.171a11.491,11.491,0,0,1,8.635,7.3,11.508,11.508,0,0,1-5.709,14.3,11.5,11.5,0,0,1-14-3.1A11.513,11.513,0,0,1,10-497.47a6.018,6.018,0,0,1,.082-2.15c.048.02,4.076,2.981,4.239,3.123a1.1,1.1,0,0,1-.054.483,3.934,3.934,0,0,0,2.77,4.716,4.512,4.512,0,0,0,2,0,4.053,4.053,0,0,0,2.273-1.688,3.876,3.876,0,0,0,.279-3.606l-.17-.4,2.314-2.307,2.307-2.314-.191,1.4-.2,1.4.136.3a.92.92,0,0,0,.939.578.927.927,0,0,0,.871-.544c.1-.184.714-4.382.714-4.845a2.159,2.159,0,0,0-1.81-1.994,40.638,40.638,0,0,0-5.063.7,1,1,0,0,0,.027,1.8l.265.136,1.388-.184c.762-.109,1.4-.177,1.415-.163s-.993,1.048-2.246,2.3l-2.28,2.28-.218-.1a3.908,3.908,0,0,0-1.722-.374,3.565,3.565,0,0,0-2.035.538,1.123,1.123,0,0,1-.5.2c-.048-.02-1.2-.864-2.565-1.871l-2.477-1.844.129-.374a11.613,11.613,0,0,1,5.818-6.492,12.1,12.1,0,0,1,3.709-1.089A14.6,14.6,0,0,1,23.585-509.7ZM4.77-507.044a1.8,1.8,0,0,1,1.089,1.7,1.815,1.815,0,0,1-3.049,1.334,1.8,1.8,0,0,1-.538-1.892A1.856,1.856,0,0,1,4.77-507.044ZM18.577-496.8a2.053,2.053,0,0,1,1.109.939,1.984,1.984,0,0,1,.1,1.388,1.847,1.847,0,0,1-3.416.184,1.846,1.846,0,0,1,.694-2.32A1.719,1.719,0,0,1,18.577-496.8Zm-8.54,11.323-2.613,2.62-.762-.769-.769-.762L8.506-487l2.613-2.613.769.755.762.762Zm-4.825,3.334.749.748-1.089,1.082c-1.164,1.157-1.286,1.238-1.837,1.136a1.179,1.179,0,0,1-.817-1.313c.041-.218.211-.429,1.109-1.334.585-.585,1.082-1.068,1.1-1.068S4.8-482.554,5.212-482.146Z" transform="translate(0.16 512.202)" fill="#ffbc05" stroke="#f7f7f7" stroke-width="0.5"/></svg>