<svg xmlns="http://www.w3.org/2000/svg" width="90.454" height="89.957" viewBox="0 0 90.454 89.957"><g transform="translate(-0.06 -0.02)"><g transform="translate(0.06 0.02)"><path d="M79.634,80.117a8.543,8.543,0,0,1-3.384-2.256,9.85,9.85,0,0,1-.808-1,3.775,3.775,0,0,1-.263-.41,10.254,10.254,0,0,1,1.762,0,13.252,13.252,0,0,1,1.788.186c.333.064.641.115,1.019.2a10.416,10.416,0,0,1,1.064.314l.532.192.513.205c.333.147.641.3.955.468.154.077.3.167.442.244l.417.237c.263.16.513.32.743.474.455.308.82.59,1.07.795s.391.327.391.327l-.141.051-.391.1a12.95,12.95,0,0,1-1.416.276,8.665,8.665,0,0,1-.955.071H81.909a7.1,7.1,0,0,1-1.128-.154,9.165,9.165,0,0,1-1.147-.3M85.96,70.5a8.213,8.213,0,0,0-.641.814c-.192.276-.372.538-.538.814a16.081,16.081,0,0,0-.743,1.532c-.218.461-.385.872-.493,1.16s-.16.461-.16.461a4.409,4.409,0,0,0,.481-.09,2.456,2.456,0,0,0,.538-.128,5.185,5.185,0,0,0,.641-.237c.211-.09.506-.211.775-.346.128-.064.269-.128.4-.211s.269-.167.4-.256a6.87,6.87,0,0,0,1.557-1.365,7.427,7.427,0,0,0,.641-.859,4.928,4.928,0,0,0,.25-.442c.077-.147.141-.3.205-.449a8.857,8.857,0,0,0,.532-1.647,10.075,10.075,0,0,0,.16-1.224v-.481s-.147.058-.385.179l-.423.211c-.16.09-.346.186-.538.3a15.231,15.231,0,0,0-1.282.9c-.224.186-.455.385-.679.609l-.173.173-.173.173C86.2,70.228,86.081,70.35,85.96,70.5Zm2.564,7.607a8.793,8.793,0,0,1-1.141-.205,8.032,8.032,0,0,1-1.025-.352,9.228,9.228,0,0,1-1.621-.865,10.522,10.522,0,0,1-1.013-.814,4.532,4.532,0,0,1-.346-.346s.167-.058.468-.128c.154-.038.333-.083.545-.122s.442-.1.7-.147a5.055,5.055,0,0,1,.872-.141l.461-.045.487-.045a14.17,14.17,0,0,1,2.141,0c.378.038.75.1,1.109.167l.526.115a2.317,2.317,0,0,1,.506.115,16.448,16.448,0,0,1,1.775.59c.506.192.923.378,1.211.519l.455.231s-.173.109-.487.276c-.154.083-.346.179-.564.282s-.481.2-.756.3A9.96,9.96,0,0,1,90.9,78a10.665,10.665,0,0,1-1.128.115h-.609a4.339,4.339,0,0,1-.641-.032ZM92.631,67.3c-.154.314-.308.641-.436.916s-.237.641-.333.923c-.051.154-.1.308-.141.455s-.083.288-.122.429c-.077.282-.141.551-.2.808-.109.506-.179.949-.218,1.282a1.843,1.843,0,0,1-.045.359.345.345,0,0,0,0,.128l.122-.045a1.3,1.3,0,0,0,.327-.147,12.616,12.616,0,0,0,1.1-.641,6.465,6.465,0,0,0,.641-.513q.346-.288.692-.641l.173-.179.16-.192c.109-.135.218-.269.32-.41a8.521,8.521,0,0,0,.57-.9,7.767,7.767,0,0,0,.641-1.923,8.69,8.69,0,0,0,.147-1.737,8.083,8.083,0,0,0-.1-1.224c-.051-.3-.09-.468-.09-.468l-.09.064c-.058.038-.141.115-.25.192a8.229,8.229,0,0,0-.827.731,10.972,10.972,0,0,0-2.044,2.73ZM96.8,74.138a6.454,6.454,0,0,1-1.16.045,9.052,9.052,0,0,1-1.07-.1l-.493-.09-.468-.128c-.295-.083-.57-.179-.82-.276a9.536,9.536,0,0,1-1.154-.551c-.135-.071-.237-.141-.308-.186l-.109-.07.429-.237A10.331,10.331,0,0,1,92.8,72c.25-.09.506-.211.795-.314s.583-.205.9-.295l.25-.07.244-.07.513-.128a9.311,9.311,0,0,1,1.1-.179,11.4,11.4,0,0,1,2.173-.09,15.13,15.13,0,0,1,1.846.16c.538.083,1,.186,1.282.25s.487.128.487.128a1.171,1.171,0,0,0-.1.1c-.07.064-.167.16-.308.269a12.7,12.7,0,0,1-1.166.859c-.122.083-.25.167-.391.25l-.436.231c-.3.16-.641.308-.961.449-.173.07-.346.141-.526.2s-.372.115-.558.16a9.871,9.871,0,0,1-1.141.224ZM98.431,62.7a8.863,8.863,0,0,0-.218.993,4.355,4.355,0,0,1-.07.493c-.019.167-.045.32-.064.481a15.5,15.5,0,0,0-.071,1.756,9.159,9.159,0,0,0,.051,1.282,4.756,4.756,0,0,0,.051.487s.147-.1.391-.282a7.947,7.947,0,0,0,.936-.865c.179-.192.365-.41.551-.641a9.257,9.257,0,0,0,.532-.782,8.453,8.453,0,0,0,.474-.9,8.183,8.183,0,0,0,.352-1.013,6.953,6.953,0,0,0,.2-1.045,8.87,8.87,0,0,0,.032-1,8.185,8.185,0,0,0-.071-.916c-.038-.282-.1-.558-.154-.808a10.653,10.653,0,0,0-.365-1.173c-.109-.282-.186-.436-.186-.436s-.109.109-.282.32q-.122.154-.288.385c-.109.154-.218.333-.352.519a6.243,6.243,0,0,0-.391.641c-.064.115-.128.231-.192.359l-.09.192-.1.192a7.863,7.863,0,0,0-.365.84c-.058.147-.109.308-.16.468s-.1.282-.147.449Zm5.556,5.768a8.639,8.639,0,0,1-1.122.308l-.538.09-.532.045a10.176,10.176,0,0,1-1.833-.083,8.5,8.5,0,0,1-1.282-.288l-.461-.16s.128-.128.372-.327.577-.474,1.006-.782c.211-.154.449-.314.711-.474s.519-.333.814-.5.6-.32.929-.468a9.187,9.187,0,0,1,1.019-.436c.352-.128.724-.231,1.07-.327s.692-.179,1.025-.237.641-.115.981-.154.6-.071.872-.09c.538-.045,1-.058,1.32-.051s.506,0,.506,0-.109.173-.32.455l-.4.5a7.5,7.5,0,0,1-.551.6c-.211.211-.449.429-.7.641-.128.115-.263.224-.4.333s-.135.109-.211.167l-.224.154a9.235,9.235,0,0,1-.981.59c-.173.09-.346.179-.526.263a5.374,5.374,0,0,1-.538.205ZM103.1,56.936v1.019a8.309,8.309,0,0,0,.077.974c.038.333.09.641.147.916s.1.564.16.814c.115.506.237.929.327,1.23s.16.468.16.468.122-.135.32-.372c.1-.122.205-.269.333-.449a5.346,5.346,0,0,0,.391-.6,9.927,9.927,0,0,0,.75-1.628,9.26,9.26,0,0,0,.263-.987,6.351,6.351,0,0,0,.128-1.064,8.259,8.259,0,0,0-.038-1.064,6.025,6.025,0,0,0-.179-.981,9.12,9.12,0,0,0-.59-1.628c-.058-.115-.109-.224-.167-.327s-.109-.2-.16-.288-.211-.327-.295-.455a4.388,4.388,0,0,0-.282-.385s-.077.135-.192.378a10.688,10.688,0,0,0-.436,1.019c-.077.211-.16.449-.231.7s-.16.519-.224.8-.115.6-.167.91a7.9,7.9,0,0,0-.1.981Zm6.672,4.377c-.173.1-.34.205-.513.295l-.256.135-.256.115a9.864,9.864,0,0,1-1.019.365c-.333.1-.641.167-.949.224a7.513,7.513,0,0,1-.865.1,10.509,10.509,0,0,1-1.282,0,1.859,1.859,0,0,1-.481-.051s.1-.154.282-.4c.1-.122.211-.276.352-.436s.3-.346.468-.545a14.186,14.186,0,0,1,1.282-1.282,9.324,9.324,0,0,1,.795-.641c.282-.224.6-.429.9-.641a9.755,9.755,0,0,1,.968-.564c.327-.173.641-.314.961-.455a15.029,15.029,0,0,1,1.75-.641l.378-.109.34-.1q.314-.09.558-.135c.308-.07.493-.1.493-.1s-.07.2-.211.519a9.439,9.439,0,0,1-.686,1.282c-.16.256-.34.526-.538.8a9.8,9.8,0,0,1-.692.82,9.567,9.567,0,0,1-.814.795,10.685,10.685,0,0,1-.968.647ZM106.4,50.271a9.934,9.934,0,0,0,.519,1.923,13.364,13.364,0,0,0,.641,1.615c.224.468.442.859.59,1.122s.25.417.25.417.1-.147.237-.423a10.644,10.644,0,0,0,.474-1.192,8.062,8.062,0,0,0,.372-1.75c0-.167.038-.333.045-.5a4.678,4.678,0,0,0,0-.519,7.687,7.687,0,0,0-.109-1.07c-.032-.179-.064-.352-.109-.519a5.218,5.218,0,0,0-.16-.506,8.037,8.037,0,0,0-.391-.916,7.4,7.4,0,0,0-.936-1.455,9.953,9.953,0,0,0-.827-.9c-.218-.2-.352-.308-.352-.308a7.05,7.05,0,0,0-.308,1.5,11.369,11.369,0,0,0,.038,3.48Zm7.46,2.775a9.408,9.408,0,0,1-1.794,1.352,9.685,9.685,0,0,1-1.711.724,7.9,7.9,0,0,1-1.243.295c-.308.045-.487.051-.487.051s.064-.167.2-.449a12.7,12.7,0,0,1,.577-1.154c.276-.455.57-.993.961-1.538.1-.135.205-.276.314-.41s.205-.282.32-.423a10.951,10.951,0,0,1,.743-.859c.135-.141.276-.269.417-.4l.4-.372a9.063,9.063,0,0,1,.833-.641c.564-.4,1.089-.75,1.564-1.025s.878-.487,1.173-.641a3.6,3.6,0,0,1,.468-.211,13.13,13.13,0,0,1-.481,1.961,13.874,13.874,0,0,1-.846,1.852A10.055,10.055,0,0,1,113.863,53.046Zm-5.717-10.011a8.677,8.677,0,0,0,.442.916c.154.276.314.577.487.846.333.538.711,1.025,1.013,1.429a12.251,12.251,0,0,0,.814.961c.205.224.346.352.346.352s.058-.173.128-.474c.038-.147.077-.333.115-.545,0-.109.045-.218.058-.34a1.992,1.992,0,0,1,.038-.378v-.846a6.081,6.081,0,0,0-.051-.949,9.722,9.722,0,0,0-.186-1,5.089,5.089,0,0,0-.141-.513c-.051-.167-.122-.333-.192-.506a8.165,8.165,0,0,0-.493-.942,5.851,5.851,0,0,0-.57-.808,9.043,9.043,0,0,0-1.237-1.211c-.192-.16-.378-.295-.545-.41s-.333-.211-.461-.288a4.171,4.171,0,0,0-.417-.224v.429c0,.276,0,.641.038,1.109a5.356,5.356,0,0,0,.09.737c.038.263.077.538.141.827a8.369,8.369,0,0,0,.237.891,8.592,8.592,0,0,0,.346.936Zm7.883,1.038a8.121,8.121,0,0,1-.692.942,9.614,9.614,0,0,1-.763.769,8.831,8.831,0,0,1-1.493,1.09,9.857,9.857,0,0,1-1.16.558,4.281,4.281,0,0,1-.461.16,1.94,1.94,0,0,1,.09-.487,2.941,2.941,0,0,1,.128-.545c.032-.1.064-.211.1-.333s.058-.237.1-.365c.07-.256.154-.532.256-.82s.231-.583.346-.9a8.935,8.935,0,0,1,.429-.955c.083-.16.173-.327.269-.487s.179-.327.276-.487a9.856,9.856,0,0,1,.641-.929c.218-.295.461-.57.673-.833a15.578,15.578,0,0,1,1.282-1.346l.57-.5c.167-.141.314-.269.442-.365.25-.2.4-.308.4-.308s0,.205.032.564a11.006,11.006,0,0,1-.083,1.448c-.032.3-.077.641-.141.955s-.167.686-.276,1.038a10.372,10.372,0,0,1-.391,1.077,10.629,10.629,0,0,1-.57,1.057Zm-7.735-8.5a6.749,6.749,0,0,0,.641.8c.244.256.455.487.641.711a14.684,14.684,0,0,0,1.282,1.173c.205.167.4.308.57.436l.442.327c.25.173.4.263.4.263V38.8a8.6,8.6,0,0,0-.083-1.282c-.032-.256-.071-.538-.135-.833a9.034,9.034,0,0,0-.269-.91,9.611,9.611,0,0,0-.378-.942,9.292,9.292,0,0,0-.564-.916,7.048,7.048,0,0,0-.641-.814,8.78,8.78,0,0,0-.75-.641,7.806,7.806,0,0,0-1.461-.91,8.793,8.793,0,0,0-1.134-.449c-.282-.09-.449-.128-.449-.128a3.532,3.532,0,0,0,.071.417,2.017,2.017,0,0,0,.115.474l.083.282a1.2,1.2,0,0,0,.083.314c.064.224.147.455.237.7s.218.5.327.769a7.607,7.607,0,0,0,.417.82c.077.141.167.276.256.417S108.192,35.435,108.294,35.576Zm7.915-.731a10.46,10.46,0,0,1-.481,1.077,7.158,7.158,0,0,1-.57.916,9.44,9.44,0,0,1-1.23,1.391c-.192.179-.372.34-.545.474a5.4,5.4,0,0,1-.461.327,4.171,4.171,0,0,1-.417.263V37.518a7.155,7.155,0,0,1,.09-.852c.038-.3.07-.641.128-.955s.141-.679.231-1.025.186-.711.308-1.077.282-.711.429-1.045.3-.641.461-.961c.327-.6.692-1.154.987-1.6a13.12,13.12,0,0,1,.788-1.07c.205-.25.333-.385.333-.385s.064.192.147.538c.038.173.09.378.135.641a3.005,3.005,0,0,0,.064.385c.019.135.032.282.045.429,0,.3.051.641.058.968a7.608,7.608,0,0,1,0,1.07c-.038.378-.09.756-.167,1.141q-.058.288-.135.577A5.019,5.019,0,0,1,116.209,34.845Zm-9.4-6.569c.128.115.263.224.4.327l.385.314c.263.2.532.378.8.551a16.191,16.191,0,0,0,1.519.852c.461.211.865.4,1.154.513s.461.173.461.173a10.388,10.388,0,0,0-.429-1.718,11.764,11.764,0,0,0-.788-1.615,8.087,8.087,0,0,0-1.282-1.6,7.806,7.806,0,0,0-1.7-1.122,8.178,8.178,0,0,0-1.634-.551,7.4,7.4,0,0,0-1.2-.192,4.325,4.325,0,0,0-.474,0s.058.141.173.385a7.939,7.939,0,0,0,.5.987,12.485,12.485,0,0,0,.872,1.282l.282.352.3.352a8.976,8.976,0,0,0,.667.7Zm7.562-2.48a3.049,3.049,0,0,1-.09.59c-.038.192-.09.385-.141.564a8.845,8.845,0,0,1-.359,1.032,8.332,8.332,0,0,1-.9,1.628,9.611,9.611,0,0,1-.8,1.006c-.212.224-.346.346-.346.346a10.586,10.586,0,0,1-.359-1.743A11.3,11.3,0,0,1,111.2,27.4a11.964,11.964,0,0,1,.064-2.173,12.319,12.319,0,0,1,.429-2.153,16.523,16.523,0,0,1,.6-1.782c.205-.513.41-.936.545-1.224a4.244,4.244,0,0,1,.237-.449s.109.173.269.487a12.086,12.086,0,0,1,.545,1.352,10.422,10.422,0,0,1,.468,1.987c0,.186.051.372.064.564a4.347,4.347,0,0,1,0,.583,10.9,10.9,0,0,1-.038,1.2Zm-10.594-4.307a8.369,8.369,0,0,0,.9.449c.308.135.641.25.91.359a14.2,14.2,0,0,0,1.666.487l.692.154.538.1c.3.051.481.064.481.064s-.058-.167-.186-.455a7.639,7.639,0,0,0-.641-1.122c-.141-.218-.3-.455-.481-.692a6.442,6.442,0,0,0-.641-.7,6.954,6.954,0,0,0-.75-.679,7.607,7.607,0,0,0-.891-.583c-.16-.09-.32-.173-.474-.244l-.237-.109-.244-.09a7.441,7.441,0,0,0-.955-.269,8.049,8.049,0,0,0-.891-.147c-.288,0-.564-.038-.814-.038a9.178,9.178,0,0,0-1.218.083c-.295.045-.461.083-.461.083s.083.135.244.346c.077.109.179.237.3.378s.269.295.41.468a10.517,10.517,0,0,0,1.141,1.083,7.318,7.318,0,0,0,.718.558C103.206,21.156,103.494,21.316,103.782,21.489Zm6.832-4.108a10.4,10.4,0,0,1,0,1.173,8.227,8.227,0,0,1-.122,1.083,9.857,9.857,0,0,1-.519,1.788c-.045.122-.1.244-.147.352s-.1.218-.154.314a5.589,5.589,0,0,1-.269.5c-.16.269-.263.417-.263.417s-.09-.16-.224-.442-.327-.679-.513-1.179c-.1-.244-.192-.513-.282-.808s-.205-.59-.295-.916-.16-.673-.231-1.025a9.891,9.891,0,0,1-.179-1.1,2.815,2.815,0,0,0-.038-.57,2.764,2.764,0,0,1,0-.564V15.337a8.282,8.282,0,0,1,.09-1c.038-.32.07-.6.115-.872.083-.545.179-1,.256-1.314s.141-.5.141-.5.135.154.359.429c.109.135.237.308.385.506a7.355,7.355,0,0,1,.449.679,12.451,12.451,0,0,1,.891,1.827c.128.352.237.724.333,1.1A7.049,7.049,0,0,1,110.614,17.381ZM99.335,15.542a9.517,9.517,0,0,0,.981.237c.34.07.641.115.955.154s.641.058.916.07.564.032.82.032A11.88,11.88,0,0,0,104.289,16a2.211,2.211,0,0,0,.487-.045s-.1-.154-.282-.4c-.1-.128-.211-.276-.352-.436a4.486,4.486,0,0,0-.487-.532,7.279,7.279,0,0,0-.641-.558l-.359-.288-.192-.141-.205-.128c-.276-.173-.577-.34-.884-.493-.154-.07-.314-.141-.481-.205a4.377,4.377,0,0,0-.513-.173,7.562,7.562,0,0,0-1.032-.211l-.493-.051h-.487a9.165,9.165,0,0,0-1.7.2,7.992,7.992,0,0,0-1.173.359,4.562,4.562,0,0,0-.436.179s.109.109.32.282.5.41.872.673a6.245,6.245,0,0,0,.641.391c.244.128.461.282.724.417a9.064,9.064,0,0,0,.833.372A7.434,7.434,0,0,0,99.335,15.542Zm5.768-5.524a7.516,7.516,0,0,1,.282,1.134,9.608,9.608,0,0,1,.109,1.089,8.388,8.388,0,0,1,0,.987,6.019,6.019,0,0,1-.1.872,11.678,11.678,0,0,1-.3,1.282c-.1.295-.167.461-.167.461s-.122-.135-.32-.378c-.1-.122-.211-.269-.333-.442s-.263-.385-.417-.6-.308-.455-.468-.718q-.115-.192-.231-.4l-.115-.218-.122-.218q-.237-.442-.461-.942c-.07-.167-.141-.333-.205-.513s-.135-.346-.2-.532a10.894,10.894,0,0,1-.308-1.083c-.045-.179-.083-.359-.115-.532s-.07-.346-.1-.513a15.624,15.624,0,0,1-.205-1.878,13,13,0,0,1,0-1.333,1.52,1.52,0,0,0,0-.513s.173.115.449.333a9.287,9.287,0,0,1,1.07.981c.205.211.423.455.641.711s.417.564.641.872a10.574,10.574,0,0,1,.57.993,10.12,10.12,0,0,1,.417,1.1Zm-11.388.7a10.087,10.087,0,0,0,1.974-.051A16.023,16.023,0,0,0,97.4,10.4c.5-.109.929-.237,1.224-.32s.455-.147.455-.147l-.09-.09a2.722,2.722,0,0,0-.263-.244,12.245,12.245,0,0,0-1.032-.743,7.851,7.851,0,0,0-3.608-1.218,5.768,5.768,0,0,0-1.057,0,8.806,8.806,0,0,0-.974.167,4.486,4.486,0,0,0-.442.115l-.429.141c-.269.1-.519.211-.75.32a8.172,8.172,0,0,0-1.057.6,3.206,3.206,0,0,0-.282.2l-.1.077.372.205a7.447,7.447,0,0,0,1,.455c.211.077.436.179.686.256a7.792,7.792,0,0,0,.795.237l.218.045.218.051c.147.038.295.064.455.1A7.69,7.69,0,0,0,93.714,10.716Zm4.422-6.672A9.235,9.235,0,0,1,99,6.128a9.376,9.376,0,0,1,.288,1.846,9.043,9.043,0,0,1,0,1.282,4.261,4.261,0,0,1-.064.493l-.1-.077c-.064-.051-.154-.135-.282-.231a11.2,11.2,0,0,1-.968-.84,14.881,14.881,0,0,1-2.519-3.057c-.192-.34-.378-.641-.538-.987s-.308-.641-.436-.974L94.2,3.1c-.064-.154-.115-.308-.167-.455-.1-.295-.192-.577-.269-.84-.154-.532-.256-.987-.314-1.282-.032-.167-.058-.288-.07-.372V.02l.135.051.372.173c.314.16.756.4,1.282.718a7.947,7.947,0,0,1,.775.57c.263.211.532.442.8.7l.2.192.192.211c.128.147.256.295.378.449a10.606,10.606,0,0,1,.622.961Zm-8.5-2.807a8.5,8.5,0,0,1,.968.641,4.485,4.485,0,0,1,.423.359c.128.122.256.244.378.372a9.555,9.555,0,0,1,1.147,1.448,10.1,10.1,0,0,1,.641,1.154c.122.288.179.455.179.455a2.567,2.567,0,0,1-.481-.064l-.545-.109c-.211-.045-.449-.09-.7-.154-.513-.115-1.1-.314-1.724-.526a9.87,9.87,0,0,1-.961-.4L88.7,4.3l-.244-.115c-.167-.083-.333-.167-.5-.263a10.8,10.8,0,0,1-.949-.6,9.86,9.86,0,0,1-.852-.641,16.946,16.946,0,0,1-1.4-1.282,6.741,6.741,0,0,1-.936-.91,5.035,5.035,0,0,1-.327-.4s.205-.032.551-.058h.641a7.306,7.306,0,0,1,.808.032c.295.032.641.058.955.1a2.462,2.462,0,0,1,.513.09l.526.128a8.331,8.331,0,0,1,2.147.846ZM78.782,72.1a14.035,14.035,0,0,0-2.608,2.653c-.32.41-.57.775-.737,1.038s-.256.423-.256.423a9.575,9.575,0,0,0,1.743-.083,8.877,8.877,0,0,0,1.724-.442,5.325,5.325,0,0,0,.923-.417,8,8,0,0,0,.9-.564,4.113,4.113,0,0,0,.41-.34c.135-.122.256-.244.378-.365a7.576,7.576,0,0,0,.641-.756c.1-.128.186-.25.269-.378s.16-.263.231-.391a7.892,7.892,0,0,0,.372-.731A9.441,9.441,0,0,0,83.2,70.6c.083-.282.115-.455.115-.455H83.21L82.9,70.2a8.761,8.761,0,0,0-1.051.3c-.212.083-.449.154-.692.25s-.493.211-.756.346-.532.269-.8.429a9.67,9.67,0,0,0-.82.57Z" transform="translate(-27.037 -0.02)" fill="#fff"/><path d="M37.885,80.117a8.5,8.5,0,0,0,3.384-2.256,8.331,8.331,0,0,0,.808-1,4.851,4.851,0,0,0,.269-.41,10.254,10.254,0,0,0-1.762,0,13.243,13.243,0,0,0-1.794.186c-.327.064-.641.115-1.013.2a10.513,10.513,0,0,0-1.07.314l-.532.192-.506.205c-.333.147-.641.3-.955.468-.154.077-.3.167-.449.244l-.41.237c-.269.16-.519.32-.743.474-.455.308-.82.59-1.077.795s-.385.327-.385.327l.135.051.4.1a12.652,12.652,0,0,0,1.416.276,8.55,8.55,0,0,0,.955.071H35.61a7.049,7.049,0,0,0,1.134-.154,9.371,9.371,0,0,0,1.141-.3M31.553,70.5c.218.263.423.532.641.814a7.04,7.04,0,0,1,.532.814,16.081,16.081,0,0,1,.814,1.557c.224.461.385.872.493,1.16s.16.461.16.461a4.484,4.484,0,0,1-.474-.09,2.3,2.3,0,0,1-.538-.128c-.205-.058-.429-.147-.673-.237a7.8,7.8,0,0,1-.769-.346,4.07,4.07,0,0,1-.4-.211c-.135-.077-.276-.167-.41-.256a6.87,6.87,0,0,1-1.557-1.365,9.35,9.35,0,0,1-.641-.859,3.691,3.691,0,0,1-.244-.442c-.077-.147-.147-.3-.211-.449a8.331,8.331,0,0,1-.526-1.647,8.926,8.926,0,0,1-.16-1.224c0-.3,0-.481,0-.481s.147.058.385.179c.122.058.263.135.423.224l.545.3c.385.231.814.558,1.282.9.231.186.455.385.686.609l.167.173.173.173C31.328,70.228,31.425,70.35,31.553,70.5Zm-2.564,7.607a8.792,8.792,0,0,0,1.141-.205,8.032,8.032,0,0,0,1.025-.352,9.466,9.466,0,0,0,1.621-.865,9.574,9.574,0,0,0,1.006-.814c.231-.211.352-.346.352-.346s-.173-.058-.474-.128c-.147-.038-.327-.083-.538-.122s-.449-.1-.7-.147-.538-.09-.84-.122l-.468-.045-.481-.045a14.252,14.252,0,0,0-2.147,0c-.378.038-.743.1-1.1.167l-.526.115a2.317,2.317,0,0,0-.506.115,15.983,15.983,0,0,0-1.775.59c-.506.192-.923.378-1.218.519s-.449.231-.449.231.173.109.481.276c.16.083.346.179.564.282s.481.2.763.3a9.838,9.838,0,0,0,1.955.506,10.665,10.665,0,0,0,1.128.115h.59c.186-.013.385-.026.59-.051ZM24.894,67.3c.154.314.308.641.429.916s.244.641.34.923c.051.154.09.308.135.455s.09.288.128.429q.115.423.192.808c.115.506.179.949.224,1.282a.906.906,0,0,0,.038.359.942.942,0,0,1,0,.128l-.115-.045a1.3,1.3,0,0,1-.327-.147c-.276-.141-.641-.352-1.1-.641a7.177,7.177,0,0,1-.641-.513,9.061,9.061,0,0,1-.7-.641l-.167-.179-.167-.192c-.109-.135-.211-.269-.314-.41a8.523,8.523,0,0,1-.57-.9,7.793,7.793,0,0,1-.673-1.923,9.2,9.2,0,0,1-.147-1.737,7.947,7.947,0,0,1,.1-1.224,4.6,4.6,0,0,1,.09-.468l.09.064c.058.038.135.115.244.192a7.574,7.574,0,0,1,.827.731,10.978,10.978,0,0,1,2.083,2.73Zm-4.179,6.838a6.525,6.525,0,0,0,1.166.045,9.191,9.191,0,0,0,1.07-.1l.493-.09.461-.128a8.172,8.172,0,0,0,.82-.276,9.242,9.242,0,0,0,1.16-.551c.128-.07.237-.141.308-.186l.109-.07-.429-.237A10.519,10.519,0,0,0,24.715,72c-.25-.09-.5-.211-.788-.314a9.5,9.5,0,0,0-.91-.295l-.244-.07-.244-.07-.513-.128a9.773,9.773,0,0,0-1.1-.179,11.4,11.4,0,0,0-2.173-.09,15.239,15.239,0,0,0-1.852.16c-.538.083-.993.186-1.282.25s-.487.128-.487.128l.1.1c.07.064.167.16.3.269a10.474,10.474,0,0,0,1.166.859l.391.25.436.231c.3.16.641.308.968.449.173.07.346.141.526.2s.365.115.558.16a9.767,9.767,0,0,0,1.141.224ZM19.088,62.7a8.889,8.889,0,0,1,.224.993,4.355,4.355,0,0,0,.07.493l.058.481a14.222,14.222,0,0,1,.077,1.756,9.159,9.159,0,0,1-.051,1.282,3.552,3.552,0,0,0-.051.487s-.147-.1-.4-.282a7.972,7.972,0,0,1-.929-.865c-.179-.192-.365-.41-.558-.641A7.222,7.222,0,0,1,17,65.627a8.453,8.453,0,0,1-.474-.9,7.255,7.255,0,0,1-.352-1.013,6.953,6.953,0,0,1-.2-1.045,7.581,7.581,0,0,1,0-1,4.2,4.2,0,0,1,.064-.916c.064-.276.1-.558.16-.808a9.422,9.422,0,0,1,.365-1.173c.109-.282.186-.436.186-.436a3.978,3.978,0,0,1,.276.32c.083.1.186.231.295.385l.346.519a6.245,6.245,0,0,1,.391.641c.064.115.128.231.192.359l.1.192.1.192a7.862,7.862,0,0,1,.372.84c.051.147.109.308.154.468S19.043,62.538,19.088,62.7Zm-5.556,5.768a9.011,9.011,0,0,0,1.128.308l.538.09.526.045a10.255,10.255,0,0,0,1.839-.083,8.914,8.914,0,0,0,1.282-.288l.461-.16s-.128-.128-.372-.327-.583-.474-1.006-.782c-.218-.154-.455-.314-.711-.474s-.526-.333-.814-.5a9.793,9.793,0,0,0-.936-.468,8.594,8.594,0,0,0-1.013-.436c-.359-.128-.724-.231-1.07-.327a10.371,10.371,0,0,0-1.032-.237c-.333-.064-.641-.115-.974-.154s-.6-.071-.872-.09c-.538-.045-1-.058-1.32-.051s-.513,0-.513,0,.115.173.327.455c.109.141.237.308.4.5a6.339,6.339,0,0,0,.545.6c.211.211.449.429.7.641.128.115.263.224.4.333l.211.167.231.154a9.828,9.828,0,0,0,.974.59l.532.263a4.789,4.789,0,0,0,.532.205Zm.891-11.536v1.019a9.517,9.517,0,0,1-.077.974c-.038.32-.09.641-.141.916s-.1.564-.16.814c-.115.506-.237.929-.333,1.23s-.16.468-.16.468-.122-.135-.314-.372c-.1-.122-.211-.269-.333-.449a5.337,5.337,0,0,1-.4-.6,9.928,9.928,0,0,1-.75-1.628c-.1-.314-.186-.641-.256-.987a5.768,5.768,0,0,1-.135-1.064A8.242,8.242,0,0,1,11.41,56.2a6.024,6.024,0,0,1,.147-.987,9.1,9.1,0,0,1,.641-1.628l.16-.327.167-.288c.109-.179.205-.327.288-.455.173-.25.282-.385.282-.385s.077.135.192.378a10.688,10.688,0,0,1,.436,1.019,7.011,7.011,0,0,1,.231.7c.083.25.16.519.231.8s.115.6.16.91a7.9,7.9,0,0,1,.077.987ZM7.757,61.314c.167.1.34.205.506.295l.256.135.263.115a8.894,8.894,0,0,0,1.019.365,9.6,9.6,0,0,0,.948.224,7.58,7.58,0,0,0,.859.1,10.6,10.6,0,0,0,1.282,0,1.859,1.859,0,0,0,.481-.051s-.1-.154-.288-.4c-.09-.122-.205-.276-.346-.436s-.308-.346-.474-.545a13.28,13.28,0,0,0-1.282-1.282,9.323,9.323,0,0,0-.795-.641c-.282-.224-.6-.429-.91-.641a10.547,10.547,0,0,0-.968-.564c-.327-.173-.641-.314-.955-.455a15.472,15.472,0,0,0-1.75-.641l-.378-.109-.34-.1c-.211-.058-.4-.1-.558-.135L3.867,56.4s.064.2.205.519a9.613,9.613,0,0,0,.692,1.282c.16.256.333.526.532.8a9.8,9.8,0,0,0,.692.82,9.665,9.665,0,0,0,.82.795,9.852,9.852,0,0,0,.949.686Zm3.365-11.036A10.408,10.408,0,0,1,10.6,52.2a15.824,15.824,0,0,1-.641,1.615c-.224.468-.442.859-.59,1.122s-.25.417-.25.417a4.018,4.018,0,0,1-.244-.423,12.285,12.285,0,0,1-.468-1.192,8.049,8.049,0,0,1-.378-1.75c0-.167-.032-.333-.045-.5s0-.346,0-.519A8.78,8.78,0,0,1,8.1,49.9a2.024,2.024,0,0,1,.109-.519c.045-.167.1-.346.16-.506a8.036,8.036,0,0,1,.391-.916A7.408,7.408,0,0,1,9.7,46.5a8.37,8.37,0,0,1,.827-.9c.218-.2.352-.308.352-.308a7.607,7.607,0,0,1,.282,1.5,9.613,9.613,0,0,1,.115,1.577,9.165,9.165,0,0,1-.154,1.9Zm-7.46,2.769A9.216,9.216,0,0,0,5.456,54.4a9.613,9.613,0,0,0,1.7.724,7.954,7.954,0,0,0,1.25.295c.308.045.487.051.487.051s-.07-.167-.205-.449a10.94,10.94,0,0,0-.57-1.154c-.276-.455-.57-.993-.968-1.538-.1-.135-.2-.276-.308-.41s-.211-.282-.327-.423a9.723,9.723,0,0,0-.731-.859c-.135-.141-.276-.269-.41-.4l-.4-.372a9.065,9.065,0,0,0-.833-.641c-.57-.4-1.089-.75-1.564-1.025s-.884-.487-1.173-.641a3.187,3.187,0,0,0-.468-.211,12.215,12.215,0,0,0,.468,2.006,13.785,13.785,0,0,0,.84,1.852,10.094,10.094,0,0,0,1.416,1.839ZM9.378,43.036a10.158,10.158,0,0,1-.449.916c-.154.276-.314.577-.481.846-.333.538-.711,1.025-1.019,1.429a12.252,12.252,0,0,1-.814.961c-.211.224-.34.352-.34.352s-.058-.173-.128-.474c-.038-.147-.083-.333-.122-.545a2.354,2.354,0,0,0-.058-.34,2.481,2.481,0,0,1,0-.378q0-.391-.038-.846a6.986,6.986,0,0,1,.051-.949c.045-.327.109-.641.186-1,.045-.173.09-.34.141-.513s.128-.333.2-.506a8.133,8.133,0,0,1,.455-.968,5.883,5.883,0,0,1,.577-.808A9.408,9.408,0,0,1,8.77,39c.2-.16.378-.295.551-.41l.455-.288a4.626,4.626,0,0,1,.423-.224s0,.154,0,.429a10.253,10.253,0,0,1-.032,1.109,4.566,4.566,0,0,1-.1.737,6.915,6.915,0,0,1-.135.827,8.433,8.433,0,0,1-.244.891,8.517,8.517,0,0,1-.314.961ZM1.5,44.074a8.9,8.9,0,0,0,.686.942,9.671,9.671,0,0,0,.769.769,8.581,8.581,0,0,0,1.493,1.089,9.858,9.858,0,0,0,1.16.558,4.28,4.28,0,0,0,.461.16,1.939,1.939,0,0,0-.09-.487,2.565,2.565,0,0,0-.135-.545,1.53,1.53,0,0,0-.09-.333c-.032-.122-.064-.237-.1-.365-.07-.256-.16-.532-.263-.82s-.224-.583-.346-.9a9.548,9.548,0,0,0-.429-.955c-.083-.16-.167-.327-.263-.487s-.179-.327-.282-.487a11.194,11.194,0,0,0-.641-.929c-.224-.295-.461-.57-.641-.833a15.586,15.586,0,0,0-1.282-1.346c-.2-.186-.4-.352-.564-.5L.5,38.242c-.25-.2-.4-.308-.4-.308s0,.205-.038.564a12.247,12.247,0,0,0,.083,1.448c.038.3.077.641.141.955s.167.686.276,1.038a10.441,10.441,0,0,0,.4,1.077A9.466,9.466,0,0,0,1.5,44.074Zm7.735-8.5a7.466,7.466,0,0,1-.641.8c-.237.256-.455.487-.641.711a13.067,13.067,0,0,1-1.282,1.173c-.2.167-.4.308-.564.436l-.442.327c-.25.173-.4.263-.4.263a4.486,4.486,0,0,1-.032-.487A8.453,8.453,0,0,1,5.3,37.518a4.158,4.158,0,0,1,.135-.833,9.035,9.035,0,0,1,.269-.91,8.331,8.331,0,0,1,.385-.942,8.145,8.145,0,0,1,.558-.916,6.492,6.492,0,0,1,.641-.814,7.9,7.9,0,0,1,.75-.641,7.774,7.774,0,0,1,1.455-.91,9.191,9.191,0,0,1,1.141-.449c.282-.09.449-.128.449-.128a1.652,1.652,0,0,1-.077.417,2.334,2.334,0,0,1-.109.474c-.045.179-.058.179-.083.282s-.058.205-.09.314c-.064.224-.141.455-.237.7s-.211.5-.327.769a7.53,7.53,0,0,1-.41.82l-.256.417C9.41,35.294,9.327,35.435,9.231,35.576ZM1.3,34.845A8.28,8.28,0,0,0,1.8,35.9a6.486,6.486,0,0,0,.564.916A10.254,10.254,0,0,0,3.591,38.2c.2.179.378.34.551.474s.327.244.455.327a4.627,4.627,0,0,0,.423.263s0-.179,0-.493V37.492a7.153,7.153,0,0,0-.09-.852c-.038-.3-.07-.641-.128-.955s-.135-.679-.231-1.025a9.139,9.139,0,0,0-.308-1.077c-.122-.359-.276-.711-.423-1.045s-.3-.641-.468-.961c-.32-.6-.686-1.154-.981-1.6A12.591,12.591,0,0,0,1.6,28.9a4.96,4.96,0,0,0-.333-.385s-.058.192-.141.538c-.045.173-.09.378-.135.641a3.069,3.069,0,0,1-.07.385c-.019.135-.032.282-.045.429,0,.3-.045.641-.051.968a7.575,7.575,0,0,0,0,1.07c.038.378.1.756.173,1.141.038.192.077.385.128.577S1.246,34.653,1.3,34.845Zm9.4-6.569c-.128.115-.263.224-.391.327l-.391.314c-.263.2-.532.378-.8.551a16.152,16.152,0,0,1-1.512.852c-.455.211-.865.4-1.154.513s-.461.173-.461.173a9.914,9.914,0,0,1,.436-1.718,11.145,11.145,0,0,1,.782-1.615,8.049,8.049,0,0,1,1.32-1.6,7.838,7.838,0,0,1,1.711-1.122,8.178,8.178,0,0,1,1.634-.551,7.293,7.293,0,0,1,1.2-.192,4.2,4.2,0,0,1,.468,0,4.089,4.089,0,0,1-.173.385,7.133,7.133,0,0,1-.532.968,12.35,12.35,0,0,1-.865,1.282l-.288.352c-.1.115-.192.237-.3.352a8.972,8.972,0,0,1-.679.724ZM3.143,25.8a3.049,3.049,0,0,0,.09.59,5.189,5.189,0,0,0,.147.564,10.254,10.254,0,0,0,.352,1.032,8.709,8.709,0,0,0,.9,1.628,9.511,9.511,0,0,0,.808,1.006c.211.224.34.346.34.346a10.139,10.139,0,0,0,.365-1.743A12.984,12.984,0,0,0,6.328,27.4a11.44,11.44,0,0,0-.07-2.173,11.241,11.241,0,0,0-.429-2.153,15.272,15.272,0,0,0-.59-1.782c-.211-.513-.41-.936-.545-1.224a4.242,4.242,0,0,0-.237-.449s-.109.173-.269.487a14.1,14.1,0,0,0-.545,1.352,9.953,9.953,0,0,0-.468,1.987c0,.186-.051.372-.07.564s0,.385,0,.583a10.9,10.9,0,0,0,.038,1.2Zm10.6-4.307a8.459,8.459,0,0,1-.9.449c-.3.135-.641.25-.9.359a14.561,14.561,0,0,1-1.666.487l-.692.154-.538.1c-.3.051-.481.064-.481.064s.058-.167.179-.455a7.781,7.781,0,0,1,.641-1.122c.141-.218.3-.455.474-.692a9.126,9.126,0,0,1,.641-.7,7.543,7.543,0,0,1,.743-.679,7.69,7.69,0,0,1,.9-.583,4.736,4.736,0,0,1,.474-.244l.237-.109.244-.09a7.159,7.159,0,0,1,.955-.269A8.049,8.049,0,0,1,14.935,18c.282,0,.564-.038.814-.038a9.26,9.26,0,0,1,1.218.083c.288.045.461.083.461.083s-.083.135-.244.346l-.3.378c-.122.147-.269.295-.417.468a9.85,9.85,0,0,1-1.134,1.083,7.421,7.421,0,0,1-.724.558C14.32,21.156,14.031,21.316,13.743,21.489ZM6.911,17.381a10.4,10.4,0,0,0,0,1.173,6.511,6.511,0,0,0,.122,1.083,9.882,9.882,0,0,0,.513,1.788l.147.352c.051.109.1.218.154.314q.154.3.269.5c.16.269.269.417.269.417s.09-.16.218-.442.327-.679.519-1.179c.1-.244.192-.513.282-.808s.205-.59.288-.916.167-.673.237-1.025a9.9,9.9,0,0,0,.173-1.1c0-.192.038-.385.045-.57V15.337a8.3,8.3,0,0,0-.083-1c-.038-.32-.07-.6-.115-.872-.083-.545-.186-1-.263-1.314s-.135-.5-.135-.5-.141.154-.359.429c-.109.135-.244.308-.385.506a7.331,7.331,0,0,0-.455.679,13.138,13.138,0,0,0-.891,1.827c-.122.352-.237.724-.327,1.1a6.454,6.454,0,0,0-.224,1.186ZM18.19,15.542a9.64,9.64,0,0,1-.987.237c-.346.07-.641.115-.955.154s-.641.058-.91.07-.577.026-.82.026A11.882,11.882,0,0,1,13.236,16a2.211,2.211,0,0,1-.487-.045s.1-.154.282-.4c.1-.128.211-.276.346-.436a5.941,5.941,0,0,1,.487-.532c.192-.179.4-.372.641-.558.109-.1.231-.192.359-.288l.186-.141.205-.128c.282-.173.577-.34.891-.493l.474-.205a4.819,4.819,0,0,1,.513-.173,7.979,7.979,0,0,1,1.032-.211l.5-.051h.487a9.164,9.164,0,0,1,1.7.2,7.992,7.992,0,0,1,1.173.359c.276.1.429.179.429.179s-.109.109-.314.282-.5.41-.878.673a5.619,5.619,0,0,1-.641.391c-.25.128-.461.282-.718.417a8.352,8.352,0,0,1-.833.372A7.434,7.434,0,0,1,18.19,15.542Zm-5.768-5.524a7.556,7.556,0,0,0-.288,1.134c-.058.378-.09.743-.109,1.089s0,.679,0,.987a7.05,7.05,0,0,0,.109.878,9.248,9.248,0,0,0,.3,1.282c.1.295.167.461.167.461s.122-.135.314-.378l.34-.442c.128-.173.256-.385.417-.6a7.326,7.326,0,0,0,.461-.718c.077-.128.16-.263.237-.4l.115-.218c.038-.07.077-.147.122-.218.16-.295.314-.609.455-.942.07-.167.141-.333.205-.513s.141-.346.2-.532a9.453,9.453,0,0,0,.314-1.083c.045-.179.077-.359.115-.532s.07-.346.1-.513A15.727,15.727,0,0,0,16.2,6.884c0-.551.038-1.006.032-1.333s0-.513,0-.513-.167.115-.449.333a8.806,8.806,0,0,0-1.089.955c-.205.211-.423.455-.641.711s-.417.564-.641.872a10.606,10.606,0,0,0-.577.993,10.094,10.094,0,0,0-.423,1.115Zm11.395.7a10.087,10.087,0,0,1-2.006-.051A15.792,15.792,0,0,1,20.1,10.4c-.506-.109-.936-.237-1.224-.32s-.461-.147-.461-.147l.09-.09c.064-.058.147-.147.269-.244A11.972,11.972,0,0,1,19.8,8.851a7.876,7.876,0,0,1,3.615-1.218,5.729,5.729,0,0,1,1.051,0,8.556,8.556,0,0,1,.974.167c.154.032.3.07.449.115l.423.141c.276.1.526.211.75.32a8.171,8.171,0,0,1,1.057.6,2.628,2.628,0,0,1,.288.2l.1.077-.365.205a8.287,8.287,0,0,1-1,.455c-.218.077-.436.179-.686.256a7.928,7.928,0,0,1-.8.237l-.218.045-.211.051c-.147.038-.3.064-.455.1a7.927,7.927,0,0,1-.955.122ZM19.376,4.045A8.972,8.972,0,0,0,18.5,6.128a9.825,9.825,0,0,0-.282,1.846,8.332,8.332,0,0,0,0,1.282,1.6,1.6,0,0,0,.064.493l.1-.077.282-.231a9.556,9.556,0,0,0,.968-.84,14.477,14.477,0,0,0,2.519-3.057c.192-.34.385-.641.545-.987s.308-.641.436-.974l.179-.481c.058-.154.115-.308.167-.455.1-.295.192-.577.269-.84.147-.532.25-.987.314-1.282.032-.167.051-.288.07-.372V.02L24,.071l-.372.173c-.314.16-.756.4-1.282.718a7.242,7.242,0,0,0-.775.57c-.269.211-.538.442-.808.7l-.2.192-.192.211c-.128.147-.25.295-.372.449a9.492,9.492,0,0,0-.628.961Zm8.511-2.807a9.011,9.011,0,0,0-.961.641,4.487,4.487,0,0,0-.423.359,5.2,5.2,0,0,0-.378.372,9.556,9.556,0,0,0-1.147,1.448,9.158,9.158,0,0,0-.6,1.166c-.128.288-.186.455-.186.455a2.657,2.657,0,0,0,.487-.064l.545-.109c.211-.045.449-.09.7-.154.513-.115,1.1-.314,1.73-.526a9.869,9.869,0,0,0,.961-.4l.25-.115.25-.115c.167-.083.333-.167.5-.263.327-.186.641-.385.949-.6a9.858,9.858,0,0,0,.852-.641,16.785,16.785,0,0,0,1.4-1.282c.391-.378.7-.718.91-.961s.32-.4.32-.4-.211.006-.564-.019h-.641a7.36,7.36,0,0,0-.814.032c-.295.032-.641.058-.948.1a2.462,2.462,0,0,0-.513.09l-.532.128a8.517,8.517,0,0,0-2.141.846ZM38.737,72.1a13.888,13.888,0,0,1,2.615,2.653c.314.41.564.775.737,1.038s.256.423.256.423a9.613,9.613,0,0,1-1.75-.083,8.825,8.825,0,0,1-1.718-.442,5.325,5.325,0,0,1-.923-.417,6.992,6.992,0,0,1-.9-.564,4.193,4.193,0,0,1-.417-.34L36.263,74a8.542,8.542,0,0,1-.641-.756c-.09-.128-.179-.25-.263-.378l-.237-.391c-.141-.256-.263-.5-.372-.731a9.235,9.235,0,0,1-.429-1.147c-.083-.282-.115-.455-.115-.455h.109l.3.058a8.478,8.478,0,0,1,1.057.3c.211.083.442.154.686.25a7.783,7.783,0,0,1,.756.346c.263.141.532.269.8.429A7.984,7.984,0,0,1,38.737,72.1Z" transform="translate(-0.06 -0.02)" fill="#fff"/><path d="M27.309,51.448a2.628,2.628,0,0,1,2.711,2.679,2.666,2.666,0,0,1-2.749,2.8,2.743,2.743,0,1,1,.038-5.48Zm-.122.352c-.827,0-1.429.808-1.429,2.237S26.3,56.6,27.392,56.6c.763,0,1.365-.743,1.365-2.224C28.757,52.755,28.123,51.8,27.187,51.8Z" transform="translate(-8.806 -18.487)" fill="#fff"/><path d="M39.776,51.921c-.519.051-.641.2-.686.493a9.993,9.993,0,0,0-.038,1.083v1.057a2.647,2.647,0,0,1-.577,1.878,2.076,2.076,0,0,1-1.519.558,2.282,2.282,0,0,1-1.442-.417,1.923,1.923,0,0,1-.7-1.756V52.78c0-.743-.07-.8-.686-.859v-.3h2.48v.3c-.6.058-.673.115-.673.859v2.147c0,.9.442,1.5,1.282,1.5S38.6,55.715,38.6,54.5V53.5a7.593,7.593,0,0,0-.038-1.089c-.032-.372-.256-.455-.827-.487v-.3h2.006Z" transform="translate(-12.295 -18.551)" fill="#fff"/><path d="M48.294,52.906a2.564,2.564,0,0,0-.346-.788c-.147-.173-.211-.237-.692-.237h-.513v3.8c0,.679.077.724.8.782v.3H44.859v-.3c.686-.058.763-.1.763-.782v-3.8h-.493c-.455,0-.583.077-.737.269a3.089,3.089,0,0,0-.333.769H43.75c.058-.59.115-1.224.135-1.609h.237c.122.186.218.2.461.2h3.2a.545.545,0,0,0,.474-.2h.231c0,.34.038,1.051.083,1.577Z" transform="translate(-15.75 -18.439)" fill="#fff"/><path d="M55.309,52.892c-.16-.513-.385-1.1-1.128-1.1a.743.743,0,0,0-.795.782c0,.442.295.711,1.006,1.064.865.429,1.416.852,1.416,1.647a1.733,1.733,0,0,1-1.923,1.647,4.627,4.627,0,0,1-1.359-.25c-.045-.186-.186-1.025-.237-1.4l.314-.07c.16.506.609,1.391,1.4,1.391a.743.743,0,0,0,.795-.827c0-.468-.295-.743-.974-1.109-.84-.449-1.391-.852-1.391-1.692s.641-1.519,1.878-1.519a6.543,6.543,0,0,1,1.154.141c0,.3.09.718.154,1.23Z" transform="translate(-18.817 -18.49)" fill="#fff"/><path d="M63.134,52.906a2.564,2.564,0,0,0-.346-.788c-.147-.173-.211-.237-.692-.237h-.513v3.8c0,.679.077.724.8.782v.3H59.7v-.3c.686-.058.763-.1.763-.782v-3.8h-.493c-.455,0-.583.077-.737.269a3.089,3.089,0,0,0-.333.769H58.59c.058-.59.115-1.224.135-1.609h.237c.122.186.218.2.461.2h3.2a.545.545,0,0,0,.474-.2h.237c0,.34.038,1.051.083,1.577Z" transform="translate(-21.079 -18.439)" fill="#fff"/><path d="M68.7,56.821v-.3c.506-.07.506-.16.4-.506-.083-.244-.211-.641-.333-.929H67.185c-.083.25-.2.558-.282.808-.167.506,0,.57.641.641v.3H65.57v-.3c.513-.064.641-.141.916-.814l1.679-4.179.385-.07c.519,1.4,1.07,2.839,1.6,4.191.295.75.372.808.9.872v.3Zm-.711-3.845c-.231.583-.461,1.122-.641,1.711h1.282Z" transform="translate(-23.586 -18.497)" fill="#fff"/><path d="M80.094,51.914c-.493.064-.641.167-.641.532s-.045.59-.045,1.282v3.2h-.455l-3.365-4.038V54.74a11.93,11.93,0,0,0,.038,1.282c.032.359.205.545.8.577v.3H74.39v-.3c.461-.038.641-.16.711-.545a10.621,10.621,0,0,0,.051-1.282V52.85a.974.974,0,0,0-.173-.641c-.141-.2-.34-.224-.679-.256v-.3h1.577l3.076,3.583V52.459c0-.314-.154-.519-.82-.558v-.3h1.993Z" transform="translate(-26.721 -18.543)" fill="#fff"/><path d="M86.607,51.613a3.2,3.2,0,0,1,2.307.7,2.294,2.294,0,0,1,.731,1.762,2.564,2.564,0,0,1-1.013,2.108,3.717,3.717,0,0,1-2.288.679H84.12v-.3c.641-.051.686-.122.686-.795V52.7c0-.641-.09-.737-.686-.788v-.3Zm-.641,4.108c0,.57.147.763.737.763,1.089,0,1.718-.756,1.718-2.282a2.493,2.493,0,0,0-.583-1.788,1.679,1.679,0,0,0-1.282-.449.75.75,0,0,0-.487.109c-.071.071-.09.211-.09.442Z" transform="translate(-30.248 -18.543)" fill="#fff"/><path d="M93.82,56.875v-.3c.641-.058.686-.1.686-.782V52.709c0-.641-.083-.737-.686-.788v-.3h2.493v.3c-.6.058-.686.115-.686.788v3.083c0,.641.07.718.686.782v.3Z" transform="translate(-33.731 -18.551)" fill="#fff"/><path d="M104.324,51.914c-.493.064-.641.167-.641.532q-.057.639-.051,1.282v3.2h-.449l-3.371-4.038V54.74a9.909,9.909,0,0,0,.038,1.282c.038.359.205.545.8.577v.3H98.62v-.3c.461-.038.641-.16.711-.545a11.083,11.083,0,0,0,.045-1.282V52.85a.968.968,0,0,0-.167-.641c-.147-.2-.34-.224-.679-.256v-.3h1.583l3.076,3.583V53.741a12.435,12.435,0,0,0-.032-1.282c-.032-.314-.154-.519-.827-.558v-.3h2Z" transform="translate(-35.423 -18.543)" fill="#fff"/><path d="M113.819,54.593c-.461.083-.519.115-.519.641v.641a4.749,4.749,0,0,0,.051.782,12.594,12.594,0,0,1-1.955.263,2.677,2.677,0,0,1-2.986-2.749c0-1.82,1.474-2.73,3.2-2.73a12.434,12.434,0,0,1,1.628.186,13.784,13.784,0,0,0,.141,1.41l-.314.058a1.545,1.545,0,0,0-1-1.2,2.429,2.429,0,0,0-.718-.09c-.974,0-1.711.846-1.711,2.237s.5,2.564,1.826,2.564a1.128,1.128,0,0,0,.519-.109c.122-.077.186-.211.186-.461V55.3c0-.564-.115-.641-.795-.7V54.3h2.416Z" transform="translate(-38.966 -18.486)" fill="#fff"/><path d="M25.732,65a2.634,2.634,0,0,1,2.711,2.685,2.666,2.666,0,0,1-2.749,2.8A2.743,2.743,0,0,1,25.732,65Zm-.122.359c-.827,0-1.429.808-1.429,2.237s.538,2.564,1.634,2.564c.763,0,1.365-.743,1.365-2.224,0-1.615-.634-2.57-1.57-2.57Z" transform="translate(-8.287 -23.355)" fill="#fff"/><path d="M37.686,70.483h-.237c-1.025-.051-1.327-.269-1.57-.641a14.768,14.768,0,0,1-.833-1.423.449.449,0,0,0-.493-.263h-.16v1.179c0,.641.083.711.686.788v.295H32.61v-.295c.641-.07.686-.135.686-.788V66.26c0-.641-.083-.731-.686-.775v-.3h2.339a2.467,2.467,0,0,1,1.461.308,1.224,1.224,0,0,1,.545,1.077,1.384,1.384,0,0,1-1.013,1.282c.122.244.436.763.679,1.134a6.408,6.408,0,0,0,.641.846,1.032,1.032,0,0,0,.506.352Zm-3.076-2.64a1.2,1.2,0,0,0,.814-.218,1.16,1.16,0,0,0,.378-.949c0-.852-.493-1.16-.948-1.16-.218,0-.32,0-.372.083a.475.475,0,0,0-.07.3v1.923Z" transform="translate(-11.749 -23.417)" fill="#fff"/><path d="M46.437,68.163c-.461.083-.513.115-.513.641v.641a4.89,4.89,0,0,0,.045.788,12.593,12.593,0,0,1-1.923.263A2.678,2.678,0,0,1,41.06,67.74c0-1.814,1.474-2.73,3.2-2.73A14,14,0,0,1,45.9,65.2a13.6,13.6,0,0,0,.135,1.416l-.314.058a1.525,1.525,0,0,0-.993-1.2,2.461,2.461,0,0,0-.686-.1c-.981,0-1.718.846-1.718,2.237s.506,2.564,1.827,2.564a1.045,1.045,0,0,0,.519-.115c.122-.071.186-.205.186-.461v-.743c0-.57-.115-.641-.795-.7v-.3h2.416Z" transform="translate(-14.784 -23.359)" fill="#fff"/><path d="M52.951,70.378v-.295c.513-.077.513-.167.4-.513-.077-.244-.211-.6-.327-.929H51.445c-.09.25-.205.558-.282.808-.173.513,0,.577.641.641v.295H49.83v-.295c.506-.07.641-.141.91-.82L52.419,65.1l.391-.077c.513,1.41,1.064,2.846,1.589,4.191.3.756.372.808.9.878v.295Zm-.7-3.845c-.237.583-.461,1.122-.641,1.711h1.282Z" transform="translate(-17.933 -23.363)" fill="#fff"/><path d="M64.347,65.48c-.493.064-.641.167-.641.532q-.058.639-.051,1.282v3.2h-.449l-3.371-4.038v1.826a9.967,9.967,0,0,0,.038,1.282c0,.359.205.545.8.577v.295H58.65v-.295c.455-.045.641-.167.7-.545a9.446,9.446,0,0,0,.051-1.282V66.4a.961.961,0,0,0-.167-.641c-.147-.205-.34-.224-.679-.256v-.3h1.564l3.083,3.576V66.019c0-.314-.154-.519-.827-.558v-.3h1.993Z" transform="translate(-21.069 -23.413)" fill="#fff"/><path d="M68.37,70.439v-.295c.641-.058.686-.109.686-.788V66.279c0-.679-.077-.743-.686-.788v-.3h2.5v.3c-.641.051-.692.109-.692.788v3.076c0,.641.077.718.692.788v.295Z" transform="translate(-24.592 -23.424)" fill="#fff"/><path d="M76.309,66.458c-.16-.519-.385-1.109-1.128-1.109a.75.75,0,0,0-.795.788c0,.442.3.7,1.013,1.064.859.429,1.41.846,1.41,1.647A1.729,1.729,0,0,1,74.886,70.5a4.582,4.582,0,0,1-1.352-.25c-.051-.186-.186-1.025-.244-1.4l.314-.077c.16.513.641,1.391,1.4,1.391a.743.743,0,0,0,.795-.82c0-.468-.295-.743-.968-1.109-.846-.455-1.391-.859-1.391-1.7s.641-1.519,1.871-1.519a5.769,5.769,0,0,1,1.154.147c0,.3.09.718.154,1.23Z" transform="translate(-26.358 -23.359)" fill="#fff"/><path d="M82.027,70.374v-.295c.506-.077.506-.167.4-.513-.083-.244-.211-.6-.333-.929H80.515c-.09.25-.2.558-.282.808-.167.513,0,.577.641.641v.295H78.9v-.295c.513-.071.641-.141.916-.82l1.711-4.179.385-.077c.519,1.41,1.07,2.846,1.589,4.191.3.756.372.808.9.878v.295Zm-.711-3.845c-.237.583-.461,1.122-.641,1.711h1.282Z" transform="translate(-28.373 -23.359)" fill="#fff"/><path d="M91.3,66.472a2.365,2.365,0,0,0-.352-.788c-.141-.173-.205-.237-.686-.237h-.513v3.794c0,.679.077.731.795.788v.295H87.869v-.295c.686-.058.756-.109.756-.788V65.447h-.487c-.455,0-.583.07-.737.269a3.133,3.133,0,0,0-.333.763H86.76c.058-.59.115-1.218.128-1.609h.244c.122.186.218.205.461.205h3.2a.532.532,0,0,0,.468-.205H91.5c0,.34.038,1.051.083,1.577Z" transform="translate(-31.196 -23.309)" fill="#fff"/><path d="M95.2,70.439v-.295c.641-.058.686-.109.686-.788V66.279c0-.679-.077-.743-.686-.788v-.3h2.5v.3c-.609.051-.686.109-.686.788v3.076c0,.641.07.718.686.788v.295Z" transform="translate(-34.227 -23.424)" fill="#fff"/><path d="M103.013,65a2.634,2.634,0,0,1,2.717,2.685A2.775,2.775,0,1,1,103.013,65Zm-.122.359c-.82,0-1.429.808-1.429,2.237s.545,2.564,1.634,2.564c.769,0,1.365-.743,1.365-2.224,0-1.615-.628-2.57-1.57-2.57Z" transform="translate(-36.016 -23.355)" fill="#fff"/><path d="M115.481,65.48c-.487.064-.641.167-.641.532q-.058.639-.051,1.282v3.2h-.449l-3.371-4.038v1.826a9.967,9.967,0,0,0,.038,1.282c0,.359.205.545.8.577v.295h-2v-.295c.455-.045.641-.167.711-.545a11.159,11.159,0,0,0,.045-1.282V66.4a.961.961,0,0,0-.167-.641c-.147-.205-.34-.224-.679-.256v-.3H111.3l3.076,3.576V66.019c0-.314-.154-.519-.827-.558v-.3h1.993Z" transform="translate(-39.441 -23.413)" fill="#fff"/><path d="M51.108,83.976v-.3c.513-.07.513-.16.4-.506-.083-.244-.211-.641-.333-.929H49.6c-.083.25-.2.558-.282.808-.167.506,0,.57.641.641v.288H48v-.3c.513-.064.641-.135.916-.814l1.647-4.211.385-.07c.519,1.4,1.07,2.845,1.6,4.191.295.75.372.808.9.872v.333ZM50.4,80.131c-.231.583-.461,1.128-.641,1.718h1.282Z" transform="translate(-17.276 -28.233)" fill="#fff"/><path d="M63.3,79.055c-.583.077-.686.2-.91.859s-.82,2.564-1.327,4.185h-.455c-.41-1.166-.872-2.358-1.333-3.57-.417,1.218-.82,2.4-1.2,3.57H57.6c-.32-1.141-.84-2.813-1.282-4.243-.205-.641-.327-.75-.82-.8V78.76h2.435v.295c-.6.058-.641.179-.506.6.263.923.545,1.871.814,2.749.41-1.134.8-2.358,1.173-3.608h.429c.442,1.237.9,2.442,1.346,3.621.3-.878.686-2.224.8-2.685s.032-.641-.641-.679V78.76h1.974Z" transform="translate(-19.97 -28.297)" fill="#fff"/><path d="M69.417,83.994v-.3c.506-.07.506-.16.4-.506-.083-.244-.211-.641-.333-.929H67.905c-.09.25-.2.558-.282.808-.167.506,0,.57.641.641v.288H66.29v-.3c.513-.064.641-.135.916-.814L68.886,78.7l.385-.07c.519,1.4,1.07,2.845,1.6,4.191.295.75.365.808.891.872v.3Zm-.711-3.845c-.237.583-.461,1.128-.641,1.718h1.282Z" transform="translate(-23.845 -28.25)" fill="#fff"/><path d="M80.352,84.033h-.244c-1.025-.045-1.32-.263-1.564-.6a15,15,0,0,1-.833-1.423.461.461,0,0,0-.493-.269h-.16v1.179c0,.641.083.711.686.782v.333H75.27v-.3c.641-.064.692-.128.692-.782V79.823c0-.641-.083-.724-.692-.775v-.295h2.346a2.429,2.429,0,0,1,1.461.308,1.23,1.23,0,0,1,.538,1.07,1.371,1.371,0,0,1-1.006,1.282c.122.244.436.769.679,1.141a6.665,6.665,0,0,0,.641.84.981.981,0,0,0,.506.359Zm-3.076-2.628a1.2,1.2,0,0,0,.788-.205,1.16,1.16,0,0,0,.385-.949c0-.852-.493-1.16-.949-1.16a.577.577,0,0,0-.372.077c-.058.051-.07.147-.07.308V81.4Z" transform="translate(-27.069 -28.29)" fill="#fff"/><path d="M86.21,78.753a3.262,3.262,0,0,1,2.307.7,2.314,2.314,0,0,1,.724,1.762,2.564,2.564,0,0,1-1.006,2.108,3.679,3.679,0,0,1-2.288.711H83.73v-.3c.641-.045.686-.122.686-.788v-3.1c0-.679-.09-.743-.686-.795v-.295Zm-.641,4.1c0,.57.147.769.737.769,1.089,0,1.718-.763,1.718-2.288a2.506,2.506,0,0,0-.615-1.788,1.724,1.724,0,0,0-1.282-.449c-.295,0-.436.064-.481.115a.787.787,0,0,0-.09.442Z" transform="translate(-30.108 -28.291)" fill="#fff"/><path d="M39.051,137.262a7.465,7.465,0,0,1-.231.942H35.93v-.2c.506-.051.538-.077.538-.545v-2.128c0-.474-.064-.506-.442-.538v-.205h2.666a7.007,7.007,0,0,0,.051.9h-.205a1.346,1.346,0,0,0-.237-.519c-.1-.109-.173-.141-.455-.141h-.365c-.205,0-.231,0-.231.2V136.2h.545c.314,0,.365-.083.449-.481h.218v1.243h-.218c-.083-.417-.128-.481-.455-.481h-.532v.955c0,.385,0,.5.359.506h.391c.314,0,.4-.038.519-.186a2.5,2.5,0,0,0,.34-.558Z" transform="translate(-12.942 -48.347)" fill="#fff"/><path d="M43.034,134.585a2.23,2.23,0,0,1,1.589.481,1.577,1.577,0,0,1,.5,1.218,1.73,1.73,0,0,1-.692,1.448,2.564,2.564,0,0,1-1.577.468H41.31v-.205c.423,0,.474-.083.474-.545v-2.115c0-.468-.058-.513-.474-.545v-.205Zm-.474,2.826c0,.4.1.526.506.526.75,0,1.186-.519,1.186-1.57a1.711,1.711,0,0,0-.4-1.23,1.147,1.147,0,0,0-.891-.314.487.487,0,0,0-.333.077c-.051.051-.064.147-.064.308Z" transform="translate(-14.874 -48.342)" fill="#fff"/><path d="M51.842,134.788c-.352.032-.449.141-.468.34a6.152,6.152,0,0,0,0,.743v.731a1.839,1.839,0,0,1-.391,1.282,1.442,1.442,0,0,1-1.051.385,1.583,1.583,0,0,1-.993-.288,1.346,1.346,0,0,1-.481-1.2v-1.41c0-.513-.051-.551-.468-.59v-.205h1.673v.205c-.417.038-.468.077-.468.59v1.48c0,.641.308,1.038.9,1.038s.955-.493.955-1.327v-1.436c0-.167-.179-.308-.57-.333v-.205h1.365Z" transform="translate(-17.273 -48.34)" fill="#fff"/><path d="M57.928,137.21a8.075,8.075,0,0,1-.308.9,4.975,4.975,0,0,1-1.025.141A1.877,1.877,0,0,1,54.48,136.4,1.965,1.965,0,0,1,56.7,134.48a5.691,5.691,0,0,1,1.051.135,7.861,7.861,0,0,0,.1.916l-.224.038a.948.948,0,0,0-.577-.756,1.353,1.353,0,0,0-.481-.077c-.808,0-1.218.641-1.218,1.545,0,1.019.526,1.711,1.282,1.711.468,0,.775-.25,1.077-.859Z" transform="translate(-19.603 -48.307)" fill="#fff"/><path d="M62.473,138.158v-.205c.346-.051.346-.109.269-.352s-.141-.417-.224-.641H61.429c-.058.173-.135.385-.192.551-.115.352,0,.4.455.436v.205H60.32v-.205c.346-.045.436-.1.641-.564l1.154-2.871.269-.051c.359.968.737,1.955,1.1,2.884.205.519.256.558.641.6v.205Zm-.493-2.66c-.16.4-.314.775-.455,1.179h.884Z" transform="translate(-21.701 -48.3)" fill="#fff"/><path d="M68.861,135.476a1.589,1.589,0,0,0-.237-.545c-.1-.115-.141-.16-.474-.16h-.32v2.615c0,.468.051.5.551.538v.205H66.5v-.205c.474-.038.526-.07.526-.538v-2.608h-.34c-.308,0-.4.051-.506.186a1.993,1.993,0,0,0-.224.526H65.74c.038-.4.077-.84.083-1.109h.167c.09.128.154.141.32.141h2.224a.365.365,0,0,0,.327-.141h.16a8.714,8.714,0,0,0,.051,1.09Z" transform="translate(-23.647 -48.271)" fill="#fff"/><path d="M71.55,138.2V138c.423-.038.474-.07.474-.538V135.34c0-.468-.051-.513-.474-.545v-.205h1.724v.205c-.417.038-.474.077-.474.545v2.121c0,.461.051.493.474.538v.205Z" transform="translate(-25.734 -48.347)" fill="#fff"/><path d="M76.922,134.468a1.814,1.814,0,0,1,1.923,1.846,1.923,1.923,0,0,1-3.845.045,1.859,1.859,0,0,1,1.923-1.891Zm-.083.244c-.564,0-.987.558-.987,1.538s.429,1.762,1.147,1.762c.526,0,.942-.513.942-1.532s-.436-1.769-1.083-1.769Z" transform="translate(-26.972 -48.302)" fill="#fff"/><path d="M85.5,134.813c-.34.045-.449.115-.461.365a8.263,8.263,0,0,0-.038.891v2.217H84.7l-2.32-2.775v2.147c0,.167.141.372.551.391v.205H81.576v-.205c.314,0,.455-.109.487-.372a6.882,6.882,0,0,0,0-.884v-1.32a.641.641,0,0,0-.115-.449c-.1-.141-.231-.154-.468-.179v-.205h1.09l2.115,2.467V135.23c0-.231-.109-.359-.57-.385v-.205h1.378Z" transform="translate(-29.3 -48.365)" fill="#fff"/><path d="M93.833,136.057c-.128.429-.276.987-.359,1.32h-3.2v-.218c.423-.417.891-.884,1.282-1.346a2.724,2.724,0,0,0,.878-1.839c0-.57-.282-.942-.827-.942a1.391,1.391,0,0,0-1.089.711l-.244-.2.513-.763a1.6,1.6,0,0,1,1.23-.493,1.4,1.4,0,0,1,1.474,1.436c0,.641-.244,1.083-1.057,1.833-.314.288-.763.7-1.051.955h1.346c.5,0,.6,0,.891-.538Z" transform="translate(-32.456 -47.52)" fill="#fff"/><path d="M97.285,139.629a.67.67,0,1,1,.67-.67A.67.67,0,0,1,97.285,139.629Z" transform="translate(-34.735 -49.676)" fill="#fff"/><path d="M101.34,132.29c1.365,0,1.814,1.436,1.814,2.564s-.449,2.564-1.814,2.564-1.82-1.436-1.82-2.564S100,132.29,101.34,132.29Zm0,.346c-.545,0-.641,1.154-.641,2.217s.167,2.282.692,2.282.641-1.16.641-2.275-.179-2.224-.7-2.224Z" transform="translate(-35.778 -47.521)" fill="#fff"/><path d="M67.2,14.329a.455.455,0,0,1,.455.282c.513,1.038,1.032,2.083,1.545,3.127a.2.2,0,0,0,.173.128l3.422.493c.32.045.493.218.455.481a.641.641,0,0,1-.16.295l-2.506,2.448a.2.2,0,0,0-.071.205c.205,1.16.4,2.326.6,3.486a.423.423,0,0,1-.167.436.417.417,0,0,1-.468,0l-3.108-1.634a.231.231,0,0,0-.256,0l-3.07,1.615a.449.449,0,0,1-.455,0,.417.417,0,0,1-.218-.442c.147-.878.3-1.75.449-2.621.051-.308.109-.641.16-.936a.224.224,0,0,0-.07-.154l-2.333-2.23-.211-.205a.419.419,0,0,1,.231-.724l1.923-.288,1.557-.224a.218.218,0,0,0,.186-.135L66.849,14.6A.436.436,0,0,1,67.2,14.329Z" transform="translate(-22.026 -5.158)" fill="#fff"/></g></g></svg>