<svg xmlns="http://www.w3.org/2000/svg" width="25.848" height="27.282" viewBox="0 0 25.848 27.282"><g transform="translate(-14.25 511.849)"><path d="M27.393-511.538a13.7,13.7,0,0,0-2.955.638,11.609,11.609,0,0,0-7.741,9.326,5.531,5.531,0,0,0,.058,1.872,2.519,2.519,0,0,1-.089,1.637,8.3,8.3,0,0,1-1.334,1.7c-.722.774-.826.968-.832,1.538a1.167,1.167,0,0,0,.141.68,1.78,1.78,0,0,0,1.433.941l.424.089.031,1.632a6.813,6.813,0,0,0,.136,1.977,2.391,2.391,0,0,0,1.878,1.564,7.114,7.114,0,0,0,1.836,0,2.066,2.066,0,0,1,1.177.084c.4.2.528.45.581,1.088.068.931.267,1.381.737,1.689a1.736,1.736,0,0,0,.507.22c.194.042,1.825.052,5.555.042l5.283-.016.3-.146a1.573,1.573,0,0,0,.743-.764c.1-.23.11-.35.141-2.542.042-2.61.094-3.112.434-4.017.162-.434.2-.5.884-1.318a12.819,12.819,0,0,0,3.07-6.773,9.939,9.939,0,0,0-2.678-7.767,11.4,11.4,0,0,0-6.632-3.3A19.679,19.679,0,0,0,27.393-511.538Zm2.307,1.569a10.22,10.22,0,0,1,5.717,2.348,8.5,8.5,0,0,1,2.7,4.713,6.073,6.073,0,0,1,.12,1.543,6.26,6.26,0,0,1-.141,1.653,11.687,11.687,0,0,1-2.505,4.985,5.3,5.3,0,0,0-1.37,2.3,13.632,13.632,0,0,0-.4,4.278v1.768H23.747l-.042-.476a2.823,2.823,0,0,0-.779-1.946,3.164,3.164,0,0,0-2.835-.7c-.968.12-1.538.031-1.82-.277-.141-.152-.183-.68-.183-2.286-.005-1.454-.037-1.684-.267-2.009s-.492-.455-1.151-.612l-.617-.141.466-.5a8.512,8.512,0,0,0,1.731-2.416A5.2,5.2,0,0,0,18.3-500a3.77,3.77,0,0,1-.031-1.465,10,10,0,0,1,4.446-6.857A11.025,11.025,0,0,1,29.7-509.968Z" fill="#ffbc05" stroke="#ffbc05" stroke-width="0.5"/><path d="M152.683-388.87a4.112,4.112,0,0,0-1.914,1.02,3.705,3.705,0,0,0-.894,1.182,4.481,4.481,0,0,0-.005,4.054,15.744,15.744,0,0,0,4.388,5.152c1.313,1.072,1.611,1.213,2.124.983a20.93,20.93,0,0,0,4.247-3.834,11.243,11.243,0,0,0,1.752-2.981,4.455,4.455,0,0,0-1.538-4.87,4.594,4.594,0,0,0-1.559-.7,3.69,3.69,0,0,0-2.987.722l-.309.23-.314-.23a3.707,3.707,0,0,0-2.15-.779A3.586,3.586,0,0,0,152.683-388.87Zm1.627,1.726a4.1,4.1,0,0,1,.779.554c.45.413.56.471.894.471s.471-.068.9-.471a3.384,3.384,0,0,1,.79-.56,1.414,1.414,0,0,1,.9-.2,1.478,1.478,0,0,1,.91.2,2.805,2.805,0,0,1,1.412,3.327,11.954,11.954,0,0,1-3.285,4.4,16.158,16.158,0,0,1-1.627,1.308,21.594,21.594,0,0,1-1.752-1.433c-1.726-1.569-3.018-3.421-3.227-4.613C150.649-386.239,152.594-387.991,154.31-387.144Z" transform="translate(-127.832 -116.213)" fill="#ffbc05" stroke="#ffbc05" stroke-width="0.5"/></g></svg>