<?xml version="1.0" encoding="utf-8"?>
<!-- Generator: Adobe Illustrator 24.1.3, SVG Export Plug-In . SVG Version: 6.00 Build 0)  -->
<svg version="1.1" id="Layer_1" xmlns="http://www.w3.org/2000/svg" xmlns:xlink="http://www.w3.org/1999/xlink" x="0px" y="0px"
	 viewBox="0 0 163.5 52.1" style="enable-background:new 0 0 163.5 52.1;" xml:space="preserve">
<style type="text/css">
	.st0{clip-path:url(#SVGID_2_);}
	.st1{fill:#C82027;}
	.st2{clip-path:url(#SVGID_4_);}
	.st3{clip-path:url(#SVGID_6_);}
	.st4{clip-path:url(#SVGID_8_);}
</style>
<g id="surface1">
	<g>
		<defs>
			<rect id="SVGID_1_" x="43.7" y="1" width="34.9" height="50.1"/>
		</defs>
		<clipPath id="SVGID_2_">
			<use xlink:href="#SVGID_1_"  style="overflow:visible;"/>
		</clipPath>
		<g class="st0">
			<path class="st1" d="M43.8,43.8c0,0.9,0.2,1.8,0.6,2.6c0.4,0.9,0.9,1.6,1.6,2.3c0.7,0.7,1.4,1.3,2.2,1.7c0.8,0.4,1.7,0.7,2.5,0.7
				H54V42H43.8V43.8z M55.5,51.1h22.3c0.5,0,0.7-0.2,0.7-0.7v-7.7c0-0.5-0.2-0.7-0.7-0.7H55.5V51.1z M55.5,30.5h20.6
				c0.5,0,0.7-0.2,0.7-0.7v-8c0-0.5-0.2-0.7-0.7-0.7H55.5V30.5z M54,11.6H43.8l0,0.1v28.8H54V11.6z M55.5,10.1h22.3
				c0.5,0,0.7-0.2,0.7-0.7V1.7c0-0.5-0.3-0.7-0.9-0.7H55.5V10.1z M54,1L54,1c-3.3,0-5.8,1-7.6,3c-1.4,1.6-2.3,3.7-2.5,6.1H54V1"/>
		</g>
	</g>
	<g>
		<defs>
			<rect id="SVGID_3_" x="83.5" y="1" width="34.5" height="50.1"/>
		</defs>
		<clipPath id="SVGID_4_">
			<use xlink:href="#SVGID_3_"  style="overflow:visible;"/>
		</clipPath>
		<g class="st2">
			<path class="st1" d="M83.6,36.2c0,1.3,0.1,2.3,0.3,3.2c0.1,0.4,0.2,0.8,0.3,1.2h9.4V11.6h-9.5c-0.4,1.6-0.6,3.2-0.6,5V36.2z
				 M84.9,42c0.8,1.8,1.9,3.3,3.1,4.6c1.4,1.5,3,2.5,4.8,3.2c0.3,0.1,0.6,0.2,0.9,0.3V42H84.9z M95.2,50.7c0.1,0,0.2,0.1,0.3,0.1
				c1.1,0.3,2.3,0.4,3.7,0.4h17.9c0.5,0,0.7-0.2,0.7-0.7v-7.7c0-0.5-0.2-0.7-0.7-0.7h-22V50.7z M99.1,10.1h18.1
				c0.5,0,0.7-0.2,0.7-0.7V1.7c0-0.5-0.2-0.7-0.7-0.7H98.7c-1.2,0-2.3,0.1-3.4,0.4v8.7H99.1z M93.7,1.8c-0.5,0.2-1,0.4-1.5,0.6
				c-2,0.9-3.7,2.2-5.2,3.9c-0.5,0.6-1,1.3-1.5,2c-0.3,0.5-0.6,1.1-0.9,1.8h9V1.8"/>
		</g>
	</g>
	<g>
		<defs>
			<rect id="SVGID_5_" x="122.9" y="1" width="39.1" height="50.1"/>
		</defs>
		<clipPath id="SVGID_6_">
			<use xlink:href="#SVGID_5_"  style="overflow:visible;"/>
		</clipPath>
		<g class="st3">
			<path class="st1" d="M123,1.7c0-0.5,0.2-0.7,0.7-0.7h9.4v9.1H123V1.7z M134.7,1h14.2c1.7,0,3.2,0.3,4.6,0.8
				c1.4,0.6,2.7,1.4,3.7,2.4c1,1,1.9,2.3,2.5,3.8c0.3,0.6,0.5,1.3,0.6,2h-25.6V1z M160.5,11.6c0,0.5,0.1,1,0.1,1.5
				c0,2.5-0.2,4.5-0.6,6c-0.4,1.5-0.9,2.6-1.4,3.4c-0.5,0.8-1,1.3-1.4,1.5c-0.4,0.3-0.6,0.5-0.6,0.6c0,0.2,0.4,0.7,1.1,1.5
				c0.7,0.7,1.5,1.6,2.4,2.6c0.3,0.4,0.6,0.9,0.9,1.5c0.3,0.6,0.5,1.1,0.7,1.7c0.2,0.6,0.3,1.2,0.4,1.7c0.1,0.6,0.1,1.1,0.1,1.5
				c0,1.9-0.2,3.7-0.5,5.5h-10.2c0.1-0.2,0.3-0.4,0.4-0.7c0.3-0.6,0.5-1.3,0.7-2s0.2-1.3,0.2-1.8c0-1.1-0.1-2-0.4-2.7
				s-0.6-1.3-1-1.7c-0.4-0.4-0.8-0.7-1.3-0.9c-0.5-0.2-0.9-0.2-1.4-0.2h-13.9v-9.4h11.3c1.9,0,3.2-0.4,4-1.2
				c0.8-0.8,1.2-2.3,1.2-4.4c0-1.7-0.4-3-1.1-3.8H160.5z M133.1,40.5H123V11.6h10.1V40.5z M161.2,42c-0.4,1.7-1.1,3.1-2,4.4
				c-1,1.4-2.4,2.6-4.2,3.4c-1.7,0.8-3.9,1.3-6.6,1.3h-13.8V42H161.2z M133.1,51.1h-9.4c-0.5,0-0.7-0.2-0.7-0.7V42h10.1V51.1"/>
		</g>
	</g>
	<g>
		<defs>
			<rect id="SVGID_7_" x="1.5" y="1" width="37.5" height="50.1"/>
		</defs>
		<clipPath id="SVGID_8_">
			<use xlink:href="#SVGID_7_"  style="overflow:visible;"/>
		</clipPath>
		<g class="st4">
			<path class="st1" d="M1.5,2.5v7.6h10.1V1H2.2C1.7,1,1.5,1.2,1.5,1.7V2.5z M13.2,10.1h24.6c-0.5-1.7-1.3-3.2-2.3-4.5
				c-1.1-1.4-2.6-2.6-4.4-3.4c-1.8-0.8-4-1.2-6.6-1.2H13.2V10.1z M1.5,11.6v28.9h10.1v-6.1l0,0V24l0,0V11.6H1.5z M13.2,33.7h11.3
				c2.6,0,4.8-0.4,6.6-1.2c1.8-0.8,3.3-1.9,4.4-3.3c1.1-1.4,1.9-3.2,2.4-5.2c0.5-2,0.8-4.2,0.8-6.7c0-2-0.2-4-0.6-5.7h-10
				c0.3,0.4,0.5,0.9,0.6,1.4c0.2,0.8,0.4,1.6,0.5,2.4c0.1,0.8,0.1,1.5,0.1,1.9c0,0.5,0,1.1-0.1,1.9c-0.1,0.8-0.2,1.6-0.5,2.4
				c-0.2,0.8-0.6,1.5-1.1,2.1c-0.5,0.6-1.2,0.9-2,0.9H13.2V33.7z M1.5,42v8.4c0,0.5,0.2,0.7,0.7,0.7h8.7c0.5,0,0.7-0.2,0.7-0.7V42
				H1.5"/>
		</g>
	</g>
</g>
</svg>
