<svg xmlns="http://www.w3.org/2000/svg" width="155.77" height="40.8" viewBox="0 0 155.77 40.8"><g transform="translate(13.053 21.07)"><path d="M203.208,299l-.4.07h.268a.953.953,0,0,0,.4.07c.134.07.335.07.536.141.134.07.335.07.469.141a9.712,9.712,0,0,1,1.341.493,12.092,12.092,0,0,1,1.274.634,4.964,4.964,0,0,1,.8.634,6.707,6.707,0,0,1,2.212,3.382,8.781,8.781,0,0,1,0,3.241c-.134.423-.335.987-.4,1.127a1.514,1.514,0,0,1-.134.423c-.134.282-.4.7-.67,1.2-.067.07-.2.282-.335.423a2.655,2.655,0,0,1-.335.423c-.134.211-1.005,1.127-1.206,1.339a8211.221,8211.221,0,0,1-.67.564c-.134.07-.268.211-.335.211a3.252,3.252,0,0,1-.871.634,9.964,9.964,0,0,1-1.609.916c-.067,0-.134.07-.2.07a3.134,3.134,0,0,1-.737.352.32.32,0,0,0-.2.07.7.7,0,0,1-.4.141c-.134.07-.268.07-.335.141a2.632,2.632,0,0,0-.469.141,5.236,5.236,0,0,0-.737.211c-.2.07-.469.07-.536.141a1.09,1.09,0,0,0-.469.07,14.1,14.1,0,0,1-2.815.282c-.8,0-.871,0-.938.07s-.067.07.335.07c.2,0,.67.07,1.072.07a16.791,16.791,0,0,0,3.418-.141,5.4,5.4,0,0,1,.536-.07c.2-.07.469-.07.536-.141.067,0,.268-.07.4-.07.2-.07.4-.07.469-.141a.667.667,0,0,1,.268-.07c.134-.07.335-.07.4-.141a.641.641,0,0,1,.268-.07,1.1,1.1,0,0,0,.335-.141c.067,0,.2-.071.268-.071s.134-.07.268-.07a.5.5,0,0,1,.268-.141c.134,0,.2-.07.268-.07.067-.07.134-.07.2-.141.134,0,.2-.07.268-.07,0-.07.067-.07.2-.141a.654.654,0,0,0,.2-.07.5.5,0,0,1,.268-.141c.067,0,.134-.07.2-.07,0-.071.067-.141.2-.141.067,0,.134,0,.134-.07a.231.231,0,0,1,.134-.07.5.5,0,0,1,.268-.141c.268-.211.4-.282.469-.282l.134-.141a.831.831,0,0,0,.2-.141c.067,0,.067,0,.134-.07.067,0,.067-.07.134-.07a.2.2,0,0,0,.134-.07.148.148,0,0,1,.134-.141c.067-.07.134-.07.2-.141a.068.068,0,0,1,.067-.07.067.067,0,0,0,.067-.07,4,4,0,0,0,.737-.564.511.511,0,0,0,.2-.211.962.962,0,0,1,.2-.141l.737-.775v-.071h.067c0-.07.067-.141.134-.211a9.427,9.427,0,0,0,.6-.775l.2-.211a.566.566,0,0,0,.067-.211.148.148,0,0,1,.134-.141.267.267,0,0,0,.067-.211l.134-.141a.267.267,0,0,0,.067-.211.25.25,0,0,0,.067-.141c.067,0,.134-.141.134-.211s.067-.211.134-.211a.361.361,0,0,1,.067-.211c0-.141.067-.211.067-.282a.553.553,0,0,0,.134-.352,3.189,3.189,0,0,1,.067-.352c.067,0,.067-.211.134-.423,0-.211.067-.493.067-.564a4,4,0,0,0,0-1.268c0-.141-.067-.423-.067-.564-.067-.211-.067-.423-.134-.423,0-.07-.067-.211-.067-.282a.553.553,0,0,0-.134-.352c0-.07-.067-.211-.067-.282-.067-.07-.067-.141-.134-.211a.25.25,0,0,1-.067-.141.068.068,0,0,0-.067-.07c-.067-.07-.067-.141-.134-.211,0-.07-.067-.211-.134-.211a.25.25,0,0,1-.067-.141.068.068,0,0,0-.067-.07l-.134-.141a7.6,7.6,0,0,0-.737-.846c-.134-.141-.268-.282-.335-.282l-.134-.141c-.067,0-.067,0-.134-.07a.343.343,0,0,0-.268-.141c-.067-.07-.134-.07-.134-.141l-.067-.071c-.067,0-.134-.07-.2-.07-.067-.07-.134-.07-.2-.141-.067,0-.134,0-.134-.07-.067-.071-.134-.071-.2-.141-.067,0-.2,0-.2-.07a.388.388,0,0,0-.268-.07c-.067-.07-.134-.07-.2-.141-.067,0-.134-.07-.268-.07a.5.5,0,0,1-.268-.141,2.78,2.78,0,0,0-.335-.07c-.134-.07-.335-.07-.335-.141a2.265,2.265,0,0,0-.4-.07c-.134-.07-.335-.07-.4-.141-.134,0-.335-.07-.6-.07-.2-.07-.469-.07-.6-.141a12.422,12.422,0,0,0-1.877-.07Zm-8.445,17.546c-.067.07.067.07.335.07.335,0,.335,0,.2-.07Z" transform="translate(-194.745 -299)" fill="#2a2520" fill-rule="evenodd"/></g><g transform="translate(5.714 20.929)"><path d="M100.113,297.07c-1.475.07-1.743.141-.737.211a9.049,9.049,0,0,1,2.078.564.653.653,0,0,1,.2.07c.134,0,.871.423,1.072.493a.148.148,0,0,0,.134.141,6.831,6.831,0,0,1,1.273,1.128c0,.07.067.141.134.211a4.412,4.412,0,0,1,.6,3.664c0,.141-.067.352-.067.423a1.227,1.227,0,0,0-.134.352c0,.071-.134.211-.2.423a1.555,1.555,0,0,1-.2.352.25.25,0,0,0-.067.141.969.969,0,0,1-.2.282c0,.07-.134.211-.2.352a12.245,12.245,0,0,1-4.759,3.664c-.134.07-.2.07-.2.141a.668.668,0,0,1-.268.07c-.067.07-.2.07-.2.141-.067,0-.6.211-1.072.352a16.441,16.441,0,0,1-4.692.7,17.544,17.544,0,0,1-2.882-.493c-.067,0-.134-.07-.268-.07a5.36,5.36,0,0,1-3.754-3.876c-.134-.7-.268-.775-.335-.352,0,.07-.067.352-.067.564a7.111,7.111,0,0,0,0,1.691,4.164,4.164,0,0,0,.067.493,7.436,7.436,0,0,0,.536,1.48.268.268,0,0,1,.067.211s.2.282.469.7a7.762,7.762,0,0,0,1.877,1.762,7.235,7.235,0,0,0,1.475.775.231.231,0,0,0,.134.07,4.5,4.5,0,0,0,.536.211,2.189,2.189,0,0,1,.4.211,1.1,1.1,0,0,1,.335.141,2.78,2.78,0,0,1,.335.07.5.5,0,0,0,.335.141,2.778,2.778,0,0,1,.335.07c.067.07.2.07.335.07.067.071.268.071.469.141a6.214,6.214,0,0,0,.8.141c.268,0,.6.07.737.07a15.364,15.364,0,0,0,2.547,0c.134,0,.469-.07.8-.07a6.215,6.215,0,0,0,.8-.141,5.4,5.4,0,0,1,.536-.07,2.889,2.889,0,0,1,.536-.141.7.7,0,0,1,.335-.07c.067,0,.134-.07.268-.07a.7.7,0,0,1,.4-.141,1.306,1.306,0,0,0,.335-.07.5.5,0,0,1,.268-.141c.2-.07.469-.141.871-.282a1.1,1.1,0,0,1,.335-.141.654.654,0,0,0,.2-.07c0-.071.134-.071.2-.141a.653.653,0,0,0,.2-.07c.067,0,.134-.07.2-.07.134-.07.2-.141.268-.141a.96.96,0,0,0,.2-.141.286.286,0,0,0,.2-.07.231.231,0,0,1,.134-.07.653.653,0,0,1,.2-.07c0-.07.2-.141.335-.211a3.974,3.974,0,0,0,.4-.282.286.286,0,0,1,.2-.07c.067-.07.134-.07.134-.141a1.162,1.162,0,0,0,.268-.211,8.413,8.413,0,0,0,.871-.564c0-.07.2-.211.4-.423a11.82,11.82,0,0,0,2.279-2.466,1.979,1.979,0,0,1,.335-.423v-.141a.25.25,0,0,0,.067-.141,7.842,7.842,0,0,0,.536-1.057.734.734,0,0,0,.067-.211,5.71,5.71,0,0,0,.335-.987c0-.07.067-.282.067-.423a5.229,5.229,0,0,0,0-2.044c0-.141-.067-.352-.067-.493l-.134-.423a.267.267,0,0,1-.067-.211,10.946,10.946,0,0,0-.6-1.2,6.966,6.966,0,0,0-2.212-2.184.2.2,0,0,1-.134-.07,6.016,6.016,0,0,0-.938-.493l-.268-.141a1.1,1.1,0,0,0-.335-.141.319.319,0,0,1-.2-.07,4.755,4.755,0,0,0-.938-.282.688.688,0,0,1-.335-.141c-.134,0-.4-.07-.536-.07a2.383,2.383,0,0,1-.6-.141,11.023,11.023,0,0,0-1.877-.141c-.2,0-.8.07-1.341.07Zm2.815.141c.134.07.4.07.6.141.268,0,.469.07.6.07.067.07.268.07.4.141a2.264,2.264,0,0,1,.4.07c0,.07.2.07.335.141a2.777,2.777,0,0,1,.335.07.5.5,0,0,0,.268.141c.134,0,.2.07.268.07.067.07.134.07.2.141a.388.388,0,0,1,.268.07c0,.07.134.07.2.07.067.07.134.07.2.141,0,.07.067.07.134.07.067.07.134.07.2.141.067,0,.134.07.2.07l.067.07c0,.07.067.07.134.141a.343.343,0,0,1,.268.141c.067.071.067.071.134.071l.134.141c.067,0,.2.141.335.282a7.609,7.609,0,0,1,.737.846l.134.141a.068.068,0,0,1,.067.07.25.25,0,0,0,.067.141c.067,0,.134.141.134.211.067.07.067.141.134.211a.068.068,0,0,1,.067.07.25.25,0,0,0,.067.141c.067.07.067.141.134.211,0,.07.067.211.067.282a.553.553,0,0,1,.134.352c0,.07.067.211.067.282.067,0,.067.211.134.423,0,.141.067.423.067.564a4,4,0,0,1,0,1.268c0,.071-.067.352-.067.564-.067.211-.067.423-.134.423a3.191,3.191,0,0,0-.067.352.553.553,0,0,1-.134.352c0,.07-.067.141-.067.282a.361.361,0,0,0-.067.211c-.067,0-.134.141-.134.211s-.067.211-.134.211a.25.25,0,0,1-.067.141.267.267,0,0,1-.067.211l-.134.141a.268.268,0,0,1-.067.211.148.148,0,0,0-.134.141.566.566,0,0,1-.067.211l-.2.211a9.457,9.457,0,0,1-.6.775c-.067.07-.134.141-.134.211h-.067v.07l-.737.775a.958.958,0,0,0-.2.141.512.512,0,0,1-.2.211,3.993,3.993,0,0,1-.737.564.067.067,0,0,1-.067.07.068.068,0,0,0-.067.07c-.067.07-.134.07-.2.141a.148.148,0,0,0-.134.141.2.2,0,0,1-.134.07c-.067,0-.067.07-.134.07-.067.07-.067.07-.134.07a.829.829,0,0,1-.2.141l-.134.141c-.067,0-.2.07-.469.282a.5.5,0,0,0-.268.141.231.231,0,0,0-.134.07c0,.07-.067.07-.134.07-.134,0-.2.07-.2.141-.067,0-.134.07-.2.07a.5.5,0,0,0-.268.141.653.653,0,0,1-.2.07c-.134.07-.2.07-.2.141-.067,0-.134.07-.268.07-.067.07-.134.07-.2.141-.067,0-.134.071-.268.071a.5.5,0,0,0-.268.141c-.134,0-.2.07-.268.07s-.2.07-.268.07a1.1,1.1,0,0,1-.335.141.641.641,0,0,0-.268.07c-.067.07-.268.07-.4.141a.667.667,0,0,0-.268.07c-.067.07-.268.07-.469.141-.134,0-.335.07-.4.07-.067.07-.335.07-.536.141a5.392,5.392,0,0,0-.536.071,16.8,16.8,0,0,1-3.418.141c-.4,0-.871-.07-1.072-.07-.4,0-.4,0-.335-.07s.134-.071.938-.071a14.1,14.1,0,0,0,2.815-.282,1.09,1.09,0,0,1,.469-.07c.067-.07.335-.07.536-.141a5.226,5.226,0,0,1,.737-.211,2.624,2.624,0,0,1,.469-.141c.067-.07.2-.07.335-.141a.7.7,0,0,0,.4-.141.32.32,0,0,1,.2-.07,3.134,3.134,0,0,0,.737-.352c.067,0,.134-.07.2-.07a9.969,9.969,0,0,0,1.609-.916,3.253,3.253,0,0,0,.871-.634c.067,0,.2-.141.335-.211a6784.434,6784.434,0,0,1,.67-.564c.2-.211,1.072-1.128,1.206-1.339a2.655,2.655,0,0,0,.335-.423c.134-.141.268-.352.335-.423.268-.493.536-.916.67-1.2a1.514,1.514,0,0,0,.134-.423c.067-.141.268-.7.4-1.127a8.782,8.782,0,0,0,0-3.241,6.708,6.708,0,0,0-2.212-3.382,4.961,4.961,0,0,0-.8-.634,12.073,12.073,0,0,0-1.274-.634,9.723,9.723,0,0,0-1.341-.493c-.134-.07-.335-.07-.469-.141-.2-.07-.4-.07-.536-.141a.952.952,0,0,1-.4-.07h-.268l.4-.07a12.411,12.411,0,0,1,1.877.07Zm-9.786,17.476c.134.07.134.07-.2.07-.268,0-.4,0-.335-.07Z" transform="translate(-85.25 -297)" fill="#29853b" fill-rule="evenodd"/></g><g transform="translate(11.126 1.25)"><path d="M171.965,17.763a2.77,2.77,0,0,0,.067.564,7.613,7.613,0,0,1-.8,3.946c-.067.141-.2.282-.2.423-.067.07-.134.211-.2.282-.268.423-.6.916-.8,1.268-.268.352-.335.493-.536.775-.067.07-.134.211-.268.352-.067.141-.2.282-.2.352l-.2.211c-.268.423-.938,1.55-1.072,1.832-.067.07-.134.141-.134.211a11.354,11.354,0,0,0-.871,1.832.25.25,0,0,0-.067.141.781.781,0,0,0-.134.423,1.357,1.357,0,0,0-.134.493,3.641,3.641,0,0,0-.2.987,9.448,9.448,0,0,0,0,3.946c.2.352.4.211.8-.493a11.472,11.472,0,0,1,.871-1.339c.067-.141.2-.352.268-.352.134-.211.6-.916,2.145-2.889a17.438,17.438,0,0,0,1.81-2.607c.067-.07.067-.141.134-.141.067-.141.134-.211.469-.916a3.216,3.216,0,0,0,.2-.564c0-.07.067-.141.134-.282a9.685,9.685,0,0,0,.469-3.594,7,7,0,0,0-.268-2.114,1.865,1.865,0,0,0-.134-.493.758.758,0,0,0-.067-.282.441.441,0,0,1-.067-.282,9.52,9.52,0,0,0-.6-1.339c-.134-.282-.335-.423-.4-.352ZM174.11,22.2c0,.07,0,.211.067.987a4.171,4.171,0,0,1,0,.916c0,.211-.067.564-.067.775-.067.423-.2.987-.268,1.268-.067.141-.067.282-.134.423a.781.781,0,0,1-.134.423c0,.07-.067.141-.067.211,0,0-.335.775-.536,1.127s-.871,1.409-1.475,2.255l-.268.282a3.534,3.534,0,0,1-.4.564c-.2.282-.6.775-.8,1.057-.268.352-.6.775-.8,1.057a18.469,18.469,0,0,0-1.609,2.4,20.058,20.058,0,0,0-1.005,2.114,2.271,2.271,0,0,0-.134.564.766.766,0,0,0-.134.352,2.271,2.271,0,0,1-.134.564,8.843,8.843,0,0,0,.067,3.241c0,.141.067.352.067.423.067.141.067.282.134.423.2.564.268.846.335.987a1.021,1.021,0,0,1,.134.211.361.361,0,0,0,.067.211c.067.07.067.141.134.211a2.242,2.242,0,0,0,.536.846c.4.282.6-.07.469-.7a6.634,6.634,0,0,1,.268-2.466A13.347,13.347,0,0,1,171.9,38.2c.2-.211.469-.423.6-.564s.268-.282.335-.282c0,0,.536-.564.871-.846a9.8,9.8,0,0,0,1.944-2.466,1.525,1.525,0,0,0,.268-.352l.134-.282a.268.268,0,0,1,.067-.211,1.02,1.02,0,0,0,.134-.211.361.361,0,0,1,.067-.211,11.188,11.188,0,0,0,.6-4.721c0-.211-.067-.564-.067-.775a15.59,15.59,0,0,0-.6-1.973c-.134-.282-.6-1.339-.737-1.55,0-.07-.134-.211-.2-.282a4.223,4.223,0,0,0-1.139-1.409A.25.25,0,0,0,174.11,22.2Z" transform="translate(-166 -17.745)" fill="#d2372c" fill-rule="evenodd"/></g><path d="M0,20.435V40.8H38.809V0H0V20.435M17.36,1.409c.067.07.134.141.134.211a9.523,9.523,0,0,1,.6,1.339.441.441,0,0,0,.067.282.758.758,0,0,1,.067.282,1.864,1.864,0,0,1,.134.493,10.185,10.185,0,0,1-.2,5.708c-.067.141-.134.211-.134.282a3.218,3.218,0,0,1-.2.564c-.335.7-.4.775-.469.916-.067,0-.067.07-.134.141a17.444,17.444,0,0,1-1.81,2.607c-1.542,1.973-2.011,2.678-2.145,2.889-.067,0-.2.211-.268.352a11.477,11.477,0,0,0-.871,1.339c-.4.7-.6.846-.8.493a9.448,9.448,0,0,1,0-3.946,3.64,3.64,0,0,1,.2-.987,1.358,1.358,0,0,1,.134-.493.781.781,0,0,1,.134-.423.25.25,0,0,1,.067-.141,11.351,11.351,0,0,1,.871-1.832c0-.07.067-.141.134-.211.134-.282.8-1.409,1.072-1.832l.2-.211c0-.07.134-.211.2-.352.134-.141.2-.282.268-.352.2-.282.268-.423.536-.775.2-.352.536-.846.8-1.268.067-.07.134-.211.2-.282,0-.141.134-.282.2-.423a7.613,7.613,0,0,0,.8-3.946q-.2-.951.2-.423m2.279,4.439a6.713,6.713,0,0,1,.8,1.127c.067.07.2.211.2.282.134.211.6,1.268.737,1.55a15.582,15.582,0,0,1,.6,1.973c0,.211.067.564.067.775a11.188,11.188,0,0,1-.6,4.721.361.361,0,0,0-.067.211,1.021,1.021,0,0,1-.134.211.267.267,0,0,0-.067.211l-.134.282a1.526,1.526,0,0,1-.268.352,9.8,9.8,0,0,1-1.944,2.466c-.335.282-.871.846-.871.846-.067,0-.2.141-.335.282s-.4.352-.6.564a13.347,13.347,0,0,0-3.485,4.721,6.633,6.633,0,0,0-.268,2.466c.134.634-.067.987-.469.7a2.242,2.242,0,0,1-.536-.846c-.067-.07-.067-.141-.134-.211a.361.361,0,0,1-.067-.211,1.021,1.021,0,0,0-.134-.211c-.067-.141-.134-.423-.335-.987-.067-.141-.067-.282-.134-.423,0-.07-.067-.282-.067-.423a8.843,8.843,0,0,1-.067-3.241,2.271,2.271,0,0,0,.134-.564.766.766,0,0,1,.134-.352,2.271,2.271,0,0,1,.134-.564,20.06,20.06,0,0,1,1.005-2.114,18.464,18.464,0,0,1,1.609-2.4c.2-.282.536-.7.8-1.057.2-.282.6-.775.8-1.057a3.533,3.533,0,0,0,.4-.564l.268-.282c.6-.846,1.274-1.9,1.475-2.255s.536-1.127.536-1.127c0-.07.067-.141.067-.211a.781.781,0,0,0,.134-.423c.067-.141.067-.282.134-.423.067-.282.2-.846.268-1.268,0-.211.067-.564.067-.775a4.172,4.172,0,0,0,0-.916c-.134-1.268-.134-1.268.335-.846M22.923,21c.335,0,.67.07.871.07a2.384,2.384,0,0,0,.6.141c.134,0,.4.07.536.07a.688.688,0,0,0,.335.141,4.753,4.753,0,0,1,.938.282.32.32,0,0,0,.2.07,1.1,1.1,0,0,1,.335.141l.268.141a6.014,6.014,0,0,1,.938.493.2.2,0,0,0,.134.07A6.966,6.966,0,0,1,30.3,24.8a10.947,10.947,0,0,1,.6,1.2.267.267,0,0,0,.067.211l.134.423c0,.141.067.352.067.493a5.229,5.229,0,0,1,0,2.044c0,.141-.067.352-.067.423a5.712,5.712,0,0,1-.335.987.735.735,0,0,1-.067.211,7.843,7.843,0,0,1-.536,1.057.25.25,0,0,1-.067.141v.141a1.979,1.979,0,0,0-.335.423,11.819,11.819,0,0,1-2.279,2.466c-.2.211-.4.352-.4.423a8.412,8.412,0,0,1-.871.564,1.161,1.161,0,0,1-.268.211c0,.07-.067.07-.134.141a.286.286,0,0,0-.2.07,3.964,3.964,0,0,1-.4.282c-.134.07-.335.141-.335.211a.653.653,0,0,0-.2.07.231.231,0,0,0-.134.07.286.286,0,0,1-.2.07.961.961,0,0,1-.2.141c-.067,0-.134.07-.268.141-.067,0-.134.07-.2.07a.653.653,0,0,1-.2.07c-.067.07-.2.07-.2.141a.653.653,0,0,1-.2.07,1.1,1.1,0,0,0-.335.141c-.4.141-.67.211-.871.282a.5.5,0,0,0-.268.141,1.306,1.306,0,0,1-.335.07.7.7,0,0,0-.4.141c-.134,0-.2.07-.268.07a.7.7,0,0,0-.335.07,2.894,2.894,0,0,0-.536.141,5.4,5.4,0,0,0-.536.07,6.2,6.2,0,0,1-.8.141c-.335,0-.67.07-.8.07a15.37,15.37,0,0,1-2.547,0c-.134,0-.469-.07-.737-.07a6.2,6.2,0,0,1-.8-.141c-.2-.07-.4-.07-.469-.141-.134,0-.268,0-.335-.07a2.779,2.779,0,0,0-.335-.07A.5.5,0,0,1,12,38.475a2.779,2.779,0,0,0-.335-.07,1.1,1.1,0,0,0-.335-.141,2.191,2.191,0,0,0-.4-.211,4.482,4.482,0,0,1-.536-.211.231.231,0,0,1-.134-.07,7.236,7.236,0,0,1-1.475-.775A7.763,7.763,0,0,1,6.9,35.233c-.268-.423-.469-.7-.469-.7a.267.267,0,0,0-.067-.211,7.438,7.438,0,0,1-.536-1.48,4.164,4.164,0,0,1-.067-.493,7.11,7.11,0,0,1,0-1.691c0-.211.067-.493.067-.564.067-.423.2-.352.335.352A5.36,5.36,0,0,0,9.92,34.317c.134,0,.2.07.268.07a17.541,17.541,0,0,0,2.882.493,16.441,16.441,0,0,0,4.692-.7c.469-.141,1.005-.352,1.072-.352,0-.07.134-.07.2-.141a.667.667,0,0,0,.268-.07c0-.07.067-.07.2-.141a12.245,12.245,0,0,0,4.759-3.664c.067-.141.2-.282.2-.352a.969.969,0,0,0,.2-.282.25.25,0,0,1,.067-.141,1.557,1.557,0,0,0,.2-.352c.067-.211.2-.352.2-.423a1.228,1.228,0,0,1,.134-.352c0-.07.067-.282.067-.423a4.412,4.412,0,0,0-.6-3.664c-.067-.07-.134-.141-.134-.211a6.832,6.832,0,0,0-1.274-1.127.148.148,0,0,1-.134-.141c-.2-.07-.938-.493-1.072-.493a.653.653,0,0,0-.2-.07,9.052,9.052,0,0,0-2.078-.564c-.67-.07-.8-.07-.469-.141s2.011-.141,2.547-.141a4.226,4.226,0,0,0,1.005.07" fill="none" fill-rule="evenodd"/><path d="M528,356.107v-.564a.7.7,0,0,0,.536-.423,4.617,4.617,0,0,0,.134-1.621v-7.892a4.393,4.393,0,0,0-.134-1.621.7.7,0,0,0-.536-.423V343h4.424a5.645,5.645,0,0,1,1.944.352,5.251,5.251,0,0,1,1.542.987,7.64,7.64,0,0,1,1.609,2.607,9.541,9.541,0,0,1,.6,3.453,8.429,8.429,0,0,1-.335,2.325,6.1,6.1,0,0,1-1.072,1.973,3.734,3.734,0,0,1-1.341,1.057,5.467,5.467,0,0,1-2.011.352Zm3.619-3.1v.423a2.922,2.922,0,0,0,.134,1.057,1.041,1.041,0,0,0,.737.211,2.063,2.063,0,0,0,1.877-1.128,6.813,6.813,0,0,0,.67-3.382,9.383,9.383,0,0,0-.8-4.087c-.536-1.127-1.139-1.691-1.877-1.691a.7.7,0,0,0-.6.352,5.271,5.271,0,0,0-.134,1.339Z" transform="translate(-492.61 -318.83)" fill="#2b2a29"/><path d="M687.737,396.694v-4.3a4.611,4.611,0,0,0-.134-1.268.976.976,0,0,0-.6-.423v-.493l3.351-.211v6.342a3.079,3.079,0,0,0,.2,1.268.514.514,0,0,0,.536.423c.4,0,.737-.282.938-.846a5.8,5.8,0,0,0,.335-2.4v-2.4a2.916,2.916,0,0,0-.134-1.268.976.976,0,0,0-.6-.423v-.493l3.351-.211v7.54a2.662,2.662,0,0,0,.2,1.268.822.822,0,0,0,.6.423v.564h-3.15a3.236,3.236,0,0,1-.134-.7c-.067-.282-.067-.564-.134-.846a3.935,3.935,0,0,1-1.273,1.339,2.847,2.847,0,0,1-1.475.493,1.671,1.671,0,0,1-1.475-.775A5.875,5.875,0,0,1,687.737,396.694Z" transform="translate(-640.953 -362.518)" fill="#2b2a29"/><path d="M826,345.882v-.493c.268-.071.469-.141.536-.352a2.662,2.662,0,0,0,.2-1.268V334.96a5.8,5.8,0,0,0-.134-1.48c-.067-.211-.268-.282-.469-.352v-.493l3.217-.634v4.087h.4a7.892,7.892,0,0,1,2.011.141,4,4,0,0,1,1.206.634,4.585,4.585,0,0,1,1.273,1.832,6.2,6.2,0,0,1,.469,2.466,6.49,6.49,0,0,1-.4,2.325,4.625,4.625,0,0,1-1.139,1.621,2.078,2.078,0,0,1-1.005.564,5.63,5.63,0,0,1-1.743.211Zm3.351-3.312a3.742,3.742,0,0,0,.2,1.55c.134.282.335.352.67.352a1.251,1.251,0,0,0,1.139-.916,4.867,4.867,0,0,0,.469-2.4,5.447,5.447,0,0,0-.536-2.678,1.537,1.537,0,0,0-1.475-.916h-.469Z" transform="translate(-770.636 -308.605)" fill="#2b2a29"/><path d="M966.558,390.651a3.489,3.489,0,0,0-1.475.987,2.356,2.356,0,0,0-.469,1.55,1.476,1.476,0,0,0,.2.775.5.5,0,0,0,.469.282.982.982,0,0,0,.938-.7,5.712,5.712,0,0,0,.335-2.114Zm-3.955-.775.335-3.523a.068.068,0,0,0,.067.071,2.9,2.9,0,0,0,.536.141,4.036,4.036,0,0,0,.938-.282,5.275,5.275,0,0,1,1.743-.282,3.176,3.176,0,0,1,1.206.141,1.7,1.7,0,0,1,.938.423,1.629,1.629,0,0,1,.67.846,5.358,5.358,0,0,1,.2,1.762V393.4a3.345,3.345,0,0,0,.2,1.48,1.652,1.652,0,0,0,.67.7v.493h-3.016a1.445,1.445,0,0,1-.268-.564c-.067-.211-.067-.423-.134-.7a2.688,2.688,0,0,1-1.005,1.127,2.6,2.6,0,0,1-1.475.423,2.21,2.21,0,0,1-1.676-.7,3.4,3.4,0,0,1-.536-1.973A3.553,3.553,0,0,1,963.073,391a7.906,7.906,0,0,1,3.485-1.55v-.634a1.5,1.5,0,0,0-.335-1.057c-.134-.282-.469-.352-.871-.352a2.028,2.028,0,0,0-1.475.634,3.542,3.542,0,0,0-.871,1.832Z" transform="translate(-897.52 -358.8)" fill="#2b2a29"/><path d="M1093.078,332a1.242,1.242,0,0,1,.938.564,2.2,2.2,0,0,1,0,2.537,1.384,1.384,0,0,1-.938.493,1.4,1.4,0,0,1-1.006-.493,2.2,2.2,0,0,1,0-2.537A1.257,1.257,0,0,1,1093.078,332Zm-1.408,7.047a6.064,6.064,0,0,0-.134-1.55.7.7,0,0,0-.4-.352v-.493l3.15-.564v6.976a4.809,4.809,0,0,0,.2,1.762c.067.282.268.423.6.564v.493H1091v-.493a1.055,1.055,0,0,0,.536-.352,4.612,4.612,0,0,0,.134-1.268Z" transform="translate(-1017.874 -308.605)" fill="#2b2a29"/><path d="M1233,356.107v-.564a.839.839,0,0,0,.536-.423,7.288,7.288,0,0,0,.134-1.621v-7.892a6.806,6.806,0,0,0-.134-1.621.838.838,0,0,0-.536-.423V343h6.032a3.466,3.466,0,0,1,2.212.493,2.162,2.162,0,0,1,.67,1.691,3.777,3.777,0,0,1-1.341,2.889,10.026,10.026,0,0,1-4.022,2.114v3.1a4.556,4.556,0,0,0,.268,1.832,1.116,1.116,0,0,0,.737.423v.564Zm3.552-7.469a6.333,6.333,0,0,0,1.81-1.339,2.627,2.627,0,0,0,.469-1.55,1.764,1.764,0,0,0-.268-1.057,1.462,1.462,0,0,0-1.005-.352,1.123,1.123,0,0,0-.8.211,1.622,1.622,0,0,0-.2.987Z" transform="translate(-1150.356 -318.83)" fill="#2b2a29"/><path d="M1358.161,389.453a3.844,3.844,0,0,0-.4-1.48.847.847,0,0,0-.737-.493,1.134,1.134,0,0,0-.871.564,2.983,2.983,0,0,0-.335,1.48v.7Zm-2.279,1.973a5.181,5.181,0,0,0,.8,2.325,1.955,1.955,0,0,0,1.609.916,1.654,1.654,0,0,0,1.341-.634,4.524,4.524,0,0,0,.938-1.832l.335.07-.8,3.876h-.536a4.961,4.961,0,0,0-.871.07,6.65,6.65,0,0,1-1.005.141,4.187,4.187,0,0,1-3.418-1.55A5.516,5.516,0,0,1,1353,391a5.215,5.215,0,0,1,1.139-3.594,3.712,3.712,0,0,1,3.083-1.409,3.17,3.17,0,0,1,2.279.846,6.582,6.582,0,0,1,1.407,2.96Z" transform="translate(-1262.313 -358.8)" fill="#2b2a29"/><path d="M1478.8,344.074h-.8v-.634c.268,0,.536-.211.737-.7a2.923,2.923,0,0,0,.335-1.55v-.352a2.543,2.543,0,0,0-.067-.634l2.413-1.2v3.805h1.14a.95.95,0,0,0,.469-.07l.4-.211-.4,1.691a.343.343,0,0,0-.268-.141h-1.34v5.144a3.019,3.019,0,0,0,.2,1.339.645.645,0,0,0,.6.423,1.017,1.017,0,0,0,.737-.423,7.186,7.186,0,0,0,.6-1.268l.335.141-.8,2.748a5.359,5.359,0,0,1-1.207.352,1.892,1.892,0,0,1-.871.141,1.793,1.793,0,0,1-1.676-.775,4.184,4.184,0,0,1-.536-2.325Z" transform="translate(-1378.934 -315.112)" fill="#2b2a29"/><path d="M1570.737,390.537a2.912,2.912,0,0,0-.134-1.268.975.975,0,0,0-.6-.423v-.493l3.083-.211c.067.211.134.493.2.775,0,.282.067.634.067.987a6.717,6.717,0,0,1,1.072-1.48,1.766,1.766,0,0,1,1.14-.423,2.2,2.2,0,0,1,.6.07h0l-.469,2.678c-.268-.141-.469-.282-.6-.352a1.517,1.517,0,0,0-.536-.141.982.982,0,0,0-.938.7,10.368,10.368,0,0,0-.268,2.748v1.409a4.809,4.809,0,0,0,.2,1.762,1.206,1.206,0,0,0,.6.564v.493h-4.088v-.493a.825.825,0,0,0,.536-.352,2.912,2.912,0,0,0,.134-1.268Z" transform="translate(-1464.768 -360.659)" fill="#2b2a29"/><path d="M1665.223,387.48q-.6,0-1.005.846a6.582,6.582,0,0,0-.335,2.255,10.025,10.025,0,0,0,.4,3.171c.268.7.6,1.057,1.139,1.057.4,0,.671-.282.939-.846a6.887,6.887,0,0,0,.335-2.255,9.253,9.253,0,0,0-.4-3.1C1666.027,387.832,1665.692,387.48,1665.223,387.48ZM1661,391.144a6.056,6.056,0,0,1,1.139-3.805,4.376,4.376,0,0,1,6.3,0,6.057,6.057,0,0,1,1.139,3.805,5.919,5.919,0,0,1-1.139,3.805,3.866,3.866,0,0,1-3.15,1.409,3.959,3.959,0,0,1-3.15-1.409A5.918,5.918,0,0,1,1661,391.144Z" transform="translate(-1549.668 -358.8)" fill="#2b2a29"/><path d="M1798.737,334.96a5.8,5.8,0,0,0-.134-1.48c-.067-.211-.268-.282-.469-.352v-.493l3.217-.634v11.063a8.417,8.417,0,0,0,.134,1.762,1.2,1.2,0,0,0,.6.564v.493H1798v-.493a.826.826,0,0,0,.536-.352,2.664,2.664,0,0,0,.2-1.268Z" transform="translate(-1677.486 -308.605)" fill="#2b2a29"/><path d="M1872.161,389.453a3.844,3.844,0,0,0-.4-1.48.78.78,0,0,0-.737-.493.945.945,0,0,0-.8.564,2.4,2.4,0,0,0-.4,1.48,1.3,1.3,0,0,0,.067.423v.282Zm-2.212,1.973a5.182,5.182,0,0,0,.8,2.325,1.8,1.8,0,0,0,1.609.916,1.62,1.62,0,0,0,1.273-.634,3.832,3.832,0,0,0,.939-1.832l.4.07-.871,3.876h-.536a4.354,4.354,0,0,0-.8.07,6.375,6.375,0,0,1-1.072.141,4.147,4.147,0,0,1-3.351-1.55A5.555,5.555,0,0,1,1867,391a5.247,5.247,0,0,1,1.207-3.594,3.671,3.671,0,0,1,3.016-1.409,3.063,3.063,0,0,1,2.279.846,6.579,6.579,0,0,1,1.407,2.96Z" transform="translate(-1741.861 -358.8)" fill="#2b2a29"/><path d="M1993.738,396.694v-4.3a4.61,4.61,0,0,0-.134-1.268.976.976,0,0,0-.6-.423v-.493l3.351-.211v6.342a3.075,3.075,0,0,0,.2,1.268.514.514,0,0,0,.536.423c.4,0,.737-.282.938-.846a5.794,5.794,0,0,0,.335-2.4v-2.4a2.915,2.915,0,0,0-.134-1.268.977.977,0,0,0-.6-.423v-.493l3.351-.211v7.54a2.661,2.661,0,0,0,.2,1.268.822.822,0,0,0,.6.423v.564h-3.15a3.237,3.237,0,0,1-.134-.7c-.067-.282-.067-.564-.134-.846a3.936,3.936,0,0,1-1.274,1.339,2.846,2.846,0,0,1-1.475.493,1.672,1.672,0,0,1-1.475-.775A5.877,5.877,0,0,1,1993.738,396.694Z" transform="translate(-1859.416 -362.518)" fill="#2b2a29"/><path d="M2139.848,397.936v-.493a.661.661,0,0,0,.536-.493,3.39,3.39,0,0,0,.2-1.409v-3.735a5.269,5.269,0,0,0-.134-1.339c-.134-.282-.268-.423-.536-.423q-.5,0-.8.846a7.687,7.687,0,0,0-.335,2.466v1.762a7.905,7.905,0,0,0,.134,1.762c.134.282.268.493.536.564v.493h-3.955v-.493a.764.764,0,0,0,.537-.493,3.713,3.713,0,0,0,.134-1.409v-3.735a3.5,3.5,0,0,0-.134-1.339.5.5,0,0,0-.469-.423c-.4,0-.67.282-.871.846a7.978,7.978,0,0,0-.268,2.466v1.762a5.355,5.355,0,0,0,.134,1.762.747.747,0,0,0,.536.564v.493h-3.954v-.493a1.055,1.055,0,0,0,.536-.352,4.622,4.622,0,0,0,.134-1.268v-5.285a2.661,2.661,0,0,0-.2-1.268.7.7,0,0,0-.536-.423l-.067-.493,3.083-.211a6.061,6.061,0,0,1,.2.775c.067.282.067.634.134.987a5.185,5.185,0,0,1,1.14-1.48,2.765,2.765,0,0,1,1.474-.423,1.64,1.64,0,0,1,1.139.423,2.689,2.689,0,0,1,.6,1.339,4.582,4.582,0,0,1,1.207-1.339,2.715,2.715,0,0,1,1.408-.423,1.442,1.442,0,0,1,1.407.7,5.872,5.872,0,0,1,.4,2.607V395.4a4.376,4.376,0,0,0,.134,1.55.86.86,0,0,0,.6.493v.493Z" transform="translate(-1988.166 -360.659)" fill="#2b2a29"/><path d="M542.665,35.057a1.557,1.557,0,0,0-.737,1.48c.938,4.933,2.748,12.12-6.167,11.416-4.491-.7-3.351-3.664-3.016-4.51s2.011-2.678,2.011-2.044-1.408,2.044-.67,3.171c.67,1.127,4.357,1.691,6.1.916.4-.07,2.212-.634,1.341-4.651a52.572,52.572,0,0,0-1.542-5.355,1.273,1.273,0,0,1,.536-1.691c.67-.352.8-.493,1.207,0C542.129,34.352,542.732,35.057,542.665,35.057Z" transform="translate(-496.684 -31.111)" fill="#2b2a29" fill-rule="evenodd"/><path d="M715.264,132.3a6.855,6.855,0,0,1-3.82.564c-1.34-.141-2.212-.564-1.676-.987a5.692,5.692,0,0,0,3.217-.211,14.159,14.159,0,0,0,3.552-2.607c.8-.916,1.609-2.325.938-2.044-2.882,1.268-3.754-.987-2.748-2.607.67-.987,1.005-1.409,1.743-1.409C719.821,123,718.816,130.329,715.264,132.3Zm.871-7.54a.75.75,0,0,1,.737.7.746.746,0,0,1-1.475,0A.75.75,0,0,1,716.135,124.762Z" transform="translate(-662.044 -114.333)" fill="#2b2a29" fill-rule="evenodd"/><path d="M859,55.129a2.126,2.126,0,0,1,1.207-.141,4.925,4.925,0,0,0,2.815-.493,7.149,7.149,0,0,0,2.614-2.114.68.68,0,0,0,0-1.057c-.335-.282-1.139-1.057-1.139-1.057a.33.33,0,0,1-.067-.564,8.21,8.21,0,0,0,.938-1.2.786.786,0,0,1,.871.211c.4.352.6.634,1.139.634.6,0,2.547-.07,2.547-.07s.67-.211.8-.564c.2-.352.536-.564.8-.282.2.282.335.7,1.005.775.737,0,3.15-.07,3.15-.07l.67-.775a1.218,1.218,0,0,1,.938.493.912.912,0,0,0,.938.352c.335-.07,18.5-.07,18.5-.07a1.766,1.766,0,0,0,1.34-1.621c0-1.409-.536-5.708-.469-6.272.134-.634,1.072-1.268,1.34,0,.268,1.2.335,5.708,1.005,6.835s.8,1.2,1.542,1.2c.67,0,1.944-.07,1.944-.07a1.277,1.277,0,0,0,.737-.987c.067-.7-1.005-4.721-1.072-6.06-.067-1.268.067-1.339.335-1.762.268-.493.872-.634,1.341,0,.469.564.871.916.335,1.55-.6.564-.67,1.832-.2,3.1.469,1.2.67,4.017,0,4.933-.67.987-1.005,1.2-1.81,1.268a27.2,27.2,0,0,1-2.949.141,1.728,1.728,0,0,1-.938-.634c-.335-.493-.6-1.973-.871-1.48s-1.14,1.832-2.078,1.973-18.7.211-18.7.211a4.212,4.212,0,0,1-.938-.7c-.268-.211.067-.846-.469-.493s-.536.775-1.273.916a25.958,25.958,0,0,1-3.15.07,1.571,1.571,0,0,0-.469-.423c-.335-.211-.737-.916-1.073-.423s-.335.846-1.139.987a11.453,11.453,0,0,1-2.279,0s-.4,3.03-1.944,4.017a4.679,4.679,0,0,1-4.089.775A7.336,7.336,0,0,1,859,55.129Z" transform="translate(-801.424 -37.16)" fill="#2b2a29" fill-rule="evenodd"/><path d="M.762-.017l.205,0a.714.714,0,0,1,.744.731.8.8,0,0,1-.779.766l-.205,0A.714.714,0,0,1-.017.749.8.8,0,0,1,.762-.017Z" transform="matrix(0.571, -0.821, 0.821, 0.571, 66.731, 9.201)" fill="#2b2a29"/><path d="M.762-.017l.205,0a.714.714,0,0,1,.744.731.8.8,0,0,1-.779.766l-.205,0A.714.714,0,0,1-.017.749.8.8,0,0,1,.762-.017Z" transform="matrix(0.571, -0.821, 0.821, 0.571, 69.255, 9.201)" fill="#2b2a29"/><path d="M.762-.017l.205,0a.714.714,0,0,1,.744.731.8.8,0,0,1-.779.766l-.205,0A.714.714,0,0,1-.017.749.8.8,0,0,1,.762-.017Z" transform="matrix(0.571, -0.821, 0.821, 0.571, 73.635, 16.159)" fill="#2b2a29"/><path d="M1708.13,120a8.26,8.26,0,0,1,.469,2.537,3.807,3.807,0,0,1-2.279,2.607c-1.273.352-20.979.141-20.979.141s-1.475.282-.737.7c.8.352,2.078.352,2.681.846a1.144,1.144,0,0,1,.067,1.832c-.67.846-4.826,1.973-7.44,1.762s-4.089-1.9-4.089-2.607a4.491,4.491,0,0,1,.469-2.678c.6-.987,1.206-2.044,1.072-1.268-.067.775-.737,2.114-.2,2.96s1.676,1.973,4.223,1.832c2.48-.07,4.357.07,4.893-.352s1.81-.7.2-.775c-1.676,0-3.284-.141-3.485-.775a2.605,2.605,0,0,1,.67-2.4,5.149,5.149,0,0,1,2.815-1.057c.938,0,20.175-.141,20.175-.141s1.073-.141.536-.775-1.274-.7-.938-1.057a5.678,5.678,0,0,0,.938-1.55C1707.259,119.3,1708.13,119.648,1708.13,120Z" transform="translate(-1563.486 -111.121)" fill="#2b2a29" fill-rule="evenodd"/><path d="M.762-.017l.205,0a.714.714,0,0,1,.744.731.8.8,0,0,1-.779.766l-.205,0A.714.714,0,0,1-.017.749.8.8,0,0,1,.762-.017Z" transform="matrix(0.571, -0.821, 0.821, 0.571, 115.467, 20.88)" fill="#2b2a29"/><path d="M.762-.017l.205,0a.714.714,0,0,1,.744.731.8.8,0,0,1-.779.766l-.205,0A.714.714,0,0,1-.017.749.8.8,0,0,1,.762-.017Z" transform="matrix(0.571, -0.821, 0.821, 0.571, 118.043, 20.715)" fill="#2b2a29"/><path d="M.762-.017l.205,0a.714.714,0,0,1,.744.731.8.8,0,0,1-.779.766l-.205,0A.714.714,0,0,1-.017.749.8.8,0,0,1,.762-.017Z" transform="matrix(0.571, -0.821, 0.821, 0.571, 142.492, 15.95)" fill="#2b2a29"/><path d="M2200.486,94.3s-.335-.211-.6.211-.938,1.268-.938,1.268-.067.564.268.634c.4.07,3.687,1.339,3.955,1.9.2.564.134.846-.67,1.127a30.456,30.456,0,0,1-4.893.141s-.268.07-.4.634a8.22,8.22,0,0,1-.2,1.057.673.673,0,0,0,.67.423c.536,0,3.821,0,5.094-.564a2.919,2.919,0,0,0,.871-4.158A18.252,18.252,0,0,0,2200.486,94.3Z" transform="translate(-2049.742 -87.609)" fill="#2b2a29" fill-rule="evenodd"/></svg>