<svg xmlns="http://www.w3.org/2000/svg" width="127.095" height="38.214" viewBox="0 0 127.095 38.214"><g transform="translate(-0.15 -0.054)"><path d="M13.593,87.716a4.482,4.482,0,0,1,4.487-4.484V78.75H.15v4.482a4.483,4.483,0,0,1,0,8.966v4.482H18.079V92.2a4.482,4.482,0,0,1-4.487-4.482Z" transform="translate(0 -58.68)" fill="#555"/><path d="M85.576,11.243A8.966,8.966,0,0,0,76.61,2.28V20.212a8.966,8.966,0,0,0,8.966-8.963,8.966,8.966,0,0,0,8.966,8.963V2.28A8.966,8.966,0,0,0,85.576,11.243Z" transform="translate(-57.012 -1.66)" fill="#555"/><path d="M12.476,2.308c-.186-.018-.371-.028-.56-.028H.15V20.212H3.51v-5.6h8.406a3.733,3.733,0,0,0,.56-.028,6.16,6.16,0,0,0,0-12.273Zm-.56,8.938H3.523V5.65h8.394a2.8,2.8,0,0,1,0,5.6Z" transform="translate(0 -1.66)" fill="#555"/><path d="M76.61,134.364V129.29l5.074,5.074Z" transform="translate(-57.012 -96.365)" fill="#555"/><path d="M86.838,104.151,76.61,93.923V88.77l15.383,15.381Z" transform="translate(-57.012 -66.151)" fill="#555"/><path d="M132.4,78.75v5.018L127.38,78.75Z" transform="translate(-94.869 -58.68)" fill="#555"/><path d="M102.177,94.075,86.85,78.75H92l10.174,10.172Z" transform="translate(-64.648 -58.68)" fill="#555"/><path d="M152.074,144.728h-.354v-.168h.893v.168h-.351v1.017h-.188Zm.661-.168h.254l.425.961.417-.961h.254v1.19H153.9v-.931l-.407.931h-.175l-.4-.931v.931h-.188Z" transform="translate(-113.018 -107.751)" fill="#555"/><path d="M183.843,2.27h4.263a4.283,4.283,0,0,1,1.707.354,3.258,3.258,0,0,1,1.335,1.038,2.661,2.661,0,0,1,.509,1.651,2.745,2.745,0,0,1-.458,1.552,3.083,3.083,0,0,1-1.272,1.081,4.217,4.217,0,0,1-1.849.394h-2.1v3.1H183.84Zm3.9,4.433a2.18,2.18,0,0,0,.9-.181,1.526,1.526,0,0,0,.626-.506A1.206,1.206,0,0,0,189.5,5.3a1.244,1.244,0,0,0-.219-.73,1.48,1.48,0,0,0-.618-.5,2.208,2.208,0,0,0-.913-.181h-1.765v2.8Z" transform="translate(-136.968 -1.652)" fill="#555"/><path d="M217.75,11.795H219.3l.3,1.058a2.035,2.035,0,0,1,.763-.941,2.07,2.07,0,0,1,1.147-.323,1.941,1.941,0,0,1,1.05.285,2.175,2.175,0,0,1,.745.8,2.968,2.968,0,0,1,.356,1.185l-1.638.45a1.358,1.358,0,0,0-.346-.883,1.017,1.017,0,0,0-.763-.354.977.977,0,0,0-.626.219,1.414,1.414,0,0,0-.432.61,2.424,2.424,0,0,0-.153.883V18.39h-1.946Z" transform="translate(-162.253 -8.601)" fill="#555"/><path d="M244.778,18.158a3.19,3.19,0,0,1-1.295-1.229,3.792,3.792,0,0,1-.023-3.673,3.2,3.2,0,0,1,1.318-1.231,4.372,4.372,0,0,1,3.815,0,3.18,3.18,0,0,1,1.272,1.231,3.855,3.855,0,0,1,0,3.673,3.174,3.174,0,0,1-1.295,1.229,4.372,4.372,0,0,1-3.815,0Zm2.8-1.45a1.635,1.635,0,0,0,.618-.656,2.217,2.217,0,0,0,0-1.92,1.668,1.668,0,0,0-.618-.659,1.722,1.722,0,0,0-.89-.239,1.7,1.7,0,0,0-.89.239,1.651,1.651,0,0,0-.61.656,2.194,2.194,0,0,0,0,1.92,1.618,1.618,0,0,0,.61.656,1.679,1.679,0,0,0,.9.239A1.7,1.7,0,0,0,247.576,16.708Z" transform="translate(-181.078 -8.6)" fill="#555"/><path d="M264.973,12.684a2.228,2.228,0,0,1-.913-.743l.862-1.132a1.272,1.272,0,0,0,.463.509A1.183,1.183,0,0,0,266,11.5a.89.89,0,0,0,.839-.542,1.4,1.4,0,0,0,.114-.58V3.194h1.933v7.473a2.162,2.162,0,0,1-1.244,2,3,3,0,0,1-1.346.29,3.123,3.123,0,0,1-1.328-.275ZM267.1,2a1.086,1.086,0,0,1-.328-.819,1.073,1.073,0,0,1,.32-.816,1.272,1.272,0,0,1,1.669,0,1.078,1.078,0,0,1,.323.806,1.091,1.091,0,0,1-.323.819,1.272,1.272,0,0,1-1.669,0Z" transform="translate(-196.784 0)" fill="#555"/><path d="M292.019,11.939a2.956,2.956,0,0,1,1.185,1.223,3.844,3.844,0,0,1,.42,1.824v.3a2.515,2.515,0,0,1-.02.254h-4.94a1.605,1.605,0,0,0,.346.811,1.854,1.854,0,0,0,.73.534,2.47,2.47,0,0,0,.972.186,2.623,2.623,0,0,0,1.127-.254,1.781,1.781,0,0,0,.763-.618l1.16.824a2.567,2.567,0,0,1-1.249,1.063,4.736,4.736,0,0,1-1.984.4,4.255,4.255,0,0,1-1.984-.455,3.5,3.5,0,0,1-1.379-1.272,3.38,3.38,0,0,1-.509-1.834,3.482,3.482,0,0,1,.455-1.8,3.235,3.235,0,0,1,1.272-1.218,3.8,3.8,0,0,1,1.834-.437,3.6,3.6,0,0,1,1.8.46Zm-2.544,1.173a1.368,1.368,0,0,0-.529.509,2.171,2.171,0,0,0-.282.763h2.989a2.015,2.015,0,0,0-.239-.763,1.374,1.374,0,0,0-1.218-.7A1.478,1.478,0,0,0,289.476,13.111Z" transform="translate(-213.633 -8.518)" fill="#555"/><path d="M318.691,18.153a3.263,3.263,0,0,1-1.3-1.251,3.525,3.525,0,0,1-.471-1.808,3.68,3.68,0,0,1,.445-1.816,3.161,3.161,0,0,1,1.223-1.244,3.5,3.5,0,0,1,1.78-.445,3.688,3.688,0,0,1,1.455.29,3.218,3.218,0,0,1,1.147.806,2.528,2.528,0,0,1,.605,1.185l-1.78.45a1.442,1.442,0,0,0-.509-.819,1.386,1.386,0,0,0-.883-.315,1.348,1.348,0,0,0-.786.239,1.587,1.587,0,0,0-.547.677,2.342,2.342,0,0,0-.2.992,2.142,2.142,0,0,0,.226.992,1.679,1.679,0,0,0,.61.677,1.709,1.709,0,0,0,2.249-.458,1.628,1.628,0,0,0,.3-.735l1.8.254a2.871,2.871,0,0,1-.6,1.429,3.411,3.411,0,0,1-1.257.984,4.07,4.07,0,0,1-3.51-.089Z" transform="translate(-236.197 -8.6)" fill="#555"/><path d="M347.857,12.342a2.035,2.035,0,0,1-.87-.837,2.64,2.64,0,0,1-.3-1.29V7.3H345.42V5.831h1.272V4.015l1.943-.425-.015,2.241H351.3V7.3H348.62l.013,2.615a1.223,1.223,0,0,0,.285.844.944.944,0,0,0,.738.31,1.287,1.287,0,0,0,.786-.254,1.928,1.928,0,0,0,.565-.694l.684,1.147a2.752,2.752,0,0,1-.987,1.017,2.841,2.841,0,0,1-1.447.346A3,3,0,0,1,347.857,12.342Z" transform="translate(-257.45 -2.637)" fill="#555"/><path d="M183.85,58.07H185.4l3.324,7.91,3.324-7.91h1.546v9.083h-1.068V59.616l-3.238,7.536h-1.132l-3.235-7.524v7.524H183.85Z" transform="translate(-136.975 -43.26)" fill="#555"/><path d="M228.331,73.957a2.116,2.116,0,0,1-.9-.7,1.684,1.684,0,0,1-.328-1.017,1.656,1.656,0,0,1,.3-.972,2.4,2.4,0,0,1,.944-.74,5.4,5.4,0,0,1,1.681-.427l1.6-.193a.654.654,0,0,0,.394-.16.445.445,0,0,0,.147-.341,1.035,1.035,0,0,0-.254-.7,1.742,1.742,0,0,0-.694-.471,2.61,2.61,0,0,0-.949-.168,2.442,2.442,0,0,0-1.063.226,2.035,2.035,0,0,0-.745.58,1.3,1.3,0,0,0-.3.727l-.89-.374a1.91,1.91,0,0,1,.471-1,2.8,2.8,0,0,1,1.081-.763,3.838,3.838,0,0,1,1.488-.282,3.5,3.5,0,0,1,1.47.3,2.383,2.383,0,0,1,1,.837,2.215,2.215,0,0,1,.361,1.251v3.307a.481.481,0,0,0,.1.323.313.313,0,0,0,.254.117.471.471,0,0,0,.272-.1,1.03,1.03,0,0,0,.254-.282l.529.618a1.412,1.412,0,0,1-.575.488,1.671,1.671,0,0,1-.74.181,1.038,1.038,0,0,1-1.081-1.094v-.254a2.562,2.562,0,0,1-1.457,1.18,3.362,3.362,0,0,1-1.056.16A3.306,3.306,0,0,1,228.331,73.957Zm2.694-.928a2.1,2.1,0,0,0,.829-.763,2.06,2.06,0,0,0,.308-1.1v-.468l-2.009.254a3.672,3.672,0,0,0-1.585.476.977.977,0,0,0-.476.8.9.9,0,0,0,.483.786,2.368,2.368,0,0,0,1.257.3A2.544,2.544,0,0,0,231.024,73.029Z" transform="translate(-169.224 -50.051)" fill="#555"/><path d="M259.39,67.445h.89l.089.954a2.353,2.353,0,0,1,.941-.89,2.711,2.711,0,0,1,1.287-.32,2.648,2.648,0,0,1,1.412.374,2.543,2.543,0,0,1,.946,1.017,3.174,3.174,0,0,1,.336,1.475v3.892H264.3V70.06a2.315,2.315,0,0,0-.219-1.017,1.656,1.656,0,0,0-.631-.7,1.826,1.826,0,0,0-.967-.254,2.1,2.1,0,0,0-2.114,2.126v3.739h-.979Z" transform="translate(-193.302 -50.058)" fill="#555"/><path d="M287.871,73.958a2.085,2.085,0,0,1-.9-.7,1.684,1.684,0,0,1-.328-1.017,1.656,1.656,0,0,1,.3-.972,2.361,2.361,0,0,1,.954-.74,5.385,5.385,0,0,1,1.681-.427l1.6-.193a.641.641,0,0,0,.392-.16.44.44,0,0,0,.15-.328,1.036,1.036,0,0,0-.254-.7,1.75,1.75,0,0,0-.7-.471,2.587,2.587,0,0,0-.946-.168,2.434,2.434,0,0,0-1.063.226,2.065,2.065,0,0,0-.753.567,1.341,1.341,0,0,0-.3.727l-.888-.374a1.892,1.892,0,0,1,.471-1,2.8,2.8,0,0,1,1.081-.763,3.816,3.816,0,0,1,1.488-.282,3.513,3.513,0,0,1,1.457.3,2.4,2.4,0,0,1,1.017.837,2.215,2.215,0,0,1,.361,1.251v3.307a.494.494,0,0,0,.094.323.321.321,0,0,0,.254.117.476.476,0,0,0,.272-.1,1.03,1.03,0,0,0,.254-.282l.529.618a1.445,1.445,0,0,1-.575.488,1.672,1.672,0,0,1-.74.181,1.043,1.043,0,0,1-1.084-1.094v-.254a2.482,2.482,0,0,1-.6.715,2.584,2.584,0,0,1-.857.465,3.376,3.376,0,0,1-1.056.16A3.306,3.306,0,0,1,287.871,73.958Zm2.691-.928a2.124,2.124,0,0,0,.832-.763,2.058,2.058,0,0,0,.3-1.1v-.471l-2.009.254a3.665,3.665,0,0,0-1.585.476.974.974,0,0,0-.476.8.893.893,0,0,0,.483.786,2.368,2.368,0,0,0,1.257.3,2.544,2.544,0,0,0,1.2-.275Z" transform="translate(-213.62 -50.052)" fill="#555"/><path d="M316.448,77.011a3.853,3.853,0,0,1-1.272-.722,3.093,3.093,0,0,1-.806-1.068l.824-.567a2.119,2.119,0,0,0,.555.9,2.772,2.772,0,0,0,.972.61,3.439,3.439,0,0,0,1.244.221,2.823,2.823,0,0,0,1.391-.336,2.355,2.355,0,0,0,.936-.923,2.666,2.666,0,0,0,.331-1.335v-.872a2.945,2.945,0,0,1-1.058.972,2.912,2.912,0,0,1-1.417.343,3.192,3.192,0,0,1-1.669-.445,3.141,3.141,0,0,1-1.16-1.223A3.685,3.685,0,0,1,314.9,70.8a3.815,3.815,0,0,1,.417-1.78,3.111,3.111,0,0,1,2.828-1.7,2.887,2.887,0,0,1,2.488,1.3l.1-1.081h.878v6.247a3.482,3.482,0,0,1-.471,1.8,3.22,3.22,0,0,1-1.287,1.236,3.861,3.861,0,0,1-1.87.445A4.66,4.66,0,0,1,316.448,77.011Zm3.052-4a2.29,2.29,0,0,0,.857-.908,2.722,2.722,0,0,0,.3-1.3,2.9,2.9,0,0,0-.31-1.346,2.339,2.339,0,0,0-4.161,0,2.9,2.9,0,0,0-.308,1.343,2.666,2.666,0,0,0,.315,1.3,2.34,2.34,0,0,0,.857.908,2.432,2.432,0,0,0,2.439,0Z" transform="translate(-234.297 -50.154)" fill="#555"/><path d="M352.3,67.626a2.991,2.991,0,0,1,1.114,1.231,3.993,3.993,0,0,1,.412,1.78v.188a1.811,1.811,0,0,1-.013.2h-5.476a2.565,2.565,0,0,0,.412,1.2,2.411,2.411,0,0,0,.916.811,2.859,2.859,0,0,0,2.622-.059,2.121,2.121,0,0,0,.883-.89l.85.348a2.727,2.727,0,0,1-1.178,1.272,3.981,3.981,0,0,1-3.777.038,3.281,3.281,0,0,1-1.272-1.272,3.879,3.879,0,0,1-.041-3.614,3.136,3.136,0,0,1,1.185-1.231,3.342,3.342,0,0,1,1.714-.443A3.108,3.108,0,0,1,352.3,67.626Zm-2.767.722a2.106,2.106,0,0,0-.794.733,2.709,2.709,0,0,0-.4,1.084h4.433a2.783,2.783,0,0,0-.361-1.089,1.953,1.953,0,0,0-.748-.727,2.093,2.093,0,0,0-1.043-.254A2.259,2.259,0,0,0,349.53,68.348Z" transform="translate(-258.868 -50.058)" fill="#555"/><path d="M377.71,67.42h.85l.1.811a2.124,2.124,0,0,1,.811-.791,2.289,2.289,0,0,1,1.122-.277,2.688,2.688,0,0,1,1.409.366,2.17,2.17,0,0,1,.9,1,2.447,2.447,0,0,1,.908-.992,2.544,2.544,0,0,1,3.614,1.017,3.175,3.175,0,0,1,.336,1.475v3.892h-.992v-3.9A2.289,2.289,0,0,0,386.549,69a1.7,1.7,0,0,0-.613-.7,1.62,1.62,0,0,0-.9-.254,1.839,1.839,0,0,0-.946.254,1.679,1.679,0,0,0-.651.7,2.185,2.185,0,0,0-.231,1.017v3.9h-.979v-3.9A2.345,2.345,0,0,0,382.019,69a1.615,1.615,0,0,0-.605-.689,1.684,1.684,0,0,0-.908-.254,1.836,1.836,0,0,0-.954.254,1.666,1.666,0,0,0-.636.689,2.244,2.244,0,0,0-.226,1.017v3.9h-.979Z" transform="translate(-281.526 -50.033)" fill="#555"/><path d="M426.4,67.647a2.991,2.991,0,0,1,1.114,1.231,4.07,4.07,0,0,1,.412,1.78v.188a1.811,1.811,0,0,1-.013.2h-5.481a2.564,2.564,0,0,0,.407,1.2,2.394,2.394,0,0,0,.916.811A2.859,2.859,0,0,0,426.376,73a2.121,2.121,0,0,0,.883-.89l.85.348a2.719,2.719,0,0,1-1.18,1.272,3.975,3.975,0,0,1-3.775.038,3.306,3.306,0,0,1-1.272-1.272,3.7,3.7,0,0,1-.463-1.842,3.66,3.66,0,0,1,.425-1.765,3.136,3.136,0,0,1,1.185-1.231,3.342,3.342,0,0,1,1.714-.443A3.108,3.108,0,0,1,426.4,67.647Zm-2.757.722a2.106,2.106,0,0,0-.8.733,2.708,2.708,0,0,0-.4,1.084h4.433a2.782,2.782,0,0,0-.361-1.089,1.953,1.953,0,0,0-.748-.727,2.093,2.093,0,0,0-1.043-.254,2.258,2.258,0,0,0-1.083.254Z" transform="translate(-314.118 -50.079)" fill="#555"/><path d="M451.81,67.445h.888l.092.954a2.353,2.353,0,0,1,.941-.89,2.7,2.7,0,0,1,1.287-.32,2.655,2.655,0,0,1,1.419.374,2.544,2.544,0,0,1,.946,1.017,3.174,3.174,0,0,1,.336,1.475v3.892h-.992V70.06a2.315,2.315,0,0,0-.219-1.017,1.664,1.664,0,0,0-.633-.7,1.809,1.809,0,0,0-.964-.254,2.086,2.086,0,0,0-1.05.277,2.111,2.111,0,0,0-.763.763,2.075,2.075,0,0,0-.29,1.089v3.736h-.979Z" transform="translate(-336.779 -50.058)" fill="#555"/><path d="M479.611,68.361a1.839,1.839,0,0,1-.727-.707,2.066,2.066,0,0,1-.254-1.038v-3.95H477.2v-.811h1.429V59.921l.979-.231v2.165h2.907v.811h-2.91V66.5a1.3,1.3,0,0,0,.315.908,1.068,1.068,0,0,0,.842.356,1.325,1.325,0,0,0,.9-.356,1.526,1.526,0,0,0,.491-.959l.8.336a2.012,2.012,0,0,1-.781,1.328,2.393,2.393,0,0,1-1.5.509A2.193,2.193,0,0,1,479.611,68.361Z" transform="translate(-355.711 -44.468)" fill="#555"/><path d="M183.85,113.51h1.068v9.083H183.85Z" transform="translate(-136.975 -84.598)" fill="#555"/><path d="M194.3,122.885h.888l.092.954a2.34,2.34,0,0,1,.939-.888,2.694,2.694,0,0,1,1.29-.323,2.66,2.66,0,0,1,1.412.374,2.543,2.543,0,0,1,.946,1.017,3.157,3.157,0,0,1,.333,1.473v3.892h-.989v-3.892a2.289,2.289,0,0,0-.221-1.017,1.641,1.641,0,0,0-.631-.7,1.819,1.819,0,0,0-.967-.254,2.081,2.081,0,0,0-1.048.275,2.132,2.132,0,0,0-.763.763,2.081,2.081,0,0,0-.29,1.089v3.736H194.3Z" transform="translate(-144.767 -91.397)" fill="#555"/><path d="M222.752,129.367a2.917,2.917,0,0,1-1.094-.791,2.218,2.218,0,0,1-.509-1.147l.967-.193a1.437,1.437,0,0,0,.323.794,1.836,1.836,0,0,0,.763.547,2.684,2.684,0,0,0,1.038.193,2.732,2.732,0,0,0,.921-.148,1.6,1.6,0,0,0,.643-.412.865.865,0,0,0,.239-.588.674.674,0,0,0-.254-.547,1.74,1.74,0,0,0-.644-.323c-.254-.071-.588-.148-.992-.224a11.764,11.764,0,0,1-1.379-.323,2.129,2.129,0,0,1-.9-.547,1.452,1.452,0,0,1-.366-1.05,1.707,1.707,0,0,1,.315-1,2.164,2.164,0,0,1,.862-.71,2.881,2.881,0,0,1,1.231-.254,3.121,3.121,0,0,1,1.223.231,2.564,2.564,0,0,1,.921.638,1.981,1.981,0,0,1,.483.921l-.939.254a1.2,1.2,0,0,0-.537-.85,1.953,1.953,0,0,0-1.165-.336,1.74,1.74,0,0,0-.727.15,1.3,1.3,0,0,0-.521.4.885.885,0,0,0-.193.56.618.618,0,0,0,.254.529,1.526,1.526,0,0,0,.455.254c.13.033.534.112,1.211.231a9.391,9.391,0,0,1,1.335.354,2.383,2.383,0,0,1,.908.58,1.384,1.384,0,0,1,.361.987,1.78,1.78,0,0,1-.361,1.089,2.429,2.429,0,0,1-.987.763,3.423,3.423,0,0,1-1.409.277,3.663,3.663,0,0,1-1.483-.305Z" transform="translate(-164.788 -91.405)" fill="#555"/><path d="M247.544,123.8a1.811,1.811,0,0,1-.73-.715,2.093,2.093,0,0,1-.254-1.038v-3.942H245.13v-.811h1.429v-1.931l.979-.234v2.165h2.9v.811h-2.9v3.841a1.312,1.312,0,0,0,.315.908,1.073,1.073,0,0,0,.844.354,1.313,1.313,0,0,0,.9-.354,1.541,1.541,0,0,0,.491-.961l.8.336a2.012,2.012,0,0,1-.781,1.328,2.378,2.378,0,0,1-1.5.509A2.154,2.154,0,0,1,247.544,123.8Z" transform="translate(-182.669 -85.806)" fill="#555"/><path d="M270.3,114.439a.7.7,0,0,1-.2-.524.687.687,0,0,1,.2-.509.7.7,0,0,1,.521-.2.735.735,0,0,1,.524.2.682.682,0,0,1,.206.509.7.7,0,0,1-.206.524.735.735,0,0,1-.529.2.7.7,0,0,1-.516-.2Zm.018,1.422h.979v6.506h-.969Z" transform="translate(-201.285 -84.373)" fill="#555"/><path d="M280.484,123.8a1.811,1.811,0,0,1-.73-.715,2.094,2.094,0,0,1-.254-1.038v-3.942H278.07v-.811H279.5v-1.931l.979-.234v2.165h2.915v.811h-2.917v3.841a1.312,1.312,0,0,0,.315.908,1.073,1.073,0,0,0,.844.354,1.312,1.312,0,0,0,.9-.354,1.542,1.542,0,0,0,.491-.961l.8.326a2.02,2.02,0,0,1-.778,1.328,2.391,2.391,0,0,1-1.5.509,2.154,2.154,0,0,1-1.061-.254Z" transform="translate(-207.23 -85.806)" fill="#555"/><path d="M304.8,130.037a2.493,2.493,0,0,1-.949-1.017,3.2,3.2,0,0,1-.333-1.488V123.64h.979v3.892a2.243,2.243,0,0,0,.224,1.017,1.755,1.755,0,0,0,.638.7,1.78,1.78,0,0,0,.967.254,2.035,2.035,0,0,0,1.035-.277,2.111,2.111,0,0,0,.763-.763,2.068,2.068,0,0,0,.29-1.089V123.64h.992v6.506h-.888l-.1-.954a2.254,2.254,0,0,1-.934.89,2.721,2.721,0,0,1-1.272.32A2.688,2.688,0,0,1,304.8,130.037Z" transform="translate(-226.205 -92.152)" fill="#555"/><path d="M332.181,123.8a1.821,1.821,0,0,1-.727-.715,2.093,2.093,0,0,1-.254-1.038v-3.942H329.77v-.811H331.2v-1.931l.979-.234v2.165h2.91v.811h-2.912v3.841a1.313,1.313,0,0,0,.315.908,1.073,1.073,0,0,0,.844.354,1.323,1.323,0,0,0,.9-.354,1.541,1.541,0,0,0,.491-.961l.8.326a2.012,2.012,0,0,1-.781,1.328,2.378,2.378,0,0,1-1.5.509A2.17,2.17,0,0,1,332.181,123.8Z" transform="translate(-245.78 -85.806)" fill="#555"/><path d="M359.458,123.059a2.956,2.956,0,0,1,1.114,1.231,4.036,4.036,0,0,1,.415,1.78v.188a1.358,1.358,0,0,1-.015.2h-5.466a2.564,2.564,0,0,0,.412,1.193,2.373,2.373,0,0,0,.916.811,2.854,2.854,0,0,0,2.62-.059,2.116,2.116,0,0,0,.883-.888l.852.346a2.732,2.732,0,0,1-1.18,1.272,3.983,3.983,0,0,1-3.775.041,3.307,3.307,0,0,1-1.272-1.272,3.711,3.711,0,0,1-.463-1.844,3.637,3.637,0,0,1,.425-1.765,3.111,3.111,0,0,1,1.185-1.229,3.319,3.319,0,0,1,1.714-.445A3.093,3.093,0,0,1,359.458,123.059Zm-2.757.722a2.124,2.124,0,0,0-.791.735,2.684,2.684,0,0,0-.4,1.081h4.431a2.7,2.7,0,0,0-.361-1.089,1.984,1.984,0,0,0-.745-.727,2.108,2.108,0,0,0-1.045-.254,2.272,2.272,0,0,0-1.081.254Z" transform="translate(-264.219 -91.39)" fill="#555"/><path d="M384.152,144.637a.872.872,0,0,1-.333-.333.933.933,0,0,1-.12-.478.951.951,0,0,1,.122-.481.911.911,0,0,1,.333-.333.951.951,0,0,1,.481-.122.941.941,0,0,1,.478.12.9.9,0,0,1,.333.336.977.977,0,0,1,.12.481.959.959,0,0,1-.12.478.873.873,0,0,1-.333.333.941.941,0,0,1-.478.12.954.954,0,0,1-.483-.12Zm.913-.079a.809.809,0,0,0,.3-.3.905.905,0,0,0,0-.862.8.8,0,0,0-.3-.305.863.863,0,0,0-.427-.109.85.85,0,0,0-.435.109.763.763,0,0,0-.3.3.863.863,0,0,0-.109.435.852.852,0,0,0,.109.43.781.781,0,0,0,.3.3.875.875,0,0,0,.435.107A.86.86,0,0,0,385.065,144.558Z" transform="translate(-285.992 -106.505)" fill="#555"/><path d="M386.675,145.43l-.29-.509a.375.375,0,0,0,.094-.033.326.326,0,0,0,.188-.305h0a.323.323,0,0,0-.046-.17.316.316,0,0,0-.132-.12.407.407,0,0,0-.193-.043h-.5v1.188h.176v-.5h.221l.282.509Zm-.7-.646v-.394h.254a.3.3,0,0,1,.186.053.17.17,0,0,1,.071.145.165.165,0,0,1-.069.142.287.287,0,0,1-.181.053Z" transform="translate(-287.559 -107.519)" fill="#555"/></g></svg>