<svg xmlns="http://www.w3.org/2000/svg" width="25.297" height="25.297" viewBox="0 0 25.297 25.297"><g transform="translate(-10.5 -10.5)"><g transform="translate(11 11)"><path d="M34.781,21.492h-.62V17.307a1.73,1.73,0,0,0-1.706-1.755H31.99v-2.8A1.68,1.68,0,0,0,30.388,11h-.1L12.6,15.547s-.015,0-.02,0A1.744,1.744,0,0,0,11,17.307V33.542A1.73,1.73,0,0,0,12.706,35.3h19.75a1.74,1.74,0,0,0,1.755-1.755V29.248h.57a.487.487,0,0,0,.516-.516V22.013A.519.519,0,0,0,34.781,21.492Zm-4.294-9.511a.763.763,0,0,1,.516.774v2.792H16.737l13.75-3.565Zm2.693,21.56a.752.752,0,0,1-.724.774H12.706a.752.752,0,0,1-.724-.774V17.307a.752.752,0,0,1,.724-.774H32.4a.752.752,0,0,1,.724.774v4.185H28.008a3.878,3.878,0,1,0,0,7.755H33.18Zm1.081-5.276H28.008a2.841,2.841,0,0,1,0-5.683h6.253Z" transform="translate(-11 -11)" fill="#ffac05" stroke="#ffac05" stroke-width="1"/><path d="M342.5,293.016a.515.515,0,0,0,.516.516h.466a.516.516,0,1,0,0-1.031h-.461A.491.491,0,0,0,342.5,293.016Z" transform="translate(-326.062 -278.542)" fill="#ffac05" stroke="#ffac05" stroke-width="1"/></g></g></svg>