<svg xmlns="http://www.w3.org/2000/svg" width="45.923" height="46.007" viewBox="0 0 45.923 46.007"><g transform="translate(0 0)"><path d="M106.394,64.367a17.343,17.343,0,0,0-16.9-17.576V44.153h1.465V42.2H85.973v1.953h1.559v2.732A17.48,17.48,0,0,0,72.2,64.376a17.71,17.71,0,0,0,7.586,14.609l-5.145,4.882,1.343,1.418,5.53-5.248a16.673,16.673,0,0,0,15.642-.047l5.558,5.276,1.343-1.418-5.183-4.92A17.728,17.728,0,0,0,106.394,64.367ZM89.3,80C81,80,74.153,72.967,74.153,64.367a15.152,15.152,0,1,1,30.288,0C104.441,72.967,97.6,80,89.3,80Z" transform="translate(-66.452 -39.278)" fill="#ffbc05"/><path d="M237.553,136.9H235.6v13.961l7.52,3.324.779-1.859-6.347-2.732Z" transform="translate(-214.511 -125.087)" fill="#ffbc05"/><path d="M25.4,13.547A8.451,8.451,0,0,0,13.447,25.5c.188.188.394.366.591.535L25.905,14.091c-.16-.188-.329-.366-.507-.545ZM14.1,23.161a6.413,6.413,0,0,1,8.929-8.994L14.1,23.161Z" transform="translate(-10.975 -11.075)" fill="#ffbc05"/><path d="M353.55,13.547a8.46,8.46,0,0,0-11.952,0,6.791,6.791,0,0,0-.5.554l11.858,11.942q.31-.253.592-.535A8.455,8.455,0,0,0,353.55,13.547Zm-.648,9.614-8.929-8.994a6.413,6.413,0,0,1,8.929,8.994Z" transform="translate(-310.105 -11.075)" fill="#ffbc05"/></g></svg>