<svg xmlns="http://www.w3.org/2000/svg" width="30.756" height="27.028" viewBox="0 0 30.756 27.028"><path d="M11.239-480.829a2.776,2.776,0,0,0-1.868,1.448,3.288,3.288,0,0,0-.3,1.556v.535H.709l-.24.132a.969.969,0,0,0-.354.36c-.108.216-.114.523-.114,10.308,0,6.608.024,10.2.06,10.41a2.732,2.732,0,0,0,2.157,2.157c.445.084,25.879.084,26.323,0a2.732,2.732,0,0,0,2.157-2.157c.036-.21.06-3.8.06-10.392v-10.074l-.132-.264c-.258-.5.006-.481-4.746-.481H21.686v-.535a6.44,6.44,0,0,0-.06-.853,2.732,2.732,0,0,0-2.157-2.157C19.073-480.907,11.624-480.907,11.239-480.829Zm8.164,1.856c.36.186.481.469.481,1.141v.541H10.873v-.541c0-.661.12-.955.469-1.135.216-.114.36-.12,4.025-.126C19.061-479.092,19.175-479.086,19.4-478.972Zm9.179,3.556c-.018.042-.661,1.964-1.424,4.271-.985,2.943-1.442,4.241-1.55,4.367a.887.887,0,0,1-.366.24c-.138.036-1.225.06-2.787.06H19.884v-.541c0-.673-.12-.955-.481-1.141-.228-.114-.348-.12-4.025-.12s-3.8.006-4.025.12c-.36.186-.481.469-.481,1.141v.541H8.308c-1.568,0-2.655-.024-2.793-.06a.887.887,0,0,1-.366-.24c-.108-.126-.565-1.424-1.55-4.367-.763-2.307-1.406-4.229-1.424-4.271s2.649-.072,13.2-.072S28.6-475.47,28.582-475.416Zm-25.158,9.3a3.142,3.142,0,0,0,1.105,1.105c.643.324.745.336,3.658.336h2.685v.541c0,.673.12.955.481,1.141.228.114.348.12,4.025.12s3.8-.006,4.025-.12c.36-.186.481-.469.481-1.141v-.541h2.691c2.907,0,3.01-.012,3.652-.336a3.142,3.142,0,0,0,1.105-1.105c.078-.15.469-1.255.877-2.463l.733-2.193.006,7.2c.006,7.1.006,7.2-.114,7.431a.8.8,0,0,1-.36.36c-.234.12-.324.12-13.1.12s-12.861,0-13.1-.12a.8.8,0,0,1-.36-.36c-.12-.234-.12-.33-.114-7.431l.006-7.2.733,2.193C2.955-467.373,3.346-466.267,3.424-466.117Zm14.657.541v.9H12.675v-1.8h5.406Z" transform="translate(0 480.888)" fill="#ffbc05"/></svg>