<svg xmlns="http://www.w3.org/2000/svg" width="23.691" height="20" viewBox="0 0 23.691 20"><g transform="translate(0.003 472.04)"><path d="M5.225-471.987A9.988,9.988,0,0,0,1.6-470.77c-1.263.639-1.471.782-1.555,1.087-.028.106-.046,3.1-.046,8.555,0,9.023-.014,8.555.222,8.815a.953.953,0,0,0,.634.264c.185,0,.375-.083,1.286-.551.592-.3,1.277-.625,1.527-.717a7.656,7.656,0,0,1,2.994-.477,8.157,8.157,0,0,1,3.831,1.171c.995.514,1.157.583,1.356.583s.375-.083,1.351-.588a8.211,8.211,0,0,1,3.8-1.166,7.85,7.85,0,0,1,3.128.518c.241.1.9.412,1.462.7.87.449,1.055.527,1.24.527a.953.953,0,0,0,.634-.264c.236-.259.222.208.222-8.815,0-5.455-.019-8.449-.046-8.555-.083-.305-.292-.449-1.555-1.087a10.346,10.346,0,0,0-2.818-1.078,9.515,9.515,0,0,0-5.182.389c-.254.093-.865.375-1.356.62l-.888.444-.68-.342a9.871,9.871,0,0,0-3.618-1.231A12.909,12.909,0,0,0,5.225-471.987Zm2.383,1.73a8.832,8.832,0,0,1,2.8,1.032l.578.31.014,7.3c0,4.03-.009,7.3-.032,7.3s-.273-.111-.565-.25a9.052,9.052,0,0,0-4.067-.911,9.068,9.068,0,0,0-4.225.995l-.4.2.009-7.334.014-7.329.81-.412a8.68,8.68,0,0,1,3.008-.967A10.022,10.022,0,0,1,7.608-470.257Zm10.457-.069a8.418,8.418,0,0,1,3.077.967l.81.412.014,7.329.009,7.334-.4-.2a9.068,9.068,0,0,0-4.225-.995,9.052,9.052,0,0,0-4.067.911c-.292.139-.546.25-.565.25s-.037-3.267-.032-7.3l.014-7.3.578-.31A7.962,7.962,0,0,1,18.066-470.326Z" transform="translate(0 0)" fill="#19337a"/></g></svg>