<svg xmlns="http://www.w3.org/2000/svg" width="20.127" height="22.513" viewBox="0 0 20.127 22.513"><g transform="translate(-822 -8778.487)"><g transform="translate(794.575 9290.408)"><path d="M34.972-511.854a.883.883,0,0,0,.009,1.623,2.028,2.028,0,0,0,.651.066h.484v1.623l-.251.026a9.671,9.671,0,0,0-6.312,3.47,9.658,9.658,0,0,0-2.045,4.535,13.961,13.961,0,0,0,0,3.031,9.654,9.654,0,0,0,5.115,7.024,9.55,9.55,0,0,0,8.573.062,8.743,8.743,0,0,0,2.5-1.773,9.533,9.533,0,0,0,2.775-5.485,12.257,12.257,0,0,0,.026-2.507,9.667,9.667,0,0,0-1.869-4.61,2.562,2.562,0,0,1-.246-.365,6.12,6.12,0,0,1,.545-.585l.55-.55.356.343c.387.37.559.466.836.466a.878.878,0,0,0,.8-1.254,14.739,14.739,0,0,0-1.394-1.478c-1.258-1.245-1.324-1.306-1.539-1.355a.854.854,0,0,0-1.073.822c0,.33.088.5.462.884l.325.339-.563.563-.563.563-.418-.308a9.431,9.431,0,0,0-3.774-1.693c-.3-.062-.664-.123-.8-.141l-.255-.026v-1.623h.475c.545,0,.739-.066.963-.321a1,1,0,0,0,.233-.559.978.978,0,0,0-.55-.8c-.163-.075-.33-.084-2.023-.079A9.223,9.223,0,0,0,34.972-511.854Zm2.806,5.08a7.782,7.782,0,0,1,5.692,3.422,7.771,7.771,0,0,1,0,8.718,7.788,7.788,0,0,1-8.12,3.29,8.419,8.419,0,0,1-2.877-1.258,7.822,7.822,0,0,1-3.3-6.391,7.549,7.549,0,0,1,2.287-5.5,6.924,6.924,0,0,1,2.045-1.5A7.607,7.607,0,0,1,37.778-506.774Z" transform="translate(0 0)" fill="#19337a"/><path d="M225.634-355.825a.826.826,0,0,0-.526.443l-.107.2v2.977c0,2.832,0,2.986.089,3.149a.908.908,0,0,0,.48.452,32.155,32.155,0,0,0,4.593,0,.893.893,0,0,0,.582-.857.82.82,0,0,0-.279-.661c-.275-.261-.34-.27-2.04-.27h-1.561v-2.287a24.638,24.638,0,0,0-.056-2.5.974.974,0,0,0-.652-.652A.614.614,0,0,0,225.634-355.825Z" transform="translate(-189.074 -149.349)" fill="#19337a"/></g></g></svg>