<svg xmlns="http://www.w3.org/2000/svg" width="22.511" height="20.813" viewBox="0 0 22.511 20.813"><g transform="translate(-214 -8781)"><path d="M9.7-492.573a5.626,5.626,0,0,0-4.749,4.637,7.383,7.383,0,0,0,0,1.927,5.807,5.807,0,0,0,1.813,3.286,1.645,1.645,0,0,1,.224.216,1.44,1.44,0,0,1-.367.176c-.207.079-.6.264-.863.4a10.427,10.427,0,0,0-5.539,8.46c-.082,1.012-.013,1.3.363,1.557l.177.119H20.063l.177-.119c.376-.255.445-.546.363-1.557a10.434,10.434,0,0,0-2.966-6.546,10.424,10.424,0,0,0-3.436-2.318,1.44,1.44,0,0,1-.367-.176,2,2,0,0,1,.224-.216,5.807,5.807,0,0,0,1.813-3.286,7.383,7.383,0,0,0,0-1.927,5.721,5.721,0,0,0-1.3-2.754,5.532,5.532,0,0,0-3.1-1.821A7,7,0,0,0,9.7-492.573Zm1.593,1.821a3.859,3.859,0,0,1,2.59,2.191,3.035,3.035,0,0,1,.3,1.593,3.035,3.035,0,0,1-.3,1.593,3.844,3.844,0,0,1-2.612,2.2,4.388,4.388,0,0,1-1.727,0,3.844,3.844,0,0,1-2.612-2.2,3.035,3.035,0,0,1-.3-1.593,3.035,3.035,0,0,1,.3-1.593,3.839,3.839,0,0,1,1.347-1.628,4.069,4.069,0,0,1,1.653-.647A5.791,5.791,0,0,1,11.295-490.752Zm.389,9.542a8.532,8.532,0,0,1,4.377,2.1,9.038,9.038,0,0,1,2.331,3.489,10.247,10.247,0,0,1,.41,1.628c.017.119.039.273.052.343l.026.119H1.94l.026-.119c.013-.07.035-.224.052-.343a10.248,10.248,0,0,1,.41-1.628c.078-.22.259-.633.4-.924A8.452,8.452,0,0,1,6.6-480.374a8.126,8.126,0,0,1,3.225-.915A12.94,12.94,0,0,1,11.683-481.21Z" transform="translate(213.813 9273.604)" fill="#19337a"/><path d="M398.852-421.776c-.483.26-.618.559-.624,1.34v.586H397.8c-.873,0-1.264.168-1.508.651a1.062,1.062,0,0,0,.792,1.519,5.291,5.291,0,0,0,.716.054h.428v.586c0,.678.1.944.45,1.226.2.157.244.168.635.168s.439-.011.635-.168c.353-.282.45-.548.45-1.226v-.586h.428c.873,0,1.264-.168,1.513-.651a1.067,1.067,0,0,0-.8-1.519,5.291,5.291,0,0,0-.716-.054H400.4v-.586c0-.678-.1-.944-.45-1.226a.766.766,0,0,0-.569-.184A1.031,1.031,0,0,0,398.852-421.776Z" transform="translate(-165.941 9206.163)" fill="#19337a"/></g></svg>