<svg xmlns="http://www.w3.org/2000/svg" width="16.116" height="24.207" viewBox="0 0 16.116 24.207"><g transform="translate(-85.7 511.657)"><path d="M93.119-511.645a8.34,8.34,0,0,0-3.047.875,8.107,8.107,0,0,0-4.315,6.028,11.623,11.623,0,0,0,0,2.295,8.057,8.057,0,0,0,2.295,4.571l.431.435-.151,3.563c-.232,5.574-.232,5.493-.137,5.74a1.23,1.23,0,0,0,.714.643,1.027,1.027,0,0,0,.79-.109c.095-.057,1.041-.852,2.1-1.76s1.94-1.656,1.964-1.656.9.743,1.959,1.656,2.03,1.713,2.162,1.784a.882.882,0,0,0,.762.076,1.226,1.226,0,0,0,.681-.634c.095-.246.095-.166-.137-5.74l-.151-3.563.431-.435a8.057,8.057,0,0,0,2.295-4.571,11.622,11.622,0,0,0,0-2.295,8.107,8.107,0,0,0-4.315-6.028,8.128,8.128,0,0,0-2.385-.79A12.23,12.23,0,0,0,93.119-511.645Zm1.964,1.7a6.541,6.541,0,0,1,4.287,3.113,6.477,6.477,0,0,1-.2,6.823,7.417,7.417,0,0,1-1.836,1.831,6.454,6.454,0,0,1-7.145,0,7.417,7.417,0,0,1-1.836-1.831,6.477,6.477,0,0,1-.2-6.823,6.547,6.547,0,0,1,4.665-3.184A10.772,10.772,0,0,1,95.083-509.946ZM90.5-496.2a7.8,7.8,0,0,0,3.26.677,7.825,7.825,0,0,0,3.265-.677c.241-.1.445-.185.45-.18s.3,6.634.284,6.653-.762-.639-1.684-1.438-1.76-1.486-1.86-1.542a1.124,1.124,0,0,0-.908,0c-.1.057-.937.748-1.86,1.542s-1.68,1.443-1.684,1.434.052-1.382.123-3.061.132-3.175.132-3.326a.837.837,0,0,1,.028-.27C90.053-496.39,90.257-496.3,90.5-496.2Z" transform="translate(0 0)" fill="#19337a"/><path d="M177.9-396.676c-.077.049-.955,1.009-1.948,2.132l-1.8,2.039-.825-.96c-.456-.523-.9-1-.983-1.063a.757.757,0,0,0-1.055.284,1.108,1.108,0,0,0-.048.9c.048.1.628.8,1.3,1.559,1.06,1.216,1.233,1.4,1.415,1.445a.762.762,0,0,0,.7-.142c.072-.06,1.075-1.189,2.226-2.5,1.866-2.132,2.1-2.415,2.144-2.622a1.013,1.013,0,0,0-.341-1.014A.819.819,0,0,0,177.9-396.676Z" transform="translate(-81.481 -109.719)" fill="#19337a"/></g></svg>