<svg xmlns="http://www.w3.org/2000/svg" xmlns:xlink="http://www.w3.org/1999/xlink" width="45.236" height="45" viewBox="0 0 45.236 45"><defs><linearGradient id="a" x1="0.13" y1="0.117" x2="0.796" y2="0.785" gradientUnits="objectBoundingBox"><stop offset="0" stop-color="#387eb8"/><stop offset="1" stop-color="#366994"/></linearGradient><linearGradient id="b" x1="0.191" y1="0.203" x2="0.907" y2="0.888" gradientUnits="objectBoundingBox"><stop offset="0" stop-color="#ffe052"/><stop offset="1" stop-color="#ffc331"/></linearGradient></defs><g transform="translate(-473.361 -251.725)"><g transform="translate(473.361 251.725)"><path d="M67.392,67.469c-11.484,0-10.766,4.98-10.766,4.98l.013,5.159H67.6v1.549H52.286s-7.348-.833-7.348,10.754,6.414,11.176,6.414,11.176h3.828V95.71S54.973,89.3,61.49,89.3H72.359s6.106.1,6.106-5.9V73.473S79.393,67.469,67.392,67.469ZM61.35,70.938a1.972,1.972,0,1,1-1.966,1.972A1.97,1.97,0,0,1,61.35,70.938Z" transform="translate(-44.938 -67.469)" fill="url(#a)"/><path d="M84.565,128.868c11.484,0,10.766-4.98,10.766-4.98l-.013-5.159H84.36V117.18H99.671s7.349.833,7.349-10.754-6.414-11.176-6.414-11.176H96.778v5.377s.206,6.414-6.312,6.414H79.6s-6.107-.1-6.107,5.9v9.922S72.564,128.868,84.565,128.868Zm6.043-3.469a1.972,1.972,0,1,1,1.972-1.966A1.97,1.97,0,0,1,90.607,125.4Z" transform="translate(-61.784 -83.868)" fill="url(#b)"/></g></g></svg>