<?xml version="1.0" encoding="UTF-8"?>
<svg xmlns="http://www.w3.org/2000/svg" xmlns:xlink="http://www.w3.org/1999/xlink" width="122px" height="46px" viewBox="0 0 122 46" version="1.1">
<g id="surface1">
<path style=" stroke:none;fill-rule:nonzero;fill:rgb(33.333333%,33.333333%,33.333333%);fill-opacity:1;" d="M 38.410156 42.742188 C 38.3125 42.753906 38.21875 42.796875 38.144531 42.863281 C 38.085938 42.921875 38.050781 43.003906 38.054688 43.089844 C 38.050781 43.179688 38.078125 43.273438 38.136719 43.34375 C 38.195312 43.410156 38.28125 43.441406 38.367188 43.4375 C 38.570312 43.441406 38.761719 43.351562 38.886719 43.191406 C 38.914062 43.148438 38.933594 43.105469 38.949219 43.058594 C 38.957031 43 38.957031 42.941406 38.949219 42.886719 L 38.949219 42.578125 C 38.855469 42.636719 38.75 42.671875 38.644531 42.691406 Z M 38.410156 42.742188 "/>
<path style=" stroke:none;fill-rule:nonzero;fill:rgb(33.333333%,33.333333%,33.333333%);fill-opacity:1;" d="M 69.582031 41.730469 C 69.40625 41.722656 69.238281 41.796875 69.125 41.933594 C 69.011719 42.117188 68.957031 42.332031 68.972656 42.546875 C 68.964844 42.757812 69.015625 42.964844 69.125 43.140625 C 69.242188 43.269531 69.410156 43.34375 69.582031 43.34375 C 69.757812 43.34375 69.921875 43.269531 70.039062 43.140625 C 70.148438 42.964844 70.203125 42.757812 70.191406 42.546875 C 70.207031 42.332031 70.152344 42.117188 70.039062 41.933594 C 69.929688 41.796875 69.757812 41.722656 69.582031 41.730469 Z M 69.582031 41.730469 "/>
<path style=" stroke:none;fill-rule:nonzero;fill:rgb(33.333333%,33.333333%,33.333333%);fill-opacity:1;" d="M 4.046875 40.851562 C 3.773438 40.839844 3.515625 40.96875 3.355469 41.191406 C 3.175781 41.464844 3.085938 41.789062 3.101562 42.117188 C 3.085938 42.441406 3.175781 42.761719 3.355469 43.027344 C 3.515625 43.246094 3.777344 43.371094 4.046875 43.355469 C 4.179688 43.359375 4.3125 43.332031 4.433594 43.273438 L 4.117188 42.894531 L 4.484375 42.496094 L 4.859375 42.855469 C 4.976562 42.613281 5.03125 42.347656 5.019531 42.078125 C 5.039062 41.75 4.957031 41.425781 4.777344 41.148438 C 4.601562 40.929688 4.324219 40.820312 4.046875 40.851562 Z M 4.046875 40.851562 "/>
<path style=" stroke:none;fill-rule:nonzero;fill:rgb(33.333333%,33.333333%,33.333333%);fill-opacity:1;" d="M 61.101562 42.742188 C 61.003906 42.753906 60.910156 42.796875 60.835938 42.863281 C 60.777344 42.921875 60.742188 43.003906 60.746094 43.089844 C 60.742188 43.179688 60.769531 43.273438 60.828125 43.34375 C 60.886719 43.410156 60.972656 43.441406 61.0625 43.4375 C 61.261719 43.441406 61.453125 43.351562 61.578125 43.191406 C 61.605469 43.148438 61.625 43.105469 61.640625 43.058594 C 61.644531 43 61.644531 42.941406 61.640625 42.886719 L 61.640625 42.578125 C 61.546875 42.632812 61.441406 42.671875 61.335938 42.691406 Z M 61.101562 42.742188 "/>
<path style=" stroke:none;fill-rule:nonzero;fill:rgb(33.333333%,33.333333%,33.333333%);fill-opacity:1;" d="M 81.628906 42.742188 C 81.53125 42.753906 81.441406 42.796875 81.367188 42.863281 C 81.304688 42.921875 81.273438 43.003906 81.273438 43.089844 C 81.269531 43.179688 81.296875 43.273438 81.355469 43.34375 C 81.417969 43.410156 81.5 43.441406 81.589844 43.4375 C 81.789062 43.441406 81.984375 43.351562 82.109375 43.191406 C 82.132812 43.148438 82.152344 43.105469 82.167969 43.058594 C 82.171875 43 82.171875 42.941406 82.167969 42.886719 L 82.167969 42.578125 C 82.074219 42.632812 81.972656 42.671875 81.863281 42.691406 Z M 81.628906 42.742188 "/>
<path style=" stroke:none;fill-rule:nonzero;fill:rgb(33.333333%,33.333333%,33.333333%);fill-opacity:1;" d="M 9.785156 42.742188 C 9.6875 42.753906 9.59375 42.796875 9.519531 42.863281 C 9.460938 42.921875 9.425781 43.003906 9.429688 43.089844 C 9.421875 43.183594 9.449219 43.273438 9.511719 43.34375 C 9.570312 43.410156 9.65625 43.441406 9.746094 43.4375 C 9.945312 43.441406 10.136719 43.351562 10.261719 43.191406 C 10.289062 43.148438 10.308594 43.105469 10.324219 43.058594 C 10.328125 43 10.328125 42.941406 10.324219 42.886719 L 10.324219 42.578125 C 10.230469 42.632812 10.125 42.671875 10.019531 42.691406 Z M 9.785156 42.742188 "/>
<path style=" stroke:none;fill-rule:nonzero;fill:rgb(33.333333%,33.333333%,33.333333%);fill-opacity:1;" d="M 43.957031 41.730469 C 43.78125 41.722656 43.609375 41.796875 43.5 41.933594 C 43.382812 42.117188 43.324219 42.332031 43.335938 42.546875 C 43.320312 42.757812 43.378906 42.96875 43.5 43.140625 C 43.605469 43.28125 43.777344 43.359375 43.957031 43.34375 C 44.132812 43.355469 44.304688 43.28125 44.414062 43.140625 C 44.523438 42.964844 44.574219 42.757812 44.566406 42.546875 C 44.578125 42.332031 44.527344 42.117188 44.414062 41.933594 C 44.300781 41.800781 44.132812 41.722656 43.957031 41.730469 Z M 43.957031 41.730469 "/>
<path style=" stroke:none;fill-rule:nonzero;fill:rgb(33.333333%,33.333333%,33.333333%);fill-opacity:1;" d="M 33.15625 41.75 C 32.988281 41.746094 32.828125 41.824219 32.730469 41.964844 C 32.527344 42.335938 32.527344 42.78125 32.730469 43.152344 C 32.832031 43.285156 32.992188 43.363281 33.15625 43.355469 C 33.328125 43.359375 33.488281 43.28125 33.585938 43.140625 C 33.695312 42.953125 33.75 42.734375 33.738281 42.515625 C 33.746094 42.320312 33.695312 42.121094 33.585938 41.957031 C 33.488281 41.816406 33.324219 41.742188 33.15625 41.75 Z M 33.15625 41.75 "/>
<path style=" stroke:none;fill-rule:nonzero;fill:rgb(33.333333%,33.333333%,33.333333%);fill-opacity:1;" d="M 30.527344 41.71875 C 30.367188 41.714844 30.21875 41.792969 30.132812 41.925781 C 30.066406 42.027344 30.023438 42.140625 30.007812 42.261719 L 31.023438 42.261719 C 31.011719 42.132812 30.96875 42.007812 30.902344 41.894531 C 30.808594 41.785156 30.671875 41.722656 30.527344 41.71875 Z M 30.527344 41.71875 "/>
<path style=" stroke:none;fill-rule:nonzero;fill:rgb(33.333333%,33.333333%,33.333333%);fill-opacity:1;" d="M 89.441406 41.71875 C 89.28125 41.714844 89.132812 41.792969 89.046875 41.925781 C 88.988281 42.03125 88.945312 42.144531 88.921875 42.261719 L 89.9375 42.261719 C 89.9375 42.128906 89.90625 41.996094 89.847656 41.875 C 89.742188 41.761719 89.59375 41.707031 89.441406 41.71875 Z M 89.441406 41.71875 "/>
<path style=" stroke:none;fill-rule:nonzero;fill:rgb(33.333333%,33.333333%,33.333333%);fill-opacity:1;" d="M 51.371094 42.28125 L 50.507812 42.28125 L 50.507812 43.242188 L 51.390625 43.242188 C 51.542969 43.25 51.6875 43.203125 51.808594 43.109375 C 51.90625 43.011719 51.960938 42.871094 51.949219 42.730469 C 51.960938 42.601562 51.90625 42.476562 51.808594 42.394531 C 51.675781 42.3125 51.523438 42.273438 51.371094 42.28125 Z M 51.371094 42.28125 "/>
<path style=" stroke:none;fill-rule:nonzero;fill:rgb(33.333333%,33.333333%,33.333333%);fill-opacity:1;" d="M 58.683594 41.71875 C 58.527344 41.714844 58.375 41.792969 58.289062 41.925781 C 58.230469 42.03125 58.1875 42.144531 58.167969 42.261719 L 59.183594 42.261719 C 59.167969 42.132812 59.128906 42.007812 59.058594 41.894531 C 58.964844 41.785156 58.828125 41.722656 58.683594 41.71875 Z M 58.683594 41.71875 "/>
<path style=" stroke:none;fill-rule:nonzero;fill:rgb(33.333333%,33.333333%,33.333333%);fill-opacity:1;" d="M 20.226562 42.515625 L 21.152344 42.515625 L 20.683594 41.078125 Z M 20.226562 42.515625 "/>
<path style=" stroke:none;fill-rule:nonzero;fill:rgb(33.333333%,33.333333%,33.333333%);fill-opacity:1;" d="M 51.734375 41.578125 C 51.824219 41.496094 51.871094 41.378906 51.859375 41.261719 C 51.859375 41.152344 51.804688 41.054688 51.714844 40.996094 C 51.585938 40.925781 51.4375 40.894531 51.289062 40.902344 L 50.488281 40.902344 L 50.488281 41.679688 L 51.320312 41.679688 C 51.464844 41.695312 51.613281 41.660156 51.734375 41.578125 Z M 51.734375 41.578125 "/>
<path style=" stroke:none;fill-rule:nonzero;fill:rgb(33.333333%,33.333333%,33.333333%);fill-opacity:1;" d="M 75.890625 40.851562 C 75.621094 40.839844 75.359375 40.96875 75.199219 41.191406 C 75.019531 41.464844 74.929688 41.789062 74.945312 42.117188 C 74.929688 42.441406 75.019531 42.761719 75.199219 43.027344 C 75.464844 43.34375 75.902344 43.441406 76.277344 43.273438 L 75.921875 42.894531 L 76.289062 42.496094 L 76.664062 42.855469 C 76.78125 42.613281 76.835938 42.347656 76.824219 42.078125 C 76.84375 41.75 76.757812 41.425781 76.582031 41.148438 C 76.414062 40.945312 76.15625 40.832031 75.890625 40.851562 Z M 75.890625 40.851562 "/>
<path style=" stroke:none;fill-rule:nonzero;fill:rgb(33.333333%,33.333333%,33.333333%);fill-opacity:1;" d="M 99.660156 41.730469 C 99.484375 41.722656 99.3125 41.796875 99.203125 41.933594 C 99.089844 42.117188 99.035156 42.332031 99.050781 42.546875 C 99.039062 42.757812 99.09375 42.964844 99.203125 43.140625 C 99.320312 43.269531 99.484375 43.34375 99.660156 43.34375 C 99.832031 43.34375 100 43.269531 100.117188 43.140625 C 100.226562 42.964844 100.28125 42.757812 100.269531 42.546875 C 100.285156 42.332031 100.230469 42.117188 100.117188 41.933594 C 100.007812 41.796875 99.835938 41.722656 99.660156 41.730469 Z M 99.660156 41.730469 "/>
<path style=" stroke:none;fill-rule:nonzero;fill:rgb(33.333333%,33.333333%,33.333333%);fill-opacity:1;" d="M 115.851562 41.71875 C 115.691406 41.714844 115.542969 41.792969 115.457031 41.925781 C 115.390625 42.027344 115.347656 42.140625 115.332031 42.261719 L 116.347656 42.261719 C 116.347656 42.128906 116.304688 42 116.226562 41.894531 C 116.136719 41.78125 115.996094 41.714844 115.851562 41.71875 Z M 115.851562 41.71875 "/>
<path style=" stroke:none;fill-rule:nonzero;fill:rgb(33.333333%,33.333333%,33.333333%);fill-opacity:1;" d="M 106.710938 41.75 C 106.539062 41.746094 106.378906 41.824219 106.28125 41.964844 C 106.171875 42.152344 106.117188 42.371094 106.128906 42.589844 C 106.121094 42.789062 106.171875 42.984375 106.28125 43.152344 C 106.378906 43.289062 106.542969 43.363281 106.710938 43.355469 C 106.871094 43.359375 107.027344 43.28125 107.125 43.152344 C 107.328125 42.78125 107.328125 42.335938 107.125 41.964844 C 107.035156 41.824219 106.875 41.742188 106.710938 41.75 Z M 106.710938 41.75 "/>
<path style=" stroke:none;fill-rule:nonzero;fill:rgb(33.333333%,33.333333%,33.333333%);fill-opacity:1;" d="M 109.15625 42.742188 C 109.058594 42.753906 108.96875 42.796875 108.894531 42.863281 C 108.832031 42.921875 108.800781 43.003906 108.800781 43.089844 C 108.792969 43.183594 108.820312 43.273438 108.882812 43.34375 C 108.941406 43.40625 109.023438 43.441406 109.105469 43.4375 C 109.308594 43.445312 109.503906 43.355469 109.625 43.191406 C 109.660156 43.152344 109.683594 43.109375 109.695312 43.058594 C 109.699219 43 109.699219 42.941406 109.695312 42.886719 L 109.695312 42.578125 C 109.601562 42.632812 109.496094 42.671875 109.390625 42.691406 Z M 109.15625 42.742188 "/>
<path style=" stroke:none;fill-rule:nonzero;fill:rgb(33.333333%,33.333333%,33.333333%);fill-opacity:1;" d="M 92.113281 41.75 C 91.945312 41.746094 91.789062 41.828125 91.695312 41.964844 C 91.492188 42.335938 91.492188 42.78125 91.695312 43.152344 C 91.796875 43.285156 91.953125 43.363281 92.117188 43.363281 C 92.285156 43.363281 92.441406 43.285156 92.539062 43.152344 C 92.652344 42.960938 92.703125 42.746094 92.691406 42.527344 C 92.703125 42.328125 92.648438 42.132812 92.539062 41.964844 C 92.445312 41.824219 92.28125 41.742188 92.113281 41.75 Z M 92.113281 41.75 "/>
<path style=" stroke:none;fill-rule:nonzero;fill:rgb(33.333333%,33.333333%,33.333333%);fill-opacity:1;" d="M 0.0546875 38.238281 L 0.0546875 45.960938 L 121.945312 45.960938 L 121.945312 38.195312 Z M 5.347656 44.121094 L 4.941406 43.722656 C 4.671875 43.886719 4.359375 43.96875 4.046875 43.957031 C 3.589844 43.980469 3.144531 43.796875 2.835938 43.457031 C 2.515625 43.074219 2.355469 42.585938 2.378906 42.089844 C 2.355469 41.585938 2.519531 41.089844 2.835938 40.699219 C 3.140625 40.351562 3.585938 40.164062 4.046875 40.1875 C 4.503906 40.164062 4.949219 40.351562 5.253906 40.699219 C 5.570312 41.089844 5.726562 41.585938 5.703125 42.089844 C 5.722656 42.539062 5.59375 42.984375 5.335938 43.355469 L 5.710938 43.722656 Z M 8.394531 43.855469 L 7.773438 43.855469 L 7.773438 43.46875 L 7.691406 43.601562 C 7.519531 43.824219 7.25 43.945312 6.972656 43.925781 C 6.734375 43.945312 6.503906 43.855469 6.339844 43.679688 C 6.191406 43.488281 6.125 43.242188 6.148438 42.996094 L 6.148438 41.21875 L 6.828125 41.21875 L 6.828125 42.894531 C 6.820312 43.019531 6.851562 43.144531 6.921875 43.253906 C 7.007812 43.332031 7.121094 43.371094 7.234375 43.363281 C 7.390625 43.375 7.539062 43.316406 7.640625 43.203125 C 7.746094 43.0625 7.796875 42.894531 7.785156 42.722656 L 7.785156 41.21875 L 8.453125 41.21875 Z M 11.125 43.761719 L 11.125 43.855469 L 10.414062 43.855469 C 10.414062 43.753906 10.414062 43.652344 10.414062 43.550781 C 10.214844 43.800781 9.910156 43.945312 9.59375 43.9375 C 9.382812 43.945312 9.179688 43.871094 9.023438 43.734375 C 8.878906 43.585938 8.800781 43.386719 8.808594 43.179688 C 8.796875 42.96875 8.867188 42.761719 9.003906 42.597656 C 9.160156 42.449219 9.359375 42.351562 9.570312 42.324219 L 10.019531 42.261719 C 10.117188 42.25 10.214844 42.222656 10.304688 42.179688 C 10.339844 42.160156 10.367188 42.128906 10.382812 42.089844 C 10.394531 42.046875 10.394531 42.007812 10.382812 41.964844 C 10.367188 41.875 10.300781 41.800781 10.210938 41.773438 C 10.109375 41.714844 9.992188 41.691406 9.875 41.699219 C 9.769531 41.695312 9.667969 41.726562 9.582031 41.792969 C 9.507812 41.867188 9.464844 41.964844 9.460938 42.066406 L 8.839844 42.066406 C 8.832031 41.800781 8.945312 41.546875 9.144531 41.375 C 9.390625 41.207031 9.683594 41.128906 9.976562 41.148438 C 10.242188 41.136719 10.507812 41.207031 10.730469 41.351562 C 10.910156 41.488281 11.011719 41.699219 11.003906 41.925781 L 11.003906 43.394531 C 10.988281 43.480469 10.988281 43.566406 11.003906 43.652344 C 11.023438 43.703125 11.066406 43.742188 11.117188 43.761719 Z M 12.140625 43.855469 L 11.460938 43.855469 L 11.460938 40.28125 L 12.140625 40.28125 Z M 13.359375 43.855469 L 12.679688 43.855469 L 12.679688 41.21875 L 13.359375 41.21875 Z M 13.359375 40.902344 L 12.671875 40.902344 L 12.671875 40.261719 L 13.359375 40.261719 Z M 15.046875 41.699219 L 14.640625 41.699219 L 14.640625 43.203125 C 14.617188 43.238281 14.617188 43.285156 14.640625 43.324219 C 14.710938 43.339844 14.785156 43.339844 14.855469 43.324219 L 14.996094 43.324219 L 14.996094 43.917969 L 14.578125 43.917969 C 14.398438 43.933594 14.21875 43.886719 14.070312 43.785156 C 13.953125 43.671875 13.894531 43.515625 13.910156 43.355469 L 13.910156 41.699219 L 13.554688 41.699219 L 13.554688 41.21875 L 13.910156 41.21875 L 13.910156 40.503906 L 14.589844 40.503906 L 14.589844 41.21875 L 14.996094 41.21875 Z M 16.753906 43.917969 C 16.675781 44.214844 16.542969 44.5 16.367188 44.753906 C 16.214844 44.886719 16.011719 44.949219 15.808594 44.925781 L 15.484375 44.925781 L 15.484375 44.367188 L 15.617188 44.367188 C 15.746094 44.382812 15.875 44.339844 15.972656 44.253906 C 16.019531 44.15625 16.054688 44.054688 16.074219 43.945312 L 15.117188 41.21875 L 15.859375 41.21875 L 16.417969 43.179688 L 16.957031 41.21875 L 17.667969 41.21875 Z M 21.953125 43.855469 L 21.578125 43.855469 L 21.386719 43.128906 L 20.035156 43.128906 L 19.800781 43.855469 L 19.058594 43.855469 L 20.277344 40.28125 L 21.121094 40.28125 L 22.339844 43.855469 Z M 23.304688 43.152344 C 23.386719 43.285156 23.535156 43.367188 23.691406 43.355469 C 23.808594 43.359375 23.917969 43.308594 23.996094 43.222656 C 24.089844 43.132812 24.144531 43.011719 24.148438 42.886719 L 24.839844 42.886719 C 24.820312 43.175781 24.691406 43.449219 24.484375 43.652344 C 24.265625 43.839844 23.980469 43.941406 23.691406 43.925781 C 23.355469 43.953125 23.023438 43.820312 22.796875 43.570312 C 22.566406 43.28125 22.453125 42.917969 22.480469 42.546875 C 22.460938 42.179688 22.578125 41.816406 22.808594 41.527344 C 23.027344 41.269531 23.355469 41.128906 23.691406 41.148438 C 23.984375 41.136719 24.273438 41.234375 24.503906 41.425781 C 24.707031 41.621094 24.828125 41.886719 24.839844 42.171875 L 24.148438 42.171875 C 24.144531 42.050781 24.097656 41.9375 24.015625 41.851562 C 23.929688 41.769531 23.8125 41.726562 23.691406 41.730469 C 23.535156 41.726562 23.386719 41.804688 23.304688 41.933594 C 23.203125 42.121094 23.160156 42.335938 23.171875 42.546875 C 23.15625 42.757812 23.203125 42.96875 23.304688 43.152344 Z M 25.855469 43.152344 C 25.9375 43.285156 26.085938 43.363281 26.242188 43.355469 C 26.359375 43.355469 26.472656 43.308594 26.554688 43.222656 C 26.644531 43.132812 26.691406 43.011719 26.699219 42.886719 L 27.386719 42.886719 C 27.371094 43.175781 27.246094 43.453125 27.03125 43.652344 C 26.8125 43.839844 26.53125 43.941406 26.242188 43.925781 C 25.902344 43.949219 25.574219 43.816406 25.347656 43.570312 C 25.117188 43.28125 25.003906 42.917969 25.03125 42.546875 C 25.015625 42.179688 25.128906 41.816406 25.355469 41.527344 C 25.578125 41.273438 25.90625 41.132812 26.242188 41.148438 C 26.535156 41.136719 26.824219 41.234375 27.054688 41.425781 C 27.261719 41.613281 27.386719 41.886719 27.386719 42.171875 L 26.699219 42.171875 C 26.695312 42.058594 26.648438 41.953125 26.566406 41.875 C 26.476562 41.789062 26.359375 41.746094 26.242188 41.75 C 26.085938 41.746094 25.9375 41.824219 25.855469 41.957031 C 25.757812 42.144531 25.714844 42.355469 25.722656 42.570312 C 25.714844 42.769531 25.761719 42.972656 25.855469 43.152344 Z M 29.214844 41.875 L 29.011719 41.875 C 28.847656 41.859375 28.683594 41.917969 28.554688 42.027344 C 28.445312 42.160156 28.390625 42.332031 28.402344 42.507812 L 28.402344 43.875 L 27.734375 43.875 L 27.734375 41.21875 L 28.375 41.21875 L 28.375 41.691406 C 28.398438 41.636719 28.425781 41.585938 28.453125 41.535156 C 28.570312 41.300781 28.804688 41.152344 29.0625 41.148438 L 29.214844 41.148438 Z M 31.707031 42.722656 L 29.957031 42.722656 C 29.964844 42.886719 30.007812 43.046875 30.089844 43.191406 C 30.207031 43.328125 30.378906 43.402344 30.558594 43.386719 C 30.660156 43.386719 30.761719 43.355469 30.84375 43.292969 C 30.921875 43.246094 30.980469 43.167969 31.003906 43.078125 L 31.683594 43.078125 C 31.636719 43.332031 31.496094 43.558594 31.289062 43.710938 C 31.0625 43.855469 30.796875 43.925781 30.527344 43.917969 C 30.1875 43.9375 29.859375 43.800781 29.632812 43.550781 C 29.410156 43.257812 29.292969 42.894531 29.308594 42.527344 C 29.28125 42.15625 29.398438 41.792969 29.632812 41.507812 C 29.863281 41.257812 30.191406 41.128906 30.527344 41.148438 C 30.867188 41.128906 31.199219 41.261719 31.429688 41.515625 C 31.652344 41.808594 31.765625 42.171875 31.746094 42.539062 C 31.738281 42.597656 31.726562 42.65625 31.707031 42.710938 Z M 34.375 43.867188 L 33.726562 43.867188 L 33.726562 43.539062 C 33.5625 43.789062 33.28125 43.933594 32.984375 43.925781 C 32.675781 43.933594 32.386719 43.789062 32.203125 43.539062 C 31.992188 43.242188 31.886719 42.882812 31.898438 42.515625 C 31.871094 42.152344 31.980469 41.785156 32.203125 41.496094 C 32.390625 41.253906 32.679688 41.117188 32.984375 41.128906 C 33.269531 41.121094 33.535156 41.265625 33.6875 41.507812 L 33.6875 40.28125 L 34.355469 40.28125 Z M 35.554688 43.867188 L 34.875 43.867188 L 34.875 41.21875 L 35.605469 41.21875 Z M 35.554688 40.914062 L 34.863281 40.914062 L 34.863281 40.269531 L 35.605469 40.269531 Z M 37.242188 41.710938 L 36.835938 41.710938 L 36.835938 43.203125 C 36.8125 43.238281 36.8125 43.285156 36.835938 43.324219 C 36.910156 43.339844 36.984375 43.339844 37.058594 43.324219 L 37.191406 43.324219 L 37.191406 43.917969 L 36.824219 43.917969 C 36.644531 43.933594 36.464844 43.886719 36.316406 43.785156 C 36.203125 43.671875 36.148438 43.515625 36.164062 43.355469 L 36.164062 41.699219 L 35.800781 41.699219 L 35.800781 41.21875 L 36.164062 41.21875 L 36.164062 40.503906 L 36.835938 40.503906 L 36.835938 41.21875 L 37.242188 41.21875 Z M 39.769531 43.753906 L 39.769531 43.84375 L 39.050781 43.84375 C 39.019531 43.746094 39 43.640625 38.988281 43.539062 C 38.789062 43.792969 38.484375 43.933594 38.164062 43.925781 C 37.953125 43.933594 37.746094 43.863281 37.585938 43.722656 C 37.441406 43.574219 37.367188 43.375 37.375 43.171875 C 37.363281 42.960938 37.433594 42.753906 37.566406 42.589844 C 37.722656 42.4375 37.921875 42.34375 38.136719 42.3125 L 38.582031 42.25 C 38.683594 42.238281 38.78125 42.210938 38.875 42.171875 C 38.90625 42.144531 38.933594 42.113281 38.949219 42.078125 C 38.957031 42.039062 38.957031 41.996094 38.949219 41.957031 C 38.9375 41.878906 38.898438 41.8125 38.835938 41.773438 C 38.738281 41.714844 38.625 41.691406 38.511719 41.699219 C 38.402344 41.691406 38.292969 41.726562 38.207031 41.792969 C 38.132812 41.863281 38.09375 41.964844 38.09375 42.066406 L 37.445312 42.066406 C 37.445312 41.804688 37.554688 41.550781 37.75 41.375 C 37.992188 41.207031 38.289062 41.128906 38.582031 41.148438 C 38.847656 41.136719 39.109375 41.207031 39.332031 41.351562 C 39.511719 41.488281 39.617188 41.699219 39.609375 41.925781 L 39.609375 43.394531 C 39.59375 43.480469 39.59375 43.566406 39.609375 43.652344 C 39.632812 43.699219 39.671875 43.738281 39.71875 43.761719 Z M 41.273438 41.710938 L 40.867188 41.710938 L 40.867188 43.203125 C 40.847656 43.238281 40.847656 43.285156 40.867188 43.324219 C 40.941406 43.339844 41.015625 43.339844 41.089844 43.324219 L 41.222656 43.324219 L 41.222656 43.917969 L 40.804688 43.917969 C 40.628906 43.933594 40.445312 43.886719 40.296875 43.785156 C 40.183594 43.671875 40.128906 43.515625 40.144531 43.355469 L 40.144531 41.699219 L 39.789062 41.699219 L 39.789062 41.21875 L 40.144531 41.21875 L 40.144531 40.503906 L 40.816406 40.503906 L 40.816406 41.21875 L 41.222656 41.21875 Z M 42.289062 43.867188 L 41.621094 43.867188 L 41.621094 41.21875 L 42.289062 41.21875 Z M 42.289062 40.914062 L 41.597656 40.914062 L 41.597656 40.269531 L 42.28125 40.269531 Z M 44.921875 43.570312 C 44.667969 43.820312 44.320312 43.953125 43.964844 43.9375 C 43.609375 43.957031 43.261719 43.820312 43.011719 43.570312 C 42.761719 43.289062 42.632812 42.921875 42.65625 42.546875 C 42.636719 42.175781 42.765625 41.808594 43.011719 41.527344 C 43.257812 41.265625 43.609375 41.128906 43.964844 41.148438 C 44.324219 41.128906 44.671875 41.269531 44.921875 41.527344 C 45.164062 41.808594 45.285156 42.175781 45.265625 42.546875 C 45.285156 42.917969 45.15625 43.28125 44.910156 43.558594 Z M 47.96875 43.867188 L 47.296875 43.867188 L 47.296875 42.210938 C 47.304688 42.082031 47.269531 41.953125 47.195312 41.84375 C 47.109375 41.765625 46.996094 41.722656 46.882812 41.730469 C 46.726562 41.71875 46.570312 41.78125 46.464844 41.894531 C 46.363281 42.03125 46.3125 42.203125 46.320312 42.375 L 46.320312 43.855469 L 45.652344 43.855469 L 45.652344 41.21875 L 46.292969 41.21875 L 46.292969 41.609375 L 46.382812 41.476562 C 46.554688 41.25 46.824219 41.128906 47.105469 41.148438 C 47.339844 41.132812 47.570312 41.222656 47.734375 41.394531 C 47.902344 41.582031 47.984375 41.828125 47.96875 42.078125 Z M 52.386719 43.578125 C 52.113281 43.789062 51.773438 43.890625 51.429688 43.867188 L 49.828125 43.867188 L 49.828125 40.289062 L 51.503906 40.289062 C 51.785156 40.273438 52.0625 40.359375 52.285156 40.535156 C 52.476562 40.699219 52.582031 40.945312 52.570312 41.199219 C 52.582031 41.464844 52.464844 41.714844 52.253906 41.875 L 52.132812 41.945312 C 52.210938 41.976562 52.285156 42.015625 52.355469 42.058594 C 52.574219 42.21875 52.695312 42.480469 52.679688 42.753906 C 52.699219 43.0625 52.574219 43.363281 52.34375 43.570312 Z M 55.433594 43.867188 L 54.785156 43.867188 L 54.785156 43.476562 L 54.703125 43.609375 C 54.535156 43.800781 54.296875 43.917969 54.042969 43.933594 C 53.789062 43.949219 53.539062 43.863281 53.351562 43.691406 C 53.191406 43.503906 53.109375 43.257812 53.128906 43.007812 L 53.128906 41.21875 L 53.796875 41.21875 L 53.796875 42.894531 C 53.789062 43.023438 53.824219 43.148438 53.898438 43.253906 C 53.980469 43.332031 54.089844 43.371094 54.203125 43.363281 C 54.359375 43.378906 54.507812 43.316406 54.609375 43.203125 C 54.71875 43.066406 54.769531 42.894531 54.753906 42.722656 L 54.753906 41.21875 L 55.433594 41.21875 Z M 57.414062 41.875 L 57.210938 41.875 C 57.042969 41.859375 56.878906 41.917969 56.753906 42.027344 C 56.644531 42.160156 56.589844 42.332031 56.601562 42.507812 L 56.601562 43.875 L 55.921875 43.875 L 55.921875 41.21875 L 56.5625 41.21875 L 56.5625 41.691406 C 56.585938 41.636719 56.613281 41.585938 56.640625 41.535156 C 56.757812 41.304688 56.992188 41.15625 57.25 41.148438 L 57.402344 41.148438 Z M 59.902344 42.722656 L 58.167969 42.722656 C 58.167969 42.886719 58.210938 43.050781 58.296875 43.191406 C 58.410156 43.332031 58.585938 43.40625 58.765625 43.386719 C 58.867188 43.386719 58.964844 43.351562 59.050781 43.292969 C 59.125 43.242188 59.179688 43.167969 59.203125 43.078125 L 59.894531 43.078125 C 59.84375 43.335938 59.699219 43.5625 59.488281 43.710938 C 59.253906 43.871094 58.976562 43.949219 58.695312 43.9375 C 58.355469 43.957031 58.027344 43.820312 57.800781 43.570312 C 57.578125 43.277344 57.46875 42.914062 57.484375 42.546875 C 57.457031 42.179688 57.566406 41.8125 57.800781 41.527344 C 58.03125 41.28125 58.359375 41.148438 58.695312 41.167969 C 59.035156 41.148438 59.367188 41.28125 59.597656 41.535156 C 59.824219 41.824219 59.9375 42.191406 59.914062 42.558594 C 59.914062 42.609375 59.910156 42.660156 59.902344 42.710938 Z M 62.460938 43.742188 L 62.460938 43.835938 L 61.730469 43.835938 C 61.730469 43.734375 61.730469 43.628906 61.730469 43.527344 C 61.53125 43.785156 61.222656 43.929688 60.898438 43.917969 C 60.691406 43.925781 60.484375 43.851562 60.328125 43.710938 C 60.1875 43.566406 60.109375 43.367188 60.117188 43.160156 C 60.101562 42.949219 60.171875 42.738281 60.308594 42.578125 C 60.464844 42.429688 60.664062 42.332031 60.878906 42.304688 L 61.324219 42.242188 C 61.421875 42.230469 61.519531 42.203125 61.609375 42.160156 C 61.644531 42.140625 61.675781 42.105469 61.691406 42.066406 C 61.699219 42.027344 61.699219 41.984375 61.691406 41.945312 C 61.683594 41.871094 61.640625 41.804688 61.578125 41.761719 C 61.476562 41.707031 61.359375 41.679688 61.242188 41.691406 C 61.136719 41.683594 61.035156 41.71875 60.949219 41.78125 C 60.875 41.855469 60.835938 41.953125 60.835938 42.058594 L 60.1875 42.058594 C 60.179688 41.792969 60.292969 41.535156 60.492188 41.363281 C 60.738281 41.195312 61.03125 41.117188 61.324219 41.136719 C 61.589844 41.125 61.855469 41.195312 62.078125 41.34375 C 62.257812 41.476562 62.359375 41.691406 62.351562 41.914062 L 62.351562 43.386719 C 62.335938 43.46875 62.335938 43.554688 62.351562 43.640625 C 62.371094 43.691406 62.410156 43.730469 62.460938 43.753906 Z M 65.105469 43.835938 L 64.464844 43.835938 L 64.464844 43.445312 L 64.382812 43.578125 C 64.207031 43.800781 63.933594 43.925781 63.652344 43.90625 C 63.414062 43.917969 63.1875 43.828125 63.019531 43.660156 C 62.859375 43.472656 62.78125 43.226562 62.796875 42.976562 L 62.796875 41.21875 L 63.46875 41.21875 L 63.46875 42.894531 C 63.464844 43.023438 63.5 43.148438 63.570312 43.253906 C 63.65625 43.332031 63.769531 43.371094 63.886719 43.363281 C 64.039062 43.375 64.1875 43.3125 64.292969 43.203125 C 64.394531 43.0625 64.445312 42.894531 64.433594 42.722656 L 64.433594 41.21875 L 65.0625 41.21875 Z M 68.152344 40.769531 L 67.9375 40.769531 C 67.847656 40.769531 67.785156 40.769531 67.753906 40.769531 C 67.738281 40.84375 67.738281 40.921875 67.753906 40.996094 L 67.753906 41.117188 L 68.191406 41.117188 L 68.191406 41.609375 L 67.753906 41.609375 L 67.753906 43.761719 L 67.09375 43.761719 L 67.09375 41.699219 L 66.71875 41.699219 L 66.71875 41.210938 L 67.09375 41.210938 L 67.09375 40.984375 C 67.078125 40.777344 67.148438 40.574219 67.289062 40.421875 C 67.457031 40.289062 67.671875 40.222656 67.886719 40.238281 C 67.992188 40.230469 68.097656 40.230469 68.203125 40.238281 Z M 70.527344 43.519531 C 70.277344 43.769531 69.929688 43.90625 69.574219 43.886719 C 69.21875 43.902344 68.871094 43.769531 68.617188 43.519531 C 68.367188 43.238281 68.238281 42.871094 68.261719 42.496094 C 68.246094 42.125 68.375 41.757812 68.617188 41.476562 C 68.867188 41.21875 69.214844 41.078125 69.574219 41.097656 C 69.929688 41.078125 70.28125 41.214844 70.527344 41.476562 C 70.773438 41.757812 70.898438 42.125 70.882812 42.496094 C 70.921875 42.882812 70.792969 43.269531 70.539062 43.558594 Z M 72.722656 41.875 L 72.519531 41.875 C 72.351562 41.859375 72.1875 41.917969 72.0625 42.027344 C 71.949219 42.160156 71.894531 42.332031 71.910156 42.507812 L 71.910156 43.875 L 71.238281 43.875 L 71.238281 41.21875 L 71.878906 41.21875 L 71.878906 41.691406 C 71.902344 41.636719 71.929688 41.585938 71.960938 41.535156 C 72.078125 41.308594 72.3125 41.160156 72.570312 41.148438 L 72.722656 41.148438 Z M 77.191406 44.132812 L 76.785156 43.734375 C 76.515625 43.898438 76.207031 43.980469 75.890625 43.96875 C 75.433594 43.992188 74.988281 43.808594 74.683594 43.46875 C 74.351562 43.085938 74.179688 42.59375 74.203125 42.089844 C 74.179688 41.585938 74.34375 41.089844 74.660156 40.699219 C 74.980469 40.375 75.417969 40.191406 75.871094 40.191406 C 76.324219 40.191406 76.761719 40.375 77.078125 40.699219 C 77.394531 41.089844 77.554688 41.585938 77.527344 42.089844 C 77.546875 42.539062 77.421875 42.980469 77.171875 43.355469 L 77.535156 43.722656 Z M 80.238281 43.867188 L 79.597656 43.867188 L 79.597656 43.476562 L 79.515625 43.609375 C 79.347656 43.832031 79.074219 43.957031 78.796875 43.9375 C 78.558594 43.953125 78.328125 43.863281 78.167969 43.691406 C 78.003906 43.503906 77.917969 43.257812 77.933594 43.007812 L 77.933594 41.21875 L 78.613281 41.21875 L 78.613281 42.894531 C 78.601562 43.023438 78.640625 43.148438 78.714844 43.253906 C 78.796875 43.332031 78.90625 43.375 79.019531 43.363281 C 79.171875 43.375 79.324219 43.316406 79.425781 43.203125 C 79.527344 43.0625 79.578125 42.894531 79.566406 42.722656 L 79.566406 41.21875 L 80.300781 41.21875 Z M 82.972656 43.773438 L 82.972656 43.867188 L 82.238281 43.867188 C 82.238281 43.761719 82.238281 43.660156 82.1875 43.558594 C 81.988281 43.8125 81.679688 43.957031 81.355469 43.945312 C 81.148438 43.957031 80.945312 43.882812 80.785156 43.742188 C 80.644531 43.597656 80.566406 43.398438 80.574219 43.191406 C 80.558594 42.980469 80.628906 42.769531 80.765625 42.609375 C 80.921875 42.457031 81.121094 42.363281 81.335938 42.332031 L 81.78125 42.273438 C 81.882812 42.261719 81.976562 42.234375 82.066406 42.191406 C 82.105469 42.171875 82.132812 42.136719 82.148438 42.097656 C 82.15625 42.058594 82.15625 42.015625 82.148438 41.976562 C 82.140625 41.902344 82.097656 41.832031 82.035156 41.792969 C 81.933594 41.738281 81.816406 41.710938 81.703125 41.71875 C 81.59375 41.714844 81.492188 41.746094 81.40625 41.8125 C 81.332031 41.886719 81.292969 41.984375 81.296875 42.089844 L 80.644531 42.089844 C 80.636719 41.824219 80.75 41.566406 80.949219 41.394531 C 81.195312 41.226562 81.488281 41.148438 81.78125 41.167969 C 82.046875 41.15625 82.3125 41.226562 82.535156 41.375 C 82.714844 41.507812 82.816406 41.722656 82.808594 41.945312 L 82.808594 43.417969 C 82.792969 43.5 82.792969 43.585938 82.808594 43.671875 C 82.828125 43.722656 82.871094 43.761719 82.921875 43.785156 Z M 83.988281 43.867188 L 83.347656 43.867188 L 83.347656 40.289062 L 84.027344 40.289062 Z M 85.207031 43.867188 L 84.523438 43.867188 L 84.523438 41.21875 L 85.207031 41.21875 Z M 85.207031 40.914062 L 84.515625 40.914062 L 84.515625 40.269531 L 85.207031 40.269531 Z M 86.933594 40.820312 L 86.71875 40.820312 C 86.628906 40.820312 86.566406 40.820312 86.546875 40.820312 C 86.507812 40.890625 86.488281 40.96875 86.496094 41.046875 L 86.496094 41.167969 L 86.933594 41.167969 L 86.933594 41.660156 L 86.496094 41.660156 L 86.496094 43.8125 L 85.824219 43.8125 L 85.824219 41.699219 L 85.480469 41.699219 L 85.480469 41.210938 L 85.855469 41.210938 L 85.855469 40.984375 C 85.839844 40.777344 85.910156 40.574219 86.046875 40.421875 C 86.21875 40.289062 86.433594 40.222656 86.648438 40.238281 C 86.753906 40.230469 86.859375 40.230469 86.964844 40.238281 Z M 87.949219 43.886719 L 87.277344 43.886719 L 87.277344 41.21875 L 87.949219 41.21875 Z M 87.949219 40.933594 L 87.269531 40.933594 L 87.269531 40.289062 L 87.949219 40.289062 Z M 90.679688 42.742188 L 88.921875 42.742188 C 88.917969 42.910156 88.964844 43.070312 89.054688 43.210938 C 89.167969 43.355469 89.34375 43.425781 89.523438 43.40625 C 89.625 43.40625 89.722656 43.375 89.808594 43.3125 C 89.882812 43.261719 89.933594 43.1875 89.960938 43.097656 L 90.648438 43.097656 C 90.601562 43.355469 90.453125 43.582031 90.242188 43.734375 C 90.003906 43.878906 89.722656 43.941406 89.441406 43.917969 C 89.101562 43.9375 88.773438 43.800781 88.546875 43.550781 C 88.328125 43.253906 88.214844 42.894531 88.234375 42.527344 C 88.203125 42.160156 88.316406 41.792969 88.546875 41.507812 C 89.050781 41.023438 89.84375 41.023438 90.34375 41.507812 C 90.574219 41.796875 90.683594 42.160156 90.660156 42.527344 C 90.667969 42.589844 90.667969 42.648438 90.660156 42.710938 Z M 93.351562 43.886719 L 92.703125 43.886719 L 92.703125 43.558594 C 92.539062 43.804688 92.265625 43.953125 91.96875 43.945312 C 91.660156 43.945312 91.371094 43.804688 91.179688 43.558594 C 90.96875 43.261719 90.859375 42.902344 90.875 42.539062 C 90.84375 42.171875 90.953125 41.808594 91.179688 41.515625 C 91.363281 41.273438 91.65625 41.136719 91.960938 41.148438 C 92.242188 41.140625 92.511719 41.285156 92.660156 41.527344 L 92.660156 40.28125 L 93.332031 40.28125 Z M 96.035156 43.019531 C 96.164062 43.199219 96.363281 43.3125 96.582031 43.339844 C 96.804688 43.363281 97.023438 43.296875 97.191406 43.152344 C 97.332031 43.015625 97.414062 42.832031 97.425781 42.640625 L 98.144531 42.640625 C 98.132812 43.03125 97.964844 43.398438 97.679688 43.660156 C 97.394531 43.902344 97.035156 44.03125 96.664062 44.019531 C 96.222656 44.039062 95.792969 43.855469 95.503906 43.519531 C 95.203125 43.128906 95.050781 42.644531 95.078125 42.148438 C 95.054688 41.652344 95.203125 41.160156 95.503906 40.761719 C 95.789062 40.417969 96.21875 40.226562 96.664062 40.25 C 97.03125 40.238281 97.390625 40.355469 97.679688 40.585938 C 97.949219 40.824219 98.117188 41.15625 98.144531 41.515625 L 97.425781 41.515625 C 97.410156 41.339844 97.324219 41.179688 97.191406 41.066406 C 97.039062 40.949219 96.855469 40.886719 96.664062 40.894531 C 96.410156 40.886719 96.167969 41.015625 96.035156 41.230469 C 95.867188 41.507812 95.789062 41.828125 95.808594 42.148438 C 95.796875 42.441406 95.867188 42.734375 96.011719 42.988281 Z M 100.636719 43.589844 C 100.382812 43.84375 100.035156 43.976562 99.679688 43.957031 C 99.324219 43.976562 98.976562 43.839844 98.726562 43.589844 C 98.476562 43.3125 98.347656 42.941406 98.371094 42.570312 C 98.351562 42.195312 98.480469 41.828125 98.726562 41.546875 C 98.972656 41.289062 99.324219 41.152344 99.679688 41.167969 C 100.039062 41.148438 100.386719 41.289062 100.636719 41.546875 C 100.878906 41.828125 101.007812 42.195312 100.992188 42.570312 C 101 42.933594 100.863281 43.292969 100.613281 43.558594 Z M 105.003906 43.886719 L 104.332031 43.886719 L 104.332031 42.3125 C 104.347656 42.160156 104.3125 42.003906 104.230469 41.875 C 104.171875 41.773438 104.0625 41.71875 103.945312 41.730469 C 103.824219 41.71875 103.703125 41.769531 103.621094 41.863281 C 103.535156 41.972656 103.496094 42.113281 103.507812 42.25 L 103.507812 43.855469 L 102.828125 43.855469 L 102.828125 42.191406 C 102.839844 42.066406 102.804688 41.945312 102.738281 41.84375 C 102.65625 41.765625 102.546875 41.726562 102.433594 41.730469 C 102.3125 41.71875 102.195312 41.769531 102.117188 41.863281 C 102.039062 41.976562 102 42.113281 102.007812 42.25 L 102.007812 43.855469 L 101.335938 43.855469 L 101.335938 41.21875 L 101.976562 41.21875 L 101.976562 41.640625 C 102.003906 41.570312 102.042969 41.503906 102.085938 41.445312 C 102.242188 41.242188 102.484375 41.132812 102.738281 41.148438 C 102.945312 41.140625 103.148438 41.226562 103.285156 41.382812 C 103.34375 41.441406 103.390625 41.507812 103.429688 41.578125 L 103.507812 41.445312 C 103.644531 41.242188 103.878906 41.128906 104.121094 41.148438 C 104.363281 41.136719 104.597656 41.230469 104.769531 41.402344 C 104.933594 41.601562 105.015625 41.851562 105.003906 42.109375 Z M 107.675781 43.570312 C 107.492188 43.816406 107.199219 43.960938 106.890625 43.957031 C 106.605469 43.964844 106.335938 43.828125 106.171875 43.589844 L 106.171875 44.9375 L 105.492188 44.9375 L 105.492188 41.261719 L 106.128906 41.261719 L 106.128906 41.648438 L 106.128906 41.589844 C 106.285156 41.335938 106.558594 41.183594 106.851562 41.191406 C 107.152344 41.1875 107.441406 41.324219 107.632812 41.558594 C 107.851562 41.851562 107.953125 42.214844 107.929688 42.578125 C 107.933594 42.917969 107.835938 43.253906 107.652344 43.539062 Z M 110.539062 43.792969 L 110.539062 43.886719 L 109.757812 43.886719 C 109.742188 43.785156 109.742188 43.679688 109.757812 43.578125 C 109.558594 43.832031 109.253906 43.976562 108.933594 43.96875 C 108.726562 43.976562 108.523438 43.902344 108.363281 43.761719 C 108.222656 43.617188 108.144531 43.417969 108.152344 43.210938 C 108.136719 43 108.207031 42.792969 108.34375 42.628906 C 108.5 42.480469 108.699219 42.382812 108.914062 42.355469 L 109.359375 42.292969 C 109.460938 42.28125 109.554688 42.253906 109.644531 42.210938 C 109.679688 42.1875 109.707031 42.15625 109.726562 42.117188 C 109.734375 42.078125 109.734375 42.035156 109.726562 41.996094 C 109.71875 41.921875 109.675781 41.855469 109.613281 41.8125 C 109.511719 41.757812 109.394531 41.734375 109.277344 41.742188 C 109.171875 41.734375 109.070312 41.769531 108.984375 41.832031 C 108.914062 41.90625 108.867188 42.003906 108.863281 42.109375 L 108.222656 42.109375 C 108.214844 41.84375 108.328125 41.585938 108.527344 41.414062 C 108.769531 41.246094 109.066406 41.167969 109.359375 41.191406 C 109.625 41.175781 109.890625 41.25 110.113281 41.394531 C 110.292969 41.527344 110.394531 41.742188 110.386719 41.964844 L 110.386719 43.4375 C 110.371094 43.519531 110.371094 43.605469 110.386719 43.691406 C 110.40625 43.742188 110.449219 43.785156 110.5 43.804688 Z M 113.179688 43.886719 L 112.507812 43.886719 L 112.507812 42.210938 C 112.519531 42.078125 112.484375 41.949219 112.40625 41.84375 C 112.324219 41.765625 112.207031 41.722656 112.09375 41.730469 C 111.9375 41.71875 111.789062 41.777344 111.6875 41.894531 C 111.578125 42.03125 111.527344 42.203125 111.542969 42.375 L 111.542969 43.855469 L 110.863281 43.855469 L 110.863281 41.21875 L 111.503906 41.21875 L 111.503906 41.609375 L 111.59375 41.476562 C 111.949219 41.074219 112.558594 41.039062 112.957031 41.394531 C 113.109375 41.585938 113.191406 41.832031 113.179688 42.078125 Z M 114.378906 43.886719 L 113.707031 43.886719 L 113.707031 41.21875 L 114.378906 41.21875 Z M 114.378906 40.933594 L 113.6875 40.933594 L 113.6875 40.289062 L 114.378906 40.289062 Z M 117.101562 42.742188 L 115.363281 42.742188 C 115.371094 42.90625 115.414062 43.066406 115.496094 43.210938 C 115.609375 43.351562 115.785156 43.425781 115.964844 43.40625 C 116.066406 43.40625 116.164062 43.375 116.246094 43.3125 C 116.328125 43.269531 116.382812 43.191406 116.398438 43.097656 L 117.089844 43.097656 C 117.042969 43.351562 116.902344 43.578125 116.695312 43.734375 C 116.441406 43.886719 116.144531 43.949219 115.851562 43.917969 C 115.511719 43.9375 115.175781 43.804688 114.945312 43.550781 C 114.730469 43.253906 114.621094 42.894531 114.632812 42.527344 C 114.605469 42.15625 114.722656 41.792969 114.957031 41.507812 C 115.457031 41.023438 116.246094 41.023438 116.746094 41.507812 C 116.976562 41.792969 117.089844 42.160156 117.070312 42.527344 C 117.082031 42.589844 117.089844 42.648438 117.089844 42.710938 Z M 119.324219 43.761719 C 119.09375 43.929688 118.808594 44.015625 118.523438 44 C 118.199219 44.023438 117.878906 43.941406 117.609375 43.761719 C 117.394531 43.605469 117.269531 43.355469 117.273438 43.089844 L 117.953125 43.089844 C 117.960938 43.203125 118.019531 43.3125 118.117188 43.375 C 118.238281 43.449219 118.378906 43.488281 118.523438 43.476562 C 118.632812 43.484375 118.742188 43.460938 118.835938 43.40625 C 118.90625 43.363281 118.949219 43.285156 118.949219 43.203125 C 118.941406 43.132812 118.898438 43.074219 118.835938 43.046875 C 118.714844 42.992188 118.585938 42.949219 118.453125 42.925781 C 118.144531 42.875 117.847656 42.765625 117.578125 42.609375 C 117.429688 42.484375 117.351562 42.292969 117.363281 42.097656 C 117.355469 41.851562 117.460938 41.613281 117.648438 41.457031 C 117.859375 41.292969 118.125 41.207031 118.390625 41.21875 C 118.691406 41.203125 118.988281 41.285156 119.234375 41.457031 C 119.441406 41.59375 119.5625 41.828125 119.558594 42.078125 L 118.898438 42.078125 C 118.898438 41.980469 118.855469 41.890625 118.777344 41.832031 C 118.679688 41.769531 118.566406 41.734375 118.453125 41.742188 C 118.34375 41.734375 118.238281 41.757812 118.148438 41.8125 C 118.078125 41.851562 118.03125 41.925781 118.035156 42.007812 C 118.035156 42.007812 118.035156 42.109375 118.15625 42.160156 C 118.296875 42.21875 118.445312 42.261719 118.59375 42.292969 C 118.890625 42.335938 119.171875 42.441406 119.425781 42.597656 C 119.578125 42.738281 119.65625 42.9375 119.640625 43.140625 C 119.621094 43.363281 119.5 43.566406 119.316406 43.691406 Z M 119.324219 43.761719 "/>
<path style=" stroke:none;fill-rule:evenodd;fill:rgb(33.333333%,33.333333%,33.333333%);fill-opacity:1;" d="M 87.53125 26.972656 C 88.792969 24.511719 89.441406 21.183594 89.441406 16.964844 C 89.476562 14.585938 89.113281 12.214844 88.363281 9.957031 C 87.683594 7.9375 86.574219 6.089844 85.113281 4.542969 C 83.71875 3.0625 82.027344 1.898438 80.148438 1.132812 C 78.183594 0.355469 76.089844 -0.0273438 73.980469 0 C 72.0625 -0.0195312 70.15625 0.292969 68.34375 0.929688 C 66.605469 1.558594 64.996094 2.511719 63.609375 3.738281 C 61.863281 5.285156 60.535156 7.253906 59.75 9.457031 C 58.863281 12.011719 58.4375 14.707031 58.492188 17.414062 C 58.4375 19.902344 58.78125 22.386719 59.507812 24.765625 C 60.15625 26.828125 61.257812 28.714844 62.726562 30.292969 C 64.128906 31.785156 65.835938 32.949219 67.734375 33.703125 C 71.054688 34.960938 74.671875 35.179688 78.117188 34.328125 C 79.445312 33.980469 80.726562 33.460938 81.925781 32.785156 C 82.742188 32.316406 83.511719 31.765625 84.21875 31.140625 L 87.328125 33.183594 L 94.265625 33.121094 L 86.78125 28.238281 C 87.035156 27.808594 87.296875 27.410156 87.53125 26.972656 Z M 77.253906 27.996094 C 76.234375 28.453125 75.128906 28.683594 74.011719 28.667969 C 71.71875 28.726562 69.527344 27.71875 68.070312 25.941406 C 67.21875 24.933594 66.597656 23.746094 66.261719 22.46875 C 65.816406 20.804688 65.605469 19.085938 65.640625 17.363281 C 65.609375 15.65625 65.816406 13.953125 66.261719 12.308594 C 66.589844 11.039062 67.199219 9.863281 68.039062 8.863281 C 69.507812 7.101562 71.695312 6.105469 73.980469 6.160156 C 75.113281 6.15625 76.230469 6.40625 77.253906 6.894531 C 78.277344 7.371094 79.183594 8.070312 79.914062 8.9375 C 80.753906 9.921875 81.363281 11.085938 81.703125 12.335938 C 82.144531 13.933594 82.359375 15.582031 82.332031 17.238281 C 82.34375 19.003906 82.121094 20.765625 81.660156 22.46875 C 81.472656 23.140625 81.21875 23.792969 80.910156 24.417969 L 76.429688 21.449219 L 69.480469 21.507812 L 78.347656 27.289062 C 78.007812 27.558594 77.640625 27.792969 77.253906 27.996094 Z M 77.253906 27.996094 "/>
<path style=" stroke:none;fill-rule:evenodd;fill:rgb(33.333333%,33.333333%,33.333333%);fill-opacity:1;" d="M 20.867188 27.757812 C 20.5625 27.964844 20.542969 27.839844 20.226562 27.996094 C 19.207031 28.453125 18.101562 28.683594 16.988281 28.667969 C 14.695312 28.726562 12.503906 27.71875 11.042969 25.941406 C 9.445312 24.101562 8.648438 21.265625 8.648438 17.421875 C 8.613281 15.71875 8.824219 14.015625 9.265625 12.367188 C 9.597656 11.101562 10.203125 9.925781 11.042969 8.925781 C 12.511719 7.164062 14.699219 6.167969 16.988281 6.21875 C 18.097656 6.207031 19.195312 6.4375 20.207031 6.894531 C 21.230469 7.375 22.136719 8.070312 22.867188 8.9375 C 23.707031 9.921875 24.320312 11.085938 24.65625 12.335938 C 25.097656 13.933594 25.304688 15.585938 25.277344 17.238281 C 25.339844 19.363281 25.015625 21.484375 24.320312 23.488281 L 30.285156 27.464844 C 30.363281 27.308594 30.457031 27.15625 30.527344 27.003906 C 31.796875 24.542969 32.4375 21.210938 32.4375 16.996094 C 32.46875 14.617188 32.105469 12.246094 31.359375 9.988281 C 30.679688 7.96875 29.570312 6.121094 28.109375 4.574219 C 26.714844 3.09375 25.023438 1.929688 23.140625 1.164062 C 21.183594 0.378906 19.09375 -0.015625 16.988281 0 C 15.070312 -0.0195312 13.160156 0.292969 11.347656 0.929688 C 9.609375 1.558594 8.003906 2.511719 6.617188 3.738281 C 4.863281 5.28125 3.535156 7.25 2.757812 9.457031 C 1.867188 12.011719 1.441406 14.707031 1.496094 17.414062 C 1.4375 19.902344 1.78125 22.386719 2.511719 24.765625 C 3.15625 26.828125 4.257812 28.71875 5.730469 30.292969 C 7.132812 31.785156 8.84375 32.949219 10.738281 33.703125 C 12.730469 34.480469 14.851562 34.867188 16.988281 34.835938 C 18.378906 34.839844 19.769531 34.667969 21.121094 34.328125 C 22.453125 33.980469 23.730469 33.460938 24.929688 32.785156 C 25.535156 32.449219 26.101562 32.050781 26.625 31.597656 Z M 20.867188 27.757812 "/>
<path style=" stroke:none;fill-rule:evenodd;fill:rgb(33.333333%,33.333333%,33.333333%);fill-opacity:1;" d="M 47.492188 1.132812 L 41.425781 1.132812 L 32.292969 29.769531 L 22.777344 23.296875 L 15.746094 23.296875 L 30.4375 33.152344 L 37.261719 33.152344 Z M 47.492188 1.132812 "/>
<path style=" stroke:none;fill-rule:evenodd;fill:rgb(33.333333%,33.333333%,33.333333%);fill-opacity:1;" d="M 46.160156 11.519531 L 49.15625 21.019531 L 43.609375 21.019531 L 41.445312 26.65625 L 50.933594 26.65625 L 52.984375 33.152344 L 59.820312 33.152344 L 49.601562 1.132812 Z M 46.160156 11.519531 "/>
<path style=" stroke:none;fill-rule:evenodd;fill:rgb(33.333333%,33.333333%,33.333333%);fill-opacity:1;" d="M 119.113281 22.324219 L 113.636719 22.324219 C 113.480469 23.210938 113.222656 24.074219 112.875 24.898438 C 112.515625 25.742188 111.984375 26.503906 111.320312 27.136719 C 110.710938 27.71875 109.996094 28.167969 109.207031 28.464844 C 108.359375 28.761719 107.464844 28.910156 106.566406 28.902344 C 105.457031 28.917969 104.351562 28.691406 103.335938 28.238281 C 102.339844 27.761719 101.464844 27.066406 100.777344 26.195312 C 99.96875 25.167969 99.394531 23.972656 99.101562 22.695312 C 98.683594 20.949219 98.484375 19.15625 98.511719 17.363281 C 98.480469 15.582031 98.683594 13.808594 99.113281 12.082031 C 99.429688 10.800781 100.027344 9.601562 100.859375 8.578125 C 101.589844 7.714844 102.496094 7.015625 103.519531 6.535156 C 104.578125 6.082031 105.722656 5.855469 106.871094 5.871094 C 107.632812 5.863281 108.386719 5.988281 109.105469 6.238281 C 109.789062 6.480469 110.417969 6.847656 110.964844 7.324219 C 111.550781 7.851562 112.039062 8.484375 112.398438 9.191406 C 112.820312 10 113.132812 10.863281 113.332031 11.753906 L 119.914062 11.753906 L 119.75 10.734375 C 119.476562 9.171875 118.949219 7.667969 118.1875 6.28125 C 117.476562 4.992188 116.523438 3.855469 115.382812 2.929688 C 114.226562 2.007812 112.90625 1.3125 111.492188 0.886719 C 109.941406 0.425781 108.328125 0.207031 106.710938 0.234375 C 105.339844 0.226562 103.972656 0.394531 102.644531 0.734375 C 101.34375 1.070312 100.089844 1.578125 98.917969 2.246094 C 97.730469 2.898438 96.664062 3.75 95.769531 4.769531 C 94.851562 5.824219 94.101562 7.015625 93.554688 8.304688 C 92.960938 9.683594 92.527344 11.132812 92.265625 12.613281 C 91.964844 14.238281 91.816406 15.886719 91.828125 17.535156 C 91.796875 19.957031 92.140625 22.367188 92.84375 24.683594 C 93.449219 26.691406 94.492188 28.542969 95.890625 30.097656 C 97.199219 31.5625 98.8125 32.71875 100.613281 33.480469 C 102.523438 34.246094 104.5625 34.625 106.617188 34.59375 C 108.289062 34.609375 109.953125 34.335938 111.535156 33.785156 C 113.027344 33.242188 114.40625 32.421875 115.597656 31.363281 C 116.828125 30.300781 117.851562 29.015625 118.613281 27.574219 C 119.40625 25.96875 119.9375 24.246094 120.1875 22.46875 L 120.1875 22.296875 Z M 119.113281 22.324219 "/>
</g>
</svg>
