<?xml version="1.0" encoding="UTF-8"?>
<!DOCTYPE svg PUBLIC "-//W3C//DTD SVG 1.1//EN" "http://www.w3.org/Graphics/SVG/1.1/DTD/svg11.dtd">
<!-- Creator: CorelDRAW 2021 (64-Bit) -->
<svg xmlns="http://www.w3.org/2000/svg" xml:space="preserve" width="60" height="48" version="1.1" style="shape-rendering:geometricPrecision; text-rendering:geometricPrecision; image-rendering:optimizeQuality; fill-rule:evenodd; clip-rule:evenodd"
viewBox="0 0 1892.35 2029.08"
 xmlns:xlink="http://www.w3.org/1999/xlink"
 xmlns:xodm="http://www.corel.com/coreldraw/odm/2003">
 <defs>
  <style type="text/css">
   <![CDATA[
    .fil0 {fill:#4D4D4D}
    .fil1 {fill:#4D4D4D;fill-rule:nonzero}
   ]]>
  </style>
 </defs>
 <g id="Layer_x0020_1">
  <metadata id="CorelCorpID_0Corel-Layer"/>
  <g id="_2286847076912">
   <path class="fil0" d="M791.57 1884.54c55.9,0 38.97,13.9 74.98,-75.74 3.75,-9.33 7.22,-21.02 11.15,-29.22l145.33 0 30.35 82.69c10.97,28.04 1.98,22.27 69.24,22.27 -0.35,-15.56 -61.99,-160.38 -69.2,-178.4l-70.75 -176.86 -43.06 0c-3.94,7.45 -5.83,14.04 -9.87,22.43l-143.92 324.83c-1.05,4.41 -3.7,8 5.76,8zm102.17 -151.33l126.07 0 -63.04 -141.29 -63.04 141.29z"/>
   <path class="fil0" d="M217.03 1889.93c-5.41,-6.86 -11.48,-12.85 -17.54,-18.92 -6.3,-6.32 -10.87,-12.7 -16.17,-18.21 -39.93,-6.75 -64.87,-15.81 -85.83,-41.21 -45.41,-55.02 -46.58,-145.26 -13.28,-195.72 17.11,-25.94 40.66,-43.78 75.02,-51.48 128.61,-28.82 191.24,93.65 154.37,200.13 -12.69,36.64 -28.02,53.55 -56.92,71.57 8.74,9.35 19.63,20.57 31.61,27.04 29.94,-8.69 69.38,-55.13 83.89,-91.18 18.34,-45.57 17.47,-101.91 -4,-144.93 -44.83,-89.83 -149.52,-123.78 -240.39,-94.08 -44.51,14.55 -77.61,39.57 -100.6,74.34 -22.98,34.77 -34.49,88.99 -22.13,143.33 11.26,49.51 33.28,80.89 68.62,106.32 14.95,10.76 40.79,21.72 62.31,26.51 27.11,6.03 48.96,6.48 81.06,6.48z"/>
   <path class="fil0" d="M449.76 1758.04c0,45.3 17.07,76.56 41,98.96 52.76,49.38 257.75,65.65 257.75,-112.41l0 -207.24c0,-12.41 -15.13,-8.07 -45.75,-8.07 -12.72,0 -8.08,20.91 -8.07,43.06l0 153.41c0,41.59 2.11,60.07 -14.52,87.75 -32.44,53.99 -130.33,51.06 -159.35,2.69 -13.61,-22.68 -17.21,-52.84 -17.21,-87.75l0 -199.16 -53.83 0 0 228.77z"/>
   <path class="fil0" d="M1572.07 1537.35l0 339.12c0,12.63 16.54,8.07 48.44,8.07 6.2,0 8.07,-1.87 8.07,-8.07l0 -139.95 126.5 0c11.72,0 8.07,-11.41 8.07,-37.68l-134.57 0 0 -131.88 129.18 0c10.99,0 8.07,-8.44 8.07,-29.61 0,-6.2 -1.87,-8.07 -8.07,-8.07l-177.63 0c-6.2,0 -8.07,1.87 -8.07,8.07z"/>
   <path class="fil0" d="M1165.67 1876.47c0,6.2 1.87,8.07 8.07,8.07l199.16 0c11.72,0 8.07,-11.4 8.07,-37.68l-158.79 0 0 -309.51c0,-13.27 -21.22,-8.07 -56.52,-8.07l0 347.19z"/>
   <path class="fil0" d="M1835.83 1876.47c0,12.63 16.54,8.07 48.44,8.07 6.2,0 8.07,-1.87 8.07,-8.07l0 -339.12c0,-13.27 -21.22,-8.07 -56.52,-8.07l0 347.19z"/>
   <polygon class="fil0" points="1429.43,1884.54 1483.26,1884.54 1483.26,1529.28 1429.43,1529.28 "/>
   <path class="fil0" d="M296.81 1930.3c0.43,0.43 1.17,0.42 1.39,1.17l18.62 7.97c28.64,9.26 47.01,11.59 78.29,15.91 80.69,11.14 188.63,-13.71 263.46,-42.33 8.52,-3.26 15.58,-6.22 22.66,-9.64l16.75 -7.47c3.52,-1.96 2.69,-1.48 4.78,-3.3 -26.59,2.21 -137.76,60.09 -287.81,29.44 -43.3,-8.85 -71.88,-26.6 -83.21,-29.44 -7.03,-5.52 -14.23,-9.06 -21.81,-13.57 -8.33,-4.96 -14.37,-9.84 -21.65,-15.91 -11.98,-6.48 -22.87,-17.69 -31.61,-27.04 -12.49,-7.17 -31.06,-27.29 -48.41,-25.66 -9.75,0.91 -17.81,8.17 -23.15,14.13 -10.64,11.85 -4.9,13.57 -1.79,28.24 5.3,5.51 9.87,11.89 16.17,18.21 6.06,6.07 12.13,12.06 17.54,18.92 10.48,4.33 10,5.83 19.24,11.65 7.27,4.57 10.95,6.85 18.78,10.82 11.12,5.63 29.3,16.93 41.76,17.9z"/>
   <g>
    <path class="fil0" d="M504.08 162.05c-3.21,7.17 -7.89,10.57 -12.7,17.44 -34.03,48.76 -33.55,108.42 -19.09,164.53 16.12,62.57 45.2,110.99 74.74,156.68 35.86,55.48 87.71,113.71 133.42,157.34l89.59 82.66 63.51 46.83c13.09,9.01 56.66,41.55 68.37,44.67 15.18,-22.67 29.8,-44.63 45.22,-67.82l45.08 -66.75c-0.36,-8.35 4.01,-3.1 -6.75,-10.76 -53.91,-38.37 -95.65,-62.86 -149.68,-111.55 -98.2,-88.5 -286.57,-292.35 -225.61,-444 17.65,-43.9 44.43,-53.59 64.77,-71.55 -9.06,0.88 -38.29,15.11 -46.41,19.98 -15.78,9.46 -29.67,15.11 -45.37,24.6 -17.72,10.7 -71.55,44.07 -79.08,57.7z"/>
    <path class="fil0" d="M346.9 326.23c-6.88,18.93 -14.06,29.26 -18.99,53.1 -4.57,22.08 -4.34,43.56 -2.46,65.74l10.9 58.05c5.44,12.89 9.13,26.55 14.68,40.23 5.97,14.71 12.77,26.87 17.75,41.24l24.87 42.89c18.28,28.22 31.56,47.37 50.68,72.88 31.44,41.93 109.57,127.82 148.63,158.17l31.89 27.35c41.8,37.37 90.66,69.67 140.56,104.35 30.93,21.49 121,74.39 155.35,88.28 7.66,-8.26 64.21,-90.47 67.28,-103.65 -14.35,-3.35 -56.47,-27.84 -71.12,-36.54 -50.5,-29.95 -84.24,-48.94 -133.02,-84.98 -13.44,-9.93 -54.67,-37.6 -62.31,-48.04 -35.33,-18.64 -91.11,-80.92 -125.39,-111.46 -10.92,-9.72 -17.82,-20.31 -28.03,-31.24 -63.07,-67.51 -130.46,-167.64 -155.84,-258.59 -9.05,-32.41 -13.96,-69.82 -8.74,-104.79 6.46,-43.24 19.51,-54.51 36.1,-83.34 -8.55,4.91 -6.61,4.34 -12.65,12.3l-23.76 24.66c-6.04,6.28 -6.67,8.71 -12.1,14.81 -8.8,9.87 -15.05,16.87 -23.34,27.8 -5.18,6.83 -18.33,23.83 -20.93,30.79z"/>
    <path class="fil0" d="M772.73 1264.56c-52.44,-21.51 -138.02,-77.02 -185.49,-109.63 -16.1,-11.05 -29.23,-21.09 -43.37,-31.96 -37.08,-28.52 -88.05,-71.12 -118.8,-101.88 -66.58,-66.59 -147.64,-165.33 -181.87,-262.24 -29.92,-84.7 -10.01,-102.91 -19.5,-124.16 0,80.8 1.87,143.48 17.19,209.94 39.91,173.13 127.7,314.29 265.03,423.96 135.7,108.37 334.56,178.65 523.3,153.83 38.09,-5 64.55,-9.04 98.24,-17.49 12.61,-3.16 76.19,-19.96 86.67,-29.06 -11.58,0.26 -24.12,4.04 -36.91,6.15 -35.31,5.83 -80.29,10 -119.19,10 -56.37,-0 -112.98,-5.47 -158.79,-16.15 3.21,-4.38 16.36,-14.96 22.2,-20.85 5.92,-5.97 20.36,-17.85 23.55,-22.2l-44.62 -14.59c-15.36,-5.95 -27.81,-10.07 -43.05,-16.16l-62.17 -26.65c-8.64,-4.01 -13.19,-7.11 -22.42,-10.85z"/>
    <path class="fil0" d="M686.6 53.99l21.53 -5.07c12.49,-0.86 27.56,-4.83 41.48,-6.88 131.76,-19.37 267.59,2.76 390.15,46.33 56.91,20.23 113.79,51.83 164.72,82.89 11.45,6.98 20.08,13.22 30.33,20.8l56.58 43c42.22,33.34 66.23,62.47 100.6,98.56l22.04 26.4c31.62,42.3 75.92,105.63 96.48,153.82 13.94,32.66 49.59,114.19 50.36,148.77l2.69 0c0,-107.78 -55.69,-260.63 -121.12,-352.52l-97.28 -112.65c-32,-25.53 -40.38,-40.3 -88.95,-72.53 -174.2,-115.6 -386,-157 -590.04,-98.59 -16.69,4.78 -68.05,18.92 -79.58,27.67z"/>
    <path class="fil0" d="M439.69 215.88c-16.59,28.83 -29.63,40.09 -36.1,83.34 -5.22,34.97 -0.31,72.37 8.74,104.79 25.38,90.95 92.77,191.07 155.84,258.59 10.21,10.93 17.11,21.52 28.03,31.24 34.29,30.54 90.06,92.81 125.39,111.46 1.98,-7.4 5.86,-10.68 10.36,-16.56l38.09 -48.04 -89.59 -82.66c-45.71,-43.63 -97.56,-101.86 -133.42,-157.34 -29.54,-45.69 -58.61,-94.11 -74.74,-156.68 -14.45,-56.1 -14.94,-115.76 19.09,-164.53 4.8,-6.88 9.48,-10.27 12.7,-17.44 -9.19,2.25 -60.07,45.23 -64.39,53.83z"/>
    <path class="fil0" d="M351.36 657.24c5.36,34.16 97.88,139.84 131.75,176.62 25.15,27.31 50.28,51.77 79.71,76.46 14.73,12.36 26.43,23.58 41.68,36.3 12.21,10.19 38.23,26.54 41.28,36.31 13.1,7.89 22.76,15.58 35.03,24.64 30.05,22.17 78.74,52.19 111.3,71.71 26.4,15.82 49.91,28.45 78.41,42.7l59.87 28.95c9.31,3.88 13.22,7.43 22.67,9.63 9.46,-17.88 25.3,-32.82 34.99,-51.13l-67.28 -30.92c-34.34,-13.89 -124.42,-66.79 -155.35,-88.28 -49.91,-34.68 -98.76,-66.98 -140.56,-104.35l-31.89 -27.35c-39.06,-30.35 -117.19,-116.24 -148.63,-158.17 -19.12,-25.51 -32.4,-44.65 -50.68,-72.88 -11.03,1.6 -12.33,4.33 -21.73,10.82 -6.89,4.75 -12.94,8.09 -20.33,11.83l-0.23 7.11z"/>
    <path class="fil0" d="M232.14 595.36c-15.76,129.49 81.56,255.37 135.07,322.05 45.92,57.24 78.15,82.34 127,128.66 20.26,19.2 96.09,77.87 114.34,87.65 5.37,-10.33 10.94,-18.24 18.08,-27.76 7.61,-10.13 12.37,-19.17 20.16,-28.85l2.38 -10.01c-25.1,-15.09 -47.76,-33.58 -70.35,-51.74 -76.01,-61.12 -120.98,-104.02 -186.83,-181.88 -35.24,-41.67 -67.8,-91.83 -96.1,-148.94 -33.34,-67.28 -45.23,-120.7 -31.7,-202.22 -5.6,7.67 -6.69,16.36 -9.35,25.77 -5.89,20.77 -23.26,70.94 -22.7,87.26z"/>
    <path class="fil0" d="M686.6 53.99l-11.67 5.79c-20.34,17.96 -47.12,27.65 -64.77,71.55 -60.96,151.64 127.41,355.5 225.61,444 54.03,48.7 95.78,73.18 149.68,111.55 10.76,7.66 6.39,2.41 6.75,10.76 31.91,20.89 169.92,98.05 211.14,107.65 3.94,-16.93 12.2,-28.82 16.15,-45.75 -8.53,-4.09 -19.06,-7.65 -28.84,-11.53 -134.87,-53.42 -284.78,-160.87 -382.27,-258.28l-59.54 -66.96c-6.73,-8.51 -12.18,-15.48 -18.81,-24.26 -21.7,-28.74 -48.6,-70.49 -63.44,-106.12 -26.58,-63.83 -48.98,-132.96 -3.19,-201.98 7.53,-11.35 10.2,-14.9 20.44,-22.63 6.53,-4.93 20.13,-13.08 24.28,-18.87l-21.53 5.07z"/>
    <path class="fil0" d="M1561.31 837.14c-35.77,11.22 -69.03,16.45 -110.38,16.64 -18.03,0.08 -24.66,-2.73 -40.34,-2.73 -1.76,3.67 -26.7,113.56 -48.44,156.28 58,5.78 116.67,3.56 168.01,-15.2 26.94,-9.84 40.82,-18.98 59.93,-34.23 10.62,-8.47 13.9,-12.95 22.32,-23.47 7.04,-8.79 11.82,-20.39 18.88,-29.35 0.37,-0.56 0.85,-2.15 0.99,-1.76l3.47 -7.44c1.7,-4.52 2.28,-7.26 3.09,-10.36 2.09,-7.9 3.79,-15.09 5.39,-21.52 3.72,-15.01 6.82,-28.31 9.74,-44.09 6.23,-33.7 9.62,-59.15 9.62,-98.31 -6.24,12.2 -8.08,29.34 -14.57,42.13 -5.67,11.16 -15.12,25.33 -21.32,32.66 -10.08,11.9 -43.33,35.26 -66.37,40.76z"/>
    <path class="fil0" d="M274.46 458.11c-11.37,79.42 -13.03,106.04 22.16,190.76 33.88,81.58 84.87,145.27 139.59,207.59 35.18,40.07 150.27,150.66 183.11,164.96 4.48,-8 20.59,-33.63 26.45,-38.49 -3.05,-9.78 -29.06,-26.13 -41.28,-36.31 -15.24,-12.71 -26.95,-23.94 -41.68,-36.3 -29.43,-24.69 -54.56,-49.15 -79.71,-76.46 -33.87,-36.78 -126.39,-142.46 -131.75,-176.62 -5.82,-4.28 -4.73,-2.76 -9.09,-10.92 -2.79,-5.23 -3.31,-7.5 -5.96,-12.98 -3.89,-8.06 -7.98,-14.72 -11.19,-23.04 -7.72,-18.35 -26.14,-59.71 -25.01,-79.78 -9.21,-11.52 -9.2,-58.02 -9.03,-70.77 1.17,-24.49 6.03,-36.64 10.95,-58.16 -6.21,6.54 -10.61,17.91 -14.66,26.02 -4.86,9.74 -11.31,19.02 -12.93,30.5z"/>
    <path class="fil0" d="M1362.14 1007.33c-46.6,-5.18 -85.44,-14.84 -126.5,-24.4l-37.68 78.05c15.3,1.27 35.07,8.41 52.7,11.89 60.21,11.9 120.95,20.22 184.15,11.35 21.8,-9.13 46.37,-3.98 93.72,-29.01 44.06,-23.3 44.76,-35.76 67.77,-59.5 9.81,-9.26 21.26,-49.69 27.7,-65.83 3.17,-7.92 6.51,-15.8 7.28,-24.81 -7.06,8.97 -11.84,20.57 -18.88,29.35 -8.43,10.52 -11.7,15 -22.32,23.47 -19.11,15.25 -32.99,24.39 -59.93,34.23 -51.34,18.76 -110.01,20.98 -168.01,15.2z"/>
    <path class="fil0" d="M223.69 634.69c9.5,21.25 -10.41,39.46 19.5,124.16 34.24,96.91 115.29,195.65 181.87,262.24 30.75,30.76 81.72,73.36 118.8,101.88 14.14,10.88 27.28,20.91 43.37,31.96 47.48,32.6 133.05,88.12 185.49,109.63 6.48,-7.43 15.94,-12.42 18.84,-23.26 -10.18,-2.37 -39.54,-17.96 -48.96,-23.7l-46.08 -26.58c-20.62,-12.3 -71.83,-43.64 -87.97,-57.28 -18.26,-9.79 -94.09,-68.45 -114.34,-87.65 -48.85,-46.32 -81.08,-71.43 -127,-128.66 -53.5,-66.68 -150.83,-192.56 -135.07,-322.05l-8.45 39.32z"/>
    <path class="fil0" d="M264.2 482.33c-13.53,81.53 -1.64,134.94 31.7,202.22 28.3,57.11 60.86,107.27 96.1,148.94 65.84,77.86 110.82,120.76 186.83,181.88 22.59,18.17 45.25,36.66 70.35,51.74l-2.38 10.01 119.4 73.81c9.42,5.58 16.94,9.04 25.89,14.48 17.31,10.53 35.61,18.07 53.31,27.44 13.33,-19.91 12.39,-11.34 13.46,-24.22 -33.94,-7.91 -220.9,-124.84 -239.53,-147.21 -32.84,-14.3 -147.92,-124.89 -183.11,-164.96 -54.72,-62.32 -105.71,-126.01 -139.59,-207.59 -35.19,-84.72 -33.54,-111.35 -22.16,-190.76 -5.67,7.35 -8.07,13.68 -10.26,24.22z"/>
    <path class="fil0" d="M1305.62 1276.88c-11.39,14.61 -45.69,12.92 -67.28,12.87 -108.76,-0.24 -97.52,-25.27 -131.21,8.74 -9.98,10.08 -37.53,30.43 -43.74,39.7 11.69,2.72 21.19,4.06 34.76,5.61 50.95,5.86 67.85,2.47 113.27,2.46 12.76,-4.83 29.08,-6.76 43.35,-10.43 15.89,-4.08 28.39,-10.15 42.78,-14.54 13.17,-1.31 22.89,-11.41 32.32,-18.07 17.72,-12.51 81.89,-56.17 91.49,-69.8 -9,3.82 -15.7,9.77 -25.43,14.96 -9.12,4.86 -18.7,8.79 -28.39,12.19 -19.61,6.91 -45.52,10.13 -61.91,16.3z"/>
    <path class="fil0" d="M1305.62 1276.88c16.39,-6.17 42.31,-9.39 61.91,-16.3 9.68,-3.41 19.27,-7.33 28.39,-12.19 9.73,-5.19 16.43,-11.14 25.43,-14.96 12.33,-7.07 17.83,-13.5 27.64,-23.7 5.72,-5.94 5.89,-7.52 10.84,-13.38 5.29,-6.25 8.18,-7.59 12.65,-14.26 -19.52,5.22 -68.99,81.84 -299.51,43.83l-44.98 -8.84 -34.99 43.06c45.85,3.81 63.04,18.84 156.1,18.84l56.52 -2.1z"/>
    <path class="fil0" d="M1434.81 1084.23c-2.41,12.1 -19.46,41.19 -26.37,52.65l-30.15 50.59c30.7,0 89.41,-21.41 113.87,-39.54 5.44,-4.03 8.27,-6.57 13.47,-10.75 5.86,-4.72 9.74,-6.68 14.56,-12.35 17.88,-21.05 70.8,-103.68 76.1,-129.12 -23.01,23.74 -23.71,36.2 -67.77,59.5 -47.34,25.04 -71.91,19.88 -93.72,29.01z"/>
    <path class="fil0" d="M1561.31 837.14c23.05,-5.5 56.3,-28.86 66.37,-40.76 6.2,-7.33 15.65,-21.5 21.32,-32.66 6.5,-12.79 8.33,-29.93 14.57,-42.13 0.33,-14.03 4.33,-13.33 1.61,-30.84l-1.61 -28.13 -2.69 0c0,40.81 -10.45,63.46 -28.39,87.38 -18.3,24.39 -41.67,33.03 -68.5,47.23 0,12.93 1.89,31.29 -2.69,39.92z"/>
    <path class="fil0" d="M300.12 530.52c-1.13,20.07 17.3,61.44 25.01,79.78l43.65 -25.71c-4.98,-14.38 -11.78,-26.54 -17.75,-41.24 -5.55,-13.68 -9.24,-27.34 -14.68,-40.23 -9.76,5.4 -10.33,5.57 -18.7,13.91 -3.95,3.93 -4.56,4.24 -9.1,7.39 -5.34,3.71 -3.08,1.46 -8.43,6.1z"/>
    <path class="fil0" d="M291.09 459.75c-0.17,12.75 -0.18,59.26 9.03,70.77 5.35,-4.63 3.09,-2.39 8.43,-6.1 4.54,-3.16 5.15,-3.46 9.1,-7.39 8.37,-8.34 8.94,-8.51 18.7,-13.91l-10.9 -58.05c-7.39,-4.14 -7.76,-0.48 -15.76,4.61 -5.86,3.72 -10.63,7.39 -18.59,10.06z"/>
    <path class="fil0" d="M325.13 610.3c3.21,8.31 7.3,14.98 11.19,23.04 2.65,5.48 3.17,7.75 5.96,12.98 4.36,8.16 3.27,6.65 9.09,10.92l0.23 -7.11c7.39,-3.74 13.44,-7.08 20.33,-11.83 9.4,-6.48 10.7,-9.22 21.73,-10.82l-24.87 -42.89 -43.65 25.71z"/>
    <path class="fil0" d="M302.04 401.59c-4.92,21.52 -9.78,33.67 -10.95,58.16 7.96,-2.68 12.74,-6.34 18.59,-10.06 8,-5.09 8.38,-8.75 15.76,-4.61 -1.88,-22.18 -2.1,-43.67 2.46,-65.74 4.94,-23.83 12.11,-34.17 18.99,-53.1 -5.32,4.56 -7.95,10.04 -12.02,17 -4.27,7.31 -7.48,11.7 -11.65,17.96 -6.09,9.16 -19.14,28.93 -21.2,40.4z"/>
    <path class="fil0" d="M1211.43 1346.26l-22.73 14.96c-0.32,0.23 -1.02,0.78 -1.5,1.19 21.56,0 45.04,-7.69 61.53,-13.83 7.98,-2.97 18.19,-6.65 26.19,-11.48 5.33,-3.22 6.9,-4.17 11.93,-6.85 10.24,-5.47 5.11,0.1 10.69,-8.95 -14.38,4.39 -26.89,10.46 -42.78,14.54 -14.27,3.67 -30.58,5.6 -43.35,10.43z"/>
    <polygon class="fil0" points="1485.95,1168.63 1488.64,1168.63 1486.39,1165.49 "/>
    <polygon class="fil0" points="1475.18,1179.4 1472.49,1182.09 "/>
    <polygon class="fil0" points="1477.87,1176.71 1475.18,1179.4 "/>
    <polygon class="fil0" points="1480.56,1174.01 1477.87,1176.71 "/>
    <polygon class="fil0" points="1483.26,1171.32 1480.56,1174.01 "/>
    <polygon class="fil0" points="1485.95,1168.63 1483.26,1171.32 "/>
   </g>
   <polygon class="fil1" points="771.39,2028.01 771.39,1963.86 817.71,1963.86 817.71,1966.39 779.9,1966.39 779.9,1991.1 815.29,1991.1 815.29,1998.62 779.9,1998.62 779.9,2020.48 819.23,2020.48 819.23,2028.01 "/>
   <polygon id="_1" class="fil1" points="830.88,2028.01 830.88,1963.86 839.6,1963.86 873.25,2014.21 873.25,1963.86 881.41,1963.86 881.41,2028.01 872.69,2028.01 839.03,1977.66 839.03,2028.01 "/>
   <path id="_2" class="fil1" d="M895.67 2028.01l0 -64.15 22.1 0c4.99,0 8.8,0.3 11.43,0.91 3.67,0.85 6.81,2.39 9.41,4.6 3.39,2.87 5.91,6.51 7.59,10.96 1.69,4.45 2.52,9.54 2.52,15.26 0,4.87 -0.57,9.19 -1.7,12.94 -1.13,3.76 -2.6,6.89 -4.37,9.35 -1.79,2.46 -3.73,4.4 -5.85,5.81 -2.1,1.42 -4.66,2.49 -7.64,3.22 -3,0.73 -6.44,1.09 -10.32,1.09l-23.15 0zm8.51 -7.53l13.68 0c4.22,0 7.54,-0.39 9.94,-1.18 2.41,-0.79 4.31,-1.9 5.75,-3.33 2,-2.02 3.57,-4.73 4.69,-8.14 1.12,-3.41 1.69,-7.52 1.69,-12.38 0,-6.72 -1.11,-11.89 -3.3,-15.5 -2.19,-3.61 -4.87,-6.03 -8.02,-7.26 -2.27,-0.88 -5.93,-1.31 -10.98,-1.31l-13.45 0 0 49.09z"/>
   <path id="_3" class="fil1" d="M957.77 1996.79c0,-10.63 2.87,-18.96 8.59,-24.98 5.72,-6.02 13.09,-9.02 22.15,-9.02 5.93,0 11.26,1.42 16.02,4.24 4.75,2.82 8.38,6.76 10.87,11.83 2.5,5.04 3.75,10.78 3.75,17.19 0,6.5 -1.31,12.32 -3.94,17.44 -2.63,5.13 -6.35,9.02 -11.15,11.65 -4.82,2.64 -10.02,3.96 -15.59,3.96 -6.05,0 -11.44,-1.46 -16.2,-4.37 -4.75,-2.91 -8.36,-6.89 -10.81,-11.93 -2.45,-5.03 -3.67,-10.36 -3.67,-15.99zm8.78 0.15c0,7.72 2.08,13.8 6.23,18.23 4.15,4.44 9.36,6.66 15.63,6.66 6.39,0 11.63,-2.24 15.77,-6.72 4.12,-4.48 6.18,-10.84 6.18,-19.08 0,-5.21 -0.88,-9.76 -2.64,-13.65 -1.76,-3.88 -4.35,-6.9 -7.74,-9.04 -3.41,-2.13 -7.21,-3.21 -11.44,-3.21 -6,0 -11.17,2.06 -15.5,6.18 -4.33,4.12 -6.5,10.99 -6.5,20.62z"/>
   <path id="_4" class="fil1" d="M1030.23 2028.01l0 -64.15 28.43 0c5.72,0 10.06,0.58 13.04,1.73 2.97,1.15 5.35,3.18 7.12,6.09 1.78,2.91 2.66,6.14 2.66,9.66 0,4.56 -1.48,8.39 -4.42,11.51 -2.94,3.12 -7.48,5.09 -13.63,5.94 2.26,1.07 3.96,2.15 5.12,3.19 2.48,2.27 4.82,5.12 7.02,8.54l11.09 17.47 -10.6 0 -8.48 -13.35c-2.46,-3.87 -4.51,-6.81 -6.11,-8.85 -1.61,-2.04 -3.05,-3.46 -4.31,-4.28 -1.26,-0.81 -2.56,-1.37 -3.87,-1.7 -0.96,-0.19 -2.52,-0.3 -4.72,-0.3l-9.82 0 0 28.49 -8.51 0zm8.51 -35.83l18.22 0c3.88,0 6.9,-0.41 9.08,-1.21 2.18,-0.79 3.83,-2.07 4.96,-3.85 1.13,-1.76 1.7,-3.67 1.7,-5.75 0,-3.03 -1.09,-5.54 -3.28,-7.5 -2.2,-1.96 -5.66,-2.93 -10.39,-2.93l-20.28 0 0 21.24z"/>
   <path id="_5" class="fil1" d="M1091.98 2007.4l7.97 -0.72c0.37,3.22 1.26,5.87 2.64,7.94 1.39,2.06 3.54,3.73 6.45,5.02 2.91,1.27 6.2,1.91 9.84,1.91 3.24,0 6.09,-0.48 8.57,-1.45 2.48,-0.97 4.31,-2.3 5.52,-3.99 1.21,-1.69 1.82,-3.52 1.82,-5.5 0,-2 -0.58,-3.75 -1.75,-5.26 -1.16,-1.49 -3.09,-2.75 -5.78,-3.78 -1.72,-0.66 -5.53,-1.7 -11.43,-3.12 -5.9,-1.42 -10.02,-2.75 -12.38,-4 -3.06,-1.61 -5.33,-3.61 -6.82,-5.99 -1.51,-2.37 -2.26,-5.05 -2.26,-7.99 0,-3.26 0.93,-6.29 2.76,-9.09 1.83,-2.82 4.51,-4.96 8.05,-6.42 3.52,-1.46 7.45,-2.19 11.77,-2.19 4.75,0 8.94,0.76 12.57,2.3 3.63,1.52 6.42,3.78 8.38,6.76 1.96,2.97 3,6.35 3.15,10.11l-8.15 0.63c-0.43,-4.05 -1.91,-7.11 -4.43,-9.17 -2.52,-2.07 -6.26,-3.11 -11.19,-3.11 -5.14,0 -8.88,0.94 -11.23,2.82 -2.34,1.88 -3.52,4.15 -3.52,6.81 0,2.3 0.83,4.2 2.49,5.69 1.65,1.48 5.9,3.02 12.8,4.57 6.9,1.57 11.63,2.93 14.2,4.09 3.72,1.72 6.48,3.88 8.26,6.53 1.78,2.63 2.66,5.66 2.66,9.09 0,3.42 -0.97,6.61 -2.93,9.63 -1.96,3.02 -4.75,5.36 -8.41,7.03 -3.66,1.67 -7.76,2.51 -12.35,2.51 -5.8,0 -10.65,-0.85 -14.56,-2.54 -3.93,-1.69 -6.99,-4.22 -9.21,-7.63 -2.24,-3.39 -3.41,-7.22 -3.52,-11.51z"/>
   <polygon id="_6" class="fil1" points="1154.69,2028.01 1154.69,1963.86 1201.01,1963.86 1201.01,1966.39 1163.2,1966.39 1163.2,1991.1 1198.59,1991.1 1198.59,1998.62 1163.2,1998.62 1163.2,2020.48 1202.53,2020.48 1202.53,2028.01 "/>
   <path id="_7" class="fil1" d="M1214.27 2028.01l0 -64.15 22.1 0c4.99,0 8.8,0.3 11.43,0.91 3.67,0.85 6.81,2.39 9.41,4.6 3.39,2.87 5.91,6.51 7.59,10.96 1.69,4.45 2.52,9.54 2.52,15.26 0,4.87 -0.57,9.19 -1.7,12.94 -1.13,3.76 -2.6,6.89 -4.37,9.35 -1.79,2.46 -3.73,4.4 -5.85,5.81 -2.1,1.42 -4.66,2.49 -7.64,3.22 -3,0.73 -6.44,1.09 -10.32,1.09l-23.15 0zm8.51 -7.53l13.68 0c4.22,0 7.54,-0.39 9.94,-1.18 2.41,-0.79 4.31,-1.9 5.75,-3.33 2,-2.02 3.57,-4.73 4.69,-8.14 1.12,-3.41 1.69,-7.52 1.69,-12.38 0,-6.72 -1.11,-11.89 -3.3,-15.5 -2.19,-3.61 -4.87,-6.03 -8.02,-7.26 -2.27,-0.88 -5.93,-1.31 -10.98,-1.31l-13.45 0 0 49.09z"/>
   <path id="_8" class="fil1" d="M1303.86 2028.01l0 -64.15 24.22 0c4.26,0 7.51,0.21 9.76,0.61 3.15,0.52 5.8,1.52 7.93,2.99 2.14,1.48 3.85,3.54 5.15,6.18 1.3,2.64 1.94,5.56 1.94,8.74 0,5.43 -1.73,10.05 -5.21,13.81 -3.46,3.78 -9.75,5.66 -18.83,5.66l-16.46 0 0 26.16 -8.51 0zm8.51 -33.68l16.57 0c5.5,0 9.38,-1.02 11.69,-3.06 2.3,-2.04 3.45,-4.91 3.45,-8.63 0,-2.67 -0.67,-4.97 -2.03,-6.88 -1.36,-1.91 -3.15,-3.18 -5.36,-3.8 -1.43,-0.37 -4.07,-0.57 -7.91,-0.57l-16.41 0 0 22.94z"/>
   <path id="_9" class="fil1" d="M1363.79 2028.01l0 -64.15 28.43 0c5.72,0 10.06,0.58 13.04,1.73 2.97,1.15 5.35,3.18 7.12,6.09 1.78,2.91 2.66,6.14 2.66,9.66 0,4.56 -1.48,8.39 -4.42,11.51 -2.94,3.12 -7.48,5.09 -13.63,5.94 2.26,1.07 3.96,2.15 5.12,3.19 2.48,2.27 4.82,5.12 7.02,8.54l11.09 17.47 -10.6 0 -8.48 -13.35c-2.46,-3.87 -4.51,-6.81 -6.11,-8.85 -1.61,-2.04 -3.05,-3.46 -4.31,-4.28 -1.26,-0.81 -2.56,-1.37 -3.87,-1.7 -0.96,-0.19 -2.52,-0.3 -4.72,-0.3l-9.82 0 0 28.49 -8.51 0zm8.51 -35.83l18.22 0c3.88,0 6.9,-0.41 9.08,-1.21 2.18,-0.79 3.83,-2.07 4.96,-3.85 1.13,-1.76 1.7,-3.67 1.7,-5.75 0,-3.03 -1.09,-5.54 -3.28,-7.5 -2.2,-1.96 -5.66,-2.93 -10.39,-2.93l-20.28 0 0 21.24z"/>
   <path id="_10" class="fil1" d="M1425.71 1996.79c0,-10.63 2.87,-18.96 8.59,-24.98 5.72,-6.02 13.09,-9.02 22.15,-9.02 5.93,0 11.26,1.42 16.02,4.24 4.75,2.82 8.38,6.76 10.87,11.83 2.5,5.04 3.75,10.78 3.75,17.19 0,6.5 -1.31,12.32 -3.94,17.44 -2.63,5.13 -6.35,9.02 -11.15,11.65 -4.82,2.64 -10.02,3.96 -15.59,3.96 -6.05,0 -11.44,-1.46 -16.2,-4.37 -4.75,-2.91 -8.36,-6.89 -10.81,-11.93 -2.45,-5.03 -3.67,-10.36 -3.67,-15.99zm8.78 0.15c0,7.72 2.08,13.8 6.23,18.23 4.15,4.44 9.36,6.66 15.63,6.66 6.39,0 11.63,-2.24 15.77,-6.72 4.12,-4.48 6.18,-10.84 6.18,-19.08 0,-5.21 -0.88,-9.76 -2.64,-13.65 -1.76,-3.88 -4.35,-6.9 -7.74,-9.04 -3.41,-2.13 -7.21,-3.21 -11.44,-3.21 -6,0 -11.17,2.06 -15.5,6.18 -4.33,4.12 -6.5,10.99 -6.5,20.62z"/>
   <path id="_11" class="fil1" d="M1528.01 2002.83l0 -7.53 27.15 0 0 23.77c-4.17,3.31 -8.47,5.82 -12.9,7.5 -4.44,1.67 -8.99,2.51 -13.65,2.51 -6.3,0 -12.02,-1.34 -17.17,-4.05 -5.14,-2.69 -9.04,-6.6 -11.65,-11.69 -2.63,-5.11 -3.94,-10.81 -3.94,-17.1 0,-6.24 1.3,-12.06 3.91,-17.48 2.61,-5.41 6.36,-9.42 11.26,-12.04 4.9,-2.63 10.54,-3.94 16.93,-3.94 4.63,0 8.83,0.74 12.57,2.25 3.75,1.51 6.69,3.6 8.81,6.27 2.14,2.69 3.75,6.2 4.85,10.51l-7.66 2.09c-0.97,-3.26 -2.17,-5.82 -3.58,-7.7 -1.43,-1.87 -3.46,-3.36 -6.12,-4.48 -2.64,-1.12 -5.58,-1.69 -8.82,-1.69 -3.87,0 -7.21,0.6 -10.05,1.78 -2.82,1.18 -5.09,2.73 -6.84,4.67 -1.73,1.93 -3.07,4.05 -4.03,6.35 -1.63,3.99 -2.45,8.29 -2.45,12.93 0,5.73 0.98,10.52 2.94,14.39 1.97,3.85 4.84,6.72 8.59,8.59 3.76,1.87 7.75,2.81 11.98,2.81 3.67,0 7.26,-0.72 10.75,-2.14 3.49,-1.43 6.13,-2.94 7.94,-4.57l0 -12.02 -18.81 0z"/>
   <path id="_12" class="fil1" d="M1567.86 2028.01l0 -64.15 28.43 0c5.72,0 10.06,0.58 13.04,1.73 2.97,1.15 5.35,3.18 7.12,6.09 1.78,2.91 2.66,6.14 2.66,9.66 0,4.56 -1.48,8.39 -4.42,11.51 -2.94,3.12 -7.48,5.09 -13.63,5.94 2.26,1.07 3.96,2.15 5.12,3.19 2.48,2.27 4.82,5.12 7.02,8.54l11.09 17.47 -10.6 0 -8.48 -13.35c-2.46,-3.87 -4.51,-6.81 -6.11,-8.85 -1.61,-2.04 -3.05,-3.46 -4.31,-4.28 -1.26,-0.81 -2.56,-1.37 -3.87,-1.7 -0.96,-0.19 -2.52,-0.3 -4.72,-0.3l-9.82 0 0 28.49 -8.51 0zm8.51 -35.83l18.22 0c3.88,0 6.9,-0.41 9.08,-1.21 2.18,-0.79 3.83,-2.07 4.96,-3.85 1.13,-1.76 1.7,-3.67 1.7,-5.75 0,-3.03 -1.09,-5.54 -3.28,-7.5 -2.2,-1.96 -5.66,-2.93 -10.39,-2.93l-20.28 0 0 21.24z"/>
   <path id="_13" class="fil1" d="M1625.35 2028.01l24.61 -64.15 9.33 0 26.11 64.15 -9.66 0 -7.42 -19.44 -27.01 0 -6.96 19.44 -9 0zm18.46 -26.34l21.86 0 -6.69 -17.78c-2.02,-5.41 -3.54,-9.87 -4.6,-13.39 -0.88,4.18 -2.06,8.29 -3.54,12.35l-7.03 18.83z"/>
   <path id="_14" class="fil1" d="M1691.96 2028.01l0 -64.15 12.72 0 15.17 45.41c1.41,4.23 2.42,7.39 3.06,9.5 0.73,-2.33 1.88,-5.76 3.43,-10.29l15.44 -44.61 11.36 0 0 64.15 -8.15 0 0 -53.67 -18.72 53.67 -7.65 0 -18.52 -54.65 0 54.65 -8.15 0z"/>
   <path id="_15" class="fil1" d="M1766.59 2028.01l0 -64.15 12.72 0 15.17 45.41c1.41,4.23 2.42,7.39 3.06,9.5 0.73,-2.33 1.88,-5.76 3.43,-10.29l15.44 -44.61 11.36 0 0 64.15 -8.15 0 0 -53.67 -18.72 53.67 -7.65 0 -18.52 -54.65 0 54.65 -8.15 0z"/>
   <polygon id="_16" class="fil1" points="1841.58,2028.01 1841.58,1963.86 1887.9,1963.86 1887.9,1966.39 1850.09,1966.39 1850.09,1991.1 1885.48,1991.1 1885.48,1998.62 1850.09,1998.62 1850.09,2020.48 1889.42,2020.48 1889.42,2028.01 "/>
  </g>
 </g>
</svg>
