<svg xmlns="http://www.w3.org/2000/svg" width="115.173" height="123.498" viewBox="0 0 115.173 123.498"><g transform="translate(-0.02 -0.003)"><g transform="translate(0.02 0.003)"><path d="M785.086,1550.9c3.4,0,2.372.846,4.564-4.61.228-.568.439-1.279.679-1.778h8.845l1.847,5.033c.668,1.707.121,1.355,4.214,1.355-.021-.947-3.773-9.761-4.212-10.858l-4.306-10.764H794.1c-.24.453-.355.854-.6,1.365l-8.759,19.77c-.064.268-.225.487.351.487Zm6.218-9.21h7.673l-3.837-8.6-3.837,8.6Z" transform="translate(-736.91 -1436.203)" fill-rule="evenodd"/><path d="M13.228,1544.812a13.313,13.313,0,0,0-1.068-1.152c-.383-.385-.662-.773-.984-1.108-2.43-.411-3.948-.962-5.224-2.508a10.862,10.862,0,0,1-.808-11.912A7.048,7.048,0,0,1,9.71,1525c7.828-1.754,11.639,5.7,9.4,12.181a7.257,7.257,0,0,1-3.464,4.356,8.225,8.225,0,0,0,1.924,1.646c1.822-.529,4.223-3.355,5.106-5.55a11.152,11.152,0,0,0-.243-8.821A12.017,12.017,0,0,0,7.8,1523.084a11.248,11.248,0,0,0-6.123,4.525,11.634,11.634,0,0,0-1.347,8.724A10.122,10.122,0,0,0,4.5,1542.8a11.608,11.608,0,0,0,3.792,1.614,20.975,20.975,0,0,0,4.934.394Z" transform="translate(-0.02 -1429.784)" fill-rule="evenodd"/><path d="M449.76,1542.513a7.844,7.844,0,0,0,2.5,6.023c3.211,3.005,15.688,4,15.688-6.842v-12.613c0-.755-.921-.491-2.784-.491-.774,0-.492,1.273-.491,2.621v9.337c0,2.531.128,3.656-.884,5.341-1.974,3.286-7.932,3.108-9.7.164a10.444,10.444,0,0,1-1.047-5.341V1528.59h-3.276v13.924Z" transform="translate(-422.387 -1435.513)" fill-rule="evenodd"/><path d="M1572.061,1529.771v20.64c0,.769,1.007.491,2.948.491.377,0,.491-.114.491-.491v-8.518h7.7c.713,0,.491-.694.491-2.293h-8.19v-8.027h7.862c.669,0,.491-.514.491-1.8,0-.377-.114-.491-.491-.491h-10.811c-.377,0-.491.114-.491.491Z" transform="translate(-1476.38 -1436.203)" fill-rule="evenodd"/><path d="M1165.661,1549.468c0,.377.114.491.491.491h12.121c.713,0,.491-.694.491-2.293H1169.1v-18.838c0-.808-1.292-.491-3.44-.491v21.131Z" transform="translate(-1094.715 -1435.26)" fill-rule="evenodd"/><path d="M1835.82,1549.469c0,.769,1.007.491,2.948.491.377,0,.491-.114.491-.491v-20.64c0-.808-1.292-.491-3.44-.491v21.131Z" transform="translate(-1724.087 -1435.26)" fill-rule="evenodd"/><path d="M1429.43,1550.9h3.276V1529.28h-3.276Z" transform="translate(-1342.431 -1436.203)" fill-rule="evenodd"/><path d="M186.131,1817.638c.026.026.071.026.085.071l1.133.485a24.175,24.175,0,0,0,4.765.969c4.911.678,11.481-.834,16.035-2.576.519-.2.948-.379,1.379-.587l1.019-.455a.965.965,0,0,0,.291-.2c-1.618.135-8.385,3.657-17.517,1.792a29.33,29.33,0,0,1-5.064-1.792,11.665,11.665,0,0,0-1.327-.826,9.68,9.68,0,0,1-1.318-.968,8.242,8.242,0,0,1-1.924-1.646c-.76-.437-1.89-1.661-2.946-1.562a2.331,2.331,0,0,0-1.409.86c-.648.721-.3.826-.109,1.719.323.335.6.724.984,1.108a13.312,13.312,0,0,1,1.068,1.152,5.37,5.37,0,0,1,1.171.709,11.933,11.933,0,0,0,1.143.659A8.76,8.76,0,0,0,186.131,1817.638Z" transform="translate(-168.068 -1700.154)" fill="#e0ad34" fill-rule="evenodd"/><g transform="translate(13.613)"><path d="M465.465,66a6.439,6.439,0,0,1-.773,1.061c-2.071,2.968-2.042,6.6-1.162,10.014a31.715,31.715,0,0,0,4.549,9.536,57.056,57.056,0,0,0,8.12,9.576l5.453,5.031,3.865,2.85a32.4,32.4,0,0,0,4.161,2.719c.924-1.38,1.814-2.716,2.752-4.128l2.744-4.063c-.022-.508.244-.189-.411-.655a86.219,86.219,0,0,1-9.11-6.789c-5.977-5.386-17.442-17.793-13.731-27.023,1.074-2.672,2.7-3.262,3.942-4.355a12.877,12.877,0,0,0-2.825,1.216c-.96.576-1.806.92-2.761,1.5-1.078.651-4.355,2.682-4.813,3.512Z" transform="translate(-448.399 -56.132)" fill="#12a7a2" fill-rule="evenodd"/><path d="M325.569,222.6a18.478,18.478,0,0,0-1.156,3.232,13.688,13.688,0,0,0-.15,4l.663,3.533c.331.785.556,1.616.893,2.449.363.9.777,1.635,1.08,2.51l1.514,2.61c1.113,1.718,1.921,2.883,3.085,4.436a71.031,71.031,0,0,0,9.046,9.627l1.941,1.665a89,89,0,0,0,8.555,6.351,78.155,78.155,0,0,0,9.455,5.373,47.526,47.526,0,0,0,4.095-6.308,28.1,28.1,0,0,1-4.329-2.224,83.506,83.506,0,0,1-8.1-5.172,31.826,31.826,0,0,1-3.792-2.924c-2.15-1.134-5.545-4.925-7.632-6.784-.665-.592-1.085-1.236-1.706-1.9-3.839-4.109-7.94-10.2-9.485-15.739a15.706,15.706,0,0,1-.532-6.378c.393-2.632,1.187-3.318,2.2-5.072-.52.3-.4.264-.77.749l-1.446,1.5c-.368.382-.406.53-.736.9-.536.6-.916,1.027-1.421,1.692a12.757,12.757,0,0,0-1.274,1.874Z" transform="translate(-318.07 -202.741)" fill="#f8b000" fill-rule="evenodd"/><path d="M257.116,673.026c-3.192-1.309-8.4-4.688-11.29-6.672-.98-.673-1.779-1.284-2.64-1.945a85.407,85.407,0,0,1-7.231-6.2c-4.052-4.053-8.986-10.062-11.069-15.961-1.821-5.155-.609-6.263-1.187-7.557a54.829,54.829,0,0,0,1.046,12.778,44.954,44.954,0,0,0,16.131,25.8c8.259,6.6,20.362,10.873,31.85,9.363a48.48,48.48,0,0,0,5.979-1.064c.767-.192,4.637-1.215,5.275-1.769a17.461,17.461,0,0,0-2.246.374,47.553,47.553,0,0,1-7.254.609,44.245,44.245,0,0,1-9.664-.983c.2-.267,1-.911,1.351-1.269s1.239-1.086,1.433-1.351l-2.716-.888c-.935-.362-1.693-.613-2.62-.984l-3.784-1.622c-.526-.244-.8-.433-1.365-.66Z" transform="translate(-223.699 -596.061)" fill="#a3b51b" fill-rule="evenodd"/><path d="M686.59,3.288l1.31-.309c.76-.052,1.677-.294,2.525-.419,8.019-1.179,16.286.168,23.746,2.82A55.942,55.942,0,0,1,724.2,10.426c.7.425,1.222.8,1.846,1.266l3.444,2.617a54.019,54.019,0,0,1,6.123,6l1.341,1.607a53.654,53.654,0,0,1,5.872,9.362c.848,1.988,3.018,6.95,3.065,9.055h.164c0-6.56-3.39-15.863-7.372-21.456l-5.921-6.856c-1.948-1.554-2.458-2.453-5.414-4.414-10.6-7.036-23.493-9.556-35.912-6a26.49,26.49,0,0,0-4.844,1.684Z" transform="translate(-658.416 -0.003)" fill="#a3b51b" fill-rule="evenodd"/><path d="M403.783,165.326c-1.01,1.755-1.8,2.44-2.2,5.072a15.706,15.706,0,0,0,.532,6.378c1.545,5.536,5.646,11.629,9.485,15.739.621.665,1.041,1.31,1.706,1.9,2.087,1.859,5.481,5.649,7.632,6.784a2.664,2.664,0,0,1,.631-1.008l2.318-2.924-5.453-5.031a57.055,57.055,0,0,1-8.12-9.576,31.73,31.73,0,0,1-4.549-9.536c-.879-3.414-.909-7.046,1.162-10.014a6.532,6.532,0,0,0,.773-1.061A17.965,17.965,0,0,0,403.783,165.326Z" transform="translate(-390.637 -152.187)" fill="#1c3455" fill-rule="evenodd"/><path d="M351.36,629.291c.326,2.079,5.957,8.511,8.019,10.75a51.043,51.043,0,0,0,4.851,4.654c.9.752,1.609,1.435,2.537,2.209.743.62,2.327,1.615,2.512,2.21a25.961,25.961,0,0,1,2.132,1.5c1.829,1.349,4.792,3.176,6.774,4.365,1.607.963,3.038,1.732,4.772,2.6l3.644,1.762a7.708,7.708,0,0,0,1.38.586c.576-1.088,1.54-2,2.13-3.112l-4.095-1.882a78.212,78.212,0,0,1-9.455-5.373,88.945,88.945,0,0,1-8.555-6.351l-1.941-1.665a71.034,71.034,0,0,1-9.046-9.627c-1.164-1.553-1.972-2.718-3.085-4.436-.671.1-.75.264-1.323.659a10,10,0,0,1-1.237.72l-.014.433Z" transform="translate(-343.59 -589.29)" fill="#e41524" fill-rule="evenodd"/><path d="M230.539,489.2c-.959,7.881,4.964,15.543,8.221,19.6,2.795,3.484,4.756,5.012,7.73,7.831a67.31,67.31,0,0,0,6.959,5.335,11.593,11.593,0,0,1,1.1-1.69c.463-.617.753-1.167,1.227-1.756l.145-.609a39.123,39.123,0,0,1-4.282-3.149,72.49,72.49,0,0,1-11.371-11.07,44.974,44.974,0,0,1-5.849-9.065,18.066,18.066,0,0,1-1.929-12.308,4.578,4.578,0,0,0-.569,1.568c-.358,1.264-1.416,4.318-1.382,5.311Z" transform="translate(-230.025 -452.965)" fill="#fed119" fill-rule="evenodd"/><path d="M603.644,49.219l-.71.352c-1.238,1.093-2.868,1.683-3.942,4.355-3.71,9.229,7.755,21.637,13.731,27.023a86.19,86.19,0,0,0,9.11,6.789c.655.466.389.147.411.655,1.942,1.271,10.342,5.968,12.851,6.552.24-1.03.742-1.754.983-2.784-.519-.249-1.16-.466-1.755-.7-8.209-3.251-17.333-9.791-23.266-15.72l-3.624-4.075c-.41-.518-.741-.942-1.145-1.477a33.015,33.015,0,0,1-3.861-6.459c-1.618-3.885-2.981-8.092-.194-12.293a4.3,4.3,0,0,1,1.244-1.377,8.979,8.979,0,0,0,1.478-1.148l-1.31.309Z" transform="translate(-575.47 -45.933)" fill="#e73838" fill-rule="evenodd"/><path d="M1374.272,728.632a21.655,21.655,0,0,1-6.718,1.013c-1.1,0-1.5-.166-2.455-.166-.107.223-1.625,6.912-2.948,9.512a23.335,23.335,0,0,0,10.226-.925,11.336,11.336,0,0,0,3.648-2.083,7.114,7.114,0,0,0,1.358-1.428c.428-.535.719-1.241,1.149-1.786.022-.034.052-.131.06-.107l.211-.453a5.258,5.258,0,0,0,.188-.631c.127-.481.231-.918.328-1.31.226-.914.415-1.723.593-2.683a29.444,29.444,0,0,0,.585-5.983c-.38.743-.492,1.786-.887,2.564a12.17,12.17,0,0,1-1.3,1.988,10.144,10.144,0,0,1-4.04,2.481Z" transform="translate(-1292.86 -677.681)" fill="#12a7a2" fill-rule="evenodd"/><path d="M267.636,405.03c-.692,4.834-.793,6.454,1.349,11.61,2.062,4.965,5.165,8.842,8.5,12.635,2.141,2.439,9.146,9.17,11.145,10.04a15.194,15.194,0,0,1,1.61-2.343c-.186-.6-1.769-1.59-2.512-2.21-.928-.774-1.64-1.457-2.537-2.209a51.047,51.047,0,0,1-4.851-4.654c-2.061-2.239-7.693-8.671-8.019-10.75-.354-.26-.288-.168-.553-.665-.17-.318-.2-.456-.363-.79-.237-.491-.486-.9-.681-1.4-.47-1.117-1.591-3.634-1.522-4.856-.561-.7-.56-3.531-.55-4.307a16.815,16.815,0,0,1,.666-3.54,6.851,6.851,0,0,0-.892,1.584,6.12,6.12,0,0,0-.787,1.856Z" transform="translate(-264.546 -377.148)" fill="#12a7a2" fill-rule="evenodd"/><path d="M1207.953,911.294a62.949,62.949,0,0,1-7.7-1.485l-2.293,4.75c.931.077,2.135.512,3.208.724a33.256,33.256,0,0,0,11.208.691c1.327-.556,2.822-.242,5.7-1.766,2.682-1.418,2.724-2.176,4.125-3.621.6-.564,1.294-3.024,1.686-4.007a5.225,5.225,0,0,0,.443-1.51c-.43.546-.721,1.252-1.149,1.786a7.124,7.124,0,0,1-1.359,1.428,11.337,11.337,0,0,1-3.647,2.083,23.334,23.334,0,0,1-10.226.925Z" transform="translate(-1138.663 -849.985)" fill="#1c3455" fill-rule="evenodd"/><path d="M223.69,597.772c.578,1.293-.634,2.4,1.187,7.557,2.084,5.9,7.017,11.908,11.069,15.961a85.417,85.417,0,0,0,7.231,6.2c.861.662,1.66,1.273,2.64,1.945,2.89,1.984,8.1,5.363,11.29,6.672.394-.452.97-.756,1.147-1.416a17.881,17.881,0,0,1-2.98-1.443l-2.8-1.618a62.682,62.682,0,0,1-5.354-3.486,67.264,67.264,0,0,1-6.959-5.335c-2.973-2.819-4.935-4.348-7.73-7.831-3.256-4.058-9.18-11.72-8.221-19.6l-.514,2.393Z" transform="translate(-223.69 -559.143)" fill="#1c3455" fill-rule="evenodd"/><path d="M259.055,459.584a18.066,18.066,0,0,0,1.929,12.308,44.974,44.974,0,0,0,5.849,9.065,72.462,72.462,0,0,0,11.371,11.07,38.952,38.952,0,0,0,4.282,3.149l-.145.609,7.267,4.492c.573.34,1.031.55,1.576.881,1.054.641,2.167,1.1,3.245,1.67.811-1.212.754-.69.819-1.474-2.066-.481-13.445-7.6-14.579-8.96-2-.87-9-7.6-11.145-10.04-3.33-3.793-6.434-7.669-8.5-12.635-2.142-5.156-2.041-6.777-1.349-11.61a3.2,3.2,0,0,0-.624,1.474Z" transform="translate(-256.59 -430.228)" fill="#1c3455" fill-rule="evenodd"/><path d="M1078.133,1236.065c-.693.889-2.781.786-4.095.783-6.62-.015-5.936-1.538-7.986.532-.607.614-2.284,1.852-2.662,2.416a17.318,17.318,0,0,0,2.116.342,45.331,45.331,0,0,0,6.894.15c.777-.294,1.77-.411,2.638-.635.967-.248,1.728-.618,2.6-.885a4.357,4.357,0,0,0,1.967-1.1c1.078-.761,4.984-3.419,5.568-4.248-.548.233-.956.595-1.548.911a12.4,12.4,0,0,1-1.728.742c-1.194.42-2.771.616-3.768.992Z" transform="translate(-1012.283 -1158.35)" fill="#fed119" fill-rule="evenodd"/><path d="M1105.941,1187.859c1-.376,2.575-.572,3.768-.992a12.473,12.473,0,0,0,1.728-.742c.592-.316,1-.678,1.548-.91a6.748,6.748,0,0,0,1.682-1.443c.348-.361.358-.458.66-.814a8.264,8.264,0,0,0,.77-.868c-1.188.318-4.2,4.981-18.229,2.668l-2.738-.538-2.13,2.621c2.791.232,3.837,1.147,9.5,1.147Z" transform="translate(-1040.091 -1110.144)" fill="#12a7a2" fill-rule="evenodd"/><path d="M1381.73,1001.1a16.369,16.369,0,0,1-1.6,3.2l-1.835,3.079a15.594,15.594,0,0,0,6.931-2.406c.331-.245.5-.4.82-.654a5.309,5.309,0,0,0,.886-.752c1.088-1.281,4.309-6.31,4.632-7.859-1.4,1.445-1.443,2.2-4.125,3.621-2.881,1.524-4.377,1.21-5.7,1.766Z" transform="translate(-1308.017 -935.108)" fill="#f8b000" fill-rule="evenodd"/><path d="M1561.3,673.242a10.137,10.137,0,0,0,4.039-2.481,12.159,12.159,0,0,0,1.3-1.988c.4-.778.507-1.822.887-2.564.02-.854.263-.811.1-1.877l-.1-1.712h-.164a7.888,7.888,0,0,1-1.728,5.318c-1.114,1.484-2.536,2.01-4.169,2.875a6.7,6.7,0,0,1-.164,2.43Z" transform="translate(-1479.889 -622.291)" fill="#e73838" fill-rule="evenodd"/><path d="M300.073,504.788c-.069,1.222,1.053,3.739,1.522,4.856l2.657-1.565c-.3-.875-.717-1.615-1.08-2.51-.338-.833-.562-1.664-.893-2.449a3.492,3.492,0,0,0-1.138.847,2.864,2.864,0,0,1-.554.45A2.942,2.942,0,0,0,300.073,504.788Z" transform="translate(-295.422 -472.499)" fill="#e73838" fill-rule="evenodd"/><path d="M291.054,444.28c-.01.776-.011,3.607.55,4.307a2.976,2.976,0,0,1,.513-.371,2.886,2.886,0,0,0,.554-.45,3.491,3.491,0,0,1,1.138-.847l-.663-3.533c-.45-.252-.472-.029-.959.281a4.726,4.726,0,0,1-1.131.612Z" transform="translate(-286.952 -416.299)" fill="#eb5c5b" fill-rule="evenodd"/><path d="M325.13,586.155c.2.506.444.912.681,1.4.161.334.193.472.363.79.265.5.2.4.553.665l.014-.433a10,10,0,0,0,1.237-.72c.572-.394.651-.561,1.323-.659l-1.514-2.61-2.657,1.565Z" transform="translate(-318.956 -549.01)" fill="#e73838" fill-rule="evenodd"/><path d="M291.756,330.826a16.817,16.817,0,0,0-.666,3.54,4.736,4.736,0,0,0,1.131-.612c.487-.31.51-.533.959-.281a13.708,13.708,0,0,1,.15-4,18.544,18.544,0,0,1,1.156-3.232,3.674,3.674,0,0,0-.732,1.035c-.26.445-.455.712-.709,1.093a9.152,9.152,0,0,0-1.29,2.459Z" transform="translate(-286.988 -306.384)" fill="#ee6f71" fill-rule="evenodd"/><path d="M1188.675,1322.819l-1.383.91c-.02.014-.062.048-.091.073a11.42,11.42,0,0,0,3.745-.842,9.793,9.793,0,0,0,1.594-.7c.324-.2.42-.254.726-.417.623-.333.311.006.651-.545-.875.267-1.637.637-2.6.885-.869.223-1.861.341-2.639.635Z" transform="translate(-1128.557 -1240.881)" fill="#1c3455" fill-rule="evenodd"/><path d="M1485.95,1165.681h.164l-.137-.191Z" transform="translate(-1409.125 -1094.555)" fill="#12a7a2" fill-rule="evenodd"/><path d="M1472.654,1179.4l-.164.164Z" transform="translate(-1396.484 -1107.618)" fill="#12a7a2" fill-rule="evenodd"/><path d="M1475.344,1176.71l-.164.164Z" transform="translate(-1399.01 -1105.092)" fill="#12a7a2" fill-rule="evenodd"/><path d="M1478.034,1174.01l-.164.164Z" transform="translate(-1401.536 -1102.556)" fill="#12a7a2" fill-rule="evenodd"/><path d="M1480.724,1171.32l-.164.164Z" transform="translate(-1404.063 -1100.03)" fill="#12a7a2" fill-rule="evenodd"/><path d="M1483.424,1168.63l-.164.164Z" transform="translate(-1406.598 -1097.503)" fill="#12a7a2" fill-rule="evenodd"/></g><path d="M771.39,1967.764v-3.9h2.819v.458h-2.3v1.2h2.154v.458h-2.154v1.33H774.3v.458Z" transform="translate(-724.442 -1844.333)" fill="#2b2a29"/><path d="M830.88,1967.764v-3.9h.531l2.048,3.064v-3.064h.5v3.9h-.531l-2.049-3.064v3.064Z" transform="translate(-780.311 -1844.333)" fill="#2b2a29"/><path d="M895.67,1967.764v-3.9h1.345a3.288,3.288,0,0,1,.7.055,1.334,1.334,0,0,1,.573.28,1.59,1.59,0,0,1,.462.667,2.605,2.605,0,0,1,.153.929,2.737,2.737,0,0,1-.1.788,1.917,1.917,0,0,1-.266.569,1.418,1.418,0,0,1-.356.354,1.434,1.434,0,0,1-.465.2,2.67,2.67,0,0,1-.628.066h-1.409Zm.518-.458h.833a2.013,2.013,0,0,0,.6-.072.871.871,0,0,0,.35-.2,1.242,1.242,0,0,0,.285-.5,2.426,2.426,0,0,0,.1-.754,1.833,1.833,0,0,0-.2-.943,1.01,1.01,0,0,0-.488-.442,2.009,2.009,0,0,0-.668-.08h-.819v2.988Z" transform="translate(-841.158 -1844.333)" fill="#2b2a29"/><path d="M957.77,1964.859a2.118,2.118,0,0,1,.523-1.52,1.775,1.775,0,0,1,1.348-.549,1.875,1.875,0,0,1,.975.258,1.68,1.68,0,0,1,.662.72,2.325,2.325,0,0,1,.228,1.046,2.291,2.291,0,0,1-.24,1.061,1.638,1.638,0,0,1-.679.709,1.945,1.945,0,0,1-.949.241,1.852,1.852,0,0,1-.986-.266,1.714,1.714,0,0,1-.658-.726,2.194,2.194,0,0,1-.223-.973Zm.534.009a1.559,1.559,0,0,0,.379,1.109,1.325,1.325,0,0,0,1.911,0,1.654,1.654,0,0,0,.376-1.161,2,2,0,0,0-.161-.831,1.241,1.241,0,0,0-.471-.55,1.286,1.286,0,0,0-.7-.2,1.322,1.322,0,0,0-.943.376,1.676,1.676,0,0,0-.4,1.255Z" transform="translate(-899.478 -1843.328)" fill="#2b2a29"/><path d="M1030.23,1967.764v-3.9h1.73a2.308,2.308,0,0,1,.794.105.863.863,0,0,1,.433.371,1.1,1.1,0,0,1,.162.588.982.982,0,0,1-.269.7,1.358,1.358,0,0,1-.829.362,1.32,1.32,0,0,1,.312.194,2.632,2.632,0,0,1,.427.52l.675,1.063h-.645l-.516-.812c-.15-.235-.274-.414-.372-.539a1.2,1.2,0,0,0-.262-.26.8.8,0,0,0-.235-.1,1.646,1.646,0,0,0-.287-.018h-.6v1.734h-.518Zm.518-2.181h1.109a1.656,1.656,0,0,0,.553-.074.576.576,0,0,0,.3-.234.635.635,0,0,0,.1-.35.586.586,0,0,0-.2-.456.933.933,0,0,0-.632-.178h-1.234v1.293Z" transform="translate(-967.528 -1844.333)" fill="#2b2a29"/><path d="M1091.961,1965.486l.485-.044a1.084,1.084,0,0,0,.161.483.893.893,0,0,0,.393.306,1.488,1.488,0,0,0,.6.116,1.423,1.423,0,0,0,.522-.088.721.721,0,0,0,.336-.243.564.564,0,0,0,.111-.335.507.507,0,0,0-.106-.32.8.8,0,0,0-.352-.23,7.153,7.153,0,0,0-.7-.19,3.576,3.576,0,0,1-.754-.243,1.052,1.052,0,0,1-.415-.365.888.888,0,0,1-.137-.486.993.993,0,0,1,.168-.553,1.033,1.033,0,0,1,.49-.391,1.854,1.854,0,0,1,.716-.133,1.945,1.945,0,0,1,.765.14,1.1,1.1,0,0,1,.51.411,1.182,1.182,0,0,1,.192.615l-.5.038a.794.794,0,0,0-.27-.558,1.055,1.055,0,0,0-.681-.189,1.093,1.093,0,0,0-.683.172.516.516,0,0,0-.214.415.445.445,0,0,0,.152.346,2.06,2.06,0,0,0,.779.278,5.279,5.279,0,0,1,.864.249,1.181,1.181,0,0,1,.5.4.963.963,0,0,1,.162.553,1.056,1.056,0,0,1-.178.586,1.17,1.17,0,0,1-.512.428,1.785,1.785,0,0,1-.752.153,2.237,2.237,0,0,1-.886-.155,1.23,1.23,0,0,1-.561-.464,1.3,1.3,0,0,1-.214-.7Z" transform="translate(-1025.501 -1843.31)" fill="#2b2a29"/><path d="M1154.69,1967.764v-3.9h2.819v.458h-2.3v1.2h2.154v.458h-2.154v1.33h2.394v.458Z" transform="translate(-1084.413 -1844.333)" fill="#2b2a29"/><path d="M1214.27,1967.764v-3.9h1.345a3.286,3.286,0,0,1,.7.055,1.334,1.334,0,0,1,.573.28,1.589,1.589,0,0,1,.462.667,2.6,2.6,0,0,1,.153.929,2.741,2.741,0,0,1-.1.788,1.916,1.916,0,0,1-.266.569,1.419,1.419,0,0,1-.356.354,1.436,1.436,0,0,1-.465.2,2.669,2.669,0,0,1-.628.066h-1.409Zm.518-.458h.833a2.012,2.012,0,0,0,.6-.072.872.872,0,0,0,.35-.2,1.245,1.245,0,0,0,.285-.5,2.428,2.428,0,0,0,.1-.754,1.832,1.832,0,0,0-.2-.943,1.009,1.009,0,0,0-.488-.442,2.009,2.009,0,0,0-.668-.08h-.819v2.988Z" transform="translate(-1140.367 -1844.333)" fill="#2b2a29"/><path d="M1303.851,1967.764v-3.9h1.474a3.625,3.625,0,0,1,.594.037,1.178,1.178,0,0,1,.483.182.963.963,0,0,1,.313.376,1.268,1.268,0,0,1-.2,1.373,1.52,1.52,0,0,1-1.146.344h-1v1.592h-.518Zm.518-2.05h1.009a1.07,1.07,0,0,0,.711-.186.664.664,0,0,0,.21-.525.7.7,0,0,0-.124-.419.584.584,0,0,0-.326-.231,2.235,2.235,0,0,0-.481-.035h-1Z" transform="translate(-1224.495 -1844.333)" fill="#2b2a29"/><path d="M1363.79,1967.764v-3.9h1.73a2.308,2.308,0,0,1,.794.105.865.865,0,0,1,.433.371,1.107,1.107,0,0,1,.162.588.982.982,0,0,1-.269.7,1.359,1.359,0,0,1-.83.362,1.32,1.32,0,0,1,.312.194,2.623,2.623,0,0,1,.427.52l.675,1.063h-.645l-.516-.812c-.15-.235-.275-.414-.372-.539a1.2,1.2,0,0,0-.262-.26.8.8,0,0,0-.236-.1,1.644,1.644,0,0,0-.287-.018h-.6v1.734h-.518Zm.518-2.181h1.109a1.657,1.657,0,0,0,.553-.074.576.576,0,0,0,.3-.234.634.634,0,0,0,.1-.35.586.586,0,0,0-.2-.456.932.932,0,0,0-.632-.178h-1.234v1.293Z" transform="translate(-1280.786 -1844.333)" fill="#2b2a29"/><path d="M1425.71,1964.859a2.118,2.118,0,0,1,.523-1.52,1.775,1.775,0,0,1,1.348-.549,1.875,1.875,0,0,1,.975.258,1.681,1.681,0,0,1,.662.72,2.326,2.326,0,0,1,.228,1.046,2.291,2.291,0,0,1-.24,1.061,1.638,1.638,0,0,1-.679.709,1.945,1.945,0,0,1-.949.241,1.851,1.851,0,0,1-.986-.266,1.714,1.714,0,0,1-.658-.726,2.193,2.193,0,0,1-.223-.973Zm.534.009a1.559,1.559,0,0,0,.379,1.109,1.325,1.325,0,0,0,1.911,0,1.654,1.654,0,0,0,.376-1.161,2,2,0,0,0-.161-.831,1.241,1.241,0,0,0-.471-.55,1.286,1.286,0,0,0-.7-.2,1.321,1.321,0,0,0-.943.376,1.676,1.676,0,0,0-.4,1.255Z" transform="translate(-1338.938 -1843.328)" fill="#2b2a29"/><path d="M1497.807,1965.218v-.458h1.652v1.447a2.947,2.947,0,0,1-.785.457,2.343,2.343,0,0,1-.831.153,2.209,2.209,0,0,1-1.045-.246,1.625,1.625,0,0,1-.709-.711,2.239,2.239,0,0,1-.24-1.041,2.419,2.419,0,0,1,.238-1.064,1.582,1.582,0,0,1,.685-.733,2.146,2.146,0,0,1,1.031-.24,2.032,2.032,0,0,1,.765.137,1.276,1.276,0,0,1,.536.382,1.688,1.688,0,0,1,.3.64l-.466.127a1.491,1.491,0,0,0-.218-.469.889.889,0,0,0-.373-.273,1.362,1.362,0,0,0-.537-.1,1.583,1.583,0,0,0-.612.108,1.14,1.14,0,0,0-.416.284,1.357,1.357,0,0,0-.245.386,2.059,2.059,0,0,0-.149.787,1.925,1.925,0,0,0,.179.876,1.156,1.156,0,0,0,.523.523,1.615,1.615,0,0,0,.729.171,1.723,1.723,0,0,0,.654-.13,1.678,1.678,0,0,0,.483-.278v-.732h-1.145Z" transform="translate(-1404.809 -1843.319)" fill="#2b2a29"/><path d="M1567.86,1967.764v-3.9h1.73a2.309,2.309,0,0,1,.794.105.865.865,0,0,1,.433.371,1.107,1.107,0,0,1,.162.588.982.982,0,0,1-.269.7,1.359,1.359,0,0,1-.83.362,1.32,1.32,0,0,1,.312.194,2.628,2.628,0,0,1,.427.52l.675,1.063h-.645l-.516-.812c-.15-.235-.275-.414-.372-.539a1.2,1.2,0,0,0-.262-.26.8.8,0,0,0-.236-.1,1.643,1.643,0,0,0-.287-.018h-.6v1.734h-.518Zm.518-2.181h1.109a1.657,1.657,0,0,0,.553-.074.576.576,0,0,0,.3-.234.634.634,0,0,0,.1-.35.586.586,0,0,0-.2-.456.932.932,0,0,0-.632-.178h-1.234v1.293Z" transform="translate(-1472.436 -1844.333)" fill="#2b2a29"/><path d="M1625.35,1967.764l1.5-3.9h.568l1.589,3.9h-.588l-.452-1.183h-1.644l-.424,1.183Zm1.124-1.6h1.331l-.407-1.082c-.123-.329-.215-.6-.28-.815a5.476,5.476,0,0,1-.215.752l-.428,1.146Z" transform="translate(-1526.427 -1844.333)" fill="#2b2a29"/><path d="M1691.951,1967.764v-3.9h.774l.923,2.764c.086.257.147.45.186.578q.067-.213.209-.626l.94-2.715h.691v3.9h-.5V1964.5l-1.139,3.267h-.466l-1.127-3.326v3.326h-.5Z" transform="translate(-1588.974 -1844.333)" fill="#2b2a29"/><path d="M1766.581,1967.764v-3.9h.774l.923,2.764c.086.257.147.45.186.578q.067-.213.209-.626l.94-2.715h.691v3.9h-.5V1964.5l-1.139,3.267h-.466l-1.127-3.326v3.326h-.5Z" transform="translate(-1659.061 -1844.333)" fill="#2b2a29"/><path d="M1841.58,1967.764v-3.9h2.819v.458h-2.3v1.2h2.154v.458H1842.1v1.33h2.394v.458Z" transform="translate(-1729.496 -1844.333)" fill="#2b2a29"/></g></g></svg>