<svg version="1.2" xmlns="http://www.w3.org/2000/svg" viewBox="0 0 116 124" width="116" height="124">
	<title>qualifi-accreditations-svg</title>
	<style>
		.s0 { fill: #000000 } 
		.s1 { fill: #e0ad34 } 
		.s2 { fill: #12a7a2 } 
		.s3 { fill: #f8b000 } 
		.s4 { fill: #a3b51b } 
		.s5 { fill: #1c3455 } 
		.s6 { fill: #e41524 } 
		.s7 { fill: #fed119 } 
		.s8 { fill: #e73838 } 
		.s9 { fill: #eb5c5b } 
		.s10 { fill: #ee6f71 } 
		.s11 { fill: #2b2a29 } 
	</style>
	<filter id="f0">
		<feFlood flood-color="#555555" flood-opacity="1" />
		<feBlend mode="normal" in2="SourceGraphic"/>
		<feComposite in2="SourceAlpha" operator="in" />
	</filter>
	<g id="Layer" filter="url(#f0)">
		<g id="Layer">
			<path id="Layer" fill-rule="evenodd" class="s0" d="m47.8 114.2l8.8-19.8c0.2-0.5 0.4-0.9 0.6-1.3h2.6l4.3 10.7c0.5 1.1 4.2 10 4.2 10.9-4.1 0-3.5 0.3-4.2-1.4l-1.8-5h-8.9c-0.2 0.5-0.4 1.2-0.7 1.8-2.2 5.4-1.1 4.6-4.5 4.6-0.6 0-0.4-0.2-0.4-0.5zm6.6-8.7h7.7l-3.9-8.6c0 0-3.8 8.6-3.8 8.6z"/>
			<path id="Layer" fill-rule="evenodd" class="s0" d="m13.2 115q-0.1-0.1-0.2-0.3-0.2-0.1-0.3-0.3-0.1-0.1-0.3-0.2-0.1-0.2-0.3-0.3c-0.3-0.4-0.6-0.8-0.9-1.1-2.5-0.4-4-1-5.3-2.5q-0.9-1.3-1.5-2.8-0.5-1.5-0.7-3.1-0.1-1.6 0.3-3.1 0.3-1.6 1.1-3 0.4-0.6 0.9-1.1 0.5-0.5 1.1-0.9 0.6-0.4 1.2-0.7 0.7-0.2 1.4-0.4c7.8-1.7 11.6 5.7 9.4 12.2q-0.2 0.7-0.5 1.3-0.4 0.7-0.8 1.2-0.5 0.6-1 1-0.5 0.5-1.2 0.9 0.2 0.2 0.5 0.4 0.2 0.2 0.4 0.5 0.3 0.2 0.5 0.3 0.3 0.2 0.6 0.4c1.8-0.5 4.2-3.4 5.1-5.6q0.4-1 0.6-2.1 0.2-1.1 0.1-2.3 0-1.1-0.2-2.2-0.3-1.1-0.8-2.2c-0.7-1.2-1.5-2.4-2.6-3.3-1.1-1-2.3-1.7-3.6-2.3-1.4-0.5-2.8-0.8-4.2-0.8-1.4 0-2.9 0.2-4.2 0.7q-1 0.3-1.8 0.7-0.9 0.5-1.7 1-0.8 0.6-1.4 1.3-0.7 0.7-1.2 1.5-0.6 1-1 2.1-0.4 1-0.6 2.2-0.1 1.1-0.1 2.2 0 1.1 0.3 2.2 0.2 1 0.6 1.9 0.3 1 0.9 1.8 0.5 0.8 1.2 1.5 0.7 0.8 1.5 1.3 0.4 0.3 0.9 0.5 0.4 0.3 0.9 0.5 0.5 0.2 1 0.4 0.5 0.1 1 0.2 0.6 0.2 1.2 0.2 0.6 0.1 1.2 0.2 0.6 0 1.3 0 0.6 0 1.2 0z"/>
			<path id="Layer" fill-rule="evenodd" class="s0" d="m27.4 107q-0.1 0.8 0.1 1.7 0.1 0.8 0.5 1.6 0.3 0.8 0.8 1.5 0.5 0.6 1.1 1.2c3.2 3 15.7 4 15.7-6.8v-12.6c0-0.8-1-0.5-2.8-0.5-0.8 0-0.5 1.2-0.5 2.6v9.3c0 2.6 0.1 3.7-0.9 5.4-2 3.3-7.9 3.1-9.7 0.1q-0.3-0.6-0.5-1.2-0.2-0.7-0.4-1.4-0.1-0.6-0.2-1.3 0-0.7 0.1-1.4v-12.1h-3.3c0 0 0 13.9 0 13.9z"/>
			<path id="Layer" fill-rule="evenodd" class="s0" d="m95.7 93.6v20.6c0 0.8 1 0.5 2.9 0.5 0.4 0 0.5-0.1 0.5-0.5v-8.5h7.7c0.7 0 0.5-0.7 0.5-2.3h-8.2v-8h7.9c0.7 0 0.5-0.5 0.5-1.8 0-0.4-0.1-0.5-0.5-0.5h-10.8c-0.4 0-0.5 0.1-0.5 0.5z"/>
			<path id="Layer" fill-rule="evenodd" class="s0" d="m70.9 114.2c0 0.4 0.2 0.5 0.5 0.5h12.2c0.7 0 0.4-0.7 0.4-2.3h-9.6v-18.8c0-0.8-1.3-0.5-3.5-0.5 0 0 0 21.1 0 21.1z"/>
			<path id="Layer" fill-rule="evenodd" class="s0" d="m111.7 114.2c0 0.8 1 0.5 3 0.5 0.4 0 0.5-0.1 0.5-0.5v-20.6c0-0.8-1.3-0.5-3.5-0.5 0 0 0 21.1 0 21.1z"/>
			<path id="Layer" fill-rule="evenodd" class="s0" d="m87 114.7h3.3v-21.6h-3.3z"/>
			<path id="Layer" fill-rule="evenodd" class="s1" d="m18.1 117.5c0 0 0 0 0 0.1l1.2 0.4q0.6 0.2 1.2 0.4 0.5 0.1 1.1 0.2 0.6 0.2 1.2 0.3 0.6 0 1.2 0.1c5 0.7 11.5-0.8 16.1-2.6 0.5-0.2 0.9-0.3 1.4-0.6l1-0.4q0 0 0.1 0 0-0.1 0-0.1 0.1 0 0.1 0 0-0.1 0.1-0.1c-1.6 0.1-8.4 3.6-17.5 1.8q-0.7-0.2-1.3-0.4-0.7-0.2-1.3-0.4-0.7-0.2-1.3-0.5-0.6-0.2-1.2-0.5-0.2-0.1-0.3-0.2-0.2-0.1-0.4-0.2-0.1-0.1-0.3-0.2-0.2-0.1-0.3-0.2-0.2-0.1-0.4-0.3-0.2-0.1-0.3-0.2-0.2-0.1-0.3-0.2-0.2-0.2-0.4-0.3-0.2-0.2-0.5-0.4-0.2-0.1-0.5-0.4-0.2-0.2-0.4-0.4-0.3-0.2-0.5-0.4c-0.7-0.5-1.9-1.7-2.9-1.6q-0.2 0-0.4 0.1-0.2 0.1-0.4 0.2-0.2 0.1-0.3 0.2-0.2 0.2-0.3 0.3c-0.7 0.8-0.3 0.9-0.1 1.8 0.3 0.3 0.6 0.7 0.9 1.1q0.2 0.1 0.3 0.3 0.2 0.1 0.3 0.2 0.1 0.2 0.3 0.3 0.1 0.2 0.2 0.3 0.2 0.1 0.3 0.2 0.2 0.1 0.3 0.1 0.2 0.1 0.3 0.2 0.1 0.1 0.3 0.2 0.1 0.1 0.3 0.2 0.1 0.1 0.2 0.2 0.2 0.1 0.3 0.1 0.2 0.1 0.3 0.2 0.3 0.2 0.6 0.3 0.3 0.2 0.6 0.3 0.4 0.2 0.7 0.3 0.3 0.1 0.7 0.2z"/>
			<g id="Layer">
				<path id="Layer" fill-rule="evenodd" class="s2" d="m30.7 9.9q-0.1 0.1-0.2 0.2-0.1 0.2-0.2 0.3-0.1 0.2-0.2 0.3-0.1 0.1-0.2 0.2c-2.1 3-2 6.6-1.2 10q0.4 1.3 0.9 2.6 0.4 1.2 1 2.4 0.6 1.2 1.3 2.3 0.6 1.2 1.4 2.3 0.9 1.3 1.8 2.5 1 1.3 2 2.5 1 1.2 2.1 2.3 1.1 1.2 2.2 2.3l5.5 5 3.8 2.8q0.5 0.4 1 0.8 0.5 0.3 1.1 0.7 0.5 0.3 1 0.6 0.5 0.4 1.1 0.7c0.9-1.4 1.8-2.8 2.7-4.2l2.8-4c0-0.5 0.2-0.2-0.4-0.7q-1.2-0.8-2.4-1.6-1.2-0.8-2.3-1.6-1.1-0.9-2.2-1.8-1.2-0.9-2.2-1.8c-6-5.4-17.5-17.8-13.8-27 1.1-2.7 2.7-3.3 4-4.4q-0.4 0.2-0.8 0.3-0.3 0.1-0.7 0.3-0.3 0.1-0.7 0.3-0.3 0.2-0.6 0.4c-1 0.5-1.9 0.9-2.8 1.5-1.1 0.6-4.4 2.6-4.8 3.5z"/>
				<path id="Layer" fill-rule="evenodd" class="s3" d="m21.1 19.9q-0.2 0.3-0.3 0.7-0.2 0.4-0.3 0.8-0.2 0.5-0.3 0.9-0.1 0.4-0.2 0.8-0.1 0.5-0.2 1 0 0.5-0.1 1 0 0.5 0 1 0.1 0.5 0.1 1l0.7 3.5c0.3 0.8 0.5 1.6 0.9 2.5 0.3 0.9 0.7 1.6 1 2.5l1.6 2.6c1.1 1.7 1.9 2.9 3 4.4q1.1 1.3 2.1 2.6 1.1 1.2 2.2 2.5 1.2 1.2 2.4 2.3 1.1 1.2 2.4 2.3l1.9 1.6q1 0.9 2.1 1.7 1 0.8 2.1 1.6 1.1 0.8 2.2 1.6 1.1 0.7 2.2 1.5 1.1 0.7 2.3 1.4 1.1 0.8 2.3 1.4 1.2 0.7 2.4 1.3 1.2 0.7 2.4 1.2 0.6-0.7 1.2-1.5 0.5-0.7 1-1.5 0.5-0.8 1-1.6 0.5-0.8 0.9-1.7-0.5-0.2-1.1-0.4-0.5-0.3-1.1-0.6-0.5-0.3-1.1-0.6-0.5-0.3-1-0.6-1-0.6-2.1-1.2-1-0.6-2-1.3-1-0.6-2-1.3-1-0.7-2-1.4-0.5-0.3-1-0.6-0.5-0.4-0.9-0.7-0.5-0.4-1-0.8-0.4-0.4-0.9-0.8c-2.1-1.1-5.5-4.9-7.6-6.8-0.7-0.6-1.1-1.2-1.7-1.9-3.9-4.1-8-10.2-9.5-15.7q-0.2-0.8-0.4-1.6-0.1-0.8-0.2-1.6-0.1-0.8-0.1-1.6 0.1-0.8 0.2-1.6c0.3-2.6 1.1-3.3 2.2-5.1-0.6 0.3-0.4 0.3-0.8 0.8l-1.5 1.5c-0.3 0.4-0.4 0.5-0.7 0.9-0.5 0.6-0.9 1-1.4 1.7q-0.2 0.2-0.4 0.4-0.1 0.3-0.3 0.5-0.2 0.2-0.3 0.5-0.2 0.2-0.3 0.5z"/>
				<path id="Layer" fill-rule="evenodd" class="s4" d="m47 77c-3.2-1.3-8.4-4.7-11.3-6.7-0.9-0.7-1.7-1.3-2.6-2q-0.9-0.7-1.9-1.4-0.9-0.8-1.8-1.6-0.9-0.7-1.8-1.5-0.9-0.8-1.7-1.7c-4.1-4-9-10-11.1-15.9-1.8-5.2-0.6-6.3-1.2-7.6q0 1.6 0 3.2 0 1.6 0.2 3.2 0.1 1.7 0.3 3.2 0.2 1.6 0.6 3.2 0.8 3.8 2.2 7.4 1.5 3.6 3.6 6.9 2 3.3 4.6 6.2 2.6 2.9 5.7 5.3c8.2 6.6 20.4 10.9 31.8 9.4q0.8-0.1 1.5-0.2 0.8-0.1 1.5-0.3 0.8-0.1 1.5-0.3 0.8-0.1 1.5-0.3c0.8-0.2 4.7-1.2 5.3-1.8q-0.3 0.1-0.6 0.1-0.3 0-0.5 0.1-0.3 0-0.6 0.1-0.3 0-0.6 0.1-0.9 0.2-1.8 0.3-0.9 0.1-1.8 0.2-0.9 0-1.8 0.1-0.9 0-1.8 0-1.2 0-2.4 0-1.3-0.1-2.5-0.2-1.2-0.1-2.4-0.3-1.2-0.2-2.4-0.5c0.2-0.2 1-0.9 1.4-1.2 0.3-0.4 1.2-1.1 1.4-1.4l-2.7-0.9c-0.9-0.3-1.7-0.6-2.6-1l-3.8-1.6c-0.5-0.2-0.8-0.4-1.4-0.6z"/>
				<path id="Layer" fill-rule="evenodd" class="s4" d="m41.8 3.3l1.3-0.3c0.8-0.1 1.7-0.3 2.5-0.4 8-1.2 16.3 0.1 23.8 2.8q1.3 0.5 2.6 1 1.3 0.6 2.5 1.2 1.3 0.7 2.5 1.4 1.2 0.7 2.4 1.4c0.7 0.4 1.2 0.8 1.8 1.3l3.5 2.6q0.8 0.7 1.6 1.4 0.8 0.7 1.6 1.5 0.7 0.7 1.5 1.5 0.7 0.8 1.4 1.6l1.4 1.6q0.8 1.1 1.6 2.2 0.8 1.2 1.5 2.3 0.8 1.2 1.4 2.4 0.7 1.2 1.3 2.5c0.9 2 3 6.9 3.1 9h0.2c0-6.5-3.4-15.8-7.4-21.4l-5.9-6.9c-2-1.5-2.5-2.4-5.5-4.4-10.6-7-23.4-9.6-35.9-6q-0.6 0.2-1.2 0.3-0.6 0.2-1.2 0.4-0.6 0.2-1.2 0.5-0.6 0.2-1.2 0.5z"/>
				<path id="Layer" fill-rule="evenodd" class="s5" d="m26.8 13.1c-1.1 1.8-1.8 2.5-2.2 5.1q-0.1 0.8-0.2 1.6 0 0.8 0.1 1.6 0.1 0.8 0.2 1.6 0.2 0.8 0.4 1.6c1.5 5.5 5.6 11.6 9.5 15.7 0.6 0.7 1 1.3 1.7 1.9 2.1 1.9 5.5 5.7 7.6 6.8q0.1-0.1 0.1-0.3 0.1-0.1 0.2-0.2 0.1-0.2 0.1-0.3 0.1-0.1 0.2-0.2l2.4-2.9-5.5-5.1q-1.1-1-2.2-2.2-1.1-1.1-2.1-2.3-1-1.2-2-2.5-0.9-1.2-1.8-2.5-0.8-1.1-1.4-2.3-0.7-1.1-1.3-2.3-0.6-1.2-1-2.4-0.5-1.3-0.9-2.6c-0.8-3.4-0.9-7 1.2-10q0.1-0.1 0.2-0.2 0.1-0.2 0.2-0.3 0.1-0.1 0.2-0.3 0.1-0.1 0.2-0.2-0.6 0.3-1.1 0.7-0.5 0.3-1 0.8-0.5 0.4-1 0.8-0.4 0.5-0.8 0.9z"/>
				<path id="Layer" fill-rule="evenodd" class="s6" d="m21.4 40c0.3 2.1 5.9 8.5 8 10.8q0.6 0.6 1.2 1.2 0.5 0.6 1.2 1.2 0.6 0.5 1.2 1.1 0.6 0.6 1.3 1.1c0.9 0.8 1.6 1.4 2.5 2.2 0.7 0.6 2.3 1.6 2.5 2.2q0.3 0.2 0.5 0.4 0.3 0.2 0.6 0.3 0.3 0.2 0.5 0.4 0.3 0.2 0.5 0.4c1.9 1.4 4.8 3.2 6.8 4.4 1.6 1 3 1.7 4.8 2.6l3.6 1.8q0.2 0 0.4 0.1 0.1 0.1 0.3 0.2 0.2 0.1 0.3 0.1 0.2 0.1 0.4 0.1c0.6-1.1 1.5-2 2.1-3.1l-4.1-1.9q-1.2-0.5-2.4-1.2-1.2-0.6-2.4-1.3-1.2-0.7-2.3-1.4-1.2-0.7-2.3-1.4-1.1-0.8-2.2-1.5-1.1-0.8-2.2-1.6-1.1-0.8-2.1-1.6-1.1-0.8-2.1-1.7l-1.9-1.6q-1.3-1.1-2.4-2.3-1.2-1.1-2.4-2.3-1.1-1.3-2.2-2.5-1-1.3-2.1-2.6c-1.1-1.5-1.9-2.7-3-4.4-0.7 0.1-0.8 0.3-1.4 0.7q-0.1 0.1-0.3 0.1-0.1 0.1-0.3 0.2-0.1 0.1-0.3 0.2-0.1 0.1-0.3 0.2c0 0 0 0.4 0 0.4z"/>
				<path id="Layer" fill-rule="evenodd" class="s7" d="m14.1 36.2c-0.9 7.9 5 15.6 8.2 19.6 2.8 3.5 4.8 5 7.8 7.9q0.8 0.7 1.7 1.4 0.8 0.7 1.7 1.3 0.8 0.7 1.7 1.4 0.9 0.6 1.8 1.2 0.2-0.2 0.3-0.4 0.1-0.3 0.3-0.5 0.1-0.2 0.2-0.4 0.2-0.2 0.3-0.4c0.5-0.6 0.8-1.2 1.3-1.7l0.1-0.7q-0.6-0.3-1.1-0.7-0.5-0.4-1.1-0.8-0.5-0.3-1-0.8-0.6-0.4-1.1-0.8-1.5-1.2-3-2.5-1.5-1.3-3-2.7-1.4-1.4-2.7-2.9-1.4-1.4-2.6-3-0.9-1-1.7-2.1-0.8-1.1-1.5-2.2-0.8-1.2-1.4-2.3-0.7-1.2-1.3-2.4-0.8-1.4-1.3-2.9-0.5-1.5-0.8-3.1-0.2-1.6-0.2-3.2 0.1-1.6 0.4-3.1-0.1 0.1-0.2 0.3-0.1 0.2-0.2 0.4-0.1 0.2-0.1 0.4-0.1 0.2-0.1 0.4c-0.3 1.3-1.4 4.3-1.4 5.3z"/>
				<path id="Layer" fill-rule="evenodd" class="s8" d="m41.8 3.3l-0.7 0.3c-1.3 1.1-2.9 1.7-4 4.4-3.7 9.2 7.8 21.6 13.8 27q1 0.9 2.2 1.8 1.1 0.9 2.2 1.8 1.1 0.8 2.3 1.6 1.2 0.8 2.4 1.6c0.6 0.5 0.4 0.2 0.4 0.7 1.9 1.2 10.3 5.9 12.8 6.5 0.3-1 0.8-1.7 1-2.8-0.5-0.2-1.1-0.4-1.7-0.7-8.2-3.2-17.4-9.8-23.3-15.7l-3.6-4.1c-0.4-0.5-0.8-0.9-1.2-1.4q-0.5-0.8-1.1-1.6-0.5-0.8-1-1.6-0.5-0.8-0.9-1.6-0.4-0.8-0.8-1.7c-1.6-3.9-3-8.1-0.2-12.3q0.1-0.2 0.2-0.4 0.2-0.2 0.3-0.4 0.2-0.1 0.4-0.3 0.1-0.1 0.3-0.3 0.2-0.1 0.4-0.2 0.2-0.2 0.4-0.3 0.2-0.2 0.4-0.3 0.1-0.2 0.3-0.3c0 0-1.3 0.3-1.3 0.3z"/>
				<path id="Layer" fill-rule="evenodd" class="s2" d="m95 51q-0.8 0.2-1.6 0.4-0.9 0.2-1.7 0.3-0.8 0.1-1.7 0.2-0.8 0.1-1.7 0.1c-1.1 0-1.5-0.2-2.4-0.2-0.2 0.2-1.7 6.9-3 9.5q1.3 0.2 2.6 0.2 1.3 0 2.6-0.1 1.3-0.1 2.5-0.4 1.3-0.2 2.5-0.6 0.5-0.2 1-0.4 0.5-0.2 1-0.5 0.4-0.2 0.8-0.6 0.5-0.3 0.9-0.6 0.2-0.2 0.4-0.3 0.1-0.2 0.3-0.4 0.2-0.1 0.3-0.3 0.2-0.2 0.3-0.4c0.5-0.6 0.8-1.3 1.2-1.8 0 0 0-0.1 0-0.1l0.3-0.5q0 0 0-0.1 0-0.1 0.1-0.2 0-0.1 0-0.1 0-0.1 0-0.2 0.2-0.7 0.4-1.3c0.2-0.9 0.4-1.7 0.6-2.7q0.1-0.7 0.2-1.5 0.1-0.7 0.2-1.5 0.1-0.7 0.1-1.5 0.1-0.7 0-1.5c-0.3 0.8-0.4 1.8-0.8 2.6q-0.2 0.2-0.3 0.5-0.2 0.3-0.3 0.5-0.2 0.3-0.4 0.5-0.2 0.2-0.3 0.5-0.5 0.4-0.9 0.8-0.5 0.3-1 0.7-0.5 0.3-1.1 0.5-0.5 0.3-1.1 0.5z"/>
				<path id="Layer" fill-rule="evenodd" class="s2" d="m16.7 27.9c-0.7 4.8-0.8 6.4 1.4 11.6 2 5 5.1 8.8 8.5 12.6 2.1 2.5 9.1 9.2 11.1 10.1q0.2-0.3 0.4-0.6 0.1-0.3 0.3-0.6 0.2-0.3 0.5-0.6 0.2-0.3 0.4-0.6c-0.2-0.6-1.8-1.6-2.5-2.2-0.9-0.8-1.6-1.4-2.5-2.2q-0.7-0.5-1.3-1.1-0.6-0.6-1.2-1.1-0.7-0.6-1.2-1.2-0.6-0.6-1.2-1.2c-2.1-2.3-7.7-8.7-8-10.8-0.4-0.3-0.3-0.2-0.6-0.7-0.1-0.3-0.2-0.4-0.3-0.8-0.3-0.4-0.5-0.9-0.7-1.4-0.5-1.1-1.6-3.6-1.5-4.8-0.6-0.7-0.6-3.5-0.6-4.3q0.1-0.5 0.1-0.9 0.1-0.5 0.2-0.9 0-0.4 0.1-0.9 0.2-0.4 0.3-0.9-0.2 0.2-0.3 0.4-0.1 0.2-0.2 0.4-0.1 0.2-0.2 0.4-0.1 0.2-0.2 0.4-0.1 0.2-0.3 0.5-0.1 0.2-0.2 0.4-0.1 0.3-0.2 0.5 0 0.2-0.1 0.5z"/>
				<path id="Layer" fill-rule="evenodd" class="s5" d="m82.9 61.3q-1-0.1-1.9-0.3-1-0.1-2-0.3-0.9-0.2-1.9-0.4-0.9-0.2-1.9-0.5l-2.3 4.8c0.9 0.1 2.1 0.5 3.2 0.7q1.4 0.3 2.8 0.5 1.4 0.2 2.8 0.3 1.4 0.1 2.8 0.1 1.4-0.1 2.8-0.2c1.4-0.6 2.8-0.3 5.7-1.8 2.7-1.4 2.8-2.2 4.2-3.6 0.6-0.6 1.2-3 1.6-4q0.1-0.2 0.2-0.4 0.1-0.2 0.1-0.3 0.1-0.2 0.1-0.4 0.1-0.2 0.1-0.4c-0.4 0.5-0.7 1.2-1.2 1.8q-0.1 0.2-0.3 0.4-0.1 0.2-0.3 0.3-0.2 0.2-0.4 0.4-0.1 0.1-0.3 0.3-0.4 0.3-0.9 0.6-0.4 0.3-0.9 0.6-0.4 0.3-0.9 0.5-0.5 0.2-1 0.4-1.2 0.4-2.5 0.6-1.2 0.3-2.5 0.4-1.3 0.1-2.6 0.1-1.3 0-2.6-0.2z"/>
				<path id="Layer" fill-rule="evenodd" class="s5" d="m13.6 38.6c0.6 1.3-0.6 2.4 1.2 7.6 2.1 5.9 7 11.9 11.1 15.9q0.8 0.9 1.7 1.7 0.9 0.8 1.8 1.5 0.9 0.8 1.8 1.6 1 0.7 1.9 1.4c0.9 0.7 1.7 1.3 2.6 2 2.9 2 8.1 5.4 11.3 6.7 0.4-0.5 1-0.8 1.2-1.5q-0.4-0.1-0.8-0.3-0.4-0.1-0.7-0.3-0.4-0.2-0.8-0.4-0.3-0.2-0.7-0.4l-2.8-1.6q-0.7-0.4-1.4-0.8-0.7-0.5-1.3-0.9-0.7-0.4-1.4-0.9-0.6-0.4-1.3-0.9-0.9-0.6-1.8-1.2-0.9-0.7-1.7-1.4-0.9-0.6-1.7-1.3-0.9-0.7-1.7-1.4c-3-2.9-5-4.4-7.7-7.9-3.3-4-9.2-11.7-8.3-19.6 0 0-0.5 2.4-0.5 2.4z"/>
				<path id="Layer" fill-rule="evenodd" class="s5" d="m16.1 29.4q-0.3 1.5-0.4 3.1 0 1.6 0.2 3.2 0.3 1.6 0.8 3.1 0.5 1.5 1.3 2.9 0.6 1.2 1.3 2.4 0.6 1.1 1.4 2.3 0.7 1.1 1.5 2.2 0.8 1.1 1.7 2.1 1.2 1.6 2.6 3 1.3 1.5 2.7 2.9 1.5 1.4 3 2.7 1.5 1.3 3 2.5 0.5 0.4 1.1 0.8 0.5 0.5 1 0.8 0.5 0.4 1.1 0.8 0.5 0.4 1.1 0.7l-0.1 0.7 7.2 4.4c0.6 0.4 1.1 0.6 1.6 0.9 1.1 0.7 2.2 1.1 3.3 1.7 0.8-1.2 0.7-0.7 0.8-1.5-2.1-0.5-13.5-7.6-14.6-8.9-2-0.9-9-7.6-11.2-10.1-3.3-3.8-6.4-7.6-8.5-12.6-2.1-5.2-2-6.8-1.3-11.6q-0.1 0.1-0.2 0.3-0.1 0.2-0.2 0.4-0.1 0.2-0.1 0.4-0.1 0.2-0.1 0.4z"/>
				<path id="Layer" fill-rule="evenodd" class="s7" d="m79.5 77.7c-0.7 0.9-2.8 0.8-4.1 0.8-6.7 0-6-1.5-8 0.5-0.6 0.6-2.3 1.9-2.7 2.4q0.3 0.1 0.5 0.2 0.3 0 0.6 0 0.2 0.1 0.5 0.1 0.3 0.1 0.5 0.1 0.9 0.1 1.8 0.1 0.8 0.1 1.7 0.1 0.8 0 1.7 0 0.9 0 1.7-0.1c0.8-0.3 1.8-0.4 2.7-0.6 0.9-0.2 1.7-0.6 2.6-0.9q0.2-0.1 0.5-0.2 0.3-0.1 0.5-0.2 0.3-0.1 0.5-0.3 0.2-0.2 0.4-0.4c1.1-0.7 5-3.4 5.6-4.2-0.5 0.2-1 0.6-1.5 0.9q-0.3 0.1-0.5 0.2-0.2 0.1-0.4 0.2-0.2 0.1-0.4 0.2-0.3 0-0.5 0.1c-1.2 0.4-2.7 0.6-3.7 1z"/>
				<path id="Layer" fill-rule="evenodd" class="s2" d="m79.5 77.7c1-0.4 2.5-0.6 3.7-1q0.3-0.1 0.5-0.1 0.2-0.1 0.4-0.2 0.2-0.1 0.4-0.2 0.3-0.1 0.5-0.2c0.6-0.3 1-0.7 1.5-0.9q0.2-0.2 0.5-0.3 0.2-0.2 0.4-0.4 0.2-0.2 0.4-0.4 0.2-0.2 0.4-0.4c0.3-0.3 0.3-0.4 0.6-0.8q0.2-0.1 0.3-0.2 0.1-0.1 0.1-0.2 0.1-0.1 0.2-0.2 0.1-0.1 0.2-0.3c-1.2 0.4-4.2 5-18.2 2.7l-2.7-0.5-2.2 2.6c2.8 0.2 3.9 1.1 9.5 1.1z"/>
				<path id="Layer" fill-rule="evenodd" class="s3" d="m87.3 66q-0.1 0.4-0.3 0.8-0.2 0.4-0.4 0.8-0.2 0.4-0.4 0.8-0.2 0.4-0.5 0.8l-1.8 3.1q0.9-0.1 1.8-0.3 0.9-0.2 1.8-0.5 0.9-0.3 1.7-0.7 0.8-0.4 1.6-0.9c0.4-0.3 0.5-0.4 0.8-0.7q0.2-0.1 0.3-0.2 0.1 0 0.2-0.1 0.1-0.1 0.2-0.2 0.1-0.1 0.2-0.2c1.1-1.3 4.3-6.4 4.7-7.9-1.4 1.4-1.5 2.2-4.2 3.6-2.8 1.5-4.3 1.2-5.7 1.8z"/>
				<path id="Layer" fill-rule="evenodd" class="s8" d="m95 51q0.6-0.2 1.1-0.5 0.6-0.2 1.1-0.6 0.5-0.3 1-0.6 0.4-0.4 0.9-0.8 0.1-0.3 0.3-0.5 0.2-0.2 0.4-0.5 0.1-0.2 0.3-0.5 0.1-0.3 0.3-0.5c0.4-0.8 0.5-1.8 0.8-2.6 0.1-0.8 0.3-0.8 0.1-1.9l-0.1-1.7h-0.1q0 0.7-0.1 1.5-0.1 0.7-0.3 1.3-0.2 0.7-0.6 1.4-0.3 0.6-0.7 1.1c-1.2 1.5-2.6 2.1-4.2 2.9q0 0.3 0 0.6 0 0.3 0 0.6 0 0.4-0.1 0.7 0 0.3-0.1 0.6z"/>
				<path id="Layer" fill-rule="evenodd" class="s8" d="m18.3 32.3c-0.1 1.2 1 3.7 1.5 4.8l2.6-1.5c-0.3-0.9-0.7-1.6-1-2.5-0.4-0.9-0.6-1.7-0.9-2.5q-0.2 0.1-0.3 0.2-0.2 0.1-0.3 0.2-0.2 0.1-0.3 0.2-0.1 0.1-0.3 0.3 0 0-0.1 0.1-0.1 0.1-0.1 0.1-0.1 0.1-0.2 0.1 0 0.1-0.1 0.1-0.1 0.1-0.2 0.1 0 0-0.1 0.1-0.1 0-0.1 0.1-0.1 0-0.1 0.1z"/>
				<path id="Layer" fill-rule="evenodd" class="s9" d="m17.7 28c0 0.8 0 3.6 0.6 4.3q0-0.1 0.1-0.1 0-0.1 0.1-0.1 0.1-0.1 0.1-0.1 0.1 0 0.2-0.1 0.1 0 0.1-0.1 0.1 0 0.2-0.1 0 0 0.1-0.1 0.1-0.1 0.1-0.1 0.2-0.2 0.3-0.3 0.1-0.1 0.3-0.2 0.1-0.1 0.3-0.2 0.1-0.1 0.3-0.2l-0.7-3.5c-0.4-0.3-0.5 0-1 0.3q-0.1 0.1-0.2 0.1-0.2 0.1-0.3 0.2-0.1 0.1-0.3 0.2-0.1 0-0.3 0.1z"/>
				<path id="Layer" fill-rule="evenodd" class="s8" d="m19.8 37.1c0.2 0.6 0.4 1 0.7 1.4 0.1 0.4 0.2 0.5 0.3 0.8 0.3 0.5 0.2 0.4 0.6 0.7v-0.4q0.2-0.1 0.3-0.2 0.2-0.1 0.3-0.2 0.2-0.1 0.3-0.2 0.2-0.1 0.3-0.2c0.6-0.3 0.7-0.5 1.4-0.6l-1.6-2.6c0 0-2.6 1.5-2.6 1.5z"/>
				<path id="Layer" fill-rule="evenodd" class="s10" d="m18.4 24.4q-0.1 0.5-0.3 0.9-0.1 0.5-0.1 0.9-0.1 0.4-0.2 0.9 0 0.4-0.1 0.9 0.2-0.1 0.3-0.1 0.2-0.1 0.3-0.2 0.1-0.1 0.3-0.1 0.1-0.1 0.2-0.2c0.5-0.3 0.6-0.6 1-0.3q0-0.5-0.1-1 0-0.5 0-1 0.1-0.5 0.1-1 0.1-0.5 0.2-1 0.1-0.4 0.2-0.8 0.1-0.4 0.3-0.9 0.1-0.4 0.3-0.8 0.1-0.4 0.3-0.7-0.1 0.1-0.2 0.2-0.1 0.1-0.2 0.2-0.1 0.2-0.2 0.3-0.1 0.1-0.1 0.3c-0.3 0.4-0.5 0.7-0.7 1.1q-0.2 0.3-0.4 0.6-0.2 0.3-0.4 0.6-0.1 0.3-0.3 0.6-0.1 0.3-0.2 0.6z"/>
				<path id="Layer" fill-rule="evenodd" class="s5" d="m73.7 81.9l-1.4 0.9q0 0.1 0 0.1 0.4 0 0.9-0.1 0.5 0 1-0.1 0.4-0.1 0.9-0.3 0.5-0.1 0.9-0.3 0.2-0.1 0.4-0.2 0.2 0 0.4-0.1 0.2-0.1 0.4-0.2 0.2-0.1 0.4-0.2c0.3-0.2 0.4-0.3 0.7-0.4 0.6-0.4 0.3 0 0.7-0.6-0.9 0.3-1.7 0.7-2.6 0.9-0.9 0.2-1.9 0.3-2.7 0.6z"/>
				<path id="Layer" fill-rule="evenodd" class="s2" d="m90.4 71.1h0.2l-0.1-0.2z"/>
				<path id="Layer" fill-rule="evenodd" class="s2" d="m89.8 71.8l-0.2 0.1z"/>
				<path id="Layer" fill-rule="evenodd" class="s2" d="m89.9 71.6l-0.1 0.2z"/>
				<path id="Layer" fill-rule="evenodd" class="s2" d="m90.1 71.5l-0.2 0.1z"/>
				<path id="Layer" fill-rule="evenodd" class="s2" d="m90.3 71.3l-0.2 0.2z"/>
				<path id="Layer" fill-rule="evenodd" class="s2" d="m90.4 71.1l-0.1 0.2z"/>
			</g>
			<path id="Layer" class="s11" d="m46.9 123.4v-3.9h2.9v0.5h-2.3v1.2h2.1v0.4h-2.1v1.4h2.4v0.4z"/>
			<path id="Layer" class="s11" d="m50.6 123.4v-3.9h0.5l2 3.1v-3.1h0.5v3.9h-0.5l-2-3v3z"/>
			<path id="Layer" fill-rule="evenodd" class="s11" d="m54.5 123.4v-3.9h1.4q0 0 0.1 0 0.1 0 0.2 0 0.1 0 0.2 0.1 0.1 0 0.2 0 0 0 0.1 0 0.1 0.1 0.2 0.1 0 0 0.1 0.1 0.1 0 0.1 0.1 0.1 0 0.2 0.1 0 0.1 0.1 0.2 0.1 0.1 0.1 0.1 0.1 0.1 0.1 0.2 0 0.1 0.1 0.3 0 0.1 0 0.2 0 0.1 0 0.2 0 0.1 0 0.3 0 0.1 0 0.2 0 0.1 0 0.2 0 0.1 0 0.2 0 0.1-0.1 0.1 0 0.1 0 0.2 0 0.1-0.1 0.1 0 0.1 0 0.2-0.1 0.1-0.1 0.1-0.1 0.1-0.1 0.1 0 0.1-0.1 0.1 0 0.1-0.1 0.1 0 0-0.1 0.1 0 0-0.1 0 0 0.1-0.1 0.1-0.1 0-0.1 0-0.1 0.1-0.1 0.1-0.1 0-0.2 0-0.1 0-0.2 0 0 0-0.1 0-0.1 0-0.2 0h-1.4zm0.5-0.4h0.9q0 0 0.1 0 0.1 0 0.2 0 0.1 0 0.1-0.1 0.1 0 0.2 0 0 0 0.1 0 0 0 0.1-0.1 0 0 0 0 0.1-0.1 0.1-0.1 0.1 0 0.1-0.1 0.1-0.1 0.1-0.1 0-0.1 0.1-0.2 0 0 0-0.1 0-0.1 0.1-0.2 0-0.1 0-0.2 0-0.1 0-0.2 0 0 0-0.1 0-0.2 0-0.3 0-0.1 0-0.2-0.1-0.1-0.1-0.3 0-0.1-0.1-0.2 0-0.1-0.1-0.1 0-0.1-0.1-0.1-0.1-0.1-0.1-0.2-0.1 0-0.2 0-0.1-0.1-0.1-0.1-0.1 0-0.2 0-0.1 0-0.2 0-0.1 0-0.1 0h-0.9c0 0 0 3 0 3z"/>
			<path id="Layer" fill-rule="evenodd" class="s11" d="m58.3 121.5q0-0.2 0-0.4 0-0.2 0.1-0.4 0.1-0.2 0.2-0.4 0.1-0.1 0.2-0.3 0.1-0.1 0.3-0.2 0.2-0.1 0.3-0.2 0.2-0.1 0.4-0.1 0.2 0 0.4 0 0.1 0 0.2 0 0.1 0 0.3 0 0.1 0.1 0.2 0.1 0.1 0.1 0.2 0.1 0.1 0.1 0.2 0.2 0.1 0 0.2 0.1 0.1 0.1 0.2 0.2 0 0.1 0.1 0.2 0.1 0.2 0.1 0.3 0 0.1 0.1 0.2 0 0.2 0 0.3 0 0.2 0 0.3 0 0.1 0 0.3 0 0.1 0 0.2-0.1 0.2-0.1 0.3-0.1 0.1-0.1 0.2-0.1 0.2-0.1 0.3-0.1 0.1-0.2 0.2-0.1 0-0.2 0.1-0.1 0.1-0.2 0.2-0.1 0-0.2 0.1-0.1 0-0.3 0-0.1 0.1-0.2 0.1-0.1 0-0.2 0-0.2 0-0.3 0-0.1 0-0.3-0.1-0.1 0-0.2-0.1-0.1 0-0.2-0.1-0.1 0-0.2-0.1-0.1-0.1-0.2-0.2-0.1-0.1-0.2-0.2 0-0.1-0.1-0.2 0-0.1-0.1-0.2 0-0.1-0.1-0.3 0-0.1 0-0.2 0-0.1 0-0.3zm0.5 0q0 0.2 0 0.3 0.1 0.2 0.1 0.3 0.1 0.2 0.1 0.3 0.1 0.1 0.2 0.2 0.2 0.2 0.4 0.4 0.3 0.1 0.6 0.1 0.2 0 0.5-0.1 0.2-0.2 0.4-0.4 0.1-0.1 0.2-0.2 0.1-0.1 0.1-0.3 0.1-0.1 0.1-0.3 0-0.2 0-0.3 0-0.1 0-0.2 0-0.1 0-0.2-0.1-0.1-0.1-0.2 0-0.1-0.1-0.2 0-0.1-0.1-0.2 0-0.1-0.1-0.2 0 0-0.1-0.1-0.1 0-0.1-0.1-0.1 0-0.2-0.1-0.1 0-0.2 0-0.1-0.1-0.2-0.1 0 0-0.1 0-0.2 0-0.3 0-0.1 0.1-0.2 0.1-0.2 0-0.3 0.1-0.1 0.1-0.2 0.2-0.1 0.1-0.2 0.3-0.1 0.1-0.1 0.3-0.1 0.1-0.1 0.3 0 0.2 0 0.3z"/>
			<path id="Layer" fill-rule="evenodd" class="s11" d="m62.7 123.4v-3.9h1.7q0.1 0 0.2 0 0.1 0 0.2 0 0.1 0.1 0.2 0.1 0.1 0 0.2 0 0.1 0.1 0.2 0.1 0 0 0.1 0.1 0 0 0.1 0.1 0 0 0.1 0.1 0 0.1 0 0.1 0.1 0.1 0.1 0.2 0 0.1 0 0.1 0 0.1 0 0.2 0 0.1 0 0.2 0 0.1 0 0.2-0.1 0.1-0.1 0.1-0.1 0.1-0.1 0.2-0.1 0.1-0.2 0.1-0.1 0.1-0.2 0.1-0.1 0.1-0.2 0.1-0.2 0-0.3 0.1 0.1 0 0.1 0 0 0 0.1 0 0 0.1 0.1 0.1 0 0 0 0.1 0.1 0 0.2 0.1 0 0 0.1 0.1 0 0.1 0.1 0.1 0 0.1 0.1 0.2l0.6 1h-0.6l-0.5-0.8q-0.2-0.3-0.4-0.5 0-0.1-0.1-0.1 0 0 0-0.1 0 0-0.1 0 0 0-0.1-0.1 0 0 0 0 0 0-0.1 0 0 0 0-0.1-0.1 0-0.1 0 0 0-0.1 0 0 0 0 0-0.1 0-0.1 0 0 0-0.1 0h-0.6v1.7c0 0-0.5 0-0.5 0zm0.5-2.2h1.1q0.1 0.1 0.2 0 0 0 0.1 0 0.1 0 0.1 0 0.1 0 0.2 0 0 0 0.1-0.1 0 0 0.1 0 0 0 0-0.1 0.1 0 0.1-0.1 0 0 0 0 0-0.1 0.1-0.1 0-0.1 0-0.1 0-0.1 0-0.1 0-0.1 0-0.1 0-0.1-0.1-0.2 0 0 0-0.1-0.1 0-0.1-0.1-0.1 0-0.2-0.1 0 0-0.1 0-0.1 0-0.2 0-0.1 0-0.2 0h-1.2c0 0 0 1.3 0 1.2z"/>
			<path id="Layer" class="s11" d="m66.5 122.2l0.4-0.1q0.1 0.1 0.1 0.2 0 0 0 0.1 0 0 0 0.1 0.1 0.1 0.1 0.1 0 0.1 0.1 0.1 0 0.1 0.1 0.1 0 0 0.1 0.1 0 0 0.1 0 0.1 0.1 0.1 0.1 0.1 0 0.2 0 0.1 0 0.1 0 0.1 0 0.2 0 0.1 0 0.1 0 0.1 0 0.2 0 0 0 0.1 0 0.1 0 0.1-0.1 0.1 0 0.1 0 0.1 0 0.1 0 0-0.1 0.1-0.1 0-0.1 0.1-0.1 0 0 0-0.1 0 0 0-0.1 0.1 0 0.1 0 0-0.1 0-0.1 0-0.1 0-0.1 0-0.1-0.1-0.1 0 0 0-0.1 0 0 0 0-0.1-0.1-0.1-0.1-0.1-0.1-0.1-0.1 0 0-0.1 0 0-0.1-0.1-0.1-0.1 0-0.2 0-0.1-0.1-0.1-0.1-0.1 0-0.2 0-0.1 0-0.2-0.1-0.1 0-0.2 0-0.1 0-0.2-0.1-0.1 0-0.2 0-0.1-0.1-0.1-0.1-0.1 0-0.2-0.1 0 0-0.1-0.1 0 0-0.1-0.1 0 0-0.1-0.1 0 0 0-0.1 0 0-0.1-0.1 0-0.1 0-0.1 0-0.1 0-0.2 0 0 0-0.1 0-0.1 0-0.2 0.1 0 0.1-0.1 0-0.1 0.1-0.1 0-0.1 0.1-0.1 0-0.1 0.1-0.1 0-0.1 0.1-0.1 0.1-0.1 0.2-0.1 0 0 0.1-0.1 0.1 0 0.2 0 0.1 0 0.2 0 0.1 0 0.2 0 0.1 0 0.2 0 0.1 0 0.2 0 0.1 0 0.2 0 0.1 0.1 0.1 0.1 0.1 0 0.2 0.1 0.1 0 0.1 0.1 0.1 0 0.2 0.1 0 0 0.1 0.1 0 0.1 0 0.2 0.1 0 0.1 0.1 0 0.1 0 0.2 0 0 0 0.1l-0.5 0.1q0-0.1 0-0.2 0-0.1 0-0.1-0.1-0.1-0.1-0.2-0.1 0-0.1-0.1-0.1 0-0.2-0.1-0.1 0-0.1 0-0.1-0.1-0.2-0.1-0.1 0-0.2 0-0.1 0-0.2 0-0.1 0-0.2 0 0 0.1-0.1 0.1-0.1 0-0.2 0.1 0 0-0.1 0.1 0 0 0 0.1-0.1 0-0.1 0.1 0 0 0 0.1 0 0.1 0 0.1 0 0 0 0.1 0.1 0 0.1 0.1 0 0 0 0 0.1 0.1 0.2 0.1 0.1 0.1 0.2 0.1 0.1 0.1 0.2 0.1 0.1 0 0.2 0 0.1 0 0.2 0.1 0.2 0 0.3 0 0.1 0.1 0.2 0.1 0.1 0 0.2 0.1 0.1 0 0.1 0.1 0.1 0 0.2 0 0 0.1 0.1 0.2 0 0 0.1 0.1 0 0 0.1 0.1 0 0.1 0 0.1 0 0.1 0 0.2 0.1 0.1 0.1 0.1 0 0.1-0.1 0.2 0 0.1 0 0.1 0 0.1 0 0.2-0.1 0.1-0.1 0.1-0.1 0.1-0.1 0.1-0.1 0.1-0.1 0.2-0.1 0-0.2 0.1-0.1 0-0.1 0-0.1 0.1-0.2 0.1-0.1 0-0.2 0.1-0.1 0-0.2 0-0.1 0-0.2 0-0.1 0-0.2 0-0.1 0-0.2 0-0.2-0.1-0.3-0.1-0.1 0-0.2-0.1-0.1 0-0.1 0-0.1-0.1-0.2-0.1-0.1-0.1-0.1-0.2-0.1 0-0.1-0.1-0.1-0.1-0.1-0.2-0.1-0.1-0.1-0.2 0 0 0-0.1-0.1-0.1 0-0.2z"/>
			<path id="Layer" class="s11" d="m70.3 123.4v-3.9h2.8v0.5h-2.3v1.2h2.2v0.4h-2.2v1.4h2.4v0.4z"/>
			<path id="Layer" fill-rule="evenodd" class="s11" d="m73.9 123.4v-3.9h1.3q0.1 0 0.2 0 0.1 0 0.2 0 0.1 0 0.2 0.1 0.1 0 0.1 0 0.1 0 0.2 0 0.1 0.1 0.2 0.1 0 0 0.1 0.1 0.1 0 0.1 0.1 0.1 0 0.2 0.1 0 0.1 0.1 0.2 0.1 0.1 0.1 0.1 0 0.1 0.1 0.2 0 0.1 0.1 0.3 0 0.1 0 0.2 0 0.1 0 0.2 0 0.1 0 0.3 0 0.1 0 0.2 0 0.1 0 0.2 0 0.1 0 0.2 0 0.1-0.1 0.1 0 0.1 0 0.2 0 0.1-0.1 0.1 0 0.1 0 0.2-0.1 0.1-0.1 0.1-0.1 0.1-0.1 0.1 0 0.1-0.1 0.1 0 0.1-0.1 0.1 0 0-0.1 0.1 0 0-0.1 0-0.1 0.1-0.1 0.1-0.1 0-0.1 0-0.1 0.1-0.2 0.1 0 0-0.1 0-0.1 0-0.2 0 0 0-0.1 0-0.1 0-0.2 0h-1.4zm0.5-0.4h0.9q0 0 0.1 0 0.1 0 0.2 0 0 0 0.1-0.1 0.1 0 0.2 0 0 0 0.1 0 0 0 0-0.1 0.1 0 0.1 0 0.1-0.1 0.1-0.1 0.1 0 0.1-0.1 0-0.1 0.1-0.1 0-0.1 0-0.2 0.1 0 0.1-0.1 0-0.1 0-0.2 0.1-0.1 0.1-0.2 0-0.1 0-0.2 0 0 0-0.1 0-0.2 0-0.3 0-0.1 0-0.2-0.1-0.1-0.1-0.3 0-0.1-0.1-0.2 0-0.1-0.1-0.1 0-0.1-0.1-0.1-0.1-0.1-0.1-0.2-0.1 0-0.2 0-0.1-0.1-0.2-0.1 0 0-0.1 0-0.1 0-0.2 0-0.1 0-0.2 0h-0.8c0 0 0 3 0 3z"/>
			<path id="Layer" fill-rule="evenodd" class="s11" d="m79.4 123.4v-3.9h1.4q0.1 0 0.2 0 0.1 0 0.1 0 0.1 0 0.2 0 0.1 0.1 0.1 0.1 0.1 0 0.2 0 0 0 0.1 0 0 0.1 0.1 0.1 0.1 0 0.1 0 0.1 0.1 0.1 0.1 0 0.1 0.1 0.1 0 0.1 0.1 0.1 0 0.1 0 0.1 0.1 0.2 0.1 0.4 0.1 0.2 0 0.3 0 0.2-0.1 0.4-0.1 0.2-0.2 0.3-0.1 0.1-0.2 0.2-0.2 0-0.3 0.1-0.2 0-0.3 0-0.2 0.1-0.3 0h-1v1.6c0 0-0.5 0-0.5 0zm0.5-2h1q0.1 0 0.2 0 0.1 0 0.2 0 0-0.1 0.1-0.1 0.1-0.1 0.2-0.1 0-0.1 0.1-0.1 0-0.1 0.1-0.1 0-0.1 0-0.2 0-0.1 0-0.1 0-0.1 0-0.1 0-0.1 0-0.1 0-0.1-0.1-0.2 0 0 0 0 0-0.1-0.1-0.1 0-0.1-0.1-0.1 0 0-0.1 0 0-0.1 0-0.1-0.1 0-0.2 0 0 0-0.1 0 0 0-0.1 0-0.1 0-0.1 0h-1z"/>
			<path id="Layer" fill-rule="evenodd" class="s11" d="m83 123.4v-3.9h1.7q0.1 0 0.2 0 0.1 0 0.2 0 0.1 0.1 0.2 0.1 0.1 0 0.2 0 0.1 0.1 0.2 0.1 0 0 0.1 0.1 0 0 0.1 0.1 0 0 0.1 0.1 0 0.1 0 0.1 0.1 0.1 0.1 0.2 0 0.1 0 0.1 0 0.1 0 0.2 0 0.1 0 0.2 0 0.1 0 0.2-0.1 0.1-0.1 0.1-0.1 0.1-0.1 0.2-0.1 0.1-0.2 0.1-0.1 0.1-0.2 0.1-0.1 0.1-0.2 0.1-0.2 0-0.3 0.1 0.1 0 0.1 0 0 0 0.1 0 0 0.1 0.1 0.1 0 0 0 0.1 0.1 0 0.2 0.1 0 0 0.1 0.1 0 0.1 0.1 0.1 0 0.1 0.1 0.2l0.6 1h-0.6l-0.5-0.8q-0.2-0.3-0.4-0.5 0-0.1-0.1-0.1 0 0 0-0.1 0 0-0.1 0 0 0-0.1-0.1 0 0 0 0 0 0-0.1 0 0 0 0-0.1-0.1 0-0.1 0 0 0-0.1 0 0 0 0 0-0.1 0-0.1 0 0 0-0.1 0h-0.6v1.7c0 0-0.5 0-0.5 0zm0.5-2.2h1.1q0.1 0.1 0.2 0 0 0 0.1 0 0.1 0 0.1 0 0.1 0 0.2 0 0 0 0.1-0.1 0 0 0.1 0 0 0 0-0.1 0.1 0 0.1-0.1 0 0 0 0 0-0.1 0.1-0.1 0-0.1 0-0.1 0-0.1 0-0.1 0-0.1 0-0.1 0-0.1-0.1-0.2 0 0 0-0.1-0.1 0-0.1-0.1-0.1 0-0.2-0.1 0 0-0.1 0-0.1 0-0.2 0-0.1 0-0.1 0h-1.3c0 0 0 1.3 0 1.2z"/>
			<path id="Layer" fill-rule="evenodd" class="s11" d="m86.8 121.5q0-0.2 0-0.4 0-0.2 0.1-0.4 0.1-0.2 0.2-0.4 0.1-0.1 0.2-0.3 0.1-0.1 0.3-0.2 0.1-0.1 0.3-0.2 0.2-0.1 0.4-0.1 0.2 0 0.3 0 0.2 0 0.3 0 0.1 0 0.2 0 0.2 0.1 0.3 0.1 0.1 0.1 0.2 0.1 0.1 0.1 0.2 0.2 0.1 0 0.2 0.1 0.1 0.1 0.2 0.2 0 0.1 0.1 0.2 0 0.2 0.1 0.3 0 0.1 0.1 0.2 0 0.2 0 0.3 0 0.2 0 0.3 0 0.1 0 0.3 0 0.1 0 0.2-0.1 0.2-0.1 0.3-0.1 0.1-0.1 0.2-0.1 0.2-0.2 0.3 0 0.1-0.1 0.2-0.1 0-0.2 0.1-0.1 0.1-0.2 0.2-0.1 0-0.2 0.1-0.2 0-0.3 0-0.1 0.1-0.2 0.1-0.1 0-0.3 0-0.1 0-0.2 0-0.1 0-0.3-0.1-0.1 0-0.2-0.1-0.1 0-0.2-0.1-0.2 0-0.2-0.1-0.1-0.1-0.2-0.2-0.1-0.1-0.2-0.2-0.1-0.1-0.1-0.2-0.1-0.1-0.1-0.2 0-0.1-0.1-0.3 0-0.1 0-0.2 0-0.1 0-0.3zm0.5 0q0 0.2 0 0.3 0 0.2 0.1 0.3 0 0.2 0.1 0.3 0.1 0.1 0.2 0.2 0.2 0.2 0.4 0.4 0.3 0.1 0.5 0.1 0.3 0 0.6-0.1 0.2-0.2 0.4-0.4 0.1-0.1 0.2-0.2 0-0.1 0.1-0.3 0-0.1 0.1-0.3 0-0.2 0-0.3 0-0.1 0-0.2 0-0.1-0.1-0.2 0-0.1 0-0.2 0-0.1-0.1-0.2 0-0.1-0.1-0.2 0-0.1-0.1-0.2 0 0-0.1-0.1-0.1 0-0.2-0.1 0 0-0.1-0.1-0.1 0-0.2 0-0.1-0.1-0.2-0.1-0.1 0-0.2 0-0.1 0-0.2 0-0.1 0.1-0.3 0.1-0.1 0-0.2 0.1-0.1 0.1-0.2 0.2-0.1 0.1-0.2 0.3-0.1 0.1-0.1 0.3-0.1 0.1-0.1 0.3 0 0.2 0 0.3z"/>
			<path id="Layer" class="s11" d="m93 121.9v-0.5h1.7v1.5q-0.1 0.1-0.2 0.1-0.1 0.1-0.2 0.1-0.1 0.1-0.2 0.2-0.1 0-0.2 0-0.1 0.1-0.2 0.1-0.1 0-0.2 0.1-0.1 0-0.3 0-0.1 0-0.2 0-0.1 0-0.2 0-0.2 0-0.3-0.1-0.1 0-0.3 0-0.1-0.1-0.2-0.1-0.1-0.1-0.2-0.2-0.1-0.1-0.2-0.1-0.1-0.1-0.2-0.2-0.1-0.1-0.1-0.3-0.1-0.1-0.1-0.2-0.1-0.1-0.1-0.3 0-0.1 0-0.2-0.1-0.2-0.1-0.3 0-0.1 0.1-0.3 0-0.1 0-0.2 0-0.2 0.1-0.3 0-0.1 0.1-0.3 0-0.1 0.1-0.2 0.1-0.1 0.2-0.2 0-0.1 0.1-0.2 0.2 0 0.3-0.1 0.1-0.1 0.2-0.1 0.1-0.1 0.3-0.1 0.1 0 0.2 0 0.2 0 0.3 0 0.1 0 0.2 0 0.1 0 0.2 0 0.1 0 0.2 0 0.1 0.1 0.2 0.1 0 0 0.1 0.1 0.1 0 0.2 0.1 0 0 0.1 0.1 0 0 0.1 0.1 0 0.1 0.1 0.1 0 0.1 0.1 0.2 0 0.1 0 0.2 0.1 0 0.1 0.1l-0.5 0.1q0 0 0-0.1 0 0-0.1-0.1 0-0.1 0-0.1-0.1-0.1-0.1-0.1 0-0.1-0.1-0.1 0 0-0.1-0.1 0 0-0.1 0 0-0.1-0.1-0.1 0 0-0.1 0-0.1-0.1-0.1-0.1-0.1 0-0.2 0 0 0-0.1 0-0.1 0-0.2 0 0 0-0.1 0-0.1 0-0.2 0.1 0 0-0.1 0-0.1 0-0.1 0.1-0.1 0-0.1 0-0.1 0.1-0.1 0.1-0.1 0.1-0.1 0.1-0.1 0-0.1 0.1 0 0-0.1 0.1 0 0 0 0.1 0 0-0.1 0.1 0 0.1 0 0.2-0.1 0.1-0.1 0.2 0 0.1 0 0.2 0 0.1 0 0.2 0 0.1 0 0.2 0 0.1 0 0.2 0 0.1 0.1 0.2 0 0.1 0.1 0.2 0 0.1 0.1 0.2 0 0.1 0.1 0.2 0 0 0.1 0.1 0.1 0 0.2 0.1 0.1 0 0.2 0 0 0.1 0.1 0.1 0.1 0 0.2 0 0.1 0 0.2 0 0.1 0 0.2 0 0.1 0 0.1 0 0.1 0 0.2 0 0.1-0.1 0.2-0.1 0 0 0.1 0 0.1-0.1 0.1-0.1 0.1 0 0.1-0.1 0.1 0 0.1-0.1v-0.7c0 0-1.1 0-1.1 0z"/>
			<path id="Layer" fill-rule="evenodd" class="s11" d="m95.4 123.4v-3.9h1.8q0.1 0 0.2 0 0.1 0 0.2 0 0.1 0.1 0.2 0.1 0.1 0 0.1 0 0.1 0.1 0.2 0.1 0 0 0.1 0.1 0.1 0 0.1 0.1 0 0 0.1 0.1 0 0.1 0.1 0.1 0 0.1 0 0.2 0 0.1 0 0.1 0 0.1 0 0.2 0 0.1 0 0.2 0 0.1 0 0.2-0.1 0.1-0.1 0.1-0.1 0.1-0.1 0.2-0.1 0.1-0.2 0.1-0.1 0.1-0.2 0.1-0.1 0.1-0.2 0.1-0.1 0-0.3 0.1 0.1 0 0.1 0 0.1 0 0.1 0 0 0.1 0.1 0.1 0 0 0.1 0.1 0 0 0.1 0.1 0 0 0.1 0.1 0 0.1 0.1 0.1 0 0.1 0.1 0.2l0.7 1h-0.7l-0.5-0.8q-0.2-0.3-0.4-0.5 0-0.1 0-0.1-0.1 0-0.1-0.1 0 0-0.1 0 0 0 0-0.1-0.1 0-0.1 0 0 0-0.1 0 0 0 0-0.1 0 0-0.1 0 0 0 0 0-0.1 0-0.1 0-0.1 0-0.1 0 0 0-0.1 0h-0.6v1.7c0 0-0.5 0-0.5 0zm0.5-2.2h1.2q0 0.1 0.1 0 0.1 0 0.1 0 0.1 0 0.2 0 0 0 0.1 0 0.1 0 0.1-0.1 0 0 0.1 0 0 0 0-0.1 0.1 0 0.1-0.1 0 0 0 0 0.1-0.1 0.1-0.1 0-0.1 0-0.1 0-0.1 0-0.1 0-0.1 0-0.1 0-0.1 0-0.2-0.1 0-0.1-0.1 0 0-0.1-0.1-0.1 0-0.1-0.1-0.1 0-0.2 0-0.1 0-0.2 0 0 0-0.1 0h-1.3c0 0 0 1.3 0 1.2z"/>
			<path id="Layer" fill-rule="evenodd" class="s11" d="m98.9 123.4l1.5-3.9h0.6l1.6 3.9h-0.6l-0.5-1.2h-1.6l-0.4 1.2zm1.1-1.6q0 0 0 0zm1.3 0l-0.4-1.1q-0.2-0.4-0.3-0.8 0 0.1 0 0.2 0 0.1-0.1 0.2 0 0.1 0 0.2 0 0.1-0.1 0.2c0 0-0.4 1.1-0.4 1.1z"/>
			<path id="Layer" class="s11" d="m103 123.4v-3.9h0.8l0.9 2.8q0.1 0.4 0.2 0.6 0-0.2 0.2-0.7l0.9-2.7h0.7v3.9h-0.5v-3.2l-1.1 3.2h-0.5l-1.1-3.3v3.3c0 0-0.5 0-0.5 0z"/>
			<path id="Layer" class="s11" d="m107.5 123.4v-3.9h0.8l0.9 2.8q0.1 0.4 0.2 0.6 0.1-0.2 0.2-0.7l1-2.7h0.6v3.9h-0.5v-3.2l-1.1 3.2h-0.5l-1.1-3.3v3.3c0 0-0.5 0-0.5 0z"/>
			<path id="Layer" class="s11" d="m112.1 123.4v-3.9h2.8v0.5h-2.3v1.2h2.2v0.4h-2.2v1.4h2.4v0.4z"/>
		</g>
	</g>
</svg>