<svg xmlns="http://www.w3.org/2000/svg" width="96.23" height="24.228" viewBox="0 0 96.23 24.228"><g transform="translate(-1096.11 -281.438)"><g transform="translate(1128.794 301.888)"><g transform="translate(0 0)"><path d="M448.9,401.718h-.682l-.27-.712H446.69l-.26.712h-.67l1.214-3.129h.669l1.253,3.129Zm-1.158-1.241-.435-1.158-.423,1.158Z" transform="translate(-445.76 -398.532)" fill="#fff"/><path d="M503.295,399.682l.612.188a1.387,1.387,0,0,1-.469.768,1.329,1.329,0,0,1-.831.25,1.346,1.346,0,0,1-1.025-.426,1.633,1.633,0,0,1-.4-1.165,1.712,1.712,0,0,1,.4-1.214,1.381,1.381,0,0,1,1.061-.432,1.3,1.3,0,0,1,.932.34,1.231,1.231,0,0,1,.321.578l-.625.149a.646.646,0,0,0-.66-.524.712.712,0,0,0-.565.25,1.218,1.218,0,0,0-.217.808,1.311,1.311,0,0,0,.213.844.694.694,0,0,0,.555.252.635.635,0,0,0,.434-.16.931.931,0,0,0,.261-.5Z" transform="translate(-497.82 -397.649)" fill="#fff"/><path d="M555.335,399.682l.612.188a1.386,1.386,0,0,1-.469.768,1.329,1.329,0,0,1-.831.25,1.346,1.346,0,0,1-1.025-.426,1.632,1.632,0,0,1-.4-1.165,1.712,1.712,0,0,1,.4-1.214,1.382,1.382,0,0,1,1.061-.432,1.3,1.3,0,0,1,.933.34,1.234,1.234,0,0,1,.321.578l-.625.149a.646.646,0,0,0-.66-.524.711.711,0,0,0-.565.25,1.218,1.218,0,0,0-.217.808,1.312,1.312,0,0,0,.213.844.694.694,0,0,0,.555.252.634.634,0,0,0,.434-.16.931.931,0,0,0,.261-.5Z" transform="translate(-546.705 -397.649)" fill="#fff"/><path d="M607.14,401.718V398.59h1.331a2.288,2.288,0,0,1,.729.084.72.72,0,0,1,.365.3.9.9,0,0,1,.137.493.836.836,0,0,1-.206.582.991.991,0,0,1-.617.289,1.437,1.437,0,0,1,.337.262,3.614,3.614,0,0,1,.358.509l.381.61H609.2l-.453-.683a4.316,4.316,0,0,0-.334-.459.49.49,0,0,0-.19-.13,1.05,1.05,0,0,0-.32-.035h-.128v1.307h-.634Zm.633-1.8h.468a2.4,2.4,0,0,0,.567-.039.338.338,0,0,0,.177-.133.406.406,0,0,0,.064-.235.379.379,0,0,0-.084-.255.385.385,0,0,0-.238-.122c-.052-.007-.206-.011-.461-.011h-.493v.795Z" transform="translate(-597.356 -398.532)" fill="#fff"/><path d="M659.18,401.718V398.59H661.5v.529h-1.682v.695h1.564v.529h-1.564v.848h1.744v.529Z" transform="translate(-646.24 -398.532)" fill="#fff"/><path d="M707.231,398.59h1.152a2.24,2.24,0,0,1,.594.059,1.041,1.041,0,0,1,.471.289,1.349,1.349,0,0,1,.3.507,2.319,2.319,0,0,1,.1.739,2.047,2.047,0,0,1-.1.666,1.369,1.369,0,0,1-.334.553,1.1,1.1,0,0,1-.443.25,1.9,1.9,0,0,1-.558.066H707.23V398.59Zm.634.529v2.071h.47a1.746,1.746,0,0,0,.38-.03.573.573,0,0,0,.254-.13.654.654,0,0,0,.165-.3,2.015,2.015,0,0,0,.065-.573,1.847,1.847,0,0,0-.065-.557.715.715,0,0,0-.178-.3.6.6,0,0,0-.291-.147,2.888,2.888,0,0,0-.516-.03h-.283Z" transform="translate(-691.377 -398.532)" fill="#fff"/><path d="M758.93,401.718V398.59h.634v3.129Z" transform="translate(-739.943 -398.532)" fill="#fff"/><path d="M776.566,401.718v-2.6h-.926v-.529h2.482v.529H777.2v2.6Z" transform="translate(-755.64 -398.532)" fill="#fff"/><path d="M823.34,401.718V398.59h2.316v.529h-1.682v.695h1.564v.529h-1.564v.848h1.743v.529Z" transform="translate(-800.448 -398.532)" fill="#fff"/><path d="M871.381,398.59h1.152a2.239,2.239,0,0,1,.594.059,1.039,1.039,0,0,1,.471.289,1.348,1.348,0,0,1,.3.507,2.317,2.317,0,0,1,.1.739,2.049,2.049,0,0,1-.1.666,1.373,1.373,0,0,1-.334.553,1.1,1.1,0,0,1-.443.25,1.9,1.9,0,0,1-.558.066H871.38V398.59Zm.633.529v2.071h.47a1.748,1.748,0,0,0,.38-.03.571.571,0,0,0,.254-.13.653.653,0,0,0,.165-.3,2.021,2.021,0,0,0,.064-.573,1.852,1.852,0,0,0-.064-.557.715.715,0,0,0-.178-.3.6.6,0,0,0-.291-.147,2.89,2.89,0,0,0-.516-.03h-.282Z" transform="translate(-845.575 -398.532)" fill="#fff"/><path d="M940.721,399.812l.616-.061a.744.744,0,0,0,.224.453.678.678,0,0,0,.456.145.7.7,0,0,0,.458-.129.385.385,0,0,0,.154-.3.286.286,0,0,0-.065-.189.512.512,0,0,0-.226-.135q-.111-.039-.5-.137a1.7,1.7,0,0,1-.71-.311.83.83,0,0,1-.152-1.08.848.848,0,0,1,.39-.318,1.549,1.549,0,0,1,.614-.109,1.3,1.3,0,0,1,.883.261.925.925,0,0,1,.312.7l-.634.022a.539.539,0,0,0-.173-.348.629.629,0,0,0-.4-.106.708.708,0,0,0-.428.113.231.231,0,0,0-.1.2.239.239,0,0,0,.094.19,1.632,1.632,0,0,0,.579.21,3.025,3.025,0,0,1,.679.225.871.871,0,0,1,.345.318.986.986,0,0,1-.025,1,.888.888,0,0,1-.422.349,1.766,1.766,0,0,1-.681.115,1.351,1.351,0,0,1-.91-.274,1.187,1.187,0,0,1-.38-.8Z" transform="translate(-910.711 -397.64)" fill="#fff"/><path d="M988.8,401.718v-2.6h-.926v-.529h2.481v.529h-.922v2.6Z" transform="translate(-955.002 -398.532)" fill="#fff"/><path d="M1035.55,398.59h.633v1.7a3.6,3.6,0,0,0,.023.523.509.509,0,0,0,.191.309.663.663,0,0,0,.414.116.625.625,0,0,0,.4-.11.432.432,0,0,0,.163-.27,3.612,3.612,0,0,0,.027-.532V398.59h.634v1.645a4.239,4.239,0,0,1-.051.8.89.89,0,0,1-.188.393.941.941,0,0,1-.366.255,1.6,1.6,0,0,1-.6.1,1.718,1.718,0,0,1-.677-.1.982.982,0,0,1-.365-.269.855.855,0,0,1-.176-.347,3.794,3.794,0,0,1-.062-.794v-1.67Z" transform="translate(-999.791 -398.532)" fill="#fff"/><path d="M1087.591,398.59h1.152a2.24,2.24,0,0,1,.594.059,1.038,1.038,0,0,1,.471.289,1.343,1.343,0,0,1,.3.507,2.3,2.3,0,0,1,.1.739,2.055,2.055,0,0,1-.1.666,1.37,1.37,0,0,1-.334.553,1.1,1.1,0,0,1-.443.25,1.9,1.9,0,0,1-.558.066h-1.186V398.59Zm.634.529v2.071h.47a1.747,1.747,0,0,0,.38-.03.57.57,0,0,0,.254-.13.651.651,0,0,0,.165-.3,2.026,2.026,0,0,0,.064-.573,1.857,1.857,0,0,0-.064-.557.717.717,0,0,0-.178-.3.6.6,0,0,0-.291-.147,2.884,2.884,0,0,0-.516-.03h-.283Z" transform="translate(-1048.676 -398.532)" fill="#fff"/><path d="M1135.436,401.718V400.4l-1.146-1.812h.74l.74,1.239.72-1.239h.727l-1.147,1.816v1.313Z" transform="translate(-1092.545 -398.532)" fill="#fff"/><path d="M1206.685,399.682l.612.188a1.386,1.386,0,0,1-.469.768,1.329,1.329,0,0,1-.831.25,1.346,1.346,0,0,1-1.025-.426,1.633,1.633,0,0,1-.4-1.165,1.713,1.713,0,0,1,.4-1.214,1.382,1.382,0,0,1,1.061-.432,1.3,1.3,0,0,1,.933.34,1.232,1.232,0,0,1,.321.578l-.625.149a.646.646,0,0,0-.66-.524.712.712,0,0,0-.565.25,1.218,1.218,0,0,0-.217.808,1.31,1.31,0,0,0,.214.844.693.693,0,0,0,.555.252.634.634,0,0,0,.434-.16.928.928,0,0,0,.261-.5Z" transform="translate(-1158.564 -397.649)" fill="#fff"/><path d="M1258.49,401.718V398.59h2.315v.529h-1.682v.695h1.564v.529h-1.564v.848h1.743v.529Z" transform="translate(-1209.215 -398.532)" fill="#fff"/><path d="M1306.55,401.718V398.59h.613l1.287,2.1v-2.1h.586v3.129h-.633l-1.268-2.057v2.057Z" transform="translate(-1254.361 -398.532)" fill="#fff"/><path d="M1355.856,401.718v-2.6h-.926v-.529h2.481v.529h-.922v2.6Z" transform="translate(-1299.807 -398.532)" fill="#fff"/><path d="M1402.62,401.718V398.59h1.331a2.287,2.287,0,0,1,.729.084.721.721,0,0,1,.365.3.9.9,0,0,1,.137.493.836.836,0,0,1-.206.582.991.991,0,0,1-.617.289,1.435,1.435,0,0,1,.336.262,3.57,3.57,0,0,1,.359.509l.381.61h-.755l-.453-.683a4.361,4.361,0,0,0-.334-.459.49.49,0,0,0-.19-.13,1.049,1.049,0,0,0-.319-.035h-.128v1.307h-.634Zm.633-1.8h.468a2.406,2.406,0,0,0,.567-.039.338.338,0,0,0,.177-.133.406.406,0,0,0,.064-.235.379.379,0,0,0-.084-.255.386.386,0,0,0-.238-.122c-.051-.007-.206-.011-.46-.011h-.493v.795Z" transform="translate(-1344.606 -398.532)" fill="#fff"/><path d="M1454.661,401.718V398.59h2.316v.529h-1.682v.695h1.564v.529h-1.564v.848h1.743v.529Z" transform="translate(-1393.491 -398.532)" fill="#fff"/></g></g><g transform="translate(1096.11 281.438)"><g transform="translate(0 0)"><path d="M784.9,1541.4c1.907,0,1.33.474,2.558-2.585.128-.318.246-.717.381-1H792.8l1.036,2.822c.374.957.068.76,2.363.76-.012-.531-2.115-5.473-2.361-6.088l-2.414-6.035h-1.469c-.135.254-.2.479-.337.765l-4.911,11.084c-.036.151-.126.273.2.273Zm3.487-5.164h4.3l-2.151-4.821-2.151,4.821Z" transform="translate(-726.268 -1526.76)" fill="#fff" fill-rule="evenodd"/><path d="M7.425,1534.985a7.528,7.528,0,0,0-.6-.646c-.215-.216-.371-.434-.552-.621a4.26,4.26,0,0,1-2.929-1.406,6.09,6.09,0,0,1-.453-6.679,3.954,3.954,0,0,1,2.56-1.756c4.389-.983,6.526,3.2,5.268,6.829a4.068,4.068,0,0,1-1.942,2.442,4.615,4.615,0,0,0,1.079.923,6.02,6.02,0,0,0,2.863-3.112,6.252,6.252,0,0,0-.136-4.946,6.738,6.738,0,0,0-8.2-3.21,6.308,6.308,0,0,0-3.433,2.537,6.522,6.522,0,0,0-.755,4.891,5.674,5.674,0,0,0,2.342,3.628,6.51,6.51,0,0,0,2.126.9,11.756,11.756,0,0,0,2.766.221Z" transform="translate(31.604 -1520.159)" fill="#fff" fill-rule="evenodd"/><path d="M449.76,1536.376a4.4,4.4,0,0,0,1.4,3.377c1.8,1.685,8.8,2.24,8.8-3.836v-7.072c0-.423-.516-.275-1.561-.275-.434,0-.276.713-.275,1.469v5.235c0,1.419.072,2.05-.5,2.995-1.107,1.842-4.447,1.742-5.438.092a5.856,5.856,0,0,1-.587-2.994v-6.8h-1.837v7.807Z" transform="translate(-402.79 -1526.051)" fill="#fff" fill-rule="evenodd"/><path d="M1572.06,1529.555v11.572c0,.431.564.276,1.653.276.211,0,.275-.064.275-.276v-4.775h4.316c.4,0,.275-.389.275-1.286h-4.592v-4.5h4.408c.375,0,.276-.288.276-1.011,0-.211-.064-.275-.276-.275h-6.061c-.211,0-.276.064-.276.275Z" transform="translate(-1486.793 -1526.76)" fill="#fff" fill-rule="evenodd"/><path d="M1165.66,1540.158c0,.211.064.275.275.275h6.8c.4,0,.276-.389.276-1.286h-5.419v-10.562c0-.453-.724-.275-1.929-.275v11.848Z" transform="translate(-1094.26 -1525.791)" fill="#fff" fill-rule="evenodd"/><path d="M1835.82,1540.158c0,.431.565.276,1.653.276.212,0,.276-.064.276-.276v-11.572c0-.453-.724-.276-1.929-.276Z" transform="translate(-1741.552 -1525.791)" fill="#fff" fill-rule="evenodd"/><path d="M1429.43,1541.4h1.837V1529.28h-1.837Z" transform="translate(-1349.03 -1526.76)" fill="#fff" fill-rule="evenodd"/><path d="M182.98,1814.43c.015.015.04.014.047.04l.635.272a13.549,13.549,0,0,0,2.672.543,20.405,20.405,0,0,0,8.99-1.445c.291-.111.532-.212.773-.329l.572-.255a.543.543,0,0,0,.163-.112c-.907.075-4.7,2.05-9.821,1a16.454,16.454,0,0,1-2.839-1,6.452,6.452,0,0,0-.744-.463,5.452,5.452,0,0,1-.739-.543,4.618,4.618,0,0,1-1.079-.922c-.426-.245-1.06-.931-1.652-.876a1.311,1.311,0,0,0-.79.482c-.363.4-.167.464-.061.964.181.188.337.406.552.621a7.349,7.349,0,0,1,.6.646,2.989,2.989,0,0,1,.657.4,6.677,6.677,0,0,0,.641.369A4.9,4.9,0,0,0,182.98,1814.43Z" transform="translate(-141.23 -1798.226)" fill="#fff" fill-rule="evenodd"/><path d="M463.66,61.506a1.79,1.79,0,0,1-.216.3,3.323,3.323,0,0,0-.324,2.793,8.843,8.843,0,0,0,1.269,2.659,15.913,15.913,0,0,0,2.265,2.671l1.521,1.4,1.078.795a9.034,9.034,0,0,0,1.16.758c.258-.385.506-.758.768-1.151l.765-1.133c-.006-.142.068-.053-.115-.183a24.051,24.051,0,0,1-2.541-1.893c-1.667-1.5-4.864-4.962-3.829-7.536a2.73,2.73,0,0,1,1.1-1.214,3.587,3.587,0,0,0-.788.339c-.268.161-.5.256-.77.418a6.486,6.486,0,0,0-1.342.979Z" transform="translate(-458.901 -58.756)" fill="#fff" fill-rule="evenodd"/><path d="M324.572,217.753a5.15,5.15,0,0,0-.322.9,3.817,3.817,0,0,0-.042,1.116l.185.985c.092.219.155.451.249.683.1.25.217.456.3.7l.422.728c.31.479.536.8.86,1.237a19.815,19.815,0,0,0,2.523,2.685l.541.464a24.833,24.833,0,0,0,2.386,1.771,21.805,21.805,0,0,0,2.637,1.5,13.259,13.259,0,0,0,1.142-1.759,7.84,7.84,0,0,1-1.207-.62,23.289,23.289,0,0,1-2.258-1.442,8.867,8.867,0,0,1-1.058-.815,16.61,16.61,0,0,1-2.128-1.892c-.185-.165-.3-.345-.476-.53a11.763,11.763,0,0,1-2.645-4.389,4.381,4.381,0,0,1-.148-1.779,3.137,3.137,0,0,1,.613-1.415c-.145.083-.112.074-.215.209l-.4.419c-.1.107-.113.148-.205.251-.149.167-.255.286-.4.472a3.559,3.559,0,0,0-.355.523Z" transform="translate(-322.481 -212.216)" fill="#fff" fill-rule="evenodd"/><path d="M233.019,645.381a21.762,21.762,0,0,1-3.148-1.861c-.273-.187-.5-.358-.736-.542a23.847,23.847,0,0,1-2.017-1.729,13.276,13.276,0,0,1-3.087-4.451,7.355,7.355,0,0,1-.331-2.107,15.292,15.292,0,0,0,.292,3.563,12.537,12.537,0,0,0,4.5,7.2,12.244,12.244,0,0,0,8.882,2.611,13.523,13.523,0,0,0,1.667-.3,7.507,7.507,0,0,0,1.471-.493,4.89,4.89,0,0,0-.626.1,13.265,13.265,0,0,1-2.023.17,12.339,12.339,0,0,1-2.7-.274c.055-.074.278-.254.377-.354s.346-.3.4-.377l-.757-.248c-.261-.1-.472-.171-.731-.274l-1.055-.452c-.147-.068-.224-.121-.381-.184Z" transform="translate(-223.7 -623.917)" fill="#fff" fill-rule="evenodd"/><path d="M686.59.919l.366-.086c.212-.015.468-.082.7-.117a13.938,13.938,0,0,1,6.622.786,15.6,15.6,0,0,1,2.8,1.407c.194.118.341.224.515.353l.961.73a15.069,15.069,0,0,1,1.707,1.673l.374.448a14.966,14.966,0,0,1,1.638,2.611,10.7,10.7,0,0,1,.855,2.525h.046a11.937,11.937,0,0,0-2.056-5.984l-1.651-1.912a13.966,13.966,0,0,0-1.51-1.231A12.031,12.031,0,0,0,687.941.449,7.383,7.383,0,0,0,686.59.919Z" transform="translate(-678.733 -0.003)" fill="#fff" fill-rule="evenodd"/><path d="M402.105,162.964a3.138,3.138,0,0,0-.613,1.415,4.381,4.381,0,0,0,.148,1.779,11.762,11.762,0,0,0,2.645,4.389c.173.186.29.365.476.53a16.636,16.636,0,0,0,2.128,1.892.743.743,0,0,1,.176-.281l.647-.815-1.521-1.4a15.912,15.912,0,0,1-2.265-2.671,8.848,8.848,0,0,1-1.269-2.659,3.324,3.324,0,0,1,.324-2.793,1.816,1.816,0,0,0,.216-.3A5.009,5.009,0,0,0,402.105,162.964Z" transform="translate(-398.439 -159.3)" fill="#fff" fill-rule="evenodd"/><path d="M351.36,627.985a12.921,12.921,0,0,0,2.236,3,14.23,14.23,0,0,0,1.353,1.3c.25.21.449.4.708.616.207.173.649.45.7.616.222.134.386.264.595.418.51.376,1.336.886,1.889,1.217.448.268.847.483,1.331.725l1.016.491a2.141,2.141,0,0,0,.385.163c.161-.3.429-.557.594-.868l-1.142-.525a21.811,21.811,0,0,1-2.637-1.5A24.836,24.836,0,0,1,356,631.866l-.541-.464a19.791,19.791,0,0,1-2.523-2.685c-.325-.433-.55-.758-.86-1.237-.187.027-.209.073-.369.184a2.8,2.8,0,0,1-.345.2l0,.121Z" transform="translate(-349.193 -616.829)" fill="#fff" fill-rule="evenodd"/><path d="M230.464,484.239c-.267,2.2,1.384,4.335,2.293,5.466a18.966,18.966,0,0,0,2.156,2.184,18.777,18.777,0,0,0,1.941,1.488,3.236,3.236,0,0,1,.307-.471c.129-.172.21-.325.342-.49l.04-.17a10.9,10.9,0,0,1-1.194-.878,20.216,20.216,0,0,1-3.171-3.087,12.543,12.543,0,0,1-1.631-2.528,5.038,5.038,0,0,1-.538-3.432,1.276,1.276,0,0,0-.159.437,8.974,8.974,0,0,0-.385,1.481Z" transform="translate(-230.321 -474.133)" fill="#fff" fill-rule="evenodd"/><path d="M599.767,49l-.2.1a2.73,2.73,0,0,0-1.1,1.214c-1.035,2.574,2.163,6.034,3.829,7.536a24.032,24.032,0,0,0,2.541,1.893c.183.13.108.041.115.183a22.285,22.285,0,0,0,3.584,1.827c.067-.287.207-.489.274-.777-.145-.069-.324-.13-.49-.2a21.17,21.17,0,0,1-6.489-4.384l-1.01-1.137c-.114-.144-.207-.263-.319-.412a9.2,9.2,0,0,1-1.077-1.8c-.451-1.083-.831-2.257-.054-3.428a1.2,1.2,0,0,1,.347-.384,2.5,2.5,0,0,0,.412-.32l-.365.086Z" transform="translate(-591.91 -48.08)" fill="#fff" fill-rule="evenodd"/><path d="M1365.53,723.561a6.038,6.038,0,0,1-1.874.282c-.306,0-.418-.046-.685-.046a19.347,19.347,0,0,1-.822,2.653,6.51,6.51,0,0,0,2.852-.258,3.163,3.163,0,0,0,1.017-.581,1.981,1.981,0,0,0,.379-.4c.119-.149.2-.346.32-.5.006-.01.015-.037.017-.03l.059-.126a1.439,1.439,0,0,0,.052-.176c.036-.134.065-.256.092-.365.063-.255.116-.481.166-.748a8.223,8.223,0,0,0,.163-1.669c-.106.207-.137.5-.247.715a3.383,3.383,0,0,1-.362.554,2.829,2.829,0,0,1-1.126.692Z" transform="translate(-1342.826 -709.352)" fill="#fff" fill-rule="evenodd"/><path d="M267.317,402.549a4.71,4.71,0,0,0,.376,3.238,12.715,12.715,0,0,0,2.369,3.523,19.541,19.541,0,0,0,3.108,2.8,4.237,4.237,0,0,1,.449-.653c-.052-.166-.493-.444-.7-.616-.259-.216-.457-.406-.707-.616a14.246,14.246,0,0,1-1.353-1.3,12.919,12.919,0,0,1-2.236-3c-.1-.073-.08-.047-.154-.185-.047-.089-.056-.127-.1-.22-.066-.137-.135-.25-.19-.391a4.444,4.444,0,0,1-.425-1.354,3.075,3.075,0,0,1-.153-1.2,4.69,4.69,0,0,1,.186-.987,1.91,1.91,0,0,0-.249.442,1.706,1.706,0,0,0-.219.518Z" transform="translate(-266.455 -394.774)" fill="#fff" fill-rule="evenodd"/><path d="M1200.747,906.806a17.554,17.554,0,0,1-2.147-.414l-.64,1.325c.26.022.6.143.895.2a9.279,9.279,0,0,0,3.126.193,6.815,6.815,0,0,0,1.591-.492,3.234,3.234,0,0,0,1.15-1.01,4.994,4.994,0,0,0,.47-1.117,1.456,1.456,0,0,0,.123-.421c-.12.152-.2.349-.32.5a1.988,1.988,0,0,1-.379.4,3.168,3.168,0,0,1-1.017.581,6.508,6.508,0,0,1-2.852.258Z" transform="translate(-1181.423 -889.708)" fill="#fff" fill-rule="evenodd"/><path d="M223.69,596.047a7.368,7.368,0,0,0,.331,2.107,13.279,13.279,0,0,0,3.087,4.451,23.835,23.835,0,0,0,2.016,1.729c.24.185.463.355.736.542a21.8,21.8,0,0,0,3.148,1.861c.11-.126.271-.211.32-.395a4.986,4.986,0,0,1-.831-.4l-.782-.451a17.476,17.476,0,0,1-1.493-.972,18.767,18.767,0,0,1-1.941-1.488,18.991,18.991,0,0,1-2.156-2.184c-.908-1.132-2.56-3.268-2.293-5.466l-.143.667Z" transform="translate(-223.69 -585.274)" fill="#fff" fill-rule="evenodd"/><path d="M258.815,458.521a5.038,5.038,0,0,0,.538,3.432,12.539,12.539,0,0,0,1.631,2.528,20.209,20.209,0,0,0,3.171,3.087,10.855,10.855,0,0,0,1.194.878l-.04.17,2.027,1.253c.16.095.288.154.439.246.294.179.6.307.9.466.226-.338.21-.192.229-.411a22.051,22.051,0,0,1-4.066-2.5,19.548,19.548,0,0,1-3.108-2.8,12.713,12.713,0,0,1-2.369-3.523,4.709,4.709,0,0,1-.376-3.238.892.892,0,0,0-.174.411Z" transform="translate(-258.127 -450.334)" fill="#fff" fill-rule="evenodd"/><path d="M1067.5,1234.157c-.193.248-.776.219-1.142.219-1.846,0-1.655-.429-2.227.148-.169.171-.637.516-.742.674a4.849,4.849,0,0,0,.59.1,12.621,12.621,0,0,0,1.923.041c.217-.082.494-.115.736-.177.27-.069.482-.172.726-.247a1.216,1.216,0,0,0,.549-.307,12.85,12.85,0,0,0,1.553-1.185c-.153.065-.267.166-.432.254a3.424,3.424,0,0,1-.482.207c-.333.117-.773.172-1.051.276Z" transform="translate(-1049.137 -1212.484)" fill="#fff" fill-rule="evenodd"/><path d="M1096.609,1183.7c.278-.1.718-.159,1.051-.276a3.485,3.485,0,0,0,.482-.207c.165-.088.279-.189.432-.254a1.875,1.875,0,0,0,.469-.4c.1-.1.1-.127.184-.227a2.37,2.37,0,0,0,.215-.242c-.331.089-1.171,1.389-5.084.744l-.764-.15-.594.731a14.122,14.122,0,0,0,2.65.32Z" transform="translate(-1078.245 -1162.026)" fill="#fff" fill-rule="evenodd"/><path d="M1379.249,997.212a4.582,4.582,0,0,1-.448.894l-.512.859a4.347,4.347,0,0,0,1.933-.671c.092-.068.14-.112.229-.182a1.5,1.5,0,0,0,.247-.21,9.757,9.757,0,0,0,1.291-2.191,3.228,3.228,0,0,1-1.15,1.01,6.793,6.793,0,0,1-1.59.492Z" transform="translate(-1358.692 -978.809)" fill="#fff" fill-rule="evenodd"/><path d="M1561.3,665.582a2.83,2.83,0,0,0,1.127-.692,3.392,3.392,0,0,0,.362-.554c.11-.217.141-.508.247-.715.005-.238.073-.226.027-.523l-.027-.477h-.046a2.2,2.2,0,0,1-.482,1.483,3,3,0,0,1-1.162.8,1.866,1.866,0,0,1-.046.678Z" transform="translate(-1538.596 -651.373)" fill="#fff" fill-rule="evenodd"/><path d="M300.071,503.585a4.443,4.443,0,0,0,.424,1.354l.741-.436c-.085-.244-.2-.45-.3-.7-.094-.232-.157-.464-.249-.683a.973.973,0,0,0-.317.236.8.8,0,0,1-.154.125A.826.826,0,0,0,300.071,503.585Z" transform="translate(-298.774 -494.58)" fill="#fff" fill-rule="evenodd"/><path d="M291.052,443.557a3.072,3.072,0,0,0,.153,1.2.823.823,0,0,1,.143-.1.8.8,0,0,0,.154-.126.974.974,0,0,1,.317-.236l-.185-.985c-.125-.07-.132-.008-.267.078a1.32,1.32,0,0,1-.316.171Z" transform="translate(-289.908 -435.754)" fill="#fff" fill-rule="evenodd"/><path d="M325.13,585.026c.054.141.124.254.19.391.045.093.054.132.1.22.074.138.056.113.154.185l0-.121a2.789,2.789,0,0,0,.345-.2c.159-.11.182-.156.369-.184l-.422-.728-.741.436Z" transform="translate(-323.408 -574.667)" fill="#fff" fill-rule="evenodd"/><path d="M291.276,327.519a4.689,4.689,0,0,0-.186.987,1.318,1.318,0,0,0,.315-.171c.136-.086.142-.148.268-.078a3.822,3.822,0,0,1,.042-1.116,5.184,5.184,0,0,1,.322-.9,1.027,1.027,0,0,0-.2.288c-.072.124-.127.2-.2.3a2.55,2.55,0,0,0-.36.686Z" transform="translate(-289.946 -320.703)" fill="#fff" fill-rule="evenodd"/><path d="M1187.611,1321.724l-.386.254-.026.02a3.186,3.186,0,0,0,1.044-.235,2.738,2.738,0,0,0,.445-.2c.09-.055.117-.071.2-.116.174-.093.087,0,.181-.152-.244.074-.456.177-.726.247a7.5,7.5,0,0,0-.736.177Z" transform="translate(-1170.846 -1298.873)" fill="#fff" fill-rule="evenodd"/><path d="M1485.95,1165.543H1486l-.038-.053Z" transform="translate(-1464.525 -1145.708)" fill="#fff" fill-rule="evenodd"/><path d="M1472.536,1179.4l-.046.046Z" transform="translate(-1451.293 -1159.381)" fill="#fff" fill-rule="evenodd"/><path d="M1475.226,1176.71l-.046.046Z" transform="translate(-1453.938 -1156.737)" fill="#fff" fill-rule="evenodd"/><path d="M1477.916,1174.01l-.046.046Z" transform="translate(-1456.582 -1154.083)" fill="#fff" fill-rule="evenodd"/><path d="M1480.606,1171.32l-.046.046Z" transform="translate(-1459.226 -1151.438)" fill="#fff" fill-rule="evenodd"/><path d="M1483.306,1168.63l-.046.046Z" transform="translate(-1461.88 -1148.794)" fill="#fff" fill-rule="evenodd"/></g></g></g></svg>