<svg xmlns="http://www.w3.org/2000/svg" width="30.732" height="30.124" viewBox="0 0 30.732 30.124"><g transform="translate(-42.5 473.813)"><path d="M60.048-473.743a12.291,12.291,0,0,0-9.213,5.275l-.346.561H46.239c-5.445,0-3.208-.015-3.577.484l-.161.215v13.1c0,12.373.008,9.7.138,9.9a1.182,1.182,0,0,0,.338.338c.2.131-1.923.138,7.613.138,9.389,0,10.128-.008,10.351-.131.508-.277.492,1.982.492-4.362V-452.6h.431a15.675,15.675,0,0,0,2.53-.354,13.8,13.8,0,0,0,4.13-1.815c4.868-3.368,6.129-9.213,3-13.842a12.339,12.339,0,0,0-9.343-5.137A8.578,8.578,0,0,0,60.048-473.743Zm3.476,2.145a9.471,9.471,0,0,1,7.529,6.613,8.493,8.493,0,0,1,0,3.576,8.369,8.369,0,0,1-2.338,3.937,10.263,10.263,0,0,1-5.383,2.722,12.309,12.309,0,0,1-4.214,0l-.9-.177-2.484.969c-1.361.531-2.492.954-2.507.946s.269-.692.631-1.507a5.9,5.9,0,0,0,.654-1.823c0-.346-.015-.369-.754-1.092a8.127,8.127,0,0,1-2.307-3.86,6.07,6.07,0,0,1-.2-1.922A5.615,5.615,0,0,1,51.42-465a8.45,8.45,0,0,1,2.238-3.83,10.853,10.853,0,0,1,6.39-2.953A17.3,17.3,0,0,1,63.524-471.6Zm-13.973,5.9a10.575,10.575,0,0,0-.123,4.383,10.019,10.019,0,0,0,2.538,4.883l.4.438-1,2.276c-1.123,2.53-1.177,2.745-.807,3.184a1.018,1.018,0,0,0,1,.323c.123-.038,1.692-.646,3.491-1.346,3.491-1.376,3.307-1.323,4.176-1.154l.208.046v6.972H44.461v-20.214h5.144Z" fill="#ffb405"/><path d="M264.753-418.309A4.335,4.335,0,0,0,261-414.087a.813.813,0,0,0,.238.723.913.913,0,0,0,1.384.061c.2-.177.238-.285.308-.784a2.6,2.6,0,0,1,.777-1.653,2.363,2.363,0,0,1,3.76.7,2.3,2.3,0,0,1-.554,2.83,2.535,2.535,0,0,1-1.523.623c-.854.1-1.007.361-1.007,1.692v.961l.261.292a.683.683,0,0,0,.692.285.715.715,0,0,0,.669-.238.947.947,0,0,0,.292-.684l.046-.438.477-.177a4.415,4.415,0,0,0,2.868-4.076A4.373,4.373,0,0,0,264.753-418.309Z" transform="translate(-204.105 -51.204)" fill="#ffb405"/></g></svg>