<svg xmlns="http://www.w3.org/2000/svg" width="13.277" height="12.5" viewBox="0 0 13.277 12.5"><g transform="translate(-0.461 496.579)"><path d="M6.554-496.564a6.685,6.685,0,0,0-5,2.956,8.346,8.346,0,0,0-.707,1.392,7.931,7.931,0,0,0-.34,1.379,9.186,9.186,0,0,0-.029,1.579l.023.2.094-.081a2.838,2.838,0,0,1,.608-.382c.112-.039.127-.055.153-.151a1.623,1.623,0,0,1,.431-.743c.1-.086.107-.109.135-.3a5.272,5.272,0,0,1,1.808-3.226,5.23,5.23,0,0,1,7.448.738,5.293,5.293,0,0,1,1.088,2.489c.029.19.039.213.135.3a1.623,1.623,0,0,1,.431.743c.026.1.042.112.153.151a2.838,2.838,0,0,1,.608.382l.094.081.023-.2a9.186,9.186,0,0,0-.029-1.579,7.931,7.931,0,0,0-.34-1.379,8.346,8.346,0,0,0-.707-1.392,6.657,6.657,0,0,0-4.59-2.907A8.336,8.336,0,0,0,6.554-496.564Z"/><path d="M15.492-246.493a.855.855,0,0,0-.46.236.734.734,0,0,0-.242.636l-.013.294h-.1a1.33,1.33,0,0,0-1.088.668l-.088.177v1.948l.088.177a1.33,1.33,0,0,0,1.088.668h.1l.013.294a.734.734,0,0,0,.242.636.848.848,0,0,0,.481.239.939.939,0,0,0,1.016-.473l.062-.138v-4.754l-.062-.138A.955.955,0,0,0,15.492-246.493Z" transform="translate(-12.7 -243.574)"/><path d="M380.212-246.8a.882.882,0,0,0-.649.475l-.062.135v4.754l.062.138a.939.939,0,0,0,1.016.473.848.848,0,0,0,.481-.239.734.734,0,0,0,.242-.636l.013-.294h.1a1.33,1.33,0,0,0,1.088-.668l.088-.177v-1.948l-.088-.177a1.33,1.33,0,0,0-1.088-.668h-.1l-.013-.294a.734.734,0,0,0-.242-.636.84.84,0,0,0-.483-.239A.782.782,0,0,0,380.212-246.8Z" transform="translate(-369.192 -243.266)"/></g></svg>