<svg xmlns="http://www.w3.org/2000/svg" width="28.475" height="38" viewBox="0 0 28.475 38"><g transform="translate(0)"><path d="M14.238,0,2.841,14.792A14.493,14.493,0,0,0,0,23.463,14.193,14.193,0,0,0,14.238,38a14.568,14.568,0,0,0,11.4-23.208Zm0,35.775A12.052,12.052,0,0,1,2.191,23.463a12.26,12.26,0,0,1,2.4-7.327L14.238,3.61l9.65,12.526a12.336,12.336,0,0,1-9.65,19.639Zm0,0" transform="translate(0)" fill="#ffb405"/><path d="M102.878,123.367l-8.433,15.419h6.242v8.744l8.433-15.419h-6.242Zm2.519,10.969-2.519,4.607v-2.382h-4.71l2.519-4.607v2.382Zm0,0" transform="translate(-87.544 -114.211)" fill="#ffb405"/></g></svg>