<svg xmlns="http://www.w3.org/2000/svg" width="114" height="27.987" viewBox="0 0 114 27.987"><g transform="translate(-20.5 -248.5)"><path d="M178.119,300.7h11.533v2.147h-4.541v12.1h-2.489v-12.1H178.1Zm11.039,3.933h2.128v2h.038a2.506,2.506,0,0,1,.4-.817,3.159,3.159,0,0,1,.7-.722,3.109,3.109,0,0,1,.912-.532,2.654,2.654,0,0,1,1.007-.209c.266,0,.456.019.551.019a1.665,1.665,0,0,0,.3.038v2.185a3.848,3.848,0,0,0-.494-.076,4.32,4.32,0,0,0-.494-.038,2.637,2.637,0,0,0-1.083.228,2.746,2.746,0,0,0-.893.665,3.6,3.6,0,0,0-.608,1.1,4.65,4.65,0,0,0-.228,1.52v4.9h-2.28ZM205.65,314.95h-2.242v-1.444h-.038a3.183,3.183,0,0,1-1.254,1.254,3.309,3.309,0,0,1-1.691.475,3.762,3.762,0,0,1-2.945-1.007,4.405,4.405,0,0,1-.912-3.04v-6.555h2.28v6.327a2.7,2.7,0,0,0,.532,1.919,1.876,1.876,0,0,0,1.463.57,2.8,2.8,0,0,0,1.2-.228,2.064,2.064,0,0,0,.779-.589,2.311,2.311,0,0,0,.437-.893,4.219,4.219,0,0,0,.133-1.121v-5.985h2.28V314.95Zm3.876-3.306a1.793,1.793,0,0,0,.76,1.406,2.992,2.992,0,0,0,1.577.4,5.218,5.218,0,0,0,.722-.057,3.18,3.18,0,0,0,.76-.19,1.337,1.337,0,0,0,.589-.418.973.973,0,0,0,.209-.7,1.022,1.022,0,0,0-.323-.722,2.692,2.692,0,0,0-.76-.456,6.594,6.594,0,0,0-1.064-.285c-.4-.076-.8-.171-1.216-.266s-.836-.209-1.235-.342a3.54,3.54,0,0,1-1.064-.551,2.37,2.37,0,0,1-.741-.874,2.731,2.731,0,0,1-.285-1.311,2.247,2.247,0,0,1,.418-1.406,3.03,3.03,0,0,1,1.045-.912,4.744,4.744,0,0,1,1.406-.494,8.05,8.05,0,0,1,1.463-.133,6.536,6.536,0,0,1,1.52.171,3.842,3.842,0,0,1,1.311.551,3.01,3.01,0,0,1,.969.988,3.422,3.422,0,0,1,.494,1.463h-2.375a1.463,1.463,0,0,0-.741-1.1,3.06,3.06,0,0,0-1.349-.285c-.152,0-.361.019-.57.038a3.358,3.358,0,0,0-.627.152,1.486,1.486,0,0,0-.494.323.76.76,0,0,0-.209.551.835.835,0,0,0,.285.665,2.583,2.583,0,0,0,.76.437,6.587,6.587,0,0,0,1.064.285c.4.076.817.171,1.235.266s.817.209,1.216.342a3.327,3.327,0,0,1,1.064.551,2.74,2.74,0,0,1,.76.855,2.626,2.626,0,0,1,.285,1.273,2.769,2.769,0,0,1-.418,1.558,3.553,3.553,0,0,1-1.083,1.045,5.37,5.37,0,0,1-1.482.589,7.961,7.961,0,0,1-1.615.19,6.806,6.806,0,0,1-1.805-.228,4.6,4.6,0,0,1-1.444-.665,3.189,3.189,0,0,1-.95-1.121,3.66,3.66,0,0,1-.38-1.6h2.3v.019Zm7.505-7.011h1.729v-3.116h2.28v3.1h2.052v1.691H221.04v5.51a5.847,5.847,0,0,0,.038.627,1.316,1.316,0,0,0,.133.437.742.742,0,0,0,.323.266,1.7,1.7,0,0,0,.608.1,3.969,3.969,0,0,0,.475-.019,4.118,4.118,0,0,0,.475-.076v1.767c-.247.038-.494.057-.741.076a4.721,4.721,0,0,1-.741.038,4.911,4.911,0,0,1-1.444-.171,2.075,2.075,0,0,1-.855-.494,1.766,1.766,0,0,1-.418-.817,6.484,6.484,0,0,1-.133-1.14v-6.08h-1.729v-1.691Zm7.657,0h2.147v1.406h.038a2.822,2.822,0,0,1,1.33-1.292,4.307,4.307,0,0,1,1.862-.4,4.682,4.682,0,0,1,2.128.437,3.993,3.993,0,0,1,1.5,1.178,4.914,4.914,0,0,1,.893,1.748,7.675,7.675,0,0,1,.038,4.142,5.591,5.591,0,0,1-.817,1.729,4.043,4.043,0,0,1-1.387,1.2,4.1,4.1,0,0,1-1.976.456,5.8,5.8,0,0,1-.988-.1,4.2,4.2,0,0,1-.95-.285,3.41,3.41,0,0,1-.836-.513,2.9,2.9,0,0,1-.646-.722h-.038v5.149h-2.28V304.633Zm7.961,5.168a4.629,4.629,0,0,0-.19-1.349,3.441,3.441,0,0,0-.551-1.159,3.04,3.04,0,0,0-.893-.817,2.43,2.43,0,0,0-1.235-.3,2.524,2.524,0,0,0-2.166.988,4.5,4.5,0,0,0-.722,2.66,4.92,4.92,0,0,0,.19,1.444,3.216,3.216,0,0,0,.57,1.14,2.715,2.715,0,0,0,.912.76,2.576,2.576,0,0,0,1.235.285,2.528,2.528,0,0,0,1.311-.323,3.063,3.063,0,0,0,.893-.817,3.344,3.344,0,0,0,.494-1.159A6.525,6.525,0,0,0,232.649,309.8Zm4.009-9.1h2.28v2.147h-2.28Zm0,3.933h2.28V314.95h-2.28Zm4.313-3.933h2.28v14.25h-2.28Zm9.234,14.535a5.43,5.43,0,0,1-2.2-.418,5,5,0,0,1-1.634-1.121,4.881,4.881,0,0,1-1.007-1.729,6.755,6.755,0,0,1-.361-2.185,6.171,6.171,0,0,1,.361-2.166,5.054,5.054,0,0,1,1.007-1.729A4.557,4.557,0,0,1,248,304.766a5.767,5.767,0,0,1,2.2-.418,5.429,5.429,0,0,1,2.2.418,4.729,4.729,0,0,1,1.634,1.121,4.881,4.881,0,0,1,1.007,1.729,6.638,6.638,0,0,1,.361,2.166,6.2,6.2,0,0,1-.361,2.185,5.378,5.378,0,0,1-1.007,1.729,4.557,4.557,0,0,1-1.634,1.121A5.7,5.7,0,0,1,250.2,315.235Zm0-1.8a2.628,2.628,0,0,0,1.311-.323,2.75,2.75,0,0,0,.912-.836,3.581,3.581,0,0,0,.532-1.159,5.182,5.182,0,0,0,0-2.641,3.407,3.407,0,0,0-.532-1.159,2.887,2.887,0,0,0-.912-.817,2.68,2.68,0,0,0-1.311-.323,2.628,2.628,0,0,0-1.311.323,2.911,2.911,0,0,0-.912.817,3.407,3.407,0,0,0-.532,1.159,5.184,5.184,0,0,0,0,2.641,3.408,3.408,0,0,0,.532,1.159,2.947,2.947,0,0,0,.912.836A2.488,2.488,0,0,0,250.2,313.43Zm5.89-8.8h1.729v-3.116h2.28v3.1h2.052v1.691H260.1v5.51a5.842,5.842,0,0,0,.038.627,1.317,1.317,0,0,0,.133.437.742.742,0,0,0,.323.266,1.7,1.7,0,0,0,.608.1,3.969,3.969,0,0,0,.475-.019,4.117,4.117,0,0,0,.475-.076v1.767c-.247.038-.494.057-.741.076a4.725,4.725,0,0,1-.741.038,4.911,4.911,0,0,1-1.444-.171,2.075,2.075,0,0,1-.855-.494,1.766,1.766,0,0,1-.418-.817,6.487,6.487,0,0,1-.133-1.14v-6.08H256.1v-1.691Z" transform="translate(-127.656 -42.282)" fill="#ddd"/><path d="M47.8,258.418H37.372L34.161,248.5l-3.23,9.918L20.5,258.4l8.436,6.137-3.23,9.918,8.436-6.137,8.436,6.137-3.211-9.918Z" transform="translate(0 0)" fill="#00b67a"/><path d="M98.328,335.142l-.722-2.242L92.4,336.681Z" transform="translate(-58.239 -68.364)" fill="#005128"/></g></svg>