<svg xmlns="http://www.w3.org/2000/svg" width="102.833" height="20.7" viewBox="0 0 102.833 20.7"><g transform="translate(0 0.023)"><g transform="translate(0 -0.023)"><path d="M4.759,20.514a6.446,6.446,0,0,1-2.621-.476,3.2,3.2,0,0,1-1.6-1.529A6.033,6.033,0,0,1,0,15.754V.391H4.025V15.1a2.121,2.121,0,0,0,.232,1.059,1.182,1.182,0,0,0,.638.557,2.662,2.662,0,0,0,.924.151h6.365v3.643Zm12.478.164a3.753,3.753,0,0,1-2.691-.979,3.565,3.565,0,0,1-1.033-2.719V15.669a3.547,3.547,0,0,1,1.169-2.732,5.257,5.257,0,0,1,3.643-1.075H22.06v-1a2.326,2.326,0,0,0-.245-1.127,1.459,1.459,0,0,0-.911-.655,7.446,7.446,0,0,0-2.027-.205H14.51V6.535a20.291,20.291,0,0,1,2.462-.572,19.944,19.944,0,0,1,3.386-.245,9.853,9.853,0,0,1,3.112.437,3.565,3.565,0,0,1,1.966,1.5,5.585,5.585,0,0,1,.655,2.938v9.925h-3.2l-.655-1.549a2.739,2.739,0,0,1-.655.489,10.3,10.3,0,0,1-1.129.557,8.857,8.857,0,0,1-1.5.476,7.715,7.715,0,0,1-1.728.19Zm2.04-2.8a3.106,3.106,0,0,0,.612-.07c.218-.044.463-.1.708-.162s.472-.127.679-.19.382-.122.518-.177.218-.092.258-.109v-3.4l-2.446.162a2.568,2.568,0,0,0-1.564.544,1.614,1.614,0,0,0-.5,1.252v.6a1.621,1.621,0,0,0,.232.9,1.269,1.269,0,0,0,.627.5,2.453,2.453,0,0,0,.874.151ZM29.364,3.763q-.57,0-.57-.544V.552a.5.5,0,0,1,.57-.57h3.1a.47.47,0,0,1,.38.164.616.616,0,0,1,.135.406V3.219c0,.363-.173.544-.515.544Zm-.489,16.751V5.91H32.9v14.6Zm6.9,0V5.91H39.1l.708,1.5a11.384,11.384,0,0,1,2.079-1.223,6.681,6.681,0,0,1,2.789-.524,4.242,4.242,0,0,1,2.3.572,3.68,3.68,0,0,1,1.372,1.494A11.222,11.222,0,0,1,49.8,6.782a10.856,10.856,0,0,1,1.78-.789,5.747,5.747,0,0,1,1.876-.328,5.046,5.046,0,0,1,2.787.666,3.5,3.5,0,0,1,1.42,1.876,8.885,8.885,0,0,1,.408,2.839v9.466H54.055V11.4a2.372,2.372,0,0,0-.258-1.169,1.747,1.747,0,0,0-.721-.708,2.346,2.346,0,0,0-1.116-.245,4.3,4.3,0,0,0-1.645.341,7.448,7.448,0,0,0-1.481.8c.035.181.063.358.081.531a5.264,5.264,0,0,1,.026.531v9.027H44.918V11.4a2.372,2.372,0,0,0-.26-1.169,1.747,1.747,0,0,0-.721-.708,2.344,2.344,0,0,0-1.114-.245,4.471,4.471,0,0,0-1.092.135,4.805,4.805,0,0,0-1.016.393,6.4,6.4,0,0,0-.911.57V20.514Zm30.673.138a11.233,11.233,0,0,1-3.073-.369A4.395,4.395,0,0,1,61.3,19.046a5.264,5.264,0,0,1-1.169-2.311,14.7,14.7,0,0,1-.367-3.562,15.412,15.412,0,0,1,.367-3.685A4.965,4.965,0,0,1,61.3,7.2a4.41,4.41,0,0,1,2.095-1.171,12.2,12.2,0,0,1,3.058-.339,11.751,11.751,0,0,1,3.1.354,4.48,4.48,0,0,1,2.092,1.182,4.976,4.976,0,0,1,1.169,2.285,15.277,15.277,0,0,1,.36,3.659,15.673,15.673,0,0,1-.356,3.628,5.024,5.024,0,0,1-1.142,2.3,4.342,4.342,0,0,1-2.079,1.2,12.133,12.133,0,0,1-3.141.354Zm0-3.211a4.755,4.755,0,0,0,1.236-.135,1.47,1.47,0,0,0,.817-.557,3.215,3.215,0,0,0,.476-1.293,13.033,13.033,0,0,0,.162-2.282,13,13,0,0,0-.162-2.3,3.2,3.2,0,0,0-.476-1.282,1.47,1.47,0,0,0-.817-.557A4.851,4.851,0,0,0,66.452,8.9a4.729,4.729,0,0,0-1.21.135,1.529,1.529,0,0,0-.83.557,2.929,2.929,0,0,0-.476,1.28,14.131,14.131,0,0,0-.157,2.3,14.168,14.168,0,0,0,.149,2.282,2.946,2.946,0,0,0,.476,1.293,1.529,1.529,0,0,0,.83.557,4.729,4.729,0,0,0,1.21.135Zm14.92,3.211a11.233,11.233,0,0,1-3.073-.369,4.388,4.388,0,0,1-2.071-1.236,5.266,5.266,0,0,1-1.179-2.311,14.806,14.806,0,0,1-.367-3.562,15.412,15.412,0,0,1,.367-3.685A4.945,4.945,0,0,1,76.229,7.2a4.392,4.392,0,0,1,2.092-1.171,12.232,12.232,0,0,1,3.058-.339,11.78,11.78,0,0,1,3.1.354A4.471,4.471,0,0,1,86.56,7.229a4.954,4.954,0,0,1,1.169,2.285,15.263,15.263,0,0,1,.369,3.659,15.673,15.673,0,0,1-.36,3.628A5.048,5.048,0,0,1,86.6,19.1a4.368,4.368,0,0,1-2.082,1.2,12.122,12.122,0,0,1-3.141.354Zm0-3.211a4.783,4.783,0,0,0,1.238-.135,1.463,1.463,0,0,0,.826-.557,3.215,3.215,0,0,0,.476-1.293,12.793,12.793,0,0,0,.164-2.282,12.762,12.762,0,0,0-.164-2.3,3.2,3.2,0,0,0-.476-1.282,1.463,1.463,0,0,0-.815-.557A4.882,4.882,0,0,0,81.384,8.9a4.729,4.729,0,0,0-1.21.135,1.529,1.529,0,0,0-.83.557,2.955,2.955,0,0,0-.494,1.282,14.131,14.131,0,0,0-.149,2.3,14.166,14.166,0,0,0,.149,2.282,2.975,2.975,0,0,0,.476,1.293,1.529,1.529,0,0,0,.83.557,4.729,4.729,0,0,0,1.21.135Zm8.3,3.073V5.91H92.99l.712,1.5A8.258,8.258,0,0,1,95.756,6.2a6.417,6.417,0,0,1,2.534-.537,4.694,4.694,0,0,1,2.774.708,3.731,3.731,0,0,1,1.376,1.894,8.3,8.3,0,0,1,.393,2.621v9.63H98.8V11.4a2.372,2.372,0,0,0-.258-1.169,1.747,1.747,0,0,0-.721-.708,2.37,2.37,0,0,0-1.114-.245,4.474,4.474,0,0,0-1.092.135,4.842,4.842,0,0,0-1.005.382,6.284,6.284,0,0,0-.913.57V20.514Z" transform="translate(0 0.023)" fill="#ddd" fill-rule="evenodd"/></g></g></svg>