<svg xmlns="http://www.w3.org/2000/svg" width="84.331" height="27.76" viewBox="0 0 84.331 27.76"><path d="M84.808,31.467a6.959,6.959,0,1,1-6.959-6.937A6.851,6.851,0,0,1,84.808,31.467Zm-3.046,0a3.923,3.923,0,1,0-7.825,0,3.923,3.923,0,1,0,7.825,0Z" transform="translate(-48.719 -16.858)" fill="#ea4335"/><path d="M132.808,31.467a6.959,6.959,0,1,1-6.959-6.937A6.851,6.851,0,0,1,132.808,31.467Zm-3.046,0a3.923,3.923,0,1,0-7.825,0,3.923,3.923,0,1,0,7.825,0Z" transform="translate(-81.707 -16.858)" fill="#fbbc05"/><path d="M180.168,24.949V37.4c0,5.123-3.021,7.215-6.593,7.215a6.606,6.606,0,0,1-6.149-4.088l2.652-1.1a3.832,3.832,0,0,0,3.493,2.461c2.286,0,3.7-1.411,3.7-4.066v-1h-.106a4.723,4.723,0,0,1-3.653,1.576,6.942,6.942,0,0,1,0-13.871,4.807,4.807,0,0,1,3.653,1.551h.106V24.952h2.893Zm-2.677,6.543c0-2.443-1.629-4.228-3.7-4.228a4.011,4.011,0,0,0-3.863,4.228,3.981,3.981,0,0,0,3.863,4.178A3.877,3.877,0,0,0,177.491,31.492Z" transform="translate(-114.681 -16.858)" fill="#4285f4"/><path d="M218.111,2.53V22.859H215.14V2.53Z" transform="translate(-147.854 -1.739)" fill="#34a853"/><path d="M239.029,33.743l2.364,1.576a6.9,6.9,0,0,1-5.78,3.074,6.787,6.787,0,0,1-6.884-6.937,6.592,6.592,0,0,1,6.543-6.937,6.443,6.443,0,0,1,5.936,4.413l.316.788-9.273,3.841a3.53,3.53,0,0,0,3.362,2.1A3.959,3.959,0,0,0,239.029,33.743Zm-7.278-2.5,6.2-2.574a2.686,2.686,0,0,0-2.574-1.47A3.805,3.805,0,0,0,231.751,31.247Z" transform="translate(-157.194 -16.851)" fill="#ea4335"/><path d="M10.924,12.8V9.861h9.917a9.751,9.751,0,0,1,.147,1.776,9.719,9.719,0,0,1-2.549,6.884,9.85,9.85,0,0,1-7.512,3.021A10.922,10.922,0,0,1,0,10.771,10.922,10.922,0,0,1,10.928,0a10.264,10.264,0,0,1,7.381,2.968L16.232,5.045a7.5,7.5,0,0,0-5.307-2.1A7.727,7.727,0,0,0,3.2,10.771,7.727,7.727,0,0,0,10.924,18.6a7.206,7.206,0,0,0,5.439-2.155,6.1,6.1,0,0,0,1.6-3.644Z" fill="#4285f4"/></svg>