<svg xmlns="http://www.w3.org/2000/svg" width="166.353" height="62.902" viewBox="0 0 166.353 62.902"><path d="M0,62.9C64.911,43.889,110.717,37.948,166.353,32.685A259.017,259.017,0,0,0,123.816,0C85.9,14.9,40.226,39.652,0,62.9" fill="#ed1c24"/><path d="M268.091,55.241a5.359,5.359,0,0,0-1.744-4.162,6.788,6.788,0,0,0-4.954-1.558h-5.235c-1.5.72-3,1.453-4.5,2.186v17.1h4.169V60.663H259.8c.346.5,3.229,6.379,4.095,8.148h4.967c-.794-1.473-3.333-6.111-4.692-8.42a5.027,5.027,0,0,0,3.921-5.15m-4.541,1.29c-.8,1.056-2.157,1.056-3.275,1.056h-4.447V52.633h5.212c1.192.017,2,.1,2.545.964a2.711,2.711,0,0,1,.413,1.49,2.331,2.331,0,0,1-.449,1.443m25.419-7.011h-18.5v3.334h7.14V68.811h4.2V52.854h7.156Zm11.145,0h-5.093l-9.188,19.291h4.482l2.077-4.716h9.866l2.028,4.634,4.5-.5ZM293.92,60.744l3.617-7.666,3.265,7.68Z" transform="translate(-170.389 -32.707)" fill="#fff"/></svg>