<svg xmlns="http://www.w3.org/2000/svg" width="153.242" height="24.382" viewBox="0 0 153.242 24.382"><path d="M195.552,10.109v4.564a18.189,18.189,0,0,0-6.312-1.344,5.056,5.056,0,0,0-2.614.593,1.711,1.711,0,0,0-.987,1.452c0,.761.738,1.438,2.223,2.044l4.291,2.088c3.469,1.654,5.19,3.85,5.19,6.608a6.445,6.445,0,0,1-2.755,5.477,12.022,12.022,0,0,1-7.356,2.044,34.129,34.129,0,0,1-3.813-.189,29.441,29.441,0,0,1-3.863-.728V27.944a22.688,22.688,0,0,0,7.2,1.344c2.58,0,3.863-.748,3.863-2.257,0-.751-.525-1.357-1.593-1.832l-4.766-2.031a9.811,9.811,0,0,1-3.92-2.9,6.561,6.561,0,0,1-1.27-3.981,6.054,6.054,0,0,1,2.647-5.106,11.758,11.758,0,0,1,7.046-1.927,26.2,26.2,0,0,1,3.257.239C193.245,9.658,194.421,9.86,195.552,10.109Z" transform="translate(-44.102 -9.254)" fill="#099" fill-rule="evenodd"/><path d="M23.156,10.109v4.564a18.173,18.173,0,0,0-6.308-1.344,5.048,5.048,0,0,0-2.614.593,1.711,1.711,0,0,0-.987,1.452c0,.761.748,1.438,2.233,2.044l4.291,2.088c3.456,1.654,5.18,3.85,5.18,6.608a6.469,6.469,0,0,1-2.745,5.477,12.06,12.06,0,0,1-7.366,2.044,34.194,34.194,0,0,1-3.816-.189,29.706,29.706,0,0,1-3.86-.728V27.944a22.785,22.785,0,0,0,7.2,1.344c2.58,0,3.863-.748,3.863-2.257,0-.751-.522-1.357-1.58-1.832L11.88,23.168a9.622,9.622,0,0,1-3.92-2.9,6.477,6.477,0,0,1-1.273-3.981A6.032,6.032,0,0,1,9.337,11.18a11.7,11.7,0,0,1,7.036-1.927,26.392,26.392,0,0,1,3.267.239c1.213.165,2.388.367,3.516.616Z" transform="translate(-6.686 -9.254)" fill="#099" fill-rule="evenodd"/><path d="M34,9.8h6.989V33.326H34Z" transform="translate(-12.615 -9.372)" fill="#099" fill-rule="evenodd"/><path d="M66.943,9.8v4.348H56.56v5.217h9.006v3.92H56.56v5.477h10.6v4.564H49.833V9.8Z" transform="translate(-16.051 -9.372)" fill="#099" fill-rule="evenodd"/><path d="M105.443,9.8V33.326H98.919V17.81l-6.77,15.732H88.121L81.61,17.81V33.326H76.892V9.8h8.531l5.823,14.4L97.34,9.8Z" transform="translate(-21.924 -9.372)" fill="#099" fill-rule="evenodd"/><path d="M137.36,9.8v4.348H127.033v5.217h9.006v3.92h-9.006v5.477h10.539v4.564H120.25V9.8Z" transform="translate(-31.335 -9.372)" fill="#099" fill-rule="evenodd"/><path d="M167.756,9.8V33.326h-7.413l-8.319-15.089V33.326h-4.716V9.8h7.629l8.1,14.83V9.8Z" transform="translate(-37.208 -9.372)" fill="#099" fill-rule="evenodd"/></svg>