<svg id="Layer_1" data-name="Layer 1" xmlns="http://www.w3.org/2000/svg" viewBox="0 0 358 67"><defs><style>.cls-1{fill:#d1d3d4;}.cls-2{fill:#fdbc16;}</style></defs><path class="cls-1" d="M344,40.07a4.09,4.09,0,0,0-1.19,3.65l2.24,13.11a4.13,4.13,0,0,1-6,4.36L327.29,55a4.08,4.08,0,0,0-3.84,0l-11.77,6.19a4.14,4.14,0,0,1-6-4.36L307.2,48l.73-4.28a4.12,4.12,0,0,0-1.19-3.65l-1.6-1.57-7.93-7.72a4.13,4.13,0,0,1,2.29-7l13.17-1.91a4.13,4.13,0,0,0,3.11-2.26l5.89-11.93a4.13,4.13,0,0,1,7.41,0L332.22,14,335,19.56a4.16,4.16,0,0,0,3.12,2.26l.45.07,12.71,1.84a4.13,4.13,0,0,1,2.29,7.05Z"/><path class="cls-2" d="M51.26,40.07a4.12,4.12,0,0,0-1.19,3.65l2.25,13.11a4.13,4.13,0,0,1-6,4.36L34.55,55a4.1,4.1,0,0,0-3.85,0L18.93,61.19a4.14,4.14,0,0,1-6-4.36L14.45,48l.73-4.28A4.14,4.14,0,0,0,14,40.07L12.39,38.5,4.47,30.78a4.13,4.13,0,0,1,2.29-7l13.17-1.91A4.13,4.13,0,0,0,23,19.56L28.92,7.63a4.13,4.13,0,0,1,7.41,0L39.47,14l2.75,5.57a4.13,4.13,0,0,0,3.11,2.26l.46.07L58.5,23.73a4.13,4.13,0,0,1,2.28,7.05Z"/><path class="cls-2" d="M124.45,40.07a4.09,4.09,0,0,0-1.19,3.65l2.24,13.11a4.13,4.13,0,0,1-6,4.36L107.73,55a4.08,4.08,0,0,0-3.84,0L92.12,61.19a4.14,4.14,0,0,1-6-4.36L87.64,48l.73-4.28a4.12,4.12,0,0,0-1.19-3.65l-1.6-1.57-7.93-7.72a4.14,4.14,0,0,1,2.3-7l13.16-1.91a4.13,4.13,0,0,0,3.11-2.26l5.89-11.93a4.13,4.13,0,0,1,7.41,0L112.66,14l2.74,5.57a4.16,4.16,0,0,0,3.12,2.26l.45.07,12.72,1.84A4.13,4.13,0,0,1,134,30.78Z"/><path class="cls-2" d="M197.63,40.07a4.09,4.09,0,0,0-1.18,3.65l2.24,13.11a4.13,4.13,0,0,1-6,4.36L180.92,55a4.08,4.08,0,0,0-3.84,0L165.3,61.19a4.13,4.13,0,0,1-6-4.36L160.82,48l.74-4.28a4.15,4.15,0,0,0-1.19-3.65l-1.61-1.57-7.92-7.72a4.13,4.13,0,0,1,2.29-7l13.17-1.91a4.16,4.16,0,0,0,3.11-2.26l5.88-11.93a4.13,4.13,0,0,1,7.41,0L185.85,14l2.74,5.57a4.13,4.13,0,0,0,3.12,2.26l.45.07,12.71,1.84a4.14,4.14,0,0,1,2.29,7.05Z"/><path class="cls-2" d="M270.82,40.07a4.12,4.12,0,0,0-1.19,3.65l2.25,13.11a4.13,4.13,0,0,1-6,4.36L254.11,55a4.1,4.1,0,0,0-3.85,0l-11.77,6.19a4.14,4.14,0,0,1-6-4.36L234,48l.73-4.28a4.14,4.14,0,0,0-1.18-3.65L232,38.5,224,30.78a4.13,4.13,0,0,1,2.29-7l13.16-1.91a4.13,4.13,0,0,0,3.11-2.26l5.89-11.93a4.13,4.13,0,0,1,7.41,0L259,14l2.75,5.57a4.13,4.13,0,0,0,3.11,2.26l.45.07,12.72,1.84a4.13,4.13,0,0,1,2.28,7.05Z"/><path class="cls-2" d="M329.08,7.63a4.13,4.13,0,0,0-7.41,0l-5.89,11.93a4.13,4.13,0,0,1-3.11,2.26L299.5,23.73a4.13,4.13,0,0,0-2.29,7.05l7.93,7.72,1.6,1.57a4.12,4.12,0,0,1,1.19,3.65L307.2,48l-1.52,8.83a4.14,4.14,0,0,0,6,4.36L323.45,55a4.08,4.08,0,0,1,3.84,0l4,2.08V12Z"/></svg>