<svg xmlns="http://www.w3.org/2000/svg" width="39.3" height="43.976" viewBox="0 0 39.3 43.976"><g transform="translate(-27.311 511.875)"><path d="M45.9-511.748a4.721,4.721,0,0,0-3.3,3.257l-.06.318-1.246.412a14.045,14.045,0,0,0-2.767,1.126,17.537,17.537,0,0,0-4.365,3.05l-.748.722-.507-.129a4.521,4.521,0,0,0-5.576,4,4.669,4.669,0,0,0,1.169,3.377l.421.464-.215.885a16.53,16.53,0,0,0-.447,4.8,15.761,15.761,0,0,0,.5,4.107l.172.713-.43.473a4.669,4.669,0,0,0-1.169,3.377,4.586,4.586,0,0,0,3.368,4,5.193,5.193,0,0,0,2.243,0l.447-.137.67.653a18.92,18.92,0,0,0,7.192,4.245l1.289.412.06.327a4.313,4.313,0,0,0,1.177,2.019,4.406,4.406,0,0,0,5.267.851,4.742,4.742,0,0,0,2.286-2.878l.069-.327.894-.266a18.633,18.633,0,0,0,7.484-4.313l.739-.713.507.129a4.514,4.514,0,0,0,5.576-4,4.64,4.64,0,0,0-1.169-3.385l-.43-.473.172-.67a14.754,14.754,0,0,0,.481-4.58,14.424,14.424,0,0,0-.481-4.537L65-495.139l.43-.473a4.5,4.5,0,0,0-3.3-7.51,5.363,5.363,0,0,0-1.1.129l-.5.129-.619-.6a18.513,18.513,0,0,0-4.4-3.119A16.889,16.889,0,0,0,52.5-507.8l-1.108-.361-.069-.327a4.421,4.421,0,0,0-1.177-2.028A4.459,4.459,0,0,0,45.9-511.748Zm1.933,2.681a2.026,2.026,0,0,1,.722.61c.241.335.258.43.258,1.083s-.017.748-.258,1.083a2.159,2.159,0,0,1-1.59.851,2.159,2.159,0,0,1-1.59-.851c-.241-.335-.258-.43-.258-1.083s.017-.748.258-1.083a2.16,2.16,0,0,1,1.59-.851A1.846,1.846,0,0,1,47.829-509.068Zm-4.7,4.047a4.652,4.652,0,0,0,3.832,2.157,4.652,4.652,0,0,0,3.832-2.157,2.157,2.157,0,0,1,.378-.507c.034,0,.516.155,1.074.344a16.482,16.482,0,0,1,5.705,3.4l.516.481-.215.344a4.99,4.99,0,0,0-.559,3.257,4.545,4.545,0,0,0,1.873,2.767,4.725,4.725,0,0,0,2.329.8c.8.069.713-.043.971,1.212a20.67,20.67,0,0,1,.129,5.267c-.086.541-.206,1.22-.275,1.5l-.129.516-.67.017a4.5,4.5,0,0,0-4.227,3.523,4.947,4.947,0,0,0,.576,3.308l.206.318-.627.559a16.041,16.041,0,0,1-3.944,2.629,17.061,17.061,0,0,1-2.724,1.031,1.867,1.867,0,0,1-.387-.507,4.652,4.652,0,0,0-3.832-2.157,4.652,4.652,0,0,0-3.832,2.157,2.593,2.593,0,0,1-.369.507c-.034,0-.455-.137-.945-.3a16.827,16.827,0,0,1-5.826-3.428l-.533-.49.249-.4a4.671,4.671,0,0,0,.163-4.253,4.619,4.619,0,0,0-3.841-2.518c-.8-.069-.713.043-.971-1.212a14.915,14.915,0,0,1-.223-2.492,14.512,14.512,0,0,1,.327-4.064l.172-.73.67-.017a4.265,4.265,0,0,0,3.016-1.315,4.543,4.543,0,0,0,.687-5.43l-.249-.4.533-.49a17.255,17.255,0,0,1,5.774-3.428c.473-.155.9-.292.954-.292S42.957-505.3,43.129-505.021ZM32.68-500.338a1.515,1.515,0,0,1,.868.911,1.915,1.915,0,0,1-2.775,2.406,1.928,1.928,0,0,1-.249-3.025A1.912,1.912,0,0,1,32.68-500.338Zm30.16-.069a1.924,1.924,0,0,1,.344,3.351,1.861,1.861,0,0,1-2.311-.12,1.889,1.889,0,0,1-.5-2.251,1.448,1.448,0,0,1,.894-.911A1.974,1.974,0,0,1,62.84-500.406Zm-30.529,17.4a2.176,2.176,0,0,1,1.254,1.057,2.063,2.063,0,0,1-.017,1.6,1.449,1.449,0,0,1-.894.911,1.879,1.879,0,0,1-2.741-1.736,1.866,1.866,0,0,1,1.315-1.8A1.549,1.549,0,0,1,32.311-483.007Zm30.366.043a1.894,1.894,0,0,1,1.126,2.7,1.88,1.88,0,0,1-2.535.825,1.448,1.448,0,0,1-.894-.911,1.929,1.929,0,0,1,1.28-2.672A1.535,1.535,0,0,1,62.677-482.964ZM47.829-474.1a2.026,2.026,0,0,1,.722.61c.241.335.258.43.258,1.083s-.017.748-.258,1.083a2.16,2.16,0,0,1-1.59.851,2.159,2.159,0,0,1-1.59-.851c-.241-.335-.258-.43-.258-1.083s.017-.748.258-1.083a2.159,2.159,0,0,1,1.59-.851A1.846,1.846,0,0,1,47.829-474.1Z" transform="translate(0 0)" fill="#ffb405"/><path d="M155.011-375.4l-4.511,2.6v10.552l4.425,2.561c2.432,1.409,4.485,2.578,4.563,2.6s1.993-1.031,4.64-2.561l4.5-2.595V-372.8l-4.5-2.595c-2.483-1.435-4.528-2.6-4.563-2.6S157.486-376.831,155.011-375.4Zm6.994,1.753c1.28.739,2.432,1.409,2.561,1.486l.223.138-2.561,1.478c-1.409.816-2.6,1.478-2.655,1.478s-1.255-.67-2.672-1.486c-2.346-1.349-2.552-1.486-2.38-1.581.1-.06,1.255-.722,2.552-1.478s2.414-1.375,2.483-1.375S160.716-374.383,162.005-373.644Zm-6.272,5.4,2.543,1.461v6.075l-.189-.12c-.112-.069-1.289-.756-2.621-1.529l-2.432-1.392v-3.007a25.155,25.155,0,0,1,.077-2.973C153.164-369.725,154.341-369.055,155.733-368.248Zm10.363,1.5v3l-2.423,1.4c-1.34.765-2.518,1.452-2.621,1.521l-.2.12v-3.033l.009-3.042,2.552-1.478c1.4-.808,2.578-1.478,2.621-1.478S166.1-368.4,166.1-366.753Z" transform="translate(-112.604 -122.372)" fill="#ffb405"/></g></svg>