<svg xmlns="http://www.w3.org/2000/svg" width="35.008" height="35" viewBox="0 0 35.008 35"><path d="M8.386-511.739a4.178,4.178,0,0,0-3.214,3.993,4.541,4.541,0,0,0,2.01,3.617,4.89,4.89,0,0,0,1.463.568c.1.007-.848.034-2.106.055-2.407.048-2.53.068-3.351.41a5.389,5.389,0,0,0-2.735,2.735c-.383.91-.369.7-.4,5.71-.014,3.33,0,4.766.055,5.06A3.087,3.087,0,0,0,1.644-487.5l.438.226.041.5a4.442,4.442,0,0,0,.615,1.84l.246.369-.191.109a5.307,5.307,0,0,0-2.168,2.243,5.257,5.257,0,0,0-.561,2.988c-.034,1.47-.027,1.559.109,1.826a.928.928,0,0,0,.417.424c.267.137.369.137,15.864.137s15.6,0,15.864-.137a.928.928,0,0,0,.417-.424c.137-.267.144-.356.109-1.826a5.257,5.257,0,0,0-.561-2.988,5.308,5.308,0,0,0-2.168-2.243l-.191-.109.246-.369a4.193,4.193,0,0,0,.547-2.981,4.166,4.166,0,0,0-4.007-3.282,4.166,4.166,0,0,0-4.007,3.282,4.193,4.193,0,0,0,.547,2.981l.246.369-.191.109a5.546,5.546,0,0,0-1.224.937l-.5.479-.492-.479a5.762,5.762,0,0,0-1.231-.937l-.191-.109.246-.369a4.193,4.193,0,0,0,.547-2.981,4.166,4.166,0,0,0-3.152-3.18,5.293,5.293,0,0,0-.9-.1,4.787,4.787,0,0,0-1.73.41l-.28.137v-2.7l.369.554a5.4,5.4,0,0,0,.677.821,3.067,3.067,0,0,0,2.469.725,3.489,3.489,0,0,0,2.113-1.238l.773-.752,5.847-.021c5.771-.02,5.847-.02,6.236-.171a3.257,3.257,0,0,0,2.1-2.339c.041-.226.068-2.407.068-5.778a48.121,48.121,0,0,0-.1-5.806,3.417,3.417,0,0,0-2.557-2.373c-.5-.1-14.962-.1-15.468,0a3.263,3.263,0,0,0-2.373,2.12,10.507,10.507,0,0,0-.13,2.284l-.034,1.969-.178-.048c-.1-.027-1.156-.075-2.339-.1s-2.072-.055-1.969-.062a4.89,4.89,0,0,0,1.463-.568,4.541,4.541,0,0,0,2.01-3.617,4.169,4.169,0,0,0-3.248-4A4.054,4.054,0,0,0,8.386-511.739Zm1.723,2.134a2.287,2.287,0,0,1,1.033,1.033,2.25,2.25,0,0,1-.034,1.723,1.942,1.942,0,0,1-3.2.677,2.1,2.1,0,0,1,.718-3.508A2.182,2.182,0,0,1,10.109-509.606Zm22.2,1.99a1.231,1.231,0,0,1,.622.643c.055.13.075,1.908.075,5.5,0,5.942.027,5.607-.5,5.956l-.28.185-4.677.021-4.684.014.629-.65a3.378,3.378,0,0,0,1.115-1.976,3.079,3.079,0,0,0-3.474-3.474c-.827.137-1.238.39-2.257,1.395a10.343,10.343,0,0,1-.944.868c-.014-.014-.349-.52-.752-1.121l-.725-1.094V-504.1c0-2.852.014-2.988.294-3.3.328-.356.021-.342,7.932-.349C31.793-507.746,32.06-507.739,32.306-507.616ZM13.85-501.332a12.382,12.382,0,0,1,1.744,2.38c1.457,2.168,1.525,2.257,1.826,2.38.6.246.677.2,2.181-1.292a17.62,17.62,0,0,1,1.552-1.429,1.006,1.006,0,0,1,1.313.438.9.9,0,0,1-.055,1.033,56.643,56.643,0,0,1-4.534,4.472.907.907,0,0,1-.848-.014c-.205-.1-.465-.438-1.532-2.038-.7-1.053-1.354-1.983-1.443-2.065a.918.918,0,0,0-1.142-.15.783.783,0,0,0-.431.431c-.123.267-.13.581-.13,6.708v6.435l-.513.506-.506.506-.5-.479a5.565,5.565,0,0,0-1.231-.944l-.191-.109.246-.369a4.193,4.193,0,0,0,.547-2.981,4.166,4.166,0,0,0-3.152-3.18,4.838,4.838,0,0,0-.663-.1H6.2v-3.693c0-3.569-.007-3.706-.137-3.966a1.079,1.079,0,0,0-.889-.547,1.079,1.079,0,0,0-.889.547c-.13.26-.137.4-.137,4.233v3.966l-.287.2a5.387,5.387,0,0,0-1.06,1.074c-.116.2-.383.048-.561-.321-.144-.3-.144-.356-.144-4.582,0-2.619.027-4.417.068-4.643a3.139,3.139,0,0,1,2.4-2.448c.164-.034,2.27-.062,4.677-.068C13.357-501.455,13.631-501.448,13.85-501.332ZM7.032-488.955a2.287,2.287,0,0,1,1.033,1.033,2.3,2.3,0,0,1,0,1.655,2.317,2.317,0,0,1-1.039,1.039,2.3,2.3,0,0,1-1.655,0,2.079,2.079,0,0,1-1.156-2.339A2.053,2.053,0,0,1,7.032-488.955Zm10.257,0a2.287,2.287,0,0,1,1.033,1.033,2.3,2.3,0,0,1,0,1.655,2.317,2.317,0,0,1-1.039,1.039,2.3,2.3,0,0,1-1.655,0,2.079,2.079,0,0,1-1.156-2.339A2.053,2.053,0,0,1,17.289-488.955Zm10.257,0a2.287,2.287,0,0,1,1.033,1.033,2.3,2.3,0,0,1,0,1.655,2.317,2.317,0,0,1-1.039,1.039,2.3,2.3,0,0,1-1.655,0,2.079,2.079,0,0,1-1.156-2.339A2.053,2.053,0,0,1,27.546-488.955ZM7.777-482.924a3.11,3.11,0,0,1,2.455,2.455,7.333,7.333,0,0,1,.068.966v.609H2.095v-.609a3.743,3.743,0,0,1,.342-1.771,3.159,3.159,0,0,1,2.127-1.648A21.008,21.008,0,0,1,7.777-482.924Zm10.257,0a3.11,3.11,0,0,1,2.455,2.455,7.332,7.332,0,0,1,.068.966v.609H12.352v-.609a3.743,3.743,0,0,1,.342-1.771,3.159,3.159,0,0,1,2.127-1.648A21.008,21.008,0,0,1,18.035-482.924Zm10.257,0a3.11,3.11,0,0,1,2.455,2.455,7.332,7.332,0,0,1,.068.966v.609H22.609v-.609a3.743,3.743,0,0,1,.342-1.771,3.159,3.159,0,0,1,2.127-1.648A21.008,21.008,0,0,1,28.292-482.924Z" transform="translate(-0.047 511.838)" fill="#ffac05"/></svg>