<svg xmlns="http://www.w3.org/2000/svg" width="25.589" height="27.276" viewBox="0 0 25.589 27.276"><path d="M21.528-511.583a4.9,4.9,0,0,0-3.774,3.518,5.6,5.6,0,0,0-.005,2.362,4.843,4.843,0,0,0,1.3,2.244l.373.373-.256.133a6.056,6.056,0,0,0-2.916,3.609c-.219.773-.245,1.146-.245,3.764,0,2.452,0,2.484.117,2.687a.8.8,0,0,0,.336.315c.213.1.331.107,3.428.107H23.09l-.112.224a6.856,6.856,0,0,0-.458,1.349,21.387,21.387,0,0,0-.107,3.129c-.021,2.708-.021,2.756.085,2.969a.737.737,0,0,0,.325.325c.208.107.3.107,5.971.107s5.763,0,5.971-.107a.737.737,0,0,0,.325-.325c.107-.213.107-.261.085-2.969-.021-2.975-.032-3.071-.331-3.9-.08-.219-.192-.49-.245-.6l-.1-.2h3.225c3.129,0,3.236-.005,3.438-.107a.715.715,0,0,0,.32-.32c.1-.2.107-.309.107-2.687,0-2.612-.027-2.985-.245-3.758a6.056,6.056,0,0,0-2.916-3.609l-.256-.133.373-.373a4.843,4.843,0,0,0,1.3-2.244,5.6,5.6,0,0,0-.005-2.362,4.941,4.941,0,0,0-3.444-3.444,5.687,5.687,0,0,0-2.4,0,4.941,4.941,0,0,0-3.444,3.444,5.6,5.6,0,0,0-.005,2.362,4.862,4.862,0,0,0,1.29,2.239l.373.373-.293.165-.293.165-.357-.213a5.084,5.084,0,0,0-2.468-.693,5.084,5.084,0,0,0-2.468.693l-.357.213-.293-.165-.293-.165.373-.373a4.862,4.862,0,0,0,1.29-2.239,5.6,5.6,0,0,0-.005-2.362A4.924,4.924,0,0,0,23.6-511.5,5.639,5.639,0,0,0,21.528-511.583Zm1.535,1.6a3.25,3.25,0,0,1,2.532,3.119,3.25,3.25,0,0,1-3.2,3.2,3.25,3.25,0,0,1-3.119-2.532,3.1,3.1,0,0,1,.874-2.911A3.091,3.091,0,0,1,23.064-509.983Zm12.794,0a3.25,3.25,0,0,1,2.532,3.119,3.25,3.25,0,0,1-3.2,3.2,3.25,3.25,0,0,1-3.119-2.532,3.1,3.1,0,0,1,.874-2.911A3.091,3.091,0,0,1,35.858-509.983Zm-12.395,7.97a4.9,4.9,0,0,1,1.253.394c.091.064.091.085-.069.357a4.777,4.777,0,0,0,.794,5.8l.373.373-.229.117a6.138,6.138,0,0,0-1.045.709l-.235.192H17.6v-2.015a12.582,12.582,0,0,1,.1-2.495,4.418,4.418,0,0,1,3.364-3.385A9.99,9.99,0,0,1,23.463-502.014Zm6,.027a3.25,3.25,0,0,1,2.532,3.119,3.25,3.25,0,0,1-3.2,3.2,3.25,3.25,0,0,1-3.119-2.532,3.1,3.1,0,0,1,.874-2.911A3.092,3.092,0,0,1,29.461-501.987Zm7.042.021a4.392,4.392,0,0,1,3.385,3.385,12.581,12.581,0,0,1,.1,2.495v2.015H33.283l-.235-.192A6.138,6.138,0,0,0,32-494.971l-.229-.117.373-.373a4.777,4.777,0,0,0,.794-5.8c-.16-.272-.16-.293-.069-.357a4.942,4.942,0,0,1,1.2-.389A10,10,0,0,1,36.5-501.966Zm-6.4,8a4.392,4.392,0,0,1,3.385,3.385,12.979,12.979,0,0,1,.1,2.548v2.068H24v-2.068a12.979,12.979,0,0,1,.1-2.548,4.418,4.418,0,0,1,3.364-3.385A8.794,8.794,0,0,1,30.106-493.969Z" transform="translate(-16 511.644)" fill="#ffbc05"/></svg>