<svg xmlns="http://www.w3.org/2000/svg" width="40.035" height="24.847" viewBox="0 0 40.035 24.847"><g transform="translate(-216 -6205.251)"><g transform="translate(-771.057 88)"><path d="M-1106.789,17.556a8.5,8.5,0,0,1-6.287-7.7,14.3,14.3,0,0,1-.028-1.9C-1112.43-6.25-1096.179-7-1096.179-7s-8.094,1.244-5.751,8.272a8.5,8.5,0,0,1,5.551,10.272,8.5,8.5,0,0,1-8.2,6.3A8.483,8.483,0,0,1-1106.789,17.556Z" transform="translate(2100.179 6124.25)" fill="#ffb405"/></g><g transform="translate(-748.057 88)"><path d="M-1106.789,17.556a8.5,8.5,0,0,1-6.287-7.7,14.3,14.3,0,0,1-.028-1.9C-1112.43-6.25-1096.179-7-1096.179-7s-8.094,1.244-5.751,8.272a8.5,8.5,0,0,1,5.551,10.272,8.5,8.5,0,0,1-8.2,6.3A8.483,8.483,0,0,1-1106.789,17.556Z" transform="translate(2100.179 6124.25)" fill="#ffb405"/></g></g></svg>