<svg xmlns="http://www.w3.org/2000/svg" width="26.32" height="25.459" viewBox="0 0 26.32 25.459"><g transform="translate(-63.975 468.609)"><path d="M75.182-468.6a21.722,21.722,0,0,0-6.922,1.533c-2.4,1.042-3.913,2.527-4.208,4.126-.1.527-.1,13.595,0,14.122.391,2.12,2.892,3.989,6.627,4.941a26.132,26.132,0,0,0,3.372.617,25.8,25.8,0,0,0,3.118.108,22.273,22.273,0,0,0,4.811-.365c4.592-.814,7.792-2.869,8.238-5.3.1-.527.1-13.595,0-14.122-.445-2.431-3.639-4.486-8.238-5.3a22.543,22.543,0,0,0-4.537-.365C76.354-468.614,75.333-468.608,75.182-468.6Zm3.29,2.545a19.431,19.431,0,0,1,4.592.743c2.625.755,4.283,1.922,4.283,3.018,0,1.359-2.426,2.791-5.825,3.444a18,18,0,0,1-4.386.365,18,18,0,0,1-4.386-.365c-3.4-.653-5.825-2.084-5.825-3.444,0-1.743,4.064-3.485,8.786-3.761A17.716,17.716,0,0,1,78.471-466.051ZM67.41-457.859a12.159,12.159,0,0,0,1.912.8c5.243,1.827,13.261,1.467,17.5-.785.254-.138.48-.252.493-.252s.027.575.027,1.27c0,1.21-.007,1.294-.164,1.575-.72,1.359-3.557,2.557-7.169,3.03a18.158,18.158,0,0,1-2.913.138,19.464,19.464,0,0,1-4.66-.443c-2.652-.551-4.777-1.635-5.352-2.725-.158-.281-.164-.365-.164-1.575,0-.695.014-1.27.027-1.27A4.238,4.238,0,0,1,67.41-457.859Zm.781,6.755a20.719,20.719,0,0,0,6.236,1.491,35.515,35.515,0,0,0,5.414,0,19.562,19.562,0,0,0,7.148-1.928l.356-.2v1.306c0,1.294,0,1.312-.185,1.623a6.867,6.867,0,0,1-3.742,2.276c-4.311,1.33-10.157,1.126-13.844-.479a5.22,5.22,0,0,1-2.467-1.791c-.185-.323-.185-.335-.185-1.629v-1.306l.363.2C67.479-451.432,67.89-451.235,68.191-451.1Z" fill="#ffbc05"/></g></svg>