<svg xmlns="http://www.w3.org/2000/svg" width="31.667" height="31.663" viewBox="0 0 31.667 31.663"><g transform="translate(0 -1.027)"><g transform="translate(0 1.027)"><path d="M31.507,12.254,31.5,12.24c-.009-.016-.019-.032-.029-.047a1.234,1.234,0,0,0-.635-.516L8.477,1.154A1.319,1.319,0,0,0,6.6,2.348V6.807l-2.38-.476A1.319,1.319,0,0,0,2.638,7.625v3.958H1.319A1.319,1.319,0,0,0,0,12.9V31.371A1.319,1.319,0,0,0,1.319,32.69H30.343a1.319,1.319,0,0,0,1.319-1.319V12.989A1.281,1.281,0,0,0,31.507,12.254ZM9.235,4.427,19.982,9.484,9.235,7.335ZM5.277,9.234l2.38.476h0l6.821,1.364,2.542.508H5.277ZM29.023,30.052H2.638V14.221H29.023Z" transform="translate(0 -1.027)" fill="#ffbc05"/></g></g></svg>