<svg xmlns="http://www.w3.org/2000/svg" width="37.667" height="37.667" viewBox="0 0 37.667 37.667"><g transform="translate(0 512)"><path d="M.574-511.846a1.055,1.055,0,0,0-.427.434c-.14.272-.147.427-.147,2.722s.007,2.45.147,2.722a.986.986,0,0,0,.441.441c.272.14.427.147,2.722.147s2.45-.007,2.722-.147c.441-.228.589-.574.589-1.4v-.662l2.266.007c2.148,0,2.251.007,2.075.125a14.692,14.692,0,0,0-6.033,8.593,13.872,13.872,0,0,0-.294,1.552c-.044.4-.1.787-.118.868s-.2.235-.508.4a3.266,3.266,0,0,0-1.67,3.347,3.309,3.309,0,0,0,2.766,2.781,3.31,3.31,0,0,0,3.436-1.81,3.279,3.279,0,0,0-.015-2.928,3.738,3.738,0,0,0-1.42-1.449l-.36-.162.051-.522a12.516,12.516,0,0,1,5.194-8.652,14.471,14.471,0,0,1,3.038-1.516c.434-.147.8-.265.809-.265a2.343,2.343,0,0,1,.265.368,3.379,3.379,0,0,0,2.729,1.471,3.379,3.379,0,0,0,2.729-1.471,2.343,2.343,0,0,1,.265-.368c.007,0,.375.118.809.265a14.471,14.471,0,0,1,3.038,1.516,12.516,12.516,0,0,1,5.194,8.652l.051.522-.36.162a3.738,3.738,0,0,0-1.42,1.449,3.3,3.3,0,0,0,2.45,4.738,3.318,3.318,0,0,0,3.737-3.781,3.307,3.307,0,0,0-1.67-2.347c-.309-.162-.493-.3-.508-.4s-.074-.471-.118-.868a14.714,14.714,0,0,0-1.994-5.621,15.07,15.07,0,0,0-4.186-4.385l-.4-.272h4.6v.662c0,.824.147,1.17.589,1.4.272.14.427.147,2.722.147s2.45-.007,2.722-.147a.986.986,0,0,0,.441-.441c.14-.272.147-.427.147-2.722s-.007-2.45-.147-2.722a.986.986,0,0,0-.441-.441c-.272-.14-.427-.147-2.722-.147s-2.45.007-2.722.147c-.441.228-.589.574-.589,1.4v.662H21.96l-.25-.478a3.319,3.319,0,0,0-2.362-1.67,3.285,3.285,0,0,0-3.391,1.67l-.25.478H6.621v-.662c0-.824-.147-1.17-.589-1.4C5.76-511.993,5.606-512,3.3-512S.831-511.985.574-511.846Zm3.84,3.156v1.1H2.207v-2.207H4.414Zm14.934-.956a1.161,1.161,0,0,1,.589.956,1.161,1.161,0,0,1-.589.956,1.377,1.377,0,0,1-.515.147,1.161,1.161,0,0,1-.956-.589,1.03,1.03,0,0,1,0-1.03A1.066,1.066,0,0,1,19.348-509.646Zm16.111.956v1.1H33.253v-2.207H35.46ZM6.106-494.123a1.161,1.161,0,0,1,.589.956,1.175,1.175,0,0,1-1.1,1.1,1.175,1.175,0,0,1-1.1-1.1,1.178,1.178,0,0,1,.574-.949A1.04,1.04,0,0,1,6.106-494.123Zm26.484,0a1.161,1.161,0,0,1,.589.956,1.378,1.378,0,0,1-.147.515,1.161,1.161,0,0,1-.956.589,1.161,1.161,0,0,1-.956-.589,1.03,1.03,0,0,1,0-1.03A1.066,1.066,0,0,1,32.591-494.123Z" fill="#ffbc05"/><path d="M130.458-390.74c-.206.1-1.015,1.273-4.716,6.82-2.457,3.686-4.524,6.805-4.591,6.93-.243.471-.11.9.486,1.545a14.233,14.233,0,0,1,3.075,5.15,14.142,14.142,0,0,1,.589,2.523,1.768,1.768,0,0,1-.471.669,5.725,5.725,0,0,0-1.508,3.009c-.169,1.045-.029,1.567.508,1.839.28.147.419.147,7.136.147s6.857,0,7.136-.147c.537-.272.677-.795.508-1.839A5.725,5.725,0,0,0,137.1-367.1a1.768,1.768,0,0,1-.471-.669,14.142,14.142,0,0,1,.589-2.523,14.233,14.233,0,0,1,3.075-5.15c.6-.647.728-1.074.486-1.538-.066-.132-2.133-3.252-4.591-6.93-3.914-5.878-4.495-6.717-4.738-6.834A1.1,1.1,0,0,0,130.458-390.74Zm-.6,7.864v3.222l-.478.25a3.272,3.272,0,0,0-1.67,3.347,3.309,3.309,0,0,0,2.766,2.781,3.318,3.318,0,0,0,3.737-3.781,3.307,3.307,0,0,0-1.67-2.347l-.478-.25v-6.474l3.156,4.738,3.163,4.738-.434.522a16.807,16.807,0,0,0-3.259,6.665l-.177.772-.36-.037c-.2-.022-1.633-.037-3.193-.037s-2.994.015-3.193.037l-.36.037-.177-.772a16.807,16.807,0,0,0-3.259-6.665l-.434-.522,3.141-4.716c1.729-2.6,3.149-4.723,3.163-4.723S129.862-384.642,129.862-382.876Zm1.618,5.393a1.161,1.161,0,0,1,.589.956,1.175,1.175,0,0,1-1.1,1.1,1.161,1.161,0,0,1-.956-.589,1.03,1.03,0,0,1,0-1.03A1.066,1.066,0,0,1,131.481-377.483Zm2.465,11a3.28,3.28,0,0,1,1.6.986,3.278,3.278,0,0,1,.721,1.148c0,.022-2.384.037-5.3.037s-5.3-.015-5.3-.037a3.278,3.278,0,0,1,.721-1.148,3.305,3.305,0,0,1,1.567-.978A37.847,37.847,0,0,1,133.945-366.485Z" transform="translate(-112.133 -112.225)" fill="#ffbc05"/></g></svg>