<svg xmlns="http://www.w3.org/2000/svg" width="29.232" height="32.745" viewBox="0 0 29.232 32.745"><g transform="translate(-53.03 512.086)"><path d="M67.155-512.01a5.459,5.459,0,0,0-1.13.819,18.723,18.723,0,0,1-11.089,4.647c-.95.051-1.253.141-1.57.474-.338.365-.367.538-.317,2.407a47.147,47.147,0,0,0,.562,6.5c.929,5.85,3.2,10.382,6.855,13.653a23.1,23.1,0,0,0,5.8,3.744c.857.4.943.429,1.382.429s.526-.026,1.39-.429a20.974,20.974,0,0,0,8.425-6.644c2.9-3.936,4.363-8.82,4.731-15.778a13.982,13.982,0,0,0-.036-3.54c-.274-.576-.655-.749-1.8-.813a18.715,18.715,0,0,1-11.247-4.781C68.228-512.068,67.876-512.2,67.155-512.01Zm1.087,3.469A22.1,22.1,0,0,0,78.7-504.111c.77.077.706-.038.655,1.171a32.574,32.574,0,0,1-1.807,10.414,17.419,17.419,0,0,1-4.86,7.265,19.907,19.907,0,0,1-4.486,2.976l-.554.256-.533-.243c-.288-.134-.914-.467-1.382-.742-5.249-3.06-8.245-7.783-9.31-14.7a33.542,33.542,0,0,1-.439-6.3,2.568,2.568,0,0,1,.569-.09,20.471,20.471,0,0,0,6.38-1.907,25.525,25.525,0,0,0,4.212-2.605,2.276,2.276,0,0,1,.49-.326A2.849,2.849,0,0,1,68.243-508.541Z" transform="translate(0)" fill="#ffbc05"/><path d="M173.471-323.781c-.168.061-.32.114-.336.114s-1.487,1.449-3.265,3.219l-3.226,3.219-1.693-1.686c-1.4-1.381-1.754-1.7-2.006-1.77a1.137,1.137,0,0,0-.824,0A1.652,1.652,0,0,0,161-319.2c0,.587.2.824,2.6,3.211,2.09,2.075,2.357,2.3,2.677,2.4a1.3,1.3,0,0,0,.763,0c.4-.092.465-.153,4.279-3.959,2.563-2.555,3.921-3.966,4.02-4.172a1.53,1.53,0,0,0-1-2.09A1.151,1.151,0,0,0,173.471-323.781Z" transform="translate(-100.593 -177)" fill="#ffbc05"/></g></svg>