<svg xmlns="http://www.w3.org/2000/svg" width="36.103" height="27.5" viewBox="0 0 36.103 27.5"><g transform="translate(0 451)"><path d="M11.127-450.852c-.423.219-.508.458-.55,1.5l-.035.9-.663.24a11,11,0,0,0-1.234.522l-.571.282-.6-.592a6.67,6.67,0,0,0-.754-.67,1.305,1.305,0,0,0-.924.021c-.226.127-3.349,3.258-3.462,3.476a1.37,1.37,0,0,0,0,.888,7.122,7.122,0,0,0,.663.755l.592.6-.289.585c-.155.317-.388.874-.515,1.234l-.233.649-.9.035c-1.051.042-1.283.127-1.509.564C.007-439.6,0-439.45,0-437.25s.007,2.348.141,2.609c.226.437.458.522,1.509.564l.9.035.233.649c.127.36.36.917.515,1.234l.289.585-.592.6a7.119,7.119,0,0,0-.663.754,1.305,1.305,0,0,0,.021.924c.127.226,3.258,3.349,3.476,3.462a1.37,1.37,0,0,0,.888,0,6.668,6.668,0,0,0,.754-.67l.6-.592.571.282a11,11,0,0,0,1.234.522l.663.24.035.9c.042,1.051.127,1.283.564,1.509.275.141.395.141,12.2.141s11.924,0,12.2-.141a.945.945,0,0,0,.423-.423c.141-.275.141-.395.141-10.013,0-8.779-.014-9.759-.113-9.964-.155-.31-6.487-6.656-6.812-6.826-.254-.127-.5-.134-9.026-.134C11.571-450.993,11.381-450.993,11.127-450.852Zm3.681,4.1v2.137l-1.114.007a6.08,6.08,0,0,0-2.729.515A7.68,7.68,0,0,0,6.9-440.035,5.951,5.951,0,0,0,6.4-437.25a5.951,5.951,0,0,0,.508,2.785,7.68,7.68,0,0,0,4.062,4.062,6.079,6.079,0,0,0,2.729.515l1.114.007v4.266H12.692v-.74c0-1.163-.169-1.4-1.192-1.65a10.445,10.445,0,0,1-2.567-1.051c-1.037-.62-1.234-.6-2.073.219l-.592.571-.747-.754-.754-.747.571-.592c.811-.825.839-1.051.254-2.017a9.918,9.918,0,0,1-1.121-2.757,1.241,1.241,0,0,0-.592-.917,2.053,2.053,0,0,0-1.022-.141h-.74v-2.115h.74a2.053,2.053,0,0,0,1.022-.141,1.241,1.241,0,0,0,.592-.917,9.918,9.918,0,0,1,1.121-2.757c.585-.966.557-1.192-.254-2.017l-.571-.592.754-.747.747-.754.592.571c.825.811,1.051.839,2.017.254a9.51,9.51,0,0,1,2.743-1.114c.881-.2,1.072-.494,1.072-1.622v-.74h2.115Zm12.833.621c0,2.623.007,2.771.141,3.032a.945.945,0,0,0,.423.423c.261.134.409.141,3.032.141h2.75v16.923H16.923v-23.269H27.641Zm3.49.141,1.34,1.34H29.757v-1.34c0-.74.007-1.34.021-1.34S30.4-446.734,31.132-445.994Zm-16.648,3.5.324.049v2.179l-.226-.042a3.141,3.141,0,0,0-3.06.839,3.1,3.1,0,0,0,.007,4.442,3.123,3.123,0,0,0,3.053.839l.226-.049v2.186l-.367.049a5.279,5.279,0,0,1-4.478-1.587,5.251,5.251,0,0,1,.938-8.1A5.4,5.4,0,0,1,14.483-442.5Zm-.24,4.33a1.113,1.113,0,0,1,.564.917,1.126,1.126,0,0,1-1.058,1.058,1.113,1.113,0,0,1-.917-.564.987.987,0,0,1,0-.987A1.021,1.021,0,0,1,14.244-438.167Z" transform="translate(0)" fill="#ffb405"/><path d="M270.55-360.852a1.129,1.129,0,0,0-.55.91,1.113,1.113,0,0,0,.564.917c.261.134.409.141,2.68.141s2.419-.007,2.68-.141a1.113,1.113,0,0,0,.564-.917,1.113,1.113,0,0,0-.564-.917c-.261-.134-.409-.141-2.694-.141S270.8-360.986,270.55-360.852Z" transform="translate(-250.961 -83.654)" fill="#ffb405"/><path d="M270.55-300.852a1.129,1.129,0,0,0-.55.91,1.113,1.113,0,0,0,.564.917c.268.141.4.141,5.853.141s5.585,0,5.853-.141a1.113,1.113,0,0,0,.564-.917,1.113,1.113,0,0,0-.564-.917C282-301,281.867-301,276.4-301,270.973-300.993,270.8-300.993,270.55-300.852Z" transform="translate(-250.961 -139.423)" fill="#ffb405"/><path d="M270.55-240.852a1.129,1.129,0,0,0-.55.91,1.113,1.113,0,0,0,.564.917c.268.141.4.141,5.853.141s5.585,0,5.853-.141a1.113,1.113,0,0,0,.564-.917,1.113,1.113,0,0,0-.564-.917C282-241,281.867-241,276.4-241,270.973-240.993,270.8-240.993,270.55-240.852Z" transform="translate(-250.961 -195.192)" fill="#ffb405"/><path d="M270.55-180.852a1.129,1.129,0,0,0-.55.91,1.113,1.113,0,0,0,.564.917c.268.141.4.141,5.853.141s5.585,0,5.853-.141a1.113,1.113,0,0,0,.564-.917,1.113,1.113,0,0,0-.564-.917C282-181,281.867-181,276.4-181,270.973-180.993,270.8-180.993,270.55-180.852Z" transform="translate(-250.961 -250.961)" fill="#ffb405"/></g></svg>