<svg xmlns="http://www.w3.org/2000/svg" width="34.863" height="34.86" viewBox="0 0 34.863 34.86"><g transform="translate(0.15 512.101)"><path d="M14.832-511.985c-.436.177-.531.422-.81,2.008l-.245,1.436-.953.313a16.171,16.171,0,0,0-1.919.8l-.973.483-1.041-.742c-1.239-.892-1.511-1.028-1.905-.966-.259.041-.429.191-1.96,1.729s-1.688,1.7-1.729,1.96c-.061.395.075.667.966,1.905L5-502.022l-.483.973a16.166,16.166,0,0,0-.8,1.919l-.313.953-1.436.245c-1.6.279-1.831.374-2.014.83a26.338,26.338,0,0,0,0,4.859c.184.456.415.551,2.014.83l1.436.245.313.953a16.168,16.168,0,0,0,.8,1.919l.483.973-.742,1.041c-.891,1.239-1.028,1.511-.966,1.905.041.259.191.429,1.729,1.96s1.7,1.688,1.96,1.729c.395.061.667-.075,1.905-.966l1.041-.742.973.483a16.171,16.171,0,0,0,1.919.8l.953.313.245,1.436c.279,1.6.374,1.831.83,2.014a26.338,26.338,0,0,0,4.859,0c.456-.184.551-.415.83-2.014l.245-1.436.953-.313a16.171,16.171,0,0,0,1.919-.8l.973-.483,1.041.742c1.239.891,1.511,1.028,1.905.966.259-.041.429-.191,1.96-1.729s1.688-1.7,1.729-1.96c.061-.395-.075-.667-.966-1.905l-.742-1.041.483-.973a16.168,16.168,0,0,0,.8-1.919l.313-.953,1.436-.245c1.6-.279,1.831-.374,2.014-.83a26.338,26.338,0,0,0,0-4.859c-.184-.456-.415-.551-2.014-.83l-1.436-.245-.313-.953a16.166,16.166,0,0,0-.8-1.919l-.483-.973.742-1.041c.891-1.239,1.028-1.511.966-1.905-.041-.259-.191-.429-1.729-1.96s-1.7-1.688-1.96-1.729c-.395-.061-.667.075-1.912.966l-1.041.749-.966-.49a15.708,15.708,0,0,0-1.919-.8l-.953-.313-.245-1.436c-.279-1.6-.374-1.831-.83-2.014A26.549,26.549,0,0,0,14.832-511.985Zm3.641,2.082c.02.089.109.633.2,1.211s.2,1.164.238,1.307c.116.415.429.619,1.259.83a11.783,11.783,0,0,1,3.471,1.443c.715.422.994.49,1.354.34a10.608,10.608,0,0,0,1.184-.776c.51-.367.973-.694,1.028-.721s.327.177.9.749a5.208,5.208,0,0,1,.783.885c-.014.041-.34.51-.721,1.034a12.385,12.385,0,0,0-.789,1.211c-.15.361-.082.64.34,1.354a11.784,11.784,0,0,1,1.443,3.471c.211.83.415,1.143.83,1.259.143.041.728.143,1.307.238s1.123.184,1.211.2c.15.034.15.048.15,1.191s0,1.157-.15,1.191c-.088.02-.633.109-1.211.2s-1.164.2-1.307.238c-.415.116-.619.429-.83,1.259a11.784,11.784,0,0,1-1.443,3.471c-.422.715-.49.994-.34,1.354a12.381,12.381,0,0,0,.789,1.211c.381.524.708.994.721,1.034a5.208,5.208,0,0,1-.783.885c-.572.572-.837.789-.9.749s-.517-.354-1.028-.721A10.624,10.624,0,0,0,25-484.574c-.361-.15-.64-.082-1.354.34a11.783,11.783,0,0,1-3.471,1.443c-.83.211-1.143.415-1.259.83-.041.143-.143.728-.238,1.307s-.184,1.123-.2,1.2c-.034.157-.048.157-1.191.157s-1.157,0-1.191-.15c-.02-.088-.109-.633-.2-1.211s-.2-1.164-.238-1.307c-.116-.415-.429-.619-1.259-.83a11.783,11.783,0,0,1-3.471-1.443c-.715-.422-.994-.49-1.354-.34a10.624,10.624,0,0,0-1.184.776c-.51.367-.973.694-1.028.721s-.327-.177-.9-.749a5.209,5.209,0,0,1-.783-.885c.014-.041.34-.51.721-1.034a12.382,12.382,0,0,0,.789-1.211c.15-.361.082-.64-.34-1.354A11.784,11.784,0,0,1,5.4-491.78c-.211-.83-.415-1.143-.83-1.259-.143-.041-.728-.143-1.307-.238s-1.123-.184-1.211-.2c-.15-.034-.15-.048-.15-1.191s0-1.157.157-1.191c.082-.02.626-.109,1.2-.2s1.164-.2,1.307-.238c.415-.116.619-.429.83-1.259a11.784,11.784,0,0,1,1.443-3.471c.422-.715.49-.994.34-1.354a12.385,12.385,0,0,0-.789-1.211c-.381-.524-.708-.994-.721-1.034a5.209,5.209,0,0,1,.783-.885c.572-.572.837-.789.9-.749s.517.354,1.028.721a10.608,10.608,0,0,0,1.184.776c.361.15.64.082,1.354-.34a11.783,11.783,0,0,1,3.471-1.443c.83-.211,1.143-.415,1.259-.83.041-.143.143-.728.238-1.307s.184-1.123.2-1.211c.034-.15.048-.15,1.191-.15S18.438-510.052,18.472-509.9Z" fill="#ffbc05"/><path d="M129.087-390.691a9.056,9.056,0,0,0-5.179,2.613,9.127,9.127,0,0,0-1.171,11.542,10.241,10.241,0,0,0,2.572,2.566,9.088,9.088,0,0,0,11.542-1.164,9.011,9.011,0,0,0,2.661-5.635,9.222,9.222,0,0,0-6.608-9.657A9.329,9.329,0,0,0,129.087-390.691Zm2.266,2.014a7.163,7.163,0,0,1,6.07,8.194,7.361,7.361,0,0,1-1.062,2.756l-.129.17-.225-.272a7.343,7.343,0,0,0-2.212-1.878l-.361-.2.245-.327a4.072,4.072,0,0,0,.681-3.239,4.149,4.149,0,0,0-3.981-3.232,4.149,4.149,0,0,0-3.981,3.232,4.072,4.072,0,0,0,.681,3.239l.245.327-.361.2a7.343,7.343,0,0,0-2.212,1.878l-.225.272-.129-.17a7.7,7.7,0,0,1-.789-1.64,7.17,7.17,0,0,1,4.73-9.078A7.209,7.209,0,0,1,131.353-388.677Zm-.143,4.2a2.276,2.276,0,0,1,1.028,1.028,1.764,1.764,0,0,1,.15.823,1.8,1.8,0,0,1-.578,1.429,1.8,1.8,0,0,1-1.429.578,2.019,2.019,0,0,1-.646-3.933A2.171,2.171,0,0,1,131.21-384.478Zm.429,6.1a6.576,6.576,0,0,1,1.994,1.021,6.124,6.124,0,0,1,1.048,1.177l.116.2-.558.368a7.678,7.678,0,0,1-2.232.96,8.18,8.18,0,0,1-3.253,0,7.678,7.678,0,0,1-2.232-.96l-.558-.368.116-.2a5.375,5.375,0,0,1,2.613-2.062A5.557,5.557,0,0,1,131.639-378.38Z" transform="translate(-113.098 -113.067)" fill="#ffbc05"/></g></svg>