<svg xmlns="http://www.w3.org/2000/svg" width="29.72" height="33.967" viewBox="0 0 29.72 33.967"><g transform="translate(-31.998 511.948)"><path d="M48.834-511.845a7.438,7.438,0,0,0-5.38,3.945,7.349,7.349,0,0,0-.007,6.754,6.885,6.885,0,0,0,1.508,2.019l.591.571-.511.213a10.6,10.6,0,0,0-1.8.976c-.412.272-.425.272-.7.193-.153-.046-.717-.226-1.262-.392a10.813,10.813,0,0,0-1.109-.306c-.266,0-7.538,2.344-7.744,2.5-.445.325-.425.113-.425,5.326a49.632,49.632,0,0,0,.1,5.273,7.708,7.708,0,0,0,4.622,5.765,13.15,13.15,0,0,0,1.375.571,3.681,3.681,0,0,1,.764.319c.193.139.2.139,11.2.139H61.081l.179-.139a1.811,1.811,0,0,0,.319-.319c.139-.179.139-.232.139-5.639,0-5.966.007-5.844-.405-7.266a11.065,11.065,0,0,0-4.988-6.369,12.483,12.483,0,0,0-1.182-.6,2.622,2.622,0,0,1-.558-.279,2.505,2.505,0,0,1,.4-.359,7.844,7.844,0,0,0,2.4-4.2,11.669,11.669,0,0,0,0-2.723,7.773,7.773,0,0,0-3-4.7A7.577,7.577,0,0,0,48.834-511.845Zm2.491,2.178a5.325,5.325,0,0,1,3.194,2.285,5.3,5.3,0,0,1-1.581,7.319,5.284,5.284,0,0,1-6.588-.671,5,5,0,0,1-1.567-3.779,4.8,4.8,0,0,1,.83-2.876,5.351,5.351,0,0,1,3.487-2.344A6.558,6.558,0,0,1,51.325-509.667Zm1.461,12.811a8.674,8.674,0,0,1,4.941,3.135,8.367,8.367,0,0,1,1.687,3.487l.173.7.02,4.729.027,4.735H56.438l-.013-4.974c-.02-4.908-.02-4.981-.159-5.16a.938.938,0,0,0-.89-.458.938.938,0,0,0-.89.458c-.139.179-.139.252-.159,5.16l-.013,4.974h-8.5v-.139a2.245,2.245,0,0,1,.491-.671,7.509,7.509,0,0,0,1.82-3.228l.179-.644.02-4.981c.007-2.743,0-5.047-.02-5.127a1.242,1.242,0,0,0-.239-.385c-.186-.206-.339-.272-1.361-.6-.638-.2-1.156-.379-1.156-.392a8.863,8.863,0,0,1,1.627-.571,10.016,10.016,0,0,1,3.121-.226A8.914,8.914,0,0,1,52.786-496.855ZM43.2-494.737l3.009.95v4.25c0,3.985-.007,4.284-.133,4.788a5.445,5.445,0,0,1-.292.91,7.112,7.112,0,0,1-4.848,3.566c-.717.186-.75.186-1.169.093a7.166,7.166,0,0,1-5.28-3.859c-.359-.883-.372-1.1-.352-5.592l.02-4.151,2.358-.744c1.3-.412,2.63-.837,2.955-.943s.624-.2.664-.206S41.548-495.255,43.2-494.737Z" fill="#ffbc05"/><path d="M106.93-205.555a12.456,12.456,0,0,0-2.026,1.86l-1.8,1.787-.757-.764c-.83-.837-1.129-1.009-1.574-.943a1.082,1.082,0,0,0-.79,1.494,19.709,19.709,0,0,0,1.381,1.454c1.1,1.089,1.322,1.275,1.534,1.315.571.106.644.053,2.929-2.212,1.162-1.162,2.2-2.238,2.3-2.4A1.059,1.059,0,0,0,106.93-205.555Z" transform="translate(-63.376 -286)" fill="#ffbc05"/></g></svg>