<svg xmlns="http://www.w3.org/2000/svg" width="35.677" height="35.593" viewBox="0 0 35.677 35.593"><g transform="translate(0.129 512.046)"><path d="M11.974-511.75a7.4,7.4,0,0,0-5.7,4.011,7.32,7.32,0,0,0-.755,2.651c-.041.385-.041.385-.33.474a7.947,7.947,0,0,0-1.889.941,7.392,7.392,0,0,0-3.063,4.821,7.367,7.367,0,0,0,5.007,8.18,10.744,10.744,0,0,0,3.764.343h2.177v4.052H9.364c-1.676,0-1.827-.007-1.861-.124a4.38,4.38,0,0,0-.865-1.429,3.708,3.708,0,0,0-5.453-.007,3.742,3.742,0,0,0,1.621,6.174,4.325,4.325,0,0,0,2.095.028,3.846,3.846,0,0,0,2.534-2.321l.1-.254,2.507-.021c2.4-.021,2.514-.027,2.692-.165a1.873,1.873,0,0,0,.33-.33c.137-.179.144-.282.165-2.9l.021-2.706h3.427v6.215l-.536.24a4.164,4.164,0,0,0-1.793,1.717,3.86,3.86,0,0,0-.316,2.534,3.76,3.76,0,0,0,3.674,2.919,3.76,3.76,0,0,0,3.674-2.919,3.86,3.86,0,0,0-.316-2.534,4.164,4.164,0,0,0-1.793-1.717l-.536-.24v-6.215h3.427l.021,2.706c.021,2.617.027,2.72.165,2.9a1.873,1.873,0,0,0,.33.33c.179.137.288.144,2.692.165l2.507.021.1.254a3.448,3.448,0,0,0,.852,1.312,3.59,3.59,0,0,0,2.713,1.126,3.743,3.743,0,0,0,3.64-2.912,3.648,3.648,0,0,0-.955-3.406,3.708,3.708,0,0,0-5.453.007,4.38,4.38,0,0,0-.865,1.429c-.034.117-.185.124-1.861.124h-1.82v-4.052h2.184a10.721,10.721,0,0,0,3.757-.343,7.349,7.349,0,0,0,5.089-7.314,7.348,7.348,0,0,0-4.746-6.524l-.412-.158-.213-.618a8.093,8.093,0,0,0-2.019-3.242,8.026,8.026,0,0,0-5.632-2.452,7.962,7.962,0,0,0-3.983.838l-.481.24-.446-.337a7.145,7.145,0,0,0-3.777-1.518A5.3,5.3,0,0,0,11.974-511.75Zm2.081,2.163a5.939,5.939,0,0,1,1.765.783,10.031,10.031,0,0,1,.858.728c.536.5.549.508.913.508a1.18,1.18,0,0,0,.8-.275,6.048,6.048,0,0,1,3.235-1.078,6.078,6.078,0,0,1,3.448.8,6.522,6.522,0,0,1,3.152,4.492c.117.481.364.68,1.106.9a5.2,5.2,0,0,1,3.173,2.438,5.267,5.267,0,0,1-1.181,6.689,6.293,6.293,0,0,1-2.294,1.106c-.467.1-1.834.11-11.318.11-12.19,0-11.332.034-12.534-.549a5.187,5.187,0,0,1-2.8-3.345,6.182,6.182,0,0,1-.034-2.63,5.364,5.364,0,0,1,3.976-3.873c1.071-.268,1.222-.433,1.222-1.415A5.344,5.344,0,0,1,9-508.083a5.317,5.317,0,0,1,3.386-1.641A6.756,6.756,0,0,1,14.055-509.587ZM4.591-486.82a1.653,1.653,0,0,1,1.01,1.442,1.694,1.694,0,0,1-1.7,1.8,1.654,1.654,0,0,1-1.566-1.044A1.678,1.678,0,0,1,3.9-486.964,1.73,1.73,0,0,1,4.591-486.82Zm27.609,0a1.653,1.653,0,0,1,1.01,1.442,1.694,1.694,0,0,1-1.7,1.8,1.654,1.654,0,0,1-1.566-1.044,1.678,1.678,0,0,1,1.566-2.342A1.73,1.73,0,0,1,32.2-486.82Zm-13.8,4.807a1.653,1.653,0,0,1,1.01,1.442,1.694,1.694,0,0,1-1.7,1.8,1.654,1.654,0,0,1-1.566-1.044,1.678,1.678,0,0,1,1.566-2.342A1.73,1.73,0,0,1,18.4-482.012Z" transform="translate(0)" fill="#ffbc05" stroke="#ffbc05" stroke-width="0.5"/></g></svg>