<svg xmlns="http://www.w3.org/2000/svg" width="31.098" height="24" viewBox="0 0 31.098 24"><path d="M31.1,74.892V62.079H20.107v-.913a2.738,2.738,0,0,0-2.735-2.735h-5.9L7.828,62.079H0V74.892H3.647v2.591l7.841,4.572A2.72,2.72,0,0,0,15.1,81.27l.935-1.323,10.71-5.055Zm-5.469-3.169-5.782-6H15.172l-3.28,3.28A.913.913,0,0,1,10.6,67.716L14.416,63.9H25.629Zm3.647,1.347H27.451V63.9h1.825ZM8.583,63.9l3.647-3.647h5.143a.914.914,0,0,1,.912.913v.913H13.661L9.313,66.428a2.735,2.735,0,1,0,3.867,3.867l2.746-2.746h3.146L25,73.7l-9.362,4.419L8.495,73.07H5.469V63.9Zm-6.761,0H3.647V73.07H1.822Zm10.584,16.58L5.469,76.437V74.892H7.916l6.309,4.457-.615.87a.907.907,0,0,1-1.2.262Z" transform="translate(0 -58.432)" fill="#ffbc05"/></svg>