<svg xmlns="http://www.w3.org/2000/svg" width="187.251" height="60.743" viewBox="0 0 187.251 60.743"><g transform="translate(0 0)"><path d="M656.671,104.013a2.15,2.15,0,0,0,1.647.835c3.129,0,6.257-.012,9.385,0,.419,0,.5-.143.491-.545-.023-1.28,0-2.561-.016-3.842,0-.347.077-.468.423-.455a13.723,13.723,0,0,1,3.917.3c2.558.839,3.233,3.169,2.555,5.509a.307.307,0,0,1-.122.207.278.278,0,0,1-.228.047c-.128-.012-.257,0-.386,0h-16.6a3.06,3.06,0,0,1-2.156-.813.336.336,0,0,0-.233-.135.329.329,0,0,0-.254.082,5.535,5.535,0,0,1-3.2.873c-2.871-.03-5.744,0-8.616,0a2.531,2.531,0,0,1-2.705-1.97c-.053.03-.12.047-.151.092-1.039,1.483-3.369.906-4.058-.729a4.51,4.51,0,0,1-.031-3.529,2.363,2.363,0,0,1,2.241-1.542c1.09-.042,2.182,0,3.273-.018.3,0,.326.13.325.388-.01,1.365,0,2.728,0,4.094a5.016,5.016,0,0,0,.075.851,1.265,1.265,0,0,0,1.337,1.124c2.759.012,5.515.02,8.278,0a4.722,4.722,0,0,0,2.247-.66c.333-.184.288-.311.025-.51a9.639,9.639,0,0,0-2.794-1.536.4.4,0,0,1-.266-.17.444.444,0,0,1-.074-.318c0-1.27-.019-1.294,1.115-1.737a9.041,9.041,0,0,1,7.07.143.811.811,0,0,1,.514.828,1.371,1.371,0,0,1-.7,1.422C658.2,102.8,657.468,103.416,656.671,104.013Zm15.016.828h1.546c.193,0,.291-.052.3-.276a3.405,3.405,0,0,0-.406-2.031,3.239,3.239,0,0,0-3.092-1.314c-.193.055-.147.189-.147.306v2.982c0,.264.069.353.325.343.476-.017.974,0,1.471,0Zm-31.11-3.789c0-1.4,0-1.4-1.122-1.4a4.528,4.528,0,0,0-.58.032,1.361,1.361,0,0,0-1.138.88,2.628,2.628,0,0,0,.155,2.454,1.31,1.31,0,0,0,.974.66,1.276,1.276,0,0,0,1.092-.408,2.1,2.1,0,0,0,.533-1.05,5.087,5.087,0,0,0,.088-1.172Zm17.39.224a5.7,5.7,0,0,0-5.007.02,7.4,7.4,0,0,1,2.446,1.565c.12.12.213.1.334,0,.736-.518,1.474-1.042,2.23-1.58Z" transform="translate(-513.159 -78.394)" fill="#12176e"/><path d="M365.074,98.965a3.88,3.88,0,0,0-.455,4.743,2.01,2.01,0,0,0,1.718.949H378.36a5.4,5.4,0,0,0-.406-1.164,7.591,7.591,0,0,1-.72-2.748A2.263,2.263,0,0,1,378.91,98.4a8.614,8.614,0,0,1,2.58-.2c.432,0,.963-.15,1.268.065s.386.813.566,1.242c.479,1.219.98,2.409,1.423,3.634a2.089,2.089,0,0,0,2.11,1.506c2.539.022,5.07,0,7.606.014.313,0,.41-.083.408-.421-.016-1.6,0-3.2-.016-4.8,0-.362.093-.473.427-.434.386.045.912-.17,1.159.079s.072.8.074,1.219c.01,1.718,0,3.437.011,5.154,0,.352-.077.445-.418.443-3.306-.014-6.61,0-9.917-.014a2.814,2.814,0,0,1-2.751-1.841c-.525-1.231-.991-2.438-1.48-3.657-.3-.747-.3-.756-1.1-.742a5.794,5.794,0,0,0-.957.086,1.044,1.044,0,0,0-.759.441,1.155,1.155,0,0,0-.189.89,4.8,4.8,0,0,0,.35,1.306c.438,1.154.875,2.305,1.335,3.527H366.226a3.508,3.508,0,0,1-3.5-1.944,5.058,5.058,0,0,1,.112-4.74.352.352,0,0,1,.328-.246C363.775,98.97,364.378,98.965,365.074,98.965Z" transform="translate(-292.282 -78.208)" fill="#12176e"/><path d="M870.7,102.268h-10.06c-.34,0-.46-.057-.456-.455q.031-3.865,0-7.731c0-.355.088-.478.423-.439.386.047.908-.17,1.159.081s.073.8.075,1.219c.01,1.869.018,3.74,0,5.609,0,.406.123.493.487.491q7.536-.018,15.072,0c.472,0,.566-.2.613-.609a3.332,3.332,0,0,0-.8-2.827,2.976,2.976,0,0,0-2.654-.956,5.867,5.867,0,0,0-1.69.357c-.263.106-.35.03-.461-.2-.4-.828-.41-.828.45-1.091a5.641,5.641,0,0,1,5.242.707,4.035,4.035,0,0,1,1.663,4.118c-.064.406.035.547.419.491.159-.022.325.018.482,0,.5-.086.637.116.632.644,0,.483-.112.609-.58.609C877.37,102.258,874.029,102.268,870.7,102.268Z" transform="translate(-694.038 -74.582)" fill="#12176e"/><path d="M406.35,172.779v5.093c0,.276.133.687-.072.813-.323.2-.748.065-1.128.059-.193,0-.149-.184-.149-.313v-7.986c0-.225.054-.313.293-.333a1.494,1.494,0,0,1,1.479.644c1.242,1.652,2.539,3.251,3.749,4.934.077.108.118.323.307.236.139-.065.079-.239.081-.368,0-1.668.011-3.335,0-5,0-.345.074-.46.419-.451.941.018.941,0,.941.965V178.3c0,.343-.08.434-.419.468a1.366,1.366,0,0,1-1.333-.644C409.137,176.347,407.741,174.593,406.35,172.779Z" transform="translate(-326.809 -135.545)" fill="#12176e"/><path d="M795.317,174.454v-3.943c0-.167-.073-.4.226-.388a23.84,23.84,0,0,1,3.939.13c3.14.609,3.573,3.453,2.927,5.614a3.88,3.88,0,0,1-3.569,2.832c-1.071.134-2.148.024-3.223.063-.333.012-.306-.189-.306-.416C795.319,177.05,795.317,175.752,795.317,174.454Zm1.671-.018v1.816c0,1.5,0,1.493,1.453,1.308a2.39,2.39,0,0,0,2.153-1.585,4.794,4.794,0,0,0,.193-2.629,2.334,2.334,0,0,0-1.9-1.958,10.529,10.529,0,0,0-1.576-.071c-.257-.018-.326.079-.323.343.006.924,0,1.851,0,2.776Z" transform="translate(-641.702 -135.547)" fill="#12176e"/><path d="M885.733,174.081c.245.079.4.124.545.179a1.966,1.966,0,0,1,1.376,1.544,2.274,2.274,0,0,1-.715,2.186,3.239,3.239,0,0,1-2.189.776c-.85.022-1.7,0-2.551.01-.263,0-.367-.065-.365-.368v-7.935c0-.168-.023-.35.227-.341a31.125,31.125,0,0,1,3.316.065,1.828,1.828,0,0,1,1.778,1.487A2.133,2.133,0,0,1,886,173.918Zm-1.536.747c-.664,0-.664,0-.664.675v1.16c0,1.127.106,1.219,1.192.991a2.087,2.087,0,0,0,.369-.108,1.4,1.4,0,0,0,.788-.887,1.485,1.485,0,0,0-.15-1.2,1.573,1.573,0,0,0-1.528-.628Zm-.664-2.346v1.012c0,.116,0,.2.155.256a1.716,1.716,0,0,0,1.794-.888,1.158,1.158,0,0,0-.141-1.272,1.91,1.91,0,0,0-1.681-.327c-.294.2-.067.609-.122.92a1.757,1.757,0,0,0,0,.294Z" transform="translate(-711.51 -135.56)" fill="#12176e"/><path d="M548.071,178.771a4.886,4.886,0,0,0-.963.01c-.823.184-1.2-.252-1.474-.988s-.653-1.457-.989-2.179a.976.976,0,0,0-1.01-.254c-.109.1-.058.254-.06.384,0,.875-.014,1.749,0,2.625,0,.3-.066.406-.369.406-1.341.029-1.341.039-1.341-1.351v-6.815c0-.368.066-.5.442-.486.991.052,1.988-.059,2.976.061a2.058,2.058,0,0,1,2.007,1.578,2.617,2.617,0,0,1-.864,2.8c-.413.319-.344.522-.136.9C546.878,176.527,547.445,177.614,548.071,178.771Zm-4.413-6.051v.609c0,.9.064.954.914.813l.046-.01a1.486,1.486,0,0,0,1.159-1.649c-.062-.744-.533-1.131-1.376-1.138a3.811,3.811,0,0,1-.431,0c-.243-.029-.344.057-.327.329.029.34.014.694.014,1.046Z" transform="translate(-437.227 -135.56)" fill="#12176e"/><path d="M846.187,173.349a25.767,25.767,0,0,1-.056,2.791,2.954,2.954,0,0,1-2.767,2.733,4.6,4.6,0,0,1-1.719-.128,2.865,2.865,0,0,1-2.125-3.086c-.043-1.723,0-3.472-.016-5.206,0-.258.074-.34.327-.35,1.353-.055,1.353-.063,1.353,1.343,0,1.349,0,2.7.021,4.045a3.9,3.9,0,0,0,.141.942,1.488,1.488,0,0,0,1.461,1.219,1.564,1.564,0,0,0,1.64-1.057,3.639,3.639,0,0,0,.234-1.381c0-1.55.011-3.1-.011-4.652,0-.388.106-.478.46-.471,1.061.017,1.063,0,1.063,1.093Z" transform="translate(-677.353 -135.531)" fill="#12176e"/><path d="M368.965,173.048v2.428a3.188,3.188,0,0,1-.806,2.288,2.877,2.877,0,0,1-2.133.963,5.279,5.279,0,0,1-1.488-.111,2.805,2.805,0,0,1-2.217-2.9c-.058-1.818-.018-3.638-.027-5.459,0-.2.035-.288.257-.309,1.436-.128,1.426-.136,1.437,1.357s-.075,2.966.045,4.445a1.753,1.753,0,0,0,.67,1.45,1.57,1.57,0,0,0,1.518.229,1.749,1.749,0,0,0,1.159-1.526,9.533,9.533,0,0,0,.087-1.964c0-1.2.01-2.393,0-3.589,0-.3.062-.406.369-.406,1.115,0,1.115-.022,1.115,1.134C368.965,171.74,368.965,172.392,368.965,173.048Z" transform="translate(-292.357 -135.376)" fill="#12176e"/><path d="M560.18,109.179c-1.444,0-2.889-.017-4.33.01-.386,0-.525-.114-.464-.5a1.071,1.071,0,0,0,0-.3c-.053-.357.087-.449.425-.445,2.245.014,4.491,0,6.737,0,.727,0,.634.1.64-.668a5.355,5.355,0,0,0-.088-1.405,3.073,3.073,0,0,0-3.092-2.3c-1.159-.017-2.319-.018-3.465,0-.369,0-.541-.083-.481-.5a2.741,2.741,0,0,0,0-.5c0-.177.031-.284.235-.276a39.506,39.506,0,0,1,4.755.111,4.436,4.436,0,0,1,3.865,3.717,24.977,24.977,0,0,1,.056,2.824c0,.333-.222.222-.37.224C563.131,109.181,561.657,109.179,560.18,109.179Z" transform="translate(-448.129 -81.493)" fill="#12176e"/><path d="M923.374,178.77h-1.546c-.193,0-.274-.092-.33-.276-.175-.575-.386-1.139-.552-1.718a.454.454,0,0,0-.178-.3.412.412,0,0,0-.33-.072c-.706.022-1.41.02-2.125,0a.417.417,0,0,0-.487.343c-.175.559-.4,1.1-.58,1.657a.462.462,0,0,1-.52.382c-1.106,0-1.1.012-.68-1.075.914-2.346,1.838-4.686,2.724-7.045a.662.662,0,0,1,.762-.535c.837.037.837.012,1.128.828l2.705,7.547A.231.231,0,0,1,923.374,178.77Zm-3.835-6.7c-.357,1.012-.7,1.981-1.043,2.953-.1.276-.053.355.226.347.525-.017,1.059,0,1.588,0,.181,0,.263-.022.193-.254C920.168,174.1,919.855,173.082,919.539,172.066Z" transform="translate(-738.896 -135.559)" fill="#12176e"/><path d="M509.583,174.454v-3.842c0-.335.06-.471.416-.46q1.807.037,3.609,0c.342,0,.468.1.421.453a1.577,1.577,0,0,0,0,.406c.037.3-.1.362-.36.355-.69-.017-1.38,0-2.069-.01-.243,0-.338.052-.328.331.021.552.019,1.111,0,1.668,0,.268.069.343.323.337.674-.018,1.353.012,2.021-.014.309-.012.369.092.367.4,0,.813,0,.813-.788.813-.525,0-1.059.01-1.588,0-.237,0-.34.047-.333.327.019.69.018,1.381,0,2.072,0,.268.073.341.323.337.85-.014,1.7,0,2.551-.012.313,0,.438.084.386.419a2,2,0,0,0,0,.455c.021.239-.067.325-.3.325-1.444,0-2.9-.012-4.332,0-.311,0-.326-.155-.325-.406C509.587,177.082,509.583,175.768,509.583,174.454Z" transform="translate(-411.183 -135.581)" fill="#12176e"/><path d="M463.92,170a.17.17,0,0,1,.05-.018,3.84,3.84,0,0,1,1.658.051c.445.237.445,1.012.622,1.565.539,1.652,1.051,3.313,1.6,5.044.248-.756.474-1.454.706-2.154.454-1.363.92-2.722,1.364-4.089a.514.514,0,0,1,.579-.441c1.132.02,1.132,0,.717,1.091-.9,2.352-1.805,4.7-2.69,7.061-.135.36-.284.524-.684.506-.885-.039-.883-.012-1.2-.88l-2.556-7.11a1.433,1.433,0,0,1-.168-.628Z" transform="translate(-374.346 -135.396)" fill="#12176e"/><path d="M581.051,169.524a3.254,3.254,0,0,1,1.871.526c.211.143.3.276.1.5a1.446,1.446,0,0,0-.216.333c-.126.258-.263.319-.518.146a1.719,1.719,0,0,0-1.332-.283.812.812,0,0,0-.681.53.882.882,0,0,0,.146.878,5.223,5.223,0,0,0,.991.949,10.183,10.183,0,0,1,1.352,1.276,2.343,2.343,0,0,1,.607,2.164,2.224,2.224,0,0,1-1.471,1.643,3.665,3.665,0,0,1-3.414-.333c-.274-.165-.386-.341-.133-.609a.288.288,0,0,0,.05-.086c.193-.451.4-.644.861-.252a1.769,1.769,0,0,0,1.42.34,1.083,1.083,0,0,0,.893-.6,1.192,1.192,0,0,0-.018-1.114,3.219,3.219,0,0,0-.963-1.04c-.371-.3-.792-.628-1.173-.961a2.193,2.193,0,0,1-.839-2.438,2.306,2.306,0,0,1,2.069-1.533,2.541,2.541,0,0,1,.4-.037Z" transform="translate(-466.551 -135.083)" fill="#12176e"/><path d="M664.14,170.009a.827.827,0,0,1,.122-.037,4.268,4.268,0,0,1,1.751.051c.485.239.551,1.042.808,1.59.32.688.607,1.4.939,2.166.559-1.156,1.106-2.216,1.585-3.307a.749.749,0,0,1,.837-.52c.924.03.924,0,.479.828-.688,1.272-1.37,2.546-2.068,3.809a1.743,1.743,0,0,0-.224.906c.013.908,0,1.818.01,2.728,0,.288-.088.39-.357.368a6.917,6.917,0,0,0-.963,0c-.311.024-.387-.111-.367-.406.021-.488-.039-.981.014-1.462a5.251,5.251,0,0,0-.8-3.33C665.272,172.317,664.739,171.17,664.14,170.009Z" transform="translate(-535.878 -135.385)" fill="#12176e"/><path d="M713.62,184.732a3.192,3.192,0,0,1,.878-2.278,2.879,2.879,0,0,1,2.177-.9,3.079,3.079,0,0,1,2.865,2,3.358,3.358,0,0,1-.68,3.542,2.968,2.968,0,0,1-3.377.672,3.248,3.248,0,0,1-1.864-3.036Zm4.479-.158a3.244,3.244,0,0,0-.294-1.316,1.207,1.207,0,0,0-1.107-.757,1.158,1.158,0,0,0-1.107.756,3.788,3.788,0,0,0,.056,3.167,1.093,1.093,0,0,0,1.05.675,1.181,1.181,0,0,0,1.08-.713,3.87,3.87,0,0,0,.322-1.81Z" transform="translate(-575.798 -144.674)" fill="#12176e"/><path d="M631.2,175v3.384c0,.286-.077.368-.35.368-1.313.03-1.313.04-1.313-1.329,0-1.885-.011-3.773,0-5.656,0-.388-.1-.488-.454-.465-.543.032-1.09-.012-1.635.017-.309.017-.408-.1-.363-.406a.89.89,0,0,0,0-.1c0-.7,0-.7.651-.7,1.8,0,3.589.027,5.387-.014.579-.014.423.353.456.676.038.38-.021.591-.467.552-.525-.047-1.057,0-1.586-.018-.27,0-.35.073-.35.362C631.211,172.782,631.2,173.893,631.2,175Z" transform="translate(-505.978 -135.541)" fill="#12176e"/><path d="M749.943,177.1c-.794,0-.794,0-.794-.851,0-1.3-.016-2.592,0-3.888,0-.429-.06-.673-.525-.575-.362.075-.406-.126-.411-.453s.109-.465.416-.406c.411.075.531-.077.525-.532A2.235,2.235,0,0,1,750,168.4a2,2,0,0,1,2.062-.23c.147.051.462.049.272.368-.122.2.043.656-.479.552-.788-.163-1.106.143-1.125.981a2.667,2.667,0,0,1,0,.353c-.056.392.083.56.469.5.157-.024.325.018.479,0,.413-.073.464.15.456.512,0,.283-.075.362-.35.368-1.057.012-1.055.024-1.055,1.117,0,1.2-.023,2.393.011,3.589.014.481-.1.695-.58.609a1.329,1.329,0,0,0-.221-.029Z" transform="translate(-603.703 -133.884)" fill="#12176e"/><path d="M449.954,174.417v-3.888c0-.3.069-.406.373-.406,1.337-.02,1.337-.03,1.337,1.355v6.815c0,.374-.079.524-.448.478-.41-.052-.957.184-1.2-.106-.193-.246-.067-.8-.069-1.219Z" transform="translate(-363.045 -135.557)" fill="#12176e"/><path d="M960.655,174.406v-3.89c0-.306.075-.406.375-.406,1.285-.014,1.285-.024,1.285,1.3v6.87c0,.368-.074.524-.445.473s-.92.184-1.148-.1c-.193-.237-.066-.772-.067-1.174C960.654,176.461,960.655,175.433,960.655,174.406Z" transform="translate(-775.067 -135.547)" fill="#12176e"/><path d="M613.237,174.457v-3.941c0-.306.074-.406.375-.406,1.285-.014,1.285-.024,1.285,1.3v6.87c0,.368-.072.526-.445.473s-.92.184-1.159-.1c-.194-.236-.066-.77-.067-1.174C613.233,176.478,613.237,175.468,613.237,174.457Z" transform="translate(-494.77 -135.547)" fill="#12176e"/><path d="M644.439,86.817c-.827,0-.8,0-.837-.868-.019-.451.11-.609.525-.537a1.7,1.7,0,0,0,.288,0c.893,0,.875,0,.9.934,0,.368-.072.535-.442.469a3.052,3.052,0,0,0-.431,0Z" transform="translate(-519.307 -68.046)" fill="#12176e"/><path d="M512.136,143.567c-.833,0-.808,0-.842-.9-.017-.434.116-.571.5-.5a1.708,1.708,0,0,0,.288,0c.963,0,1.074.138.916,1.173-.025.165-.08.236-.237.232C512.552,143.561,512.343,143.567,512.136,143.567Z" transform="translate(-412.565 -113.268)" fill="#12176e"/><path d="M418.256,142.173c.773,0,.748,0,.788.849.023.48-.136.624-.554.552a1.7,1.7,0,0,0-.288,0c-.861,0-.84,0-.869-.884-.013-.406.079-.594.491-.522a2.542,2.542,0,0,0,.432,0Z" transform="translate(-336.762 -113.276)" fill="#12176e"/><path d="M402.468,143.561c-.815,0-.788,0-.827-.87-.019-.443.095-.609.518-.537a2.54,2.54,0,0,0,.431,0c.754,0,.754,0,.754.786C403.343,143.561,403.343,143.561,402.468,143.561Z" transform="translate(-324.101 -113.261)" fill="#12176e"/><path d="M660.183,85.419c.794,0,.773,0,.8.828.018.447-.087.656-.541.572a1.838,1.838,0,0,0-.334,0c-.788,0-.773,0-.8-.843-.019-.451.1-.644.538-.562a1.839,1.839,0,0,0,.334,0Z" transform="translate(-531.981 -68.049)" fill="#12176e"/><path d="M931.174,143.567c-.821,0-.792,0-.833-.873-.021-.46.116-.594.525-.535a2.316,2.316,0,0,0,.671,0c.4-.061.51.092.5.516C932.013,143.564,932.028,143.567,931.174,143.567Z" transform="translate(-750.64 -113.267)" fill="#12176e"/><path d="M28.915,60.731C12.968,60.706.057,47.1.069,30.336S13.013-.013,28.96-.012s28.875,13.585,28.887,30.35c-.006,16.792-12.959,30.4-28.932,30.393ZM9.854,48.022l-.067-.073q.788-1.422,1.576-2.828c.083-.148.243-.3.083-.5a3.282,3.282,0,0,0-.6-.736c-.744,1.473-1.466,2.933-2.21,4.378-.151.295.075.382.175.552a.392.392,0,0,0,.225.2A.369.369,0,0,0,9.334,49c1.391-.535,2.794-1.058,4.193-1.577.066-.024.168-.014.165-.134-.5-.644-.5-.644-1.208-.347ZM6.832,39.4a.592.592,0,0,0,.062.061c-.56,1.152-1.113,2.307-1.687,3.453a.709.709,0,0,0,.155.778c.142.213.32-.022.464-.087q1.714-.792,3.414-1.625c.143-.069.487-.049.284-.406-.136-.236-.193-.567-.613-.34-.788.421-1.612.774-2.451,1.17a.949.949,0,0,1,.193-.552c.479-1.012.952-2.016,1.451-3.01a.741.741,0,0,0-.116-.794c-.141-.212-.338.042-.491.111-1.128.514-2.249,1.055-3.377,1.565-.28.128-.386.227-.242.577.158.39.336.284.589.165C5.25,40.108,6.042,39.758,6.832,39.4Zm2.6-9.078v-.008ZM35.658,6.6a1.9,1.9,0,0,1-1.3.04,25.1,25.1,0,0,0-4.177-.656c-.688-.052-.9-.3-.912-1.012s-.033-1.422-.023-2.117c0-.286-.077-.39-.35-.368-.4.027-.8.02-1.2.022-1.324,0-1.873.609-1.789,2a1.622,1.622,0,0,0,.889,1.5,1.2,1.2,0,0,0,1.594-.416,1.6,1.6,0,0,0,1.772,1.174,14.338,14.338,0,0,1,2.2.239,25.462,25.462,0,0,0,2.692.51c.839.027.84,0,1.439.528a2.024,2.024,0,0,0,.543.317c.34.148.686.283,1.018.445a22.541,22.541,0,0,1,6.537,4.725c.122.128.214.368.467.184a2.349,2.349,0,0,0,.788-3.453,8.26,8.26,0,0,0-1.5-1.481c-.179-.168-.248,0-.334.106-.411.516-.829,1.028-1.231,1.552-.149.2-.257.215-.46.059a22.142,22.142,0,0,0-4.693-2.734,1.486,1.486,0,0,1-.525-.35c-.193-.2-.263-.368.1-.46.448-.124.889-.276,1.33-.429a.671.671,0,0,0,.4-.465.709.709,0,0,0-.129-.61,4.888,4.888,0,0,0-4.017-1.289c-.386.052-.36.368-.466.609s.043.353.2.488A4.648,4.648,0,0,1,35.658,6.6ZM3.223,24.238a4.045,4.045,0,0,1-.193.61c-.245.488-.023.768.35,1.032a2.134,2.134,0,0,0,2.182.4,2.306,2.306,0,0,0,1.422-1.785,24.646,24.646,0,0,1,3.166-7.363c.193-.3.618-.609.51-.9-.088-.224-.613-.256-.941-.38A7.3,7.3,0,0,1,8.281,15.3a.6.6,0,0,1-.3-.378.636.636,0,0,1,.063-.49c.249-.559.58-.813.924-.7.677.2,1.353.427,2.025.624a1.6,1.6,0,0,0,1.681-.465,24.792,24.792,0,0,1,3.064-2.753c.214-.158.207-.266.064-.465-.613-.861-1.237-1.718-1.82-2.6-.292-.443-.448-.042-.642.057-.237.124-.325.264-.114.537.485.626.935,1.282,1.4,1.925.109.148.222.268,0,.443A25.4,25.4,0,0,0,12.3,13.148a1.108,1.108,0,0,1-1.287.276c-.418-.167-.856-.276-1.285-.419-1.42-.453-1.42-.453-2.282.828a1.525,1.525,0,0,0-.357,1.485,1.426,1.426,0,0,0,1.092,1.015c.413.16.84.288,1.295.443a25.361,25.361,0,0,0-3.19,7.455,1.371,1.371,0,0,1-.595.916,1.246,1.246,0,0,1-1.045.151,2.078,2.078,0,0,1-1.426-1.06ZM53.656,22.57A4.028,4.028,0,0,0,53,20.444c-.175-.268-.284-.3-.5-.049-.141.165-.193.256-.05.46a3.379,3.379,0,0,1,.371.76,1.816,1.816,0,0,1-.017,1.514,1.665,1.665,0,0,1-1.142.924c-.3.065-.416-.012-.5-.325a24.261,24.261,0,0,0-3.905-8.2c-.17-.234-.147-.331.064-.506.833-.685,1.639-1.405,2.476-2.086.386-.309.016-.447-.095-.63s-.2-.406-.5-.153c-1.007.888-2.033,1.749-3.064,2.61-.216.184-.207.291-.035.508a23.679,23.679,0,0,1,4.815,10.732c.081.46.363.355.6.331.363-.037.106-.3.11-.46a1.275,1.275,0,0,0-.072-.445c-.083-.236-.019-.317.213-.368a2.32,2.32,0,0,0,1.874-2.485ZM44.767,47.476a1.855,1.855,0,0,0-.91.225,10.951,10.951,0,0,0-1.9,1.531c-.155.126-.066.2.021.319q1.327,1.631,2.657,3.256c.088.106.165.227.309.087a8.553,8.553,0,0,0,1.739-1.8,2.586,2.586,0,0,0-.026-2.359,2.346,2.346,0,0,0-1.895-1.264Zm6.025-6.141c-.168-.828-.438-1.186-.933-1.267s-.9.2-1.268.953c-.193.406-.4.813-.6,1.2-.077.155-.088.256.095.355,1.226.656,2.442,1.326,3.672,1.991.095.052.193.148.272-.029a7.708,7.708,0,0,0,.895-2.157,1.318,1.318,0,0,0-1.008-1.536,1.368,1.368,0,0,0-1.127.486ZM17.4,55.68V53.747c0-.3.054-.453.4-.52a1.345,1.345,0,0,0,1.072-1.158,1.247,1.247,0,0,0-.613-1.316c-.438-.3-.914-.552-1.353-.845-.193-.124-.269-.061-.365.12-.663,1.219-1.325,2.456-2.013,3.671-.208.368.093.4.263.481s.357.445.568.022c.193-.368.386-.736.6-1.091.064-.11.088-.337.3-.229.165.084.36.145.319.427-.048.331-.06.668-.077,1.006C16.434,55.28,16.436,55.28,17.4,55.68ZM19.888,5.528a1.689,1.689,0,0,1,1.576,1.257c.118.288.083.378-.207.479a23.073,23.073,0,0,0-3.6,1.661c-.284.158-.284.284-.157.567s.263.283.5.14A21.131,21.131,0,0,1,22.047,7.8c.754-.254.733-.244.458-1.038a2.622,2.622,0,0,0-1.42-1.8,2.811,2.811,0,0,0-2.247.1c-.692.306-1.37.644-2.062.954-.228.1-.328.179-.208.465s.263.3.51.177c.622-.309,1.254-.591,1.884-.884a2.086,2.086,0,0,1,.927-.256ZM2.7,35.809c0,1.39.837,2.33,1.978,2.147.947-.153,1.876-.406,2.812-.634.088-.02.221,0,.237-.179a.547.547,0,0,0-.152-.528.486.486,0,0,0-.516-.1c-.773.177-1.528.362-2.3.524a1.015,1.015,0,0,1-1.287-.581c-.232-.666.064-1.174.854-1.381s1.594-.36,2.386-.559c.13-.032.386.029.367-.217a4.057,4.057,0,0,0-.152-.791c-.016-.065-.106-.035-.17-.02a29.245,29.245,0,0,0-3.032.736A1.515,1.515,0,0,0,2.7,35.809ZM50.5,46.433a1.738,1.738,0,0,0-.728-1.464c-.624-.526-1.274-1.012-1.886-1.565-.282-.248-.432-.248-.657.077-.193.276-.213.429.083.609a6.164,6.164,0,0,1,.647.522c.485.406,1,.8,1.444,1.252a.968.968,0,0,1,0,1.5c-.363.337-.773.331-1.308-.092q-1.05-.813-2.048-1.672c-.306-.264-.386,0-.5.179s-.477.329-.088.63c.7.54,1.364,1.117,2.05,1.67a1.5,1.5,0,0,0,1.789.276,2.251,2.251,0,0,0,1.2-1.922Zm4.576-9.989c-1.5.092-2.958.184-4.413.276-.284.017-.485.065-.58.433a.556.556,0,0,0,.263.7,3.925,3.925,0,0,1,.373.319l3.2,2.738c-.139-.46.386-.744-.088-1.115-.819-.656-.8-.678-.491-1.737a.613.613,0,0,0,.027-.1c.039-.321.193-.427.516-.431C54.826,37.52,54.826,37.5,55.072,36.445ZM15.941,49.172a1.1,1.1,0,0,1-.193-.1c-.535-.46-1.072-.912-1.6-1.381-.181-.163-.251,0-.336.1-.852,1.1-1.7,2.194-2.558,3.283-.133.17-.131.264.035.406.58.481,1.159.969,1.714,1.473.181.16.284.138.418-.051s.243-.3,0-.483c-.338-.256-.643-.552-.963-.828-.155-.126-.179-.2-.05-.4.684-.991.677-1,1.557-.258a1.153,1.153,0,0,1,.149.128c.193.215.294.065.41-.087s.214-.286,0-.451c-.263-.2-.493-.431-.748-.634-.16-.128-.175-.2-.04-.4.568-.794.559-.8,1.3-.173a2.759,2.759,0,0,0,.263.222c.083.055.149.232.274.114a4.739,4.739,0,0,0,.375-.49Zm4.887,2.844a1.069,1.069,0,0,0-1.069.5,1.2,1.2,0,0,0-.021,1.23c.216.465.509.892.734,1.353a.681.681,0,0,1-.112.835.616.616,0,0,1-.8.045,1.067,1.067,0,0,1-.41-.329c-.193-.327-.35-.252-.58-.047-.294.258-.013.38.088.516a1.9,1.9,0,0,0,.788.562,1.539,1.539,0,0,0,1.786-.268,1.506,1.506,0,0,0,.011-1.785c-.175-.34-.369-.668-.543-1.012-.128-.246-.211-.51.021-.736s.506-.128.749.027a.9.9,0,0,1,.253.227c.224.323.386.042.541-.071.222-.163.013-.3-.075-.406a1.871,1.871,0,0,0-1.357-.63Zm10.144,3.555c-.309-.583-.607-1.138-.9-1.694-.077-.148-.137-.3-.35-.271-.277.039-.554.047-.895.073.35.585.624,1.138.98,1.625a3.681,3.681,0,0,1,.723,2.438c-.025.493.128.685.63.6.286-.051.386-.111.34-.422-.04-.248-.013-.508-.056-.754a2.4,2.4,0,0,1,.237-1.55c.363-.722.667-1.473,1-2.235a.861.861,0,0,0-1.121.687,15,15,0,0,1-.589,1.516Zm7.468-.189a1.837,1.837,0,0,0-.45-1.315,1.659,1.659,0,0,0-1.214-.57,1.831,1.831,0,0,0-.123,3.655,1.679,1.679,0,0,0,1.25-.486,1.858,1.858,0,0,0,.549-1.276ZM25.885,57.86c-.125.313.066.406.438.449.4.042.525-.086.541-.5.04-.855.141-1.708.2-2.564.077-1.012.072-1.012,1.04-.92l.095.014c.29.049.24-.191.274-.357.045-.2,0-.311-.23-.331-1-.092-2.013-.2-3.012-.3-.193-.018-.367-.069-.386.26s.093.421.365.424c.193,0,.386.045.58.035.369-.017.453.156.411.52-.118,1.069-.207,2.117-.311,3.285Zm15.128-2.452c-.05-.111-.081-.189-.118-.264-.313-.66-.618-1.324-.949-1.974-.133-.26-.137-.406.152-.532.157-.067.446-.081.263-.434s-.342-.106-.462-.014c-.292.222-.406.079-.525-.191-.157-.357-.181-.66.245-.8.249-.079.214-.242.162-.429-.067-.237-.224-.121-.35-.092a1.143,1.143,0,0,0-.86.652,1.251,1.251,0,0,0,.025,1.115c.095.227.165.406-.13.493-.175.059-.136.173-.074.315.079.184.175.225.328.108.2-.158.288-.042.386.153.33.707.674,1.405,1.016,2.109.054.114.088.276.269.165.208-.126.474-.165.624-.376ZM50.73,34.281c-.12.345.175.3.325.325,1.248.219,2.5.406,3.745.644.51.1.421-.246.5-.54.1-.368-.058-.422-.34-.468-1.171-.184-2.338-.406-3.513-.577-.682-.1-.6-.26-.715.626ZM23.6,52.95c-.248-.075-.263.106-.309.3-.282,1.311-.559,2.623-.869,3.924-.088.353,0,.46.32.52s.545.184.637-.319c.226-1.219.518-2.423.773-3.636.165-.676.139-.711-.547-.784ZM9.965,42.62l-.149.092c-1.152.791-2.309,1.565-3.44,2.374-.408.288.088.455.145.678s.193.291.423.128c1.1-.774,2.22-1.528,3.327-2.294.1-.069.317-.11.175-.323A2.274,2.274,0,0,0,9.965,42.62ZM27.175,1.073c-.292.022-.58-.11-.565.368,0,.406.193.445.469.406.193-.03.5.163.488-.311C27.56,1.169,27.483.99,27.175,1.073ZM9.3,20.658a1.034,1.034,0,0,0-.35.782c-.013.291.4.368.525.325.284-.1.33-.486.344-.754S9.478,20.813,9.3,20.658Zm-.411,2.777a1.086,1.086,0,0,0,.357-.766c.045-.313-.327-.352-.474-.333-.365.042-.369.469-.406.729s.329.192.522.371Zm40.549-.165c-.193-.189-.035-.628-.365-.7-.143-.03-.554-.024-.51.323.031.248-.035.664.34.7a.437.437,0,0,0,.525-.331ZM14.962,13.8c-.193-.167-.28-.522-.483-.469a.84.84,0,0,0-.6.577c-.029.163.218.535.438.473a1.362,1.362,0,0,0,.649-.581Zm13.765-12c.29.027.545.03.474-.388-.029-.17.075-.481-.263-.35-.221.087-.613-.291-.661.254C28.251,1.667,28.337,1.912,28.727,1.8Z" transform="translate(-0.069 0.012)" fill="#12176e"/><path d="M48.808,69.084c.015-11.324,8.76-20.491,19.531-20.474s19.49,9.212,19.472,20.536S79.047,89.635,68.276,89.615A19,19,0,0,1,54.49,83.6,21.019,21.019,0,0,1,48.808,69.084ZM80.433,56.74c-.033-.752-.033-.744-.847-.912a52.933,52.933,0,0,0-8.007-1.036,55.724,55.724,0,0,0-14.97,1.117c-.371.081-.485.2-.483.609.016,3.421,0,6.84.013,10.261A29.984,29.984,0,0,0,57.2,74.751a18.39,18.39,0,0,0,4.7,8.375,16.223,16.223,0,0,0,3.772,2.669.293.293,0,0,0,.168.229,17.379,17.379,0,0,0,3.112,1.323.752.752,0,0,0,.472-.032,15.107,15.107,0,0,0,8.345-6.361,23.871,23.871,0,0,0,3.478-12.307c.122-3.657.037-7.34.04-11.01C81.283,56.769,81.274,56.761,80.433,56.74Z" transform="translate(-39.445 -38.758)" fill="#8e7245"/><path d="M143.717,16.336a4.558,4.558,0,0,0-1.159-1.343c-.162-.134-.313-.246-.2-.488s.077-.552.466-.609a4.887,4.887,0,0,1,4.014,1.276.706.706,0,0,1,.131.611.668.668,0,0,1-.4.464c-.438.15-.882.3-1.33.429-.355.1-.29.256-.1.46a1.561,1.561,0,0,0,.525.35,22.276,22.276,0,0,1,4.693,2.731c.2.155.311.136.46-.059.4-.524.819-1.036,1.231-1.552.088-.11.155-.276.334-.106a8.794,8.794,0,0,1,1.5,1.481,2.349,2.349,0,0,1-.788,3.453c-.251.179-.35-.059-.467-.184a22.542,22.542,0,0,0-6.537-4.725c-.334-.163-.68-.3-1.018-.445a2.054,2.054,0,0,1-.543-.317c-.6-.522-.6-.5-1.439-.528a25.555,25.555,0,0,1-2.692-.51,14.863,14.863,0,0,0-2.2-.232,1.6,1.6,0,0,1-1.772-1.174,1.21,1.21,0,0,1-1.594.416,1.645,1.645,0,0,1-.889-1.5c-.081-1.388.466-2,1.789-2,.4,0,.8,0,1.2-.022.277-.018.357.086.35.368-.01.707.011,1.422.023,2.117s.224.965.912,1.012a25.1,25.1,0,0,1,4.177.658A1.915,1.915,0,0,0,143.717,16.336Zm9.75,4.8a1.869,1.869,0,0,0-.744-1.473c-.16-.144-.248-.061-.35.069a9.7,9.7,0,0,1-.713.885c-.3.3-.249.5.08.722a4.649,4.649,0,0,1,.58.522c.545.512.85.419,1.076-.345a2.481,2.481,0,0,0,.072-.38Zm-17.049-7.461v-.5c0-.121,0-.246-.162-.244-.425,0-.891-.106-1.219.284a1.255,1.255,0,0,0-.175,1.242.757.757,0,0,0,.709.644.779.779,0,0,0,.773-.628,2.2,2.2,0,0,0,.075-.8Zm7.014,1.006a6.449,6.449,0,0,1,1,1.254c.075.148.175.1.282.063.4-.128.808-.249,1.313-.406a3.792,3.792,0,0,0-2.6-.91Z" transform="translate(-108.128 -9.727)" fill="#f6f6f9"/><path d="M15.444,55.105a2.079,2.079,0,0,0,1.428,1.062,1.251,1.251,0,0,0,1.041-.153,1.375,1.375,0,0,0,.6-.909,25.384,25.384,0,0,1,3.19-7.455c-.454-.155-.875-.283-1.295-.443a1.426,1.426,0,0,1-1.092-1.015,1.525,1.525,0,0,1,.357-1.485c.86-1.288.86-1.288,2.282-.828.429.136.866.252,1.285.419a1.108,1.108,0,0,0,1.285-.276A25.153,25.153,0,0,1,26.836,41.9c.226-.175.112-.295,0-.443-.466-.644-.916-1.3-1.4-1.925-.211-.276-.125-.406.114-.537.193-.1.35-.5.642-.061.58.885,1.2,1.743,1.82,2.6.143.2.151.306-.064.465a24.792,24.792,0,0,0-3.064,2.753,1.6,1.6,0,0,1-1.681.465c-.678-.2-1.353-.416-2.025-.624-.35-.106-.677.144-.924.7a.636.636,0,0,0-.063.49.6.6,0,0,0,.3.378,7.4,7.4,0,0,0,1.437.552c.328.124.856.156.941.38.109.283-.317.609-.51.9A24.7,24.7,0,0,0,19.2,55.355a2.307,2.307,0,0,1-1.421,1.778,2.135,2.135,0,0,1-2.178-.392c-.369-.266-.594-.547-.35-1.032a4.508,4.508,0,0,0,.2-.6Z" transform="translate(-12.29 -30.856)" fill="#f6f6f9"/><path d="M245.67,69.83a2.308,2.308,0,0,1-1.871,2.485c-.232.052-.3.134-.213.368a1.293,1.293,0,0,1,.072.445c0,.16.253.427-.11.46-.24.024-.525.132-.6-.331a23.679,23.679,0,0,0-4.815-10.732c-.175-.219-.181-.327.035-.508,1.028-.86,2.056-1.723,3.064-2.61.3-.26.386-.029.5.153s.475.319.095.63c-.837.678-1.642,1.4-2.476,2.086-.211.175-.234.276-.064.506a24.223,24.223,0,0,1,3.9,8.207c.083.315.193.392.5.325a1.663,1.663,0,0,0,1.145-.924,1.814,1.814,0,0,0,.014-1.517,3.422,3.422,0,0,0-.371-.76c-.137-.2-.088-.293.05-.46.213-.248.327-.219.5.049a4.028,4.028,0,0,1,.657,2.131Z" transform="translate(-192.078 -47.248)" fill="#f6f6f9"/><path d="M22.745,188.44c-.788.36-1.583.715-2.369,1.085-.253.118-.431.225-.589-.165-.141-.35-.039-.451.242-.577,1.13-.514,2.249-1.055,3.377-1.565.155-.071.35-.319.491-.111a.743.743,0,0,1,.116.794c-.5,1-.963,2.005-1.451,3.01a.949.949,0,0,0-.193.552c.839-.406,1.663-.749,2.451-1.17.427-.227.477.1.613.34.193.353-.141.333-.284.406q-1.7.823-3.414,1.625c-.143.065-.328.293-.464.087a.718.718,0,0,1-.155-.778c.58-1.144,1.127-2.3,1.687-3.453.027-.042.048-.086,0-.12C22.8,188.371,22.767,188.411,22.745,188.44Z" transform="translate(-15.982 -149.027)" fill="#f6f6f9"/><path d="M219.573,233.73A2.345,2.345,0,0,1,221.467,235a2.584,2.584,0,0,1,.019,2.36,8.652,8.652,0,0,1-1.739,1.8c-.145.138-.224.017-.309-.087q-1.327-1.625-2.655-3.263c-.088-.106-.175-.193-.021-.319a10.88,10.88,0,0,1,1.9-1.531,1.82,1.82,0,0,1,.912-.225Zm.342,4.372c.168-.148.319-.276.46-.406a1.411,1.411,0,0,0,.525-1.513,2.073,2.073,0,0,0-1.4-1.534c-.686-.177-1.144.286-1.6.717-.11.1-.081.184,0,.293q1.013,1.214,2.015,2.444Z" transform="translate(-174.878 -186.242)" fill="#f6f6f9"/><path d="M250.875,198.489A1.368,1.368,0,0,1,251.99,198a1.25,1.25,0,0,1,.807.548,1.372,1.372,0,0,1,.2.988,7.683,7.683,0,0,1-.895,2.157c-.077.177-.175.081-.272.029-1.226-.664-2.439-1.334-3.672-1.991-.193-.1-.175-.2-.095-.355.193-.406.4-.813.6-1.2.371-.742.762-1.036,1.268-.953S250.715,197.669,250.875,198.489Zm.717.481a1.167,1.167,0,0,0-.931.884.151.151,0,0,0,.093.153c.355.19.707.386,1.063.577.056.03.13.049.168-.027.175-.335.41-.664.257-1.079a.735.735,0,0,0-.651-.5Zm-1.25-.079a.733.733,0,0,0-.58-.717c-.46-.069-.613.327-.733.663-.143.386.282.3.425.46a.6.6,0,0,0,.168.092c.472.264.7.112.719-.493Z" transform="translate(-200.157 -157.147)" fill="#f6f6f9"/><path d="M77.719,251.223c-.963-.4-.963-.4-.92-1.365.018-.335.029-.673.077-1.006.04-.284-.155-.343-.319-.427-.211-.108-.23.122-.3.229-.211.357-.416.719-.6,1.091-.211.424-.4.065-.568-.022s-.469-.111-.263-.481c.684-1.219,1.353-2.438,2.013-3.671.1-.184.175-.246.365-.12.448.293.922.542,1.353.845a1.262,1.262,0,0,1,.613,1.316,1.351,1.351,0,0,1-1.072,1.158c-.344.067-.4.222-.4.52C77.723,249.908,77.719,250.529,77.719,251.223Zm.551-3.947a.618.618,0,0,0-.28-.547c-.175-.1-.36-.427-.554-.184a6.961,6.961,0,0,0-.613,1.079.118.118,0,0,0-.024.094.114.114,0,0,0,.053.079c.263.165.514.36.847.232a.862.862,0,0,0,.572-.749Z" transform="translate(-60.385 -195.535)" fill="#f6f6f9"/><path d="M88.842,24.28a2.149,2.149,0,0,0-.927.242c-.63.293-1.261.575-1.884.884-.249.124-.386.128-.51-.177s-.019-.368.208-.465c.692-.306,1.37-.644,2.062-.954a2.811,2.811,0,0,1,2.247-.1,2.641,2.641,0,0,1,1.42,1.8c.272.784.3.786-.458,1.038a21.131,21.131,0,0,0-4.048,1.829c-.243.144-.362.168-.5-.14s-.13-.406.157-.567a23.071,23.071,0,0,1,3.6-1.657c.29-.1.323-.191.207-.479A1.686,1.686,0,0,0,88.842,24.28Z" transform="translate(-69.022 -18.741)" fill="#f6f6f9"/><path d="M14,167.164a1.51,1.51,0,0,1,1.036-1.578,29.374,29.374,0,0,1,3.032-.736c.064-.017.155-.045.17.02a4.058,4.058,0,0,1,.147.784c.011.246-.237.184-.367.217-.788.2-1.6.352-2.386.559s-1.088.717-.854,1.381a1.014,1.014,0,0,0,1.287.581c.773-.163,1.53-.347,2.3-.524a.486.486,0,0,1,.516.1.547.547,0,0,1,.152.528c-.018.184-.149.158-.237.179-.935.222-1.866.481-2.812.634C14.83,169.5,14,168.554,14,167.164Z" transform="translate(-11.363 -131.343)" fill="#f6f6f9"/><path d="M239.524,216.052a2.248,2.248,0,0,1-1.2,1.924,1.5,1.5,0,0,1-1.789-.276c-.688-.552-1.353-1.129-2.05-1.67-.386-.3-.018-.447.088-.63s.193-.445.5-.179c.667.577,1.353,1.134,2.048,1.672.543.421.945.427,1.308.092a.963.963,0,0,0,0-1.5c-.446-.455-.963-.839-1.444-1.252a5.68,5.68,0,0,0-.647-.522c-.3-.184-.277-.333-.083-.609.224-.325.386-.325.657-.077.613.54,1.261,1.036,1.886,1.565A1.733,1.733,0,0,1,239.524,216.052Z" transform="translate(-189.102 -169.607)" fill="#f6f6f9"/><path d="M263.983,179.45c-.236,1.057-.236,1.075-1.2,1.082-.32,0-.477.11-.516.431a.616.616,0,0,1-.027.1c-.313,1.058-.328,1.08.491,1.737.464.368-.054.654.088,1.115l-3.2-2.738c-.123-.106-.242-.224-.373-.319a.557.557,0,0,1-.263-.7c.1-.357.3-.406.579-.433Zm-3.946,1.057a1.119,1.119,0,0,1-.016.111l1.218.942c.075.059.175.153.226,0,.1-.3.181-.609.263-.914.04-.163-.081-.146-.175-.146-.514,0-1.018.006-1.522.006Z" transform="translate(-208.982 -142.993)" fill="#f6f6f9"/><path d="M45.682,220.232l2.626-1.087c.707-.293.707-.293,1.208.347,0,.12-.1.11-.165.134-1.4.526-2.8,1.042-4.2,1.577a.369.369,0,0,1-.295.025.392.392,0,0,1-.225-.2c-.1-.167-.328-.256-.175-.552.744-1.444,1.469-2.9,2.21-4.378a3.374,3.374,0,0,1,.6.736c.16.2,0,.345-.083.5-.52.944-1.051,1.885-1.576,2.828-.01.037-.018.073-.027.109Z" transform="translate(-35.897 -172.197)" fill="#f6f6f9"/><path d="M62.508,236a4.459,4.459,0,0,1-.386.486c-.125.116-.193-.059-.274-.114s-.175-.148-.263-.222c-.738-.628-.728-.621-1.3.173-.131.184-.12.271.04.4.255.2.488.437.748.634.218.165.122.295,0,.451s-.222.3-.41.087a1.329,1.329,0,0,0-.149-.128c-.875-.736-.875-.736-1.557.258-.128.184-.1.271.05.4.328.268.636.569.963.828.245.184.125.309,0,.483s-.235.214-.418.051c-.562-.5-1.138-.988-1.714-1.473-.166-.138-.168-.232-.035-.406.858-1.089,1.706-2.189,2.558-3.283.088-.11.152-.264.336-.1.525.468,1.063.92,1.6,1.38a1.511,1.511,0,0,0,.209.106Z" transform="translate(-46.633 -186.819)" fill="#f6f6f9"/><path d="M97.8,256.139a1.859,1.859,0,0,1,1.353.644c.088.1.3.242.075.406-.155.111-.315.392-.541.071a.869.869,0,0,0-.253-.227c-.242-.155-.5-.266-.749-.027s-.149.491-.021.736c.175.34.371.666.543,1.006a1.543,1.543,0,0,1-.011,1.785,1.568,1.568,0,0,1-1.786.268,1.9,1.9,0,0,1-.788-.562c-.106-.136-.386-.26-.088-.516.234-.2.386-.276.58.047a1.068,1.068,0,0,0,.41.335.623.623,0,0,0,.8-.045.68.68,0,0,0,.112-.835c-.226-.46-.518-.888-.734-1.353a1.206,1.206,0,0,1,.032-1.229A1.079,1.079,0,0,1,97.8,256.139Z" transform="translate(-77.034 -204.103)" fill="#f6f6f9"/><path d="M151.306,264.975a14.535,14.535,0,0,0,.58-1.5.861.861,0,0,1,1.121-.687c-.336.754-.64,1.506-1,2.235a2.4,2.4,0,0,0-.237,1.55c.043.246.016.506.056.754.053.311-.054.368-.34.422-.5.087-.655-.1-.63-.6a3.681,3.681,0,0,0-.723-2.438c-.355-.488-.632-1.04-.98-1.625.34-.027.621-.035.895-.073.214-.029.274.121.35.271C150.7,263.829,151,264.392,151.306,264.975Z" transform="translate(-120.399 -209.384)" fill="#f6f6f9"/><path d="M184.518,265.322a1.779,1.779,0,0,1-1.789,1.763,1.819,1.819,0,0,1-1.679-1.893,1.783,1.783,0,0,1,1.807-1.749,1.652,1.652,0,0,1,1.213.566,1.829,1.829,0,0,1,.449,1.313Zm-.882.309a2.312,2.312,0,0,0-.386-1.219.671.671,0,0,0-.861-.335.756.756,0,0,0-.445.855,2.218,2.218,0,0,0,.406,1.164.669.669,0,0,0,.813.362.734.734,0,0,0,.466-.828Z" transform="translate(-146.135 -209.92)" fill="#f6f6f9"/><path d="M129.608,267.153c.106-1.164.193-2.221.307-3.273.04-.368-.043-.537-.411-.52-.193,0-.386-.03-.58-.035-.272,0-.386-.092-.365-.424s.2-.276.386-.26c1,.1,2.007.2,3.012.3.221.02.272.128.23.331-.037.167.013.406-.274.357a.75.75,0,0,0-.095-.014c-.963-.1-.963-.1-1.04.92-.064.855-.165,1.708-.2,2.564-.019.406-.139.545-.541.5C129.672,267.564,129.481,267.468,129.608,267.153Z" transform="translate(-103.785 -209.273)" fill="#f6f6f9"/><path d="M201.1,254.074c-.151.2-.418.249-.624.382s-.214-.051-.269-.165c-.34-.7-.686-1.4-1.016-2.108-.088-.193-.175-.311-.386-.153-.152.12-.248.077-.328-.108-.062-.143-.1-.258.074-.315.293-.1.226-.266.13-.493a1.251,1.251,0,0,1-.025-1.115,1.143,1.143,0,0,1,.86-.652c.128-.032.282-.148.35.092.054.184.088.35-.162.429-.429.136-.4.439-.245.8.12.276.234.406.525.191.12-.092.294-.311.462.014s-.109.368-.263.434c-.29.121-.284.276-.152.532.33.65.634,1.314.949,1.974C201.023,253.885,201.05,253.963,201.1,254.074Z" transform="translate(-160.155 -198.645)" fill="#f6f6f9"/><path d="M262.442,166.083c.114-.885.033-.723.723-.619,1.173.175,2.34.392,3.513.577.282.045.442.1.34.468-.083.295,0,.644-.5.54-1.244-.242-2.5-.422-3.745-.644C262.615,166.382,262.323,166.428,262.442,166.083Z" transform="translate(-211.777 -131.782)" fill="#f6f6f9"/><path d="M117.183,260.669c.686.073.711.108.562.794-.263,1.219-.557,2.418-.773,3.636-.095.506-.336.374-.637.319s-.4-.168-.32-.52c.311-1.3.58-2.615.869-3.924C116.915,260.774,116.936,260.592,117.183,260.669Z" transform="translate(-93.644 -207.699)" fill="#f6f6f9"/><path d="M35.9,209.85a2.2,2.2,0,0,1,.469.66c.152.225-.072.254-.175.323-1.107.766-2.226,1.519-3.327,2.294-.232.163-.365.092-.423-.128s-.551-.392-.136-.68c1.138-.813,2.3-1.585,3.449-2.374A1.126,1.126,0,0,1,35.9,209.85Z" transform="translate(-26.003 -167.218)" fill="#f6f6f9"/><path d="M138.252,5.251c.309-.083.386.092.386.46.011.473-.291.276-.488.311-.286.042-.464,0-.469-.406C137.68,5.141,137.96,5.271,138.252,5.251Z" transform="translate(-111.145 -4.165)" fill="#f6f6f9"/><path d="M46.661,101.74c.175.155.538.079.525.355s-.06.654-.344.754c-.13.045-.543-.035-.525-.325a1.034,1.034,0,0,1,.35-.784Z" transform="translate(-37.431 -81.07)" fill="#f6f6f9"/><path d="M43.809,111.085c-.175-.179-.562-.092-.525-.368s.04-.687.406-.729c.147-.018.518.02.474.333a1.071,1.071,0,0,1-.357.766Z" transform="translate(-34.99 -87.637)" fill="#f6f6f9"/><path d="M252.131,111.822a.458.458,0,0,1-.2.283.419.419,0,0,1-.333.049c-.375-.04-.309-.46-.34-.7-.045-.347.367-.353.51-.323C252.1,111.193,251.931,111.632,252.131,111.822Z" transform="translate(-202.773 -88.539)" fill="#f6f6f9"/><path d="M72.885,66.135a1.362,1.362,0,0,1-.645.581c-.222.061-.472-.311-.438-.473a.84.84,0,0,1,.6-.577C72.609,65.6,72.692,65.963,72.885,66.135Z" transform="translate(-57.993 -52.319)" fill="#f6f6f9"/><path d="M146.786,5.84c-.386.114-.475-.132-.446-.481.046-.545.438-.167.661-.254.336-.134.232.177.263.35C147.33,5.869,147.077,5.859,146.786,5.84Z" transform="translate(-118.127 -4.027)" fill="#f6f6f9"/><path d="M96.224,109.626a16.408,16.408,0,0,1-3.772-2.669,18.369,18.369,0,0,1-4.7-8.375,30.063,30.063,0,0,1-1.057-7.961c-.017-3.421,0-6.84-.013-10.261,0-.406.112-.532.483-.609a55.813,55.813,0,0,1,14.97-1.117,52.892,52.892,0,0,1,8.007,1.018c.811.168.813.16.847.912,0,3.2-.027,6.4,0,9.595a29.543,29.543,0,0,1-1.287,9.233c-1.759,5.507-5.1,9.388-10.488,11.143a1.126,1.126,0,0,1-.744,0,21.649,21.649,0,0,1-2.245-.907ZM93.381,85.643l3.838,2.724c-.122-1.716-.237-3.338-.35-4.959l.109-.018,2.052,4.481c.734-1.6,1.424-3.106,2.112-4.611l.062.032c-.122,1.666-.242,3.332-.369,5.078l3.889-2.787.083.092-1.38,2.139a11.755,11.755,0,0,1,5.281-.067c-.088-.226-.133-.386-.193-.535A10.078,10.078,0,0,0,99.733,80.8a9.784,9.784,0,0,0-9.512,5.125,10.994,10.994,0,0,0-1.107,8.965c.06.217.1.422.41.46a8.672,8.672,0,0,0,4.97-.78,3.766,3.766,0,0,0,1.343-1.006l-4.674.368-.011-.114,4.272-2.157L91.034,89.45a.256.256,0,0,1,.025-.071l4.831.394c-.887-1.388-1.739-2.706-2.577-4.026ZM100,102.719V106.2c0,.288.081.375.35.368.69-.018,1.38.014,2.069-.01a3.455,3.455,0,0,0,3.5-3.251c.236-1.782-.3-3.911-2.9-4.294a22.761,22.761,0,0,0-2.786-.063c-.3,0-.224.219-.224.388-.014,1.118-.012,2.246-.012,3.375Zm-1.159-.92V99.271c0-.136.053-.286-.179-.329-.788-.145-.947-.02-.947.8v.656c0,1.264.01,2.527,0,3.791-.013,1.219-.57,1.869-1.6,1.9a1.56,1.56,0,0,1-1.33-.452,1.741,1.741,0,0,1-.491-1.376c-.011-1.422,0-2.83,0-4.244,0-1.1,0-1.091-1.076-1.069-.28,0-.35.1-.35.378.011,1.652,0,3.3,0,4.952a2.27,2.27,0,0,0,1.423,2.194,3.793,3.793,0,0,0,2.265.248,2.428,2.428,0,0,0,1.736-.928,2.685,2.685,0,0,0,.554-1.963c-.029-.687,0-1.363,0-2.039Zm-8.889-5.023a7.2,7.2,0,0,0,2.319.51,7.343,7.343,0,0,0,5.549-1.625,22.528,22.528,0,0,0,2.875-3.11,8.06,8.06,0,0,1,5.261-3.047,22.319,22.319,0,0,1,2.9-.184,4.789,4.789,0,0,0-1.605-.433,7.638,7.638,0,0,0-6.711,1.959,22.8,22.8,0,0,0-2.013,2.261A8.519,8.519,0,0,1,93.5,96.5a16.743,16.743,0,0,1-3.553.276Z" transform="translate(-70.001 -62.583)" fill="#fefefe"/><path d="M136.07,117.538a20.357,20.357,0,0,0,2.236.9,1.126,1.126,0,0,0,.744,0c5.383-1.757,8.73-5.635,10.488-11.143a29.543,29.543,0,0,0,1.287-9.233c-.019-3.2,0-6.395,0-9.595.84.02.85.029.848.9,0,3.671.079,7.343-.04,11.01a23.768,23.768,0,0,1-3.478,12.307,15.1,15.1,0,0,1-8.345,6.361.751.751,0,0,1-.472.032,17.091,17.091,0,0,1-3.111-1.324.3.3,0,0,1-.157-.222Z" transform="translate(-109.847 -70.496)" fill="#222220"/><path d="M226.645,50.113a2.587,2.587,0,0,1-.064.38c-.226.764-.531.86-1.076.345a4.993,4.993,0,0,0-.58-.522c-.33-.222-.386-.416-.079-.722a10.335,10.335,0,0,0,.713-.885c.1-.13.193-.2.35-.069A1.888,1.888,0,0,1,226.645,50.113Z" transform="translate(-181.306 -38.7)" fill="#171c71"/><path d="M139.958,16.475a2.173,2.173,0,0,1-.074.8.791.791,0,0,1-.773.628.759.759,0,0,1-.709-.644,1.306,1.306,0,0,1,.175-1.242c.328-.39.794-.276,1.219-.284.162,0,.162.124.162.244C139.958,16.14,139.958,16.306,139.958,16.475Z" transform="translate(-111.667 -12.524)" fill="#171c71"/><path d="M183.07,24.381a3.8,3.8,0,0,1,2.6.91c-.5.156-.91.276-1.313.406-.11.035-.207.086-.282-.063a7.019,7.019,0,0,0-1-1.254Z" transform="translate(-147.765 -19.423)" fill="#171c71"/><path d="M35.36,193.768c.019-.02.05-.063.056-.059.054.035.033.077,0,.12a.6.6,0,0,1-.056-.061Z" transform="translate(-28.597 -154.355)" fill="#13186f"/><path d="M224.74,241.6c-.671-.813-1.335-1.635-2.006-2.438-.088-.1-.114-.189,0-.293.456-.433.914-.894,1.6-.717a2.087,2.087,0,0,1,1.4,1.534,1.417,1.417,0,0,1-.525,1.513C225.058,241.322,224.908,241.447,224.74,241.6Z" transform="translate(-179.704 -189.737)" fill="#171c71"/><path d="M262.652,205.89a.734.734,0,0,1,.647.51c.152.406-.081.744-.257,1.079-.039.075-.112.055-.168.027-.355-.191-.707-.386-1.063-.577a.155.155,0,0,1-.093-.153,1.161,1.161,0,0,1,.934-.885Z" transform="translate(-211.216 -164.062)" fill="#171c71"/><path d="M254.465,202.656c-.011.609-.248.76-.723.5a.621.621,0,0,1-.168-.092c-.143-.156-.568-.075-.425-.46.123-.335.272-.732.733-.663A.726.726,0,0,1,254.465,202.656Z" transform="translate(-204.279 -160.908)" fill="#171c71"/><path d="M86.737,251.493a.861.861,0,0,1-.58.754c-.33.128-.58-.067-.847-.232a.114.114,0,0,1-.053-.079.118.118,0,0,1,.024-.094,7.224,7.224,0,0,1,.613-1.079c.193-.239.386.092.554.184A.6.6,0,0,1,86.737,251.493Z" transform="translate(-68.852 -199.752)" fill="#171c71"/><path d="M264.468,184.648h1.514c.088,0,.215-.017.175.146-.08.306-.157.609-.263.914-.05.146-.151.052-.226,0l-1.218-.942Z" transform="translate(-213.42 -147.135)" fill="#171c71"/><path d="M50.6,236.169l-.095.041c.01-.037.018-.073.027-.11Z" transform="translate(-40.819 -188.135)" fill="#13186f"/><path d="M187.273,267.925a.748.748,0,0,1-.483.828c-.379.14-.613-.092-.813-.362a2.217,2.217,0,0,1-.406-1.164.767.767,0,0,1,.445-.855.685.685,0,0,1,.861.335A2.258,2.258,0,0,1,187.273,267.925Z" transform="translate(-149.779 -212.213)" fill="#171c71"/><path d="M101.409,94.541l2.578,4.027-4.831-.394a.256.256,0,0,1-.025.071l4.388,2.214-4.276,2.157.011.114,4.674-.368a3.812,3.812,0,0,1-1.353,1.006,8.639,8.639,0,0,1-4.97.78c-.313-.037-.35-.242-.41-.46a11.065,11.065,0,0,1,6.27-13.412,10.2,10.2,0,0,1,13.126,5.735,5.3,5.3,0,0,1,.193.535,11.756,11.756,0,0,0-5.281.067l1.38-2.139-.083-.092-3.872,2.793c.128-1.749.25-3.419.369-5.078l-.062-.032c-.69,1.5-1.378,3.009-2.112,4.612l-2.046-4.5-.109.018c.116,1.625.23,3.251.35,4.959l-3.843-2.724h-.118A.966.966,0,0,0,101.409,94.541Z" transform="translate(-78.098 -71.38)" fill="#13186f"/><path d="M155.549,182.715v-3.384c0-.168-.074-.394.224-.388a22.765,22.765,0,0,1,2.786.063c2.6.384,3.136,2.512,2.9,4.294a3.441,3.441,0,0,1-3.5,3.251c-.69.024-1.38,0-2.069.01-.272,0-.355-.079-.35-.368C155.556,185.039,155.549,183.877,155.549,182.715Zm1.38.037v2.724c0,.145-.079.327.181.384a2.457,2.457,0,0,0,2.852-1.922,6.229,6.229,0,0,0,.109-1.5,2.638,2.638,0,0,0-.72-2.072,2.365,2.365,0,0,0-1.985-.715c-.319,0-.45.061-.438.433.02.9,0,1.779,0,2.671Z" transform="translate(-125.554 -142.58)" fill="#222220"/><path d="M124.655,181.565c0,.675-.033,1.349,0,2.025a2.685,2.685,0,0,1-.554,1.963,2.428,2.428,0,0,1-1.736.928,3.793,3.793,0,0,1-2.259-.239,2.266,2.266,0,0,1-1.423-2.194c-.019-1.649,0-3.3,0-4.952,0-.276.066-.368.35-.378,1.076-.022,1.076-.035,1.076,1.069v4.244a1.726,1.726,0,0,0,.485,1.383,1.546,1.546,0,0,0,1.336.446c1.032-.032,1.591-.678,1.6-1.9.013-1.264,0-2.527,0-3.791v-.656c0-.828.16-.949.947-.8.232.042.179.193.179.329Q124.657,180.309,124.655,181.565Z" transform="translate(-95.814 -142.356)" fill="#222220"/><path d="M103.61,137.02a16.506,16.506,0,0,0,3.555-.276,8.5,8.5,0,0,0,5.024-3.392,23.007,23.007,0,0,1,2-2.234,7.63,7.63,0,0,1,6.711-1.958,4.742,4.742,0,0,1,1.606.433,22.7,22.7,0,0,0-2.9.184,8.007,8.007,0,0,0-5.261,3.047,22.424,22.424,0,0,1-2.875,3.11,7.41,7.41,0,0,1-5.554,1.625A7.2,7.2,0,0,1,103.61,137.02Z" transform="translate(-83.659 -102.829)" fill="#8e7245"/><path d="M120.8,113.634l-.048-.092h.118Z" transform="translate(-97.487 -90.473)" fill="#fefefe"/><path d="M162.7,185.554c0-.892.017-1.782,0-2.669-.011-.368.118-.439.438-.433a2.372,2.372,0,0,1,1.988.714,2.645,2.645,0,0,1,.726,2.073,6.132,6.132,0,0,1-.109,1.5,2.456,2.456,0,0,1-2.862,1.915c-.263-.057-.179-.239-.181-.384C162.692,187.368,162.7,186.462,162.7,185.554Z" transform="translate(-131.322 -145.381)" fill="#f6f6f9"/></g></svg>